0
SECTION
2
HEADER
9
$INSUNITS
70
1
9
$ACADVER
1
AC1014
9
$HANDSEED
5
FFFF
0
ENDSEC
0
SECTION
2
TABLES
0
TABLE
2
VPORT
5
8
100
AcDbSymbolTable
0
ENDTAB
0
TABLE
2
LTYPE
5
5
100
AcDbSymbolTable
0
LTYPE
5
14
100
AcDbSymbolTableRecord
100
AcDbLinetypeTableRecord
2
BYBLOCK
70
0
0
LTYPE
5
15
100
AcDbSymbolTableRecord
100
AcDbLinetypeTableRecord
2
BYLAYER
70
0
0
ENDTAB
0
TABLE
2
LAYER
5
2
100
AcDbSymbolTable
70
2
0
LAYER
5
50
100
AcDbSymbolTableRecord
100
AcDbLayerTableRecord
2
0
70
0
6
CONTINUOUS
0
ENDTAB
0
TABLE
2
STYLE
5
3
100
AcDbSymbolTable
70
1
0
STYLE
5
11
100
AcDbSymbolTableRecord
100
AcDbTextStyleTableRecord
2
STANDARD
70
0
0
ENDTAB
0
TABLE
2
VIEW
5
6
100
AcDbSymbolTable
70
0
0
ENDTAB
0
TABLE
2
UCS
5
7
100
AcDbSymbolTable
70
0
0
ENDTAB
0
TABLE
2
APPID
5
9
100
AcDbSymbolTable
70
2
0
APPID
5
12
100
AcDbSymbolTableRecord
100
AcDbRegAppTableRecord
2
ACAD
70
0
0
ENDTAB
0
TABLE
2
DIMSTYLE
5
A
100
AcDbSymbolTable
70
1
0
ENDTAB
0
TABLE
2
BLOCK_RECORD
5
1
100
AcDbSymbolTable
70
1
0
BLOCK_RECORD
5
1F
100
AcDbSymbolTableRecord
100
AcDbBlockTableRecord
2
*MODEL_SPACE
0
BLOCK_RECORD
5
1B
100
AcDbSymbolTableRecord
100
AcDbBlockTableRecord
2
*PAPER_SPACE
0
ENDTAB
0
ENDSEC
0
SECTION
2
BLOCKS
0
BLOCK
5
20
100
AcDbEntity
100
AcDbBlockBegin
2
*MODEL_SPACE
0
ENDBLK
5
21
100
AcDbEntity
100
AcDbBlockEnd
0
BLOCK
5
1C
100
AcDbEntity
100
AcDbBlockBegin
2
*PAPER_SPACE
0
ENDBLK
5
1D
100
AcDbEntity
100
AcDbBlockEnd
0
ENDSEC
0
SECTION
2
ENTITIES
0
LINE
5
100
100
AcDbEntity
8
0
100
AcDbLine
10
-11.499875000000005
20
-7.6631534728600039
30
0
11
-11.499874999999999
21
-6.1633749999999976
31
0
0
LINE
5
101
100
AcDbEntity
8
0
100
AcDbLine
10
-11.499874999999999
20
-6.1633749999999976
30
0
11
-10.681875
21
-6.1633749999999976
31
0
0
LINE
5
102
100
AcDbEntity
8
0
100
AcDbLine
10
-10.681875
20
-6.1633749999999976
30
0
11
-10.681875
21
6.2493750000000015
31
0
0
ARC
5
103
100
AcDbEntity
8
0
100
AcDbCircle
10
-10.556875
20
6.2493750000000015
30
0
40
0.1249999999999996
210
0
220
-0
230
1
100
AcDbArc
50
89.99999999999838
51
180
0
LINE
5
104
100
AcDbEntity
8
0
100
AcDbLine
10
-10.556874999999996
20
6.3743750000000006
30
0
11
10.556875000000003
21
6.3743749999999997
31
0
0
ARC
5
105
100
AcDbEntity
8
0
100
AcDbCircle
10
10.556875000000003
20
6.2493750000000023
30
0
40
0.12499999999999679
210
0
220
0
230
1
100
AcDbArc
50
0
51
90
0
LINE
5
106
100
AcDbEntity
8
0
100
AcDbLine
10
10.681875
20
6.2493750000000015
30
0
11
10.681875
21
-6.1633749999999976
31
0
0
LINE
5
107
100
AcDbEntity
8
0
100
AcDbLine
10
10.681875
20
-6.1633749999999976
30
0
11
11.499874999999999
21
-6.1633749999999976
31
0
0
LINE
5
108
100
AcDbEntity
8
0
100
AcDbLine
10
11.499874999999999
20
-6.1633749999999976
30
0
11
11.499875000000019
21
-7.663153472859995
31
0
0
ELLIPSE
5
109
100
AcDbEntity
8
0
100
AcDbEllipse
10
0
20
0
30
0
11
-16.937999999999999
21
1.8377356004300536e-15
31
0.0
40
0.61621797142519774
41
2.3171133732778277
42
7.1076645874915529
0
CIRCLE
5
110
100
AcDbEntity
8
0
100
AcDbCircle
10
2.7974124768025765e-15
20
9.0000002872286817
30
0
40
0.12499999999999975
210
0
220
-0
230
1
0
CIRCLE
5
111
100
AcDbEntity
8
0
100
AcDbCircle
10
-14.399999825973209
20
3.2499999607231245
30
0
40
0.12500000000000097
210
0
220
-0
230
1
0
CIRCLE
5
112
100
AcDbEntity
8
0
100
AcDbCircle
10
14.399999825973209
20
3.249999960723116
30
0
40
0.12500000000000097
210
0
220
-0
230
1
0
SPLINE
5
113
100
AcDbEntity
8
0
100
AcDbSpline
70
6
71
5
72
81
73
75
74
0
42
0.000000001
43
0.0000000001
44
0.0000000001
40
0
40
0
40
0
40
0
40
0
40
0
40
0.014285714285714285
40
0.028571428571428571
40
0.042857142857142858
40
0.057142857142857141
40
0.071428571428571425
40
0.085714285714285715
40
0.10000000000000001
40
0.1142857142857143
40
0.12857142857142859
40
0.14285714285714288
40
0.15714285714285717
40
0.17142857142857146
40
0.18571428571428575
40
0.20000000000000004
40
0.21428571428571433
40
0.22857142857142862
40
0.24285714285714291
40
0.25714285714285717
40
0.27142857142857146
40
0.28571428571428575
40
0.30000000000000004
40
0.31428571428571433
40
0.32857142857142863
40
0.34285714285714292
40
0.35714285714285721
40
0.3714285714285715
40
0.38571428571428579
40
0.40000000000000008
40
0.41428571428571437
40
0.42857142857142866
40
0.44285714285714295
40
0.45714285714285724
40
0.47142857142857153
40
0.48571428571428582
40
0.50000000000000011
40
0.51428571428571435
40
0.52857142857142858
40
0.54285714285714282
40
0.55714285714285705
40
0.57142857142857129
40
0.58571428571428552
40
0.59999999999999976
40
0.61428571428571399
40
0.62857142857142823
40
0.64285714285714246
40
0.6571428571428567
40
0.67142857142857093
40
0.68571428571428517
40
0.6999999999999994
40
0.71428571428571364
40
0.72857142857142787
40
0.74285714285714211
40
0.75714285714285634
40
0.77142857142857058
40
0.78571428571428481
40
0.79999999999999905
40
0.81428571428571328
40
0.82857142857142752
40
0.84285714285714175
40
0.85714285714285599
40
0.87142857142857022
40
0.88571428571428445
40
0.89999999999999869
40
0.91428571428571292
40
0.92857142857142716
40
0.94285714285714139
40
0.95714285714285563
40
0.97142857142856986
40
0.9857142857142841
40
1
40
1
40
1
40
1
40
1
40
1
41
1
41
1
41
1
41
1
41
1
41
1
41
1
41
1
41
1
41
1
41
1
41
1
41
1
41
1
41
1
41
1
41
1
41
1
41
1
41
1
41
1
41
1
41
1
41
1
41
1
41
1
41
1
41
1
41
1
41
1
41
1
41
1
41
1
41
1
41
1
41
1
41
1
41
1
41
1
41
1
41
1
41
1
41
1
41
1
41
1
41
1
41
1
41
1
41
1
41
1
41
1
41
1
41
1
41
1
41
1
41
1
41
1
41
1
41
1
41
1
41
1
41
1
41
1
41
1
41
1
41
1
41
1
41
1
41
1
41
1
41
1
41
1
41
1
41
1
41
1
10
10.069477125500537
20
6.8588809895363738
30
0
10
10.097457989440505
20
6.8666874905099586
30
0
10
10.154972545405165
20
6.8859231530208005
30
0
10
10.249403276793055
20
6.9300570219582021
30
0
10
10.391362647303986
20
7.0383719110895999
30
0
10
10.534480108018045
20
7.2663851572328255
30
0
10
10.513464084559084
20
7.5175810908023317
30
0
10
10.316005657904759
20
7.6880750180775053
30
0
10
10.164921436989566
20
7.7657515089411344
30
0
10
10.084066569646433
20
7.8078850195861031
30
0
10
9.9078428000564909
20
7.8970114065538448
30
0
10
9.6541228724655195
20
8.0335114921476762
30
0
10
9.3502602571961049
20
8.2000298274008951
30
0
10
9.0215671638803876
20
8.3674484861103799
30
0
10
8.6668218221603706
20
8.5246726176388066
30
0
10
8.2911559151580985
20
8.6697461218886023
30
0
10
7.8951228403048246
20
8.8073022182253133
30
0
10
7.4820147042119318
20
8.9429357401364804
30
0
10
7.0568411871342551
20
9.0799678499709628
30
0
10
6.6301033145907144
20
9.2126973773251368
30
0
10
6.2166899167396341
20
9.3269824682407574
30
0
10
5.8252955065072607
20
9.4200462402743206
30
0
10
5.4611058838386572
20
9.4928126438596951
30
0
10
5.1245197753895955
20
9.5503965773598267
30
0
10
4.8116647062111362
20
9.5991722726404873
30
0
10
4.5137475679874468
20
9.6454755553745386
30
0
10
4.2177067414370812
20
9.6932007309851791
30
0
10
3.9097656128015692
20
9.7440043100454314
30
0
10
3.5915241990456388
20
9.7963269426389754
30
0
10
3.2701081604755
20
9.8476330066465128
30
0
10
3.0082948047721567
20
9.8889361440774817
30
0
10
2.8182465346928676
20
9.919497076147163
30
0
10
2.5962410959904449
20
9.9505251825435064
30
0
10
2.227914921551962
20
9.9907915269336414
30
0
10
1.6715200707880775
20
10.027420219856005
30
0
10
0.96183632030931498
20
10.034211172714691
30
0
10
0.45716959319979872
20
9.9080004593172042
30
0
10
0.41068952427556582
20
9.6005516094718466
30
0
10
0.60114110819693889
20
9.2111923134821136
30
0
10
0.76462402652217942
20
8.8393836292069761
30
0
10
0.65887235209888806
20
8.5620700062728954
30
0
10
0.46205814390887295
20
8.2690770044355748
30
0
10
0.32281841358564173
20
7.9138834032118011
30
0
10
0.29011227709838605
20
7.5266477095442248
30
0
10
0.37442945558411378
20
7.1643228712862772
30
0
10
0.5507612625896291
20
6.8896966665465325
30
0
10
0.78723007944805257
20
6.7360852654601278
30
0
10
1.0607523411300417
20
6.6838063332861992
30
0
10
1.3525895305574003
20
6.6886465031100126
30
0
10
1.6493089540557102
20
6.702034886435607
30
0
10
1.9317808522379467
20
6.7019536852306638
30
0
10
2.1934092441467183
20
6.7012296353916083
30
0
10
2.4735354291873315
20
6.6998739089784181
30
0
10
2.808496665936048
20
6.6998036903530647
30
0
10
3.2184036714916409
20
6.7000637315847298
30
0
10
3.657938365410057
20
6.7000203660873572
30
0
10
4.0317204952309345
20
6.6994164949660426
30
0
10
4.3472930988396108
20
6.6988852813169402
30
0
10
4.6353805958245804
20
6.6990242125000448
30
0
10
4.9341625142531527
20
6.6998883829103644
30
0
10
5.2567275106042253
20
6.7005453818103069
30
0
10
5.5395614304807248
20
6.6979377442719237
30
0
10
5.8043737052259035
20
6.6912727612289169
30
0
10
6.1082293718252627
20
6.6816343802095828
30
0
10
6.5202690421700842
20
6.6715649021088019
30
0
10
7.0785633931082677
20
6.6656631135545759
30
0
10
7.7794232024524597
20
6.668521436519816
30
0
10
8.4959301909039677
20
6.6890650462323267
30
0
10
9.0816466084559053
20
6.7278438031126875
30
0
10
9.5049382467531061
20
6.7721926481547783
30
0
10
9.7734051486768152
20
6.8087020002487391
30
0
10
9.9066320831399715
20
6.8275542233149071
30
0
10
9.9870873617658784
20
6.8390841471796477
30
0
10
10.041496261560566
20
6.8510744885627863
30
0
10
10.069477125500537
20
6.8588809895363738
30
0
0
SPLINE
5
114
100
AcDbEntity
8
0
100
AcDbSpline
70
6
71
5
72
81
73
75
74
0
42
0.000000001
43
0.0000000001
44
0.0000000001
40
0
40
0
40
0
40
0
40
0
40
0
40
0.014285714285714285
40
0.028571428571428571
40
0.042857142857142858
40
0.057142857142857141
40
0.071428571428571425
40
0.085714285714285715
40
0.10000000000000001
40
0.1142857142857143
40
0.12857142857142859
40
0.14285714285714288
40
0.15714285714285717
40
0.17142857142857146
40
0.18571428571428575
40
0.20000000000000004
40
0.21428571428571433
40
0.22857142857142862
40
0.24285714285714291
40
0.25714285714285717
40
0.27142857142857146
40
0.28571428571428575
40
0.30000000000000004
40
0.31428571428571433
40
0.32857142857142863
40
0.34285714285714292
40
0.35714285714285721
40
0.3714285714285715
40
0.38571428571428579
40
0.40000000000000008
40
0.41428571428571437
40
0.42857142857142866
40
0.44285714285714295
40
0.45714285714285724
40
0.47142857142857153
40
0.48571428571428582
40
0.50000000000000011
40
0.51428571428571435
40
0.52857142857142858
40
0.54285714285714282
40
0.55714285714285705
40
0.57142857142857129
40
0.58571428571428552
40
0.59999999999999976
40
0.61428571428571399
40
0.62857142857142823
40
0.64285714285714246
40
0.6571428571428567
40
0.67142857142857093
40
0.68571428571428517
40
0.6999999999999994
40
0.71428571428571364
40
0.72857142857142787
40
0.74285714285714211
40
0.75714285714285634
40
0.77142857142857058
40
0.78571428571428481
40
0.79999999999999905
40
0.81428571428571328
40
0.82857142857142752
40
0.84285714285714175
40
0.85714285714285599
40
0.87142857142857022
40
0.88571428571428445
40
0.89999999999999869
40
0.91428571428571292
40
0.92857142857142716
40
0.94285714285714139
40
0.95714285714285563
40
0.97142857142856986
40
0.9857142857142841
40
1
40
1
40
1
40
1
40
1
40
1
41
1
41
1
41
1
41
1
41
1
41
1
41
1
41
1
41
1
41
1
41
1
41
1
41
1
41
1
41
1
41
1
41
1
41
1
41
1
41
1
41
1
41
1
41
1
41
1
41
1
41
1
41
1
41
1
41
1
41
1
41
1
41
1
41
1
41
1
41
1
41
1
41
1
41
1
41
1
41
1
41
1
41
1
41
1
41
1
41
1
41
1
41
1
41
1
41
1
41
1
41
1
41
1
41
1
41
1
41
1
41
1
41
1
41
1
41
1
41
1
41
1
41
1
41
1
41
1
41
1
41
1
41
1
41
1
41
1
41
1
41
1
41
1
41
1
41
1
41
1
10
-10.069477125500532
20
6.8588809895363791
30
0
10
-10.0974579894405
20
6.866687490509964
30
0
10
-10.15497254540516
20
6.8859231530208058
30
0
10
-10.24940327679305
20
6.9300570219582074
30
0
10
-10.39136264730398
20
7.0383719110896052
30
0
10
-10.534480108018037
20
7.2663851572328308
30
0
10
-10.513464084559079
20
7.5175810908023371
30
0
10
-10.316005657904753
20
7.6880750180775106
30
0
10
-10.164921436989561
20
7.7657515089411397
30
0
10
-10.084066569646428
20
7.8078850195861085
30
0
10
-9.9078428000564855
20
7.8970114065538501
30
0
10
-9.6541228724655141
20
8.0335114921476816
30
0
10
-9.3502602571960995
20
8.2000298274009005
30
0
10
-9.0215671638803823
20
8.3674484861103853
30
0
10
-8.6668218221603652
20
8.5246726176388119
30
0
10
-8.2911559151580931
20
8.6697461218886076
30
0
10
-7.8951228403048193
20
8.8073022182253187
30
0
10
-7.4820147042119256
20
8.9429357401364875
30
0
10
-7.0568411871342489
20
9.0799678499709682
30
0
10
-6.6301033145907082
20
9.2126973773251386
30
0
10
-6.2166899167396288
20
9.3269824682407592
30
0
10
-5.8252955065072554
20
9.4200462402743241
30
0
10
-5.4611058838386519
20
9.4928126438596987
30
0
10
-5.1245197753895901
20
9.5503965773598303
30
0
10
-4.8116647062111308
20
9.5991722726404909
30
0
10
-4.5137475679874415
20
9.6454755553745422
30
0
10
-4.2177067414370759
20
9.6932007309851826
30
0
10
-3.9097656128015634
20
9.7440043100454332
30
0
10
-3.5915241990456335
20
9.7963269426389772
30
0
10
-3.2701081604754942
20
9.8476330066465163
30
0
10
-3.0082948047721505
20
9.8889361440774834
30
0
10
-2.8182465346928613
20
9.9194970761471666
30
0
10
-2.5962410959904387
20
9.9505251825435082
30
0
10
-2.2279149215519558
20
9.9907915269336414
30
0
10
-1.6715200707880711
20
10.027420219856005
30
0
10
-0.96183632030930866
20
10.034211172714691
30
0
10
-0.45716959319979261
20
9.9080004593172042
30
0
10
-0.41068952427555988
20
9.6005516094718466
30
0
10
-0.60114110819693312
20
9.2111923134821136
30
0
10
-0.76462402652217398
20
8.8393836292069761
30
0
10
-0.65887235209888284
20
8.5620700062728954
30
0
10
-0.4620581439088679
20
8.2690770044355748
30
0
10
-0.32281841358563684
20
7.9138834032118011
30
0
10
-0.29011227709838133
20
7.5266477095442248
30
0
10
-0.37442945558410928
20
7.1643228712862772
30
0
10
-0.55076126258962499
20
6.8896966665465325
30
0
10
-0.78723007944804835
20
6.7360852654601278
30
0
10
-1.0607523411300375
20
6.6838063332861992
30
0
10
-1.3525895305573961
20
6.6886465031100126
30
0
10
-1.649308954055706
20
6.702034886435607
30
0
10
-1.9317808522379427
20
6.7019536852306638
30
0
10
-2.1934092441467143
20
6.7012296353916083
30
0
10
-2.4735354291873275
20
6.6998739089784216
30
0
10
-2.808496665936044
20
6.6998036903530673
30
0
10
-3.2184036714916364
20
6.7000637315847325
30
0
10
-3.657938365410053
20
6.7000203660873598
30
0
10
-4.0317204952309309
20
6.6994164949660453
30
0
10
-4.3472930988396072
20
6.6988852813169428
30
0
10
-4.635380595824576
20
6.6990242125000474
30
0
10
-4.9341625142531491
20
6.6998883829103679
30
0
10
-5.2567275106042208
20
6.7005453818103105
30
0
10
-5.5395614304807204
20
6.6979377442719272
30
0
10
-5.8043737052258999
20
6.6912727612289196
30
0
10
-6.1082293718252583
20
6.6816343802095863
30
0
10
-6.5202690421700815
20
6.6715649021088046
30
0
10
-7.078563393108265
20
6.6656631135545812
30
0
10
-7.779423202452457
20
6.6685214365198213
30
0
10
-8.495930190903966
20
6.6890650462323329
30
0
10
-9.0816466084559018
20
6.7278438031126928
30
0
10
-9.5049382467531007
20
6.7721926481547836
30
0
10
-9.7734051486768099
20
6.8087020002487453
30
0
10
-9.9066320831399644
20
6.8275542233149134
30
0
10
-9.9870873617658731
20
6.839084147179654
30
0
10
-10.04149626156056
20
6.8510744885627917
30
0
10
-10.069477125500532
20
6.8588809895363791
30
0
0
SPLINE
5
115
100
AcDbEntity
8
0
100
AcDbSpline
70
6
71
5
72
131
73
125
74
0
42
0.000000001
43
0.0000000001
44
0.0000000001
40
0
40
0
40
0
40
0
40
0
40
0
40
0.0083333333333333332
40
0.016666666666666666
40
0.025000000000000001
40
0.033333333333333333
40
0.041666666666666664
40
0.049999999999999996
40
0.058333333333333327
40
0.066666666666666666
40
0.074999999999999997
40
0.083333333333333329
40
0.09166666666666666
40
0.099999999999999992
40
0.10833333333333332
40
0.11666666666666665
40
0.12499999999999999
40
0.13333333333333333
40
0.14166666666666666
40
0.14999999999999999
40
0.15833333333333333
40
0.16666666666666666
40
0.17499999999999999
40
0.18333333333333332
40
0.19166666666666665
40
0.19999999999999998
40
0.20833333333333331
40
0.21666666666666665
40
0.22499999999999998
40
0.23333333333333331
40
0.24166666666666664
40
0.24999999999999997
40
0.2583333333333333
40
0.26666666666666666
40
0.27500000000000002
40
0.28333333333333338
40
0.29166666666666674
40
0.3000000000000001
40
0.30833333333333346
40
0.31666666666666682
40
0.32500000000000018
40
0.33333333333333354
40
0.3416666666666669
40
0.35000000000000026
40
0.35833333333333361
40
0.36666666666666697
40
0.37500000000000033
40
0.38333333333333369
40
0.39166666666666705
40
0.40000000000000041
40
0.40833333333333377
40
0.41666666666666713
40
0.42500000000000049
40
0.43333333333333385
40
0.44166666666666721
40
0.45000000000000057
40
0.45833333333333393
40
0.46666666666666728
40
0.47500000000000064
40
0.483333333333334
40
0.49166666666666736
40
0.50000000000000067
40
0.50833333333333397
40
0.51666666666666727
40
0.52500000000000058
40
0.53333333333333388
40
0.54166666666666718
40
0.55000000000000049
40
0.55833333333333379
40
0.5666666666666671
40
0.5750000000000004
40
0.5833333333333337
40
0.59166666666666701
40
0.60000000000000031
40
0.60833333333333361
40
0.61666666666666692
40
0.62500000000000022
40
0.63333333333333353
40
0.64166666666666683
40
0.65000000000000013
40
0.65833333333333344
40
0.66666666666666674
40
0.67500000000000004
40
0.68333333333333335
40
0.69166666666666665
40
0.69999999999999996
40
0.70833333333333326
40
0.71666666666666656
40
0.72499999999999987
40
0.73333333333333317
40
0.74166666666666647
40
0.74999999999999978
40
0.75833333333333308
40
0.76666666666666639
40
0.77499999999999969
40
0.78333333333333299
40
0.7916666666666663
40
0.7999999999999996
40
0.8083333333333329
40
0.81666666666666621
40
0.82499999999999951
40
0.83333333333333282
40
0.84166666666666612
40
0.84999999999999942
40
0.85833333333333273
40
0.86666666666666603
40
0.87499999999999933
40
0.88333333333333264
40
0.89166666666666594
40
0.89999999999999925
40
0.90833333333333255
40
0.91666666666666585
40
0.92499999999999916
40
0.93333333333333246
40
0.94166666666666576
40
0.94999999999999907
40
0.95833333333333237
40
0.96666666666666567
40
0.97499999999999898
40
0.98333333333333228
40
0.99166666666666559
40
1
40
1
40
1
40
1
40
1
40
1
41
1
41
1
41
1
41
1
41
1
41
1
41
1
41
1
41
1
41
1
41
1
41
1
41
1
41
1
41
1
41
1
41
1
41
1
41
1
41
1
41
1
41
1
41
1
41
1
41
1
41
1
41
1
41
1
41
1
41
1
41
1
41
1
41
1
41
1
41
1
41
1
41
1
41
1
41
1
41
1
41
1
41
1
41
1
41
1
41
1
41
1
41
1
41
1
41
1
41
1
41
1
41
1
41
1
41
1
41
1
41
1
41
1
41
1
41
1
41
1
41
1
41
1
41
1
41
1
41
1
41
1
41
1
41
1
41
1
41
1
41
1
41
1
41
1
41
1
41
1
41
1
41
1
41
1
41
1
41
1
41
1
41
1
41
1
41
1
41
1
41
1
41
1
41
1
41
1
41
1
41
1
41
1
41
1
41
1
41
1
41
1
41
1
41
1
41
1
41
1
41
1
41
1
41
1
41
1
41
1
41
1
41
1
41
1
41
1
41
1
41
1
41
1
41
1
41
1
41
1
41
1
41
1
41
1
41
1
41
1
41
1
41
1
41
1
41
1
41
1
10
-12.681215405331882
20
-6.2649319161261063
30
0
10
-12.751120767988034
20
-6.2329279894486289
30
0
10
-12.900880601737143
20
-6.1498438231016479
30
0
10
-13.145823744419181
20
-5.9790225749388943
30
0
10
-13.460858419443376
20
-5.7332635080819028
30
0
10
-13.796561130926564
20
-5.4481858883087346
30
0
10
-14.054501550200591
20
-5.2225540209945764
30
0
10
-14.248699287564017
20
-5.0474187687680754
30
0
10
-14.404283252033162
20
-4.9001851789430981
30
0
10
-14.551548686648593
20
-4.7489187577195011
30
0
10
-14.711213028951569
20
-4.5706620364305985
30
0
10
-14.889047015013748
20
-4.3575158606678555
30
0
10
-15.08128592507461
20
-4.1115507159921627
30
0
10
-15.27788611552862
20
-3.8417523342992563
30
0
10
-15.466734640807129
20
-3.5600975831899828
30
0
10
-15.637198454819254
20
-3.278201745899084
30
0
10
-15.784613368105571
20
-3.0032029701898337
30
0
10
-15.909520129543065
20
-2.7378182006369971
30
0
10
-16.015627324646385
20
-2.4814268933623667
30
0
10
-16.10815949190695
20
-2.230802217295544
30
0
10
-16.192148199684567
20
-1.9809981925554203
30
0
10
-16.270499425708728
20
-1.7261455013660714
30
0
10
-16.342965911738222
20
-1.4603649752619883
30
0
10
-16.407403355266641
20
-1.1789279637517986
30
0
10
-16.460563199131869
20
-0.87933049967791721
30
0
10
-16.499093539323763
20
-0.5624886345239265
30
0
10
-16.520394578334106
20
-0.23368404783327967
30
0
10
-16.523684532404573
20
0.095860905898074528
30
0
10
-16.509737407021944
20
0.41193455201757245
30
0
10
-16.480351133051226
20
0.70111367968877403
30
0
10
-16.43790473475481
20
0.9544937760973724
30
0
10
-16.384887241160968
20
1.170908643681779
30
0
10
-16.323417859277271
20
1.3616542037865242
30
0
10
-16.254837887036761
20
1.5503577317002724
30
0
10
-16.17947962139128
20
1.7612581017235327
30
0
10
-16.096409083918417
20
2.010050811890324
30
0
10
-16.003156693335118
20
2.2931656239278695
30
0
10
-15.895514712623823
20
2.5792077878399864
30
0
10
-15.768469423704564
20
2.8238950431296956
30
0
10
-15.617047360511148
20
2.9843988101415033
30
0
10
-15.437231925175491
20
3.0324892262224323
30
0
10
-15.226761387634333
20
2.9715567404397905
30
0
10
-14.986262938199447
20
2.8404732829381141
30
0
10
-14.720734700037358
20
2.6949706808316658
30
0
10
-14.44122263139611
20
2.5933997299780938
30
0
10
-14.165841005217542
20
2.5822463249534979
30
0
10
-13.922493316611021
20
2.6780607290104119
30
0
10
-13.745319181825176
20
2.8651781505070808
30
0
10
-13.663638534058435
20
3.1117928928424283
30
0
10
-13.693749641701622
20
3.3804663502067913
30
0
10
-13.827597791600558
20
3.6424347991151991
30
0
10
-14.029073398106329
20
3.8853618693927143
30
0
10
-14.247908207218059
20
4.1075154676733376
30
0
10
-14.43027198421858
20
4.3144833881066562
30
0
10
-14.530467614204831
20
4.5149371913857568
30
0
10
-14.522644268298992
20
4.7166926073205584
30
0
10
-14.411137035064575
20
4.9229606196958322
30
0
10
-14.219722217510146
20
5.1336553433143299
30
0
10
-13.981971373756419
20
5.3463757147762845
30
0
10
-13.731712878288832
20
5.5574730886149162
30
0
10
-13.492225180374012
20
5.7631714307662385
30
0
10
-13.269859101492001
20
5.9603803681458443
30
0
10
-13.060663248098455
20
6.1465698176658732
30
0
10
-12.854589560018375
20
6.3198010605267383
30
0
10
-12.640782807892275
20
6.4787285012794849
30
0
10
-12.412104218146755
20
6.6225391863155911
30
0
10
-12.170780443548315
20
6.751118193988594
30
0
10
-11.926294577937698
20
6.8632255603669012
30
0
10
-11.691861952958186
20
6.9542201946290341
30
0
10
-11.481417562772906
20
7.0140815578898472
30
0
10
-11.306342655581998
20
7.0249823328525958
30
0
10
-11.172436360149268
20
6.9599139053711898
30
0
10
-11.080399014966812
20
6.7971086502355886
30
0
10
-11.026105445477775
20
6.5350696723006143
30
0
10
-11.001140998952794
20
6.2041004746647852
30
0
10
-10.99510651710747
20
5.8484621029447972
30
0
10
-10.997582711859744
20
5.5132567572077633
30
0
10
-11.000557833974971
20
5.2261414627523708
30
0
10
-10.999889872923378
20
4.988987688511819
30
0
10
-10.999246259909029
20
4.744284955118693
30
0
10
-10.999398834736061
20
4.497207562449657
30
0
10
-10.999978266886568
20
4.2683831136324004
30
0
10
-11.000070847962348
20
4.079514159503197
30
0
10
-10.999865504348058
20
3.8902175709543978
30
0
10
-10.999842767957858
20
3.6652109633178083
30
0
10
-10.99992532943795
20
3.4110649243934694
30
0
10
-11.000020039017333
20
3.1366291900138239
30
0
10
-10.999997496570479
20
2.8456104423064419
30
0
10
-10.99995586729856
20
2.5086347104160978
30
0
10
-10.999928990711341
20
2.1403731267948616
30
0
10
-10.999934382038104
20
1.7701795037045438
30
0
10
-10.999964510059835
20
1.4324217672697777
30
0
10
-10.999999104630795
20
1.1455699619463704
30
0
10
-11.000009986691101
20
0.90464813998086546
30
0
10
-10.999965436448777
20
0.64586875057034387
30
0
10
-10.99985070955425
20
0.33518621203466387
30
0
10
-10.999674547940257
20
-0.036323720296682731
30
0
10
-10.999487418359585
20
-0.46000441537464082
30
0
10
-10.99937060371057
20
-0.91530635410831573
30
0
10
-10.999494086542747
20
-1.3758369003787898
30
0
10
-11.00001347648969
20
-1.8163316810264281
30
0
10
-11.0013594775436
20
-2.2165468480216344
30
0
10
-11.003165259942035
20
-2.5768211370507741
30
0
10
-11.004557846438562
20
-2.9104351149024961
30
0
10
-11.004654108369097
20
-3.2349891341025603
30
0
10
-11.003119093190401
20
-3.5631781136554115
30
0
10
-11.000343575959244
20
-3.8963889126724816
30
0
10
-10.998603454656102
20
-4.2111780148097386
30
0
10
-11.001016185115434
20
-4.4610601941822825
30
0
10
-11.003537837205501
20
-4.6745365630403697
30
0
10
-11.002140419834099
20
-4.8855542613368801
30
0
10
-10.998338634491363
20
-5.1259347032617475
30
0
10
-11.000552122096815
20
-5.3480952309027945
30
0
10
-11.041533749770588
20
-5.5098237849919336
30
0
10
-11.158870627707126
20
-5.6218152571927691
30
0
10
-11.368488339970936
20
-5.7018449485959044
30
0
10
-11.634665771508436
20
-5.7597286228309557
30
0
10
-11.890305754791573
20
-5.8030719131784547
30
0
10
-12.076868333686271
20
-5.8490764364639434
30
0
10
-12.167876824961807
20
-5.9519660703311592
30
0
10
-12.221816720450363
20
-6.1894430360322827
30
0
10
-12.326047259049435
20
-6.3410018144010341
30
0
10
-12.481448425800991
20
-6.3418673831669103
30
0
10
-12.61131004267572
20
-6.2969358428035882
30
0
10
-12.681215405331882
20
-6.2649319161261063
30
0
0
SPLINE
5
116
100
AcDbEntity
8
0
100
AcDbSpline
70
6
71
5
72
131
73
125
74
0
42
0.000000001
43
0.0000000001
44
0.0000000001
40
0
40
0
40
0
40
0
40
0
40
0
40
0.0083333333333333332
40
0.016666666666666666
40
0.025000000000000001
40
0.033333333333333333
40
0.041666666666666664
40
0.049999999999999996
40
0.058333333333333327
40
0.066666666666666666
40
0.074999999999999997
40
0.083333333333333329
40
0.09166666666666666
40
0.099999999999999992
40
0.10833333333333332
40
0.11666666666666665
40
0.12499999999999999
40
0.13333333333333333
40
0.14166666666666666
40
0.14999999999999999
40
0.15833333333333333
40
0.16666666666666666
40
0.17499999999999999
40
0.18333333333333332
40
0.19166666666666665
40
0.19999999999999998
40
0.20833333333333331
40
0.21666666666666665
40
0.22499999999999998
40
0.23333333333333331
40
0.24166666666666664
40
0.24999999999999997
40
0.2583333333333333
40
0.26666666666666666
40
0.27500000000000002
40
0.28333333333333338
40
0.29166666666666674
40
0.3000000000000001
40
0.30833333333333346
40
0.31666666666666682
40
0.32500000000000018
40
0.33333333333333354
40
0.3416666666666669
40
0.35000000000000026
40
0.35833333333333361
40
0.36666666666666697
40
0.37500000000000033
40
0.38333333333333369
40
0.39166666666666705
40
0.40000000000000041
40
0.40833333333333377
40
0.41666666666666713
40
0.42500000000000049
40
0.43333333333333385
40
0.44166666666666721
40
0.45000000000000057
40
0.45833333333333393
40
0.46666666666666728
40
0.47500000000000064
40
0.483333333333334
40
0.49166666666666736
40
0.50000000000000067
40
0.50833333333333397
40
0.51666666666666727
40
0.52500000000000058
40
0.53333333333333388
40
0.54166666666666718
40
0.55000000000000049
40
0.55833333333333379
40
0.5666666666666671
40
0.5750000000000004
40
0.5833333333333337
40
0.59166666666666701
40
0.60000000000000031
40
0.60833333333333361
40
0.61666666666666692
40
0.62500000000000022
40
0.63333333333333353
40
0.64166666666666683
40
0.65000000000000013
40
0.65833333333333344
40
0.66666666666666674
40
0.67500000000000004
40
0.68333333333333335
40
0.69166666666666665
40
0.69999999999999996
40
0.70833333333333326
40
0.71666666666666656
40
0.72499999999999987
40
0.73333333333333317
40
0.74166666666666647
40
0.74999999999999978
40
0.75833333333333308
40
0.76666666666666639
40
0.77499999999999969
40
0.78333333333333299
40
0.7916666666666663
40
0.7999999999999996
40
0.8083333333333329
40
0.81666666666666621
40
0.82499999999999951
40
0.83333333333333282
40
0.84166666666666612
40
0.84999999999999942
40
0.85833333333333273
40
0.86666666666666603
40
0.87499999999999933
40
0.88333333333333264
40
0.89166666666666594
40
0.89999999999999925
40
0.90833333333333255
40
0.91666666666666585
40
0.92499999999999916
40
0.93333333333333246
40
0.94166666666666576
40
0.94999999999999907
40
0.95833333333333237
40
0.96666666666666567
40
0.97499999999999898
40
0.98333333333333228
40
0.99166666666666559
40
1
40
1
40
1
40
1
40
1
40
1
41
1
41
1
41
1
41
1
41
1
41
1
41
1
41
1
41
1
41
1
41
1
41
1
41
1
41
1
41
1
41
1
41
1
41
1
41
1
41
1
41
1
41
1
41
1
41
1
41
1
41
1
41
1
41
1
41
1
41
1
41
1
41
1
41
1
41
1
41
1
41
1
41
1
41
1
41
1
41
1
41
1
41
1
41
1
41
1
41
1
41
1
41
1
41
1
41
1
41
1
41
1
41
1
41
1
41
1
41
1
41
1
41
1
41
1
41
1
41
1
41
1
41
1
41
1
41
1
41
1
41
1
41
1
41
1
41
1
41
1
41
1
41
1
41
1
41
1
41
1
41
1
41
1
41
1
41
1
41
1
41
1
41
1
41
1
41
1
41
1
41
1
41
1
41
1
41
1
41
1
41
1
41
1
41
1
41
1
41
1
41
1
41
1
41
1
41
1
41
1
41
1
41
1
41
1
41
1
41
1
41
1
41
1
41
1
41
1
41
1
41
1
41
1
41
1
41
1
41
1
41
1
41
1
41
1
41
1
41
1
41
1
41
1
41
1
41
1
41
1
10
12.681215405331882
20
-6.2649319161261063
30
0
10
12.751120767988034
20
-6.2329279894486289
30
0
10
12.900880601737143
20
-6.1498438231016479
30
0
10
13.145823744419181
20
-5.9790225749388943
30
0
10
13.460858419443376
20
-5.7332635080819028
30
0
10
13.796561130926564
20
-5.4481858883087346
30
0
10
14.054501550200591
20
-5.2225540209945764
30
0
10
14.248699287564017
20
-5.0474187687680754
30
0
10
14.404283252033162
20
-4.9001851789430981
30
0
10
14.551548686648593
20
-4.7489187577195011
30
0
10
14.711213028951569
20
-4.5706620364305985
30
0
10
14.889047015013748
20
-4.3575158606678555
30
0
10
15.08128592507461
20
-4.1115507159921627
30
0
10
15.27788611552862
20
-3.8417523342992563
30
0
10
15.466734640807129
20
-3.5600975831899828
30
0
10
15.637198454819254
20
-3.278201745899084
30
0
10
15.784613368105571
20
-3.0032029701898337
30
0
10
15.909520129543065
20
-2.7378182006369971
30
0
10
16.015627324646385
20
-2.4814268933623667
30
0
10
16.10815949190695
20
-2.230802217295544
30
0
10
16.192148199684567
20
-1.9809981925554203
30
0
10
16.270499425708728
20
-1.7261455013660714
30
0
10
16.342965911738222
20
-1.4603649752619883
30
0
10
16.407403355266641
20
-1.1789279637517986
30
0
10
16.460563199131869
20
-0.87933049967791721
30
0
10
16.499093539323763
20
-0.5624886345239265
30
0
10
16.520394578334106
20
-0.23368404783327967
30
0
10
16.523684532404573
20
0.095860905898074528
30
0
10
16.509737407021944
20
0.41193455201757245
30
0
10
16.480351133051226
20
0.70111367968877403
30
0
10
16.43790473475481
20
0.9544937760973724
30
0
10
16.384887241160968
20
1.170908643681779
30
0
10
16.323417859277271
20
1.3616542037865242
30
0
10
16.254837887036761
20
1.5503577317002724
30
0
10
16.17947962139128
20
1.7612581017235327
30
0
10
16.096409083918417
20
2.010050811890324
30
0
10
16.003156693335118
20
2.2931656239278695
30
0
10
15.895514712623823
20
2.5792077878399864
30
0
10
15.768469423704564
20
2.8238950431296956
30
0
10
15.617047360511148
20
2.9843988101415033
30
0
10
15.437231925175491
20
3.0324892262224323
30
0
10
15.226761387634333
20
2.9715567404397905
30
0
10
14.986262938199447
20
2.8404732829381141
30
0
10
14.720734700037358
20
2.6949706808316658
30
0
10
14.44122263139611
20
2.5933997299780938
30
0
10
14.165841005217542
20
2.5822463249534979
30
0
10
13.922493316611021
20
2.6780607290104119
30
0
10
13.745319181825176
20
2.8651781505070808
30
0
10
13.663638534058435
20
3.1117928928424283
30
0
10
13.693749641701622
20
3.3804663502067913
30
0
10
13.827597791600558
20
3.6424347991151991
30
0
10
14.029073398106329
20
3.8853618693927143
30
0
10
14.247908207218059
20
4.1075154676733376
30
0
10
14.43027198421858
20
4.3144833881066562
30
0
10
14.530467614204831
20
4.5149371913857568
30
0
10
14.522644268298992
20
4.7166926073205584
30
0
10
14.411137035064575
20
4.9229606196958322
30
0
10
14.219722217510146
20
5.1336553433143299
30
0
10
13.981971373756419
20
5.3463757147762845
30
0
10
13.731712878288832
20
5.5574730886149162
30
0
10
13.492225180374012
20
5.7631714307662385
30
0
10
13.269859101492001
20
5.9603803681458443
30
0
10
13.060663248098455
20
6.1465698176658732
30
0
10
12.854589560018375
20
6.3198010605267383
30
0
10
12.640782807892275
20
6.4787285012794849
30
0
10
12.412104218146755
20
6.6225391863155911
30
0
10
12.170780443548315
20
6.751118193988594
30
0
10
11.926294577937698
20
6.8632255603669012
30
0
10
11.691861952958186
20
6.9542201946290341
30
0
10
11.481417562772906
20
7.0140815578898472
30
0
10
11.306342655581998
20
7.0249823328525958
30
0
10
11.172436360149268
20
6.9599139053711898
30
0
10
11.080399014966812
20
6.7971086502355886
30
0
10
11.026105445477775
20
6.5350696723006143
30
0
10
11.001140998952794
20
6.2041004746647852
30
0
10
10.99510651710747
20
5.8484621029447972
30
0
10
10.997582711859744
20
5.5132567572077633
30
0
10
11.000557833974971
20
5.2261414627523708
30
0
10
10.999889872923378
20
4.988987688511819
30
0
10
10.999246259909029
20
4.744284955118693
30
0
10
10.999398834736061
20
4.497207562449657
30
0
10
10.999978266886568
20
4.2683831136324004
30
0
10
11.000070847962348
20
4.079514159503197
30
0
10
10.999865504348058
20
3.8902175709543978
30
0
10
10.999842767957858
20
3.6652109633178083
30
0
10
10.99992532943795
20
3.4110649243934694
30
0
10
11.000020039017333
20
3.1366291900138239
30
0
10
10.999997496570479
20
2.8456104423064419
30
0
10
10.99995586729856
20
2.5086347104160978
30
0
10
10.999928990711341
20
2.1403731267948616
30
0
10
10.999934382038104
20
1.7701795037045438
30
0
10
10.999964510059835
20
1.4324217672697777
30
0
10
10.999999104630795
20
1.1455699619463704
30
0
10
11.000009986691101
20
0.90464813998086546
30
0
10
10.999965436448777
20
0.64586875057034387
30
0
10
10.99985070955425
20
0.33518621203466387
30
0
10
10.999674547940257
20
-0.036323720296682731
30
0
10
10.999487418359585
20
-0.46000441537464082
30
0
10
10.99937060371057
20
-0.91530635410831573
30
0
10
10.999494086542747
20
-1.3758369003787898
30
0
10
11.00001347648969
20
-1.8163316810264281
30
0
10
11.0013594775436
20
-2.2165468480216344
30
0
10
11.003165259942035
20
-2.5768211370507741
30
0
10
11.004557846438562
20
-2.9104351149024961
30
0
10
11.004654108369097
20
-3.2349891341025603
30
0
10
11.003119093190401
20
-3.5631781136554115
30
0
10
11.000343575959244
20
-3.8963889126724816
30
0
10
10.998603454656102
20
-4.2111780148097386
30
0
10
11.001016185115434
20
-4.4610601941822825
30
0
10
11.003537837205501
20
-4.6745365630403697
30
0
10
11.002140419834099
20
-4.8855542613368801
30
0
10
10.998338634491363
20
-5.1259347032617475
30
0
10
11.000552122096815
20
-5.3480952309027945
30
0
10
11.041533749770588
20
-5.5098237849919336
30
0
10
11.158870627707126
20
-5.6218152571927691
30
0
10
11.368488339970936
20
-5.7018449485959044
30
0
10
11.634665771508436
20
-5.7597286228309557
30
0
10
11.890305754791573
20
-5.8030719131784547
30
0
10
12.076868333686271
20
-5.8490764364639434
30
0
10
12.167876824961807
20
-5.9519660703311592
30
0
10
12.221816720450363
20
-6.1894430360322827
30
0
10
12.326047259049435
20
-6.3410018144010341
30
0
10
12.481448425800991
20
-6.3418673831669103
30
0
10
12.61131004267572
20
-6.2969358428035882
30
0
10
12.681215405331882
20
-6.2649319161261063
30
0
0
ENDSEC
0
SECTION
2
OBJECTS
0
DICTIONARY
5
C
100
AcDbDictionary
3
ACAD_GROUP
350
D
3
ACAD_MLINESTYLE
350
17
0
DICTIONARY
5
D
100
AcDbDictionary
0
DICTIONARY
5
1A
330
C
100
AcDbDictionary
0
DICTIONARY
5
17
100
AcDbDictionary
0
ENDSEC
0
EOF
