0
SECTION
2
HEADER
9
$INSUNITS
70
1
9
$ACADVER
1
AC1014
9
$HANDSEED
5
FFFF
0
ENDSEC
0
SECTION
2
TABLES
0
TABLE
2
VPORT
5
8
100
AcDbSymbolTable
0
ENDTAB
0
TABLE
2
LTYPE
5
5
100
AcDbSymbolTable
0
LTYPE
5
14
100
AcDbSymbolTableRecord
100
AcDbLinetypeTableRecord
2
BYBLOCK
70
0
0
LTYPE
5
15
100
AcDbSymbolTableRecord
100
AcDbLinetypeTableRecord
2
BYLAYER
70
0
0
ENDTAB
0
TABLE
2
LAYER
5
2
100
AcDbSymbolTable
70
2
0
LAYER
5
50
100
AcDbSymbolTableRecord
100
AcDbLayerTableRecord
2
0
70
0
6
CONTINUOUS
0
ENDTAB
0
TABLE
2
STYLE
5
3
100
AcDbSymbolTable
70
1
0
STYLE
5
11
100
AcDbSymbolTableRecord
100
AcDbTextStyleTableRecord
2
STANDARD
70
0
0
ENDTAB
0
TABLE
2
VIEW
5
6
100
AcDbSymbolTable
70
0
0
ENDTAB
0
TABLE
2
UCS
5
7
100
AcDbSymbolTable
70
0
0
ENDTAB
0
TABLE
2
APPID
5
9
100
AcDbSymbolTable
70
2
0
APPID
5
12
100
AcDbSymbolTableRecord
100
AcDbRegAppTableRecord
2
ACAD
70
0
0
ENDTAB
0
TABLE
2
DIMSTYLE
5
A
100
AcDbSymbolTable
70
1
0
ENDTAB
0
TABLE
2
BLOCK_RECORD
5
1
100
AcDbSymbolTable
70
1
0
BLOCK_RECORD
5
1F
100
AcDbSymbolTableRecord
100
AcDbBlockTableRecord
2
*MODEL_SPACE
0
BLOCK_RECORD
5
1B
100
AcDbSymbolTableRecord
100
AcDbBlockTableRecord
2
*PAPER_SPACE
0
ENDTAB
0
ENDSEC
0
SECTION
2
BLOCKS
0
BLOCK
5
20
100
AcDbEntity
100
AcDbBlockBegin
2
*MODEL_SPACE
0
ENDBLK
5
21
100
AcDbEntity
100
AcDbBlockEnd
0
BLOCK
5
1C
100
AcDbEntity
100
AcDbBlockBegin
2
*PAPER_SPACE
0
ENDBLK
5
1D
100
AcDbEntity
100
AcDbBlockEnd
0
ENDSEC
0
SECTION
2
ENTITIES
0
CIRCLE
5
100
100
AcDbEntity
8
0
100
AcDbCircle
10
6.6249998498150671
20
-0.36421977273219824
30
0
40
0.1300000000000005
210
0
220
-0
230
1
0
CIRCLE
5
101
100
AcDbEntity
8
0
100
AcDbCircle
10
-6.6250001501849294
20
-0.36421977273218981
30
0
40
0.1300000000000005
210
0
220
-0
230
1
0
LINE
5
102
100
AcDbEntity
8
0
100
AcDbLine
10
11.999999849815067
20
0.010780227267802081
30
0
11
-12.000000150184929
21
0.010780227267802037
31
0
0
LINE
5
103
100
AcDbEntity
8
0
100
AcDbLine
10
-12.000000150184929
20
0.010780227267802037
30
0
11
-12.000000150184928
21
-0.999999984981505
31
0
0
SPLINE
5
104
100
AcDbEntity
8
0
100
AcDbSpline
70
4
71
5
72
21
73
15
74
0
42
0.000000001
43
0.0000000001
44
0.0000000001
40
0
40
0
40
0
40
0
40
0
40
0
40
0.10000000000000001
40
0.20000000000000001
40
0.30000000000000004
40
0.40000000000000002
40
0.5
40
0.59999999999999998
40
0.69999999999999996
40
0.79999999999999993
40
0.89999999999999991
40
1
40
1
40
1
40
1
40
1
40
1
41
1
41
1
41
1
41
1
41
1
41
1
41
1
41
1
41
1
41
1
41
1
41
1
41
1
41
1
41
1
10
-12.000000150184929
20
-0.99999998498150655
30
0
10
-11.544914480448647
20
-1.6399999853284049
30
0
10
-10.674485555245424
20
-2.9199999851533081
30
0
10
-9.4880657564014541
20
-4.8399999822841169
30
0
10
-8.1485743624265616
20
-7.3999999731584332
30
0
10
-6.9056316328679497
20
-10.599999952315812
30
0
10
-6.1326661466125403
20
-13.799999921190857
30
0
10
-5.868031621989152
20
-16.999999878940688
30
0
10
-6.1326661078530584
20
-20.199999825103326
30
0
10
-6.9056315587511721
20
-23.399999760133035
30
0
10
-8.1485742575052083
20
-26.59999968486515
30
0
10
-9.4880656308927076
20
-29.15999961708491
30
0
10
-10.674485416537685
20
-31.079999562262696
30
0
10
-11.544914333925602
20
-32.359999523971268
30
0
10
-12.000000000000005
20
-32.99999950438972
30
0
0
LINE
5
105
100
AcDbEntity
8
0
100
AcDbLine
10
-12.000000000000005
20
-32.99999950438972
30
0
11
-12.000000000000005
21
-34
31
0
0
LINE
5
106
100
AcDbEntity
8
0
100
AcDbLine
10
-12.000000000000005
20
-34
30
0
11
12.000000000000002
21
-34
31
0
0
LINE
5
107
100
AcDbEntity
8
0
100
AcDbLine
10
12.000000000000002
20
-34
30
0
11
12
21
-32.99999950438972
31
0
0
SPLINE
5
108
100
AcDbEntity
8
0
100
AcDbSpline
70
4
71
5
72
21
73
15
74
0
42
0.000000001
43
0.0000000001
44
0.0000000001
40
-1
40
-1
40
-1
40
-1
40
-1
40
-1
40
-0.89999999999999991
40
-0.79999999999999993
40
-0.69999999999999996
40
-0.59999999999999998
40
-0.5
40
-0.40000000000000002
40
-0.30000000000000004
40
-0.20000000000000001
40
-0.10000000000000001
40
0
40
0
40
0
40
0
40
0
40
0
41
1
41
1
41
1
41
1
41
1
41
1
41
1
41
1
41
1
41
1
41
1
41
1
41
1
41
1
41
1
10
12
20
-32.99999950438972
30
0
10
11.544914353627002
20
-32.359999525839925
30
0
10
10.674485473368096
20
-31.07999956770534
30
0
10
9.4880657365952992
20
-29.159999627398491
30
0
10
8.1485744145031127
20
-26.599999700677088
30
0
10
6.9056317552124273
20
-23.399999781045526
30
0
10
6.1326663170157927
20
-20.199999849186444
30
0
10
5.8680318150595925
20
-16.999999904107764
30
0
10
6.1326662939635392
20
-13.799999945269963
30
0
10
6.9056317063829065
20
-10.59999997322147
30
0
10
8.1485743362504763
20
-7.3999999889626924
30
0
10
9.4880656315564824
20
-4.8399999925914665
30
0
10
10.674485346445312
20
-2.91999999059226
30
0
10
11.544914211327271
20
-1.6399999871957287
30
0
10
11.999999849815067
20
-0.99999998498150677
30
0
0
LINE
5
109
100
AcDbEntity
8
0
100
AcDbLine
10
11.999999849815069
20
-0.99999998498150522
30
0
11
11.999999849815067
21
0.010780227267802081
31
0
0
ENDSEC
0
SECTION
2
OBJECTS
0
DICTIONARY
5
C
100
AcDbDictionary
3
ACAD_GROUP
350
D
3
ACAD_MLINESTYLE
350
17
0
DICTIONARY
5
D
100
AcDbDictionary
0
DICTIONARY
5
1A
330
C
100
AcDbDictionary
0
DICTIONARY
5
17
100
AcDbDictionary
0
ENDSEC
0
EOF
