0
SECTION
2
HEADER
9
$INSUNITS
70
1
9
$ACADVER
1
AC1014
9
$HANDSEED
5
FFFF
0
ENDSEC
0
SECTION
2
TABLES
0
TABLE
2
VPORT
5
8
100
AcDbSymbolTable
0
ENDTAB
0
TABLE
2
LTYPE
5
5
100
AcDbSymbolTable
0
LTYPE
5
14
100
AcDbSymbolTableRecord
100
AcDbLinetypeTableRecord
2
BYBLOCK
70
0
0
LTYPE
5
15
100
AcDbSymbolTableRecord
100
AcDbLinetypeTableRecord
2
BYLAYER
70
0
0
ENDTAB
0
TABLE
2
LAYER
5
2
100
AcDbSymbolTable
70
2
0
LAYER
5
50
100
AcDbSymbolTableRecord
100
AcDbLayerTableRecord
2
0
70
0
6
CONTINUOUS
0
ENDTAB
0
TABLE
2
STYLE
5
3
100
AcDbSymbolTable
70
1
0
STYLE
5
11
100
AcDbSymbolTableRecord
100
AcDbTextStyleTableRecord
2
STANDARD
70
0
0
ENDTAB
0
TABLE
2
VIEW
5
6
100
AcDbSymbolTable
70
0
0
ENDTAB
0
TABLE
2
UCS
5
7
100
AcDbSymbolTable
70
0
0
ENDTAB
0
TABLE
2
APPID
5
9
100
AcDbSymbolTable
70
2
0
APPID
5
12
100
AcDbSymbolTableRecord
100
AcDbRegAppTableRecord
2
ACAD
70
0
0
ENDTAB
0
TABLE
2
DIMSTYLE
5
A
100
AcDbSymbolTable
70
1
0
ENDTAB
0
TABLE
2
BLOCK_RECORD
5
1
100
AcDbSymbolTable
70
1
0
BLOCK_RECORD
5
1F
100
AcDbSymbolTableRecord
100
AcDbBlockTableRecord
2
*MODEL_SPACE
0
BLOCK_RECORD
5
1B
100
AcDbSymbolTableRecord
100
AcDbBlockTableRecord
2
*PAPER_SPACE
0
ENDTAB
0
ENDSEC
0
SECTION
2
BLOCKS
0
BLOCK
5
20
100
AcDbEntity
100
AcDbBlockBegin
2
*MODEL_SPACE
0
ENDBLK
5
21
100
AcDbEntity
100
AcDbBlockEnd
0
BLOCK
5
1C
100
AcDbEntity
100
AcDbBlockBegin
2
*PAPER_SPACE
0
ENDBLK
5
1D
100
AcDbEntity
100
AcDbBlockEnd
0
ENDSEC
0
SECTION
2
ENTITIES
0
SPLINE
5
100
100
AcDbEntity
8
0
100
AcDbSpline
70
6
71
5
72
86
73
80
74
0
42
0.000000001
43
0.0000000001
44
0.0000000001
40
-1
40
-1
40
-1
40
-1
40
-1
40
-1
40
-0.98666666666666536
40
-0.97333333333333205
40
-0.95999999999999874
40
-0.94666666666666544
40
-0.93333333333333213
40
-0.91999999999999882
40
-0.90666666666666551
40
-0.8933333333333322
40
-0.87999999999999889
40
-0.86666666666666559
40
-0.85333333333333228
40
-0.83999999999999897
40
-0.82666666666666566
40
-0.81333333333333235
40
-0.79999999999999905
40
-0.78666666666666574
40
-0.77333333333333243
40
-0.75999999999999912
40
-0.74666666666666581
40
-0.7333333333333325
40
-0.7199999999999992
40
-0.70666666666666589
40
-0.69333333333333258
40
-0.67999999999999927
40
-0.66666666666666596
40
-0.65333333333333266
40
-0.63999999999999935
40
-0.62666666666666604
40
-0.61333333333333273
40
-0.59999999999999942
40
-0.58666666666666611
40
-0.57333333333333281
40
-0.5599999999999995
40
-0.54666666666666619
40
-0.53333333333333288
40
-0.51999999999999957
40
-0.50666666666666627
40
-0.4933333333333329
40
-0.47999999999999959
40
-0.46666666666666629
40
-0.45333333333333298
40
-0.43999999999999967
40
-0.42666666666666636
40
-0.41333333333333305
40
-0.39999999999999974
40
-0.38666666666666644
40
-0.37333333333333313
40
-0.35999999999999982
40
-0.34666666666666651
40
-0.3333333333333332
40
-0.3199999999999999
40
-0.30666666666666659
40
-0.29333333333333328
40
-0.27999999999999997
40
-0.26666666666666666
40
-0.25333333333333335
40
-0.24000000000000002
40
-0.22666666666666668
40
-0.21333333333333335
40
-0.20000000000000001
40
-0.18666666666666668
40
-0.17333333333333334
40
-0.16
40
-0.14666666666666667
40
-0.13333333333333333
40
-0.12000000000000001
40
-0.10666666666666667
40
-0.093333333333333338
40
-0.080000000000000002
40
-0.066666666666666666
40
-0.053333333333333337
40
-0.040000000000000001
40
-0.026666666666666668
40
-0.013333333333333334
40
0
40
0
40
0
40
0
40
0
40
0
41
1
41
1
41
1
41
1
41
1
41
1
41
1
41
1
41
1
41
1
41
1
41
1
41
1
41
1
41
1
41
1
41
1
41
1
41
1
41
1
41
1
41
1
41
1
41
1
41
1
41
1
41
1
41
1
41
1
41
1
41
1
41
1
41
1
41
1
41
1
41
1
41
1
41
1
41
1
41
1
41
1
41
1
41
1
41
1
41
1
41
1
41
1
41
1
41
1
41
1
41
1
41
1
41
1
41
1
41
1
41
1
41
1
41
1
41
1
41
1
41
1
41
1
41
1
41
1
41
1
41
1
41
1
41
1
41
1
41
1
41
1
41
1
41
1
41
1
41
1
41
1
41
1
41
1
41
1
41
1
10
-8.2071615265207409
20
9.3349681077167563
30
0
10
-8.1727255889336181
20
9.3454634489152095
30
0
10
-8.0970971696831402
20
9.3686212544806562
30
0
10
-7.9657891338587836
20
9.408714831545371
30
0
10
-7.7741688817562888
20
9.4639806950213732
30
0
10
-7.5330286532496604
20
9.517379491292024
30
0
10
-7.3180764428715825
20
9.5362786645068773
30
0
10
-7.1480353844534541
20
9.5078626322555841
30
0
10
-7.0364350719062152
20
9.4293297004516656
30
0
10
-6.9889280959040914
20
9.3080867689994324
30
0
10
-7.0038829655405133
20
9.1747501814607286
30
0
10
-7.0703438462868826
20
9.0611635615171586
30
0
10
-7.1703213660662879
20
8.9701608067752403
30
0
10
-7.2827864744263477
20
8.894875663474334
30
0
10
-7.3871675331812598
20
8.8207004620786442
30
0
10
-7.4668376474599789
20
8.7341248574459858
30
0
10
-7.5131735122409582
20
8.6297000130966151
30
0
10
-7.5252018599637109
20
8.5097968421667805
30
0
10
-7.5080781973783184
20
8.38156837818571
30
0
10
-7.4719795002812139
20
8.2549303337620223
30
0
10
-7.4308122367129155
20
8.1400956395253719
30
0
10
-7.4010405796313581
20
8.0453528029128307
30
0
10
-7.397936969781445
20
7.9760924973161895
30
0
10
-7.4323389672102556
20
7.9340489034616697
30
0
10
-7.506274866455338
20
7.9160311826880188
30
0
10
-7.6123510812538626
20
7.9143563396279433
30
0
10
-7.7387924718299361
20
7.9198704295189151
30
0
10
-7.8728728578352225
20
7.9241977717931773
30
0
10
-8.0055242916931419
20
7.9226237346346053
30
0
10
-8.1339401782452541
20
7.9157689878143742
30
0
10
-8.2588510580726027
20
7.9071098757694154
30
0
10
-8.3807643472163242
20
7.9006021342010033
30
0
10
-8.500249551597479
20
7.8992447570802558
30
0
10
-8.6080573358036432
20
7.9009738863652297
30
0
10
-8.7026471258919909
20
7.9018750110699267
30
0
10
-8.8028901320959996
20
7.9015791586240205
30
0
10
-8.927172072232306
20
7.9004384218737966
30
0
10
-9.0894249977855281
20
7.8996565691026834
30
0
10
-9.2773252886759128
20
7.9002834347904143
30
0
10
-9.4671039377352351
20
7.9023925303136338
30
0
10
-9.6503310919318341
20
7.9051317702888069
30
0
10
-9.8221288429055384
20
7.907282118874714
30
0
10
-9.9834346385602633
20
7.9076262265141128
30
0
10
-10.137337850834095
20
7.9053916396216142
30
0
10
-10.287953222267241
20
7.9006761908740186
30
0
10
-10.43823818622753
20
7.8948493578978995
30
0
10
-10.588169324875841
20
7.8910523463389532
30
0
10
-10.734666186805637
20
7.8932390733045619
30
0
10
-10.871863589525827
20
7.905147554880366
30
0
10
-10.991047446713276
20
7.9292040551550267
30
0
10
-11.081185167921449
20
7.965663241379457
30
0
10
-11.128080510002375
20
8.0111394028808256
30
0
10
-11.118240231343954
20
8.0590992681573681
30
0
10
-11.056160465239541
20
8.1042259558042176
30
0
10
-10.973379748075418
20
8.1458621487930785
30
0
10
-10.903094404749764
20
8.1862655462238649
30
0
10
-10.842883055043373
20
8.2305890747242714
30
0
10
-10.749539358469775
20
8.283121614659489
30
0
10
-10.631466963535519
20
8.3401987060489837
30
0
10
-10.506296591145814
20
8.3962227079422824
30
0
10
-10.397832774334793
20
8.4458195776123048
30
0
10
-10.317094357775883
20
8.4875092778545866
30
0
10
-10.249541356516604
20
8.5269189084101225
30
0
10
-10.167497642145713
20
8.5728664916393971
30
0
10
-10.041490087374525
20
8.6341073152669079
30
0
10
-9.8570454030297192
20
8.7141673852311801
30
0
10
-9.6175658204386583
20
8.8107735414558856
30
0
10
-9.3804747115655829
20
8.9044089736217025
30
0
10
-9.2075874723298359
20
8.9748547228194973
30
0
10
-9.0885622888622368
20
9.0258508234711421
30
0
10
-8.995383174978052
20
9.0669782682551894
30
0
10
-8.8878607871463124
20
9.1116222953495019
30
0
10
-8.7467172895489291
20
9.1656925010135897
30
0
10
-8.5784667400800743
20
9.2261202947421594
30
0
10
-8.4749464874029599
20
9.2600409876206502
30
0
10
-8.4228172121639719
20
9.2731488842033354
30
0
10
-8.3742119343399288
20
9.2850597387375444
30
0
10
-8.3037127952054863
20
9.3056492072895303
30
0
10
-8.2415974641078602
20
9.3244727665183031
30
0
10
-8.2071615265207409
20
9.3349681077167563
30
0
0
SPLINE
5
101
100
AcDbEntity
8
0
100
AcDbSpline
70
6
71
5
72
86
73
80
74
0
42
0.000000001
43
0.0000000001
44
0.0000000001
40
0
40
0
40
0
40
0
40
0
40
0
40
0.013333333333333334
40
0.026666666666666668
40
0.040000000000000001
40
0.053333333333333337
40
0.066666666666666666
40
0.080000000000000002
40
0.093333333333333338
40
0.10666666666666667
40
0.12000000000000001
40
0.13333333333333333
40
0.14666666666666667
40
0.16
40
0.17333333333333334
40
0.18666666666666668
40
0.20000000000000001
40
0.21333333333333335
40
0.22666666666666668
40
0.24000000000000002
40
0.25333333333333335
40
0.26666666666666666
40
0.27999999999999997
40
0.29333333333333328
40
0.30666666666666659
40
0.3199999999999999
40
0.3333333333333332
40
0.34666666666666651
40
0.35999999999999982
40
0.37333333333333313
40
0.38666666666666644
40
0.39999999999999974
40
0.41333333333333305
40
0.42666666666666636
40
0.43999999999999967
40
0.45333333333333298
40
0.46666666666666629
40
0.47999999999999959
40
0.4933333333333329
40
0.50666666666666627
40
0.51999999999999957
40
0.53333333333333288
40
0.54666666666666619
40
0.5599999999999995
40
0.57333333333333281
40
0.58666666666666611
40
0.59999999999999942
40
0.61333333333333273
40
0.62666666666666604
40
0.63999999999999935
40
0.65333333333333266
40
0.66666666666666596
40
0.67999999999999927
40
0.69333333333333258
40
0.70666666666666589
40
0.7199999999999992
40
0.7333333333333325
40
0.74666666666666581
40
0.75999999999999912
40
0.77333333333333243
40
0.78666666666666574
40
0.79999999999999905
40
0.81333333333333235
40
0.82666666666666566
40
0.83999999999999897
40
0.85333333333333228
40
0.86666666666666559
40
0.87999999999999889
40
0.8933333333333322
40
0.90666666666666551
40
0.91999999999999882
40
0.93333333333333213
40
0.94666666666666544
40
0.95999999999999874
40
0.97333333333333205
40
0.98666666666666536
40
1
40
1
40
1
40
1
40
1
40
1
41
1
41
1
41
1
41
1
41
1
41
1
41
1
41
1
41
1
41
1
41
1
41
1
41
1
41
1
41
1
41
1
41
1
41
1
41
1
41
1
41
1
41
1
41
1
41
1
41
1
41
1
41
1
41
1
41
1
41
1
41
1
41
1
41
1
41
1
41
1
41
1
41
1
41
1
41
1
41
1
41
1
41
1
41
1
41
1
41
1
41
1
41
1
41
1
41
1
41
1
41
1
41
1
41
1
41
1
41
1
41
1
41
1
41
1
41
1
41
1
41
1
41
1
41
1
41
1
41
1
41
1
41
1
41
1
41
1
41
1
41
1
41
1
41
1
41
1
41
1
41
1
41
1
41
1
41
1
41
1
10
8.2071615265207409
20
9.3349681077167563
30
0
10
8.2415974641078602
20
9.3244727665183031
30
0
10
8.3037127952054863
20
9.3056492072895303
30
0
10
8.3742119343399288
20
9.2850597387375444
30
0
10
8.4228172121639719
20
9.2731488842033354
30
0
10
8.4749464874029599
20
9.2600409876206502
30
0
10
8.5784667400800743
20
9.2261202947421594
30
0
10
8.7467172895489291
20
9.1656925010135897
30
0
10
8.8878607871463124
20
9.1116222953495019
30
0
10
8.995383174978052
20
9.0669782682551894
30
0
10
9.0885622888622368
20
9.0258508234711421
30
0
10
9.2075874723298359
20
8.9748547228194973
30
0
10
9.3804747115655829
20
8.9044089736217025
30
0
10
9.6175658204386583
20
8.8107735414558856
30
0
10
9.8570454030297192
20
8.7141673852311801
30
0
10
10.041490087374525
20
8.6341073152669079
30
0
10
10.167497642145713
20
8.5728664916393971
30
0
10
10.249541356516604
20
8.5269189084101225
30
0
10
10.317094357775883
20
8.4875092778545866
30
0
10
10.397832774334793
20
8.4458195776123048
30
0
10
10.506296591145814
20
8.3962227079422824
30
0
10
10.631466963535519
20
8.3401987060489837
30
0
10
10.749539358469775
20
8.283121614659489
30
0
10
10.842883055043373
20
8.2305890747242714
30
0
10
10.903094404749764
20
8.1862655462238649
30
0
10
10.973379748075418
20
8.1458621487930785
30
0
10
11.056160465239541
20
8.1042259558042176
30
0
10
11.118240231343954
20
8.0590992681573681
30
0
10
11.128080510002375
20
8.0111394028808256
30
0
10
11.081185167921449
20
7.965663241379457
30
0
10
10.991047446713276
20
7.9292040551550267
30
0
10
10.871863589525827
20
7.905147554880366
30
0
10
10.734666186805637
20
7.8932390733045619
30
0
10
10.588169324875841
20
7.8910523463389532
30
0
10
10.43823818622753
20
7.8948493578978995
30
0
10
10.287953222267241
20
7.9006761908740186
30
0
10
10.137337850834095
20
7.9053916396216142
30
0
10
9.9834346385602633
20
7.9076262265141128
30
0
10
9.8221288429055384
20
7.907282118874714
30
0
10
9.6503310919318341
20
7.9051317702888069
30
0
10
9.4671039377352351
20
7.9023925303136338
30
0
10
9.2773252886759128
20
7.9002834347904143
30
0
10
9.0894249977855281
20
7.8996565691026834
30
0
10
8.927172072232306
20
7.9004384218737966
30
0
10
8.8028901320959996
20
7.9015791586240205
30
0
10
8.7026471258919909
20
7.9018750110699267
30
0
10
8.6080573358036432
20
7.9009738863652297
30
0
10
8.500249551597479
20
7.8992447570802558
30
0
10
8.3807643472163242
20
7.9006021342010033
30
0
10
8.2588510580726027
20
7.9071098757694154
30
0
10
8.1339401782452541
20
7.9157689878143742
30
0
10
8.0055242916931419
20
7.9226237346346053
30
0
10
7.8728728578352225
20
7.9241977717931773
30
0
10
7.7387924718299361
20
7.9198704295189151
30
0
10
7.6123510812538626
20
7.9143563396279433
30
0
10
7.506274866455338
20
7.9160311826880188
30
0
10
7.4323389672102556
20
7.9340489034616697
30
0
10
7.397936969781445
20
7.9760924973161895
30
0
10
7.4010405796313581
20
8.0453528029128307
30
0
10
7.4308122367129155
20
8.1400956395253719
30
0
10
7.4719795002812139
20
8.2549303337620223
30
0
10
7.5080781973783184
20
8.38156837818571
30
0
10
7.5252018599637109
20
8.5097968421667805
30
0
10
7.5131735122409582
20
8.6297000130966151
30
0
10
7.4668376474599789
20
8.7341248574459858
30
0
10
7.3871675331812598
20
8.8207004620786442
30
0
10
7.2827864744263477
20
8.894875663474334
30
0
10
7.1703213660662879
20
8.9701608067752403
30
0
10
7.0703438462868826
20
9.0611635615171586
30
0
10
7.0038829655405133
20
9.1747501814607286
30
0
10
6.9889280959040914
20
9.3080867689994324
30
0
10
7.0364350719062152
20
9.4293297004516656
30
0
10
7.1480353844534541
20
9.5078626322555841
30
0
10
7.3180764428715825
20
9.5362786645068773
30
0
10
7.5330286532496604
20
9.517379491292024
30
0
10
7.7741688817562888
20
9.4639806950213732
30
0
10
7.9657891338587836
20
9.408714831545371
30
0
10
8.0970971696831402
20
9.3686212544806562
30
0
10
8.1727255889336181
20
9.3454634489152095
30
0
10
8.2071615265207409
20
9.3349681077167563
30
0
0
CIRCLE
5
102
100
AcDbEntity
8
0
100
AcDbCircle
10
6.9999999154036434
20
8.4999999033184501
30
0
40
0.1249999999999996
210
0
220
0
230
1
0
CIRCLE
5
103
100
AcDbEntity
8
0
100
AcDbCircle
10
-6.9999999154036434
20
8.4999999033184501
30
0
40
0.1249999999999996
210
0
220
0
230
1
0
SPLINE
5
104
100
AcDbEntity
8
0
100
AcDbSpline
70
6
71
5
72
111
73
105
74
0
42
0.000000001
43
0.0000000001
44
0.0000000001
40
0
40
0
40
0
40
0
40
0
40
0
40
0.01
40
0.02
40
0.029999999999999999
40
0.040000000000000001
40
0.050000000000000003
40
0.060000000000000005
40
0.070000000000000007
40
0.080000000000000002
40
0.089999999999999997
40
0.099999999999999992
40
0.10999999999999999
40
0.11999999999999998
40
0.12999999999999998
40
0.13999999999999999
40
0.14999999999999999
40
0.16
40
0.17000000000000001
40
0.18000000000000002
40
0.19000000000000003
40
0.20000000000000004
40
0.21000000000000005
40
0.22000000000000006
40
0.23000000000000007
40
0.24000000000000007
40
0.25000000000000006
40
0.26000000000000006
40
0.27000000000000007
40
0.28000000000000008
40
0.29000000000000009
40
0.3000000000000001
40
0.31000000000000011
40
0.32000000000000012
40
0.33000000000000013
40
0.34000000000000014
40
0.35000000000000014
40
0.36000000000000015
40
0.37000000000000016
40
0.38000000000000017
40
0.39000000000000018
40
0.40000000000000019
40
0.4100000000000002
40
0.42000000000000021
40
0.43000000000000022
40
0.44000000000000022
40
0.45000000000000023
40
0.46000000000000024
40
0.47000000000000025
40
0.48000000000000026
40
0.49000000000000027
40
0.50000000000000022
40
0.51000000000000023
40
0.52000000000000024
40
0.53000000000000025
40
0.54000000000000026
40
0.55000000000000027
40
0.56000000000000028
40
0.57000000000000028
40
0.58000000000000029
40
0.5900000000000003
40
0.60000000000000031
40
0.61000000000000032
40
0.62000000000000033
40
0.63000000000000034
40
0.64000000000000035
40
0.65000000000000036
40
0.66000000000000036
40
0.67000000000000037
40
0.68000000000000038
40
0.69000000000000039
40
0.7000000000000004
40
0.71000000000000041
40
0.72000000000000042
40
0.73000000000000043
40
0.74000000000000044
40
0.75000000000000044
40
0.76000000000000045
40
0.77000000000000046
40
0.78000000000000047
40
0.79000000000000048
40
0.80000000000000049
40
0.8100000000000005
40
0.82000000000000051
40
0.83000000000000052
40
0.84000000000000052
40
0.85000000000000053
40
0.86000000000000054
40
0.87000000000000055
40
0.88000000000000056
40
0.89000000000000057
40
0.90000000000000058
40
0.91000000000000059
40
0.9200000000000006
40
0.9300000000000006
40
0.94000000000000061
40
0.95000000000000062
40
0.96000000000000063
40
0.97000000000000064
40
0.98000000000000065
40
0.99000000000000066
40
1
40
1
40
1
40
1
40
1
40
1
41
1
41
1
41
1
41
1
41
1
41
1
41
1
41
1
41
1
41
1
41
1
41
1
41
1
41
1
41
1
41
1
41
1
41
1
41
1
41
1
41
1
41
1
41
1
41
1
41
1
41
1
41
1
41
1
41
1
41
1
41
1
41
1
41
1
41
1
41
1
41
1
41
1
41
1
41
1
41
1
41
1
41
1
41
1
41
1
41
1
41
1
41
1
41
1
41
1
41
1
41
1
41
1
41
1
41
1
41
1
41
1
41
1
41
1
41
1
41
1
41
1
41
1
41
1
41
1
41
1
41
1
41
1
41
1
41
1
41
1
41
1
41
1
41
1
41
1
41
1
41
1
41
1
41
1
41
1
41
1
41
1
41
1
41
1
41
1
41
1
41
1
41
1
41
1
41
1
41
1
41
1
41
1
41
1
41
1
41
1
41
1
41
1
41
1
41
1
41
1
41
1
41
1
41
1
41
1
41
1
10
-1.9265746574651468e-16
20
10.639999877456134
30
0
10
0.043811084820255385
20
10.639611654539145
30
0
10
0.13181239608881043
20
10.638811707197265
30
0
10
0.26583207787405422
20
10.637604860328985
30
0
10
0.45239018663576769
20
10.636064608735309
30
0
10
0.70702858160468829
20
10.633876712150339
30
0
10
0.98712988578520688
20
10.630752437426791
30
0
10
1.2899815348712138
20
10.625980114455794
30
0
10
1.6021638538338876
20
10.619136698779023
30
0
10
1.9003908708736803
20
10.610202952084414
30
0
10
2.1620045095722444
20
10.599250542064828
30
0
10
2.3741846118938095
20
10.58619179674889
30
0
10
2.5421558123624122
20
10.570559623324819
30
0
10
2.7016804273018051
20
10.551137366277027
30
0
10
2.9106757327585719
20
10.526262756215401
30
0
10
3.2049297363697558
20
10.494997598288368
30
0
10
3.5890287772014213
20
10.457679390821809
30
0
10
3.9576596677640246
20
10.417551208899614
30
0
10
4.1831544272097849
20
10.379894750519435
30
0
10
4.3274746065938334
20
10.345594028299619
30
0
10
4.4814463643221085
20
10.312148859608435
30
0
10
4.7225252810383598
20
10.270043395345509
30
0
10
5.0276440085232297
20
10.205808874720903
30
0
10
5.3710980629634504
20
10.12383478957401
30
0
10
5.7127543215007739
20
10.033963219203448
30
0
10
6.0161345412886833
20
9.9482100583644399
30
0
10
6.2530464777176995
20
9.8740037933557296
30
0
10
6.4170159873922694
20
9.8083716793633986
30
0
10
6.5250583779125284
20
9.7333474641264939
30
0
10
6.5998585628902369
20
9.6265784744707368
30
0
10
6.6271153578963817
20
9.4690509702189729
30
0
10
6.6194541399220164
20
9.2594367701121545
30
0
10
6.603208615098886
20
9.0094047205615055
30
0
10
6.5947515504805683
20
8.739934475624791
30
0
10
6.5758649366841961
20
8.4773856499589808
30
0
10
6.4990857328481635
20
8.2487838518472429
30
0
10
6.3252353768112286
20
8.074196575042512
30
0
10
6.0359232326354535
20
7.9635538227664577
30
0
10
5.6917678666549749
20
7.9033502415512178
30
0
10
5.3426253647132631
20
7.8776751485403667
30
0
10
5.0082478234516481
20
7.874353959831768
30
0
10
4.6944036135545195
20
7.8826130616872954
30
0
10
4.3939198959700079
20
7.894384409832556
30
0
10
4.0939741093194897
20
7.9039970526418086
30
0
10
3.7812472368712267
20
7.9086834897953082
30
0
10
3.4460875615899851
20
7.9083367254267527
30
0
10
3.0819901767944131
20
7.9045777428727959
30
0
10
2.6863297654234688
20
7.8999025628645114
30
0
10
2.2603516697311492
20
7.8968998567296298
30
0
10
1.8100218867822115
20
7.8972090526439249
30
0
10
1.3452504742356364
20
7.9011262470902865
30
0
10
0.88299066959135164
20
7.9055828625318831
30
0
10
0.43488343785048594
20
7.9085927372730005
30
0
10
0.0073324642977973002
20
7.9094568023052867
30
0
10
-0.39697695367218305
20
7.9082463325239045
30
0
10
-0.77826115039789057
20
7.9056240163569704
30
0
10
-1.1385235806254912
20
7.9025204987988182
30
0
10
-1.4805567437673068
20
7.8998696216927105
30
0
10
-1.8069265000069796
20
7.898327510395557
30
0
10
-2.1188785051000254
20
7.897974158757723
30
0
10
-2.416953434640333
20
7.8984866377018541
30
0
10
-2.7017090064488216
20
7.8993379996683508
30
0
10
-2.9744331036100577
20
7.9000039304172942
30
0
10
-3.237792608561493
20
7.9001268038716495
30
0
10
-3.4966825273961635
20
7.8997936401808584
30
0
10
-3.758221838807799
20
7.899416752243245
30
0
10
-4.0305813537329627
20
7.89945568029552
30
0
10
-4.3226916893497016
20
7.8998776141391387
30
0
10
-4.6423585407245227
20
7.9004019413814541
30
0
10
-4.9984995385470699
20
7.8985403475249747
30
0
10
-5.3740402323243064
20
7.9029350086138468
30
0
10
-5.738673278566548
20
7.9275173198605131
30
0
10
-6.0570256028859317
20
7.987746138567406
30
0
10
-6.2990126082511422
20
8.095878673042753
30
0
10
-6.4479801063913129
20
8.2572031317620205
30
0
10
-6.5130594180584591
20
8.4644557174239736
30
0
10
-6.5238146492993589
20
8.6997858151753107
30
0
10
-6.5134330827701072
20
8.9414014405358131
30
0
10
-6.5072351807600155
20
9.168332692202247
30
0
10
-6.5046538296754992
20
9.3670510703401142
30
0
10
-6.4834426544965549
20
9.5323767931319647
30
0
10
-6.4164640277146869
20
9.6649585887861491
30
0
10
-6.2867381522258698
20
9.7697458509734574
30
0
10
-6.0971048651962354
20
9.8541220633381865
30
0
10
-5.8595950537804402
20
9.9262804557882074
30
0
10
-5.5894237147751271
20
9.993661690317504
30
0
10
-5.2956529803323393
20
10.061034847453987
30
0
10
-4.9790165612028803
20
10.130010288746318
30
0
10
-4.6367146308742484
20
10.200142492862906
30
0
10
-4.2649873955654662
20
10.269567716452091
30
0
10
-3.8634832765432416
20
10.335916502883441
30
0
10
-3.4368067372353059
20
10.396909752281527
30
0
10
-3.0021095617751565
20
10.451556732751683
30
0
10
-2.5814250469387177
20
10.49987315917679
30
0
10
-2.1857489891881454
20
10.541357283663615
30
0
10
-1.8218651729997746
20
10.575668414061697
30
0
10
-1.4911974722208932
20
10.602531874300364
30
0
10
-1.192035926675433
20
10.621976932592144
30
0
10
-0.92025638252282416
20
10.634414443395872
30
0
10
-0.67081788250983665
20
10.640825784253375
30
0
10
-0.4385030097410833
20
10.642769422505015
30
0
10
-0.26166151996561426
20
10.642136377984434
30
0
10
-0.13105411283271723
20
10.641141044699195
30
0
10
-0.043811084820252873
20
10.640388100373125
30
0
10
-1.9265746574651468e-16
20
10.639999877456134
30
0
0
LINE
5
105
100
AcDbEntity
8
0
100
AcDbLine
10
-12.181875
20
7.6243749999999997
30
0
11
12.181875
21
7.6243749999999997
31
0
0
LINE
5
106
100
AcDbEntity
8
0
100
AcDbLine
10
12.181875
20
7.6243749999999997
30
0
11
12.181874999999998
21
7.751965732134094
31
0
0
ELLIPSE
5
107
100
AcDbEntity
8
0
100
AcDbEllipse
10
0
20
0.49999999999999994
30
0
11
16.937999999999999
21
2.043999449940427e-15
31
0.0
40
0.61621797142519774
41
0.76814054321623737
42
2.373452110373556
0
LINE
5
108
100
AcDbEntity
8
0
100
AcDbLine
10
-12.181875
20
7.7519657321340896
30
0
11
-12.181875
21
7.6243749999999997
31
0
0
ENDSEC
0
SECTION
2
OBJECTS
0
DICTIONARY
5
C
100
AcDbDictionary
3
ACAD_GROUP
350
D
3
ACAD_MLINESTYLE
350
17
0
DICTIONARY
5
D
100
AcDbDictionary
0
DICTIONARY
5
1A
330
C
100
AcDbDictionary
0
DICTIONARY
5
17
100
AcDbDictionary
0
ENDSEC
0
EOF
