0
SECTION
2
HEADER
9
$INSUNITS
70
1
9
$ACADVER
1
AC1014
9
$HANDSEED
5
FFFF
0
ENDSEC
0
SECTION
2
TABLES
0
TABLE
2
VPORT
5
8
100
AcDbSymbolTable
0
ENDTAB
0
TABLE
2
LTYPE
5
5
100
AcDbSymbolTable
0
LTYPE
5
14
100
AcDbSymbolTableRecord
100
AcDbLinetypeTableRecord
2
BYBLOCK
70
0
0
LTYPE
5
15
100
AcDbSymbolTableRecord
100
AcDbLinetypeTableRecord
2
BYLAYER
70
0
0
ENDTAB
0
TABLE
2
LAYER
5
2
100
AcDbSymbolTable
70
2
0
LAYER
5
50
100
AcDbSymbolTableRecord
100
AcDbLayerTableRecord
2
0
70
0
6
CONTINUOUS
0
ENDTAB
0
TABLE
2
STYLE
5
3
100
AcDbSymbolTable
70
1
0
STYLE
5
11
100
AcDbSymbolTableRecord
100
AcDbTextStyleTableRecord
2
STANDARD
70
0
0
ENDTAB
0
TABLE
2
VIEW
5
6
100
AcDbSymbolTable
70
0
0
ENDTAB
0
TABLE
2
UCS
5
7
100
AcDbSymbolTable
70
0
0
ENDTAB
0
TABLE
2
APPID
5
9
100
AcDbSymbolTable
70
2
0
APPID
5
12
100
AcDbSymbolTableRecord
100
AcDbRegAppTableRecord
2
ACAD
70
0
0
ENDTAB
0
TABLE
2
DIMSTYLE
5
A
100
AcDbSymbolTable
70
1
0
ENDTAB
0
TABLE
2
BLOCK_RECORD
5
1
100
AcDbSymbolTable
70
1
0
BLOCK_RECORD
5
1F
100
AcDbSymbolTableRecord
100
AcDbBlockTableRecord
2
*MODEL_SPACE
0
BLOCK_RECORD
5
1B
100
AcDbSymbolTableRecord
100
AcDbBlockTableRecord
2
*PAPER_SPACE
0
ENDTAB
0
ENDSEC
0
SECTION
2
BLOCKS
0
BLOCK
5
20
100
AcDbEntity
100
AcDbBlockBegin
2
*MODEL_SPACE
0
ENDBLK
5
21
100
AcDbEntity
100
AcDbBlockEnd
0
BLOCK
5
1C
100
AcDbEntity
100
AcDbBlockBegin
2
*PAPER_SPACE
0
ENDBLK
5
1D
100
AcDbEntity
100
AcDbBlockEnd
0
ENDSEC
0
SECTION
2
ENTITIES
0
LWPOLYLINE
5
100
100
AcDbEntity
8
0
100
AcDbPolyline
90
8
70
1
43
0.0
10
-2.7500000928415904
20
7.0000000000000009
10
2.7499999071584029
20
7.0000000000000009
42
0.41421356237309254
10
2.9999999071584051
20
7.2500000000000036
10
2.9999999071584047
20
13.750000000000004
42
0.41421356237309709
10
2.7499999071584078
20
14
10
-2.7500000928415953
20
14
42
0.41421356237309664
10
-3.0000000928415917
20
13.750000000000004
10
-3.0000000928415926
20
7.2500000000000036
42
0.41421356237309215
0
LINE
5
101
100
AcDbEntity
8
0
100
AcDbLine
10
-5.9999999098890404
20
6
30
0
11
6.0000000928415922
21
6
31
0
0
LINE
5
102
100
AcDbEntity
8
0
100
AcDbLine
10
6.0000000928415922
20
6
30
0
11
5.9999999049546515
21
8.0000000000000018
31
0
0
SPLINE
5
103
100
AcDbEntity
8
0
100
AcDbSpline
70
4
71
5
72
21
73
15
74
0
42
0.000000001
43
0.0000000001
44
0.0000000001
40
-0.94953461839043707
40
-0.94953461839043707
40
-0.94953461839043707
40
-0.94953461839043707
40
-0.94953461839043707
40
-0.94953461839043707
40
-0.89999999999999991
40
-0.79999999999999993
40
-0.69999999999999996
40
-0.59999999999999998
40
-0.5
40
-0.40000000000000002
40
-0.30000000000000004
40
-0.20000000000000001
40
-0.10000000000000001
40
0
40
0
40
0
40
0
40
0
40
0
41
1
41
1
41
1
41
1
41
1
41
1
41
1
41
1
41
1
41
1
41
1
41
1
41
1
41
1
41
1
10
5.9999999049546515
20
8.0000000000000018
30
0
10
5.9999306247344482
20
8.002060243546083
30
0
10
5.9995059511193229
20
8.0124758928862274
30
0
10
5.9971367014862311
20
8.063568701192855
30
0
10
5.9861061646863138
20
8.3140111619967811
30
0
10
5.9688815193477076
20
9.0632237995115137
30
0
10
5.9862429637310495
20
10.489871971640584
30
0
10
6.1047381401802934
20
12.422552143580202
30
0
10
6.406054505663608
20
14.715400777344552
30
0
10
6.984861309460408
20
17.182782019224927
30
0
10
7.9415183344931659
20
19.633446896795814
30
0
10
9.0860701826997712
20
21.440976255823422
30
0
10
10.192428695456416
20
22.65185467465254
30
0
10
11.044978749645587
20
23.387259939558906
30
0
10
11.499999836019901
20
23.73699988940928
30
0
0
LINE
5
104
100
AcDbEntity
8
0
100
AcDbLine
10
11.499999836019901
20
23.73699988940928
30
0
11
11.499999838412013
21
24.37699988940928
31
0
0
LINE
5
105
100
AcDbEntity
8
0
100
AcDbLine
10
11.499999838412013
20
24.37699988940928
30
0
11
4.8124998384120152
21
24.376999962453763
31
0
0
LINE
5
106
100
AcDbEntity
8
0
100
AcDbLine
10
4.8124998384120152
20
24.376999962453763
30
0
11
4.812815708125898
21
25.002961305218886
31
0
0
LINE
5
107
100
AcDbEntity
8
0
100
AcDbLine
10
4.812815708125898
20
25.002961305218886
30
0
11
-10.681999811051206
21
25.010780227267801
31
0
0
LINE
5
108
100
AcDbEntity
8
0
100
AcDbLine
10
-10.681999811051206
20
25.010780227267801
30
0
11
-11.499999849815067
21
25.010780227267801
31
0
0
LINE
5
109
100
AcDbEntity
8
0
100
AcDbLine
10
-11.499999849815067
20
25.010780227267801
30
0
11
-11.499999849815069
21
23.737000015018491
31
0
0
SPLINE
5
110
100
AcDbEntity
8
0
100
AcDbSpline
70
4
71
5
72
21
73
15
74
0
42
0.000000001
43
0.0000000001
44
0.0000000001
40
0
40
0
40
0
40
0
40
0
40
0
40
0.10000000000000001
40
0.20000000000000001
40
0.30000000000000004
40
0.40000000000000002
40
0.5
40
0.59999999999999998
40
0.69999999999999996
40
0.79999999999999993
40
0.89999999999999991
40
0.94953493352707397
40
0.94953493352707397
40
0.94953493352707397
40
0.94953493352707397
40
0.94953493352707397
40
0.94953493352707397
41
1
41
1
41
1
41
1
41
1
41
1
41
1
41
1
41
1
41
1
41
1
41
1
41
1
41
1
41
1
10
-11.499999849815069
20
23.737000015018491
30
0
10
-11.044978767260805
20
23.387260060198134
30
0
10
-10.192428721104125
20
22.651854785979754
30
0
10
-9.0860702215733511
20
21.44097635506639
30
0
10
-7.9415183931095568
20
19.633446983537368
30
0
10
-6.9848613948442848
20
17.182782095517357
30
0
10
-6.4060546179975564
20
14.715400847314944
30
0
10
-6.1047382775579733
20
12.42255221025945
30
0
10
-5.9862431222185064
20
10.489872037025567
30
0
10
-5.9688816934177868
20
9.0632238647068633
30
0
10
-5.9861063590146735
20
8.3140107021607612
30
0
10
-5.9971369063651112
20
8.0635683151046607
30
0
10
-5.9995061456425711
20
8.0124757648417511
30
0
10
-5.999930813975018
20
8.002060221279292
30
0
10
-6.0000000928415931
20
8.0000000000000018
30
0
0
LINE
5
111
100
AcDbEntity
8
0
100
AcDbLine
10
-6.0000000928415922
20
8.0000000000000036
30
0
11
-5.9999999098890404
21
6
31
0
0
CIRCLE
5
112
100
AcDbEntity
8
0
100
AcDbCircle
10
-6.9999998519705295
20
23.437000015018487
30
0
40
0.1249999999999982
210
0
220
0
230
1
0
CIRCLE
5
113
100
AcDbEntity
8
0
100
AcDbCircle
10
6.999999834898599
20
23.43699993801458
30
0
40
0.1249999999999982
210
0
220
0
230
1
0
CIRCLE
5
114
100
AcDbEntity
8
0
100
AcDbCircle
10
-4.5000000928415922
20
7.5000001517452768
30
0
40
0.12999999999999984
210
0
220
0
230
1
0
CIRCLE
5
115
100
AcDbEntity
8
0
100
AcDbCircle
10
-4.5000000928415922
20
12.499999999999996
30
0
40
0.12999999999999984
210
0
220
0
230
1
0
CIRCLE
5
116
100
AcDbEntity
8
0
100
AcDbCircle
10
4.5000000928415922
20
7.4999999999999982
30
0
40
0.12999999999999984
210
0
220
0
230
1
0
CIRCLE
5
117
100
AcDbEntity
8
0
100
AcDbCircle
10
4.5000000928415922
20
12.499999999999998
30
0
40
0.12999999999999984
210
0
220
0
230
1
0
CIRCLE
5
118
100
AcDbEntity
8
0
100
AcDbCircle
10
-4.5000000928415922
20
9.9999999999999964
30
0
40
0.12999999999999984
210
0
220
0
230
1
0
CIRCLE
5
119
100
AcDbEntity
8
0
100
AcDbCircle
10
4.5000000928415922
20
9.9999999999999964
30
0
40
0.12999999999999984
210
0
220
0
230
1
0
ENDSEC
0
SECTION
2
OBJECTS
0
DICTIONARY
5
C
100
AcDbDictionary
3
ACAD_GROUP
350
D
3
ACAD_MLINESTYLE
350
17
0
DICTIONARY
5
D
100
AcDbDictionary
0
DICTIONARY
5
1A
330
C
100
AcDbDictionary
0
DICTIONARY
5
17
100
AcDbDictionary
0
ENDSEC
0
EOF
