0
SECTION
2
HEADER
9
$INSUNITS
70
1
9
$ACADVER
1
AC1014
9
$HANDSEED
5
FFFF
0
ENDSEC
0
SECTION
2
TABLES
0
TABLE
2
VPORT
5
8
100
AcDbSymbolTable
0
ENDTAB
0
TABLE
2
LTYPE
5
5
100
AcDbSymbolTable
0
LTYPE
5
14
100
AcDbSymbolTableRecord
100
AcDbLinetypeTableRecord
2
BYBLOCK
70
0
0
LTYPE
5
15
100
AcDbSymbolTableRecord
100
AcDbLinetypeTableRecord
2
BYLAYER
70
0
0
ENDTAB
0
TABLE
2
LAYER
5
2
100
AcDbSymbolTable
70
2
0
LAYER
5
50
100
AcDbSymbolTableRecord
100
AcDbLayerTableRecord
2
0
70
0
6
CONTINUOUS
0
ENDTAB
0
TABLE
2
STYLE
5
3
100
AcDbSymbolTable
70
1
0
STYLE
5
11
100
AcDbSymbolTableRecord
100
AcDbTextStyleTableRecord
2
STANDARD
70
0
0
ENDTAB
0
TABLE
2
VIEW
5
6
100
AcDbSymbolTable
70
0
0
ENDTAB
0
TABLE
2
UCS
5
7
100
AcDbSymbolTable
70
0
0
ENDTAB
0
TABLE
2
APPID
5
9
100
AcDbSymbolTable
70
2
0
APPID
5
12
100
AcDbSymbolTableRecord
100
AcDbRegAppTableRecord
2
ACAD
70
0
0
ENDTAB
0
TABLE
2
DIMSTYLE
5
A
100
AcDbSymbolTable
70
1
0
ENDTAB
0
TABLE
2
BLOCK_RECORD
5
1
100
AcDbSymbolTable
70
1
0
BLOCK_RECORD
5
1F
100
AcDbSymbolTableRecord
100
AcDbBlockTableRecord
2
*MODEL_SPACE
0
BLOCK_RECORD
5
1B
100
AcDbSymbolTableRecord
100
AcDbBlockTableRecord
2
*PAPER_SPACE
0
ENDTAB
0
ENDSEC
0
SECTION
2
BLOCKS
0
BLOCK
5
20
100
AcDbEntity
100
AcDbBlockBegin
2
*MODEL_SPACE
0
ENDBLK
5
21
100
AcDbEntity
100
AcDbBlockEnd
0
BLOCK
5
1C
100
AcDbEntity
100
AcDbBlockBegin
2
*PAPER_SPACE
0
ENDBLK
5
1D
100
AcDbEntity
100
AcDbBlockEnd
0
ENDSEC
0
SECTION
2
ENTITIES
0
CIRCLE
5
100
100
AcDbEntity
8
0
100
AcDbCircle
10
0
20
-9.0000002872286817
30
0
40
0.19499999999999998
210
0
220
0
230
1
0
SPLINE
5
101
100
AcDbEntity
8
0
100
AcDbSpline
70
6
71
5
72
56
73
50
74
0
42
0.000000001
43
0.0000000001
44
0.0000000001
40
-1
40
-1
40
-1
40
-1
40
-1
40
-1
40
-0.97777777777777819
40
-0.95555555555555594
40
-0.93333333333333368
40
-0.91111111111111143
40
-0.88888888888888917
40
-0.86666666666666692
40
-0.84444444444444466
40
-0.82222222222222241
40
-0.80000000000000016
40
-0.7777777777777779
40
-0.75555555555555565
40
-0.73333333333333339
40
-0.71111111111111114
40
-0.68888888888888888
40
-0.66666666666666663
40
-0.64444444444444438
40
-0.62222222222222212
40
-0.59999999999999987
40
-0.57777777777777761
40
-0.55555555555555536
40
-0.5333333333333331
40
-0.51111111111111085
40
-0.48888888888888865
40
-0.46666666666666645
40
-0.44444444444444425
40
-0.42222222222222205
40
-0.39999999999999986
40
-0.37777777777777766
40
-0.35555555555555546
40
-0.33333333333333326
40
-0.31111111111111106
40
-0.28888888888888886
40
-0.26666666666666666
40
-0.24444444444444446
40
-0.22222222222222224
40
-0.20000000000000001
40
-0.17777777777777778
40
-0.15555555555555556
40
-0.13333333333333333
40
-0.11111111111111112
40
-0.088888888888888892
40
-0.066666666666666666
40
-0.044444444444444446
40
-0.022222222222222223
40
0
40
0
40
0
40
0
40
0
40
0
41
1
41
1
41
1
41
1
41
1
41
1
41
1
41
1
41
1
41
1
41
1
41
1
41
1
41
1
41
1
41
1
41
1
41
1
41
1
41
1
41
1
41
1
41
1
41
1
41
1
41
1
41
1
41
1
41
1
41
1
41
1
41
1
41
1
41
1
41
1
41
1
41
1
41
1
41
1
41
1
41
1
41
1
41
1
41
1
41
1
41
1
41
1
41
1
41
1
41
1
10
7.9232489220307434
20
8.6138228508426451
30
0
10
7.9430061639861895
20
8.6138228508426451
30
0
10
7.9846237947180949
20
8.6092422776188275
30
0
10
8.053545878322339
20
8.5909588410245359
30
0
10
8.1592903415428815
20
8.5567884196509656
30
0
10
8.3110765356717753
20
8.5099050765913038
30
0
10
8.4774164843904796
20
8.4672653734769838
30
0
10
8.6519473318507174
20
8.4295766419523712
30
0
10
8.8287998692763008
20
8.3945655728228594
30
0
10
9.0038720691960279
20
8.3580362192935649
30
0
10
9.1759470256849127
20
8.3162435059427438
30
0
10
9.3451842754536525
20
8.2658792405359396
30
0
10
9.5119437711194568
20
8.2045735584658743
30
0
10
9.6755394422816288
20
8.1311678009914026
30
0
10
9.8328867383451701
20
8.046132944451724
30
0
10
9.9775015102676399
20
7.9518300742236221
30
0
10
10.097560560033875
20
7.8530965630826177
30
0
10
10.177558447452206
20
7.7566667707987724
30
0
10
10.203567036191263
20
7.6694532808227098
30
0
10
10.167075452929383
20
7.5972583404223668
30
0
10
10.070386642636825
20
7.5430501316220546
30
0
10
9.9282674163555811
20
7.5062491257126114
30
0
10
9.7614310173638934
20
7.4841908832669022
30
0
10
9.5916550905959372
20
7.473154722352386
30
0
10
9.4362735069113413
20
7.4695510556635982
30
0
10
9.3028926897916726
20
7.4710596551366972
30
0
10
9.1840776326344056
20
7.4777415015624396
30
0
10
9.0641475096310611
20
7.4902829861719784
30
0
10
8.9257762976958563
20
7.5081033941864819
30
0
10
8.7567267515305964
20
7.5278452070001167
30
0
10
8.5563577948097844
20
7.5409586434191054
30
0
10
8.3431602104639691
20
7.5328520401073984
30
0
10
8.135178561379421
20
7.5089715462234574
30
0
10
7.9505672287436573
20
7.4828612902517708
30
0
10
7.8042101235019903
20
7.4728705108039621
30
0
10
7.7056588791066316
20
7.4951028037219452
30
0
10
7.6569666684887938
20
7.5587682830148379
30
0
10
7.649364844510969
20
7.6585007901756503
30
0
10
7.6651815380183743
20
7.7759885658103904
30
0
10
7.685576555635441
20
7.891216340252428
30
0
10
7.6959134369675901
20
7.9897935299371916
30
0
10
7.6938884908773844
20
8.0749459389888543
30
0
10
7.6881779786184907
20
8.1631392797016851
30
0
10
7.6912834954046883
20
8.2691581659437912
30
0
10
7.7144755032478374
20
8.3957344962899167
30
0
10
7.761042218372344
20
8.5179693710962372
30
0
10
7.8160865807703663
20
8.5863005551988092
30
0
10
7.8660803429854953
20
8.6092422776189075
30
0
10
7.9034916800752955
20
8.6138228508426451
30
0
10
7.9232489220307434
20
8.6138228508426451
30
0
0
CIRCLE
5
102
100
AcDbEntity
8
0
100
AcDbCircle
10
-6.9999999154036434
20
7.9999999033184492
30
0
40
0.19500000000000009
210
0
220
0
230
1
0
CIRCLE
5
103
100
AcDbEntity
8
0
100
AcDbCircle
10
14.399999825973209
20
-3.24999996072312
30
0
40
0.19500000000000009
210
0
220
0
230
1
0
CIRCLE
5
104
100
AcDbEntity
8
0
100
AcDbCircle
10
6.9999999154036434
20
7.9999999033184492
30
0
40
0.19500000000000009
210
0
220
0
230
1
0
SPLINE
5
105
100
AcDbEntity
8
0
100
AcDbSpline
70
6
71
5
72
81
73
75
74
0
42
0.000000001
43
0.0000000001
44
0.0000000001
40
0
40
0
40
0
40
0
40
0
40
0
40
0.014285714285714285
40
0.028571428571428571
40
0.042857142857142858
40
0.057142857142857141
40
0.071428571428571425
40
0.085714285714285715
40
0.10000000000000001
40
0.1142857142857143
40
0.12857142857142859
40
0.14285714285714288
40
0.15714285714285717
40
0.17142857142857146
40
0.18571428571428575
40
0.20000000000000004
40
0.21428571428571433
40
0.22857142857142862
40
0.24285714285714291
40
0.25714285714285717
40
0.27142857142857146
40
0.28571428571428575
40
0.30000000000000004
40
0.31428571428571433
40
0.32857142857142863
40
0.34285714285714292
40
0.35714285714285721
40
0.3714285714285715
40
0.38571428571428579
40
0.40000000000000008
40
0.41428571428571437
40
0.42857142857142866
40
0.44285714285714295
40
0.45714285714285724
40
0.47142857142857153
40
0.48571428571428582
40
0.50000000000000011
40
0.51428571428571435
40
0.52857142857142858
40
0.54285714285714282
40
0.55714285714285705
40
0.57142857142857129
40
0.58571428571428552
40
0.59999999999999976
40
0.61428571428571399
40
0.62857142857142823
40
0.64285714285714246
40
0.6571428571428567
40
0.67142857142857093
40
0.68571428571428517
40
0.6999999999999994
40
0.71428571428571364
40
0.72857142857142787
40
0.74285714285714211
40
0.75714285714285634
40
0.77142857142857058
40
0.78571428571428481
40
0.79999999999999905
40
0.81428571428571328
40
0.82857142857142752
40
0.84285714285714175
40
0.85714285714285599
40
0.87142857142857022
40
0.88571428571428445
40
0.89999999999999869
40
0.91428571428571292
40
0.92857142857142716
40
0.94285714285714139
40
0.95714285714285563
40
0.97142857142856986
40
0.9857142857142841
40
1
40
1
40
1
40
1
40
1
40
1
41
1
41
1
41
1
41
1
41
1
41
1
41
1
41
1
41
1
41
1
41
1
41
1
41
1
41
1
41
1
41
1
41
1
41
1
41
1
41
1
41
1
41
1
41
1
41
1
41
1
41
1
41
1
41
1
41
1
41
1
41
1
41
1
41
1
41
1
41
1
41
1
41
1
41
1
41
1
41
1
41
1
41
1
41
1
41
1
41
1
41
1
41
1
41
1
41
1
41
1
41
1
41
1
41
1
41
1
41
1
41
1
41
1
41
1
41
1
41
1
41
1
41
1
41
1
41
1
41
1
41
1
41
1
41
1
41
1
41
1
41
1
41
1
41
1
41
1
41
1
10
10.069477125500534
20
-6.8588809895363765
30
0
10
10.097457989440501
20
-6.8666874905099613
30
0
10
10.154972545405162
20
-6.8859231530208032
30
0
10
10.249403276793053
20
-6.9300570219582047
30
0
10
10.391362647303982
20
-7.0383719110896026
30
0
10
10.534480108018041
20
-7.2663851572328282
30
0
10
10.513464084559081
20
-7.5175810908023344
30
0
10
10.316005657904757
20
-7.6880750180775079
30
0
10
10.164921436989562
20
-7.7657515089411371
30
0
10
10.08406656964643
20
-7.8078850195861058
30
0
10
9.9078428000564873
20
-7.8970114065538475
30
0
10
9.6541228724655159
20
-8.0335114921476798
30
0
10
9.3502602571961031
20
-8.2000298274008969
30
0
10
9.021567163880384
20
-8.3674484861103817
30
0
10
8.666821822160367
20
-8.5246726176388083
30
0
10
8.2911559151580949
20
-8.6697461218886041
30
0
10
7.8951228403048219
20
-8.8073022182253151
30
0
10
7.4820147042119292
20
-8.942935740136484
30
0
10
7.0568411871342525
20
-9.0799678499709664
30
0
10
6.6301033145907109
20
-9.2126973773251368
30
0
10
6.2166899167396314
20
-9.3269824682407592
30
0
10
5.825295506507258
20
-9.4200462402743224
30
0
10
5.4611058838386546
20
-9.4928126438596969
30
0
10
5.1245197753895928
20
-9.5503965773598285
30
0
10
4.8116647062111335
20
-9.5991722726404891
30
0
10
4.5137475679874441
20
-9.6454755553745404
30
0
10
4.2177067414370786
20
-9.6932007309851809
30
0
10
3.9097656128015665
20
-9.7440043100454332
30
0
10
3.5915241990456361
20
-9.7963269426389754
30
0
10
3.2701081604754969
20
-9.8476330066465145
30
0
10
3.0082948047721536
20
-9.8889361440774834
30
0
10
2.8182465346928645
20
-9.9194970761471648
30
0
10
2.5962410959904418
20
-9.9505251825435064
30
0
10
2.2279149215519589
20
-9.9907915269336414
30
0
10
1.6715200707880744
20
-10.027420219856005
30
0
10
0.96183632030931177
20
-10.034211172714691
30
0
10
0.45716959319979567
20
-9.9080004593172042
30
0
10
0.41068952427556288
20
-9.6005516094718466
30
0
10
0.601141108196936
20
-9.2111923134821136
30
0
10
0.76462402652217676
20
-8.8393836292069761
30
0
10
0.65887235209888539
20
-8.5620700062728954
30
0
10
0.46205814390887046
20
-8.2690770044355748
30
0
10
0.32281841358563929
20
-7.9138834032118011
30
0
10
0.29011227709838372
20
-7.5266477095442248
30
0
10
0.37442945558411156
20
-7.1643228712862772
30
0
10
0.55076126258962699
20
-6.8896966665465325
30
0
10
0.78723007944805046
20
-6.7360852654601278
30
0
10
1.0607523411300397
20
-6.6838063332861992
30
0
10
1.3525895305573983
20
-6.6886465031100126
30
0
10
1.6493089540557082
20
-6.702034886435607
30
0
10
1.9317808522379447
20
-6.7019536852306638
30
0
10
2.1934092441467166
20
-6.7012296353916083
30
0
10
2.4735354291873297
20
-6.6998739089784198
30
0
10
2.8084966659360462
20
-6.6998036903530656
30
0
10
3.2184036714916386
20
-6.7000637315847307
30
0
10
3.6579383654100552
20
-6.7000203660873581
30
0
10
4.0317204952309327
20
-6.6994164949660435
30
0
10
4.347293098839609
20
-6.6988852813169411
30
0
10
4.6353805958245786
20
-6.6990242125000456
30
0
10
4.9341625142531509
20
-6.6998883829103661
30
0
10
5.2567275106042235
20
-6.7005453818103087
30
0
10
5.539561430480723
20
-6.6979377442719255
30
0
10
5.8043737052259017
20
-6.6912727612289178
30
0
10
6.10822937182526
20
-6.6816343802095846
30
0
10
6.5202690421700824
20
-6.6715649021088028
30
0
10
7.0785633931082668
20
-6.6656631135545785
30
0
10
7.7794232024524588
20
-6.6685214365198187
30
0
10
8.4959301909039677
20
-6.6890650462323293
30
0
10
9.0816466084559035
20
-6.7278438031126901
30
0
10
9.5049382467531043
20
-6.7721926481547809
30
0
10
9.7734051486768116
20
-6.8087020002487426
30
0
10
9.9066320831399679
20
-6.8275542233149098
30
0
10
9.9870873617658766
20
-6.8390841471796513
30
0
10
10.041496261560562
20
-6.851074488562789
30
0
10
10.069477125500534
20
-6.8588809895363765
30
0
0
LWPOLYLINE
5
106
100
AcDbEntity
8
0
100
AcDbPolyline
90
9
70
1
43
0.0
10
10.681875
20
7.1243750000000015
10
4.6818749999999998
20
7.1243750000000015
10
4.6818750000000016
20
6.3743749999999979
10
-10.556875000000002
20
6.3743749999999997
42
0.41421356237310653
10
-10.681875000000002
20
6.2493749999999997
10
-10.681875
20
-6.2493749999999979
42
0.41421356237308521
10
-10.556875000000005
20
-6.3743749999999979
10
10.556875000000002
20
-6.3743749999999979
42
0.41421356237309015
10
10.681875000000002
20
-6.249374999999997
0
SPLINE
5
107
100
AcDbEntity
8
0
100
AcDbSpline
70
6
71
5
72
131
73
125
74
0
42
0.000000001
43
0.0000000001
44
0.0000000001
40
0
40
0
40
0
40
0
40
0
40
0
40
0.0083333333333333332
40
0.016666666666666666
40
0.025000000000000001
40
0.033333333333333333
40
0.041666666666666664
40
0.049999999999999996
40
0.058333333333333327
40
0.066666666666666666
40
0.074999999999999997
40
0.083333333333333329
40
0.09166666666666666
40
0.099999999999999992
40
0.10833333333333332
40
0.11666666666666665
40
0.12499999999999999
40
0.13333333333333333
40
0.14166666666666666
40
0.14999999999999999
40
0.15833333333333333
40
0.16666666666666666
40
0.17499999999999999
40
0.18333333333333332
40
0.19166666666666665
40
0.19999999999999998
40
0.20833333333333331
40
0.21666666666666665
40
0.22499999999999998
40
0.23333333333333331
40
0.24166666666666664
40
0.24999999999999997
40
0.2583333333333333
40
0.26666666666666666
40
0.27500000000000002
40
0.28333333333333338
40
0.29166666666666674
40
0.3000000000000001
40
0.30833333333333346
40
0.31666666666666682
40
0.32500000000000018
40
0.33333333333333354
40
0.3416666666666669
40
0.35000000000000026
40
0.35833333333333361
40
0.36666666666666697
40
0.37500000000000033
40
0.38333333333333369
40
0.39166666666666705
40
0.40000000000000041
40
0.40833333333333377
40
0.41666666666666713
40
0.42500000000000049
40
0.43333333333333385
40
0.44166666666666721
40
0.45000000000000057
40
0.45833333333333393
40
0.46666666666666728
40
0.47500000000000064
40
0.483333333333334
40
0.49166666666666736
40
0.50000000000000067
40
0.50833333333333397
40
0.51666666666666727
40
0.52500000000000058
40
0.53333333333333388
40
0.54166666666666718
40
0.55000000000000049
40
0.55833333333333379
40
0.5666666666666671
40
0.5750000000000004
40
0.5833333333333337
40
0.59166666666666701
40
0.60000000000000031
40
0.60833333333333361
40
0.61666666666666692
40
0.62500000000000022
40
0.63333333333333353
40
0.64166666666666683
40
0.65000000000000013
40
0.65833333333333344
40
0.66666666666666674
40
0.67500000000000004
40
0.68333333333333335
40
0.69166666666666665
40
0.69999999999999996
40
0.70833333333333326
40
0.71666666666666656
40
0.72499999999999987
40
0.73333333333333317
40
0.74166666666666647
40
0.74999999999999978
40
0.75833333333333308
40
0.76666666666666639
40
0.77499999999999969
40
0.78333333333333299
40
0.7916666666666663
40
0.7999999999999996
40
0.8083333333333329
40
0.81666666666666621
40
0.82499999999999951
40
0.83333333333333282
40
0.84166666666666612
40
0.84999999999999942
40
0.85833333333333273
40
0.86666666666666603
40
0.87499999999999933
40
0.88333333333333264
40
0.89166666666666594
40
0.89999999999999925
40
0.90833333333333255
40
0.91666666666666585
40
0.92499999999999916
40
0.93333333333333246
40
0.94166666666666576
40
0.94999999999999907
40
0.95833333333333237
40
0.96666666666666567
40
0.97499999999999898
40
0.98333333333333228
40
0.99166666666666559
40
1
40
1
40
1
40
1
40
1
40
1
41
1
41
1
41
1
41
1
41
1
41
1
41
1
41
1
41
1
41
1
41
1
41
1
41
1
41
1
41
1
41
1
41
1
41
1
41
1
41
1
41
1
41
1
41
1
41
1
41
1
41
1
41
1
41
1
41
1
41
1
41
1
41
1
41
1
41
1
41
1
41
1
41
1
41
1
41
1
41
1
41
1
41
1
41
1
41
1
41
1
41
1
41
1
41
1
41
1
41
1
41
1
41
1
41
1
41
1
41
1
41
1
41
1
41
1
41
1
41
1
41
1
41
1
41
1
41
1
41
1
41
1
41
1
41
1
41
1
41
1
41
1
41
1
41
1
41
1
41
1
41
1
41
1
41
1
41
1
41
1
41
1
41
1
41
1
41
1
41
1
41
1
41
1
41
1
41
1
41
1
41
1
41
1
41
1
41
1
41
1
41
1
41
1
41
1
41
1
41
1
41
1
41
1
41
1
41
1
41
1
41
1
41
1
41
1
41
1
41
1
41
1
41
1
41
1
41
1
41
1
41
1
41
1
41
1
41
1
41
1
41
1
41
1
41
1
41
1
41
1
10
12.900000411694442
20
6.200000197868647
30
0
10
12.959566252243775
20
6.157680980852029
30
0
10
13.075797045894932
20
6.0718544084048656
30
0
10
13.242232004528951
20
5.9407436448401905
30
0
10
13.456552260650488
20
5.7613463218355436
30
0
10
13.715114525493854
20
5.5352634656480157
30
0
10
13.96746446400237
20
5.3088311314108774
30
0
10
14.211567928250325
20
5.0835167004481958
30
0
10
14.44463405372276
20
4.8591258378816775
30
0
10
14.663385061349551
20
4.634729666005307
30
0
10
14.866372694949389
20
4.4084398488553154
30
0
10
15.053738915317036
20
4.1779582461532883
30
0
10
15.226683850394199
20
3.9410149114184927
30
0
10
15.386990584476262
20
3.6958827259977518
30
0
10
15.536546667147327
20
3.4418159150688048
30
0
10
15.676823310757797
20
3.1796248752586034
30
0
10
15.808508664655335
20
2.9118710802653878
30
0
10
15.931691424104782
20
2.6417366459819669
30
0
10
16.045954305555714
20
2.372134927147501
30
0
10
16.150502527727529
20
2.1046727777103644
30
0
10
16.24427757434032
20
1.8387997038983106
30
0
10
16.326076142603569
20
1.5705521104883833
30
0
10
16.394673006841309
20
1.2941274068019739
30
0
10
16.448943834498742
20
1.0039777280356978
30
0
10
16.487992816802663
20
0.69685997119032983
30
0
10
16.511267475216421
20
0.37360128402750747
30
0
10
16.518705631612082
20
0.041726018830904356
30
0
10
16.510775443082387
20
-0.28488662018931815
30
0
10
16.488348667312401
20
-0.59103439367064092
30
0
10
16.45261283207541
20
-0.86409245553327751
30
0
10
16.404968932639683
20
-1.0984286185401622
30
0
10
16.346932974067055
20
-1.2994654756265496
30
0
10
16.280043708718345
20
-1.4882860750844606
30
0
10
16.205363928953535
20
-1.6914382445510832
30
0
10
16.122924352041746
20
-1.9294836348101458
30
0
10
16.031264570564041
20
-2.2072524976108441
30
0
10
15.926740029748649
20
-2.5002218416357609
30
0
10
15.804248499741142
20
-2.7644342474852972
30
0
10
15.65835548048193
20
-2.9534567903782949
30
0
10
15.48430019282419
20
-3.0324428367621219
30
0
10
15.279018295399299
20
-2.9946221350252209
30
0
10
15.042246859264411
20
-2.8732573210272014
30
0
10
14.778044574975338
20
-2.7235618058460473
30
0
10
14.496478611110719
20
-2.6069469853296843
30
0
10
14.214825650130949
20
-2.5754927556701599
30
0
10
13.959987805511222
20
-2.653701041475335
30
0
10
13.767118010168209
20
-2.8298769478885188
30
0
10
13.668095470404861
20
-3.0729764701022044
30
0
10
13.682452062056107
20
-3.3441598499607674
30
0
10
13.806212155943143
20
-3.611313372785506
30
0
10
14.00486814147888
20
-3.8597466363476118
30
0
10
14.227391290508049
20
-4.0865928394916056
30
0
10
14.417733631639843
20
-4.2970795589956676
30
0
10
14.527282724730888
20
-4.500088268358966
30
0
10
14.526938509958592
20
-4.7040154809186276
30
0
10
14.41929686626483
20
-4.912513033251086
30
0
10
14.228245651309319
20
-5.1256348096493554
30
0
10
13.98836216848861
20
-5.3409709207136524
30
0
10
13.734910799403689
20
-5.5547484249968866
30
0
10
13.492365731842378
20
-5.7630349043661511
30
0
10
13.267400489089193
20
-5.9626173017252544
30
0
10
13.05585497579418
20
-6.1508729759573049
30
0
10
12.847243155850888
20
-6.3258045789159656
30
0
10
12.63032988875807
20
-6.4860316424799267
30
0
10
12.398010138366285
20
-6.630752092673613
30
0
10
12.153130912925779
20
-6.7598524126613224
30
0
10
11.905880951818316
20
-6.8719158632966684
30
0
10
11.670145680574413
20
-6.9617236121635253
30
0
10
11.460301381866532
20
-7.0183923424353596
30
0
10
11.287658398964666
20
-7.0221907576063058
30
0
10
11.157555995986566
20
-6.9448908792894555
30
0
10
11.070106294138723
20
-6.7654105999027321
30
0
10
11.020317004246184
20
-6.486871870869102
30
0
10
10.998993118910196
20
-6.1441844073288152
30
0
10
10.99516353276033
20
-5.7847464464094873
30
0
10
10.998355163533803
20
-5.4526044029279781
30
0
10
11.00069323056772
20
-5.1745036878278778
30
0
10
10.999601716244685
20
-4.9377394039914808
30
0
10
10.999206368412169
20
-4.6869887512452113
30
0
10
10.999497571992038
20
-4.4396522727021024
30
0
10
11.000079891040878
20
-4.2162901998507971
30
0
10
11.000006980563706
20
-4.0320299834877709
30
0
10
10.999852493487916
20
-3.830142923335373
30
0
10
10.999854710158774
20
-3.5935570375036701
30
0
10
10.999959686617355
20
-3.3285526014236275
30
0
10
11.000025817702182
20
-3.0481534153103667
30
0
10
10.999981623151323
20
-2.7410486587614189
30
0
10
10.999913126427547
20
-2.38602278826869
30
0
10
10.99986168902613
20
-2.0084726286916736
30
0
10
10.999869727049418
20
-1.6416359075983202
30
0
10
10.999935092146259
20
-1.317209565921839
30
0
10
11.000022797575813
20
-1.0489000997776805
30
0
10
11.00000767507996
20
-0.80691785321521414
30
0
10
10.999754000121392
20
-0.52528809947720179
30
0
10
10.999359284574394
20
-0.18533674471096526
30
0
10
10.998991395224959
20
0.21590648357627643
30
0
10
10.998854539314461
20
0.66227497540739455
30
0
10
10.99909292469286
20
1.1291643842549615
30
0
10
10.999741958618459
20
1.5889568077442062
30
0
10
11.000610694198436
20
2.016872049352961
30
0
10
11.001303847606051
20
2.4010616639587226
30
0
10
11.001726440214968
20
2.7505334507935699
30
0
10
11.001822400639522
20
3.0811949561212377
30
0
10
11.001637737607284
20
3.4108063298304003
30
0
10
11.001013668431847
20
3.7448527812503216
30
0
10
10.999986335611563
20
4.0788325032114763
30
0
10
10.99755171228796
20
4.3629403100111706
30
0
10
10.995639436933565
20
4.5889091477256727
30
0
10
10.99644814860104
20
4.7918876865965956
30
0
10
11.000677563784295
20
5.0135463688445556
30
0
10
11.001194717037242
20
5.2844782635313923
30
0
10
10.988147285092996
20
5.5907579219660661
30
0
10
10.985086197501312
20
5.882400969415948
30
0
10
11.018369819875323
20
6.1082553130360093
30
0
10
11.108828310698188
20
6.2364584522339435
30
0
10
11.245660277122834
20
6.29516155335945
30
0
10
11.390517121371218
20
6.366977607207934
30
0
10
11.509304614010961
20
6.5247997612269142
30
0
10
11.673202409000098
20
6.6629941351008801
30
0
10
11.930556270978759
20
6.6820284974365096
30
0
10
12.25204494126155
20
6.587838823001233
30
0
10
12.525859056937289
20
6.4461872283439199
30
0
10
12.718402002599705
20
6.3257697105049777
30
0
10
12.840434571145103
20
6.2423194148852703
30
0
10
12.900000411694442
20
6.200000197868647
30
0
0
SPLINE
5
108
100
AcDbEntity
8
0
100
AcDbSpline
70
4
71
5
72
71
73
65
74
0
42
0.000000001
43
0.0000000001
44
0.0000000001
40
0
40
0
40
0
40
0
40
0
40
0
40
0.016666666666666666
40
0.033333333333333333
40
0.050000000000000003
40
0.066666666666666666
40
0.083333333333333329
40
0.099999999999999992
40
0.11666666666666665
40
0.13333333333333333
40
0.14999999999999999
40
0.16666666666666666
40
0.18333333333333332
40
0.19999999999999998
40
0.21666666666666665
40
0.23333333333333331
40
0.24999999999999997
40
0.26666666666666666
40
0.28333333333333333
40
0.29999999999999999
40
0.31666666666666665
40
0.33333333333333331
40
0.34999999999999998
40
0.36666666666666664
40
0.3833333333333333
40
0.39999999999999997
40
0.41666666666666663
40
0.43333333333333329
40
0.44999999999999996
40
0.46666666666666662
40
0.48333333333333328
40
0.49999999999999994
40
0.51666666666666661
40
0.53333333333333333
40
0.55000000000000004
40
0.56666666666666676
40
0.58333333333333348
40
0.6000000000000002
40
0.61666666666666692
40
0.63333333333333364
40
0.65000000000000036
40
0.66666666666666707
40
0.68333333333333379
40
0.70000000000000051
40
0.71666666666666723
40
0.73333333333333395
40
0.75000000000000067
40
0.76666666666666738
40
0.7833333333333341
40
0.80000000000000082
40
0.81666666666666754
40
0.83333333333333426
40
0.85000000000000098
40
0.8666666666666677
40
0.88333333333333441
40
0.90000000000000113
40
0.91666666666666785
40
0.93333333333333457
40
0.95000000000000129
40
0.96666666666666801
40
0.98333333333333472
40
0.98997928217660813
40
0.98997928217660813
40
0.98997928217660813
40
0.98997928217660813
40
0.98997928217660813
40
0.98997928217660813
41
1
41
1
41
1
41
1
41
1
41
1
41
1
41
1
41
1
41
1
41
1
41
1
41
1
41
1
41
1
41
1
41
1
41
1
41
1
41
1
41
1
41
1
41
1
41
1
41
1
41
1
41
1
41
1
41
1
41
1
41
1
41
1
41
1
41
1
41
1
41
1
41
1
41
1
41
1
41
1
41
1
41
1
41
1
41
1
41
1
41
1
41
1
41
1
41
1
41
1
41
1
41
1
41
1
41
1
41
1
41
1
41
1
41
1
41
1
41
1
41
1
41
1
41
1
41
1
41
1
10
-3.7694793289587747e-11
20
6.6814343817357047
30
0
10
-0.049346983411352414
20
6.6810599770319401
30
0
10
-0.14777088109624098
20
6.6805686804883742
30
0
10
-0.29457821725234373
20
6.6806051825097086
30
0
10
-0.4888222605093186
20
6.6821935706537898
30
0
10
-0.73066879949722074
20
6.686578779743046
30
0
10
-0.97914241367323085
20
6.6927103459118324
30
0
10
-1.2442377439182488
20
6.6995330140766622
30
0
10
-1.5537516355211114
20
6.704729998003879
30
0
10
-1.9219368154512186
20
6.7061805944735786
30
0
10
-2.3037209149592117
20
6.7047186575138369
30
0
10
-2.6433820463524684
20
6.7020464214208628
30
0
10
-2.8999500068396182
20
6.7000238181029275
30
0
10
-3.0649117141794964
20
6.6998715453118773
30
0
10
-3.2236526002242263
20
6.7002817027893125
30
0
10
-3.5007470529425899
20
6.6987187592782087
30
0
10
-3.8463131730666884
20
6.6969519556085704
30
0
10
-4.1762771589392242
20
6.6970323738408526
30
0
10
-4.4176920411509535
20
6.6993952883281045
30
0
10
-4.5617633682958587
20
6.7019189653156772
30
0
10
-4.7980390768426675
20
6.6935698955674798
30
0
10
-5.0598747854312434
20
6.6858400972319911
30
0
10
-5.2290836748987379
20
6.691374827270038
30
0
10
-5.2665833962983166
20
6.710576335293827
30
0
10
-5.4349404697357686
20
6.7068283497872514
30
0
10
-5.7313733380891607
20
6.6998258422182166
30
0
10
-6.0661694594536471
20
6.7228044571096746
30
0
10
-6.3109062257707249
20
6.8088261991217331
30
0
10
-6.4340079134635673
20
6.9509216713093016
30
0
10
-6.504423170706465
20
7.1104215171266887
30
0
10
-6.5224455433266737
20
7.2822117732999621
30
0
10
-6.494943291313211
20
7.4644025587590237
30
0
10
-6.4344603157137961
20
7.658244358681352
30
0
10
-6.3772573214274875
20
7.8592272739615332
30
0
10
-6.3591273483347646
20
8.0618377573675968
30
0
10
-6.4049545710036453
20
8.2599831837070052
30
0
10
-6.5095543405733469
20
8.4494890095133908
30
0
10
-6.6319126515726996
20
8.6288561797402981
30
0
10
-6.7174746396981453
20
8.7978068876163817
30
0
10
-6.7138679383783737
20
8.956290142736993
30
0
10
-6.592130555818196
20
9.1030769495826576
30
0
10
-6.3559855886373944
20
9.2353259089861961
30
0
10
-6.030210963176752
20
9.3501630225761616
30
0
10
-5.652954507877161
20
9.4455488548201583
30
0
10
-5.2675833255848419
20
9.5220349138815834
30
0
10
-4.9122623745151124
20
9.5827550599722962
30
0
10
-4.6166710702692475
20
9.6376042408760529
30
0
10
-4.3713435820658351
20
9.6927195158353641
30
0
10
-4.1423649088726382
20
9.7496537034987192
30
0
10
-3.887368104781741
20
9.8075193471069824
30
0
10
-3.5745109832664044
20
9.8639503465787808
30
0
10
-3.1914336586745859
20
9.9162917261877919
30
0
10
-2.7802927572323108
20
9.9633786573230552
30
0
10
-2.3759760793726006
20
10.004396497373083
30
0
10
-1.9969785067905883
20
10.038546594620566
30
0
10
-1.6531437818644836
20
10.06534015314417
30
0
10
-1.3459065660004232
20
10.084616331712532
30
0
10
-1.0717963236996384
20
10.096690121564697
30
0
10
-0.82442901881076291
20
10.102421379124971
30
0
10
-0.59737272557331378
20
10.103376644321068
30
0
10
-0.4113207913390074
20
10.101959308328581
30
0
10
-0.2746139627550922
20
10.100679281468246
30
0
10
-0.18119102261623288
20
10.100093347188817
30
0
10
-0.12770802963098124
20
10.099908554330408
30
0
10
-0.11254104810925988
20
10.099869499372428
30
0
0
LINE
5
109
100
AcDbEntity
8
0
100
AcDbLine
10
-0.11254104810925988
20
10.099869499372428
30
0
11
0.00017257649730653099
21
10.104253605620942
31
0
0
LINE
5
110
100
AcDbEntity
8
0
100
AcDbLine
10
0.00017257649730653099
20
10.104253605620942
30
0
11
0.1165046758993744
21
10.104253605620942
31
0
0
SPLINE
5
111
100
AcDbEntity
8
0
100
AcDbSpline
70
4
71
5
72
66
73
60
74
0
42
0.000000001
43
0.0000000001
44
0.0000000001
40
-1
40
-1
40
-1
40
-1
40
-1
40
-1
40
-0.98181818181818203
40
-0.96363636363636385
40
-0.94545454545454566
40
-0.92727272727272747
40
-0.90909090909090928
40
-0.89090909090909109
40
-0.87272727272727291
40
-0.85454545454545472
40
-0.83636363636363653
40
-0.81818181818181834
40
-0.80000000000000016
40
-0.78181818181818197
40
-0.76363636363636378
40
-0.74545454545454559
40
-0.7272727272727274
40
-0.70909090909090922
40
-0.69090909090909103
40
-0.67272727272727284
40
-0.65454545454545465
40
-0.63636363636363646
40
-0.61818181818181828
40
-0.60000000000000009
40
-0.5818181818181819
40
-0.56363636363636371
40
-0.54545454545454553
40
-0.52727272727272734
40
-0.50909090909090915
40
-0.49090909090909102
40
-0.47272727272727283
40
-0.45454545454545464
40
-0.43636363636363645
40
-0.41818181818181827
40
-0.40000000000000008
40
-0.38181818181818189
40
-0.3636363636363637
40
-0.34545454545454551
40
-0.32727272727272733
40
-0.30909090909090914
40
-0.29090909090909095
40
-0.27272727272727276
40
-0.25454545454545457
40
-0.23636363636363641
40
-0.21818181818181823
40
-0.20000000000000004
40
-0.18181818181818185
40
-0.16363636363636366
40
-0.14545454545454548
40
-0.12727272727272729
40
-0.1090909090909091
40
-0.090909090909090912
40
-0.072727272727272724
40
-0.054545454545454543
40
-0.036363636363636362
40
-0.018181818181818181
40
-3.5984682734609616e-06
40
-3.5984682734609616e-06
40
-3.5984682734609616e-06
40
-3.5984682734609616e-06
40
-3.5984682734609616e-06
40
-3.5984682734609616e-06
41
1
41
1
41
1
41
1
41
1
41
1
41
1
41
1
41
1
41
1
41
1
41
1
41
1
41
1
41
1
41
1
41
1
41
1
41
1
41
1
41
1
41
1
41
1
41
1
41
1
41
1
41
1
41
1
41
1
41
1
41
1
41
1
41
1
41
1
41
1
41
1
41
1
41
1
41
1
41
1
41
1
41
1
41
1
41
1
41
1
41
1
41
1
41
1
41
1
41
1
41
1
41
1
41
1
41
1
41
1
41
1
41
1
41
1
41
1
41
1
10
0.1165046758993744
20
10.104253605620942
30
0
10
0.15071465159593289
20
10.105260309634046
30
0
10
0.22008871675216407
20
10.106991132671208
30
0
10
0.32701233979603467
20
10.108739610886866
30
0
10
0.47591364939328479
20
10.109340892952675
30
0
10
0.67653572969267195
20
10.10694316207762
30
0
10
0.8973019909229063
20
10.100943345667023
30
0
10
1.1449698191819127
20
10.090693987342398
30
0
10
1.4266120418064532
20
10.075346347977725
30
0
10
1.7475806059158718
20
10.054011646744501
30
0
10
2.1086175209146272
20
10.025914441086808
30
0
10
2.5049774020120217
20
9.9905596950367457
30
0
10
2.9208325364654977
20
9.9478709683829862
30
0
10
3.3346239057945617
20
9.8983971030837612
30
0
10
3.6983971881970659
20
9.8433599666575873
30
0
10
3.9900072474896566
20
9.7851466896970614
30
0
10
4.2338428770496348
20
9.7264900620853663
30
0
10
4.4688086336433255
20
9.6695241735728708
30
0
10
4.7331483732758706
20
9.61454493420751
30
0
10
5.049969586543912
20
9.5596738456555688
30
0
10
5.393631176100226
20
9.4982576426056937
30
0
10
5.7222714685156806
20
9.4230059409481726
30
0
10
6.0071561174453958
20
9.3288469573506596
30
0
10
6.224709060974118
20
9.2121411418337011
30
0
10
6.3636895077471296
20
9.0713430402857522
30
0
10
6.4252170082134956
20
8.9070556572569632
30
0
10
6.4277203793525839
20
8.7223336799274591
30
0
10
6.3993598221535049
20
8.5230644729089722
30
0
10
6.3656037439106905
20
8.3186691662904142
30
0
10
6.339323179349627
20
8.1223824011282701
30
0
10
6.3072977464520044
20
7.9525036576009418
30
0
10
6.2435336969223032
20
7.8260335489781232
30
0
10
6.1243489712851789
20
7.7523865724364294
30
0
10
5.9467320329016049
20
7.7247084864696332
30
0
10
5.7274266026371219
20
7.723109861391368
30
0
10
5.4888718207521663
20
7.7261564911339899
30
0
10
5.250431341735962
20
7.7185578130515005
30
0
10
5.0143896514883437
20
7.7035347420208167
30
0
10
4.7692930165389793
20
7.6979362899794124
30
0
10
4.5134718017882083
20
7.7073066526976035
30
0
10
4.2601938851846768
20
7.7187133417402212
30
0
10
4.0777804191841662
20
7.6601349789910911
30
0
10
4.052194402596732
20
7.4336387674090556
30
0
10
4.0717460426215624
20
7.1280484889625315
30
0
10
4.0094469567443625
20
6.8560693297594026
30
0
10
3.7517105346832516
20
6.7282890724840962
30
0
10
3.3838729169215562
20
6.7008492216317546
30
0
10
3.0035323730795946
20
6.7053303477187187
30
0
10
2.6359010205962132
20
6.7171979303279539
30
0
10
2.2886964298235331
20
6.7205154317588374
30
0
10
1.9478547962984427
20
6.7152658153000138
30
0
10
1.6035571499962069
20
6.7057469293534409
30
0
10
1.2515160956486784
20
6.6987955757950628
30
0
10
0.9329719504939048
20
6.6937903842486595
30
0
10
0.67175990431097399
20
6.6884593352019168
30
0
10
0.45013138986427587
20
6.6836733535317263
30
0
10
0.28153228270837788
20
6.6811595371636496
30
0
10
0.14604142176267823
20
6.6806828111707013
30
0
10
0.049730710698051885
20
6.6810786902234209
30
0
10
8.0185908129419312e-05
20
6.6814554921529954
30
0
0
LINE
5
112
100
AcDbEntity
8
0
100
AcDbLine
10
8.0185908129387789e-05
20
6.6814554921529954
30
0
11
-3.7694793289587747e-11
21
6.6814343817357047
31
0
0
SPLINE
5
113
100
AcDbEntity
8
0
100
AcDbSpline
70
6
71
5
72
81
73
75
74
0
42
0.000000001
43
0.0000000001
44
0.0000000001
40
-1
40
-1
40
-1
40
-1
40
-1
40
-1
40
-0.9857142857142841
40
-0.97142857142856986
40
-0.95714285714285563
40
-0.94285714285714139
40
-0.92857142857142716
40
-0.91428571428571292
40
-0.89999999999999869
40
-0.88571428571428445
40
-0.87142857142857022
40
-0.85714285714285599
40
-0.84285714285714175
40
-0.82857142857142752
40
-0.81428571428571328
40
-0.79999999999999905
40
-0.78571428571428481
40
-0.77142857142857058
40
-0.75714285714285634
40
-0.74285714285714211
40
-0.72857142857142787
40
-0.71428571428571364
40
-0.6999999999999994
40
-0.68571428571428517
40
-0.67142857142857093
40
-0.6571428571428567
40
-0.64285714285714246
40
-0.62857142857142823
40
-0.61428571428571399
40
-0.59999999999999976
40
-0.58571428571428552
40
-0.57142857142857129
40
-0.55714285714285705
40
-0.54285714285714282
40
-0.52857142857142858
40
-0.51428571428571435
40
-0.50000000000000011
40
-0.48571428571428582
40
-0.47142857142857153
40
-0.45714285714285724
40
-0.44285714285714295
40
-0.42857142857142866
40
-0.41428571428571437
40
-0.40000000000000008
40
-0.38571428571428579
40
-0.3714285714285715
40
-0.35714285714285721
40
-0.34285714285714292
40
-0.32857142857142863
40
-0.31428571428571433
40
-0.30000000000000004
40
-0.28571428571428575
40
-0.27142857142857146
40
-0.25714285714285717
40
-0.24285714285714291
40
-0.22857142857142862
40
-0.21428571428571433
40
-0.20000000000000004
40
-0.18571428571428575
40
-0.17142857142857146
40
-0.15714285714285717
40
-0.14285714285714288
40
-0.12857142857142859
40
-0.1142857142857143
40
-0.10000000000000001
40
-0.085714285714285715
40
-0.071428571428571425
40
-0.057142857142857141
40
-0.042857142857142858
40
-0.028571428571428571
40
-0.014285714285714285
40
0
40
0
40
0
40
0
40
0
40
0
41
1
41
1
41
1
41
1
41
1
41
1
41
1
41
1
41
1
41
1
41
1
41
1
41
1
41
1
41
1
41
1
41
1
41
1
41
1
41
1
41
1
41
1
41
1
41
1
41
1
41
1
41
1
41
1
41
1
41
1
41
1
41
1
41
1
41
1
41
1
41
1
41
1
41
1
41
1
41
1
41
1
41
1
41
1
41
1
41
1
41
1
41
1
41
1
41
1
41
1
41
1
41
1
41
1
41
1
41
1
41
1
41
1
41
1
41
1
41
1
41
1
41
1
41
1
41
1
41
1
41
1
41
1
41
1
41
1
41
1
41
1
41
1
41
1
41
1
41
1
10
-10.069477125500534
20
-6.8588809895363765
30
0
10
-10.041496261560562
20
-6.851074488562789
30
0
10
-9.9870873617658766
20
-6.8390841471796513
30
0
10
-9.9066320831399679
20
-6.8275542233149098
30
0
10
-9.7734051486768116
20
-6.8087020002487426
30
0
10
-9.5049382467531043
20
-6.7721926481547809
30
0
10
-9.0816466084559035
20
-6.7278438031126901
30
0
10
-8.4959301909039677
20
-6.6890650462323293
30
0
10
-7.7794232024524588
20
-6.6685214365198187
30
0
10
-7.0785633931082668
20
-6.6656631135545785
30
0
10
-6.5202690421700824
20
-6.6715649021088028
30
0
10
-6.10822937182526
20
-6.6816343802095846
30
0
10
-5.8043737052259017
20
-6.6912727612289178
30
0
10
-5.539561430480723
20
-6.6979377442719255
30
0
10
-5.2567275106042235
20
-6.7005453818103087
30
0
10
-4.9341625142531509
20
-6.6998883829103661
30
0
10
-4.6353805958245786
20
-6.6990242125000456
30
0
10
-4.347293098839609
20
-6.6988852813169411
30
0
10
-4.0317204952309327
20
-6.6994164949660435
30
0
10
-3.6579383654100552
20
-6.7000203660873581
30
0
10
-3.2184036714916386
20
-6.7000637315847307
30
0
10
-2.8084966659360462
20
-6.6998036903530656
30
0
10
-2.4735354291873297
20
-6.6998739089784198
30
0
10
-2.1934092441467166
20
-6.7012296353916083
30
0
10
-1.9317808522379447
20
-6.7019536852306638
30
0
10
-1.6493089540557082
20
-6.702034886435607
30
0
10
-1.3525895305573983
20
-6.6886465031100126
30
0
10
-1.0607523411300397
20
-6.6838063332861992
30
0
10
-0.78723007944805046
20
-6.7360852654601278
30
0
10
-0.55076126258962699
20
-6.8896966665465325
30
0
10
-0.37442945558411156
20
-7.1643228712862772
30
0
10
-0.29011227709838372
20
-7.5266477095442248
30
0
10
-0.32281841358563929
20
-7.9138834032118011
30
0
10
-0.46205814390887046
20
-8.2690770044355748
30
0
10
-0.65887235209888539
20
-8.5620700062728954
30
0
10
-0.76462402652217676
20
-8.8393836292069761
30
0
10
-0.601141108196936
20
-9.2111923134821136
30
0
10
-0.41068952427556288
20
-9.6005516094718466
30
0
10
-0.45716959319979567
20
-9.9080004593172042
30
0
10
-0.96183632030931177
20
-10.034211172714691
30
0
10
-1.6715200707880744
20
-10.027420219856005
30
0
10
-2.2279149215519589
20
-9.9907915269336414
30
0
10
-2.5962410959904418
20
-9.9505251825435064
30
0
10
-2.8182465346928645
20
-9.9194970761471648
30
0
10
-3.0082948047721536
20
-9.8889361440774834
30
0
10
-3.2701081604754969
20
-9.8476330066465145
30
0
10
-3.5915241990456361
20
-9.7963269426389754
30
0
10
-3.9097656128015665
20
-9.7440043100454332
30
0
10
-4.2177067414370786
20
-9.6932007309851809
30
0
10
-4.5137475679874441
20
-9.6454755553745404
30
0
10
-4.8116647062111335
20
-9.5991722726404891
30
0
10
-5.1245197753895928
20
-9.5503965773598285
30
0
10
-5.4611058838386546
20
-9.4928126438596969
30
0
10
-5.825295506507258
20
-9.4200462402743224
30
0
10
-6.2166899167396314
20
-9.3269824682407592
30
0
10
-6.6301033145907109
20
-9.2126973773251368
30
0
10
-7.0568411871342525
20
-9.0799678499709664
30
0
10
-7.4820147042119292
20
-8.942935740136484
30
0
10
-7.8951228403048219
20
-8.8073022182253151
30
0
10
-8.2911559151580949
20
-8.6697461218886041
30
0
10
-8.666821822160367
20
-8.5246726176388083
30
0
10
-9.021567163880384
20
-8.3674484861103817
30
0
10
-9.3502602571961031
20
-8.2000298274008969
30
0
10
-9.6541228724655159
20
-8.0335114921476798
30
0
10
-9.9078428000564873
20
-7.8970114065538475
30
0
10
-10.08406656964643
20
-7.8078850195861058
30
0
10
-10.164921436989562
20
-7.7657515089411371
30
0
10
-10.316005657904757
20
-7.6880750180775079
30
0
10
-10.513464084559081
20
-7.5175810908023344
30
0
10
-10.534480108018041
20
-7.2663851572328282
30
0
10
-10.391362647303982
20
-7.0383719110896026
30
0
10
-10.249403276793053
20
-6.9300570219582047
30
0
10
-10.154972545405162
20
-6.8859231530208032
30
0
10
-10.097457989440501
20
-6.8666874905099613
30
0
10
-10.069477125500534
20
-6.8588809895363765
30
0
0
CIRCLE
5
114
100
AcDbEntity
8
0
100
AcDbCircle
10
-14.399999825973209
20
-3.24999996072312
30
0
40
0.19500000000000009
210
0
220
0
230
1
0
SPLINE
5
115
100
AcDbEntity
8
0
100
AcDbSpline
70
6
71
5
72
56
73
50
74
0
42
0.000000001
43
0.0000000001
44
0.0000000001
40
0
40
0
40
0
40
0
40
0
40
0
40
0.022222222222222223
40
0.044444444444444446
40
0.066666666666666666
40
0.088888888888888892
40
0.11111111111111112
40
0.13333333333333333
40
0.15555555555555556
40
0.17777777777777778
40
0.20000000000000001
40
0.22222222222222224
40
0.24444444444444446
40
0.26666666666666666
40
0.28888888888888886
40
0.31111111111111106
40
0.33333333333333326
40
0.35555555555555546
40
0.37777777777777766
40
0.39999999999999986
40
0.42222222222222205
40
0.44444444444444425
40
0.46666666666666645
40
0.48888888888888865
40
0.51111111111111085
40
0.5333333333333331
40
0.55555555555555536
40
0.57777777777777761
40
0.59999999999999987
40
0.62222222222222212
40
0.64444444444444438
40
0.66666666666666663
40
0.68888888888888888
40
0.71111111111111114
40
0.73333333333333339
40
0.75555555555555565
40
0.7777777777777779
40
0.80000000000000016
40
0.82222222222222241
40
0.84444444444444466
40
0.86666666666666692
40
0.88888888888888917
40
0.91111111111111143
40
0.93333333333333368
40
0.95555555555555594
40
0.97777777777777819
40
1
40
1
40
1
40
1
40
1
40
1
41
1
41
1
41
1
41
1
41
1
41
1
41
1
41
1
41
1
41
1
41
1
41
1
41
1
41
1
41
1
41
1
41
1
41
1
41
1
41
1
41
1
41
1
41
1
41
1
41
1
41
1
41
1
41
1
41
1
41
1
41
1
41
1
41
1
41
1
41
1
41
1
41
1
41
1
41
1
41
1
41
1
41
1
41
1
41
1
41
1
41
1
41
1
41
1
41
1
41
1
10
-7.7000002457400951
20
8.700000277654393
30
0
10
-7.6653037783718165
20
8.7000002776543912
30
0
10
-7.6038699057364392
20
8.6928934639818962
30
0
10
-7.5407463724999673
20
8.6569382882551604
30
0
10
-7.5275645002045666
20
8.5468103268411202
30
0
10
-7.5749879610506561
20
8.3332305468606958
30
0
10
-7.6161171343757328
20
8.0860995940217162
30
0
10
-7.5923909069409063
20
7.8486901922190375
30
0
10
-7.5004659060241154
20
7.6405596775415159
30
0
10
-7.3701208391783686
20
7.4661243809503279
30
0
10
-7.2480363401798877
20
7.3198033077703482
30
0
10
-7.1794067899721048
20
7.1924918912767106
30
0
10
-7.1901272600468413
20
7.0775472278121354
30
0
10
-7.2697201864071532
20
6.9766976066727304
30
0
10
-7.3919151463431945
20
6.8954293996726062
30
0
10
-7.5337822238746197
20
6.8388025316347241
30
0
10
-7.695813340883058
20
6.8069917850751036
30
0
10
-7.8902999531812918
20
6.7963375128316192
30
0
10
-8.1282831470404577
20
6.8003440551003518
30
0
10
-8.4087328308683187
20
6.8109408858399618
30
0
10
-8.7029831478459592
20
6.8190594495149153
30
0
10
-8.9481277583367813
20
6.8166852338887622
30
0
10
-9.1418093536829623
20
6.805849365383362
30
0
10
-9.3039827763288354
20
6.7933517264660317
30
0
10
-9.4696497121780574
20
6.788901683312929
30
0
10
-9.670433757435859
20
6.8020739078317929
30
0
10
-9.9181366060193774
20
6.8393489408536583
30
0
10
-10.197092592629959
20
6.9025808598395084
30
0
10
-10.476313062705108
20
6.9904123561009355
30
0
10
-10.716687288260026
20
7.0989732769823792
30
0
10
-10.880494687917935
20
7.2228769393219849
30
0
10
-10.939129150569395
20
7.3560395462025276
30
0
10
-10.883563993641429
20
7.4926752475470266
30
0
10
-10.726622373443767
20
7.6278389022994189
30
0
10
-10.494262584642877
20
7.7573925716641448
30
0
10
-10.219673402183952
20
7.8781146324682991
30
0
10
-9.9361224708534799
20
7.9877545527523965
30
0
10
-9.6706820977950585
20
8.0851141640743176
30
0
10
-9.436679241875007
20
8.1701241361705783
30
0
10
-9.2356413120549394
20
8.2438099878950002
30
0
10
-9.0607911408398838
20
8.3081571013603899
30
0
10
-8.899833525001787
20
8.3661675809342526
30
0
10
-8.7383249249238357
20
8.4214975320132943
30
0
10
-8.5620594154184957
20
8.4790923159321974
30
0
10
-8.3617816686635589
20
8.5429437401411494
30
0
10
-8.1356590240193238
20
8.6130522301827597
30
0
10
-7.9468038020924725
20
8.6648873166553191
30
0
10
-7.8120487099460361
20
8.6928934639818181
30
0
10
-7.7346967131083728
20
8.700000277654393
30
0
10
-7.7000002457400951
20
8.700000277654393
30
0
0
SPLINE
5
116
100
AcDbEntity
8
0
100
AcDbSpline
70
6
71
5
72
131
73
125
74
0
42
0.000000001
43
0.0000000001
44
0.0000000001
40
-1
40
-1
40
-1
40
-1
40
-1
40
-1
40
-0.99166666666666559
40
-0.98333333333333228
40
-0.97499999999999898
40
-0.96666666666666567
40
-0.95833333333333237
40
-0.94999999999999907
40
-0.94166666666666576
40
-0.93333333333333246
40
-0.92499999999999916
40
-0.91666666666666585
40
-0.90833333333333255
40
-0.89999999999999925
40
-0.89166666666666594
40
-0.88333333333333264
40
-0.87499999999999933
40
-0.86666666666666603
40
-0.85833333333333273
40
-0.84999999999999942
40
-0.84166666666666612
40
-0.83333333333333282
40
-0.82499999999999951
40
-0.81666666666666621
40
-0.8083333333333329
40
-0.7999999999999996
40
-0.7916666666666663
40
-0.78333333333333299
40
-0.77499999999999969
40
-0.76666666666666639
40
-0.75833333333333308
40
-0.74999999999999978
40
-0.74166666666666647
40
-0.73333333333333317
40
-0.72499999999999987
40
-0.71666666666666656
40
-0.70833333333333326
40
-0.69999999999999996
40
-0.69166666666666665
40
-0.68333333333333335
40
-0.67500000000000004
40
-0.66666666666666674
40
-0.65833333333333344
40
-0.65000000000000013
40
-0.64166666666666683
40
-0.63333333333333353
40
-0.62500000000000022
40
-0.61666666666666692
40
-0.60833333333333361
40
-0.60000000000000031
40
-0.59166666666666701
40
-0.5833333333333337
40
-0.5750000000000004
40
-0.5666666666666671
40
-0.55833333333333379
40
-0.55000000000000049
40
-0.54166666666666718
40
-0.53333333333333388
40
-0.52500000000000058
40
-0.51666666666666727
40
-0.50833333333333397
40
-0.50000000000000067
40
-0.49166666666666736
40
-0.483333333333334
40
-0.47500000000000064
40
-0.46666666666666728
40
-0.45833333333333393
40
-0.45000000000000057
40
-0.44166666666666721
40
-0.43333333333333385
40
-0.42500000000000049
40
-0.41666666666666713
40
-0.40833333333333377
40
-0.40000000000000041
40
-0.39166666666666705
40
-0.38333333333333369
40
-0.37500000000000033
40
-0.36666666666666697
40
-0.35833333333333361
40
-0.35000000000000026
40
-0.3416666666666669
40
-0.33333333333333354
40
-0.32500000000000018
40
-0.31666666666666682
40
-0.30833333333333346
40
-0.3000000000000001
40
-0.29166666666666674
40
-0.28333333333333338
40
-0.27500000000000002
40
-0.26666666666666666
40
-0.2583333333333333
40
-0.24999999999999997
40
-0.24166666666666664
40
-0.23333333333333331
40
-0.22499999999999998
40
-0.21666666666666665
40
-0.20833333333333331
40
-0.19999999999999998
40
-0.19166666666666665
40
-0.18333333333333332
40
-0.17499999999999999
40
-0.16666666666666666
40
-0.15833333333333333
40
-0.14999999999999999
40
-0.14166666666666666
40
-0.13333333333333333
40
-0.12499999999999999
40
-0.11666666666666665
40
-0.10833333333333332
40
-0.099999999999999992
40
-0.09166666666666666
40
-0.083333333333333329
40
-0.074999999999999997
40
-0.066666666666666666
40
-0.058333333333333327
40
-0.049999999999999996
40
-0.041666666666666664
40
-0.033333333333333333
40
-0.025000000000000001
40
-0.016666666666666666
40
-0.0083333333333333332
40
0
40
0
40
0
40
0
40
0
40
0
41
1
41
1
41
1
41
1
41
1
41
1
41
1
41
1
41
1
41
1
41
1
41
1
41
1
41
1
41
1
41
1
41
1
41
1
41
1
41
1
41
1
41
1
41
1
41
1
41
1
41
1
41
1
41
1
41
1
41
1
41
1
41
1
41
1
41
1
41
1
41
1
41
1
41
1
41
1
41
1
41
1
41
1
41
1
41
1
41
1
41
1
41
1
41
1
41
1
41
1
41
1
41
1
41
1
41
1
41
1
41
1
41
1
41
1
41
1
41
1
41
1
41
1
41
1
41
1
41
1
41
1
41
1
41
1
41
1
41
1
41
1
41
1
41
1
41
1
41
1
41
1
41
1
41
1
41
1
41
1
41
1
41
1
41
1
41
1
41
1
41
1
41
1
41
1
41
1
41
1
41
1
41
1
41
1
41
1
41
1
41
1
41
1
41
1
41
1
41
1
41
1
41
1
41
1
41
1
41
1
41
1
41
1
41
1
41
1
41
1
41
1
41
1
41
1
41
1
41
1
41
1
41
1
41
1
41
1
41
1
41
1
41
1
41
1
41
1
41
1
10
-12.900000411694442
20
6.200000197868647
30
0
10
-12.840434571145103
20
6.2423194148852703
30
0
10
-12.718402002599705
20
6.3257697105049777
30
0
10
-12.525859056937289
20
6.4461872283439199
30
0
10
-12.25204494126155
20
6.587838823001233
30
0
10
-11.930556270978759
20
6.6820284974365096
30
0
10
-11.673202409000098
20
6.6629941351008801
30
0
10
-11.509304614010961
20
6.5247997612269142
30
0
10
-11.390517121371218
20
6.366977607207934
30
0
10
-11.245660277122834
20
6.29516155335945
30
0
10
-11.108828310698188
20
6.2364584522339435
30
0
10
-11.018369819875323
20
6.1082553130360093
30
0
10
-10.985086197501312
20
5.882400969415948
30
0
10
-10.988147285092996
20
5.5907579219660661
30
0
10
-11.001194717037242
20
5.2844782635313923
30
0
10
-11.000677563784295
20
5.0135463688445556
30
0
10
-10.99644814860104
20
4.7918876865965956
30
0
10
-10.995639436933565
20
4.5889091477256727
30
0
10
-10.99755171228796
20
4.3629403100111706
30
0
10
-10.999986335611563
20
4.0788325032114763
30
0
10
-11.001013668431847
20
3.7448527812503216
30
0
10
-11.001637737607284
20
3.4108063298304003
30
0
10
-11.001822400639522
20
3.0811949561212377
30
0
10
-11.001726440214968
20
2.7505334507935699
30
0
10
-11.001303847606051
20
2.4010616639587226
30
0
10
-11.000610694198436
20
2.016872049352961
30
0
10
-10.999741958618459
20
1.5889568077442062
30
0
10
-10.99909292469286
20
1.1291643842549615
30
0
10
-10.998854539314461
20
0.66227497540739455
30
0
10
-10.998991395224959
20
0.21590648357627643
30
0
10
-10.999359284574394
20
-0.18533674471096526
30
0
10
-10.999754000121392
20
-0.52528809947720179
30
0
10
-11.00000767507996
20
-0.80691785321521414
30
0
10
-11.000022797575813
20
-1.0489000997776805
30
0
10
-10.999935092146259
20
-1.317209565921839
30
0
10
-10.999869727049418
20
-1.6416359075983202
30
0
10
-10.99986168902613
20
-2.0084726286916736
30
0
10
-10.999913126427547
20
-2.38602278826869
30
0
10
-10.999981623151323
20
-2.7410486587614189
30
0
10
-11.000025817702182
20
-3.0481534153103667
30
0
10
-10.999959686617355
20
-3.3285526014236275
30
0
10
-10.999854710158774
20
-3.5935570375036701
30
0
10
-10.999852493487916
20
-3.830142923335373
30
0
10
-11.000006980563706
20
-4.0320299834877709
30
0
10
-11.000079891040878
20
-4.2162901998507971
30
0
10
-10.999497571992038
20
-4.4396522727021024
30
0
10
-10.999206368412169
20
-4.6869887512452113
30
0
10
-10.999601716244685
20
-4.9377394039914808
30
0
10
-11.00069323056772
20
-5.1745036878278778
30
0
10
-10.998355163533803
20
-5.4526044029279781
30
0
10
-10.99516353276033
20
-5.7847464464094873
30
0
10
-10.998993118910196
20
-6.1441844073288152
30
0
10
-11.020317004246184
20
-6.486871870869102
30
0
10
-11.070106294138723
20
-6.7654105999027321
30
0
10
-11.157555995986566
20
-6.9448908792894555
30
0
10
-11.287658398964666
20
-7.0221907576063058
30
0
10
-11.460301381866532
20
-7.0183923424353596
30
0
10
-11.670145680574413
20
-6.9617236121635253
30
0
10
-11.905880951818316
20
-6.8719158632966684
30
0
10
-12.153130912925779
20
-6.7598524126613224
30
0
10
-12.398010138366285
20
-6.630752092673613
30
0
10
-12.63032988875807
20
-6.4860316424799267
30
0
10
-12.847243155850888
20
-6.3258045789159656
30
0
10
-13.05585497579418
20
-6.1508729759573049
30
0
10
-13.267400489089193
20
-5.9626173017252544
30
0
10
-13.492365731842378
20
-5.7630349043661511
30
0
10
-13.734910799403689
20
-5.5547484249968866
30
0
10
-13.98836216848861
20
-5.3409709207136524
30
0
10
-14.228245651309319
20
-5.1256348096493554
30
0
10
-14.41929686626483
20
-4.912513033251086
30
0
10
-14.526938509958592
20
-4.7040154809186276
30
0
10
-14.527282724730888
20
-4.500088268358966
30
0
10
-14.417733631639843
20
-4.2970795589956676
30
0
10
-14.227391290508049
20
-4.0865928394916056
30
0
10
-14.00486814147888
20
-3.8597466363476118
30
0
10
-13.806212155943143
20
-3.611313372785506
30
0
10
-13.682452062056107
20
-3.3441598499607674
30
0
10
-13.668095470404861
20
-3.0729764701022044
30
0
10
-13.767118010168209
20
-2.8298769478885188
30
0
10
-13.959987805511222
20
-2.653701041475335
30
0
10
-14.214825650130949
20
-2.5754927556701599
30
0
10
-14.496478611110719
20
-2.6069469853296843
30
0
10
-14.778044574975338
20
-2.7235618058460473
30
0
10
-15.042246859264411
20
-2.8732573210272014
30
0
10
-15.279018295399299
20
-2.9946221350252209
30
0
10
-15.48430019282419
20
-3.0324428367621219
30
0
10
-15.65835548048193
20
-2.9534567903782949
30
0
10
-15.804248499741142
20
-2.7644342474852972
30
0
10
-15.926740029748649
20
-2.5002218416357609
30
0
10
-16.031264570564041
20
-2.2072524976108441
30
0
10
-16.122924352041746
20
-1.9294836348101458
30
0
10
-16.205363928953535
20
-1.6914382445510832
30
0
10
-16.280043708718345
20
-1.4882860750844606
30
0
10
-16.346932974067055
20
-1.2994654756265496
30
0
10
-16.404968932639683
20
-1.0984286185401622
30
0
10
-16.45261283207541
20
-0.86409245553327751
30
0
10
-16.488348667312401
20
-0.59103439367064092
30
0
10
-16.510775443082387
20
-0.28488662018931815
30
0
10
-16.518705631612082
20
0.041726018830904356
30
0
10
-16.511267475216421
20
0.37360128402750747
30
0
10
-16.487992816802663
20
0.69685997119032983
30
0
10
-16.448943834498742
20
1.0039777280356978
30
0
10
-16.394673006841309
20
1.2941274068019739
30
0
10
-16.326076142603569
20
1.5705521104883833
30
0
10
-16.24427757434032
20
1.8387997038983106
30
0
10
-16.150502527727529
20
2.1046727777103644
30
0
10
-16.045954305555714
20
2.372134927147501
30
0
10
-15.931691424104782
20
2.6417366459819669
30
0
10
-15.808508664655335
20
2.9118710802653878
30
0
10
-15.676823310757797
20
3.1796248752586034
30
0
10
-15.536546667147327
20
3.4418159150688048
30
0
10
-15.386990584476262
20
3.6958827259977518
30
0
10
-15.226683850394199
20
3.9410149114184927
30
0
10
-15.053738915317036
20
4.1779582461532883
30
0
10
-14.866372694949389
20
4.4084398488553154
30
0
10
-14.663385061349551
20
4.634729666005307
30
0
10
-14.44463405372276
20
4.8591258378816775
30
0
10
-14.211567928250325
20
5.0835167004481958
30
0
10
-13.96746446400237
20
5.3088311314108774
30
0
10
-13.715114525493854
20
5.5352634656480157
30
0
10
-13.456552260650488
20
5.7613463218355436
30
0
10
-13.242232004528951
20
5.9407436448401905
30
0
10
-13.075797045894932
20
6.0718544084048656
30
0
10
-12.959566252243775
20
6.157680980852029
30
0
10
-12.900000411694442
20
6.200000197868647
30
0
0
ELLIPSE
5
117
100
AcDbEntity
8
0
100
AcDbEllipse
10
0
20
0
30
0
11
16.937999999999999
21
1.8377356004300536e-15
31
0.0
40
0.61621797142519774
41
0
42
6.2831853071795862
0
ENDSEC
0
SECTION
2
OBJECTS
0
DICTIONARY
5
C
100
AcDbDictionary
3
ACAD_GROUP
350
D
3
ACAD_MLINESTYLE
350
17
0
DICTIONARY
5
D
100
AcDbDictionary
0
DICTIONARY
5
1A
330
C
100
AcDbDictionary
0
DICTIONARY
5
17
100
AcDbDictionary
0
ENDSEC
0
EOF
