0
SECTION
2
HEADER
9
$INSUNITS
70
1
9
$ACADVER
1
AC1014
9
$HANDSEED
5
FFFF
0
ENDSEC
0
SECTION
2
TABLES
0
TABLE
2
VPORT
5
8
100
AcDbSymbolTable
0
ENDTAB
0
TABLE
2
LTYPE
5
5
100
AcDbSymbolTable
0
LTYPE
5
14
100
AcDbSymbolTableRecord
100
AcDbLinetypeTableRecord
2
BYBLOCK
70
0
0
LTYPE
5
15
100
AcDbSymbolTableRecord
100
AcDbLinetypeTableRecord
2
BYLAYER
70
0
0
ENDTAB
0
TABLE
2
LAYER
5
2
100
AcDbSymbolTable
70
2
0
LAYER
5
50
100
AcDbSymbolTableRecord
100
AcDbLayerTableRecord
2
0
70
0
6
CONTINUOUS
0
ENDTAB
0
TABLE
2
STYLE
5
3
100
AcDbSymbolTable
70
1
0
STYLE
5
11
100
AcDbSymbolTableRecord
100
AcDbTextStyleTableRecord
2
STANDARD
70
0
0
ENDTAB
0
TABLE
2
VIEW
5
6
100
AcDbSymbolTable
70
0
0
ENDTAB
0
TABLE
2
UCS
5
7
100
AcDbSymbolTable
70
0
0
ENDTAB
0
TABLE
2
APPID
5
9
100
AcDbSymbolTable
70
2
0
APPID
5
12
100
AcDbSymbolTableRecord
100
AcDbRegAppTableRecord
2
ACAD
70
0
0
ENDTAB
0
TABLE
2
DIMSTYLE
5
A
100
AcDbSymbolTable
70
1
0
ENDTAB
0
TABLE
2
BLOCK_RECORD
5
1
100
AcDbSymbolTable
70
1
0
BLOCK_RECORD
5
1F
100
AcDbSymbolTableRecord
100
AcDbBlockTableRecord
2
*MODEL_SPACE
0
BLOCK_RECORD
5
1B
100
AcDbSymbolTableRecord
100
AcDbBlockTableRecord
2
*PAPER_SPACE
0
ENDTAB
0
ENDSEC
0
SECTION
2
BLOCKS
0
BLOCK
5
20
100
AcDbEntity
100
AcDbBlockBegin
2
*MODEL_SPACE
0
ENDBLK
5
21
100
AcDbEntity
100
AcDbBlockEnd
0
BLOCK
5
1C
100
AcDbEntity
100
AcDbBlockBegin
2
*PAPER_SPACE
0
ENDBLK
5
1D
100
AcDbEntity
100
AcDbBlockEnd
0
ENDSEC
0
SECTION
2
ENTITIES
0
CIRCLE
5
100
100
AcDbEntity
8
0
100
AcDbCircle
10
0
20
-9.0000002872286817
30
0
40
0.12499999999999975
210
0
220
0
230
1
0
CIRCLE
5
101
100
AcDbEntity
8
0
100
AcDbCircle
10
14.399999825973209
20
-3.24999996072312
30
0
40
0.12500000000000097
210
0
220
0
230
1
0
CIRCLE
5
102
100
AcDbEntity
8
0
100
AcDbCircle
10
-14.399999825973209
20
-3.24999996072312
30
0
40
0.12500000000000097
210
0
220
0
230
1
0
CIRCLE
5
103
100
AcDbEntity
8
0
100
AcDbCircle
10
6.9999999154036434
20
7.9999999033184492
30
0
40
0.1249999999999996
210
0
220
0
230
1
0
CIRCLE
5
104
100
AcDbEntity
8
0
100
AcDbCircle
10
-6.9999999154036434
20
7.9999999033184492
30
0
40
0.1249999999999996
210
0
220
0
230
1
0
SPLINE
5
105
100
AcDbEntity
8
0
100
AcDbSpline
70
4
71
5
72
46
73
40
74
0
42
0.000000001
43
0.0000000001
44
0.0000000001
40
-1
40
-1
40
-1
40
-1
40
-1
40
-1
40
-0.97142857142857164
40
-0.94285714285714306
40
-0.91428571428571448
40
-0.8857142857142859
40
-0.85714285714285732
40
-0.82857142857142874
40
-0.80000000000000016
40
-0.77142857142857157
40
-0.74285714285714299
40
-0.71428571428571441
40
-0.68571428571428583
40
-0.65714285714285725
40
-0.62857142857142867
40
-0.60000000000000009
40
-0.57142857142857151
40
-0.54285714285714293
40
-0.51428571428571435
40
-0.48571428571428582
40
-0.45714285714285724
40
-0.42857142857142866
40
-0.40000000000000008
40
-0.3714285714285715
40
-0.34285714285714292
40
-0.31428571428571433
40
-0.28571428571428575
40
-0.25714285714285717
40
-0.22857142857142859
40
-0.20000000000000001
40
-0.17142857142857143
40
-0.14285714285714285
40
-0.11428571428571428
40
-0.085714285714285715
40
-0.057142857142857141
40
-0.028571428571428571
40
0
40
0
40
0
40
0
40
0
40
0
41
1
41
1
41
1
41
1
41
1
41
1
41
1
41
1
41
1
41
1
41
1
41
1
41
1
41
1
41
1
41
1
41
1
41
1
41
1
41
1
41
1
41
1
41
1
41
1
41
1
41
1
41
1
41
1
41
1
41
1
41
1
41
1
41
1
41
1
41
1
41
1
41
1
41
1
41
1
41
1
10
0
20
-6.6443749999999984
30
0
10
-0.27770332246233059
20
-6.64015561608631
30
0
10
-0.80321846312446521
20
-6.6299581033699475
30
0
10
-1.5018170930121797
20
-6.6093857579301956
30
0
10
-2.2613083454493164
20
-6.5720015214383238
30
0
10
-2.9695970047547982
20
-6.511934621271835
30
0
10
-3.4997678562848642
20
-6.4422884448058912
30
0
10
-3.9227055138446403
20
-6.3661380559347833
30
0
10
-4.3075047344896431
20
-6.2845384923686654
30
0
10
-4.7123983016834687
20
-6.1955256373845797
30
0
10
-5.1741537524680403
20
-6.0923006860597777
30
0
10
-5.7008715621093433
20
-5.9633221278010309
30
0
10
-6.255940880768712
20
-5.7865705067610378
30
0
10
-6.7812442496287568
20
-5.5835958995190644
30
0
10
-7.2171962908357212
20
-5.3934483304573106
30
0
10
-7.5323438554652222
20
-5.2461415397186029
30
0
10
-7.7243726517272595
20
-5.159605855391546
30
0
10
-7.8913956072770173
20
-5.073333648008469
30
0
10
-8.1253112116966992
20
-4.9478069142873995
30
0
10
-8.4046696021894345
20
-4.7969740578997291
30
0
10
-8.6909271548010913
20
-4.6361034821008671
30
0
10
-8.9371532613235729
20
-4.486690778195487
30
0
10
-9.1342606351218247
20
-4.3550739204142008
30
0
10
-9.2922923773235464
20
-4.2400728731081392
30
0
10
-9.4446545473187609
20
-4.1236524704468067
30
0
10
-9.616742755144676
20
-3.9905696166430586
30
0
10
-9.854816656511046
20
-3.801430524197654
30
0
10
-10.061425493052475
20
-3.6326561692692687
30
0
10
-10.28247319649693
20
-3.4277876079114376
30
0
10
-10.571384714074496
20
-3.1327868828432233
30
0
10
-10.85282595491347
20
-2.8097213970048647
30
0
10
-11.064548488592342
20
-2.5129069523470351
30
0
10
-11.20220310576091
20
-2.2540446514102994
30
0
10
-11.3413284372772
20
-1.9696601406803416
30
0
10
-11.483307372745882
20
-1.6295584138488008
30
0
10
-11.618259875175601
20
-1.2034832508200537
30
0
10
-11.697637513961251
20
-0.77981419916108918
30
0
10
-11.729588426770571
20
-0.41036332221262811
30
0
10
-11.736792415429482
20
-0.14068598387999329
30
0
10
-11.736875
20
1.3839666588432928e-15
30
0
0
SPLINE
5
106
100
AcDbEntity
8
0
100
AcDbSpline
70
4
71
5
72
26
73
20
74
0
42
0.000000001
43
0.0000000001
44
0.0000000001
40
0
40
0
40
0
40
0
40
0
40
0
40
0.066666666666666666
40
0.13333333333333333
40
0.20000000000000001
40
0.26666666666666666
40
0.33333333333333331
40
0.39999999999999997
40
0.46666666666666662
40
0.53333333333333333
40
0.59999999999999998
40
0.66666666666666663
40
0.73333333333333328
40
0.79999999999999993
40
0.86666666666666659
40
0.93333333333333324
40
1
40
1
40
1
40
1
40
1
40
1
41
1
41
1
41
1
41
1
41
1
41
1
41
1
41
1
41
1
41
1
41
1
41
1
41
1
41
1
41
1
41
1
41
1
41
1
41
1
41
1
10
-11.736875
20
1.3839666588432928e-15
30
0
10
-11.736353475838774
20
0.11212778376722943
30
0
10
-11.730346721463821
20
0.33671494320277184
30
0
10
-11.706452869259962
20
0.67459055727096873
30
0
10
-11.633959924167504
20
1.13475142185625
30
0
10
-11.426828112517384
20
1.7528006968508743
30
0
10
-11.063021486535558
20
2.4176450569801098
30
0
10
-10.547222748149084
20
3.076733740714114
30
0
10
-9.8876115641526354
20
3.7035951047986377
30
0
10
-9.0988925045948505
20
4.2791814211744077
30
0
10
-8.1977668070673868
20
4.7942759076728123
30
0
10
-7.2019096765183583
20
5.2441869770490923
30
0
10
-6.127765761372423
20
5.6268621926792903
30
0
10
-4.9898464939849125
20
5.94104492385872
30
0
10
-3.8004118000918719
20
6.1861213598518887
30
0
10
-2.5692237037181909
20
6.3616137441417271
30
0
10
-1.5565550813244897
20
6.4459826739387935
30
0
10
-0.78341142367950589
20
6.4775434399142382
30
0
10
-0.26211502487088484
20
6.4844530012681654
30
0
10
7.6540424946709329e-18
20
6.4843749999999991
30
0
0
SPLINE
5
107
100
AcDbEntity
8
0
100
AcDbSpline
70
4
71
5
72
26
73
20
74
0
42
0.000000001
43
0.0000000001
44
0.0000000001
40
-1
40
-1
40
-1
40
-1
40
-1
40
-1
40
-0.93333333333333324
40
-0.86666666666666659
40
-0.79999999999999993
40
-0.73333333333333328
40
-0.66666666666666663
40
-0.59999999999999998
40
-0.53333333333333333
40
-0.46666666666666662
40
-0.39999999999999997
40
-0.33333333333333331
40
-0.26666666666666666
40
-0.20000000000000001
40
-0.13333333333333333
40
-0.066666666666666666
40
0
40
0
40
0
40
0
40
0
40
0
41
1
41
1
41
1
41
1
41
1
41
1
41
1
41
1
41
1
41
1
41
1
41
1
41
1
41
1
41
1
41
1
41
1
41
1
41
1
41
1
10
-7.6540424946709329e-18
20
6.4843749999999991
30
0
10
0.2669679196420584
20
6.4800678870090671
30
0
10
0.79679652279249602
20
6.4654485580453009
30
0
10
1.5792178404398842
20
6.4255044248044131
30
0
10
2.5976229691198842
20
6.3359519423652442
30
0
10
3.8273242624270369
20
6.1618030451352519
30
0
10
5.009780664555203
20
5.9230322490055354
30
0
10
6.138607890375515
20
5.6170651587992042
30
0
10
7.2045566195949338
20
5.2417951782619419
30
0
10
8.1952729411837009
20
4.7965293846926667
30
0
10
9.0948802962778892
20
4.2828068844763161
30
0
10
9.8846551809767629
20
3.7062665161172417
30
0
10
10.546179929176063
20
3.0776760402206929
30
0
10
11.063225812861283
20
2.4174604260893426
30
0
10
11.426796200605843
20
1.7528295327075838
30
0
10
11.63372932688722
20
1.1349597913902678
30
0
10
11.706341812895772
20
0.67469090868382975
30
0
10
11.730326431216625
20
0.33673327763132316
30
0
10
11.736353475838774
20
0.11212778376722943
30
0
10
11.736875
20
1.3877787807814455e-15
30
0
0
SPLINE
5
108
100
AcDbEntity
8
0
100
AcDbSpline
70
4
71
5
72
46
73
40
74
0
42
0.000000001
43
0.0000000001
44
0.0000000001
40
0
40
0
40
0
40
0
40
0
40
0
40
0.028571428571428571
40
0.057142857142857141
40
0.085714285714285715
40
0.11428571428571428
40
0.14285714285714285
40
0.17142857142857143
40
0.20000000000000001
40
0.22857142857142859
40
0.25714285714285717
40
0.28571428571428575
40
0.31428571428571433
40
0.34285714285714292
40
0.3714285714285715
40
0.40000000000000008
40
0.42857142857142866
40
0.45714285714285724
40
0.48571428571428582
40
0.51428571428571435
40
0.54285714285714293
40
0.57142857142857151
40
0.60000000000000009
40
0.62857142857142867
40
0.65714285714285725
40
0.68571428571428583
40
0.71428571428571441
40
0.74285714285714299
40
0.77142857142857157
40
0.80000000000000016
40
0.82857142857142874
40
0.85714285714285732
40
0.8857142857142859
40
0.91428571428571448
40
0.94285714285714306
40
0.97142857142857164
40
1
40
1
40
1
40
1
40
1
40
1
41
1
41
1
41
1
41
1
41
1
41
1
41
1
41
1
41
1
41
1
41
1
41
1
41
1
41
1
41
1
41
1
41
1
41
1
41
1
41
1
41
1
41
1
41
1
41
1
41
1
41
1
41
1
41
1
41
1
41
1
41
1
41
1
41
1
41
1
41
1
41
1
41
1
41
1
41
1
41
1
10
11.736875
20
1.3877787807814455e-15
30
0
10
11.736792415429482
20
-0.14068598387999329
30
0
10
11.729588426770571
20
-0.41036332221262811
30
0
10
11.697637513961251
20
-0.77981419916108918
30
0
10
11.618259875175601
20
-1.2034832508200537
30
0
10
11.483307372745882
20
-1.6295584138488008
30
0
10
11.3413284372772
20
-1.9696601406803416
30
0
10
11.20220310576091
20
-2.2540446514102994
30
0
10
11.064548488592342
20
-2.5129069523470351
30
0
10
10.85282595491347
20
-2.8097213970048647
30
0
10
10.571384714074496
20
-3.1327868828432233
30
0
10
10.28247319649693
20
-3.4277876079114376
30
0
10
10.061425493052475
20
-3.6326561692692687
30
0
10
9.854816656511046
20
-3.801430524197654
30
0
10
9.616742755144676
20
-3.9905696166430586
30
0
10
9.4446545473187609
20
-4.1236524704468067
30
0
10
9.2922923773235464
20
-4.2400728731081392
30
0
10
9.1342606351218247
20
-4.3550739204142008
30
0
10
8.9371532613235729
20
-4.486690778195487
30
0
10
8.6909271548010913
20
-4.6361034821008671
30
0
10
8.4046696021894345
20
-4.7969740578997291
30
0
10
8.1253112116966992
20
-4.9478069142873995
30
0
10
7.8913956072770173
20
-5.073333648008469
30
0
10
7.7243726517272595
20
-5.159605855391546
30
0
10
7.5323438554652222
20
-5.2461415397186029
30
0
10
7.2171962908357212
20
-5.3934483304573106
30
0
10
6.7812442496287568
20
-5.5835958995190644
30
0
10
6.255940880768712
20
-5.7865705067610378
30
0
10
5.7008715621093433
20
-5.9633221278010309
30
0
10
5.1741537524680403
20
-6.0923006860597777
30
0
10
4.7123983016834687
20
-6.1955256373845797
30
0
10
4.3075047344896431
20
-6.2845384923686654
30
0
10
3.9227055138446403
20
-6.3661380559347833
30
0
10
3.4997678562848642
20
-6.4422884448058912
30
0
10
2.9695970047547982
20
-6.511934621271835
30
0
10
2.2613083454493164
20
-6.5720015214383238
30
0
10
1.5018170930121797
20
-6.6093857579301956
30
0
10
0.80321846312446521
20
-6.6299581033699475
30
0
10
0.27770332246233059
20
-6.64015561608631
30
0
10
0
20
-6.6443749999999984
30
0
0
ELLIPSE
5
109
100
AcDbEntity
8
0
100
AcDbEllipse
10
0
20
0
30
0
11
16.937999999999999
21
1.8377356004300536e-15
31
0.0
40
0.61621797142519774
41
0
42
6.2831853071795862
0
ENDSEC
0
SECTION
2
OBJECTS
0
DICTIONARY
5
C
100
AcDbDictionary
3
ACAD_GROUP
350
D
3
ACAD_MLINESTYLE
350
17
0
DICTIONARY
5
D
100
AcDbDictionary
0
DICTIONARY
5
1A
330
C
100
AcDbDictionary
0
DICTIONARY
5
17
100
AcDbDictionary
0
ENDSEC
0
EOF
