0
SECTION
2
HEADER
9
$INSUNITS
70
1
9
$ACADVER
1
AC1014
9
$HANDSEED
5
FFFF
0
ENDSEC
0
SECTION
2
TABLES
0
TABLE
2
VPORT
5
8
100
AcDbSymbolTable
0
ENDTAB
0
TABLE
2
LTYPE
5
5
100
AcDbSymbolTable
0
LTYPE
5
14
100
AcDbSymbolTableRecord
100
AcDbLinetypeTableRecord
2
BYBLOCK
70
0
0
LTYPE
5
15
100
AcDbSymbolTableRecord
100
AcDbLinetypeTableRecord
2
BYLAYER
70
0
0
ENDTAB
0
TABLE
2
LAYER
5
2
100
AcDbSymbolTable
70
2
0
LAYER
5
50
100
AcDbSymbolTableRecord
100
AcDbLayerTableRecord
2
0
70
0
6
CONTINUOUS
0
ENDTAB
0
TABLE
2
STYLE
5
3
100
AcDbSymbolTable
70
1
0
STYLE
5
11
100
AcDbSymbolTableRecord
100
AcDbTextStyleTableRecord
2
STANDARD
70
0
0
ENDTAB
0
TABLE
2
VIEW
5
6
100
AcDbSymbolTable
70
0
0
ENDTAB
0
TABLE
2
UCS
5
7
100
AcDbSymbolTable
70
0
0
ENDTAB
0
TABLE
2
APPID
5
9
100
AcDbSymbolTable
70
2
0
APPID
5
12
100
AcDbSymbolTableRecord
100
AcDbRegAppTableRecord
2
ACAD
70
0
0
ENDTAB
0
TABLE
2
DIMSTYLE
5
A
100
AcDbSymbolTable
70
1
0
ENDTAB
0
TABLE
2
BLOCK_RECORD
5
1
100
AcDbSymbolTable
70
1
0
BLOCK_RECORD
5
1F
100
AcDbSymbolTableRecord
100
AcDbBlockTableRecord
2
*MODEL_SPACE
0
BLOCK_RECORD
5
1B
100
AcDbSymbolTableRecord
100
AcDbBlockTableRecord
2
*PAPER_SPACE
0
ENDTAB
0
ENDSEC
0
SECTION
2
BLOCKS
0
BLOCK
5
20
100
AcDbEntity
100
AcDbBlockBegin
2
*MODEL_SPACE
0
ENDBLK
5
21
100
AcDbEntity
100
AcDbBlockEnd
0
BLOCK
5
1C
100
AcDbEntity
100
AcDbBlockBegin
2
*PAPER_SPACE
0
ENDBLK
5
1D
100
AcDbEntity
100
AcDbBlockEnd
0
ENDSEC
0
SECTION
2
ENTITIES
0
SPLINE
5
100
100
AcDbEntity
8
0
100
AcDbSpline
70
6
71
5
72
106
73
100
74
0
42
0.000000001
43
0.0000000001
44
0.0000000001
40
-1
40
-1
40
-1
40
-1
40
-1
40
-1
40
-0.98947368421052739
40
-0.97894736842105368
40
-0.96842105263157996
40
-0.95789473684210624
40
-0.94736842105263253
40
-0.93684210526315881
40
-0.92631578947368509
40
-0.91578947368421137
40
-0.90526315789473766
40
-0.89473684210526394
40
-0.88421052631579022
40
-0.87368421052631651
40
-0.86315789473684279
40
-0.85263157894736907
40
-0.84210526315789536
40
-0.83157894736842164
40
-0.82105263157894792
40
-0.81052631578947421
40
-0.80000000000000049
40
-0.78947368421052677
40
-0.77894736842105305
40
-0.76842105263157934
40
-0.75789473684210562
40
-0.7473684210526319
40
-0.73684210526315819
40
-0.72631578947368447
40
-0.71578947368421075
40
-0.70526315789473704
40
-0.69473684210526332
40
-0.6842105263157896
40
-0.67368421052631589
40
-0.66315789473684217
40
-0.65263157894736845
40
-0.64210526315789473
40
-0.63157894736842102
40
-0.6210526315789473
40
-0.61052631578947358
40
-0.59999999999999987
40
-0.58947368421052615
40
-0.57894736842105243
40
-0.56842105263157872
40
-0.557894736842105
40
-0.54736842105263128
40
-0.53684210526315757
40
-0.52631578947368385
40
-0.51578947368421013
40
-0.50526315789473641
40
-0.4947368421052627
40
-0.48421052631578904
40
-0.47368421052631537
40
-0.46315789473684171
40
-0.45263157894736805
40
-0.44210526315789439
40
-0.43157894736842073
40
-0.42105263157894707
40
-0.41052631578947341
40
-0.39999999999999974
40
-0.38947368421052608
40
-0.37894736842105242
40
-0.36842105263157876
40
-0.3578947368421051
40
-0.34736842105263144
40
-0.33684210526315778
40
-0.32631578947368411
40
-0.31578947368421045
40
-0.30526315789473679
40
-0.29473684210526313
40
-0.28421052631578947
40
-0.27368421052631581
40
-0.26315789473684215
40
-0.25263157894736848
40
-0.24210526315789482
40
-0.23157894736842113
40
-0.22105263157894744
40
-0.21052631578947376
40
-0.20000000000000007
40
-0.18947368421052638
40
-0.17894736842105269
40
-0.168421052631579
40
-0.15789473684210531
40
-0.14736842105263162
40
-0.13684210526315793
40
-0.12631578947368424
40
-0.11578947368421055
40
-0.10526315789473686
40
-0.094736842105263175
40
-0.084210526315789486
40
-0.073684210526315796
40
-0.063157894736842107
40
-0.052631578947368418
40
-0.042105263157894736
40
-0.031578947368421054
40
-0.021052631578947368
40
-0.010526315789473684
40
0
40
0
40
0
40
0
40
0
40
0
41
1
41
1
41
1
41
1
41
1
41
1
41
1
41
1
41
1
41
1
41
1
41
1
41
1
41
1
41
1
41
1
41
1
41
1
41
1
41
1
41
1
41
1
41
1
41
1
41
1
41
1
41
1
41
1
41
1
41
1
41
1
41
1
41
1
41
1
41
1
41
1
41
1
41
1
41
1
41
1
41
1
41
1
41
1
41
1
41
1
41
1
41
1
41
1
41
1
41
1
41
1
41
1
41
1
41
1
41
1
41
1
41
1
41
1
41
1
41
1
41
1
41
1
41
1
41
1
41
1
41
1
41
1
41
1
41
1
41
1
41
1
41
1
41
1
41
1
41
1
41
1
41
1
41
1
41
1
41
1
41
1
41
1
41
1
41
1
41
1
41
1
41
1
41
1
41
1
41
1
41
1
41
1
41
1
41
1
41
1
41
1
41
1
41
1
41
1
41
1
10
-12.900000411694451
20
6.1000001946772207
30
0
10
-12.853071444519145
20
6.104460797575066
30
0
10
-12.764915448956767
20
6.1039336197205136
30
0
10
-12.652592318283183
20
6.0751522572397558
30
0
10
-12.550461382394417
20
5.9845925101478956
30
0
10
-12.485175759256862
20
5.7942840523116459
30
0
10
-12.459473722773742
20
5.5402848981500954
30
0
10
-12.455367101544047
20
5.2372934373833502
30
0
10
-12.460422832634025
20
4.9006462370097505
30
0
10
-12.466684962338125
20
4.5450102180230285
30
0
10
-12.47022690278251
20
4.1828303518467598
30
0
10
-12.470965711431852
20
3.8241244060120425
30
0
10
-12.471095093637041
20
3.4726909821740608
30
0
10
-12.471088465069993
20
3.1212810761736201
30
0
10
-12.471154886425984
20
2.7586068181808652
30
0
10
-12.471035692693455
20
2.3726333373203881
30
0
10
-12.470527759864781
20
1.9556736250248297
30
0
10
-12.469596545346679
20
1.5080896122230472
30
0
10
-12.468925357631953
20
1.0441348360799911
30
0
10
-12.468751705303116
20
0.59101671824286317
30
0
10
-12.469026200640444
20
0.17652792604979708
30
0
10
-12.469519797614449
20
-0.17745960750594661
30
0
10
-12.469950352882725
20
-0.4704343326732508
30
0
10
-12.470080484338123
20
-0.71978176868072996
30
0
10
-12.46987758579988
20
-1.0015688704145305
30
0
10
-12.4694974421341
20
-1.363136010538841
30
0
10
-12.469140701453103
20
-1.7874221604553728
30
0
10
-12.469015233699603
20
-2.2339688595334923
30
0
10
-12.469262086739912
20
-2.649611464422752
30
0
10
-12.469885433013054
20
-2.9923976315028957
30
0
10
-12.470707503510138
20
-3.2490782676805035
30
0
10
-12.471246733170574
20
-3.4575283358504949
30
0
10
-12.471123512393557
20
-3.6827500791004568
30
0
10
-12.470251531774862
20
-3.9820324068671495
30
0
10
-12.469612385439991
20
-4.3869040585241734
30
0
10
-12.470581020526787
20
-4.8473526154337758
30
0
10
-12.479252760007917
20
-5.300531862661841
30
0
10
-12.505290383181304
20
-5.6985053423376701
30
0
10
-12.559646502638431
20
-6.0006742088328213
30
0
10
-12.652756798510573
20
-6.181343753102265
30
0
10
-12.792577693467775
20
-6.2301871842760086
30
0
10
-12.98257019107009
20
-6.157307766445415
30
0
10
-13.220258466460608
20
-5.9892761291092356
30
0
10
-13.496210332891456
20
-5.7606626895216166
30
0
10
-13.792865114400872
20
-5.5068240201115985
30
0
10
-14.083461662527476
20
-5.2562655452215576
30
0
10
-14.330780904238962
20
-5.0229429409540689
30
0
10
-14.496453664220496
20
-4.809230478309896
30
0
10
-14.551244786182604
20
-4.6092042855429396
30
0
10
-14.48365394914884
20
-4.411845787803264
30
0
10
-14.312410923187462
20
-4.2041684551596434
30
0
10
-14.085611446642178
20
-3.9747178560986316
30
0
10
-13.863883822974838
20
-3.717207595885978
30
0
10
-13.706944589321845
20
-3.4346172704308424
30
0
10
-13.660267796055923
20
-3.1420349230999713
30
0
10
-13.738037023858819
20
-2.8726970468580526
30
0
10
-13.923012913504428
20
-2.6713338216626488
30
0
10
-14.181780986705084
20
-2.5751748390214471
30
0
10
-14.474775399126431
20
-2.6007016459191332
30
0
10
-14.770438075748631
20
-2.7226946550633704
30
0
10
-15.048406249093116
20
-2.8811401370227494
30
0
10
-15.296553521659796
20
-3.0052154891704581
30
0
10
-15.509844159831667
20
-3.0320925178236005
30
0
10
-15.6884502627657
20
-2.9280150025436087
30
0
10
-15.836180207105334
20
-2.7080827743276035
30
0
10
-15.958988687313109
20
-2.4171469056603589
30
0
10
-16.063479379112731
20
-2.1097755875904354
30
0
10
-16.155539035874881
20
-1.8325453626516222
30
0
10
-16.238595414408024
20
-1.6005620977323014
30
0
10
-16.313477860860459
20
-1.3980718829477419
30
0
10
-16.37941345285796
20
-1.1964667035674184
30
0
10
-16.434645184518711
20
-0.96589274535182279
30
0
10
-16.47730053464138
20
-0.69241737037110607
30
0
10
-16.505717017465241
20
-0.37953274654021923
30
0
10
-16.518474111120707
20
-0.040540936307609583
30
0
10
-16.514515027095211
20
0.30658570359630605
30
0
10
-16.493220719058655
20
0.64488917712853355
30
0
10
-16.454531749804847
20
0.96501608601254929
30
0
10
-16.398952037526517
20
1.2673075959417546
30
0
10
-16.327399072328944
20
1.5573503719500552
30
0
10
-16.241093067882236
20
1.8430501012232772
30
0
10
-16.141427489889541
20
2.1313071760981424
30
0
10
-16.029855311862288
20
2.4243464231062837
30
0
10
-15.907744968317084
20
2.7178243816014427
30
0
10
-15.77616213082324
20
3.004503393768549
30
0
10
-15.635659038865146
20
3.2769671840098691
30
0
10
-15.486071372447546
20
3.5306182167777198
30
0
10
-15.326286104820705
20
3.7667831130141423
30
0
10
-15.154093387236463
20
3.9951162642400839
30
0
10
-14.966754364272871
20
4.2287602646853077
30
0
10
-14.761534584925602
20
4.4802087484052731
30
0
10
-14.536196339599618
20
4.7567515592588778
30
0
10
-14.289632145285848
20
5.0564377175659958
30
0
10
-14.022142537494632
20
5.3629081348601781
30
0
10
-13.737263972590036
20
5.6503635907368697
30
0
10
-13.442289954088146
20
5.8894711979671195
30
0
10
-13.210129831776406
20
6.0209159119619953
30
0
10
-13.04648925200927
20
6.0771700023337365
30
0
10
-12.946929378869763
20
6.0955395917793753
30
0
10
-12.900000411694451
20
6.1000001946772207
30
0
0
CIRCLE
5
101
100
AcDbEntity
8
0
100
AcDbCircle
10
-14.399999825973209
20
-3.24999996072312
30
0
40
0.12500000000000097
210
0
220
0
230
1
0
LINE
5
102
100
AcDbEntity
8
0
100
AcDbLine
10
-12.181874999999998
20
-7.251965732134094
30
0
11
-12.181875000000002
21
7.2519657321340913
31
0
0
ELLIPSE
5
103
100
AcDbEntity
8
0
100
AcDbEllipse
10
0
20
0
30
0
11
16.937999999999999
21
2.043999449940427e-15
31
0.0
40
0.61621797142519774
41
2.373452110373556
42
3.9097331968060303
0
ENDSEC
0
SECTION
2
OBJECTS
0
DICTIONARY
5
C
100
AcDbDictionary
3
ACAD_GROUP
350
D
3
ACAD_MLINESTYLE
350
17
0
DICTIONARY
5
D
100
AcDbDictionary
0
DICTIONARY
5
1A
330
C
100
AcDbDictionary
0
DICTIONARY
5
17
100
AcDbDictionary
0
ENDSEC
0
EOF
