  0
SECTION
  2
HEADER
  9
$ACADVER
  1
AC1014
  9
$ACADMAINTVER
 70
     9
  9
$DWGCODEPAGE
  3
ANSI_1252
  9
$INSBASE
 10
0.0
 20
0.0
 30
0.0
  9
$EXTMIN
 10
1.000000000000000E+20
 20
1.000000000000000E+20
 30
1.000000000000000E+20
  9
$EXTMAX
 10
-1.000000000000000E+20
 20
-1.000000000000000E+20
 30
-1.000000000000000E+20
  9
$LIMMIN
 10
0.0
 20
0.0
  9
$LIMMAX
 10
12.0
 20
9.0
  9
$ORTHOMODE
 70
     0
  9
$REGENMODE
 70
     1
  9
$FILLMODE
 70
     1
  9
$QTEXTMODE
 70
     0
  9
$MIRRTEXT
 70
     1
  9
$DRAGMODE
 70
     2
  9
$LTSCALE
 40
1.0
  9
$OSMODE
 70
    37
  9
$ATTMODE
 70
     1
  9
$TEXTSIZE
 40
0.2
  9
$TRACEWID
 40
0.05
  9
$TEXTSTYLE
  7
STANDARD
  9
$CLAYER
  8
0
  9
$CELTYPE
  6
BYLAYER
  9
$CECOLOR
 62
   256
  9
$CELTSCALE
 40
1.0
  9
$DELOBJ
 70
     1
  9
$DISPSILH
 70
     0
  9
$DIMSCALE
 40
1.0
  9
$DIMASZ
 40
0.18
  9
$DIMEXO
 40
0.0625
  9
$DIMDLI
 40
0.38
  9
$DIMRND
 40
0.0
  9
$DIMDLE
 40
0.0
  9
$DIMEXE
 40
0.18
  9
$DIMTP
 40
0.0
  9
$DIMTM
 40
0.0
  9
$DIMTXT
 40
0.18
  9
$DIMCEN
 40
0.09
  9
$DIMTSZ
 40
0.0
  9
$DIMTOL
 70
     0
  9
$DIMLIM
 70
     0
  9
$DIMTIH
 70
     1
  9
$DIMTOH
 70
     1
  9
$DIMSE1
 70
     0
  9
$DIMSE2
 70
     0
  9
$DIMTAD
 70
     0
  9
$DIMZIN
 70
     0
  9
$DIMBLK
  1

  9
$DIMASO
 70
     1
  9
$DIMSHO
 70
     1
  9
$DIMPOST
  1

  9
$DIMAPOST
  1

  9
$DIMALT
 70
     0
  9
$DIMALTD
 70
     2
  9
$DIMALTF
 40
25.4
  9
$DIMLFAC
 40
1.0
  9
$DIMTOFL
 70
     0
  9
$DIMTVP
 40
0.0
  9
$DIMTIX
 70
     0
  9
$DIMSOXD
 70
     0
  9
$DIMSAH
 70
     0
  9
$DIMBLK1
  1

  9
$DIMBLK2
  1

  9
$DIMSTYLE
  2
STANDARD
  9
$DIMCLRD
 70
     0
  9
$DIMCLRE
 70
     0
  9
$DIMCLRT
 70
     0
  9
$DIMTFAC
 40
1.0
  9
$DIMGAP
 40
0.09
  9
$DIMJUST
 70
     0
  9
$DIMSD1
 70
     0
  9
$DIMSD2
 70
     0
  9
$DIMTOLJ
 70
     1
  9
$DIMTZIN
 70
     0
  9
$DIMALTZ
 70
     0
  9
$DIMALTTZ
 70
     0
  9
$DIMFIT
 70
     3
  9
$DIMUPT
 70
     0
  9
$DIMUNIT
 70
     2
  9
$DIMDEC
 70
     4
  9
$DIMTDEC
 70
     4
  9
$DIMALTU
 70
     2
  9
$DIMALTTD
 70
     2
  9
$DIMTXSTY
  7
STANDARD
  9
$DIMAUNIT
 70
     0
  9
$LUNITS
 70
     2
  9
$LUPREC
 70
     4
  9
$SKETCHINC
 40
0.1
  9
$FILLETRAD
 40
0.0
  9
$AUNITS
 70
     0
  9
$AUPREC
 70
     0
  9
$MENU
  1
.
  9
$ELEVATION
 40
0.0
  9
$PELEVATION
 40
0.0
  9
$THICKNESS
 40
0.0
  9
$LIMCHECK
 70
     0
  9
$CHAMFERA
 40
0.0
  9
$CHAMFERB
 40
0.0
  9
$CHAMFERC
 40
0.0
  9
$CHAMFERD
 40
0.0
  9
$SKPOLY
 70
     0
  9
$TDCREATE
 40
2459898.442094294
  9
$TDUPDATE
 40
2459898.44209434
  9
$TDINDWG
 40
0.0000000116
  9
$TDUSRTIMER
 40
0.0000000116
  9
$USRTIMER
 70
     1
  9
$ANGBASE
 50
0.0
  9
$ANGDIR
 70
     0
  9
$PDMODE
 70
     0
  9
$PDSIZE
 40
0.0
  9
$PLINEWID
 40
0.0
  9
$COORDS
 70
     1
  9
$SPLFRAME
 70
     0
  9
$SPLINETYPE
 70
     6
  9
$SPLINESEGS
 70
     8
  9
$ATTDIA
 70
     0
  9
$ATTREQ
 70
     1
  9
$HANDLING
 70
     1
  9
$HANDSEED
  5
41D
  9
$SURFTAB1
 70
     6
  9
$SURFTAB2
 70
     6
  9
$SURFTYPE
 70
     6
  9
$SURFU
 70
     6
  9
$SURFV
 70
     6
  9
$UCSNAME
  2

  9
$UCSORG
 10
0.0
 20
0.0
 30
0.0
  9
$UCSXDIR
 10
1.0
 20
0.0
 30
0.0
  9
$UCSYDIR
 10
0.0
 20
1.0
 30
0.0
  9
$PUCSNAME
  2

  9
$PUCSORG
 10
0.0
 20
0.0
 30
0.0
  9
$PUCSXDIR
 10
1.0
 20
0.0
 30
0.0
  9
$PUCSYDIR
 10
0.0
 20
1.0
 30
0.0
  9
$USERI1
 70
     0
  9
$USERI2
 70
     0
  9
$USERI3
 70
     0
  9
$USERI4
 70
     0
  9
$USERI5
 70
     0
  9
$USERR1
 40
0.0
  9
$USERR2
 40
0.0
  9
$USERR3
 40
0.0
  9
$USERR4
 40
0.0
  9
$USERR5
 40
0.0
  9
$WORLDVIEW
 70
     1
  9
$SHADEDGE
 70
     3
  9
$SHADEDIF
 70
    70
  9
$TILEMODE
 70
     1
  9
$MAXACTVP
 70
    64
  9
$PINSBASE
 10
0.0
 20
0.0
 30
0.0
  9
$PLIMCHECK
 70
     0
  9
$PEXTMIN
 10
1.000000000000000E+20
 20
1.000000000000000E+20
 30
1.000000000000000E+20
  9
$PEXTMAX
 10
-1.000000000000000E+20
 20
-1.000000000000000E+20
 30
-1.000000000000000E+20
  9
$PLIMMIN
 10
0.0
 20
0.0
  9
$PLIMMAX
 10
12.0
 20
9.0
  9
$UNITMODE
 70
     0
  9
$VISRETAIN
 70
     1
  9
$PLINEGEN
 70
     0
  9
$PSLTSCALE
 70
     1
  9
$TREEDEPTH
 70
  3020
  9
$PICKSTYLE
 70
     1
  9
$CMLSTYLE
  2
STANDARD
  9
$CMLJUST
 70
     0
  9
$CMLSCALE
 40
1.0
  9
$PROXYGRAPHICS
 70
     1
  9
$MEASUREMENT
 70
     0
  0
ENDSEC
  0
SECTION
  2
CLASSES
  0
CLASS
  1
ACDBDICTIONARYWDFLT
  2
AcDbDictionaryWithDefault
  3
ObjectDBX Classes
 90
        0
280
     0
281
     0
  0
CLASS
  1
VISUALSTYLE
  2
AcDbVisualStyle
  3
ObjectDBX Classes
 90
     4095
280
     0
281
     0
  0
CLASS
  1
MATERIAL
  2
AcDbMaterial
  3
ObjectDBX Classes
 90
     1153
280
     0
281
     0
  0
CLASS
  1
SCALE
  2
AcDbScale
  3
ObjectDBX Classes
 90
     1153
280
     0
281
     0
  0
CLASS
  1
TABLESTYLE
  2
AcDbTableStyle
  3
ObjectDBX Classes
 90
     4095
280
     0
281
     0
  0
CLASS
  1
MLEADERSTYLE
  2
AcDbMLeaderStyle
  3
ACDB_MLEADERSTYLE_CLASS
 90
     4095
280
     0
281
     0
  0
CLASS
  1
SUN
  2
AcDbSun
  3
SCENEOE
 90
     1153
280
     0
281
     0
  0
CLASS
  1
DICTIONARYVAR
  2
AcDbDictionaryVar
  3
ObjectDBX Classes
 90
        0
280
     0
281
     0
  0
CLASS
  1
XRECORD
  2
AcDbXrecord
  3
ObjectDBX Classes
 90
        0
280
     0
281
     0
  0
CLASS
  1
LWPOLYLINE
  2
AcDbPolyline
  3
ObjectDBX Classes
 90
        0
280
     0
281
     1
  0
CLASS
  1
HATCH
  2
AcDbHatch
  3
ObjectDBX Classes
 90
        0
280
     0
281
     1
  0
CLASS
  1
ACDBPLACEHOLDER
  2
AcDbPlaceHolder
  3
ObjectDBX Classes
 90
        0
280
     0
281
     0
  0
CLASS
  1
LAYOUT
  2
AcDbLayout
  3
ObjectDBX Classes
 90
        0
280
     0
281
     0
  0
ENDSEC
  0
SECTION
  2
TABLES
  0
TABLE
  2
VPORT
  5
8
102
{ACAD_XDICTIONARY
360
412
102
}
330
0
100
AcDbSymbolTable
 70
     1
  0
VPORT
  5
29
330
8
100
AcDbSymbolTableRecord
100
AcDbViewportTableRecord
  2
*ACTIVE
 70
     0
 10
0.0
 20
0.0
 11
1.0
 21
1.0
 12
0.0
 22
0.0
 13
0.0
 23
0.0
 14
0.5
 24
0.5
 15
0.5
 25
0.5
 16
0.0
 26
0.0
 36
1.0
 17
0.0
 27
0.0
 37
-1000.0
 40
25.44449692314366
 41
1.369230769230769
 42
50.0
 43
126.341584912624
 44
136.341584912624
 50
0.0
 51
0.0
 71
     0
 72
   100
 73
     1
 74
     3
 75
     0
 76
     0
 77
     0
 78
     0
  0
ENDTAB
  0
TABLE
  2
LTYPE
  5
5
330
0
100
AcDbSymbolTable
 70
     1
  0
LTYPE
  5
14
330
5
100
AcDbSymbolTableRecord
100
AcDbLinetypeTableRecord
  2
BYBLOCK
 70
     0
  3

 72
    65
 73
     0
 40
0.0
  0
LTYPE
  5
15
330
5
100
AcDbSymbolTableRecord
100
AcDbLinetypeTableRecord
  2
BYLAYER
 70
     0
  3

 72
    65
 73
     0
 40
0.0
  0
LTYPE
  5
16
330
5
100
AcDbSymbolTableRecord
100
AcDbLinetypeTableRecord
  2
CONTINUOUS
 70
     0
  3
Solid line
 72
    65
 73
     0
 40
0.0
  0
ENDTAB
  0
TABLE
  2
LAYER
  5
2
330
0
100
AcDbSymbolTable
 70
     3
  0
LAYER
  5
10
330
2
100
AcDbSymbolTableRecord
100
AcDbLayerTableRecord
  2
0
 70
     0
 62
     7
  6
CONTINUOUS
  0
LAYER
  5
5E
330
2
100
AcDbSymbolTableRecord
100
AcDbLayerTableRecord
  2
PROFILEEDGES
 70
     0
 62
     7
  6
CONTINUOUS
  0
LAYER
  5
5F
330
2
100
AcDbSymbolTableRecord
100
AcDbLayerTableRecord
  2
SECTIONCUTEDGES
 70
     0
 62
     7
  6
CONTINUOUS
  0
ENDTAB
  0
TABLE
  2
STYLE
  5
3
330
0
100
AcDbSymbolTable
 70
     1
  0
STYLE
  5
11
330
3
100
AcDbSymbolTableRecord
100
AcDbTextStyleTableRecord
  2
STANDARD
 70
     0
 40
0.0
 41
1.0
 50
0.0
 71
     0
 42
0.2
  3
txt
  4

  0
ENDTAB
  0
TABLE
  2
VIEW
  5
6
330
0
100
AcDbSymbolTable
 70
     0
  0
ENDTAB
  0
TABLE
  2
UCS
  5
7
330
0
100
AcDbSymbolTable
 70
     0
  0
ENDTAB
  0
TABLE
  2
APPID
  5
9
330
0
100
AcDbSymbolTable
 70
     2
  0
APPID
  5
12
330
9
100
AcDbSymbolTableRecord
100
AcDbRegAppTableRecord
  2
ACAD
 70
     0
  0
APPID
  5
41C
330
9
100
AcDbSymbolTableRecord
100
AcDbRegAppTableRecord
  2
ACAD_MLEADERVER
 70
     0
  0
ENDTAB
  0
TABLE
  2
DIMSTYLE
  5
A
330
0
100
AcDbSymbolTable
 70
     1
  0
DIMSTYLE
105
27
330
A
100
AcDbSymbolTableRecord
100
AcDbDimStyleTableRecord
  2
STANDARD
 70
     0
  3

  4

  5

  6

  7

 40
1.0
 41
0.18
 42
0.0625
 43
0.38
 44
0.18
 45
0.0
 46
0.0
 47
0.0
 48
0.0
140
0.18
141
0.09
142
0.0
143
25.4
144
1.0
145
0.0
146
1.0
147
0.09
 71
     0
 72
     0
 73
     1
 74
     1
 75
     0
 76
     0
 77
     0
 78
     0
170
     0
171
     2
172
     0
173
     0
174
     0
175
     0
176
     0
177
     0
178
     0
270
     2
271
     4
272
     4
273
     2
274
     2
340
11
275
     0
280
     0
281
     0
282
     0
283
     1
284
     0
285
     0
286
     0
287
     3
288
     0
  0
ENDTAB
  0
TABLE
  2
BLOCK_RECORD
  5
1
330
0
100
AcDbSymbolTable
 70
     0
  0
BLOCK_RECORD
  5
1F
330
1
100
AcDbSymbolTableRecord
100
AcDbBlockTableRecord
  2
*MODEL_SPACE
  0
BLOCK_RECORD
  5
1B
330
1
100
AcDbSymbolTableRecord
100
AcDbBlockTableRecord
  2
*PAPER_SPACE
  0
ENDTAB
  0
ENDSEC
  0
SECTION
  2
BLOCKS
  0
BLOCK
  5
20
330
1F
100
AcDbEntity
  8
0
100
AcDbBlockBegin
  2
*MODEL_SPACE
 70
     0
 10
0.0
 20
0.0
 30
0.0
  3
*MODEL_SPACE
  1

  0
ENDBLK
  5
21
330
1F
100
AcDbEntity
  8
0
100
AcDbBlockEnd
  0
BLOCK
  5
1C
330
1B
100
AcDbEntity
 67
     1
  8
0
100
AcDbBlockBegin
  2
*PAPER_SPACE
 70
     0
 10
0.0
 20
0.0
 30
0.0
  3
*PAPER_SPACE
  1

  0
ENDBLK
  5
1D
330
1B
100
AcDbEntity
 67
     1
  8
0
100
AcDbBlockEnd
  0
ENDSEC
  0
SECTION
  2
ENTITIES
  0
LINE
  5
60
330
1F
100
AcDbEntity
  8
0
100
AcDbLine
 10
-2.333809281515354
 20
-9.110000474391214
 30
0.0
 11
3.166190718484639
 21
-9.110000474391214
 31
0.0
  0
LINE
  5
61
330
1F
100
AcDbEntity
  8
0
100
AcDbLine
 10
3.166190718484639
 20
-9.110000474391214
 30
0.0
 11
3.183251321825807
 21
-9.109417666688849
 31
0.0
  0
LINE
  5
62
330
1F
100
AcDbEntity
  8
0
100
AcDbLine
 10
3.183251321825807
 20
-9.109417666688849
 30
0.0
 11
3.200232380758701
 21
-9.107671960900294
 31
0.0
  0
LINE
  5
63
330
1F
100
AcDbEntity
  8
0
100
AcDbLine
 10
3.200232380758701
 20
-9.107671960900294
 30
0.0
 11
3.217054721747798
 21
-9.104771496311795
 31
0.0
  0
LINE
  5
64
330
1F
100
AcDbEntity
  8
0
100
AcDbLine
 10
3.217054721747798
 20
-9.104771496311795
 30
0.0
 11
3.233639911273896
 21
-9.100729796228162
 31
0.0
  0
LINE
  5
65
330
1F
100
AcDbEntity
  8
0
100
AcDbLine
 10
3.233639911273896
 20
-9.100729796228162
 30
0.0
 11
3.249910621527386
 21
-9.095565704920917
 31
0.0
  0
LINE
  5
66
330
1F
100
AcDbEntity
  8
0
100
AcDbLine
 10
3.249910621527386
 20
-9.095565704920917
 30
0.0
 11
3.265790990946201
 21
-9.089303299767575
 31
0.0
  0
LINE
  5
67
330
1F
100
AcDbEntity
  8
0
100
AcDbLine
 10
3.265790990946201
 20
-9.089303299767575
 30
0.0
 11
3.28120697791743
 21
-9.081971778991806
 31
0.0
  0
LINE
  5
68
330
1F
100
AcDbEntity
  8
0
100
AcDbLine
 10
3.28120697791743
 20
-9.081971778991806
 30
0.0
 11
3.296086705993499
 21
-9.073605325527833
 31
0.0
  0
LINE
  5
69
330
1F
100
AcDbEntity
  8
0
100
AcDbLine
 10
3.296086705993499
 20
-9.073605325527833
 30
0.0
 11
3.310360799013358
 21
-9.064242947643823
 31
0.0
  0
LINE
  5
6A
330
1F
100
AcDbEntity
  8
0
100
AcDbLine
 10
3.310360799013358
 20
-9.064242947643823
 30
0.0
 11
3.323962704566155
 21
-9.053928297067316
 31
0.0
  0
LINE
  5
6B
330
1F
100
AcDbEntity
  8
0
100
AcDbLine
 10
3.323962704566155
 20
-9.053928297067316
 30
0.0
 11
3.336829004289305
 21
-9.042709465460742
 31
0.0
  0
LINE
  5
6C
330
1F
100
AcDbEntity
  8
0
100
AcDbLine
 10
3.336829004289305
 20
-9.042709465460742
 30
0.0
 11
3.348899709554173
 21
-9.030638760195874
 31
0.0
  0
LINE
  5
6D
330
1F
100
AcDbEntity
  8
0
100
AcDbLine
 10
3.348899709554173
 20
-9.030638760195874
 30
0.0
 11
3.360118541160746
 21
-9.017772460472724
 31
0.0
  0
LINE
  5
6E
330
1F
100
AcDbEntity
  8
0
100
AcDbLine
 10
3.360118541160746
 20
-9.017772460472724
 30
0.0
 11
3.370433191737252
 21
-9.004170554919927
 31
0.0
  0
LINE
  5
6F
330
1F
100
AcDbEntity
  8
0
100
AcDbLine
 10
3.370433191737252
 20
-9.004170554919927
 30
0.0
 11
3.379795569621264
 21
-8.98989646190007
 31
0.0
  0
LINE
  5
70
330
1F
100
AcDbEntity
  8
0
100
AcDbLine
 10
3.379795569621264
 20
-8.98989646190007
 30
0.0
 11
3.388162023085235
 21
-8.975016733823999
 31
0.0
  0
LINE
  5
71
330
1F
100
AcDbEntity
  8
0
100
AcDbLine
 10
3.388162023085235
 20
-8.975016733823999
 30
0.0
 11
3.395493543861004
 21
-8.959600746852772
 31
0.0
  0
LINE
  5
72
330
1F
100
AcDbEntity
  8
0
100
AcDbLine
 10
3.395493543861004
 20
-8.959600746852772
 30
0.0
 11
3.401755949014346
 21
-8.943720377433959
 31
0.0
  0
LINE
  5
73
330
1F
100
AcDbEntity
  8
0
100
AcDbLine
 10
3.401755949014346
 20
-8.943720377433959
 30
0.0
 11
3.406920040321591
 21
-8.927449667180467
 31
0.0
  0
LINE
  5
74
330
1F
100
AcDbEntity
  8
0
100
AcDbLine
 10
3.406920040321591
 20
-8.927449667180467
 30
0.0
 11
3.410961740405222
 21
-8.91086447765437
 31
0.0
  0
LINE
  5
75
330
1F
100
AcDbEntity
  8
0
100
AcDbLine
 10
3.410961740405222
 20
-8.91086447765437
 30
0.0
 11
3.413862204993725
 21
-8.894042136665274
 31
0.0
  0
LINE
  5
76
330
1F
100
AcDbEntity
  8
0
100
AcDbLine
 10
3.413862204993725
 20
-8.894042136665274
 30
0.0
 11
3.415607910782276
 21
-8.877061077732378
 31
0.0
  0
LINE
  5
77
330
1F
100
AcDbEntity
  8
0
100
AcDbLine
 10
3.415607910782276
 20
-8.877061077732378
 30
0.0
 11
3.416190718484641
 21
-8.86000047439121
 31
0.0
  0
LINE
  5
78
330
1F
100
AcDbEntity
  8
0
100
AcDbLine
 10
3.416190718484641
 20
-8.86000047439121
 30
0.0
 11
3.416190718484641
 21
-2.36000047439121
 31
0.0
  0
LINE
  5
79
330
1F
100
AcDbEntity
  8
0
100
AcDbLine
 10
3.416190718484641
 20
-2.36000047439121
 30
0.0
 11
3.415655449294292
 21
-2.343649692083675
 31
0.0
  0
LINE
  5
7A
330
1F
100
AcDbEntity
  8
0
100
AcDbLine
 10
3.415655449294292
 20
-2.343649692083675
 30
0.0
 11
3.414051933828093
 21
-2.327368926336197
 31
0.0
  0
LINE
  5
7B
330
1F
100
AcDbEntity
  8
0
100
AcDbLine
 10
3.414051933828093
 20
-2.327368926336197
 30
0.0
 11
3.411387038585449
 21
-2.311227893887178
 31
0.0
  0
LINE
  5
7C
330
1F
100
AcDbEntity
  8
0
100
AcDbLine
 10
3.411387038585449
 20
-2.311227893887178
 30
0.0
 11
3.407672175056907
 21
-2.29529571311558
 31
0.0
  0
LINE
  5
7D
330
1F
100
AcDbEntity
  8
0
100
AcDbLine
 10
3.407672175056907
 20
-2.29529571311558
 30
0.0
 11
3.402923250858418
 21
-2.279640608065421
 31
0.0
  0
LINE
  5
7E
330
1F
100
AcDbEntity
  8
0
100
AcDbLine
 10
3.402923250858418
 20
-2.279640608065421
 30
0.0
 11
3.397160601612462
 21
-2.264329616299939
 31
0.0
  0
LINE
  5
7F
330
1F
100
AcDbEntity
  8
0
100
AcDbLine
 10
3.397160601612462
 20
-2.264329616299939
 30
0.0
 11
3.390408903867813
 21
-2.249428301836462
 31
0.0
  0
LINE
  5
80
330
1F
100
AcDbEntity
  8
0
100
AcDbLine
 10
3.390408903867813
 20
-2.249428301836462
 30
0.0
 11
3.382697069430751
 21
-2.235000474391212
 31
0.0
  0
LINE
  5
81
330
1F
100
AcDbEntity
  8
0
100
AcDbLine
 10
3.382697069430751
 20
-2.235000474391212
 30
0.0
 11
3.374058121560278
 21
-2.221107916136312
 31
0.0
  0
LINE
  5
82
330
1F
100
AcDbEntity
  8
0
100
AcDbLine
 10
3.374058121560278
 20
-2.221107916136312
 30
0.0
 11
3.364529053557451
 21
-2.207810117139031
 31
0.0
  0
LINE
  5
83
330
1F
100
AcDbEntity
  8
0
100
AcDbLine
 10
3.364529053557451
 20
-2.207810117139031
 30
0.0
 11
3.354150670354386
 21
-2.195164020616195
 31
0.0
  0
LINE
  5
84
330
1F
100
AcDbEntity
  8
0
100
AcDbLine
 10
3.354150670354386
 20
-2.195164020616195
 30
0.0
 11
3.342967413781279
 21
-2.183223779094575
 31
0.0
  0
LINE
  5
85
330
1F
100
AcDbEntity
  8
0
100
AcDbLine
 10
3.342967413781279
 20
-2.183223779094575
 30
0.0
 11
3.33102717225966
 21
-2.172040522521469
 31
0.0
  0
LINE
  5
86
330
1F
100
AcDbEntity
  8
0
100
AcDbLine
 10
3.33102717225966
 20
-2.172040522521469
 30
0.0
 11
3.318381075736822
 21
-2.161662139318404
 31
0.0
  0
LINE
  5
87
330
1F
100
AcDbEntity
  8
0
100
AcDbLine
 10
3.318381075736822
 20
-2.161662139318404
 30
0.0
 11
3.305083276739543
 21
-2.152133071315577
 31
0.0
  0
LINE
  5
88
330
1F
100
AcDbEntity
  8
0
100
AcDbLine
 10
3.305083276739543
 20
-2.152133071315577
 30
0.0
 11
3.291190718484643
 21
-2.143494123445103
 31
0.0
  0
LINE
  5
89
330
1F
100
AcDbEntity
  8
0
100
AcDbLine
 10
3.291190718484643
 20
-2.143494123445103
 30
0.0
 11
3.276762891039393
 21
-2.135782289008041
 31
0.0
  0
LINE
  5
8A
330
1F
100
AcDbEntity
  8
0
100
AcDbLine
 10
3.276762891039393
 20
-2.135782289008041
 30
0.0
 11
3.261861576575916
 21
-2.129030591263392
 31
0.0
  0
LINE
  5
8B
330
1F
100
AcDbEntity
  8
0
100
AcDbLine
 10
3.261861576575916
 20
-2.129030591263392
 30
0.0
 11
3.246550584810434
 21
-2.123267942017437
 31
0.0
  0
LINE
  5
8C
330
1F
100
AcDbEntity
  8
0
100
AcDbLine
 10
3.246550584810434
 20
-2.123267942017437
 30
0.0
 11
3.230895479760273
 21
-2.118519017818947
 31
0.0
  0
LINE
  5
8D
330
1F
100
AcDbEntity
  8
0
100
AcDbLine
 10
3.230895479760273
 20
-2.118519017818947
 30
0.0
 11
3.214963298988675
 21
-2.114804154290406
 31
0.0
  0
LINE
  5
8E
330
1F
100
AcDbEntity
  8
0
100
AcDbLine
 10
3.214963298988675
 20
-2.114804154290406
 30
0.0
 11
3.198822266539656
 21
-2.112139259047762
 31
0.0
  0
LINE
  5
8F
330
1F
100
AcDbEntity
  8
0
100
AcDbLine
 10
3.198822266539656
 20
-2.112139259047762
 30
0.0
 11
3.182541500792178
 21
-2.110535743581563
 31
0.0
  0
LINE
  5
90
330
1F
100
AcDbEntity
  8
0
100
AcDbLine
 10
3.182541500792178
 20
-2.110535743581563
 30
0.0
 11
3.166190718484645
 21
-2.110000474391214
 31
0.0
  0
LINE
  5
91
330
1F
100
AcDbEntity
  8
0
100
AcDbLine
 10
3.166190718484645
 20
-2.110000474391214
 30
0.0
 11
-2.333809281515359
 21
-2.110000474391214
 31
0.0
  0
LINE
  5
92
330
1F
100
AcDbEntity
  8
0
100
AcDbLine
 10
-2.333809281515359
 20
-2.110000474391214
 30
0.0
 11
-2.350160063822894
 21
-2.110535743581563
 31
0.0
  0
LINE
  5
93
330
1F
100
AcDbEntity
  8
0
100
AcDbLine
 10
-2.350160063822894
 20
-2.110535743581563
 30
0.0
 11
-2.36644082957037
 21
-2.112139259047762
 31
0.0
  0
LINE
  5
94
330
1F
100
AcDbEntity
  8
0
100
AcDbLine
 10
-2.36644082957037
 20
-2.112139259047762
 30
0.0
 11
-2.382581862019391
 21
-2.114804154290407
 31
0.0
  0
LINE
  5
95
330
1F
100
AcDbEntity
  8
0
100
AcDbLine
 10
-2.382581862019391
 20
-2.114804154290407
 30
0.0
 11
-2.398514042790987
 21
-2.118519017818947
 31
0.0
  0
LINE
  5
96
330
1F
100
AcDbEntity
  8
0
100
AcDbLine
 10
-2.398514042790987
 20
-2.118519017818947
 30
0.0
 11
-2.414169147841148
 21
-2.123267942017439
 31
0.0
  0
LINE
  5
97
330
1F
100
AcDbEntity
  8
0
100
AcDbLine
 10
-2.414169147841148
 20
-2.123267942017439
 30
0.0
 11
-2.42948013960663
 21
-2.129030591263392
 31
0.0
  0
LINE
  5
98
330
1F
100
AcDbEntity
  8
0
100
AcDbLine
 10
-2.42948013960663
 20
-2.129030591263392
 30
0.0
 11
-2.444381454070108
 21
-2.135782289008041
 31
0.0
  0
LINE
  5
99
330
1F
100
AcDbEntity
  8
0
100
AcDbLine
 10
-2.444381454070108
 20
-2.135782289008041
 30
0.0
 11
-2.458809281515357
 21
-2.143494123445105
 31
0.0
  0
LINE
  5
9A
330
1F
100
AcDbEntity
  8
0
100
AcDbLine
 10
-2.458809281515357
 20
-2.143494123445105
 30
0.0
 11
-2.472701839770258
 21
-2.152133071315578
 31
0.0
  0
LINE
  5
9B
330
1F
100
AcDbEntity
  8
0
100
AcDbLine
 10
-2.472701839770258
 20
-2.152133071315578
 30
0.0
 11
-2.485999638767536
 21
-2.161662139318405
 31
0.0
  0
LINE
  5
9C
330
1F
100
AcDbEntity
  8
0
100
AcDbLine
 10
-2.485999638767536
 20
-2.161662139318405
 30
0.0
 11
-2.498645735290374
 21
-2.172040522521469
 31
0.0
  0
LINE
  5
9D
330
1F
100
AcDbEntity
  8
0
100
AcDbLine
 10
-2.498645735290374
 20
-2.172040522521469
 30
0.0
 11
-2.510585976811994
 21
-2.183223779094577
 31
0.0
  0
LINE
  5
9E
330
1F
100
AcDbEntity
  8
0
100
AcDbLine
 10
-2.510585976811994
 20
-2.183223779094577
 30
0.0
 11
-2.521769233385101
 21
-2.195164020616197
 31
0.0
  0
LINE
  5
9F
330
1F
100
AcDbEntity
  8
0
100
AcDbLine
 10
-2.521769233385101
 20
-2.195164020616197
 30
0.0
 11
-2.532147616588166
 21
-2.207810117139033
 31
0.0
  0
LINE
  5
A0
330
1F
100
AcDbEntity
  8
0
100
AcDbLine
 10
-2.532147616588166
 20
-2.207810117139033
 30
0.0
 11
-2.541676684590993
 21
-2.221107916136313
 31
0.0
  0
LINE
  5
A1
330
1F
100
AcDbEntity
  8
0
100
AcDbLine
 10
-2.541676684590993
 20
-2.221107916136313
 30
0.0
 11
-2.550315632461466
 21
-2.235000474391214
 31
0.0
  0
LINE
  5
A2
330
1F
100
AcDbEntity
  8
0
100
AcDbLine
 10
-2.550315632461466
 20
-2.235000474391214
 30
0.0
 11
-2.558027466898528
 21
-2.249428301836463
 31
0.0
  0
LINE
  5
A3
330
1F
100
AcDbEntity
  8
0
100
AcDbLine
 10
-2.558027466898528
 20
-2.249428301836463
 30
0.0
 11
-2.564779164643177
 21
-2.264329616299941
 31
0.0
  0
LINE
  5
A4
330
1F
100
AcDbEntity
  8
0
100
AcDbLine
 10
-2.564779164643177
 20
-2.264329616299941
 30
0.0
 11
-2.570541813889131
 21
-2.279640608065423
 31
0.0
  0
LINE
  5
A5
330
1F
100
AcDbEntity
  8
0
100
AcDbLine
 10
-2.570541813889131
 20
-2.279640608065423
 30
0.0
 11
-2.575290738087622
 21
-2.295295713115582
 31
0.0
  0
LINE
  5
A6
330
1F
100
AcDbEntity
  8
0
100
AcDbLine
 10
-2.575290738087622
 20
-2.295295713115582
 30
0.0
 11
-2.579005601616164
 21
-2.31122789388718
 31
0.0
  0
LINE
  5
A7
330
1F
100
AcDbEntity
  8
0
100
AcDbLine
 10
-2.579005601616164
 20
-2.31122789388718
 30
0.0
 11
-2.581670496858807
 21
-2.327368926336199
 31
0.0
  0
LINE
  5
A8
330
1F
100
AcDbEntity
  8
0
100
AcDbLine
 10
-2.581670496858807
 20
-2.327368926336199
 30
0.0
 11
-2.583274012325006
 21
-2.343649692083677
 31
0.0
  0
LINE
  5
A9
330
1F
100
AcDbEntity
  8
0
100
AcDbLine
 10
-2.583274012325006
 20
-2.343649692083677
 30
0.0
 11
-2.583809281515355
 21
-2.360000474391212
 31
0.0
  0
LINE
  5
AA
330
1F
100
AcDbEntity
  8
0
100
AcDbLine
 10
-2.583809281515355
 20
-2.360000474391212
 30
0.0
 11
-2.583809281515355
 21
-8.86000047439121
 31
0.0
  0
LINE
  5
AB
330
1F
100
AcDbEntity
  8
0
100
AcDbLine
 10
-2.583809281515355
 20
-8.86000047439121
 30
0.0
 11
-2.58322647381299
 21
-8.877061077732378
 31
0.0
  0
LINE
  5
AC
330
1F
100
AcDbEntity
  8
0
100
AcDbLine
 10
-2.58322647381299
 20
-8.877061077732378
 30
0.0
 11
-2.58148076802444
 21
-8.894042136665272
 31
0.0
  0
LINE
  5
AD
330
1F
100
AcDbEntity
  8
0
100
AcDbLine
 10
-2.58148076802444
 20
-8.894042136665272
 30
0.0
 11
-2.578580303435936
 21
-8.910864477654368
 31
0.0
  0
LINE
  5
AE
330
1F
100
AcDbEntity
  8
0
100
AcDbLine
 10
-2.578580303435936
 20
-8.910864477654368
 30
0.0
 11
-2.574538603352305
 21
-8.927449667180467
 31
0.0
  0
LINE
  5
AF
330
1F
100
AcDbEntity
  8
0
100
AcDbLine
 10
-2.574538603352305
 20
-8.927449667180467
 30
0.0
 11
-2.56937451204506
 21
-8.943720377433959
 31
0.0
  0
LINE
  5
B0
330
1F
100
AcDbEntity
  8
0
100
AcDbLine
 10
-2.56937451204506
 20
-8.943720377433959
 30
0.0
 11
-2.563112106891719
 21
-8.959600746852772
 31
0.0
  0
LINE
  5
B1
330
1F
100
AcDbEntity
  8
0
100
AcDbLine
 10
-2.563112106891719
 20
-8.959600746852772
 30
0.0
 11
-2.555780586115949
 21
-8.975016733823999
 31
0.0
  0
LINE
  5
B2
330
1F
100
AcDbEntity
  8
0
100
AcDbLine
 10
-2.555780586115949
 20
-8.975016733823999
 30
0.0
 11
-2.547414132651978
 21
-8.98989646190007
 31
0.0
  0
LINE
  5
B3
330
1F
100
AcDbEntity
  8
0
100
AcDbLine
 10
-2.547414132651978
 20
-8.98989646190007
 30
0.0
 11
-2.538051754767967
 21
-9.004170554919927
 31
0.0
  0
LINE
  5
B4
330
1F
100
AcDbEntity
  8
0
100
AcDbLine
 10
-2.538051754767967
 20
-9.004170554919927
 30
0.0
 11
-2.527737104191461
 21
-9.017772460472724
 31
0.0
  0
LINE
  5
B5
330
1F
100
AcDbEntity
  8
0
100
AcDbLine
 10
-2.527737104191461
 20
-9.017772460472724
 30
0.0
 11
-2.516518272584886
 21
-9.030638760195876
 31
0.0
  0
LINE
  5
B6
330
1F
100
AcDbEntity
  8
0
100
AcDbLine
 10
-2.516518272584886
 20
-9.030638760195876
 30
0.0
 11
-2.504447567320019
 21
-9.042709465460742
 31
0.0
  0
LINE
  5
B7
330
1F
100
AcDbEntity
  8
0
100
AcDbLine
 10
-2.504447567320019
 20
-9.042709465460742
 30
0.0
 11
-2.491581267596869
 21
-9.053928297067317
 31
0.0
  0
LINE
  5
B8
330
1F
100
AcDbEntity
  8
0
100
AcDbLine
 10
-2.491581267596869
 20
-9.053928297067317
 30
0.0
 11
-2.477979362044072
 21
-9.064242947643823
 31
0.0
  0
LINE
  5
B9
330
1F
100
AcDbEntity
  8
0
100
AcDbLine
 10
-2.477979362044072
 20
-9.064242947643823
 30
0.0
 11
-2.463705269024214
 21
-9.073605325527835
 31
0.0
  0
LINE
  5
BA
330
1F
100
AcDbEntity
  8
0
100
AcDbLine
 10
-2.463705269024214
 20
-9.073605325527835
 30
0.0
 11
-2.448825540948143
 21
-9.081971778991806
 31
0.0
  0
LINE
  5
BB
330
1F
100
AcDbEntity
  8
0
100
AcDbLine
 10
-2.448825540948143
 20
-9.081971778991806
 30
0.0
 11
-2.433409553976915
 21
-9.089303299767575
 31
0.0
  0
LINE
  5
BC
330
1F
100
AcDbEntity
  8
0
100
AcDbLine
 10
-2.433409553976915
 20
-9.089303299767575
 30
0.0
 11
-2.4175291845581
 21
-9.095565704920917
 31
0.0
  0
LINE
  5
BD
330
1F
100
AcDbEntity
  8
0
100
AcDbLine
 10
-2.4175291845581
 20
-9.095565704920917
 30
0.0
 11
-2.40125847430461
 21
-9.100729796228162
 31
0.0
  0
LINE
  5
BE
330
1F
100
AcDbEntity
  8
0
100
AcDbLine
 10
-2.40125847430461
 20
-9.100729796228162
 30
0.0
 11
-2.384673284778513
 21
-9.104771496311793
 31
0.0
  0
LINE
  5
BF
330
1F
100
AcDbEntity
  8
0
100
AcDbLine
 10
-2.384673284778513
 20
-9.104771496311793
 30
0.0
 11
-2.367850943789415
 21
-9.107671960900294
 31
0.0
  0
LINE
  5
C0
330
1F
100
AcDbEntity
  8
0
100
AcDbLine
 10
-2.367850943789415
 20
-9.107671960900294
 30
0.0
 11
-2.350869884856522
 21
-9.109417666688849
 31
0.0
  0
LINE
  5
C1
330
1F
100
AcDbEntity
  8
0
100
AcDbLine
 10
-2.350869884856522
 20
-9.109417666688849
 30
0.0
 11
-2.333809281515354
 21
-9.110000474391214
 31
0.0
  0
LINE
  5
C2
330
1F
100
AcDbEntity
  8
0
100
AcDbLine
 10
-5.583809098562804
 20
-10.11000047439121
 30
0.0
 11
6.416190904167829
 21
-10.11000047439121
 31
0.0
  0
LINE
  5
C3
330
1F
100
AcDbEntity
  8
0
100
AcDbLine
 10
6.416190904167829
 20
-10.11000047439121
 30
0.0
 11
6.416190716280889
 21
-8.110000474391212
 31
0.0
  0
LINE
  5
C4
330
1F
100
AcDbEntity
  8
0
100
AcDbLine
 10
6.416190716280889
 20
-8.110000474391212
 30
0.0
 11
6.413892301697866
 21
-8.056514904019682
 31
0.0
  0
LINE
  5
C5
330
1F
100
AcDbEntity
  8
0
100
AcDbLine
 10
6.413892301697866
 20
-8.056514904019682
 30
0.0
 11
6.406815095490606
 21
-7.862282210927427
 31
0.0
  0
LINE
  5
C6
330
1F
100
AcDbEntity
  8
0
100
AcDbLine
 10
6.406815095490606
 20
-7.862282210927427
 30
0.0
 11
6.397813451802795
 21
-7.471055416205839
 31
0.0
  0
LINE
  5
C7
330
1F
100
AcDbEntity
  8
0
100
AcDbLine
 10
6.397813451802795
 20
-7.471055416205839
 30
0.0
 11
6.394559729604191
 21
-6.857736137931244
 31
0.0
  0
LINE
  5
C8
330
1F
100
AcDbEntity
  8
0
100
AcDbLine
 10
6.394559729604191
 20
-6.857736137931244
 30
0.0
 11
6.408653649465931
 21
-6.017849324183098
 31
0.0
  0
LINE
  5
C9
330
1F
100
AcDbEntity
  8
0
100
AcDbLine
 10
6.408653649465931
 20
-6.017849324183098
 30
0.0
 11
6.455384370359516
 21
-4.966270497379833
 31
0.0
  0
LINE
  5
CA
330
1F
100
AcDbEntity
  8
0
100
AcDbLine
 10
6.455384370359516
 20
-4.966270497379833
 30
0.0
 11
6.553175225698928
 21
-3.731722597926321
 31
0.0
  0
LINE
  5
CB
330
1F
100
AcDbEntity
  8
0
100
AcDbLine
 10
6.553175225698928
 20
-3.731722597926321
 30
0.0
 11
6.723011352562514
 21
-2.35181569006147
 31
0.0
  0
LINE
  5
CC
330
1F
100
AcDbEntity
  8
0
100
AcDbLine
 10
6.723011352562514
 20
-2.35181569006147
 30
0.0
 11
6.987944193777553
 21
-0.8704514161702726
 31
0.0
  0
LINE
  5
CD
330
1F
100
AcDbEntity
  8
0
100
AcDbLine
 10
6.987944193777553
 20
-0.8704514161702726
 30
0.0
 11
7.372430678772988
 21
0.6651835055527258
 31
0.0
  0
LINE
  5
CE
330
1F
100
AcDbEntity
  8
0
100
AcDbLine
 10
7.372430678772988
 20
0.6651835055527258
 30
0.0
 11
7.901492648938413
 21
2.207596904529179
 31
0.0
  0
LINE
  5
CF
330
1F
100
AcDbEntity
  8
0
100
AcDbLine
 10
7.901492648938413
 20
2.207596904529179
 30
0.0
 11
8.59967652387211
 21
3.711450995948528
 31
0.0
  0
LINE
  5
D0
330
1F
100
AcDbEntity
  8
0
100
AcDbLine
 10
8.59967652387211
 20
3.711450995948528
 30
0.0
 11
9.489701108090058
 21
5.136166373129459
 31
0.0
  0
LINE
  5
D1
330
1F
100
AcDbEntity
  8
0
100
AcDbLine
 10
9.489701108090058
 20
5.136166373129459
 30
0.0
 11
10.59073029414294
 21
6.448774776479656
 31
0.0
  0
LINE
  5
D2
330
1F
100
AcDbEntity
  8
0
100
AcDbLine
 10
10.59073029414294
 20
6.448774776479656
 30
0.0
 11
11.91619064734614
 21
7.626999415018066
 31
0.0
  0
LINE
  5
D3
330
1F
100
AcDbEntity
  8
0
100
AcDbLine
 10
11.91619064734614
 20
7.626999415018066
 30
0.0
 11
11.91619064973825
 21
8.266999415018066
 31
0.0
  0
LINE
  5
D4
330
1F
100
AcDbEntity
  8
0
100
AcDbLine
 10
11.91619064973825
 20
8.266999415018066
 30
0.0
 11
5.228690649738253
 21
8.266999488062549
 31
0.0
  0
LINE
  5
D5
330
1F
100
AcDbEntity
  8
0
100
AcDbLine
 10
5.228690649738253
 20
8.266999488062549
 30
0.0
 11
5.229006519452133
 21
8.892960830827672
 31
0.0
  0
LINE
  5
D6
330
1F
100
AcDbEntity
  8
0
100
AcDbLine
 10
5.229006519452133
 20
8.892960830827672
 30
0.0
 11
-10.26580899972497
 21
8.900779752876588
 31
0.0
  0
LINE
  5
D7
330
1F
100
AcDbEntity
  8
0
100
AcDbLine
 10
-10.26580899972497
 20
8.900779752876588
 30
0.0
 11
-11.08380903848883
 21
8.900779752876588
 31
0.0
  0
LINE
  5
D8
330
1F
100
AcDbEntity
  8
0
100
AcDbLine
 10
-11.08380903848883
 20
8.900779752876588
 30
0.0
 11
-11.08380903848883
 21
7.626999540627278
 31
0.0
  0
LINE
  5
D9
330
1F
100
AcDbEntity
  8
0
100
AcDbLine
 10
-11.08380903848883
 20
7.626999540627278
 30
0.0
 11
-9.758348296039184
 21
6.448774473394653
 31
0.0
  0
LINE
  5
DA
330
1F
100
AcDbEntity
  8
0
100
AcDbLine
 10
-9.758348296039184
 20
6.448774473394653
 30
0.0
 11
-8.657318867492949
 21
5.136165560630499
 31
0.0
  0
LINE
  5
DB
330
1F
100
AcDbEntity
  8
0
100
AcDbLine
 10
-8.657318867492949
 20
5.136165560630499
 30
0.0
 11
-7.76729417066834
 21
3.71144962120847
 31
0.0
  0
LINE
  5
DC
330
1F
100
AcDbEntity
  8
0
100
AcDbLine
 10
-7.76729417066834
 20
3.71144962120847
 30
0.0
 11
-7.069110289961443
 21
2.207594954637475
 31
0.0
  0
LINE
  5
DD
330
1F
100
AcDbEntity
  8
0
100
AcDbLine
 10
-7.069110289961443
 20
2.207594954637475
 30
0.0
 11
-6.540048394891834
 21
0.6651810146634958
 31
0.0
  0
LINE
  5
DE
330
1F
100
AcDbEntity
  8
0
100
AcDbLine
 10
-6.540048394891834
 20
0.6651810146634958
 30
0.0
 11
-6.155562039408912
 21
-0.8704543641659317
 31
0.0
  0
LINE
  5
DF
330
1F
100
AcDbEntity
  8
0
100
AcDbLine
 10
-6.155562039408912
 20
-0.8704543641659317
 30
0.0
 11
-5.890629356928253
 21
-2.351818962715528
 31
0.0
  0
LINE
  5
E0
330
1F
100
AcDbEntity
  8
0
100
AcDbLine
 10
-5.890629356928253
 20
-2.351818962715528
 30
0.0
 11
-5.720793395414319
 21
-3.731726019953502
 31
0.0
  0
LINE
  5
E1
330
1F
100
AcDbEntity
  8
0
100
AcDbLine
 10
-5.720793395414319
 20
-3.731726019953502
 30
0.0
 11
-5.62300269306849
 21
-4.96627386251159
 31
0.0
  0
LINE
  5
E2
330
1F
100
AcDbEntity
  8
0
100
AcDbLine
 10
-5.62300269306849
 20
-4.96627386251159
 30
0.0
 11
-5.57627209810931
 21
-6.017852410303469
 31
0.0
  0
LINE
  5
E3
330
1F
100
AcDbEntity
  8
0
100
AcDbLine
 10
-5.57627209810931
 20
-6.017852410303469
 30
0.0
 11
-5.56217826739614
 21
-6.857738728818566
 31
0.0
  0
LINE
  5
E4
330
1F
100
AcDbEntity
  8
0
100
AcDbLine
 10
-5.56217826739614
 20
-6.857738728818566
 30
0.0
 11
-5.565432038681108
 21
-7.47105734151838
 31
0.0
  0
LINE
  5
E5
330
1F
100
AcDbEntity
  8
0
100
AcDbLine
 10
-5.565432038681108
 20
-7.47105734151838
 30
0.0
 11
-5.574433694523987
 21
-7.862283382283689
 31
0.0
  0
LINE
  5
E6
330
1F
100
AcDbEntity
  8
0
100
AcDbLine
 10
-5.574433694523987
 20
-7.862283382283689
 30
0.0
 11
-5.581510885863669
 21
-8.05651535313123
 31
0.0
  0
LINE
  5
E7
330
1F
100
AcDbEntity
  8
0
100
AcDbLine
 10
-5.581510885863669
 20
-8.05651535313123
 30
0.0
 11
-5.583809281515356
 21
-8.110000474391212
 31
0.0
  0
LINE
  5
E8
330
1F
100
AcDbEntity
  8
0
100
AcDbLine
 10
-5.583809281515356
 20
-8.110000474391212
 30
0.0
 11
-5.583809098562804
 21
-10.11000047439121
 31
0.0
  0
LINE
  5
E9
330
1F
100
AcDbEntity
  8
0
100
AcDbLine
 10
-6.458809040644295
 20
7.326999540627273
 30
0.0
 11
-6.459076675239469
 21
7.33517493178104
 31
0.0
  0
LINE
  5
EA
330
1F
100
AcDbEntity
  8
0
100
AcDbLine
 10
-6.459076675239469
 20
7.33517493178104
 30
0.0
 11
-6.459878432972569
 21
7.343315314654781
 31
0.0
  0
LINE
  5
EB
330
1F
100
AcDbEntity
  8
0
100
AcDbLine
 10
-6.459878432972569
 20
7.343315314654781
 30
0.0
 11
-6.461210880593891
 21
7.351385830879288
 31
0.0
  0
LINE
  5
EC
330
1F
100
AcDbEntity
  8
0
100
AcDbLine
 10
-6.461210880593891
 20
7.351385830879288
 30
0.0
 11
-6.463068312358161
 21
7.359351921265088
 31
0.0
  0
LINE
  5
ED
330
1F
100
AcDbEntity
  8
0
100
AcDbLine
 10
-6.463068312358161
 20
7.359351921265088
 30
0.0
 11
-6.465442774457406
 21
7.367179473790166
 31
0.0
  0
LINE
  5
EE
330
1F
100
AcDbEntity
  8
0
100
AcDbLine
 10
-6.465442774457406
 20
7.367179473790166
 30
0.0
 11
-6.468324099080384
 21
7.374834969672911
 31
0.0
  0
LINE
  5
EF
330
1F
100
AcDbEntity
  8
0
100
AcDbLine
 10
-6.468324099080384
 20
7.374834969672911
 30
0.0
 11
-6.471699947952708
 21
7.382285626904647
 31
0.0
  0
LINE
  5
F0
330
1F
100
AcDbEntity
  8
0
100
AcDbLine
 10
-6.471699947952708
 20
7.382285626904647
 30
0.0
 11
-6.475555865171239
 21
7.389499540627273
 31
0.0
  0
LINE
  5
F1
330
1F
100
AcDbEntity
  8
0
100
AcDbLine
 10
-6.475555865171239
 20
7.389499540627273
 30
0.0
 11
-6.479875339106476
 21
7.396445819754724
 31
0.0
  0
LINE
  5
F2
330
1F
100
AcDbEntity
  8
0
100
AcDbLine
 10
-6.479875339106476
 20
7.396445819754724
 30
0.0
 11
-6.48463987310789
 21
7.403094719253364
 31
0.0
  0
LINE
  5
F3
330
1F
100
AcDbEntity
  8
0
100
AcDbLine
 10
-6.48463987310789
 20
7.403094719253364
 30
0.0
 11
-6.489829064709422
 21
7.409417767514782
 31
0.0
  0
LINE
  5
F4
330
1F
100
AcDbEntity
  8
0
100
AcDbLine
 10
-6.489829064709422
 20
7.409417767514782
 30
0.0
 11
-6.495420692995975
 21
7.415387888275589
 31
0.0
  0
LINE
  5
F5
330
1F
100
AcDbEntity
  8
0
100
AcDbLine
 10
-6.495420692995975
 20
7.415387888275589
 30
0.0
 11
-6.501390813756785
 21
7.420979516562145
 31
0.0
  0
LINE
  5
F6
330
1F
100
AcDbEntity
  8
0
100
AcDbLine
 10
-6.501390813756785
 20
7.420979516562145
 30
0.0
 11
-6.507713862018204
 21
7.426168708163676
 31
0.0
  0
LINE
  5
F7
330
1F
100
AcDbEntity
  8
0
100
AcDbLine
 10
-6.507713862018204
 20
7.426168708163676
 30
0.0
 11
-6.514362761516844
 21
7.430933242165089
 31
0.0
  0
LINE
  5
F8
330
1F
100
AcDbEntity
  8
0
100
AcDbLine
 10
-6.514362761516844
 20
7.430933242165089
 30
0.0
 11
-6.521309040644294
 21
7.435252716100326
 31
0.0
  0
LINE
  5
F9
330
1F
100
AcDbEntity
  8
0
100
AcDbLine
 10
-6.521309040644294
 20
7.435252716100326
 30
0.0
 11
-6.528522954366919
 21
7.43910863331886
 31
0.0
  0
LINE
  5
FA
330
1F
100
AcDbEntity
  8
0
100
AcDbLine
 10
-6.528522954366919
 20
7.43910863331886
 30
0.0
 11
-6.535973611598657
 21
7.442484482191183
 31
0.0
  0
LINE
  5
FB
330
1F
100
AcDbEntity
  8
0
100
AcDbLine
 10
-6.535973611598657
 20
7.442484482191183
 30
0.0
 11
-6.543629107481398
 21
7.445365806814159
 31
0.0
  0
LINE
  5
FC
330
1F
100
AcDbEntity
  8
0
100
AcDbLine
 10
-6.543629107481398
 20
7.445365806814159
 30
0.0
 11
-6.551456660006478
 21
7.447740268913407
 31
0.0
  0
LINE
  5
FD
330
1F
100
AcDbEntity
  8
0
100
AcDbLine
 10
-6.551456660006478
 20
7.447740268913407
 30
0.0
 11
-6.559422750392277
 21
7.449597700677675
 31
0.0
  0
LINE
  5
FE
330
1F
100
AcDbEntity
  8
0
100
AcDbLine
 10
-6.559422750392277
 20
7.449597700677675
 30
0.0
 11
-6.567493266616786
 21
7.450930148298998
 31
0.0
  0
LINE
  5
FF
330
1F
100
AcDbEntity
  8
0
100
AcDbLine
 10
-6.567493266616786
 20
7.450930148298998
 30
0.0
 11
-6.575633649490525
 21
7.451731906032098
 31
0.0
  0
LINE
  5
100
330
1F
100
AcDbEntity
  8
0
100
AcDbLine
 10
-6.575633649490525
 20
7.451731906032098
 30
0.0
 11
-6.583809040644293
 21
7.45199954062727
 31
0.0
  0
LINE
  5
101
330
1F
100
AcDbEntity
  8
0
100
AcDbLine
 10
-6.583809040644293
 20
7.45199954062727
 30
0.0
 11
-6.59198443179806
 21
7.451731906032098
 31
0.0
  0
LINE
  5
102
330
1F
100
AcDbEntity
  8
0
100
AcDbLine
 10
-6.59198443179806
 20
7.451731906032098
 30
0.0
 11
-6.600124814671799
 21
7.450930148298998
 31
0.0
  0
LINE
  5
103
330
1F
100
AcDbEntity
  8
0
100
AcDbLine
 10
-6.600124814671799
 20
7.450930148298998
 30
0.0
 11
-6.608195330896309
 21
7.449597700677675
 31
0.0
  0
LINE
  5
104
330
1F
100
AcDbEntity
  8
0
100
AcDbLine
 10
-6.608195330896309
 20
7.449597700677675
 30
0.0
 11
-6.616161421282108
 21
7.447740268913407
 31
0.0
  0
LINE
  5
105
330
1F
100
AcDbEntity
  8
0
100
AcDbLine
 10
-6.616161421282108
 20
7.447740268913407
 30
0.0
 11
-6.623988973807188
 21
7.445365806814159
 31
0.0
  0
LINE
  5
106
330
1F
100
AcDbEntity
  8
0
100
AcDbLine
 10
-6.623988973807188
 20
7.445365806814159
 30
0.0
 11
-6.631644469689928
 21
7.442484482191183
 31
0.0
  0
LINE
  5
107
330
1F
100
AcDbEntity
  8
0
100
AcDbLine
 10
-6.631644469689928
 20
7.442484482191183
 30
0.0
 11
-6.639095126921667
 21
7.43910863331886
 31
0.0
  0
LINE
  5
108
330
1F
100
AcDbEntity
  8
0
100
AcDbLine
 10
-6.639095126921667
 20
7.43910863331886
 30
0.0
 11
-6.646309040644292
 21
7.435252716100326
 31
0.0
  0
LINE
  5
109
330
1F
100
AcDbEntity
  8
0
100
AcDbLine
 10
-6.646309040644292
 20
7.435252716100326
 30
0.0
 11
-6.653255319771742
 21
7.430933242165089
 31
0.0
  0
LINE
  5
10A
330
1F
100
AcDbEntity
  8
0
100
AcDbLine
 10
-6.653255319771742
 20
7.430933242165089
 30
0.0
 11
-6.659904219270381
 21
7.426168708163676
 31
0.0
  0
LINE
  5
10B
330
1F
100
AcDbEntity
  8
0
100
AcDbLine
 10
-6.659904219270381
 20
7.426168708163676
 30
0.0
 11
-6.6662272675318
 21
7.420979516562145
 31
0.0
  0
LINE
  5
10C
330
1F
100
AcDbEntity
  8
0
100
AcDbLine
 10
-6.6662272675318
 20
7.420979516562145
 30
0.0
 11
-6.67219738829261
 21
7.415387888275589
 31
0.0
  0
LINE
  5
10D
330
1F
100
AcDbEntity
  8
0
100
AcDbLine
 10
-6.67219738829261
 20
7.415387888275589
 30
0.0
 11
-6.677789016579164
 21
7.409417767514782
 31
0.0
  0
LINE
  5
10E
330
1F
100
AcDbEntity
  8
0
100
AcDbLine
 10
-6.677789016579164
 20
7.409417767514782
 30
0.0
 11
-6.682978208180696
 21
7.403094719253364
 31
0.0
  0
LINE
  5
10F
330
1F
100
AcDbEntity
  8
0
100
AcDbLine
 10
-6.682978208180696
 20
7.403094719253364
 30
0.0
 11
-6.68774274218211
 21
7.396445819754724
 31
0.0
  0
LINE
  5
110
330
1F
100
AcDbEntity
  8
0
100
AcDbLine
 10
-6.68774274218211
 20
7.396445819754724
 30
0.0
 11
-6.692062216117346
 21
7.389499540627273
 31
0.0
  0
LINE
  5
111
330
1F
100
AcDbEntity
  8
0
100
AcDbLine
 10
-6.692062216117346
 20
7.389499540627273
 30
0.0
 11
-6.695918133335877
 21
7.382285626904647
 31
0.0
  0
LINE
  5
112
330
1F
100
AcDbEntity
  8
0
100
AcDbLine
 10
-6.695918133335877
 20
7.382285626904647
 30
0.0
 11
-6.699293982208202
 21
7.374834969672911
 31
0.0
  0
LINE
  5
113
330
1F
100
AcDbEntity
  8
0
100
AcDbLine
 10
-6.699293982208202
 20
7.374834969672911
 30
0.0
 11
-6.70217530683118
 21
7.36717947379017
 31
0.0
  0
LINE
  5
114
330
1F
100
AcDbEntity
  8
0
100
AcDbLine
 10
-6.70217530683118
 20
7.36717947379017
 30
0.0
 11
-6.704549768930424
 21
7.359351921265088
 31
0.0
  0
LINE
  5
115
330
1F
100
AcDbEntity
  8
0
100
AcDbLine
 10
-6.704549768930424
 20
7.359351921265088
 30
0.0
 11
-6.706407200694695
 21
7.351385830879288
 31
0.0
  0
LINE
  5
116
330
1F
100
AcDbEntity
  8
0
100
AcDbLine
 10
-6.706407200694695
 20
7.351385830879288
 30
0.0
 11
-6.707739648316017
 21
7.343315314654781
 31
0.0
  0
LINE
  5
117
330
1F
100
AcDbEntity
  8
0
100
AcDbLine
 10
-6.707739648316017
 20
7.343315314654781
 30
0.0
 11
-6.708541406049116
 21
7.33517493178104
 31
0.0
  0
LINE
  5
118
330
1F
100
AcDbEntity
  8
0
100
AcDbLine
 10
-6.708541406049116
 20
7.33517493178104
 30
0.0
 11
-6.708809040644291
 21
7.326999540627273
 31
0.0
  0
LINE
  5
119
330
1F
100
AcDbEntity
  8
0
100
AcDbLine
 10
-6.708809040644291
 20
7.326999540627273
 30
0.0
 11
-6.708541406049116
 21
7.318824149473507
 31
0.0
  0
LINE
  5
11A
330
1F
100
AcDbEntity
  8
0
100
AcDbLine
 10
-6.708541406049116
 20
7.318824149473507
 30
0.0
 11
-6.707739648316017
 21
7.310683766599766
 31
0.0
  0
LINE
  5
11B
330
1F
100
AcDbEntity
  8
0
100
AcDbLine
 10
-6.707739648316017
 20
7.310683766599766
 30
0.0
 11
-6.706407200694695
 21
7.302613250375259
 31
0.0
  0
LINE
  5
11C
330
1F
100
AcDbEntity
  8
0
100
AcDbLine
 10
-6.706407200694695
 20
7.302613250375259
 30
0.0
 11
-6.704549768930424
 21
7.294647159989459
 31
0.0
  0
LINE
  5
11D
330
1F
100
AcDbEntity
  8
0
100
AcDbLine
 10
-6.704549768930424
 20
7.294647159989459
 30
0.0
 11
-6.70217530683118
 21
7.286819607464381
 31
0.0
  0
LINE
  5
11E
330
1F
100
AcDbEntity
  8
0
100
AcDbLine
 10
-6.70217530683118
 20
7.286819607464381
 30
0.0
 11
-6.699293982208202
 21
7.27916411158164
 31
0.0
  0
LINE
  5
11F
330
1F
100
AcDbEntity
  8
0
100
AcDbLine
 10
-6.699293982208202
 20
7.27916411158164
 30
0.0
 11
-6.695918133335877
 21
7.2717134543499
 31
0.0
  0
LINE
  5
120
330
1F
100
AcDbEntity
  8
0
100
AcDbLine
 10
-6.695918133335877
 20
7.2717134543499
 30
0.0
 11
-6.692062216117346
 21
7.264499540627273
 31
0.0
  0
LINE
  5
121
330
1F
100
AcDbEntity
  8
0
100
AcDbLine
 10
-6.692062216117346
 20
7.264499540627273
 30
0.0
 11
-6.68774274218211
 21
7.257553261499826
 31
0.0
  0
LINE
  5
122
330
1F
100
AcDbEntity
  8
0
100
AcDbLine
 10
-6.68774274218211
 20
7.257553261499826
 30
0.0
 11
-6.682978208180696
 21
7.250904362001183
 31
0.0
  0
LINE
  5
123
330
1F
100
AcDbEntity
  8
0
100
AcDbLine
 10
-6.682978208180696
 20
7.250904362001183
 30
0.0
 11
-6.677789016579164
 21
7.244581313739765
 31
0.0
  0
LINE
  5
124
330
1F
100
AcDbEntity
  8
0
100
AcDbLine
 10
-6.677789016579164
 20
7.244581313739765
 30
0.0
 11
-6.67219738829261
 21
7.238611192978958
 31
0.0
  0
LINE
  5
125
330
1F
100
AcDbEntity
  8
0
100
AcDbLine
 10
-6.67219738829261
 20
7.238611192978958
 30
0.0
 11
-6.6662272675318
 21
7.233019564692402
 31
0.0
  0
LINE
  5
126
330
1F
100
AcDbEntity
  8
0
100
AcDbLine
 10
-6.6662272675318
 20
7.233019564692402
 30
0.0
 11
-6.659904219270382
 21
7.227830373090871
 31
0.0
  0
LINE
  5
127
330
1F
100
AcDbEntity
  8
0
100
AcDbLine
 10
-6.659904219270382
 20
7.227830373090871
 30
0.0
 11
-6.653255319771742
 21
7.223065839089458
 31
0.0
  0
LINE
  5
128
330
1F
100
AcDbEntity
  8
0
100
AcDbLine
 10
-6.653255319771742
 20
7.223065839089458
 30
0.0
 11
-6.646309040644292
 21
7.218746365154221
 31
0.0
  0
LINE
  5
129
330
1F
100
AcDbEntity
  8
0
100
AcDbLine
 10
-6.646309040644292
 20
7.218746365154221
 30
0.0
 11
-6.639095126921667
 21
7.214890447935691
 31
0.0
  0
LINE
  5
12A
330
1F
100
AcDbEntity
  8
0
100
AcDbLine
 10
-6.639095126921667
 20
7.214890447935691
 30
0.0
 11
-6.631644469689928
 21
7.211514599063364
 31
0.0
  0
LINE
  5
12B
330
1F
100
AcDbEntity
  8
0
100
AcDbLine
 10
-6.631644469689928
 20
7.211514599063364
 30
0.0
 11
-6.623988973807188
 21
7.208633274440388
 31
0.0
  0
LINE
  5
12C
330
1F
100
AcDbEntity
  8
0
100
AcDbLine
 10
-6.623988973807188
 20
7.208633274440388
 30
0.0
 11
-6.616161421282108
 21
7.20625881234114
 31
0.0
  0
LINE
  5
12D
330
1F
100
AcDbEntity
  8
0
100
AcDbLine
 10
-6.616161421282108
 20
7.20625881234114
 30
0.0
 11
-6.608195330896309
 21
7.204401380576872
 31
0.0
  0
LINE
  5
12E
330
1F
100
AcDbEntity
  8
0
100
AcDbLine
 10
-6.608195330896309
 20
7.204401380576872
 30
0.0
 11
-6.600124814671799
 21
7.203068932955549
 31
0.0
  0
LINE
  5
12F
330
1F
100
AcDbEntity
  8
0
100
AcDbLine
 10
-6.600124814671799
 20
7.203068932955549
 30
0.0
 11
-6.59198443179806
 21
7.202267175222449
 31
0.0
  0
LINE
  5
130
330
1F
100
AcDbEntity
  8
0
100
AcDbLine
 10
-6.59198443179806
 20
7.202267175222449
 30
0.0
 11
-6.583809040644293
 21
7.201999540627277
 31
0.0
  0
LINE
  5
131
330
1F
100
AcDbEntity
  8
0
100
AcDbLine
 10
-6.583809040644293
 20
7.201999540627277
 30
0.0
 11
-6.575633649490525
 21
7.202267175222449
 31
0.0
  0
LINE
  5
132
330
1F
100
AcDbEntity
  8
0
100
AcDbLine
 10
-6.575633649490525
 20
7.202267175222449
 30
0.0
 11
-6.567493266616786
 21
7.203068932955549
 31
0.0
  0
LINE
  5
133
330
1F
100
AcDbEntity
  8
0
100
AcDbLine
 10
-6.567493266616786
 20
7.203068932955549
 30
0.0
 11
-6.559422750392277
 21
7.204401380576872
 31
0.0
  0
LINE
  5
134
330
1F
100
AcDbEntity
  8
0
100
AcDbLine
 10
-6.559422750392277
 20
7.204401380576872
 30
0.0
 11
-6.551456660006478
 21
7.20625881234114
 31
0.0
  0
LINE
  5
135
330
1F
100
AcDbEntity
  8
0
100
AcDbLine
 10
-6.551456660006478
 20
7.20625881234114
 30
0.0
 11
-6.543629107481398
 21
7.208633274440388
 31
0.0
  0
LINE
  5
136
330
1F
100
AcDbEntity
  8
0
100
AcDbLine
 10
-6.543629107481398
 20
7.208633274440388
 30
0.0
 11
-6.535973611598657
 21
7.211514599063364
 31
0.0
  0
LINE
  5
137
330
1F
100
AcDbEntity
  8
0
100
AcDbLine
 10
-6.535973611598657
 20
7.211514599063364
 30
0.0
 11
-6.528522954366919
 21
7.214890447935691
 31
0.0
  0
LINE
  5
138
330
1F
100
AcDbEntity
  8
0
100
AcDbLine
 10
-6.528522954366919
 20
7.214890447935691
 30
0.0
 11
-6.521309040644294
 21
7.218746365154221
 31
0.0
  0
LINE
  5
139
330
1F
100
AcDbEntity
  8
0
100
AcDbLine
 10
-6.521309040644294
 20
7.218746365154221
 30
0.0
 11
-6.514362761516844
 21
7.223065839089458
 31
0.0
  0
LINE
  5
13A
330
1F
100
AcDbEntity
  8
0
100
AcDbLine
 10
-6.514362761516844
 20
7.223065839089458
 30
0.0
 11
-6.507713862018203
 21
7.227830373090871
 31
0.0
  0
LINE
  5
13B
330
1F
100
AcDbEntity
  8
0
100
AcDbLine
 10
-6.507713862018203
 20
7.227830373090871
 30
0.0
 11
-6.501390813756785
 21
7.233019564692402
 31
0.0
  0
LINE
  5
13C
330
1F
100
AcDbEntity
  8
0
100
AcDbLine
 10
-6.501390813756785
 20
7.233019564692402
 30
0.0
 11
-6.495420692995975
 21
7.238611192978958
 31
0.0
  0
LINE
  5
13D
330
1F
100
AcDbEntity
  8
0
100
AcDbLine
 10
-6.495420692995975
 20
7.238611192978958
 30
0.0
 11
-6.489829064709421
 21
7.244581313739765
 31
0.0
  0
LINE
  5
13E
330
1F
100
AcDbEntity
  8
0
100
AcDbLine
 10
-6.489829064709421
 20
7.244581313739765
 30
0.0
 11
-6.48463987310789
 21
7.250904362001187
 31
0.0
  0
LINE
  5
13F
330
1F
100
AcDbEntity
  8
0
100
AcDbLine
 10
-6.48463987310789
 20
7.250904362001187
 30
0.0
 11
-6.479875339106476
 21
7.257553261499826
 31
0.0
  0
LINE
  5
140
330
1F
100
AcDbEntity
  8
0
100
AcDbLine
 10
-6.479875339106476
 20
7.257553261499826
 30
0.0
 11
-6.475555865171239
 21
7.264499540627273
 31
0.0
  0
LINE
  5
141
330
1F
100
AcDbEntity
  8
0
100
AcDbLine
 10
-6.475555865171239
 20
7.264499540627273
 30
0.0
 11
-6.471699947952708
 21
7.2717134543499
 31
0.0
  0
LINE
  5
142
330
1F
100
AcDbEntity
  8
0
100
AcDbLine
 10
-6.471699947952708
 20
7.2717134543499
 30
0.0
 11
-6.468324099080383
 21
7.27916411158164
 31
0.0
  0
LINE
  5
143
330
1F
100
AcDbEntity
  8
0
100
AcDbLine
 10
-6.468324099080383
 20
7.27916411158164
 30
0.0
 11
-6.465442774457406
 21
7.286819607464381
 31
0.0
  0
LINE
  5
144
330
1F
100
AcDbEntity
  8
0
100
AcDbLine
 10
-6.465442774457406
 20
7.286819607464381
 30
0.0
 11
-6.46306831235816
 21
7.294647159989459
 31
0.0
  0
LINE
  5
145
330
1F
100
AcDbEntity
  8
0
100
AcDbLine
 10
-6.46306831235816
 20
7.294647159989459
 30
0.0
 11
-6.461210880593891
 21
7.302613250375259
 31
0.0
  0
LINE
  5
146
330
1F
100
AcDbEntity
  8
0
100
AcDbLine
 10
-6.461210880593891
 20
7.302613250375259
 30
0.0
 11
-6.459878432972568
 21
7.310683766599769
 31
0.0
  0
LINE
  5
147
330
1F
100
AcDbEntity
  8
0
100
AcDbLine
 10
-6.459878432972568
 20
7.310683766599769
 30
0.0
 11
-6.459076675239469
 21
7.318824149473507
 31
0.0
  0
LINE
  5
148
330
1F
100
AcDbEntity
  8
0
100
AcDbLine
 10
-6.459076675239469
 20
7.318824149473507
 30
0.0
 11
-6.458809040644295
 21
7.326999540627273
 31
0.0
  0
LINE
  5
149
330
1F
100
AcDbEntity
  8
0
100
AcDbLine
 10
7.541190646224832
 20
7.326999463623366
 30
0.0
 11
7.54092301162966
 21
7.335174854777133
 31
0.0
  0
LINE
  5
14A
330
1F
100
AcDbEntity
  8
0
100
AcDbLine
 10
7.54092301162966
 20
7.335174854777133
 30
0.0
 11
7.54012125389656
 21
7.343315237650874
 31
0.0
  0
LINE
  5
14B
330
1F
100
AcDbEntity
  8
0
100
AcDbLine
 10
7.54012125389656
 20
7.343315237650874
 30
0.0
 11
7.538788806275237
 21
7.35138575387538
 31
0.0
  0
LINE
  5
14C
330
1F
100
AcDbEntity
  8
0
100
AcDbLine
 10
7.538788806275237
 20
7.35138575387538
 30
0.0
 11
7.536931374510969
 21
7.35935184426118
 31
0.0
  0
LINE
  5
14D
330
1F
100
AcDbEntity
  8
0
100
AcDbLine
 10
7.536931374510969
 20
7.35935184426118
 30
0.0
 11
7.534556912411722
 21
7.367179396786259
 31
0.0
  0
LINE
  5
14E
330
1F
100
AcDbEntity
  8
0
100
AcDbLine
 10
7.534556912411722
 20
7.367179396786259
 30
0.0
 11
7.531675587788746
 21
7.374834892669
 31
0.0
  0
LINE
  5
14F
330
1F
100
AcDbEntity
  8
0
100
AcDbLine
 10
7.531675587788746
 20
7.374834892669
 30
0.0
 11
7.528299738916422
 21
7.38228554990074
 31
0.0
  0
LINE
  5
150
330
1F
100
AcDbEntity
  8
0
100
AcDbLine
 10
7.528299738916422
 20
7.38228554990074
 30
0.0
 11
7.524443821697888
 21
7.389499463623366
 31
0.0
  0
LINE
  5
151
330
1F
100
AcDbEntity
  8
0
100
AcDbLine
 10
7.524443821697888
 20
7.389499463623366
 30
0.0
 11
7.520124347762652
 21
7.396445742750817
 31
0.0
  0
LINE
  5
152
330
1F
100
AcDbEntity
  8
0
100
AcDbLine
 10
7.520124347762652
 20
7.396445742750817
 30
0.0
 11
7.515359813761238
 21
7.403094642249457
 31
0.0
  0
LINE
  5
153
330
1F
100
AcDbEntity
  8
0
100
AcDbLine
 10
7.515359813761238
 20
7.403094642249457
 30
0.0
 11
7.510170622159707
 21
7.409417690510875
 31
0.0
  0
LINE
  5
154
330
1F
100
AcDbEntity
  8
0
100
AcDbLine
 10
7.510170622159707
 20
7.409417690510875
 30
0.0
 11
7.504578993873151
 21
7.415387811271682
 31
0.0
  0
LINE
  5
155
330
1F
100
AcDbEntity
  8
0
100
AcDbLine
 10
7.504578993873151
 20
7.415387811271682
 30
0.0
 11
7.498608873112344
 21
7.420979439558238
 31
0.0
  0
LINE
  5
156
330
1F
100
AcDbEntity
  8
0
100
AcDbLine
 10
7.498608873112344
 20
7.420979439558238
 30
0.0
 11
7.492285824850923
 21
7.426168631159769
 31
0.0
  0
LINE
  5
157
330
1F
100
AcDbEntity
  8
0
100
AcDbLine
 10
7.492285824850923
 20
7.426168631159769
 30
0.0
 11
7.485636925352287
 21
7.430933165161182
 31
0.0
  0
LINE
  5
158
330
1F
100
AcDbEntity
  8
0
100
AcDbLine
 10
7.485636925352287
 20
7.430933165161182
 30
0.0
 11
7.478690646224836
 21
7.435252639096419
 31
0.0
  0
LINE
  5
159
330
1F
100
AcDbEntity
  8
0
100
AcDbLine
 10
7.478690646224836
 20
7.435252639096419
 30
0.0
 11
7.471476732502209
 21
7.439108556314952
 31
0.0
  0
LINE
  5
15A
330
1F
100
AcDbEntity
  8
0
100
AcDbLine
 10
7.471476732502209
 20
7.439108556314952
 30
0.0
 11
7.464026075270473
 21
7.442484405187276
 31
0.0
  0
LINE
  5
15B
330
1F
100
AcDbEntity
  8
0
100
AcDbLine
 10
7.464026075270473
 20
7.442484405187276
 30
0.0
 11
7.456370579387729
 21
7.445365729810252
 31
0.0
  0
LINE
  5
15C
330
1F
100
AcDbEntity
  8
0
100
AcDbLine
 10
7.456370579387729
 20
7.445365729810252
 30
0.0
 11
7.44854302686265
 21
7.447740191909499
 31
0.0
  0
LINE
  5
15D
330
1F
100
AcDbEntity
  8
0
100
AcDbLine
 10
7.44854302686265
 20
7.447740191909499
 30
0.0
 11
7.44057693647685
 21
7.449597623673768
 31
0.0
  0
LINE
  5
15E
330
1F
100
AcDbEntity
  8
0
100
AcDbLine
 10
7.44057693647685
 20
7.449597623673768
 30
0.0
 11
7.432506420252343
 21
7.45093007129509
 31
0.0
  0
LINE
  5
15F
330
1F
100
AcDbEntity
  8
0
100
AcDbLine
 10
7.432506420252343
 20
7.45093007129509
 30
0.0
 11
7.424366037378602
 21
7.451731829028191
 31
0.0
  0
LINE
  5
160
330
1F
100
AcDbEntity
  8
0
100
AcDbLine
 10
7.424366037378602
 20
7.451731829028191
 30
0.0
 11
7.416190646224836
 21
7.451999463623366
 31
0.0
  0
LINE
  5
161
330
1F
100
AcDbEntity
  8
0
100
AcDbLine
 10
7.416190646224836
 20
7.451999463623366
 30
0.0
 11
7.408015255071069
 21
7.451731829028191
 31
0.0
  0
LINE
  5
162
330
1F
100
AcDbEntity
  8
0
100
AcDbLine
 10
7.408015255071069
 20
7.451731829028191
 30
0.0
 11
7.399874872197328
 21
7.45093007129509
 31
0.0
  0
LINE
  5
163
330
1F
100
AcDbEntity
  8
0
100
AcDbLine
 10
7.399874872197328
 20
7.45093007129509
 30
0.0
 11
7.391804355972821
 21
7.449597623673768
 31
0.0
  0
LINE
  5
164
330
1F
100
AcDbEntity
  8
0
100
AcDbLine
 10
7.391804355972821
 20
7.449597623673768
 30
0.0
 11
7.383838265587022
 21
7.447740191909499
 31
0.0
  0
LINE
  5
165
330
1F
100
AcDbEntity
  8
0
100
AcDbLine
 10
7.383838265587022
 20
7.447740191909499
 30
0.0
 11
7.376010713061943
 21
7.445365729810252
 31
0.0
  0
LINE
  5
166
330
1F
100
AcDbEntity
  8
0
100
AcDbLine
 10
7.376010713061943
 20
7.445365729810252
 30
0.0
 11
7.368355217179198
 21
7.442484405187276
 31
0.0
  0
LINE
  5
167
330
1F
100
AcDbEntity
  8
0
100
AcDbLine
 10
7.368355217179198
 20
7.442484405187276
 30
0.0
 11
7.360904559947462
 21
7.439108556314952
 31
0.0
  0
LINE
  5
168
330
1F
100
AcDbEntity
  8
0
100
AcDbLine
 10
7.360904559947462
 20
7.439108556314952
 30
0.0
 11
7.353690646224836
 21
7.435252639096419
 31
0.0
  0
LINE
  5
169
330
1F
100
AcDbEntity
  8
0
100
AcDbLine
 10
7.353690646224836
 20
7.435252639096419
 30
0.0
 11
7.346744367097385
 21
7.430933165161182
 31
0.0
  0
LINE
  5
16A
330
1F
100
AcDbEntity
  8
0
100
AcDbLine
 10
7.346744367097385
 20
7.430933165161182
 30
0.0
 11
7.340095467598749
 21
7.426168631159769
 31
0.0
  0
LINE
  5
16B
330
1F
100
AcDbEntity
  8
0
100
AcDbLine
 10
7.340095467598749
 20
7.426168631159769
 30
0.0
 11
7.333772419337327
 21
7.420979439558238
 31
0.0
  0
LINE
  5
16C
330
1F
100
AcDbEntity
  8
0
100
AcDbLine
 10
7.333772419337327
 20
7.420979439558238
 30
0.0
 11
7.32780229857652
 21
7.415387811271682
 31
0.0
  0
LINE
  5
16D
330
1F
100
AcDbEntity
  8
0
100
AcDbLine
 10
7.32780229857652
 20
7.415387811271682
 30
0.0
 11
7.322210670289964
 21
7.409417690510875
 31
0.0
  0
LINE
  5
16E
330
1F
100
AcDbEntity
  8
0
100
AcDbLine
 10
7.322210670289964
 20
7.409417690510875
 30
0.0
 11
7.317021478688433
 21
7.403094642249457
 31
0.0
  0
LINE
  5
16F
330
1F
100
AcDbEntity
  8
0
100
AcDbLine
 10
7.317021478688433
 20
7.403094642249457
 30
0.0
 11
7.31225694468702
 21
7.396445742750817
 31
0.0
  0
LINE
  5
170
330
1F
100
AcDbEntity
  8
0
100
AcDbLine
 10
7.31225694468702
 20
7.396445742750817
 30
0.0
 11
7.307937470751783
 21
7.389499463623366
 31
0.0
  0
LINE
  5
171
330
1F
100
AcDbEntity
  8
0
100
AcDbLine
 10
7.307937470751783
 20
7.389499463623366
 30
0.0
 11
7.30408155353325
 21
7.38228554990074
 31
0.0
  0
LINE
  5
172
330
1F
100
AcDbEntity
  8
0
100
AcDbLine
 10
7.30408155353325
 20
7.38228554990074
 30
0.0
 11
7.300705704660926
 21
7.374834892669003
 31
0.0
  0
LINE
  5
173
330
1F
100
AcDbEntity
  8
0
100
AcDbLine
 10
7.300705704660926
 20
7.374834892669003
 30
0.0
 11
7.29782438003795
 21
7.367179396786263
 31
0.0
  0
LINE
  5
174
330
1F
100
AcDbEntity
  8
0
100
AcDbLine
 10
7.29782438003795
 20
7.367179396786263
 30
0.0
 11
7.295449917938702
 21
7.35935184426118
 31
0.0
  0
LINE
  5
175
330
1F
100
AcDbEntity
  8
0
100
AcDbLine
 10
7.295449917938702
 20
7.35935184426118
 30
0.0
 11
7.293592486174434
 21
7.35138575387538
 31
0.0
  0
LINE
  5
176
330
1F
100
AcDbEntity
  8
0
100
AcDbLine
 10
7.293592486174434
 20
7.35138575387538
 30
0.0
 11
7.292260038553112
 21
7.343315237650874
 31
0.0
  0
LINE
  5
177
330
1F
100
AcDbEntity
  8
0
100
AcDbLine
 10
7.292260038553112
 20
7.343315237650874
 30
0.0
 11
7.291458280820011
 21
7.335174854777133
 31
0.0
  0
LINE
  5
178
330
1F
100
AcDbEntity
  8
0
100
AcDbLine
 10
7.291458280820011
 20
7.335174854777133
 30
0.0
 11
7.291190646224839
 21
7.326999463623366
 31
0.0
  0
LINE
  5
179
330
1F
100
AcDbEntity
  8
0
100
AcDbLine
 10
7.291190646224839
 20
7.326999463623366
 30
0.0
 11
7.291458280820011
 21
7.318824072469599
 31
0.0
  0
LINE
  5
17A
330
1F
100
AcDbEntity
  8
0
100
AcDbLine
 10
7.291458280820011
 20
7.318824072469599
 30
0.0
 11
7.292260038553112
 21
7.310683689595859
 31
0.0
  0
LINE
  5
17B
330
1F
100
AcDbEntity
  8
0
100
AcDbLine
 10
7.292260038553112
 20
7.310683689595859
 30
0.0
 11
7.293592486174434
 21
7.302613173371352
 31
0.0
  0
LINE
  5
17C
330
1F
100
AcDbEntity
  8
0
100
AcDbLine
 10
7.293592486174434
 20
7.302613173371352
 30
0.0
 11
7.295449917938702
 21
7.294647082985552
 31
0.0
  0
LINE
  5
17D
330
1F
100
AcDbEntity
  8
0
100
AcDbLine
 10
7.295449917938702
 20
7.294647082985552
 30
0.0
 11
7.29782438003795
 21
7.286819530460473
 31
0.0
  0
LINE
  5
17E
330
1F
100
AcDbEntity
  8
0
100
AcDbLine
 10
7.29782438003795
 20
7.286819530460473
 30
0.0
 11
7.300705704660926
 21
7.279164034577732
 31
0.0
  0
LINE
  5
17F
330
1F
100
AcDbEntity
  8
0
100
AcDbLine
 10
7.300705704660926
 20
7.279164034577732
 30
0.0
 11
7.30408155353325
 21
7.271713377345993
 31
0.0
  0
LINE
  5
180
330
1F
100
AcDbEntity
  8
0
100
AcDbLine
 10
7.30408155353325
 20
7.271713377345993
 30
0.0
 11
7.307937470751783
 21
7.264499463623366
 31
0.0
  0
LINE
  5
181
330
1F
100
AcDbEntity
  8
0
100
AcDbLine
 10
7.307937470751783
 20
7.264499463623366
 30
0.0
 11
7.31225694468702
 21
7.257553184495919
 31
0.0
  0
LINE
  5
182
330
1F
100
AcDbEntity
  8
0
100
AcDbLine
 10
7.31225694468702
 20
7.257553184495919
 30
0.0
 11
7.317021478688433
 21
7.250904284997276
 31
0.0
  0
LINE
  5
183
330
1F
100
AcDbEntity
  8
0
100
AcDbLine
 10
7.317021478688433
 20
7.250904284997276
 30
0.0
 11
7.322210670289964
 21
7.244581236735858
 31
0.0
  0
LINE
  5
184
330
1F
100
AcDbEntity
  8
0
100
AcDbLine
 10
7.322210670289964
 20
7.244581236735858
 30
0.0
 11
7.32780229857652
 21
7.238611115975051
 31
0.0
  0
LINE
  5
185
330
1F
100
AcDbEntity
  8
0
100
AcDbLine
 10
7.32780229857652
 20
7.238611115975051
 30
0.0
 11
7.333772419337327
 21
7.233019487688495
 31
0.0
  0
LINE
  5
186
330
1F
100
AcDbEntity
  8
0
100
AcDbLine
 10
7.333772419337327
 20
7.233019487688495
 30
0.0
 11
7.340095467598745
 21
7.227830296086964
 31
0.0
  0
LINE
  5
187
330
1F
100
AcDbEntity
  8
0
100
AcDbLine
 10
7.340095467598745
 20
7.227830296086964
 30
0.0
 11
7.346744367097385
 21
7.22306576208555
 31
0.0
  0
LINE
  5
188
330
1F
100
AcDbEntity
  8
0
100
AcDbLine
 10
7.346744367097385
 20
7.22306576208555
 30
0.0
 11
7.353690646224836
 21
7.218746288150314
 31
0.0
  0
LINE
  5
189
330
1F
100
AcDbEntity
  8
0
100
AcDbLine
 10
7.353690646224836
 20
7.218746288150314
 30
0.0
 11
7.360904559947462
 21
7.214890370931784
 31
0.0
  0
LINE
  5
18A
330
1F
100
AcDbEntity
  8
0
100
AcDbLine
 10
7.360904559947462
 20
7.214890370931784
 30
0.0
 11
7.368355217179198
 21
7.211514522059456
 31
0.0
  0
LINE
  5
18B
330
1F
100
AcDbEntity
  8
0
100
AcDbLine
 10
7.368355217179198
 20
7.211514522059456
 30
0.0
 11
7.376010713061943
 21
7.20863319743648
 31
0.0
  0
LINE
  5
18C
330
1F
100
AcDbEntity
  8
0
100
AcDbLine
 10
7.376010713061943
 20
7.20863319743648
 30
0.0
 11
7.383838265587022
 21
7.206258735337233
 31
0.0
  0
LINE
  5
18D
330
1F
100
AcDbEntity
  8
0
100
AcDbLine
 10
7.383838265587022
 20
7.206258735337233
 30
0.0
 11
7.391804355972821
 21
7.204401303572965
 31
0.0
  0
LINE
  5
18E
330
1F
100
AcDbEntity
  8
0
100
AcDbLine
 10
7.391804355972821
 20
7.204401303572965
 30
0.0
 11
7.399874872197328
 21
7.203068855951642
 31
0.0
  0
LINE
  5
18F
330
1F
100
AcDbEntity
  8
0
100
AcDbLine
 10
7.399874872197328
 20
7.203068855951642
 30
0.0
 11
7.408015255071069
 21
7.202267098218542
 31
0.0
  0
LINE
  5
190
330
1F
100
AcDbEntity
  8
0
100
AcDbLine
 10
7.408015255071069
 20
7.202267098218542
 30
0.0
 11
7.416190646224836
 21
7.201999463623366
 31
0.0
  0
LINE
  5
191
330
1F
100
AcDbEntity
  8
0
100
AcDbLine
 10
7.416190646224836
 20
7.201999463623366
 30
0.0
 11
7.424366037378602
 21
7.202267098218542
 31
0.0
  0
LINE
  5
192
330
1F
100
AcDbEntity
  8
0
100
AcDbLine
 10
7.424366037378602
 20
7.202267098218542
 30
0.0
 11
7.432506420252343
 21
7.203068855951642
 31
0.0
  0
LINE
  5
193
330
1F
100
AcDbEntity
  8
0
100
AcDbLine
 10
7.432506420252343
 20
7.203068855951642
 30
0.0
 11
7.44057693647685
 21
7.204401303572965
 31
0.0
  0
LINE
  5
194
330
1F
100
AcDbEntity
  8
0
100
AcDbLine
 10
7.44057693647685
 20
7.204401303572965
 30
0.0
 11
7.44854302686265
 21
7.206258735337233
 31
0.0
  0
LINE
  5
195
330
1F
100
AcDbEntity
  8
0
100
AcDbLine
 10
7.44854302686265
 20
7.206258735337233
 30
0.0
 11
7.456370579387729
 21
7.20863319743648
 31
0.0
  0
LINE
  5
196
330
1F
100
AcDbEntity
  8
0
100
AcDbLine
 10
7.456370579387729
 20
7.20863319743648
 30
0.0
 11
7.464026075270473
 21
7.211514522059456
 31
0.0
  0
LINE
  5
197
330
1F
100
AcDbEntity
  8
0
100
AcDbLine
 10
7.464026075270473
 20
7.211514522059456
 30
0.0
 11
7.471476732502209
 21
7.214890370931784
 31
0.0
  0
LINE
  5
198
330
1F
100
AcDbEntity
  8
0
100
AcDbLine
 10
7.471476732502209
 20
7.214890370931784
 30
0.0
 11
7.478690646224836
 21
7.218746288150314
 31
0.0
  0
LINE
  5
199
330
1F
100
AcDbEntity
  8
0
100
AcDbLine
 10
7.478690646224836
 20
7.218746288150314
 30
0.0
 11
7.485636925352287
 21
7.22306576208555
 31
0.0
  0
LINE
  5
19A
330
1F
100
AcDbEntity
  8
0
100
AcDbLine
 10
7.485636925352287
 20
7.22306576208555
 30
0.0
 11
7.492285824850926
 21
7.227830296086964
 31
0.0
  0
LINE
  5
19B
330
1F
100
AcDbEntity
  8
0
100
AcDbLine
 10
7.492285824850926
 20
7.227830296086964
 30
0.0
 11
7.498608873112344
 21
7.233019487688495
 31
0.0
  0
LINE
  5
19C
330
1F
100
AcDbEntity
  8
0
100
AcDbLine
 10
7.498608873112344
 20
7.233019487688495
 30
0.0
 11
7.504578993873151
 21
7.238611115975051
 31
0.0
  0
LINE
  5
19D
330
1F
100
AcDbEntity
  8
0
100
AcDbLine
 10
7.504578993873151
 20
7.238611115975051
 30
0.0
 11
7.510170622159707
 21
7.244581236735858
 31
0.0
  0
LINE
  5
19E
330
1F
100
AcDbEntity
  8
0
100
AcDbLine
 10
7.510170622159707
 20
7.244581236735858
 30
0.0
 11
7.515359813761238
 21
7.250904284997279
 31
0.0
  0
LINE
  5
19F
330
1F
100
AcDbEntity
  8
0
100
AcDbLine
 10
7.515359813761238
 20
7.250904284997279
 30
0.0
 11
7.520124347762652
 21
7.257553184495919
 31
0.0
  0
LINE
  5
1A0
330
1F
100
AcDbEntity
  8
0
100
AcDbLine
 10
7.520124347762652
 20
7.257553184495919
 30
0.0
 11
7.524443821697888
 21
7.264499463623366
 31
0.0
  0
LINE
  5
1A1
330
1F
100
AcDbEntity
  8
0
100
AcDbLine
 10
7.524443821697888
 20
7.264499463623366
 30
0.0
 11
7.528299738916422
 21
7.271713377345993
 31
0.0
  0
LINE
  5
1A2
330
1F
100
AcDbEntity
  8
0
100
AcDbLine
 10
7.528299738916422
 20
7.271713377345993
 30
0.0
 11
7.531675587788746
 21
7.279164034577732
 31
0.0
  0
LINE
  5
1A3
330
1F
100
AcDbEntity
  8
0
100
AcDbLine
 10
7.531675587788746
 20
7.279164034577732
 30
0.0
 11
7.534556912411722
 21
7.286819530460473
 31
0.0
  0
LINE
  5
1A4
330
1F
100
AcDbEntity
  8
0
100
AcDbLine
 10
7.534556912411722
 20
7.286819530460473
 30
0.0
 11
7.536931374510969
 21
7.294647082985552
 31
0.0
  0
LINE
  5
1A5
330
1F
100
AcDbEntity
  8
0
100
AcDbLine
 10
7.536931374510969
 20
7.294647082985552
 30
0.0
 11
7.538788806275237
 21
7.302613173371352
 31
0.0
  0
LINE
  5
1A6
330
1F
100
AcDbEntity
  8
0
100
AcDbLine
 10
7.538788806275237
 20
7.302613173371352
 30
0.0
 11
7.54012125389656
 21
7.310683689595862
 31
0.0
  0
LINE
  5
1A7
330
1F
100
AcDbEntity
  8
0
100
AcDbLine
 10
7.54012125389656
 20
7.310683689595862
 30
0.0
 11
7.54092301162966
 21
7.318824072469599
 31
0.0
  0
LINE
  5
1A8
330
1F
100
AcDbEntity
  8
0
100
AcDbLine
 10
7.54092301162966
 20
7.318824072469599
 30
0.0
 11
7.541190646224832
 21
7.326999463623366
 31
0.0
  0
LINE
  5
1A9
330
1F
100
AcDbEntity
  8
0
100
AcDbLine
 10
-3.953809281515356
 20
-8.610000322645938
 30
0.0
 11
-3.954087621494337
 21
-8.601497915846018
 31
0.0
  0
LINE
  5
1AA
330
1F
100
AcDbEntity
  8
0
100
AcDbLine
 10
-3.954087621494337
 20
-8.601497915846018
 30
0.0
 11
-3.95492144953676
 21
-8.593031917657331
 31
0.0
  0
LINE
  5
1AB
330
1F
100
AcDbEntity
  8
0
100
AcDbLine
 10
-3.95492144953676
 20
-8.593031917657331
 30
0.0
 11
-3.956307195062935
 21
-8.58463858078384
 31
0.0
  0
LINE
  5
1AC
330
1F
100
AcDbEntity
  8
0
100
AcDbLine
 10
-3.956307195062935
 20
-8.58463858078384
 30
0.0
 11
-3.958238924097777
 21
-8.57635384678261
 31
0.0
  0
LINE
  5
1AD
330
1F
100
AcDbEntity
  8
0
100
AcDbLine
 10
-3.958238924097777
 20
-8.57635384678261
 30
0.0
 11
-3.960708364680992
 21
-8.568213192156527
 31
0.0
  0
LINE
  5
1AE
330
1F
100
AcDbEntity
  8
0
100
AcDbLine
 10
-3.960708364680992
 20
-8.568213192156527
 30
0.0
 11
-3.963704942288889
 21
-8.560251476438475
 31
0.0
  0
LINE
  5
1AF
330
1F
100
AcDbEntity
  8
0
100
AcDbLine
 10
-3.963704942288889
 20
-8.560251476438475
 30
0.0
 11
-3.967215825116106
 21
-8.552502792917467
 31
0.0
  0
LINE
  5
1B0
330
1F
100
AcDbEntity
  8
0
100
AcDbLine
 10
-3.967215825116106
 20
-8.552502792917467
 30
0.0
 11
-3.971225979023378
 21
-8.545000322645937
 31
0.0
  0
LINE
  5
1B1
330
1F
100
AcDbEntity
  8
0
100
AcDbLine
 10
-3.971225979023378
 20
-8.545000322645937
 30
0.0
 11
-3.975718231916025
 21
-8.537776192353387
 31
0.0
  0
LINE
  5
1B2
330
1F
100
AcDbEntity
  8
0
100
AcDbLine
 10
-3.975718231916025
 20
-8.537776192353387
 30
0.0
 11
-3.980673347277495
 21
-8.530861336874803
 31
0.0
  0
LINE
  5
1B3
330
1F
100
AcDbEntity
  8
0
100
AcDbLine
 10
-3.980673347277495
 20
-8.530861336874803
 30
0.0
 11
-3.986070106543089
 21
-8.524285366682928
 31
0.0
  0
LINE
  5
1B4
330
1F
100
AcDbEntity
  8
0
100
AcDbLine
 10
-3.986070106543089
 20
-8.524285366682928
 30
0.0
 11
-3.991885399961104
 21
-8.518076441091686
 31
0.0
  0
LINE
  5
1B5
330
1F
100
AcDbEntity
  8
0
100
AcDbLine
 10
-3.991885399961104
 20
-8.518076441091686
 30
0.0
 11
-3.998094325552347
 21
-8.51226114767367
 31
0.0
  0
LINE
  5
1B6
330
1F
100
AcDbEntity
  8
0
100
AcDbLine
 10
-3.998094325552347
 20
-8.51226114767367
 30
0.0
 11
-4.004670295744222
 21
-8.506864388408076
 31
0.0
  0
LINE
  5
1B7
330
1F
100
AcDbEntity
  8
0
100
AcDbLine
 10
-4.004670295744222
 20
-8.506864388408076
 30
0.0
 11
-4.011585151222807
 21
-8.501909273046607
 31
0.0
  0
LINE
  5
1B8
330
1F
100
AcDbEntity
  8
0
100
AcDbLine
 10
-4.011585151222807
 20
-8.501909273046607
 30
0.0
 11
-4.018809281515356
 21
-8.49741702015396
 31
0.0
  0
LINE
  5
1B9
330
1F
100
AcDbEntity
  8
0
100
AcDbLine
 10
-4.018809281515356
 20
-8.49741702015396
 30
0.0
 11
-4.026311751786885
 21
-8.493406866246687
 31
0.0
  0
LINE
  5
1BA
330
1F
100
AcDbEntity
  8
0
100
AcDbLine
 10
-4.026311751786885
 20
-8.493406866246687
 30
0.0
 11
-4.034060435307894
 21
-8.48989598341947
 31
0.0
  0
LINE
  5
1BB
330
1F
100
AcDbEntity
  8
0
100
AcDbLine
 10
-4.034060435307894
 20
-8.48989598341947
 30
0.0
 11
-4.042022151025945
 21
-8.486899405811574
 31
0.0
  0
LINE
  5
1BC
330
1F
100
AcDbEntity
  8
0
100
AcDbLine
 10
-4.042022151025945
 20
-8.486899405811574
 30
0.0
 11
-4.050162805652028
 21
-8.484429965228358
 31
0.0
  0
LINE
  5
1BD
330
1F
100
AcDbEntity
  8
0
100
AcDbLine
 10
-4.050162805652028
 20
-8.484429965228358
 30
0.0
 11
-4.058447539653259
 21
-8.482498236193518
 31
0.0
  0
LINE
  5
1BE
330
1F
100
AcDbEntity
  8
0
100
AcDbLine
 10
-4.058447539653259
 20
-8.482498236193518
 30
0.0
 11
-4.066840876526749
 21
-8.481112490667343
 31
0.0
  0
LINE
  5
1BF
330
1F
100
AcDbEntity
  8
0
100
AcDbLine
 10
-4.066840876526749
 20
-8.481112490667343
 30
0.0
 11
-4.075306874715437
 21
-8.480278662624919
 31
0.0
  0
LINE
  5
1C0
330
1F
100
AcDbEntity
  8
0
100
AcDbLine
 10
-4.075306874715437
 20
-8.480278662624919
 30
0.0
 11
-4.083809281515355
 21
-8.480000322645937
 31
0.0
  0
LINE
  5
1C1
330
1F
100
AcDbEntity
  8
0
100
AcDbLine
 10
-4.083809281515355
 20
-8.480000322645937
 30
0.0
 11
-4.092311688315274
 21
-8.480278662624919
 31
0.0
  0
LINE
  5
1C2
330
1F
100
AcDbEntity
  8
0
100
AcDbLine
 10
-4.092311688315274
 20
-8.480278662624919
 30
0.0
 11
-4.100777686503962
 21
-8.481112490667343
 31
0.0
  0
LINE
  5
1C3
330
1F
100
AcDbEntity
  8
0
100
AcDbLine
 10
-4.100777686503962
 20
-8.481112490667343
 30
0.0
 11
-4.109171023377452
 21
-8.482498236193518
 31
0.0
  0
LINE
  5
1C4
330
1F
100
AcDbEntity
  8
0
100
AcDbLine
 10
-4.109171023377452
 20
-8.482498236193518
 30
0.0
 11
-4.117455757378683
 21
-8.484429965228358
 31
0.0
  0
LINE
  5
1C5
330
1F
100
AcDbEntity
  8
0
100
AcDbLine
 10
-4.117455757378683
 20
-8.484429965228358
 30
0.0
 11
-4.125596412004766
 21
-8.486899405811574
 31
0.0
  0
LINE
  5
1C6
330
1F
100
AcDbEntity
  8
0
100
AcDbLine
 10
-4.125596412004766
 20
-8.486899405811574
 30
0.0
 11
-4.133558127722817
 21
-8.48989598341947
 31
0.0
  0
LINE
  5
1C7
330
1F
100
AcDbEntity
  8
0
100
AcDbLine
 10
-4.133558127722817
 20
-8.48989598341947
 30
0.0
 11
-4.141306811243825
 21
-8.493406866246687
 31
0.0
  0
LINE
  5
1C8
330
1F
100
AcDbEntity
  8
0
100
AcDbLine
 10
-4.141306811243825
 20
-8.493406866246687
 30
0.0
 11
-4.148809281515355
 21
-8.49741702015396
 31
0.0
  0
LINE
  5
1C9
330
1F
100
AcDbEntity
  8
0
100
AcDbLine
 10
-4.148809281515355
 20
-8.49741702015396
 30
0.0
 11
-4.156033411807903
 21
-8.501909273046607
 31
0.0
  0
LINE
  5
1CA
330
1F
100
AcDbEntity
  8
0
100
AcDbLine
 10
-4.156033411807903
 20
-8.501909273046607
 30
0.0
 11
-4.162948267286489
 21
-8.506864388408076
 31
0.0
  0
LINE
  5
1CB
330
1F
100
AcDbEntity
  8
0
100
AcDbLine
 10
-4.162948267286489
 20
-8.506864388408076
 30
0.0
 11
-4.169524237478364
 21
-8.51226114767367
 31
0.0
  0
LINE
  5
1CC
330
1F
100
AcDbEntity
  8
0
100
AcDbLine
 10
-4.169524237478364
 20
-8.51226114767367
 30
0.0
 11
-4.175733163069607
 21
-8.518076441091686
 31
0.0
  0
LINE
  5
1CD
330
1F
100
AcDbEntity
  8
0
100
AcDbLine
 10
-4.175733163069607
 20
-8.518076441091686
 30
0.0
 11
-4.181548456487622
 21
-8.524285366682928
 31
0.0
  0
LINE
  5
1CE
330
1F
100
AcDbEntity
  8
0
100
AcDbLine
 10
-4.181548456487622
 20
-8.524285366682928
 30
0.0
 11
-4.186945215753216
 21
-8.530861336874803
 31
0.0
  0
LINE
  5
1CF
330
1F
100
AcDbEntity
  8
0
100
AcDbLine
 10
-4.186945215753216
 20
-8.530861336874803
 30
0.0
 11
-4.191900331114686
 21
-8.537776192353387
 31
0.0
  0
LINE
  5
1D0
330
1F
100
AcDbEntity
  8
0
100
AcDbLine
 10
-4.191900331114686
 20
-8.537776192353387
 30
0.0
 11
-4.196392584007333
 21
-8.545000322645937
 31
0.0
  0
LINE
  5
1D1
330
1F
100
AcDbEntity
  8
0
100
AcDbLine
 10
-4.196392584007333
 20
-8.545000322645937
 30
0.0
 11
-4.200402737914605
 21
-8.552502792917466
 31
0.0
  0
LINE
  5
1D2
330
1F
100
AcDbEntity
  8
0
100
AcDbLine
 10
-4.200402737914605
 20
-8.552502792917466
 30
0.0
 11
-4.203913620741822
 21
-8.560251476438475
 31
0.0
  0
LINE
  5
1D3
330
1F
100
AcDbEntity
  8
0
100
AcDbLine
 10
-4.203913620741822
 20
-8.560251476438475
 30
0.0
 11
-4.206910198349719
 21
-8.568213192156525
 31
0.0
  0
LINE
  5
1D4
330
1F
100
AcDbEntity
  8
0
100
AcDbLine
 10
-4.206910198349719
 20
-8.568213192156525
 30
0.0
 11
-4.209379638932934
 21
-8.57635384678261
 31
0.0
  0
LINE
  5
1D5
330
1F
100
AcDbEntity
  8
0
100
AcDbLine
 10
-4.209379638932934
 20
-8.57635384678261
 30
0.0
 11
-4.211311367967776
 21
-8.584638580783839
 31
0.0
  0
LINE
  5
1D6
330
1F
100
AcDbEntity
  8
0
100
AcDbLine
 10
-4.211311367967776
 20
-8.584638580783839
 30
0.0
 11
-4.212697113493951
 21
-8.59303191765733
 31
0.0
  0
LINE
  5
1D7
330
1F
100
AcDbEntity
  8
0
100
AcDbLine
 10
-4.212697113493951
 20
-8.59303191765733
 30
0.0
 11
-4.213530941536374
 21
-8.601497915846018
 31
0.0
  0
LINE
  5
1D8
330
1F
100
AcDbEntity
  8
0
100
AcDbLine
 10
-4.213530941536374
 20
-8.601497915846018
 30
0.0
 11
-4.213809281515355
 21
-8.610000322645938
 31
0.0
  0
LINE
  5
1D9
330
1F
100
AcDbEntity
  8
0
100
AcDbLine
 10
-4.213809281515355
 20
-8.610000322645938
 30
0.0
 11
-4.213530941536374
 21
-8.618502729445854
 31
0.0
  0
LINE
  5
1DA
330
1F
100
AcDbEntity
  8
0
100
AcDbLine
 10
-4.213530941536374
 20
-8.618502729445854
 30
0.0
 11
-4.212697113493951
 21
-8.626968727634544
 31
0.0
  0
LINE
  5
1DB
330
1F
100
AcDbEntity
  8
0
100
AcDbLine
 10
-4.212697113493951
 20
-8.626968727634544
 30
0.0
 11
-4.211311367967776
 21
-8.635362064508033
 31
0.0
  0
LINE
  5
1DC
330
1F
100
AcDbEntity
  8
0
100
AcDbLine
 10
-4.211311367967776
 20
-8.635362064508033
 30
0.0
 11
-4.209379638932934
 21
-8.643646798509264
 31
0.0
  0
LINE
  5
1DD
330
1F
100
AcDbEntity
  8
0
100
AcDbLine
 10
-4.209379638932934
 20
-8.643646798509264
 30
0.0
 11
-4.206910198349719
 21
-8.651787453135348
 31
0.0
  0
LINE
  5
1DE
330
1F
100
AcDbEntity
  8
0
100
AcDbLine
 10
-4.206910198349719
 20
-8.651787453135348
 30
0.0
 11
-4.203913620741822
 21
-8.659749168853399
 31
0.0
  0
LINE
  5
1DF
330
1F
100
AcDbEntity
  8
0
100
AcDbLine
 10
-4.203913620741822
 20
-8.659749168853399
 30
0.0
 11
-4.200402737914605
 21
-8.667497852374407
 31
0.0
  0
LINE
  5
1E0
330
1F
100
AcDbEntity
  8
0
100
AcDbLine
 10
-4.200402737914605
 20
-8.667497852374407
 30
0.0
 11
-4.196392584007333
 21
-8.675000322645936
 31
0.0
  0
LINE
  5
1E1
330
1F
100
AcDbEntity
  8
0
100
AcDbLine
 10
-4.196392584007333
 20
-8.675000322645936
 30
0.0
 11
-4.191900331114686
 21
-8.682224452938485
 31
0.0
  0
LINE
  5
1E2
330
1F
100
AcDbEntity
  8
0
100
AcDbLine
 10
-4.191900331114686
 20
-8.682224452938485
 30
0.0
 11
-4.186945215753216
 21
-8.68913930841707
 31
0.0
  0
LINE
  5
1E3
330
1F
100
AcDbEntity
  8
0
100
AcDbLine
 10
-4.186945215753216
 20
-8.68913930841707
 30
0.0
 11
-4.181548456487623
 21
-8.695715278608946
 31
0.0
  0
LINE
  5
1E4
330
1F
100
AcDbEntity
  8
0
100
AcDbLine
 10
-4.181548456487623
 20
-8.695715278608946
 30
0.0
 11
-4.175733163069607
 21
-8.701924204200187
 31
0.0
  0
LINE
  5
1E5
330
1F
100
AcDbEntity
  8
0
100
AcDbLine
 10
-4.175733163069607
 20
-8.701924204200187
 30
0.0
 11
-4.169524237478365
 21
-8.707739497618203
 31
0.0
  0
LINE
  5
1E6
330
1F
100
AcDbEntity
  8
0
100
AcDbLine
 10
-4.169524237478365
 20
-8.707739497618203
 30
0.0
 11
-4.162948267286489
 21
-8.713136256883796
 31
0.0
  0
LINE
  5
1E7
330
1F
100
AcDbEntity
  8
0
100
AcDbLine
 10
-4.162948267286489
 20
-8.713136256883796
 30
0.0
 11
-4.156033411807904
 21
-8.718091372245269
 31
0.0
  0
LINE
  5
1E8
330
1F
100
AcDbEntity
  8
0
100
AcDbLine
 10
-4.156033411807904
 20
-8.718091372245269
 30
0.0
 11
-4.148809281515356
 21
-8.722583625137915
 31
0.0
  0
LINE
  5
1E9
330
1F
100
AcDbEntity
  8
0
100
AcDbLine
 10
-4.148809281515356
 20
-8.722583625137915
 30
0.0
 11
-4.141306811243826
 21
-8.726593779045185
 31
0.0
  0
LINE
  5
1EA
330
1F
100
AcDbEntity
  8
0
100
AcDbLine
 10
-4.141306811243826
 20
-8.726593779045185
 30
0.0
 11
-4.133558127722817
 21
-8.730104661872403
 31
0.0
  0
LINE
  5
1EB
330
1F
100
AcDbEntity
  8
0
100
AcDbLine
 10
-4.133558127722817
 20
-8.730104661872403
 30
0.0
 11
-4.125596412004767
 21
-8.733101239480302
 31
0.0
  0
LINE
  5
1EC
330
1F
100
AcDbEntity
  8
0
100
AcDbLine
 10
-4.125596412004767
 20
-8.733101239480302
 30
0.0
 11
-4.117455757378683
 21
-8.735570680063516
 31
0.0
  0
LINE
  5
1ED
330
1F
100
AcDbEntity
  8
0
100
AcDbLine
 10
-4.117455757378683
 20
-8.735570680063516
 30
0.0
 11
-4.109171023377452
 21
-8.737502409098358
 31
0.0
  0
LINE
  5
1EE
330
1F
100
AcDbEntity
  8
0
100
AcDbLine
 10
-4.109171023377452
 20
-8.737502409098358
 30
0.0
 11
-4.100777686503962
 21
-8.738888154624533
 31
0.0
  0
LINE
  5
1EF
330
1F
100
AcDbEntity
  8
0
100
AcDbLine
 10
-4.100777686503962
 20
-8.738888154624533
 30
0.0
 11
-4.092311688315274
 21
-8.739721982666955
 31
0.0
  0
LINE
  5
1F0
330
1F
100
AcDbEntity
  8
0
100
AcDbLine
 10
-4.092311688315274
 20
-8.739721982666955
 30
0.0
 11
-4.083809281515355
 21
-8.740000322645937
 31
0.0
  0
LINE
  5
1F1
330
1F
100
AcDbEntity
  8
0
100
AcDbLine
 10
-4.083809281515355
 20
-8.740000322645937
 30
0.0
 11
-4.075306874715436
 21
-8.739721982666955
 31
0.0
  0
LINE
  5
1F2
330
1F
100
AcDbEntity
  8
0
100
AcDbLine
 10
-4.075306874715436
 20
-8.739721982666955
 30
0.0
 11
-4.066840876526749
 21
-8.738888154624533
 31
0.0
  0
LINE
  5
1F3
330
1F
100
AcDbEntity
  8
0
100
AcDbLine
 10
-4.066840876526749
 20
-8.738888154624533
 30
0.0
 11
-4.058447539653258
 21
-8.737502409098358
 31
0.0
  0
LINE
  5
1F4
330
1F
100
AcDbEntity
  8
0
100
AcDbLine
 10
-4.058447539653258
 20
-8.737502409098358
 30
0.0
 11
-4.050162805652027
 21
-8.735570680063516
 31
0.0
  0
LINE
  5
1F5
330
1F
100
AcDbEntity
  8
0
100
AcDbLine
 10
-4.050162805652027
 20
-8.735570680063516
 30
0.0
 11
-4.042022151025944
 21
-8.7331012394803
 31
0.0
  0
LINE
  5
1F6
330
1F
100
AcDbEntity
  8
0
100
AcDbLine
 10
-4.042022151025944
 20
-8.7331012394803
 30
0.0
 11
-4.034060435307894
 21
-8.730104661872403
 31
0.0
  0
LINE
  5
1F7
330
1F
100
AcDbEntity
  8
0
100
AcDbLine
 10
-4.034060435307894
 20
-8.730104661872403
 30
0.0
 11
-4.026311751786885
 21
-8.726593779045185
 31
0.0
  0
LINE
  5
1F8
330
1F
100
AcDbEntity
  8
0
100
AcDbLine
 10
-4.026311751786885
 20
-8.726593779045185
 30
0.0
 11
-4.018809281515355
 21
-8.722583625137915
 31
0.0
  0
LINE
  5
1F9
330
1F
100
AcDbEntity
  8
0
100
AcDbLine
 10
-4.018809281515355
 20
-8.722583625137915
 30
0.0
 11
-4.011585151222807
 21
-8.718091372245269
 31
0.0
  0
LINE
  5
1FA
330
1F
100
AcDbEntity
  8
0
100
AcDbLine
 10
-4.011585151222807
 20
-8.718091372245269
 30
0.0
 11
-4.004670295744221
 21
-8.713136256883796
 31
0.0
  0
LINE
  5
1FB
330
1F
100
AcDbEntity
  8
0
100
AcDbLine
 10
-4.004670295744221
 20
-8.713136256883796
 30
0.0
 11
-3.998094325552346
 21
-8.707739497618203
 31
0.0
  0
LINE
  5
1FC
330
1F
100
AcDbEntity
  8
0
100
AcDbLine
 10
-3.998094325552346
 20
-8.707739497618203
 30
0.0
 11
-3.991885399961104
 21
-8.701924204200187
 31
0.0
  0
LINE
  5
1FD
330
1F
100
AcDbEntity
  8
0
100
AcDbLine
 10
-3.991885399961104
 20
-8.701924204200187
 30
0.0
 11
-3.986070106543088
 21
-8.695715278608946
 31
0.0
  0
LINE
  5
1FE
330
1F
100
AcDbEntity
  8
0
100
AcDbLine
 10
-3.986070106543088
 20
-8.695715278608946
 30
0.0
 11
-3.980673347277494
 21
-8.689139308417069
 31
0.0
  0
LINE
  5
1FF
330
1F
100
AcDbEntity
  8
0
100
AcDbLine
 10
-3.980673347277494
 20
-8.689139308417069
 30
0.0
 11
-3.975718231916025
 21
-8.682224452938485
 31
0.0
  0
LINE
  5
200
330
1F
100
AcDbEntity
  8
0
100
AcDbLine
 10
-3.975718231916025
 20
-8.682224452938485
 30
0.0
 11
-3.971225979023378
 21
-8.675000322645936
 31
0.0
  0
LINE
  5
201
330
1F
100
AcDbEntity
  8
0
100
AcDbLine
 10
-3.971225979023378
 20
-8.675000322645936
 30
0.0
 11
-3.967215825116106
 21
-8.667497852374407
 31
0.0
  0
LINE
  5
202
330
1F
100
AcDbEntity
  8
0
100
AcDbLine
 10
-3.967215825116106
 20
-8.667497852374407
 30
0.0
 11
-3.963704942288888
 21
-8.659749168853399
 31
0.0
  0
LINE
  5
203
330
1F
100
AcDbEntity
  8
0
100
AcDbLine
 10
-3.963704942288888
 20
-8.659749168853399
 30
0.0
 11
-3.960708364680992
 21
-8.651787453135347
 31
0.0
  0
LINE
  5
204
330
1F
100
AcDbEntity
  8
0
100
AcDbLine
 10
-3.960708364680992
 20
-8.651787453135347
 30
0.0
 11
-3.958238924097777
 21
-8.643646798509263
 31
0.0
  0
LINE
  5
205
330
1F
100
AcDbEntity
  8
0
100
AcDbLine
 10
-3.958238924097777
 20
-8.643646798509263
 30
0.0
 11
-3.956307195062935
 21
-8.635362064508033
 31
0.0
  0
LINE
  5
206
330
1F
100
AcDbEntity
  8
0
100
AcDbLine
 10
-3.956307195062935
 20
-8.635362064508033
 30
0.0
 11
-3.95492144953676
 21
-8.626968727634543
 31
0.0
  0
LINE
  5
207
330
1F
100
AcDbEntity
  8
0
100
AcDbLine
 10
-3.95492144953676
 20
-8.626968727634543
 30
0.0
 11
-3.954087621494337
 21
-8.618502729445854
 31
0.0
  0
LINE
  5
208
330
1F
100
AcDbEntity
  8
0
100
AcDbLine
 10
-3.954087621494337
 20
-8.618502729445854
 30
0.0
 11
-3.953809281515356
 21
-8.610000322645938
 31
0.0
  0
LINE
  5
209
330
1F
100
AcDbEntity
  8
0
100
AcDbLine
 10
-3.953809281515356
 20
-3.610000474391217
 30
0.0
 11
-3.954087621494337
 21
-3.601498067591299
 31
0.0
  0
LINE
  5
20A
330
1F
100
AcDbEntity
  8
0
100
AcDbLine
 10
-3.954087621494337
 20
-3.601498067591299
 30
0.0
 11
-3.95492144953676
 21
-3.593032069402611
 31
0.0
  0
LINE
  5
20B
330
1F
100
AcDbEntity
  8
0
100
AcDbLine
 10
-3.95492144953676
 20
-3.593032069402611
 30
0.0
 11
-3.956307195062935
 21
-3.58463873252912
 31
0.0
  0
LINE
  5
20C
330
1F
100
AcDbEntity
  8
0
100
AcDbLine
 10
-3.956307195062935
 20
-3.58463873252912
 30
0.0
 11
-3.958238924097777
 21
-3.576353998527889
 31
0.0
  0
LINE
  5
20D
330
1F
100
AcDbEntity
  8
0
100
AcDbLine
 10
-3.958238924097777
 20
-3.576353998527889
 30
0.0
 11
-3.960708364680992
 21
-3.568213343901807
 31
0.0
  0
LINE
  5
20E
330
1F
100
AcDbEntity
  8
0
100
AcDbLine
 10
-3.960708364680992
 20
-3.568213343901807
 30
0.0
 11
-3.963704942288889
 21
-3.560251628183755
 31
0.0
  0
LINE
  5
20F
330
1F
100
AcDbEntity
  8
0
100
AcDbLine
 10
-3.963704942288889
 20
-3.560251628183755
 30
0.0
 11
-3.967215825116106
 21
-3.552502944662747
 31
0.0
  0
LINE
  5
210
330
1F
100
AcDbEntity
  8
0
100
AcDbLine
 10
-3.967215825116106
 20
-3.552502944662747
 30
0.0
 11
-3.971225979023378
 21
-3.545000474391218
 31
0.0
  0
LINE
  5
211
330
1F
100
AcDbEntity
  8
0
100
AcDbLine
 10
-3.971225979023378
 20
-3.545000474391218
 30
0.0
 11
-3.975718231916025
 21
-3.537776344098669
 31
0.0
  0
LINE
  5
212
330
1F
100
AcDbEntity
  8
0
100
AcDbLine
 10
-3.975718231916025
 20
-3.537776344098669
 30
0.0
 11
-3.980673347277495
 21
-3.530861488620083
 31
0.0
  0
LINE
  5
213
330
1F
100
AcDbEntity
  8
0
100
AcDbLine
 10
-3.980673347277495
 20
-3.530861488620083
 30
0.0
 11
-3.986070106543089
 21
-3.524285518428208
 31
0.0
  0
LINE
  5
214
330
1F
100
AcDbEntity
  8
0
100
AcDbLine
 10
-3.986070106543089
 20
-3.524285518428208
 30
0.0
 11
-3.991885399961104
 21
-3.518076592836966
 31
0.0
  0
LINE
  5
215
330
1F
100
AcDbEntity
  8
0
100
AcDbLine
 10
-3.991885399961104
 20
-3.518076592836966
 30
0.0
 11
-3.998094325552347
 21
-3.512261299418951
 31
0.0
  0
LINE
  5
216
330
1F
100
AcDbEntity
  8
0
100
AcDbLine
 10
-3.998094325552347
 20
-3.512261299418951
 30
0.0
 11
-4.004670295744222
 21
-3.506864540153357
 31
0.0
  0
LINE
  5
217
330
1F
100
AcDbEntity
  8
0
100
AcDbLine
 10
-4.004670295744222
 20
-3.506864540153357
 30
0.0
 11
-4.011585151222807
 21
-3.501909424791886
 31
0.0
  0
LINE
  5
218
330
1F
100
AcDbEntity
  8
0
100
AcDbLine
 10
-4.011585151222807
 20
-3.501909424791886
 30
0.0
 11
-4.018809281515356
 21
-3.49741717189924
 31
0.0
  0
LINE
  5
219
330
1F
100
AcDbEntity
  8
0
100
AcDbLine
 10
-4.018809281515356
 20
-3.49741717189924
 30
0.0
 11
-4.026311751786885
 21
-3.493407017991968
 31
0.0
  0
LINE
  5
21A
330
1F
100
AcDbEntity
  8
0
100
AcDbLine
 10
-4.026311751786885
 20
-3.493407017991968
 30
0.0
 11
-4.034060435307894
 21
-3.48989613516475
 31
0.0
  0
LINE
  5
21B
330
1F
100
AcDbEntity
  8
0
100
AcDbLine
 10
-4.034060435307894
 20
-3.48989613516475
 30
0.0
 11
-4.042022151025945
 21
-3.486899557556853
 31
0.0
  0
LINE
  5
21C
330
1F
100
AcDbEntity
  8
0
100
AcDbLine
 10
-4.042022151025945
 20
-3.486899557556853
 30
0.0
 11
-4.050162805652028
 21
-3.484430116973639
 31
0.0
  0
LINE
  5
21D
330
1F
100
AcDbEntity
  8
0
100
AcDbLine
 10
-4.050162805652028
 20
-3.484430116973639
 30
0.0
 11
-4.058447539653259
 21
-3.482498387938797
 31
0.0
  0
LINE
  5
21E
330
1F
100
AcDbEntity
  8
0
100
AcDbLine
 10
-4.058447539653259
 20
-3.482498387938797
 30
0.0
 11
-4.066840876526749
 21
-3.481112642412622
 31
0.0
  0
LINE
  5
21F
330
1F
100
AcDbEntity
  8
0
100
AcDbLine
 10
-4.066840876526749
 20
-3.481112642412622
 30
0.0
 11
-4.075306874715437
 21
-3.480278814370198
 31
0.0
  0
LINE
  5
220
330
1F
100
AcDbEntity
  8
0
100
AcDbLine
 10
-4.075306874715437
 20
-3.480278814370198
 30
0.0
 11
-4.083809281515355
 21
-3.480000474391218
 31
0.0
  0
LINE
  5
221
330
1F
100
AcDbEntity
  8
0
100
AcDbLine
 10
-4.083809281515355
 20
-3.480000474391218
 30
0.0
 11
-4.092311688315274
 21
-3.480278814370198
 31
0.0
  0
LINE
  5
222
330
1F
100
AcDbEntity
  8
0
100
AcDbLine
 10
-4.092311688315274
 20
-3.480278814370198
 30
0.0
 11
-4.100777686503962
 21
-3.481112642412622
 31
0.0
  0
LINE
  5
223
330
1F
100
AcDbEntity
  8
0
100
AcDbLine
 10
-4.100777686503962
 20
-3.481112642412622
 30
0.0
 11
-4.109171023377452
 21
-3.482498387938797
 31
0.0
  0
LINE
  5
224
330
1F
100
AcDbEntity
  8
0
100
AcDbLine
 10
-4.109171023377452
 20
-3.482498387938797
 30
0.0
 11
-4.117455757378683
 21
-3.484430116973639
 31
0.0
  0
LINE
  5
225
330
1F
100
AcDbEntity
  8
0
100
AcDbLine
 10
-4.117455757378683
 20
-3.484430116973639
 30
0.0
 11
-4.125596412004766
 21
-3.486899557556853
 31
0.0
  0
LINE
  5
226
330
1F
100
AcDbEntity
  8
0
100
AcDbLine
 10
-4.125596412004766
 20
-3.486899557556853
 30
0.0
 11
-4.133558127722817
 21
-3.48989613516475
 31
0.0
  0
LINE
  5
227
330
1F
100
AcDbEntity
  8
0
100
AcDbLine
 10
-4.133558127722817
 20
-3.48989613516475
 30
0.0
 11
-4.141306811243825
 21
-3.493407017991968
 31
0.0
  0
LINE
  5
228
330
1F
100
AcDbEntity
  8
0
100
AcDbLine
 10
-4.141306811243825
 20
-3.493407017991968
 30
0.0
 11
-4.148809281515355
 21
-3.49741717189924
 31
0.0
  0
LINE
  5
229
330
1F
100
AcDbEntity
  8
0
100
AcDbLine
 10
-4.148809281515355
 20
-3.49741717189924
 30
0.0
 11
-4.156033411807903
 21
-3.501909424791886
 31
0.0
  0
LINE
  5
22A
330
1F
100
AcDbEntity
  8
0
100
AcDbLine
 10
-4.156033411807903
 20
-3.501909424791886
 30
0.0
 11
-4.162948267286489
 21
-3.506864540153357
 31
0.0
  0
LINE
  5
22B
330
1F
100
AcDbEntity
  8
0
100
AcDbLine
 10
-4.162948267286489
 20
-3.506864540153357
 30
0.0
 11
-4.169524237478364
 21
-3.512261299418951
 31
0.0
  0
LINE
  5
22C
330
1F
100
AcDbEntity
  8
0
100
AcDbLine
 10
-4.169524237478364
 20
-3.512261299418951
 30
0.0
 11
-4.175733163069607
 21
-3.518076592836966
 31
0.0
  0
LINE
  5
22D
330
1F
100
AcDbEntity
  8
0
100
AcDbLine
 10
-4.175733163069607
 20
-3.518076592836966
 30
0.0
 11
-4.181548456487622
 21
-3.524285518428208
 31
0.0
  0
LINE
  5
22E
330
1F
100
AcDbEntity
  8
0
100
AcDbLine
 10
-4.181548456487622
 20
-3.524285518428208
 30
0.0
 11
-4.186945215753216
 21
-3.530861488620083
 31
0.0
  0
LINE
  5
22F
330
1F
100
AcDbEntity
  8
0
100
AcDbLine
 10
-4.186945215753216
 20
-3.530861488620083
 30
0.0
 11
-4.191900331114686
 21
-3.537776344098669
 31
0.0
  0
LINE
  5
230
330
1F
100
AcDbEntity
  8
0
100
AcDbLine
 10
-4.191900331114686
 20
-3.537776344098669
 30
0.0
 11
-4.196392584007333
 21
-3.545000474391218
 31
0.0
  0
LINE
  5
231
330
1F
100
AcDbEntity
  8
0
100
AcDbLine
 10
-4.196392584007333
 20
-3.545000474391218
 30
0.0
 11
-4.200402737914605
 21
-3.552502944662747
 31
0.0
  0
LINE
  5
232
330
1F
100
AcDbEntity
  8
0
100
AcDbLine
 10
-4.200402737914605
 20
-3.552502944662747
 30
0.0
 11
-4.203913620741822
 21
-3.560251628183755
 31
0.0
  0
LINE
  5
233
330
1F
100
AcDbEntity
  8
0
100
AcDbLine
 10
-4.203913620741822
 20
-3.560251628183755
 30
0.0
 11
-4.206910198349719
 21
-3.568213343901807
 31
0.0
  0
LINE
  5
234
330
1F
100
AcDbEntity
  8
0
100
AcDbLine
 10
-4.206910198349719
 20
-3.568213343901807
 30
0.0
 11
-4.209379638932934
 21
-3.576353998527889
 31
0.0
  0
LINE
  5
235
330
1F
100
AcDbEntity
  8
0
100
AcDbLine
 10
-4.209379638932934
 20
-3.576353998527889
 30
0.0
 11
-4.211311367967776
 21
-3.58463873252912
 31
0.0
  0
LINE
  5
236
330
1F
100
AcDbEntity
  8
0
100
AcDbLine
 10
-4.211311367967776
 20
-3.58463873252912
 30
0.0
 11
-4.212697113493951
 21
-3.593032069402611
 31
0.0
  0
LINE
  5
237
330
1F
100
AcDbEntity
  8
0
100
AcDbLine
 10
-4.212697113493951
 20
-3.593032069402611
 30
0.0
 11
-4.213530941536374
 21
-3.601498067591299
 31
0.0
  0
LINE
  5
238
330
1F
100
AcDbEntity
  8
0
100
AcDbLine
 10
-4.213530941536374
 20
-3.601498067591299
 30
0.0
 11
-4.213809281515355
 21
-3.610000474391217
 31
0.0
  0
LINE
  5
239
330
1F
100
AcDbEntity
  8
0
100
AcDbLine
 10
-4.213809281515355
 20
-3.610000474391217
 30
0.0
 11
-4.213530941536374
 21
-3.618502881191136
 31
0.0
  0
LINE
  5
23A
330
1F
100
AcDbEntity
  8
0
100
AcDbLine
 10
-4.213530941536374
 20
-3.618502881191136
 30
0.0
 11
-4.212697113493951
 21
-3.626968879379824
 31
0.0
  0
LINE
  5
23B
330
1F
100
AcDbEntity
  8
0
100
AcDbLine
 10
-4.212697113493951
 20
-3.626968879379824
 30
0.0
 11
-4.211311367967776
 21
-3.635362216253313
 31
0.0
  0
LINE
  5
23C
330
1F
100
AcDbEntity
  8
0
100
AcDbLine
 10
-4.211311367967776
 20
-3.635362216253313
 30
0.0
 11
-4.209379638932934
 21
-3.643646950254544
 31
0.0
  0
LINE
  5
23D
330
1F
100
AcDbEntity
  8
0
100
AcDbLine
 10
-4.209379638932934
 20
-3.643646950254544
 30
0.0
 11
-4.206910198349719
 21
-3.651787604880628
 31
0.0
  0
LINE
  5
23E
330
1F
100
AcDbEntity
  8
0
100
AcDbLine
 10
-4.206910198349719
 20
-3.651787604880628
 30
0.0
 11
-4.203913620741822
 21
-3.659749320598678
 31
0.0
  0
LINE
  5
23F
330
1F
100
AcDbEntity
  8
0
100
AcDbLine
 10
-4.203913620741822
 20
-3.659749320598678
 30
0.0
 11
-4.200402737914605
 21
-3.667498004119688
 31
0.0
  0
LINE
  5
240
330
1F
100
AcDbEntity
  8
0
100
AcDbLine
 10
-4.200402737914605
 20
-3.667498004119688
 30
0.0
 11
-4.196392584007333
 21
-3.675000474391217
 31
0.0
  0
LINE
  5
241
330
1F
100
AcDbEntity
  8
0
100
AcDbLine
 10
-4.196392584007333
 20
-3.675000474391217
 30
0.0
 11
-4.191900331114686
 21
-3.682224604683766
 31
0.0
  0
LINE
  5
242
330
1F
100
AcDbEntity
  8
0
100
AcDbLine
 10
-4.191900331114686
 20
-3.682224604683766
 30
0.0
 11
-4.186945215753216
 21
-3.68913946016235
 31
0.0
  0
LINE
  5
243
330
1F
100
AcDbEntity
  8
0
100
AcDbLine
 10
-4.186945215753216
 20
-3.68913946016235
 30
0.0
 11
-4.181548456487623
 21
-3.695715430354225
 31
0.0
  0
LINE
  5
244
330
1F
100
AcDbEntity
  8
0
100
AcDbLine
 10
-4.181548456487623
 20
-3.695715430354225
 30
0.0
 11
-4.175733163069607
 21
-3.701924355945469
 31
0.0
  0
LINE
  5
245
330
1F
100
AcDbEntity
  8
0
100
AcDbLine
 10
-4.175733163069607
 20
-3.701924355945469
 30
0.0
 11
-4.169524237478365
 21
-3.707739649363484
 31
0.0
  0
LINE
  5
246
330
1F
100
AcDbEntity
  8
0
100
AcDbLine
 10
-4.169524237478365
 20
-3.707739649363484
 30
0.0
 11
-4.162948267286489
 21
-3.713136408629078
 31
0.0
  0
LINE
  5
247
330
1F
100
AcDbEntity
  8
0
100
AcDbLine
 10
-4.162948267286489
 20
-3.713136408629078
 30
0.0
 11
-4.156033411807904
 21
-3.718091523990548
 31
0.0
  0
LINE
  5
248
330
1F
100
AcDbEntity
  8
0
100
AcDbLine
 10
-4.156033411807904
 20
-3.718091523990548
 30
0.0
 11
-4.148809281515356
 21
-3.722583776883194
 31
0.0
  0
LINE
  5
249
330
1F
100
AcDbEntity
  8
0
100
AcDbLine
 10
-4.148809281515356
 20
-3.722583776883194
 30
0.0
 11
-4.141306811243826
 21
-3.726593930790466
 31
0.0
  0
LINE
  5
24A
330
1F
100
AcDbEntity
  8
0
100
AcDbLine
 10
-4.141306811243826
 20
-3.726593930790466
 30
0.0
 11
-4.133558127722817
 21
-3.730104813617684
 31
0.0
  0
LINE
  5
24B
330
1F
100
AcDbEntity
  8
0
100
AcDbLine
 10
-4.133558127722817
 20
-3.730104813617684
 30
0.0
 11
-4.125596412004767
 21
-3.733101391225581
 31
0.0
  0
LINE
  5
24C
330
1F
100
AcDbEntity
  8
0
100
AcDbLine
 10
-4.125596412004767
 20
-3.733101391225581
 30
0.0
 11
-4.117455757378683
 21
-3.735570831808795
 31
0.0
  0
LINE
  5
24D
330
1F
100
AcDbEntity
  8
0
100
AcDbLine
 10
-4.117455757378683
 20
-3.735570831808795
 30
0.0
 11
-4.109171023377452
 21
-3.737502560843637
 31
0.0
  0
LINE
  5
24E
330
1F
100
AcDbEntity
  8
0
100
AcDbLine
 10
-4.109171023377452
 20
-3.737502560843637
 30
0.0
 11
-4.100777686503962
 21
-3.738888306369812
 31
0.0
  0
LINE
  5
24F
330
1F
100
AcDbEntity
  8
0
100
AcDbLine
 10
-4.100777686503962
 20
-3.738888306369812
 30
0.0
 11
-4.092311688315274
 21
-3.739722134412236
 31
0.0
  0
LINE
  5
250
330
1F
100
AcDbEntity
  8
0
100
AcDbLine
 10
-4.092311688315274
 20
-3.739722134412236
 30
0.0
 11
-4.083809281515355
 21
-3.740000474391216
 31
0.0
  0
LINE
  5
251
330
1F
100
AcDbEntity
  8
0
100
AcDbLine
 10
-4.083809281515355
 20
-3.740000474391216
 30
0.0
 11
-4.075306874715436
 21
-3.739722134412236
 31
0.0
  0
LINE
  5
252
330
1F
100
AcDbEntity
  8
0
100
AcDbLine
 10
-4.075306874715436
 20
-3.739722134412236
 30
0.0
 11
-4.066840876526749
 21
-3.738888306369812
 31
0.0
  0
LINE
  5
253
330
1F
100
AcDbEntity
  8
0
100
AcDbLine
 10
-4.066840876526749
 20
-3.738888306369812
 30
0.0
 11
-4.058447539653258
 21
-3.737502560843637
 31
0.0
  0
LINE
  5
254
330
1F
100
AcDbEntity
  8
0
100
AcDbLine
 10
-4.058447539653258
 20
-3.737502560843637
 30
0.0
 11
-4.050162805652027
 21
-3.735570831808795
 31
0.0
  0
LINE
  5
255
330
1F
100
AcDbEntity
  8
0
100
AcDbLine
 10
-4.050162805652027
 20
-3.735570831808795
 30
0.0
 11
-4.042022151025944
 21
-3.733101391225581
 31
0.0
  0
LINE
  5
256
330
1F
100
AcDbEntity
  8
0
100
AcDbLine
 10
-4.042022151025944
 20
-3.733101391225581
 30
0.0
 11
-4.034060435307894
 21
-3.730104813617684
 31
0.0
  0
LINE
  5
257
330
1F
100
AcDbEntity
  8
0
100
AcDbLine
 10
-4.034060435307894
 20
-3.730104813617684
 30
0.0
 11
-4.026311751786885
 21
-3.726593930790466
 31
0.0
  0
LINE
  5
258
330
1F
100
AcDbEntity
  8
0
100
AcDbLine
 10
-4.026311751786885
 20
-3.726593930790466
 30
0.0
 11
-4.018809281515355
 21
-3.722583776883194
 31
0.0
  0
LINE
  5
259
330
1F
100
AcDbEntity
  8
0
100
AcDbLine
 10
-4.018809281515355
 20
-3.722583776883194
 30
0.0
 11
-4.011585151222807
 21
-3.718091523990548
 31
0.0
  0
LINE
  5
25A
330
1F
100
AcDbEntity
  8
0
100
AcDbLine
 10
-4.011585151222807
 20
-3.718091523990548
 30
0.0
 11
-4.004670295744221
 21
-3.713136408629078
 31
0.0
  0
LINE
  5
25B
330
1F
100
AcDbEntity
  8
0
100
AcDbLine
 10
-4.004670295744221
 20
-3.713136408629078
 30
0.0
 11
-3.998094325552346
 21
-3.707739649363484
 31
0.0
  0
LINE
  5
25C
330
1F
100
AcDbEntity
  8
0
100
AcDbLine
 10
-3.998094325552346
 20
-3.707739649363484
 30
0.0
 11
-3.991885399961104
 21
-3.701924355945469
 31
0.0
  0
LINE
  5
25D
330
1F
100
AcDbEntity
  8
0
100
AcDbLine
 10
-3.991885399961104
 20
-3.701924355945469
 30
0.0
 11
-3.986070106543088
 21
-3.695715430354225
 31
0.0
  0
LINE
  5
25E
330
1F
100
AcDbEntity
  8
0
100
AcDbLine
 10
-3.986070106543088
 20
-3.695715430354225
 30
0.0
 11
-3.980673347277494
 21
-3.68913946016235
 31
0.0
  0
LINE
  5
25F
330
1F
100
AcDbEntity
  8
0
100
AcDbLine
 10
-3.980673347277494
 20
-3.68913946016235
 30
0.0
 11
-3.975718231916025
 21
-3.682224604683764
 31
0.0
  0
LINE
  5
260
330
1F
100
AcDbEntity
  8
0
100
AcDbLine
 10
-3.975718231916025
 20
-3.682224604683764
 30
0.0
 11
-3.971225979023378
 21
-3.675000474391217
 31
0.0
  0
LINE
  5
261
330
1F
100
AcDbEntity
  8
0
100
AcDbLine
 10
-3.971225979023378
 20
-3.675000474391217
 30
0.0
 11
-3.967215825116106
 21
-3.667498004119686
 31
0.0
  0
LINE
  5
262
330
1F
100
AcDbEntity
  8
0
100
AcDbLine
 10
-3.967215825116106
 20
-3.667498004119686
 30
0.0
 11
-3.963704942288888
 21
-3.659749320598678
 31
0.0
  0
LINE
  5
263
330
1F
100
AcDbEntity
  8
0
100
AcDbLine
 10
-3.963704942288888
 20
-3.659749320598678
 30
0.0
 11
-3.960708364680992
 21
-3.651787604880628
 31
0.0
  0
LINE
  5
264
330
1F
100
AcDbEntity
  8
0
100
AcDbLine
 10
-3.960708364680992
 20
-3.651787604880628
 30
0.0
 11
-3.958238924097777
 21
-3.643646950254544
 31
0.0
  0
LINE
  5
265
330
1F
100
AcDbEntity
  8
0
100
AcDbLine
 10
-3.958238924097777
 20
-3.643646950254544
 30
0.0
 11
-3.956307195062935
 21
-3.635362216253313
 31
0.0
  0
LINE
  5
266
330
1F
100
AcDbEntity
  8
0
100
AcDbLine
 10
-3.956307195062935
 20
-3.635362216253313
 30
0.0
 11
-3.95492144953676
 21
-3.626968879379822
 31
0.0
  0
LINE
  5
267
330
1F
100
AcDbEntity
  8
0
100
AcDbLine
 10
-3.95492144953676
 20
-3.626968879379822
 30
0.0
 11
-3.954087621494337
 21
-3.618502881191136
 31
0.0
  0
LINE
  5
268
330
1F
100
AcDbEntity
  8
0
100
AcDbLine
 10
-3.954087621494337
 20
-3.618502881191136
 30
0.0
 11
-3.953809281515356
 21
-3.610000474391217
 31
0.0
  0
LINE
  5
269
330
1F
100
AcDbEntity
  8
0
100
AcDbLine
 10
5.046190904167828
 20
-8.610000474391216
 30
0.0
 11
5.045912564188848
 21
-8.601498067591297
 31
0.0
  0
LINE
  5
26A
330
1F
100
AcDbEntity
  8
0
100
AcDbLine
 10
5.045912564188848
 20
-8.601498067591297
 30
0.0
 11
5.045078736146424
 21
-8.593032069402609
 31
0.0
  0
LINE
  5
26B
330
1F
100
AcDbEntity
  8
0
100
AcDbLine
 10
5.045078736146424
 20
-8.593032069402609
 30
0.0
 11
5.043692990620249
 21
-8.584638732529118
 31
0.0
  0
LINE
  5
26C
330
1F
100
AcDbEntity
  8
0
100
AcDbLine
 10
5.043692990620249
 20
-8.584638732529118
 30
0.0
 11
5.041761261585409
 21
-8.576353998527889
 31
0.0
  0
LINE
  5
26D
330
1F
100
AcDbEntity
  8
0
100
AcDbLine
 10
5.041761261585409
 20
-8.576353998527889
 30
0.0
 11
5.039291821002193
 21
-8.568213343901805
 31
0.0
  0
LINE
  5
26E
330
1F
100
AcDbEntity
  8
0
100
AcDbLine
 10
5.039291821002193
 20
-8.568213343901805
 30
0.0
 11
5.036295243394298
 21
-8.560251628183753
 31
0.0
  0
LINE
  5
26F
330
1F
100
AcDbEntity
  8
0
100
AcDbLine
 10
5.036295243394298
 20
-8.560251628183753
 30
0.0
 11
5.032784360567076
 21
-8.552502944662745
 31
0.0
  0
LINE
  5
270
330
1F
100
AcDbEntity
  8
0
100
AcDbLine
 10
5.032784360567076
 20
-8.552502944662745
 30
0.0
 11
5.028774206659806
 21
-8.545000474391216
 31
0.0
  0
LINE
  5
271
330
1F
100
AcDbEntity
  8
0
100
AcDbLine
 10
5.028774206659806
 20
-8.545000474391216
 30
0.0
 11
5.02428195376716
 21
-8.537776344098667
 31
0.0
  0
LINE
  5
272
330
1F
100
AcDbEntity
  8
0
100
AcDbLine
 10
5.02428195376716
 20
-8.537776344098667
 30
0.0
 11
5.019326838405687
 21
-8.530861488620083
 31
0.0
  0
LINE
  5
273
330
1F
100
AcDbEntity
  8
0
100
AcDbLine
 10
5.019326838405687
 20
-8.530861488620083
 30
0.0
 11
5.013930079140094
 21
-8.524285518428208
 31
0.0
  0
LINE
  5
274
330
1F
100
AcDbEntity
  8
0
100
AcDbLine
 10
5.013930079140094
 20
-8.524285518428208
 30
0.0
 11
5.00811478572208
 21
-8.518076592836964
 31
0.0
  0
LINE
  5
275
330
1F
100
AcDbEntity
  8
0
100
AcDbLine
 10
5.00811478572208
 20
-8.518076592836964
 30
0.0
 11
5.001905860130838
 21
-8.512261299418949
 31
0.0
  0
LINE
  5
276
330
1F
100
AcDbEntity
  8
0
100
AcDbLine
 10
5.001905860130838
 20
-8.512261299418949
 30
0.0
 11
4.995329889938963
 21
-8.506864540153355
 31
0.0
  0
LINE
  5
277
330
1F
100
AcDbEntity
  8
0
100
AcDbLine
 10
4.995329889938963
 20
-8.506864540153355
 30
0.0
 11
4.988415034460379
 21
-8.501909424791885
 31
0.0
  0
LINE
  5
278
330
1F
100
AcDbEntity
  8
0
100
AcDbLine
 10
4.988415034460379
 20
-8.501909424791885
 30
0.0
 11
4.98119090416783
 21
-8.497417171899238
 31
0.0
  0
LINE
  5
279
330
1F
100
AcDbEntity
  8
0
100
AcDbLine
 10
4.98119090416783
 20
-8.497417171899238
 30
0.0
 11
4.973688433896298
 21
-8.493407017991967
 31
0.0
  0
LINE
  5
27A
330
1F
100
AcDbEntity
  8
0
100
AcDbLine
 10
4.973688433896298
 20
-8.493407017991967
 30
0.0
 11
4.96593975037529
 21
-8.489896135164749
 31
0.0
  0
LINE
  5
27B
330
1F
100
AcDbEntity
  8
0
100
AcDbLine
 10
4.96593975037529
 20
-8.489896135164749
 30
0.0
 11
4.95797803465724
 21
-8.486899557556852
 31
0.0
  0
LINE
  5
27C
330
1F
100
AcDbEntity
  8
0
100
AcDbLine
 10
4.95797803465724
 20
-8.486899557556852
 30
0.0
 11
4.949837380031157
 21
-8.484430116973638
 31
0.0
  0
LINE
  5
27D
330
1F
100
AcDbEntity
  8
0
100
AcDbLine
 10
4.949837380031157
 20
-8.484430116973638
 30
0.0
 11
4.941552646029924
 21
-8.482498387938795
 31
0.0
  0
LINE
  5
27E
330
1F
100
AcDbEntity
  8
0
100
AcDbLine
 10
4.941552646029924
 20
-8.482498387938795
 30
0.0
 11
4.933159309156435
 21
-8.48111264241262
 31
0.0
  0
LINE
  5
27F
330
1F
100
AcDbEntity
  8
0
100
AcDbLine
 10
4.933159309156435
 20
-8.48111264241262
 30
0.0
 11
4.924693310967745
 21
-8.480278814370198
 31
0.0
  0
LINE
  5
280
330
1F
100
AcDbEntity
  8
0
100
AcDbLine
 10
4.924693310967745
 20
-8.480278814370198
 30
0.0
 11
4.916190904167829
 21
-8.480000474391215
 31
0.0
  0
LINE
  5
281
330
1F
100
AcDbEntity
  8
0
100
AcDbLine
 10
4.916190904167829
 20
-8.480000474391215
 30
0.0
 11
4.907688497367911
 21
-8.480278814370198
 31
0.0
  0
LINE
  5
282
330
1F
100
AcDbEntity
  8
0
100
AcDbLine
 10
4.907688497367911
 20
-8.480278814370198
 30
0.0
 11
4.899222499179222
 21
-8.48111264241262
 31
0.0
  0
LINE
  5
283
330
1F
100
AcDbEntity
  8
0
100
AcDbLine
 10
4.899222499179222
 20
-8.48111264241262
 30
0.0
 11
4.890829162305733
 21
-8.482498387938795
 31
0.0
  0
LINE
  5
284
330
1F
100
AcDbEntity
  8
0
100
AcDbLine
 10
4.890829162305733
 20
-8.482498387938795
 30
0.0
 11
4.882544428304501
 21
-8.484430116973638
 31
0.0
  0
LINE
  5
285
330
1F
100
AcDbEntity
  8
0
100
AcDbLine
 10
4.882544428304501
 20
-8.484430116973638
 30
0.0
 11
4.874403773678418
 21
-8.486899557556852
 31
0.0
  0
LINE
  5
286
330
1F
100
AcDbEntity
  8
0
100
AcDbLine
 10
4.874403773678418
 20
-8.486899557556852
 30
0.0
 11
4.866442057960368
 21
-8.489896135164749
 31
0.0
  0
LINE
  5
287
330
1F
100
AcDbEntity
  8
0
100
AcDbLine
 10
4.866442057960368
 20
-8.489896135164749
 30
0.0
 11
4.85869337443936
 21
-8.493407017991967
 31
0.0
  0
LINE
  5
288
330
1F
100
AcDbEntity
  8
0
100
AcDbLine
 10
4.85869337443936
 20
-8.493407017991967
 30
0.0
 11
4.851190904167829
 21
-8.497417171899238
 31
0.0
  0
LINE
  5
289
330
1F
100
AcDbEntity
  8
0
100
AcDbLine
 10
4.851190904167829
 20
-8.497417171899238
 30
0.0
 11
4.843966773875282
 21
-8.501909424791885
 31
0.0
  0
LINE
  5
28A
330
1F
100
AcDbEntity
  8
0
100
AcDbLine
 10
4.843966773875282
 20
-8.501909424791885
 30
0.0
 11
4.837051918396694
 21
-8.506864540153355
 31
0.0
  0
LINE
  5
28B
330
1F
100
AcDbEntity
  8
0
100
AcDbLine
 10
4.837051918396694
 20
-8.506864540153355
 30
0.0
 11
4.830475948204819
 21
-8.512261299418949
 31
0.0
  0
LINE
  5
28C
330
1F
100
AcDbEntity
  8
0
100
AcDbLine
 10
4.830475948204819
 20
-8.512261299418949
 30
0.0
 11
4.824267022613578
 21
-8.518076592836964
 31
0.0
  0
LINE
  5
28D
330
1F
100
AcDbEntity
  8
0
100
AcDbLine
 10
4.824267022613578
 20
-8.518076592836964
 30
0.0
 11
4.818451729195562
 21
-8.524285518428208
 31
0.0
  0
LINE
  5
28E
330
1F
100
AcDbEntity
  8
0
100
AcDbLine
 10
4.818451729195562
 20
-8.524285518428208
 30
0.0
 11
4.813054969929969
 21
-8.530861488620083
 31
0.0
  0
LINE
  5
28F
330
1F
100
AcDbEntity
  8
0
100
AcDbLine
 10
4.813054969929969
 20
-8.530861488620083
 30
0.0
 11
4.808099854568498
 21
-8.537776344098667
 31
0.0
  0
LINE
  5
290
330
1F
100
AcDbEntity
  8
0
100
AcDbLine
 10
4.808099854568498
 20
-8.537776344098667
 30
0.0
 11
4.803607601675852
 21
-8.545000474391216
 31
0.0
  0
LINE
  5
291
330
1F
100
AcDbEntity
  8
0
100
AcDbLine
 10
4.803607601675852
 20
-8.545000474391216
 30
0.0
 11
4.79959744776858
 21
-8.552502944662745
 31
0.0
  0
LINE
  5
292
330
1F
100
AcDbEntity
  8
0
100
AcDbLine
 10
4.79959744776858
 20
-8.552502944662745
 30
0.0
 11
4.796086564941362
 21
-8.560251628183753
 31
0.0
  0
LINE
  5
293
330
1F
100
AcDbEntity
  8
0
100
AcDbLine
 10
4.796086564941362
 20
-8.560251628183753
 30
0.0
 11
4.793089987333465
 21
-8.568213343901803
 31
0.0
  0
LINE
  5
294
330
1F
100
AcDbEntity
  8
0
100
AcDbLine
 10
4.793089987333465
 20
-8.568213343901803
 30
0.0
 11
4.790620546750249
 21
-8.576353998527887
 31
0.0
  0
LINE
  5
295
330
1F
100
AcDbEntity
  8
0
100
AcDbLine
 10
4.790620546750249
 20
-8.576353998527887
 30
0.0
 11
4.788688817715409
 21
-8.584638732529118
 31
0.0
  0
LINE
  5
296
330
1F
100
AcDbEntity
  8
0
100
AcDbLine
 10
4.788688817715409
 20
-8.584638732529118
 30
0.0
 11
4.787303072189234
 21
-8.593032069402607
 31
0.0
  0
LINE
  5
297
330
1F
100
AcDbEntity
  8
0
100
AcDbLine
 10
4.787303072189234
 20
-8.593032069402607
 30
0.0
 11
4.78646924414681
 21
-8.601498067591297
 31
0.0
  0
LINE
  5
298
330
1F
100
AcDbEntity
  8
0
100
AcDbLine
 10
4.78646924414681
 20
-8.601498067591297
 30
0.0
 11
4.78619090416783
 21
-8.610000474391216
 31
0.0
  0
LINE
  5
299
330
1F
100
AcDbEntity
  8
0
100
AcDbLine
 10
4.78619090416783
 20
-8.610000474391216
 30
0.0
 11
4.78646924414681
 21
-8.618502881191134
 31
0.0
  0
LINE
  5
29A
330
1F
100
AcDbEntity
  8
0
100
AcDbLine
 10
4.78646924414681
 20
-8.618502881191134
 30
0.0
 11
4.787303072189234
 21
-8.626968879379822
 31
0.0
  0
LINE
  5
29B
330
1F
100
AcDbEntity
  8
0
100
AcDbLine
 10
4.787303072189234
 20
-8.626968879379822
 30
0.0
 11
4.788688817715409
 21
-8.635362216253313
 31
0.0
  0
LINE
  5
29C
330
1F
100
AcDbEntity
  8
0
100
AcDbLine
 10
4.788688817715409
 20
-8.635362216253313
 30
0.0
 11
4.790620546750249
 21
-8.643646950254542
 31
0.0
  0
LINE
  5
29D
330
1F
100
AcDbEntity
  8
0
100
AcDbLine
 10
4.790620546750249
 20
-8.643646950254542
 30
0.0
 11
4.793089987333465
 21
-8.651787604880626
 31
0.0
  0
LINE
  5
29E
330
1F
100
AcDbEntity
  8
0
100
AcDbLine
 10
4.793089987333465
 20
-8.651787604880626
 30
0.0
 11
4.796086564941362
 21
-8.659749320598678
 31
0.0
  0
LINE
  5
29F
330
1F
100
AcDbEntity
  8
0
100
AcDbLine
 10
4.796086564941362
 20
-8.659749320598678
 30
0.0
 11
4.799597447768578
 21
-8.667498004119686
 31
0.0
  0
LINE
  5
2A0
330
1F
100
AcDbEntity
  8
0
100
AcDbLine
 10
4.799597447768578
 20
-8.667498004119686
 30
0.0
 11
4.803607601675852
 21
-8.675000474391215
 31
0.0
  0
LINE
  5
2A1
330
1F
100
AcDbEntity
  8
0
100
AcDbLine
 10
4.803607601675852
 20
-8.675000474391215
 30
0.0
 11
4.808099854568498
 21
-8.682224604683764
 31
0.0
  0
LINE
  5
2A2
330
1F
100
AcDbEntity
  8
0
100
AcDbLine
 10
4.808099854568498
 20
-8.682224604683764
 30
0.0
 11
4.813054969929969
 21
-8.689139460162348
 31
0.0
  0
LINE
  5
2A3
330
1F
100
AcDbEntity
  8
0
100
AcDbLine
 10
4.813054969929969
 20
-8.689139460162348
 30
0.0
 11
4.81845172919556
 21
-8.695715430354223
 31
0.0
  0
LINE
  5
2A4
330
1F
100
AcDbEntity
  8
0
100
AcDbLine
 10
4.81845172919556
 20
-8.695715430354223
 30
0.0
 11
4.824267022613578
 21
-8.701924355945465
 31
0.0
  0
LINE
  5
2A5
330
1F
100
AcDbEntity
  8
0
100
AcDbLine
 10
4.824267022613578
 20
-8.701924355945465
 30
0.0
 11
4.830475948204819
 21
-8.707739649363482
 31
0.0
  0
LINE
  5
2A6
330
1F
100
AcDbEntity
  8
0
100
AcDbLine
 10
4.830475948204819
 20
-8.707739649363482
 30
0.0
 11
4.837051918396694
 21
-8.713136408629076
 31
0.0
  0
LINE
  5
2A7
330
1F
100
AcDbEntity
  8
0
100
AcDbLine
 10
4.837051918396694
 20
-8.713136408629076
 30
0.0
 11
4.84396677387528
 21
-8.718091523990546
 31
0.0
  0
LINE
  5
2A8
330
1F
100
AcDbEntity
  8
0
100
AcDbLine
 10
4.84396677387528
 20
-8.718091523990546
 30
0.0
 11
4.851190904167828
 21
-8.722583776883193
 31
0.0
  0
LINE
  5
2A9
330
1F
100
AcDbEntity
  8
0
100
AcDbLine
 10
4.851190904167828
 20
-8.722583776883193
 30
0.0
 11
4.858693374439358
 21
-8.726593930790465
 31
0.0
  0
LINE
  5
2AA
330
1F
100
AcDbEntity
  8
0
100
AcDbLine
 10
4.858693374439358
 20
-8.726593930790465
 30
0.0
 11
4.866442057960368
 21
-8.730104813617682
 31
0.0
  0
LINE
  5
2AB
330
1F
100
AcDbEntity
  8
0
100
AcDbLine
 10
4.866442057960368
 20
-8.730104813617682
 30
0.0
 11
4.874403773678418
 21
-8.73310139122558
 31
0.0
  0
LINE
  5
2AC
330
1F
100
AcDbEntity
  8
0
100
AcDbLine
 10
4.874403773678418
 20
-8.73310139122558
 30
0.0
 11
4.882544428304501
 21
-8.735570831808793
 31
0.0
  0
LINE
  5
2AD
330
1F
100
AcDbEntity
  8
0
100
AcDbLine
 10
4.882544428304501
 20
-8.735570831808793
 30
0.0
 11
4.890829162305733
 21
-8.737502560843636
 31
0.0
  0
LINE
  5
2AE
330
1F
100
AcDbEntity
  8
0
100
AcDbLine
 10
4.890829162305733
 20
-8.737502560843636
 30
0.0
 11
4.899222499179222
 21
-8.73888830636981
 31
0.0
  0
LINE
  5
2AF
330
1F
100
AcDbEntity
  8
0
100
AcDbLine
 10
4.899222499179222
 20
-8.73888830636981
 30
0.0
 11
4.907688497367911
 21
-8.739722134412233
 31
0.0
  0
LINE
  5
2B0
330
1F
100
AcDbEntity
  8
0
100
AcDbLine
 10
4.907688497367911
 20
-8.739722134412233
 30
0.0
 11
4.916190904167829
 21
-8.740000474391216
 31
0.0
  0
LINE
  5
2B1
330
1F
100
AcDbEntity
  8
0
100
AcDbLine
 10
4.916190904167829
 20
-8.740000474391216
 30
0.0
 11
4.924693310967749
 21
-8.739722134412233
 31
0.0
  0
LINE
  5
2B2
330
1F
100
AcDbEntity
  8
0
100
AcDbLine
 10
4.924693310967749
 20
-8.739722134412233
 30
0.0
 11
4.933159309156435
 21
-8.73888830636981
 31
0.0
  0
LINE
  5
2B3
330
1F
100
AcDbEntity
  8
0
100
AcDbLine
 10
4.933159309156435
 20
-8.73888830636981
 30
0.0
 11
4.941552646029924
 21
-8.737502560843636
 31
0.0
  0
LINE
  5
2B4
330
1F
100
AcDbEntity
  8
0
100
AcDbLine
 10
4.941552646029924
 20
-8.737502560843636
 30
0.0
 11
4.949837380031157
 21
-8.735570831808793
 31
0.0
  0
LINE
  5
2B5
330
1F
100
AcDbEntity
  8
0
100
AcDbLine
 10
4.949837380031157
 20
-8.735570831808793
 30
0.0
 11
4.95797803465724
 21
-8.73310139122558
 31
0.0
  0
LINE
  5
2B6
330
1F
100
AcDbEntity
  8
0
100
AcDbLine
 10
4.95797803465724
 20
-8.73310139122558
 30
0.0
 11
4.96593975037529
 21
-8.730104813617682
 31
0.0
  0
LINE
  5
2B7
330
1F
100
AcDbEntity
  8
0
100
AcDbLine
 10
4.96593975037529
 20
-8.730104813617682
 30
0.0
 11
4.973688433896298
 21
-8.726593930790465
 31
0.0
  0
LINE
  5
2B8
330
1F
100
AcDbEntity
  8
0
100
AcDbLine
 10
4.973688433896298
 20
-8.726593930790465
 30
0.0
 11
4.98119090416783
 21
-8.722583776883193
 31
0.0
  0
LINE
  5
2B9
330
1F
100
AcDbEntity
  8
0
100
AcDbLine
 10
4.98119090416783
 20
-8.722583776883193
 30
0.0
 11
4.988415034460379
 21
-8.718091523990546
 31
0.0
  0
LINE
  5
2BA
330
1F
100
AcDbEntity
  8
0
100
AcDbLine
 10
4.988415034460379
 20
-8.718091523990546
 30
0.0
 11
4.995329889938963
 21
-8.713136408629076
 31
0.0
  0
LINE
  5
2BB
330
1F
100
AcDbEntity
  8
0
100
AcDbLine
 10
4.995329889938963
 20
-8.713136408629076
 30
0.0
 11
5.001905860130838
 21
-8.707739649363482
 31
0.0
  0
LINE
  5
2BC
330
1F
100
AcDbEntity
  8
0
100
AcDbLine
 10
5.001905860130838
 20
-8.707739649363482
 30
0.0
 11
5.00811478572208
 21
-8.701924355945465
 31
0.0
  0
LINE
  5
2BD
330
1F
100
AcDbEntity
  8
0
100
AcDbLine
 10
5.00811478572208
 20
-8.701924355945465
 30
0.0
 11
5.013930079140097
 21
-8.695715430354223
 31
0.0
  0
LINE
  5
2BE
330
1F
100
AcDbEntity
  8
0
100
AcDbLine
 10
5.013930079140097
 20
-8.695715430354223
 30
0.0
 11
5.019326838405691
 21
-8.689139460162348
 31
0.0
  0
LINE
  5
2BF
330
1F
100
AcDbEntity
  8
0
100
AcDbLine
 10
5.019326838405691
 20
-8.689139460162348
 30
0.0
 11
5.02428195376716
 21
-8.682224604683764
 31
0.0
  0
LINE
  5
2C0
330
1F
100
AcDbEntity
  8
0
100
AcDbLine
 10
5.02428195376716
 20
-8.682224604683764
 30
0.0
 11
5.028774206659806
 21
-8.675000474391215
 31
0.0
  0
LINE
  5
2C1
330
1F
100
AcDbEntity
  8
0
100
AcDbLine
 10
5.028774206659806
 20
-8.675000474391215
 30
0.0
 11
5.03278436056708
 21
-8.667498004119686
 31
0.0
  0
LINE
  5
2C2
330
1F
100
AcDbEntity
  8
0
100
AcDbLine
 10
5.03278436056708
 20
-8.667498004119686
 30
0.0
 11
5.036295243394298
 21
-8.659749320598676
 31
0.0
  0
LINE
  5
2C3
330
1F
100
AcDbEntity
  8
0
100
AcDbLine
 10
5.036295243394298
 20
-8.659749320598676
 30
0.0
 11
5.039291821002193
 21
-8.651787604880624
 31
0.0
  0
LINE
  5
2C4
330
1F
100
AcDbEntity
  8
0
100
AcDbLine
 10
5.039291821002193
 20
-8.651787604880624
 30
0.0
 11
5.041761261585409
 21
-8.643646950254542
 31
0.0
  0
LINE
  5
2C5
330
1F
100
AcDbEntity
  8
0
100
AcDbLine
 10
5.041761261585409
 20
-8.643646950254542
 30
0.0
 11
5.043692990620249
 21
-8.635362216253311
 31
0.0
  0
LINE
  5
2C6
330
1F
100
AcDbEntity
  8
0
100
AcDbLine
 10
5.043692990620249
 20
-8.635362216253311
 30
0.0
 11
5.045078736146424
 21
-8.62696887937982
 31
0.0
  0
LINE
  5
2C7
330
1F
100
AcDbEntity
  8
0
100
AcDbLine
 10
5.045078736146424
 20
-8.62696887937982
 30
0.0
 11
5.045912564188848
 21
-8.618502881191134
 31
0.0
  0
LINE
  5
2C8
330
1F
100
AcDbEntity
  8
0
100
AcDbLine
 10
5.045912564188848
 20
-8.618502881191134
 30
0.0
 11
5.046190904167828
 21
-8.610000474391216
 31
0.0
  0
LINE
  5
2C9
330
1F
100
AcDbEntity
  8
0
100
AcDbLine
 10
5.046190904167828
 20
-3.610000474391216
 30
0.0
 11
5.045912564188848
 21
-3.601498067591297
 31
0.0
  0
LINE
  5
2CA
330
1F
100
AcDbEntity
  8
0
100
AcDbLine
 10
5.045912564188848
 20
-3.601498067591297
 30
0.0
 11
5.045078736146424
 21
-3.593032069402609
 31
0.0
  0
LINE
  5
2CB
330
1F
100
AcDbEntity
  8
0
100
AcDbLine
 10
5.045078736146424
 20
-3.593032069402609
 30
0.0
 11
5.043692990620249
 21
-3.584638732529118
 31
0.0
  0
LINE
  5
2CC
330
1F
100
AcDbEntity
  8
0
100
AcDbLine
 10
5.043692990620249
 20
-3.584638732529118
 30
0.0
 11
5.041761261585409
 21
-3.576353998527887
 31
0.0
  0
LINE
  5
2CD
330
1F
100
AcDbEntity
  8
0
100
AcDbLine
 10
5.041761261585409
 20
-3.576353998527887
 30
0.0
 11
5.039291821002193
 21
-3.568213343901805
 31
0.0
  0
LINE
  5
2CE
330
1F
100
AcDbEntity
  8
0
100
AcDbLine
 10
5.039291821002193
 20
-3.568213343901805
 30
0.0
 11
5.036295243394298
 21
-3.560251628183753
 31
0.0
  0
LINE
  5
2CF
330
1F
100
AcDbEntity
  8
0
100
AcDbLine
 10
5.036295243394298
 20
-3.560251628183753
 30
0.0
 11
5.032784360567076
 21
-3.552502944662745
 31
0.0
  0
LINE
  5
2D0
330
1F
100
AcDbEntity
  8
0
100
AcDbLine
 10
5.032784360567076
 20
-3.552502944662745
 30
0.0
 11
5.028774206659806
 21
-3.545000474391216
 31
0.0
  0
LINE
  5
2D1
330
1F
100
AcDbEntity
  8
0
100
AcDbLine
 10
5.028774206659806
 20
-3.545000474391216
 30
0.0
 11
5.02428195376716
 21
-3.537776344098667
 31
0.0
  0
LINE
  5
2D2
330
1F
100
AcDbEntity
  8
0
100
AcDbLine
 10
5.02428195376716
 20
-3.537776344098667
 30
0.0
 11
5.019326838405687
 21
-3.530861488620081
 31
0.0
  0
LINE
  5
2D3
330
1F
100
AcDbEntity
  8
0
100
AcDbLine
 10
5.019326838405687
 20
-3.530861488620081
 30
0.0
 11
5.013930079140094
 21
-3.524285518428206
 31
0.0
  0
LINE
  5
2D4
330
1F
100
AcDbEntity
  8
0
100
AcDbLine
 10
5.013930079140094
 20
-3.524285518428206
 30
0.0
 11
5.00811478572208
 21
-3.518076592836964
 31
0.0
  0
LINE
  5
2D5
330
1F
100
AcDbEntity
  8
0
100
AcDbLine
 10
5.00811478572208
 20
-3.518076592836964
 30
0.0
 11
5.001905860130838
 21
-3.512261299418949
 31
0.0
  0
LINE
  5
2D6
330
1F
100
AcDbEntity
  8
0
100
AcDbLine
 10
5.001905860130838
 20
-3.512261299418949
 30
0.0
 11
4.995329889938963
 21
-3.506864540153355
 31
0.0
  0
LINE
  5
2D7
330
1F
100
AcDbEntity
  8
0
100
AcDbLine
 10
4.995329889938963
 20
-3.506864540153355
 30
0.0
 11
4.988415034460379
 21
-3.501909424791885
 31
0.0
  0
LINE
  5
2D8
330
1F
100
AcDbEntity
  8
0
100
AcDbLine
 10
4.988415034460379
 20
-3.501909424791885
 30
0.0
 11
4.98119090416783
 21
-3.497417171899238
 31
0.0
  0
LINE
  5
2D9
330
1F
100
AcDbEntity
  8
0
100
AcDbLine
 10
4.98119090416783
 20
-3.497417171899238
 30
0.0
 11
4.973688433896298
 21
-3.493407017991967
 31
0.0
  0
LINE
  5
2DA
330
1F
100
AcDbEntity
  8
0
100
AcDbLine
 10
4.973688433896298
 20
-3.493407017991967
 30
0.0
 11
4.96593975037529
 21
-3.489896135164749
 31
0.0
  0
LINE
  5
2DB
330
1F
100
AcDbEntity
  8
0
100
AcDbLine
 10
4.96593975037529
 20
-3.489896135164749
 30
0.0
 11
4.95797803465724
 21
-3.486899557556852
 31
0.0
  0
LINE
  5
2DC
330
1F
100
AcDbEntity
  8
0
100
AcDbLine
 10
4.95797803465724
 20
-3.486899557556852
 30
0.0
 11
4.949837380031157
 21
-3.484430116973638
 31
0.0
  0
LINE
  5
2DD
330
1F
100
AcDbEntity
  8
0
100
AcDbLine
 10
4.949837380031157
 20
-3.484430116973638
 30
0.0
 11
4.941552646029924
 21
-3.482498387938795
 31
0.0
  0
LINE
  5
2DE
330
1F
100
AcDbEntity
  8
0
100
AcDbLine
 10
4.941552646029924
 20
-3.482498387938795
 30
0.0
 11
4.933159309156435
 21
-3.48111264241262
 31
0.0
  0
LINE
  5
2DF
330
1F
100
AcDbEntity
  8
0
100
AcDbLine
 10
4.933159309156435
 20
-3.48111264241262
 30
0.0
 11
4.924693310967745
 21
-3.480278814370196
 31
0.0
  0
LINE
  5
2E0
330
1F
100
AcDbEntity
  8
0
100
AcDbLine
 10
4.924693310967745
 20
-3.480278814370196
 30
0.0
 11
4.916190904167829
 21
-3.480000474391215
 31
0.0
  0
LINE
  5
2E1
330
1F
100
AcDbEntity
  8
0
100
AcDbLine
 10
4.916190904167829
 20
-3.480000474391215
 30
0.0
 11
4.907688497367911
 21
-3.480278814370196
 31
0.0
  0
LINE
  5
2E2
330
1F
100
AcDbEntity
  8
0
100
AcDbLine
 10
4.907688497367911
 20
-3.480278814370196
 30
0.0
 11
4.899222499179222
 21
-3.48111264241262
 31
0.0
  0
LINE
  5
2E3
330
1F
100
AcDbEntity
  8
0
100
AcDbLine
 10
4.899222499179222
 20
-3.48111264241262
 30
0.0
 11
4.890829162305733
 21
-3.482498387938795
 31
0.0
  0
LINE
  5
2E4
330
1F
100
AcDbEntity
  8
0
100
AcDbLine
 10
4.890829162305733
 20
-3.482498387938795
 30
0.0
 11
4.882544428304501
 21
-3.484430116973638
 31
0.0
  0
LINE
  5
2E5
330
1F
100
AcDbEntity
  8
0
100
AcDbLine
 10
4.882544428304501
 20
-3.484430116973638
 30
0.0
 11
4.874403773678418
 21
-3.486899557556852
 31
0.0
  0
LINE
  5
2E6
330
1F
100
AcDbEntity
  8
0
100
AcDbLine
 10
4.874403773678418
 20
-3.486899557556852
 30
0.0
 11
4.866442057960368
 21
-3.489896135164749
 31
0.0
  0
LINE
  5
2E7
330
1F
100
AcDbEntity
  8
0
100
AcDbLine
 10
4.866442057960368
 20
-3.489896135164749
 30
0.0
 11
4.85869337443936
 21
-3.493407017991967
 31
0.0
  0
LINE
  5
2E8
330
1F
100
AcDbEntity
  8
0
100
AcDbLine
 10
4.85869337443936
 20
-3.493407017991967
 30
0.0
 11
4.851190904167829
 21
-3.497417171899238
 31
0.0
  0
LINE
  5
2E9
330
1F
100
AcDbEntity
  8
0
100
AcDbLine
 10
4.851190904167829
 20
-3.497417171899238
 30
0.0
 11
4.843966773875282
 21
-3.501909424791885
 31
0.0
  0
LINE
  5
2EA
330
1F
100
AcDbEntity
  8
0
100
AcDbLine
 10
4.843966773875282
 20
-3.501909424791885
 30
0.0
 11
4.837051918396694
 21
-3.506864540153355
 31
0.0
  0
LINE
  5
2EB
330
1F
100
AcDbEntity
  8
0
100
AcDbLine
 10
4.837051918396694
 20
-3.506864540153355
 30
0.0
 11
4.830475948204819
 21
-3.512261299418949
 31
0.0
  0
LINE
  5
2EC
330
1F
100
AcDbEntity
  8
0
100
AcDbLine
 10
4.830475948204819
 20
-3.512261299418949
 30
0.0
 11
4.824267022613578
 21
-3.518076592836964
 31
0.0
  0
LINE
  5
2ED
330
1F
100
AcDbEntity
  8
0
100
AcDbLine
 10
4.824267022613578
 20
-3.518076592836964
 30
0.0
 11
4.818451729195562
 21
-3.524285518428206
 31
0.0
  0
LINE
  5
2EE
330
1F
100
AcDbEntity
  8
0
100
AcDbLine
 10
4.818451729195562
 20
-3.524285518428206
 30
0.0
 11
4.813054969929969
 21
-3.530861488620081
 31
0.0
  0
LINE
  5
2EF
330
1F
100
AcDbEntity
  8
0
100
AcDbLine
 10
4.813054969929969
 20
-3.530861488620081
 30
0.0
 11
4.808099854568498
 21
-3.537776344098667
 31
0.0
  0
LINE
  5
2F0
330
1F
100
AcDbEntity
  8
0
100
AcDbLine
 10
4.808099854568498
 20
-3.537776344098667
 30
0.0
 11
4.803607601675852
 21
-3.545000474391216
 31
0.0
  0
LINE
  5
2F1
330
1F
100
AcDbEntity
  8
0
100
AcDbLine
 10
4.803607601675852
 20
-3.545000474391216
 30
0.0
 11
4.79959744776858
 21
-3.552502944662745
 31
0.0
  0
LINE
  5
2F2
330
1F
100
AcDbEntity
  8
0
100
AcDbLine
 10
4.79959744776858
 20
-3.552502944662745
 30
0.0
 11
4.796086564941362
 21
-3.560251628183753
 31
0.0
  0
LINE
  5
2F3
330
1F
100
AcDbEntity
  8
0
100
AcDbLine
 10
4.796086564941362
 20
-3.560251628183753
 30
0.0
 11
4.793089987333465
 21
-3.568213343901805
 31
0.0
  0
LINE
  5
2F4
330
1F
100
AcDbEntity
  8
0
100
AcDbLine
 10
4.793089987333465
 20
-3.568213343901805
 30
0.0
 11
4.790620546750249
 21
-3.576353998527887
 31
0.0
  0
LINE
  5
2F5
330
1F
100
AcDbEntity
  8
0
100
AcDbLine
 10
4.790620546750249
 20
-3.576353998527887
 30
0.0
 11
4.788688817715409
 21
-3.584638732529118
 31
0.0
  0
LINE
  5
2F6
330
1F
100
AcDbEntity
  8
0
100
AcDbLine
 10
4.788688817715409
 20
-3.584638732529118
 30
0.0
 11
4.787303072189234
 21
-3.593032069402609
 31
0.0
  0
LINE
  5
2F7
330
1F
100
AcDbEntity
  8
0
100
AcDbLine
 10
4.787303072189234
 20
-3.593032069402609
 30
0.0
 11
4.78646924414681
 21
-3.601498067591297
 31
0.0
  0
LINE
  5
2F8
330
1F
100
AcDbEntity
  8
0
100
AcDbLine
 10
4.78646924414681
 20
-3.601498067591297
 30
0.0
 11
4.78619090416783
 21
-3.610000474391216
 31
0.0
  0
LINE
  5
2F9
330
1F
100
AcDbEntity
  8
0
100
AcDbLine
 10
4.78619090416783
 20
-3.610000474391216
 30
0.0
 11
4.78646924414681
 21
-3.618502881191134
 31
0.0
  0
LINE
  5
2FA
330
1F
100
AcDbEntity
  8
0
100
AcDbLine
 10
4.78646924414681
 20
-3.618502881191134
 30
0.0
 11
4.787303072189234
 21
-3.626968879379822
 31
0.0
  0
LINE
  5
2FB
330
1F
100
AcDbEntity
  8
0
100
AcDbLine
 10
4.787303072189234
 20
-3.626968879379822
 30
0.0
 11
4.788688817715409
 21
-3.635362216253311
 31
0.0
  0
LINE
  5
2FC
330
1F
100
AcDbEntity
  8
0
100
AcDbLine
 10
4.788688817715409
 20
-3.635362216253311
 30
0.0
 11
4.790620546750249
 21
-3.643646950254542
 31
0.0
  0
LINE
  5
2FD
330
1F
100
AcDbEntity
  8
0
100
AcDbLine
 10
4.790620546750249
 20
-3.643646950254542
 30
0.0
 11
4.793089987333465
 21
-3.651787604880626
 31
0.0
  0
LINE
  5
2FE
330
1F
100
AcDbEntity
  8
0
100
AcDbLine
 10
4.793089987333465
 20
-3.651787604880626
 30
0.0
 11
4.796086564941362
 21
-3.659749320598676
 31
0.0
  0
LINE
  5
2FF
330
1F
100
AcDbEntity
  8
0
100
AcDbLine
 10
4.796086564941362
 20
-3.659749320598676
 30
0.0
 11
4.799597447768578
 21
-3.667498004119686
 31
0.0
  0
LINE
  5
300
330
1F
100
AcDbEntity
  8
0
100
AcDbLine
 10
4.799597447768578
 20
-3.667498004119686
 30
0.0
 11
4.803607601675852
 21
-3.675000474391215
 31
0.0
  0
LINE
  5
301
330
1F
100
AcDbEntity
  8
0
100
AcDbLine
 10
4.803607601675852
 20
-3.675000474391215
 30
0.0
 11
4.808099854568498
 21
-3.682224604683764
 31
0.0
  0
LINE
  5
302
330
1F
100
AcDbEntity
  8
0
100
AcDbLine
 10
4.808099854568498
 20
-3.682224604683764
 30
0.0
 11
4.813054969929969
 21
-3.689139460162348
 31
0.0
  0
LINE
  5
303
330
1F
100
AcDbEntity
  8
0
100
AcDbLine
 10
4.813054969929969
 20
-3.689139460162348
 30
0.0
 11
4.81845172919556
 21
-3.695715430354223
 31
0.0
  0
LINE
  5
304
330
1F
100
AcDbEntity
  8
0
100
AcDbLine
 10
4.81845172919556
 20
-3.695715430354223
 30
0.0
 11
4.824267022613578
 21
-3.701924355945467
 31
0.0
  0
LINE
  5
305
330
1F
100
AcDbEntity
  8
0
100
AcDbLine
 10
4.824267022613578
 20
-3.701924355945467
 30
0.0
 11
4.830475948204819
 21
-3.707739649363482
 31
0.0
  0
LINE
  5
306
330
1F
100
AcDbEntity
  8
0
100
AcDbLine
 10
4.830475948204819
 20
-3.707739649363482
 30
0.0
 11
4.837051918396694
 21
-3.713136408629076
 31
0.0
  0
LINE
  5
307
330
1F
100
AcDbEntity
  8
0
100
AcDbLine
 10
4.837051918396694
 20
-3.713136408629076
 30
0.0
 11
4.84396677387528
 21
-3.718091523990546
 31
0.0
  0
LINE
  5
308
330
1F
100
AcDbEntity
  8
0
100
AcDbLine
 10
4.84396677387528
 20
-3.718091523990546
 30
0.0
 11
4.851190904167828
 21
-3.722583776883193
 31
0.0
  0
LINE
  5
309
330
1F
100
AcDbEntity
  8
0
100
AcDbLine
 10
4.851190904167828
 20
-3.722583776883193
 30
0.0
 11
4.858693374439358
 21
-3.726593930790465
 31
0.0
  0
LINE
  5
30A
330
1F
100
AcDbEntity
  8
0
100
AcDbLine
 10
4.858693374439358
 20
-3.726593930790465
 30
0.0
 11
4.866442057960368
 21
-3.730104813617682
 31
0.0
  0
LINE
  5
30B
330
1F
100
AcDbEntity
  8
0
100
AcDbLine
 10
4.866442057960368
 20
-3.730104813617682
 30
0.0
 11
4.874403773678418
 21
-3.733101391225579
 31
0.0
  0
LINE
  5
30C
330
1F
100
AcDbEntity
  8
0
100
AcDbLine
 10
4.874403773678418
 20
-3.733101391225579
 30
0.0
 11
4.882544428304501
 21
-3.735570831808793
 31
0.0
  0
LINE
  5
30D
330
1F
100
AcDbEntity
  8
0
100
AcDbLine
 10
4.882544428304501
 20
-3.735570831808793
 30
0.0
 11
4.890829162305733
 21
-3.737502560843636
 31
0.0
  0
LINE
  5
30E
330
1F
100
AcDbEntity
  8
0
100
AcDbLine
 10
4.890829162305733
 20
-3.737502560843636
 30
0.0
 11
4.899222499179222
 21
-3.738888306369811
 31
0.0
  0
LINE
  5
30F
330
1F
100
AcDbEntity
  8
0
100
AcDbLine
 10
4.899222499179222
 20
-3.738888306369811
 30
0.0
 11
4.907688497367911
 21
-3.739722134412235
 31
0.0
  0
LINE
  5
310
330
1F
100
AcDbEntity
  8
0
100
AcDbLine
 10
4.907688497367911
 20
-3.739722134412235
 30
0.0
 11
4.916190904167829
 21
-3.740000474391216
 31
0.0
  0
LINE
  5
311
330
1F
100
AcDbEntity
  8
0
100
AcDbLine
 10
4.916190904167829
 20
-3.740000474391216
 30
0.0
 11
4.924693310967749
 21
-3.739722134412235
 31
0.0
  0
LINE
  5
312
330
1F
100
AcDbEntity
  8
0
100
AcDbLine
 10
4.924693310967749
 20
-3.739722134412235
 30
0.0
 11
4.933159309156435
 21
-3.738888306369811
 31
0.0
  0
LINE
  5
313
330
1F
100
AcDbEntity
  8
0
100
AcDbLine
 10
4.933159309156435
 20
-3.738888306369811
 30
0.0
 11
4.941552646029924
 21
-3.737502560843636
 31
0.0
  0
LINE
  5
314
330
1F
100
AcDbEntity
  8
0
100
AcDbLine
 10
4.941552646029924
 20
-3.737502560843636
 30
0.0
 11
4.949837380031157
 21
-3.735570831808793
 31
0.0
  0
LINE
  5
315
330
1F
100
AcDbEntity
  8
0
100
AcDbLine
 10
4.949837380031157
 20
-3.735570831808793
 30
0.0
 11
4.95797803465724
 21
-3.733101391225579
 31
0.0
  0
LINE
  5
316
330
1F
100
AcDbEntity
  8
0
100
AcDbLine
 10
4.95797803465724
 20
-3.733101391225579
 30
0.0
 11
4.96593975037529
 21
-3.730104813617682
 31
0.0
  0
LINE
  5
317
330
1F
100
AcDbEntity
  8
0
100
AcDbLine
 10
4.96593975037529
 20
-3.730104813617682
 30
0.0
 11
4.973688433896298
 21
-3.726593930790465
 31
0.0
  0
LINE
  5
318
330
1F
100
AcDbEntity
  8
0
100
AcDbLine
 10
4.973688433896298
 20
-3.726593930790465
 30
0.0
 11
4.98119090416783
 21
-3.722583776883193
 31
0.0
  0
LINE
  5
319
330
1F
100
AcDbEntity
  8
0
100
AcDbLine
 10
4.98119090416783
 20
-3.722583776883193
 30
0.0
 11
4.988415034460379
 21
-3.718091523990546
 31
0.0
  0
LINE
  5
31A
330
1F
100
AcDbEntity
  8
0
100
AcDbLine
 10
4.988415034460379
 20
-3.718091523990546
 30
0.0
 11
4.995329889938963
 21
-3.713136408629076
 31
0.0
  0
LINE
  5
31B
330
1F
100
AcDbEntity
  8
0
100
AcDbLine
 10
4.995329889938963
 20
-3.713136408629076
 30
0.0
 11
5.001905860130838
 21
-3.707739649363482
 31
0.0
  0
LINE
  5
31C
330
1F
100
AcDbEntity
  8
0
100
AcDbLine
 10
5.001905860130838
 20
-3.707739649363482
 30
0.0
 11
5.00811478572208
 21
-3.701924355945467
 31
0.0
  0
LINE
  5
31D
330
1F
100
AcDbEntity
  8
0
100
AcDbLine
 10
5.00811478572208
 20
-3.701924355945467
 30
0.0
 11
5.013930079140097
 21
-3.695715430354223
 31
0.0
  0
LINE
  5
31E
330
1F
100
AcDbEntity
  8
0
100
AcDbLine
 10
5.013930079140097
 20
-3.695715430354223
 30
0.0
 11
5.019326838405691
 21
-3.689139460162348
 31
0.0
  0
LINE
  5
31F
330
1F
100
AcDbEntity
  8
0
100
AcDbLine
 10
5.019326838405691
 20
-3.689139460162348
 30
0.0
 11
5.02428195376716
 21
-3.682224604683762
 31
0.0
  0
LINE
  5
320
330
1F
100
AcDbEntity
  8
0
100
AcDbLine
 10
5.02428195376716
 20
-3.682224604683762
 30
0.0
 11
5.028774206659806
 21
-3.675000474391215
 31
0.0
  0
LINE
  5
321
330
1F
100
AcDbEntity
  8
0
100
AcDbLine
 10
5.028774206659806
 20
-3.675000474391215
 30
0.0
 11
5.03278436056708
 21
-3.667498004119684
 31
0.0
  0
LINE
  5
322
330
1F
100
AcDbEntity
  8
0
100
AcDbLine
 10
5.03278436056708
 20
-3.667498004119684
 30
0.0
 11
5.036295243394298
 21
-3.659749320598676
 31
0.0
  0
LINE
  5
323
330
1F
100
AcDbEntity
  8
0
100
AcDbLine
 10
5.036295243394298
 20
-3.659749320598676
 30
0.0
 11
5.039291821002193
 21
-3.651787604880626
 31
0.0
  0
LINE
  5
324
330
1F
100
AcDbEntity
  8
0
100
AcDbLine
 10
5.039291821002193
 20
-3.651787604880626
 30
0.0
 11
5.041761261585409
 21
-3.643646950254542
 31
0.0
  0
LINE
  5
325
330
1F
100
AcDbEntity
  8
0
100
AcDbLine
 10
5.041761261585409
 20
-3.643646950254542
 30
0.0
 11
5.043692990620249
 21
-3.635362216253311
 31
0.0
  0
LINE
  5
326
330
1F
100
AcDbEntity
  8
0
100
AcDbLine
 10
5.043692990620249
 20
-3.635362216253311
 30
0.0
 11
5.045078736146424
 21
-3.62696887937982
 31
0.0
  0
LINE
  5
327
330
1F
100
AcDbEntity
  8
0
100
AcDbLine
 10
5.045078736146424
 20
-3.62696887937982
 30
0.0
 11
5.045912564188848
 21
-3.618502881191134
 31
0.0
  0
LINE
  5
328
330
1F
100
AcDbEntity
  8
0
100
AcDbLine
 10
5.045912564188848
 20
-3.618502881191134
 30
0.0
 11
5.046190904167828
 21
-3.610000474391216
 31
0.0
  0
LINE
  5
329
330
1F
100
AcDbEntity
  8
0
100
AcDbLine
 10
-3.953809281515356
 20
-6.110000474391217
 30
0.0
 11
-3.954087621494337
 21
-6.101498067591299
 31
0.0
  0
LINE
  5
32A
330
1F
100
AcDbEntity
  8
0
100
AcDbLine
 10
-3.954087621494337
 20
-6.101498067591299
 30
0.0
 11
-3.95492144953676
 21
-6.093032069402611
 31
0.0
  0
LINE
  5
32B
330
1F
100
AcDbEntity
  8
0
100
AcDbLine
 10
-3.95492144953676
 20
-6.093032069402611
 30
0.0
 11
-3.956307195062935
 21
-6.08463873252912
 31
0.0
  0
LINE
  5
32C
330
1F
100
AcDbEntity
  8
0
100
AcDbLine
 10
-3.956307195062935
 20
-6.08463873252912
 30
0.0
 11
-3.958238924097777
 21
-6.076353998527889
 31
0.0
  0
LINE
  5
32D
330
1F
100
AcDbEntity
  8
0
100
AcDbLine
 10
-3.958238924097777
 20
-6.076353998527889
 30
0.0
 11
-3.960708364680992
 21
-6.068213343901807
 31
0.0
  0
LINE
  5
32E
330
1F
100
AcDbEntity
  8
0
100
AcDbLine
 10
-3.960708364680992
 20
-6.068213343901807
 30
0.0
 11
-3.963704942288889
 21
-6.060251628183755
 31
0.0
  0
LINE
  5
32F
330
1F
100
AcDbEntity
  8
0
100
AcDbLine
 10
-3.963704942288889
 20
-6.060251628183755
 30
0.0
 11
-3.967215825116106
 21
-6.052502944662747
 31
0.0
  0
LINE
  5
330
330
1F
100
AcDbEntity
  8
0
100
AcDbLine
 10
-3.967215825116106
 20
-6.052502944662747
 30
0.0
 11
-3.971225979023378
 21
-6.045000474391218
 31
0.0
  0
LINE
  5
331
330
1F
100
AcDbEntity
  8
0
100
AcDbLine
 10
-3.971225979023378
 20
-6.045000474391218
 30
0.0
 11
-3.975718231916025
 21
-6.037776344098669
 31
0.0
  0
LINE
  5
332
330
1F
100
AcDbEntity
  8
0
100
AcDbLine
 10
-3.975718231916025
 20
-6.037776344098669
 30
0.0
 11
-3.980673347277495
 21
-6.030861488620083
 31
0.0
  0
LINE
  5
333
330
1F
100
AcDbEntity
  8
0
100
AcDbLine
 10
-3.980673347277495
 20
-6.030861488620083
 30
0.0
 11
-3.986070106543089
 21
-6.024285518428208
 31
0.0
  0
LINE
  5
334
330
1F
100
AcDbEntity
  8
0
100
AcDbLine
 10
-3.986070106543089
 20
-6.024285518428208
 30
0.0
 11
-3.991885399961104
 21
-6.018076592836966
 31
0.0
  0
LINE
  5
335
330
1F
100
AcDbEntity
  8
0
100
AcDbLine
 10
-3.991885399961104
 20
-6.018076592836966
 30
0.0
 11
-3.998094325552347
 21
-6.012261299418951
 31
0.0
  0
LINE
  5
336
330
1F
100
AcDbEntity
  8
0
100
AcDbLine
 10
-3.998094325552347
 20
-6.012261299418951
 30
0.0
 11
-4.004670295744222
 21
-6.006864540153357
 31
0.0
  0
LINE
  5
337
330
1F
100
AcDbEntity
  8
0
100
AcDbLine
 10
-4.004670295744222
 20
-6.006864540153357
 30
0.0
 11
-4.011585151222807
 21
-6.001909424791886
 31
0.0
  0
LINE
  5
338
330
1F
100
AcDbEntity
  8
0
100
AcDbLine
 10
-4.011585151222807
 20
-6.001909424791886
 30
0.0
 11
-4.018809281515356
 21
-5.99741717189924
 31
0.0
  0
LINE
  5
339
330
1F
100
AcDbEntity
  8
0
100
AcDbLine
 10
-4.018809281515356
 20
-5.99741717189924
 30
0.0
 11
-4.026311751786885
 21
-5.993407017991968
 31
0.0
  0
LINE
  5
33A
330
1F
100
AcDbEntity
  8
0
100
AcDbLine
 10
-4.026311751786885
 20
-5.993407017991968
 30
0.0
 11
-4.034060435307894
 21
-5.98989613516475
 31
0.0
  0
LINE
  5
33B
330
1F
100
AcDbEntity
  8
0
100
AcDbLine
 10
-4.034060435307894
 20
-5.98989613516475
 30
0.0
 11
-4.042022151025945
 21
-5.986899557556853
 31
0.0
  0
LINE
  5
33C
330
1F
100
AcDbEntity
  8
0
100
AcDbLine
 10
-4.042022151025945
 20
-5.986899557556853
 30
0.0
 11
-4.050162805652028
 21
-5.984430116973639
 31
0.0
  0
LINE
  5
33D
330
1F
100
AcDbEntity
  8
0
100
AcDbLine
 10
-4.050162805652028
 20
-5.984430116973639
 30
0.0
 11
-4.058447539653259
 21
-5.982498387938797
 31
0.0
  0
LINE
  5
33E
330
1F
100
AcDbEntity
  8
0
100
AcDbLine
 10
-4.058447539653259
 20
-5.982498387938797
 30
0.0
 11
-4.066840876526749
 21
-5.981112642412622
 31
0.0
  0
LINE
  5
33F
330
1F
100
AcDbEntity
  8
0
100
AcDbLine
 10
-4.066840876526749
 20
-5.981112642412622
 30
0.0
 11
-4.075306874715437
 21
-5.980278814370198
 31
0.0
  0
LINE
  5
340
330
1F
100
AcDbEntity
  8
0
100
AcDbLine
 10
-4.075306874715437
 20
-5.980278814370198
 30
0.0
 11
-4.083809281515355
 21
-5.980000474391218
 31
0.0
  0
LINE
  5
341
330
1F
100
AcDbEntity
  8
0
100
AcDbLine
 10
-4.083809281515355
 20
-5.980000474391218
 30
0.0
 11
-4.092311688315274
 21
-5.980278814370198
 31
0.0
  0
LINE
  5
342
330
1F
100
AcDbEntity
  8
0
100
AcDbLine
 10
-4.092311688315274
 20
-5.980278814370198
 30
0.0
 11
-4.100777686503962
 21
-5.981112642412622
 31
0.0
  0
LINE
  5
343
330
1F
100
AcDbEntity
  8
0
100
AcDbLine
 10
-4.100777686503962
 20
-5.981112642412622
 30
0.0
 11
-4.109171023377452
 21
-5.982498387938797
 31
0.0
  0
LINE
  5
344
330
1F
100
AcDbEntity
  8
0
100
AcDbLine
 10
-4.109171023377452
 20
-5.982498387938797
 30
0.0
 11
-4.117455757378683
 21
-5.984430116973639
 31
0.0
  0
LINE
  5
345
330
1F
100
AcDbEntity
  8
0
100
AcDbLine
 10
-4.117455757378683
 20
-5.984430116973639
 30
0.0
 11
-4.125596412004766
 21
-5.986899557556853
 31
0.0
  0
LINE
  5
346
330
1F
100
AcDbEntity
  8
0
100
AcDbLine
 10
-4.125596412004766
 20
-5.986899557556853
 30
0.0
 11
-4.133558127722817
 21
-5.98989613516475
 31
0.0
  0
LINE
  5
347
330
1F
100
AcDbEntity
  8
0
100
AcDbLine
 10
-4.133558127722817
 20
-5.98989613516475
 30
0.0
 11
-4.141306811243825
 21
-5.993407017991968
 31
0.0
  0
LINE
  5
348
330
1F
100
AcDbEntity
  8
0
100
AcDbLine
 10
-4.141306811243825
 20
-5.993407017991968
 30
0.0
 11
-4.148809281515355
 21
-5.99741717189924
 31
0.0
  0
LINE
  5
349
330
1F
100
AcDbEntity
  8
0
100
AcDbLine
 10
-4.148809281515355
 20
-5.99741717189924
 30
0.0
 11
-4.156033411807903
 21
-6.001909424791886
 31
0.0
  0
LINE
  5
34A
330
1F
100
AcDbEntity
  8
0
100
AcDbLine
 10
-4.156033411807903
 20
-6.001909424791886
 30
0.0
 11
-4.162948267286489
 21
-6.006864540153357
 31
0.0
  0
LINE
  5
34B
330
1F
100
AcDbEntity
  8
0
100
AcDbLine
 10
-4.162948267286489
 20
-6.006864540153357
 30
0.0
 11
-4.169524237478364
 21
-6.012261299418951
 31
0.0
  0
LINE
  5
34C
330
1F
100
AcDbEntity
  8
0
100
AcDbLine
 10
-4.169524237478364
 20
-6.012261299418951
 30
0.0
 11
-4.175733163069607
 21
-6.018076592836966
 31
0.0
  0
LINE
  5
34D
330
1F
100
AcDbEntity
  8
0
100
AcDbLine
 10
-4.175733163069607
 20
-6.018076592836966
 30
0.0
 11
-4.181548456487622
 21
-6.024285518428208
 31
0.0
  0
LINE
  5
34E
330
1F
100
AcDbEntity
  8
0
100
AcDbLine
 10
-4.181548456487622
 20
-6.024285518428208
 30
0.0
 11
-4.186945215753216
 21
-6.030861488620083
 31
0.0
  0
LINE
  5
34F
330
1F
100
AcDbEntity
  8
0
100
AcDbLine
 10
-4.186945215753216
 20
-6.030861488620083
 30
0.0
 11
-4.191900331114686
 21
-6.037776344098669
 31
0.0
  0
LINE
  5
350
330
1F
100
AcDbEntity
  8
0
100
AcDbLine
 10
-4.191900331114686
 20
-6.037776344098669
 30
0.0
 11
-4.196392584007333
 21
-6.045000474391218
 31
0.0
  0
LINE
  5
351
330
1F
100
AcDbEntity
  8
0
100
AcDbLine
 10
-4.196392584007333
 20
-6.045000474391218
 30
0.0
 11
-4.200402737914605
 21
-6.052502944662747
 31
0.0
  0
LINE
  5
352
330
1F
100
AcDbEntity
  8
0
100
AcDbLine
 10
-4.200402737914605
 20
-6.052502944662747
 30
0.0
 11
-4.203913620741822
 21
-6.060251628183755
 31
0.0
  0
LINE
  5
353
330
1F
100
AcDbEntity
  8
0
100
AcDbLine
 10
-4.203913620741822
 20
-6.060251628183755
 30
0.0
 11
-4.206910198349719
 21
-6.068213343901807
 31
0.0
  0
LINE
  5
354
330
1F
100
AcDbEntity
  8
0
100
AcDbLine
 10
-4.206910198349719
 20
-6.068213343901807
 30
0.0
 11
-4.209379638932934
 21
-6.076353998527889
 31
0.0
  0
LINE
  5
355
330
1F
100
AcDbEntity
  8
0
100
AcDbLine
 10
-4.209379638932934
 20
-6.076353998527889
 30
0.0
 11
-4.211311367967776
 21
-6.08463873252912
 31
0.0
  0
LINE
  5
356
330
1F
100
AcDbEntity
  8
0
100
AcDbLine
 10
-4.211311367967776
 20
-6.08463873252912
 30
0.0
 11
-4.212697113493951
 21
-6.093032069402611
 31
0.0
  0
LINE
  5
357
330
1F
100
AcDbEntity
  8
0
100
AcDbLine
 10
-4.212697113493951
 20
-6.093032069402611
 30
0.0
 11
-4.213530941536374
 21
-6.101498067591299
 31
0.0
  0
LINE
  5
358
330
1F
100
AcDbEntity
  8
0
100
AcDbLine
 10
-4.213530941536374
 20
-6.101498067591299
 30
0.0
 11
-4.213809281515355
 21
-6.110000474391217
 31
0.0
  0
LINE
  5
359
330
1F
100
AcDbEntity
  8
0
100
AcDbLine
 10
-4.213809281515355
 20
-6.110000474391217
 30
0.0
 11
-4.213530941536374
 21
-6.118502881191136
 31
0.0
  0
LINE
  5
35A
330
1F
100
AcDbEntity
  8
0
100
AcDbLine
 10
-4.213530941536374
 20
-6.118502881191136
 30
0.0
 11
-4.212697113493951
 21
-6.126968879379824
 31
0.0
  0
LINE
  5
35B
330
1F
100
AcDbEntity
  8
0
100
AcDbLine
 10
-4.212697113493951
 20
-6.126968879379824
 30
0.0
 11
-4.211311367967776
 21
-6.135362216253313
 31
0.0
  0
LINE
  5
35C
330
1F
100
AcDbEntity
  8
0
100
AcDbLine
 10
-4.211311367967776
 20
-6.135362216253313
 30
0.0
 11
-4.209379638932934
 21
-6.143646950254544
 31
0.0
  0
LINE
  5
35D
330
1F
100
AcDbEntity
  8
0
100
AcDbLine
 10
-4.209379638932934
 20
-6.143646950254544
 30
0.0
 11
-4.206910198349719
 21
-6.151787604880628
 31
0.0
  0
LINE
  5
35E
330
1F
100
AcDbEntity
  8
0
100
AcDbLine
 10
-4.206910198349719
 20
-6.151787604880628
 30
0.0
 11
-4.203913620741822
 21
-6.159749320598678
 31
0.0
  0
LINE
  5
35F
330
1F
100
AcDbEntity
  8
0
100
AcDbLine
 10
-4.203913620741822
 20
-6.159749320598678
 30
0.0
 11
-4.200402737914605
 21
-6.167498004119688
 31
0.0
  0
LINE
  5
360
330
1F
100
AcDbEntity
  8
0
100
AcDbLine
 10
-4.200402737914605
 20
-6.167498004119688
 30
0.0
 11
-4.196392584007333
 21
-6.175000474391217
 31
0.0
  0
LINE
  5
361
330
1F
100
AcDbEntity
  8
0
100
AcDbLine
 10
-4.196392584007333
 20
-6.175000474391217
 30
0.0
 11
-4.191900331114686
 21
-6.182224604683766
 31
0.0
  0
LINE
  5
362
330
1F
100
AcDbEntity
  8
0
100
AcDbLine
 10
-4.191900331114686
 20
-6.182224604683766
 30
0.0
 11
-4.186945215753216
 21
-6.18913946016235
 31
0.0
  0
LINE
  5
363
330
1F
100
AcDbEntity
  8
0
100
AcDbLine
 10
-4.186945215753216
 20
-6.18913946016235
 30
0.0
 11
-4.181548456487623
 21
-6.195715430354225
 31
0.0
  0
LINE
  5
364
330
1F
100
AcDbEntity
  8
0
100
AcDbLine
 10
-4.181548456487623
 20
-6.195715430354225
 30
0.0
 11
-4.175733163069607
 21
-6.201924355945469
 31
0.0
  0
LINE
  5
365
330
1F
100
AcDbEntity
  8
0
100
AcDbLine
 10
-4.175733163069607
 20
-6.201924355945469
 30
0.0
 11
-4.169524237478365
 21
-6.207739649363484
 31
0.0
  0
LINE
  5
366
330
1F
100
AcDbEntity
  8
0
100
AcDbLine
 10
-4.169524237478365
 20
-6.207739649363484
 30
0.0
 11
-4.162948267286489
 21
-6.213136408629078
 31
0.0
  0
LINE
  5
367
330
1F
100
AcDbEntity
  8
0
100
AcDbLine
 10
-4.162948267286489
 20
-6.213136408629078
 30
0.0
 11
-4.156033411807904
 21
-6.218091523990548
 31
0.0
  0
LINE
  5
368
330
1F
100
AcDbEntity
  8
0
100
AcDbLine
 10
-4.156033411807904
 20
-6.218091523990548
 30
0.0
 11
-4.148809281515356
 21
-6.222583776883194
 31
0.0
  0
LINE
  5
369
330
1F
100
AcDbEntity
  8
0
100
AcDbLine
 10
-4.148809281515356
 20
-6.222583776883194
 30
0.0
 11
-4.141306811243826
 21
-6.226593930790466
 31
0.0
  0
LINE
  5
36A
330
1F
100
AcDbEntity
  8
0
100
AcDbLine
 10
-4.141306811243826
 20
-6.226593930790466
 30
0.0
 11
-4.133558127722817
 21
-6.230104813617684
 31
0.0
  0
LINE
  5
36B
330
1F
100
AcDbEntity
  8
0
100
AcDbLine
 10
-4.133558127722817
 20
-6.230104813617684
 30
0.0
 11
-4.125596412004767
 21
-6.233101391225581
 31
0.0
  0
LINE
  5
36C
330
1F
100
AcDbEntity
  8
0
100
AcDbLine
 10
-4.125596412004767
 20
-6.233101391225581
 30
0.0
 11
-4.117455757378683
 21
-6.235570831808795
 31
0.0
  0
LINE
  5
36D
330
1F
100
AcDbEntity
  8
0
100
AcDbLine
 10
-4.117455757378683
 20
-6.235570831808795
 30
0.0
 11
-4.109171023377452
 21
-6.237502560843637
 31
0.0
  0
LINE
  5
36E
330
1F
100
AcDbEntity
  8
0
100
AcDbLine
 10
-4.109171023377452
 20
-6.237502560843637
 30
0.0
 11
-4.100777686503962
 21
-6.238888306369812
 31
0.0
  0
LINE
  5
36F
330
1F
100
AcDbEntity
  8
0
100
AcDbLine
 10
-4.100777686503962
 20
-6.238888306369812
 30
0.0
 11
-4.092311688315274
 21
-6.239722134412236
 31
0.0
  0
LINE
  5
370
330
1F
100
AcDbEntity
  8
0
100
AcDbLine
 10
-4.092311688315274
 20
-6.239722134412236
 30
0.0
 11
-4.083809281515355
 21
-6.240000474391216
 31
0.0
  0
LINE
  5
371
330
1F
100
AcDbEntity
  8
0
100
AcDbLine
 10
-4.083809281515355
 20
-6.240000474391216
 30
0.0
 11
-4.075306874715436
 21
-6.239722134412236
 31
0.0
  0
LINE
  5
372
330
1F
100
AcDbEntity
  8
0
100
AcDbLine
 10
-4.075306874715436
 20
-6.239722134412236
 30
0.0
 11
-4.066840876526749
 21
-6.238888306369812
 31
0.0
  0
LINE
  5
373
330
1F
100
AcDbEntity
  8
0
100
AcDbLine
 10
-4.066840876526749
 20
-6.238888306369812
 30
0.0
 11
-4.058447539653258
 21
-6.237502560843637
 31
0.0
  0
LINE
  5
374
330
1F
100
AcDbEntity
  8
0
100
AcDbLine
 10
-4.058447539653258
 20
-6.237502560843637
 30
0.0
 11
-4.050162805652027
 21
-6.235570831808795
 31
0.0
  0
LINE
  5
375
330
1F
100
AcDbEntity
  8
0
100
AcDbLine
 10
-4.050162805652027
 20
-6.235570831808795
 30
0.0
 11
-4.042022151025944
 21
-6.233101391225581
 31
0.0
  0
LINE
  5
376
330
1F
100
AcDbEntity
  8
0
100
AcDbLine
 10
-4.042022151025944
 20
-6.233101391225581
 30
0.0
 11
-4.034060435307894
 21
-6.230104813617684
 31
0.0
  0
LINE
  5
377
330
1F
100
AcDbEntity
  8
0
100
AcDbLine
 10
-4.034060435307894
 20
-6.230104813617684
 30
0.0
 11
-4.026311751786885
 21
-6.226593930790466
 31
0.0
  0
LINE
  5
378
330
1F
100
AcDbEntity
  8
0
100
AcDbLine
 10
-4.026311751786885
 20
-6.226593930790466
 30
0.0
 11
-4.018809281515355
 21
-6.222583776883194
 31
0.0
  0
LINE
  5
379
330
1F
100
AcDbEntity
  8
0
100
AcDbLine
 10
-4.018809281515355
 20
-6.222583776883194
 30
0.0
 11
-4.011585151222807
 21
-6.218091523990548
 31
0.0
  0
LINE
  5
37A
330
1F
100
AcDbEntity
  8
0
100
AcDbLine
 10
-4.011585151222807
 20
-6.218091523990548
 30
0.0
 11
-4.004670295744221
 21
-6.213136408629078
 31
0.0
  0
LINE
  5
37B
330
1F
100
AcDbEntity
  8
0
100
AcDbLine
 10
-4.004670295744221
 20
-6.213136408629078
 30
0.0
 11
-3.998094325552346
 21
-6.207739649363484
 31
0.0
  0
LINE
  5
37C
330
1F
100
AcDbEntity
  8
0
100
AcDbLine
 10
-3.998094325552346
 20
-6.207739649363484
 30
0.0
 11
-3.991885399961104
 21
-6.201924355945469
 31
0.0
  0
LINE
  5
37D
330
1F
100
AcDbEntity
  8
0
100
AcDbLine
 10
-3.991885399961104
 20
-6.201924355945469
 30
0.0
 11
-3.986070106543088
 21
-6.195715430354225
 31
0.0
  0
LINE
  5
37E
330
1F
100
AcDbEntity
  8
0
100
AcDbLine
 10
-3.986070106543088
 20
-6.195715430354225
 30
0.0
 11
-3.980673347277494
 21
-6.18913946016235
 31
0.0
  0
LINE
  5
37F
330
1F
100
AcDbEntity
  8
0
100
AcDbLine
 10
-3.980673347277494
 20
-6.18913946016235
 30
0.0
 11
-3.975718231916025
 21
-6.182224604683764
 31
0.0
  0
LINE
  5
380
330
1F
100
AcDbEntity
  8
0
100
AcDbLine
 10
-3.975718231916025
 20
-6.182224604683764
 30
0.0
 11
-3.971225979023378
 21
-6.175000474391217
 31
0.0
  0
LINE
  5
381
330
1F
100
AcDbEntity
  8
0
100
AcDbLine
 10
-3.971225979023378
 20
-6.175000474391217
 30
0.0
 11
-3.967215825116106
 21
-6.167498004119686
 31
0.0
  0
LINE
  5
382
330
1F
100
AcDbEntity
  8
0
100
AcDbLine
 10
-3.967215825116106
 20
-6.167498004119686
 30
0.0
 11
-3.963704942288888
 21
-6.159749320598678
 31
0.0
  0
LINE
  5
383
330
1F
100
AcDbEntity
  8
0
100
AcDbLine
 10
-3.963704942288888
 20
-6.159749320598678
 30
0.0
 11
-3.960708364680992
 21
-6.151787604880628
 31
0.0
  0
LINE
  5
384
330
1F
100
AcDbEntity
  8
0
100
AcDbLine
 10
-3.960708364680992
 20
-6.151787604880628
 30
0.0
 11
-3.958238924097777
 21
-6.143646950254544
 31
0.0
  0
LINE
  5
385
330
1F
100
AcDbEntity
  8
0
100
AcDbLine
 10
-3.958238924097777
 20
-6.143646950254544
 30
0.0
 11
-3.956307195062935
 21
-6.135362216253313
 31
0.0
  0
LINE
  5
386
330
1F
100
AcDbEntity
  8
0
100
AcDbLine
 10
-3.956307195062935
 20
-6.135362216253313
 30
0.0
 11
-3.95492144953676
 21
-6.126968879379822
 31
0.0
  0
LINE
  5
387
330
1F
100
AcDbEntity
  8
0
100
AcDbLine
 10
-3.95492144953676
 20
-6.126968879379822
 30
0.0
 11
-3.954087621494337
 21
-6.118502881191136
 31
0.0
  0
LINE
  5
388
330
1F
100
AcDbEntity
  8
0
100
AcDbLine
 10
-3.954087621494337
 20
-6.118502881191136
 30
0.0
 11
-3.953809281515356
 21
-6.110000474391217
 31
0.0
  0
LINE
  5
389
330
1F
100
AcDbEntity
  8
0
100
AcDbLine
 10
5.046190904167828
 20
-6.110000474391217
 30
0.0
 11
5.045912564188848
 21
-6.101498067591299
 31
0.0
  0
LINE
  5
38A
330
1F
100
AcDbEntity
  8
0
100
AcDbLine
 10
5.045912564188848
 20
-6.101498067591299
 30
0.0
 11
5.045078736146424
 21
-6.093032069402611
 31
0.0
  0
LINE
  5
38B
330
1F
100
AcDbEntity
  8
0
100
AcDbLine
 10
5.045078736146424
 20
-6.093032069402611
 30
0.0
 11
5.043692990620249
 21
-6.08463873252912
 31
0.0
  0
LINE
  5
38C
330
1F
100
AcDbEntity
  8
0
100
AcDbLine
 10
5.043692990620249
 20
-6.08463873252912
 30
0.0
 11
5.041761261585409
 21
-6.076353998527889
 31
0.0
  0
LINE
  5
38D
330
1F
100
AcDbEntity
  8
0
100
AcDbLine
 10
5.041761261585409
 20
-6.076353998527889
 30
0.0
 11
5.039291821002193
 21
-6.068213343901807
 31
0.0
  0
LINE
  5
38E
330
1F
100
AcDbEntity
  8
0
100
AcDbLine
 10
5.039291821002193
 20
-6.068213343901807
 30
0.0
 11
5.036295243394298
 21
-6.060251628183755
 31
0.0
  0
LINE
  5
38F
330
1F
100
AcDbEntity
  8
0
100
AcDbLine
 10
5.036295243394298
 20
-6.060251628183755
 30
0.0
 11
5.032784360567076
 21
-6.052502944662747
 31
0.0
  0
LINE
  5
390
330
1F
100
AcDbEntity
  8
0
100
AcDbLine
 10
5.032784360567076
 20
-6.052502944662747
 30
0.0
 11
5.028774206659806
 21
-6.045000474391218
 31
0.0
  0
LINE
  5
391
330
1F
100
AcDbEntity
  8
0
100
AcDbLine
 10
5.028774206659806
 20
-6.045000474391218
 30
0.0
 11
5.02428195376716
 21
-6.037776344098669
 31
0.0
  0
LINE
  5
392
330
1F
100
AcDbEntity
  8
0
100
AcDbLine
 10
5.02428195376716
 20
-6.037776344098669
 30
0.0
 11
5.019326838405687
 21
-6.030861488620083
 31
0.0
  0
LINE
  5
393
330
1F
100
AcDbEntity
  8
0
100
AcDbLine
 10
5.019326838405687
 20
-6.030861488620083
 30
0.0
 11
5.013930079140094
 21
-6.024285518428208
 31
0.0
  0
LINE
  5
394
330
1F
100
AcDbEntity
  8
0
100
AcDbLine
 10
5.013930079140094
 20
-6.024285518428208
 30
0.0
 11
5.00811478572208
 21
-6.018076592836966
 31
0.0
  0
LINE
  5
395
330
1F
100
AcDbEntity
  8
0
100
AcDbLine
 10
5.00811478572208
 20
-6.018076592836966
 30
0.0
 11
5.001905860130838
 21
-6.012261299418951
 31
0.0
  0
LINE
  5
396
330
1F
100
AcDbEntity
  8
0
100
AcDbLine
 10
5.001905860130838
 20
-6.012261299418951
 30
0.0
 11
4.995329889938963
 21
-6.006864540153357
 31
0.0
  0
LINE
  5
397
330
1F
100
AcDbEntity
  8
0
100
AcDbLine
 10
4.995329889938963
 20
-6.006864540153357
 30
0.0
 11
4.988415034460379
 21
-6.001909424791886
 31
0.0
  0
LINE
  5
398
330
1F
100
AcDbEntity
  8
0
100
AcDbLine
 10
4.988415034460379
 20
-6.001909424791886
 30
0.0
 11
4.98119090416783
 21
-5.99741717189924
 31
0.0
  0
LINE
  5
399
330
1F
100
AcDbEntity
  8
0
100
AcDbLine
 10
4.98119090416783
 20
-5.99741717189924
 30
0.0
 11
4.973688433896298
 21
-5.993407017991968
 31
0.0
  0
LINE
  5
39A
330
1F
100
AcDbEntity
  8
0
100
AcDbLine
 10
4.973688433896298
 20
-5.993407017991968
 30
0.0
 11
4.96593975037529
 21
-5.98989613516475
 31
0.0
  0
LINE
  5
39B
330
1F
100
AcDbEntity
  8
0
100
AcDbLine
 10
4.96593975037529
 20
-5.98989613516475
 30
0.0
 11
4.95797803465724
 21
-5.986899557556853
 31
0.0
  0
LINE
  5
39C
330
1F
100
AcDbEntity
  8
0
100
AcDbLine
 10
4.95797803465724
 20
-5.986899557556853
 30
0.0
 11
4.949837380031157
 21
-5.984430116973639
 31
0.0
  0
LINE
  5
39D
330
1F
100
AcDbEntity
  8
0
100
AcDbLine
 10
4.949837380031157
 20
-5.984430116973639
 30
0.0
 11
4.941552646029924
 21
-5.982498387938797
 31
0.0
  0
LINE
  5
39E
330
1F
100
AcDbEntity
  8
0
100
AcDbLine
 10
4.941552646029924
 20
-5.982498387938797
 30
0.0
 11
4.933159309156435
 21
-5.981112642412622
 31
0.0
  0
LINE
  5
39F
330
1F
100
AcDbEntity
  8
0
100
AcDbLine
 10
4.933159309156435
 20
-5.981112642412622
 30
0.0
 11
4.924693310967745
 21
-5.980278814370198
 31
0.0
  0
LINE
  5
3A0
330
1F
100
AcDbEntity
  8
0
100
AcDbLine
 10
4.924693310967745
 20
-5.980278814370198
 30
0.0
 11
4.916190904167829
 21
-5.980000474391218
 31
0.0
  0
LINE
  5
3A1
330
1F
100
AcDbEntity
  8
0
100
AcDbLine
 10
4.916190904167829
 20
-5.980000474391218
 30
0.0
 11
4.907688497367911
 21
-5.980278814370198
 31
0.0
  0
LINE
  5
3A2
330
1F
100
AcDbEntity
  8
0
100
AcDbLine
 10
4.907688497367911
 20
-5.980278814370198
 30
0.0
 11
4.899222499179222
 21
-5.981112642412622
 31
0.0
  0
LINE
  5
3A3
330
1F
100
AcDbEntity
  8
0
100
AcDbLine
 10
4.899222499179222
 20
-5.981112642412622
 30
0.0
 11
4.890829162305733
 21
-5.982498387938797
 31
0.0
  0
LINE
  5
3A4
330
1F
100
AcDbEntity
  8
0
100
AcDbLine
 10
4.890829162305733
 20
-5.982498387938797
 30
0.0
 11
4.882544428304501
 21
-5.984430116973639
 31
0.0
  0
LINE
  5
3A5
330
1F
100
AcDbEntity
  8
0
100
AcDbLine
 10
4.882544428304501
 20
-5.984430116973639
 30
0.0
 11
4.874403773678418
 21
-5.986899557556853
 31
0.0
  0
LINE
  5
3A6
330
1F
100
AcDbEntity
  8
0
100
AcDbLine
 10
4.874403773678418
 20
-5.986899557556853
 30
0.0
 11
4.866442057960368
 21
-5.98989613516475
 31
0.0
  0
LINE
  5
3A7
330
1F
100
AcDbEntity
  8
0
100
AcDbLine
 10
4.866442057960368
 20
-5.98989613516475
 30
0.0
 11
4.85869337443936
 21
-5.993407017991968
 31
0.0
  0
LINE
  5
3A8
330
1F
100
AcDbEntity
  8
0
100
AcDbLine
 10
4.85869337443936
 20
-5.993407017991968
 30
0.0
 11
4.851190904167829
 21
-5.99741717189924
 31
0.0
  0
LINE
  5
3A9
330
1F
100
AcDbEntity
  8
0
100
AcDbLine
 10
4.851190904167829
 20
-5.99741717189924
 30
0.0
 11
4.843966773875282
 21
-6.001909424791886
 31
0.0
  0
LINE
  5
3AA
330
1F
100
AcDbEntity
  8
0
100
AcDbLine
 10
4.843966773875282
 20
-6.001909424791886
 30
0.0
 11
4.837051918396694
 21
-6.006864540153357
 31
0.0
  0
LINE
  5
3AB
330
1F
100
AcDbEntity
  8
0
100
AcDbLine
 10
4.837051918396694
 20
-6.006864540153357
 30
0.0
 11
4.830475948204819
 21
-6.012261299418951
 31
0.0
  0
LINE
  5
3AC
330
1F
100
AcDbEntity
  8
0
100
AcDbLine
 10
4.830475948204819
 20
-6.012261299418951
 30
0.0
 11
4.824267022613578
 21
-6.018076592836966
 31
0.0
  0
LINE
  5
3AD
330
1F
100
AcDbEntity
  8
0
100
AcDbLine
 10
4.824267022613578
 20
-6.018076592836966
 30
0.0
 11
4.818451729195562
 21
-6.024285518428208
 31
0.0
  0
LINE
  5
3AE
330
1F
100
AcDbEntity
  8
0
100
AcDbLine
 10
4.818451729195562
 20
-6.024285518428208
 30
0.0
 11
4.813054969929969
 21
-6.030861488620083
 31
0.0
  0
LINE
  5
3AF
330
1F
100
AcDbEntity
  8
0
100
AcDbLine
 10
4.813054969929969
 20
-6.030861488620083
 30
0.0
 11
4.808099854568498
 21
-6.037776344098669
 31
0.0
  0
LINE
  5
3B0
330
1F
100
AcDbEntity
  8
0
100
AcDbLine
 10
4.808099854568498
 20
-6.037776344098669
 30
0.0
 11
4.803607601675852
 21
-6.045000474391218
 31
0.0
  0
LINE
  5
3B1
330
1F
100
AcDbEntity
  8
0
100
AcDbLine
 10
4.803607601675852
 20
-6.045000474391218
 30
0.0
 11
4.79959744776858
 21
-6.052502944662747
 31
0.0
  0
LINE
  5
3B2
330
1F
100
AcDbEntity
  8
0
100
AcDbLine
 10
4.79959744776858
 20
-6.052502944662747
 30
0.0
 11
4.796086564941362
 21
-6.060251628183755
 31
0.0
  0
LINE
  5
3B3
330
1F
100
AcDbEntity
  8
0
100
AcDbLine
 10
4.796086564941362
 20
-6.060251628183755
 30
0.0
 11
4.793089987333465
 21
-6.068213343901807
 31
0.0
  0
LINE
  5
3B4
330
1F
100
AcDbEntity
  8
0
100
AcDbLine
 10
4.793089987333465
 20
-6.068213343901807
 30
0.0
 11
4.790620546750249
 21
-6.076353998527889
 31
0.0
  0
LINE
  5
3B5
330
1F
100
AcDbEntity
  8
0
100
AcDbLine
 10
4.790620546750249
 20
-6.076353998527889
 30
0.0
 11
4.788688817715409
 21
-6.08463873252912
 31
0.0
  0
LINE
  5
3B6
330
1F
100
AcDbEntity
  8
0
100
AcDbLine
 10
4.788688817715409
 20
-6.08463873252912
 30
0.0
 11
4.787303072189234
 21
-6.093032069402611
 31
0.0
  0
LINE
  5
3B7
330
1F
100
AcDbEntity
  8
0
100
AcDbLine
 10
4.787303072189234
 20
-6.093032069402611
 30
0.0
 11
4.78646924414681
 21
-6.101498067591299
 31
0.0
  0
LINE
  5
3B8
330
1F
100
AcDbEntity
  8
0
100
AcDbLine
 10
4.78646924414681
 20
-6.101498067591299
 30
0.0
 11
4.78619090416783
 21
-6.110000474391217
 31
0.0
  0
LINE
  5
3B9
330
1F
100
AcDbEntity
  8
0
100
AcDbLine
 10
4.78619090416783
 20
-6.110000474391217
 30
0.0
 11
4.78646924414681
 21
-6.118502881191136
 31
0.0
  0
LINE
  5
3BA
330
1F
100
AcDbEntity
  8
0
100
AcDbLine
 10
4.78646924414681
 20
-6.118502881191136
 30
0.0
 11
4.787303072189234
 21
-6.126968879379824
 31
0.0
  0
LINE
  5
3BB
330
1F
100
AcDbEntity
  8
0
100
AcDbLine
 10
4.787303072189234
 20
-6.126968879379824
 30
0.0
 11
4.788688817715409
 21
-6.135362216253313
 31
0.0
  0
LINE
  5
3BC
330
1F
100
AcDbEntity
  8
0
100
AcDbLine
 10
4.788688817715409
 20
-6.135362216253313
 30
0.0
 11
4.790620546750249
 21
-6.143646950254544
 31
0.0
  0
LINE
  5
3BD
330
1F
100
AcDbEntity
  8
0
100
AcDbLine
 10
4.790620546750249
 20
-6.143646950254544
 30
0.0
 11
4.793089987333465
 21
-6.151787604880628
 31
0.0
  0
LINE
  5
3BE
330
1F
100
AcDbEntity
  8
0
100
AcDbLine
 10
4.793089987333465
 20
-6.151787604880628
 30
0.0
 11
4.796086564941362
 21
-6.159749320598678
 31
0.0
  0
LINE
  5
3BF
330
1F
100
AcDbEntity
  8
0
100
AcDbLine
 10
4.796086564941362
 20
-6.159749320598678
 30
0.0
 11
4.799597447768578
 21
-6.167498004119688
 31
0.0
  0
LINE
  5
3C0
330
1F
100
AcDbEntity
  8
0
100
AcDbLine
 10
4.799597447768578
 20
-6.167498004119688
 30
0.0
 11
4.803607601675852
 21
-6.175000474391217
 31
0.0
  0
LINE
  5
3C1
330
1F
100
AcDbEntity
  8
0
100
AcDbLine
 10
4.803607601675852
 20
-6.175000474391217
 30
0.0
 11
4.808099854568498
 21
-6.182224604683766
 31
0.0
  0
LINE
  5
3C2
330
1F
100
AcDbEntity
  8
0
100
AcDbLine
 10
4.808099854568498
 20
-6.182224604683766
 30
0.0
 11
4.813054969929969
 21
-6.18913946016235
 31
0.0
  0
LINE
  5
3C3
330
1F
100
AcDbEntity
  8
0
100
AcDbLine
 10
4.813054969929969
 20
-6.18913946016235
 30
0.0
 11
4.81845172919556
 21
-6.195715430354225
 31
0.0
  0
LINE
  5
3C4
330
1F
100
AcDbEntity
  8
0
100
AcDbLine
 10
4.81845172919556
 20
-6.195715430354225
 30
0.0
 11
4.824267022613578
 21
-6.201924355945469
 31
0.0
  0
LINE
  5
3C5
330
1F
100
AcDbEntity
  8
0
100
AcDbLine
 10
4.824267022613578
 20
-6.201924355945469
 30
0.0
 11
4.830475948204819
 21
-6.207739649363484
 31
0.0
  0
LINE
  5
3C6
330
1F
100
AcDbEntity
  8
0
100
AcDbLine
 10
4.830475948204819
 20
-6.207739649363484
 30
0.0
 11
4.837051918396694
 21
-6.213136408629078
 31
0.0
  0
LINE
  5
3C7
330
1F
100
AcDbEntity
  8
0
100
AcDbLine
 10
4.837051918396694
 20
-6.213136408629078
 30
0.0
 11
4.84396677387528
 21
-6.218091523990548
 31
0.0
  0
LINE
  5
3C8
330
1F
100
AcDbEntity
  8
0
100
AcDbLine
 10
4.84396677387528
 20
-6.218091523990548
 30
0.0
 11
4.851190904167828
 21
-6.222583776883194
 31
0.0
  0
LINE
  5
3C9
330
1F
100
AcDbEntity
  8
0
100
AcDbLine
 10
4.851190904167828
 20
-6.222583776883194
 30
0.0
 11
4.858693374439358
 21
-6.226593930790466
 31
0.0
  0
LINE
  5
3CA
330
1F
100
AcDbEntity
  8
0
100
AcDbLine
 10
4.858693374439358
 20
-6.226593930790466
 30
0.0
 11
4.866442057960368
 21
-6.230104813617684
 31
0.0
  0
LINE
  5
3CB
330
1F
100
AcDbEntity
  8
0
100
AcDbLine
 10
4.866442057960368
 20
-6.230104813617684
 30
0.0
 11
4.874403773678418
 21
-6.233101391225581
 31
0.0
  0
LINE
  5
3CC
330
1F
100
AcDbEntity
  8
0
100
AcDbLine
 10
4.874403773678418
 20
-6.233101391225581
 30
0.0
 11
4.882544428304501
 21
-6.235570831808795
 31
0.0
  0
LINE
  5
3CD
330
1F
100
AcDbEntity
  8
0
100
AcDbLine
 10
4.882544428304501
 20
-6.235570831808795
 30
0.0
 11
4.890829162305733
 21
-6.237502560843637
 31
0.0
  0
LINE
  5
3CE
330
1F
100
AcDbEntity
  8
0
100
AcDbLine
 10
4.890829162305733
 20
-6.237502560843637
 30
0.0
 11
4.899222499179222
 21
-6.238888306369812
 31
0.0
  0
LINE
  5
3CF
330
1F
100
AcDbEntity
  8
0
100
AcDbLine
 10
4.899222499179222
 20
-6.238888306369812
 30
0.0
 11
4.907688497367911
 21
-6.239722134412236
 31
0.0
  0
LINE
  5
3D0
330
1F
100
AcDbEntity
  8
0
100
AcDbLine
 10
4.907688497367911
 20
-6.239722134412236
 30
0.0
 11
4.916190904167829
 21
-6.240000474391216
 31
0.0
  0
LINE
  5
3D1
330
1F
100
AcDbEntity
  8
0
100
AcDbLine
 10
4.916190904167829
 20
-6.240000474391216
 30
0.0
 11
4.924693310967749
 21
-6.239722134412236
 31
0.0
  0
LINE
  5
3D2
330
1F
100
AcDbEntity
  8
0
100
AcDbLine
 10
4.924693310967749
 20
-6.239722134412236
 30
0.0
 11
4.933159309156435
 21
-6.238888306369812
 31
0.0
  0
LINE
  5
3D3
330
1F
100
AcDbEntity
  8
0
100
AcDbLine
 10
4.933159309156435
 20
-6.238888306369812
 30
0.0
 11
4.941552646029924
 21
-6.237502560843637
 31
0.0
  0
LINE
  5
3D4
330
1F
100
AcDbEntity
  8
0
100
AcDbLine
 10
4.941552646029924
 20
-6.237502560843637
 30
0.0
 11
4.949837380031157
 21
-6.235570831808795
 31
0.0
  0
LINE
  5
3D5
330
1F
100
AcDbEntity
  8
0
100
AcDbLine
 10
4.949837380031157
 20
-6.235570831808795
 30
0.0
 11
4.95797803465724
 21
-6.233101391225581
 31
0.0
  0
LINE
  5
3D6
330
1F
100
AcDbEntity
  8
0
100
AcDbLine
 10
4.95797803465724
 20
-6.233101391225581
 30
0.0
 11
4.96593975037529
 21
-6.230104813617684
 31
0.0
  0
LINE
  5
3D7
330
1F
100
AcDbEntity
  8
0
100
AcDbLine
 10
4.96593975037529
 20
-6.230104813617684
 30
0.0
 11
4.973688433896298
 21
-6.226593930790466
 31
0.0
  0
LINE
  5
3D8
330
1F
100
AcDbEntity
  8
0
100
AcDbLine
 10
4.973688433896298
 20
-6.226593930790466
 30
0.0
 11
4.98119090416783
 21
-6.222583776883194
 31
0.0
  0
LINE
  5
3D9
330
1F
100
AcDbEntity
  8
0
100
AcDbLine
 10
4.98119090416783
 20
-6.222583776883194
 30
0.0
 11
4.988415034460379
 21
-6.218091523990548
 31
0.0
  0
LINE
  5
3DA
330
1F
100
AcDbEntity
  8
0
100
AcDbLine
 10
4.988415034460379
 20
-6.218091523990548
 30
0.0
 11
4.995329889938963
 21
-6.213136408629078
 31
0.0
  0
LINE
  5
3DB
330
1F
100
AcDbEntity
  8
0
100
AcDbLine
 10
4.995329889938963
 20
-6.213136408629078
 30
0.0
 11
5.001905860130838
 21
-6.207739649363484
 31
0.0
  0
LINE
  5
3DC
330
1F
100
AcDbEntity
  8
0
100
AcDbLine
 10
5.001905860130838
 20
-6.207739649363484
 30
0.0
 11
5.00811478572208
 21
-6.201924355945469
 31
0.0
  0
LINE
  5
3DD
330
1F
100
AcDbEntity
  8
0
100
AcDbLine
 10
5.00811478572208
 20
-6.201924355945469
 30
0.0
 11
5.013930079140097
 21
-6.195715430354225
 31
0.0
  0
LINE
  5
3DE
330
1F
100
AcDbEntity
  8
0
100
AcDbLine
 10
5.013930079140097
 20
-6.195715430354225
 30
0.0
 11
5.019326838405691
 21
-6.18913946016235
 31
0.0
  0
LINE
  5
3DF
330
1F
100
AcDbEntity
  8
0
100
AcDbLine
 10
5.019326838405691
 20
-6.18913946016235
 30
0.0
 11
5.02428195376716
 21
-6.182224604683764
 31
0.0
  0
LINE
  5
3E0
330
1F
100
AcDbEntity
  8
0
100
AcDbLine
 10
5.02428195376716
 20
-6.182224604683764
 30
0.0
 11
5.028774206659806
 21
-6.175000474391217
 31
0.0
  0
LINE
  5
3E1
330
1F
100
AcDbEntity
  8
0
100
AcDbLine
 10
5.028774206659806
 20
-6.175000474391217
 30
0.0
 11
5.03278436056708
 21
-6.167498004119686
 31
0.0
  0
LINE
  5
3E2
330
1F
100
AcDbEntity
  8
0
100
AcDbLine
 10
5.03278436056708
 20
-6.167498004119686
 30
0.0
 11
5.036295243394298
 21
-6.159749320598678
 31
0.0
  0
LINE
  5
3E3
330
1F
100
AcDbEntity
  8
0
100
AcDbLine
 10
5.036295243394298
 20
-6.159749320598678
 30
0.0
 11
5.039291821002193
 21
-6.151787604880628
 31
0.0
  0
LINE
  5
3E4
330
1F
100
AcDbEntity
  8
0
100
AcDbLine
 10
5.039291821002193
 20
-6.151787604880628
 30
0.0
 11
5.041761261585409
 21
-6.143646950254544
 31
0.0
  0
LINE
  5
3E5
330
1F
100
AcDbEntity
  8
0
100
AcDbLine
 10
5.041761261585409
 20
-6.143646950254544
 30
0.0
 11
5.043692990620249
 21
-6.135362216253313
 31
0.0
  0
LINE
  5
3E6
330
1F
100
AcDbEntity
  8
0
100
AcDbLine
 10
5.043692990620249
 20
-6.135362216253313
 30
0.0
 11
5.045078736146424
 21
-6.126968879379822
 31
0.0
  0
LINE
  5
3E7
330
1F
100
AcDbEntity
  8
0
100
AcDbLine
 10
5.045078736146424
 20
-6.126968879379822
 30
0.0
 11
5.045912564188848
 21
-6.118502881191136
 31
0.0
  0
LINE
  5
3E8
330
1F
100
AcDbEntity
  8
0
100
AcDbLine
 10
5.045912564188848
 20
-6.118502881191136
 30
0.0
 11
5.046190904167828
 21
-6.110000474391217
 31
0.0
  0
ENDSEC
  0
SECTION
  2
OBJECTS
  0
DICTIONARY
  5
C
330
0
100
AcDbDictionary
  3
ACAD_GROUP
350
D
  3
ACAD_LAYOUT
350
1A
  3
ACAD_MATERIAL
350
43
  3
ACAD_MLEADERSTYLE
350
5B
  3
ACAD_MLINESTYLE
350
17
  3
ACAD_PLOTSETTINGS
350
19
  3
ACAD_SCALELIST
350
47
  3
ACAD_VISUALSTYLE
350
2A
  3
ACDBHEADERROUNDTRIPXREC
350
3E9
  3
ACDBVARIABLEDICTIONARY
350
40A
  3
DWGPROPS
350
411
  0
DICTIONARY
  5
412
330
8
100
AcDbDictionary
280
     1
  3
ACAD_XREC_ROUNDTRIP
360
413
  0
DICTIONARY
  5
D
102
{ACAD_REACTORS
330
C
102
}
330
C
100
AcDbDictionary
  0
DICTIONARY
  5
1A
102
{ACAD_REACTORS
330
C
102
}
330
C
100
AcDbDictionary
  0
DICTIONARY
  5
43
102
{ACAD_REACTORS
330
C
102
}
330
C
100
AcDbDictionary
  3
BYBLOCK
350
45
  3
BYLAYER
350
44
  3
GLOBAL
350
46
  0
DICTIONARY
  5
5B
102
{ACAD_REACTORS
330
C
102
}
330
C
100
AcDbDictionary
  3
STANDARD
350
5C
  0
DICTIONARY
  5
17
102
{ACAD_REACTORS
330
C
102
}
330
C
100
AcDbDictionary
  3
STANDARD
350
18
  0
DICTIONARY
  5
19
102
{ACAD_REACTORS
330
C
102
}
330
C
100
AcDbDictionary
  0
DICTIONARY
  5
47
102
{ACAD_REACTORS
330
C
102
}
330
C
100
AcDbDictionary
  3
A0
350
48
  3
A1
350
49
  3
A2
350
4A
  3
A3
350
4B
  3
A4
350
4C
  3
A5
350
4D
  3
A6
350
4E
  3
A7
350
4F
  3
A8
350
50
  3
A9
350
51
  3
B1
350
52
  3
B2
350
53
  3
B3
350
54
  3
B4
350
55
  3
B5
350
56
  3
B6
350
57
  3
B7
350
58
  0
DICTIONARY
  5
2A
102
{ACAD_REACTORS
330
C
102
}
330
C
100
AcDbDictionary
  3
2DWIREFRAME
350
2F
  3
BASIC
350
32
  3
BRIGHTEN
350
36
  3
COLORCHANGE
350
3A
  3
CONCEPTUAL
350
34
  3
DIM
350
35
  3
EDGECOLOROFF
350
3D
  3
FACEPATTERN
350
39
  3
FLAT
350
2B
  3
FLATWITHEDGES
350
2C
  3
GOURAUD
350
2D
  3
GOURAUDWITHEDGES
350
2E
  3
HIDDEN
350
31
  3
JITTEROFF
350
3B
  3
LINEPATTERN
350
38
  3
OVERHANGOFF
350
3C
  3
REALISTIC
350
33
  3
SHADED
350
42
  3
SHADED_WITH_EDGES
350
41
  3
SHADES_OF_GRAY
350
3E
  3
SKETCHY
350
3F
  3
THICKEN
350
37
  3
WIREFRAME
350
30
  3
X-RAY
350
40
  0
DICTIONARY
  5
3E9
102
{ACAD_REACTORS
330
C
102
}
330
C
100
AcDbDictionary
  3
CEPSNID
350
3F3
  3
CEPSNTYPE
350
3F2
  3
DIMSTYLEDATA
350
409
  3
FINGERPRINTGUID
350
3F4
  3
HYPERLINKBASE
350
3EC
  3
INSUNITS
350
3F1
  3
LAYOUTDICT
350
3EE
  3
LWETCUNION
350
3F0
  3
PLOTSETDICT
350
3EF
  3
PSVPSCALE
350
3F6
  3
PUCSBASE
350
3F9
  3
PUCSORGBACK
350
3FF
  3
PUCSORGBOTTOM
350
3FB
  3
PUCSORGFRONT
350
3FE
  3
PUCSORGLEFT
350
3FC
  3
PUCSORGRIGHT
350
3FD
  3
PUCSORGTOP
350
3FA
  3
PUCSORTHOREF
350
3F7
  3
PUCSORTHOVIEW
350
3F8
  3
STYLESHEET
350
3ED
  3
TSTACKALIGN
350
3EA
  3
TSTACKSIZE
350
3EB
  3
UCSBASE
350
402
  3
UCSORGBACK
350
408
  3
UCSORGBOTTOM
350
404
  3
UCSORGFRONT
350
407
  3
UCSORGLEFT
350
405
  3
UCSORGRIGHT
350
406
  3
UCSORGTOP
350
403
  3
UCSORTHOREF
350
400
  3
UCSORTHOVIEW
350
401
  3
VERSIONGUID
350
3F5
  0
DICTIONARY
  5
40A
102
{ACAD_REACTORS
330
C
102
}
330
C
100
AcDbDictionary
  3
CANNOSCALE
350
414
  3
CMLEADERSTYLE
350
40C
  3
CTABLESTYLE
350
40B
  3
DIMASSOC
350
40F
  3
HIDETEXT
350
410
  3
MSLTSCALE
350
415
  0
XRECORD
  5
411
102
{ACAD_REACTORS
330
C
102
}
330
C
100
AcDbXrecord
  1
DWGPROPS COOKIE
  2

  3

  4

  6

  7

  8
tjt
  9

300
=
301
=
302
=
303
=
304
=
305
=
306
=
307
=
308
=
309
=
 40
0.0
 41
2459898.775427627
 42
2459898.775427673
  1

 90
        0
  0
XRECORD
  5
413
102
{ACAD_REACTORS
330
412
102
}
330
412
100
AcDbXrecord
102
VTR_0.000_0.000_1.000_1.000_VISUALSTYLE
340
2F
102
VTR_0.000_0.000_1.000_1.000_GRIDDISPLAY
 70
     3
102
VTR_0.000_0.000_1.000_1.000_GRIDMAJOR
 70
     5
102
VTR_0.000_0.000_1.000_1.000_DEFAULTLIGHTING
280
     1
102
VTR_0.000_0.000_1.000_1.000_DEFAULTLIGHTINGTYPE
 70
     1
102
VTR_0.000_0.000_1.000_1.000_BRIGHTNESS
141
0.0
102
VTR_0.000_0.000_1.000_1.000_CONTRAST
142
0.0
  0
MATERIAL
  5
45
102
{ACAD_REACTORS
330
43
102
}
102
{ACAD_XDICTIONARY
360
418
102
}
330
43
100
AcDbMaterial
  1
BYBLOCK
  0
MATERIAL
  5
44
102
{ACAD_REACTORS
330
43
102
}
102
{ACAD_XDICTIONARY
360
416
102
}
330
43
100
AcDbMaterial
  1
BYLAYER
  0
MATERIAL
  5
46
102
{ACAD_REACTORS
330
43
102
}
102
{ACAD_XDICTIONARY
360
41A
102
}
330
43
100
AcDbMaterial
  1
GLOBAL
  0
ACAD_PROXY_OBJECT
  5
5C
102
{ACAD_REACTORS
330
5B
102
}
330
5B
100
AcDbProxyObject
 90
      499
 91
      505
 93
      610
310
40901902A4063FBFFFFFE056BD1B81E855B9FC0AD7A3703D0AD73F4214DD185B99185C9900AD7A3703D0AC73F90141901A02B5E8DC0F42B1CFC02B5E8DC0F42B1CFE5764000000000000300FC0
340
14
340
0
340
11
340
0
 94
        0
1001
ACAD_MLEADERVER
1070
     2
  0
MLINESTYLE
  5
18
102
{ACAD_REACTORS
330
17
102
}
330
17
100
AcDbMlineStyle
  2
Standard
 70
     0
  3

 62
   256
 51
90.0
 52
90.0
 71
     2
 49
0.5
 62
   256
  6
BYLAYER
 49
-0.5
 62
   256
  6
BYLAYER
  0
ACAD_PROXY_OBJECT
  5
48
102
{ACAD_REACTORS
330
47
102
}
330
47
100
AcDbProxyObject
 90
      499
 91
      503
 93
       41
310
903313A31580
  0
ACAD_PROXY_OBJECT
  5
49
102
{ACAD_REACTORS
330
47
102
}
330
47
100
AcDbProxyObject
 90
      499
 91
      503
 93
      257
310
90E312F31323822203D2031272D3022000000000000200FC000000000000284000
  0
ACAD_PROXY_OBJECT
  5
4A
102
{ACAD_REACTORS
330
47
102
}
330
47
100
AcDbProxyObject
 90
      499
 91
      503
 93
      249
310
90D312F363422203D2031272D3022000000000000240FC000000000000284000
  0
ACAD_PROXY_OBJECT
  5
4B
102
{ACAD_REACTORS
330
47
102
}
330
47
100
AcDbProxyObject
 90
      499
 91
      503
 93
      249
310
90D312F333222203D2031272D3022000000000000280FC000000000000284000
  0
ACAD_PROXY_OBJECT
  5
4C
102
{ACAD_REACTORS
330
47
102
}
330
47
100
AcDbProxyObject
 90
      499
 91
      503
 93
      249
310
90D312F313622203D2031272D30220000000000002C0FC000000000000284000
  0
ACAD_PROXY_OBJECT
  5
4D
102
{ACAD_REACTORS
330
47
102
}
330
47
100
AcDbProxyObject
 90
      499
 91
      503
 93
      249
310
90D332F333222203D2031272D30220000000000002E0FC000000000000284000
  0
ACAD_PROXY_OBJECT
  5
4E
102
{ACAD_REACTORS
330
47
102
}
330
47
100
AcDbProxyObject
 90
      499
 91
      503
 93
      241
310
90C312F3822203D2031272D3022000000000000300FC000000000000284000
  0
ACAD_PROXY_OBJECT
  5
4F
102
{ACAD_REACTORS
330
47
102
}
330
47
100
AcDbProxyObject
 90
      499
 91
      503
 93
      249
310
90D332F313622203D2031272D3022000000000000320FC000000000000284000
  0
ACAD_PROXY_OBJECT
  5
50
102
{ACAD_REACTORS
330
47
102
}
330
47
100
AcDbProxyObject
 90
      499
 91
      503
 93
      241
310
90C312F3422203D2031272D3022000000000000340FC000000000000284000
  0
ACAD_PROXY_OBJECT
  5
51
102
{ACAD_REACTORS
330
47
102
}
330
47
100
AcDbProxyObject
 90
      499
 91
      503
 93
      241
310
90C332F3822203D2031272D3022000000000000360FC000000000000284000
  0
ACAD_PROXY_OBJECT
  5
52
102
{ACAD_REACTORS
330
47
102
}
330
47
100
AcDbProxyObject
 90
      499
 91
      503
 93
      241
310
90C312F3222203D2031272D3022000000000000380FC000000000000284000
  0
ACAD_PROXY_OBJECT
  5
53
102
{ACAD_REACTORS
330
47
102
}
330
47
100
AcDbProxyObject
 90
      499
 91
      503
 93
      241
310
90C332F3422203D2031272D30220000000000003A0FC000000000000284000
  0
ACAD_PROXY_OBJECT
  5
54
102
{ACAD_REACTORS
330
47
102
}
330
47
100
AcDbProxyObject
 90
      499
 91
      503
 93
      161
310
90A3122203D2031272D30224000000000000284000
  0
ACAD_PROXY_OBJECT
  5
55
102
{ACAD_REACTORS
330
47
102
}
330
47
100
AcDbProxyObject
 90
      499
 91
      503
 93
      257
310
90E312D312F3222203D2031272D30220000000000003E0FC000000000000284000
  0
ACAD_PROXY_OBJECT
  5
56
102
{ACAD_REACTORS
330
47
102
}
330
47
100
AcDbProxyObject
 90
      499
 91
      503
 93
      225
310
90A3322203D2031272D302200000000000002100000000000000284000
  0
ACAD_PROXY_OBJECT
  5
57
102
{ACAD_REACTORS
330
47
102
}
330
47
100
AcDbProxyObject
 90
      499
 91
      503
 93
      225
310
90A3622203D2031272D302200000000000006100000000000000284000
  0
ACAD_PROXY_OBJECT
  5
58
102
{ACAD_REACTORS
330
47
102
}
330
47
100
AcDbProxyObject
 90
      499
 91
      503
 93
      249
310
90D31272D3022203D2031272D30220000000000000A100000000000000284000
  0
ACAD_PROXY_OBJECT
  5
2F
102
{ACAD_REACTORS
330
2A
102
}
330
2A
100
AcDbProxyObject
 90
      499
 91
      501
 93
      436
310
42CC9915DA5C99599C985B595049028333333333333E33F0000000000000F90107901411070040501600405405064090741402480A0340
1001
ACAD
1000
AcDbSavedByObjectVersion
1070
     0
  0
ACAD_PROXY_OBJECT
  5
32
102
{ACAD_REACTORS
330
2A
102
}
330
2A
100
AcDbProxyObject
 90
      499
 91
      501
 93
      388
310
4150985CDA58D07406404333333333333E33F0000000000000F90107A41107004050150841D405064090741402480A0350
1001
ACAD
1000
AcDbSavedByObjectVersion
1070
     0
  0
ACAD_PROXY_OBJECT
  5
36
102
{ACAD_REACTORS
330
2A
102
}
330
2A
100
AcDbProxyObject
 90
      499
 91
      501
 93
      428
310
42109C9A59DA1D195B90C409028333333333333E33F0000000000000F9010790141107004050150841D405064090741402480A029950
1001
ACAD
1000
AcDbSavedByObjectVersion
1070
     0
  0
ACAD_PROXY_OBJECT
  5
3A
102
{ACAD_REACTORS
330
2A
102
}
330
2A
100
AcDbProxyObject
 90
      499
 91
      501
 93
      452
310
42D0DBDB1BDC90DA185B99D95104090240C333333333333E33F0000000000000F90108901411070040501508421405064090741402480A0350
1001
ACAD
1000
AcDbSavedByObjectVersion
1070
     0
  0
ACAD_PROXY_OBJECT
  5
34
102
{ACAD_REACTORS
330
2A
102
}
330
2A
100
AcDbProxyObject
 90
      499
 91
      501
 93
      500
310
4290DBDB98D95C1D1D585B10940D028333333333333E33F0000000000000F90107902409070040501000000000018199010841D405064090740C02480A0340
1001
ACAD
1000
AcDbSavedByObjectVersion
1070
     0
  0
ACAD_PROXY_OBJECT
  5
35
102
{ACAD_REACTORS
330
2A
102
}
330
2A
100
AcDbProxyObject
 90
      499
 91
      501
 93
      412
310
40D11A5B50B409028333333333333E33F0000000000000F9010790141107004050150841D405064090741402480A02677FFFFFD0
1001
ACAD
1000
AcDbSavedByObjectVersion
1070
     0
  0
ACAD_PROXY_OBJECT
  5
3D
102
{ACAD_REACTORS
330
2A
102
}
330
2A
100
AcDbProxyObject
 90
      499
 91
      501
 93
      452
310
43115919D950DBDB1BDC93D999916409028333333333333E33F0000000000000F9010790141107004050150841D405064090741402480A0350
1001
ACAD
1000
AcDbSavedByObjectVersion
1070
     0
  0
ACAD_PROXY_OBJECT
  5
39
102
{ACAD_REACTORS
330
2A
102
}
330
2A
100
AcDbProxyObject
 90
      499
 91
      501
 93
      444
310
42D19858D95C185D1D195C9B90F409028333333333333E33F0000000000000F9010790141107004050150841D405064090741402480A0350
1001
ACAD
1000
AcDbSavedByObjectVersion
1070
     0
  0
ACAD_PROXY_OBJECT
  5
2B
102
{ACAD_REACTORS
330
2A
102
}
330
2A
100
AcDbProxyObject
 90
      499
 91
      501
 93
      380
310
41119B185D240901404333333333333E33F0000000000000F9010740A907004050150841D405064090741402480A1B50
1001
ACAD
1000
AcDbSavedByObjectVersion
1070
     0
  0
ACAD_PROXY_OBJECT
  5
2C
102
{ACAD_REACTORS
330
2A
102
}
330
2A
100
AcDbProxyObject
 90
      499
 91
      501
 93
      468
310
43519B185D15DA5D1A115919D95CD0140901404333333333333E33F0000000000000F90107409019070040501600405405064090741402480A1B50
1001
ACAD
1000
AcDbSavedByObjectVersion
1070
     0
  0
ACAD_PROXY_OBJECT
  5
2D
102
{ACAD_REACTORS
330
2A
102
}
330
2A
100
AcDbProxyObject
 90
      499
 91
      501
 93
      404
310
41D1DBDD5C985D5910240902404333333333333E33F0000000000000F9010740A9070040501641D405064090741402480A1B50
1001
ACAD
1000
AcDbSavedByObjectVersion
1070
     0
  0
ACAD_PROXY_OBJECT
  5
2E
102
{ACAD_REACTORS
330
2A
102
}
330
2A
100
AcDbProxyObject
 90
      499
 91
      501
 93
      492
310
4411DBDD5C985D5915DA5D1A115919D95CD0340902404333333333333E33F0000000000000F90107409019070040501600405405064090741402480A1B50
1001
ACAD
1000
AcDbSavedByObjectVersion
1070
     0
  0
ACAD_PROXY_OBJECT
  5
31
102
{ACAD_REACTORS
330
2A
102
}
330
2A
100
AcDbProxyObject
 90
      499
 91
      501
 93
      476
310
41921A5919195B90640502408333333333333E33F0000000000000F901079024090700405020000000000001110200405405064090740C02480A0340
1001
ACAD
1000
AcDbSavedByObjectVersion
1070
     0
  0
ACAD_PROXY_OBJECT
  5
3B
102
{ACAD_REACTORS
330
2A
102
}
330
2A
100
AcDbProxyObject
 90
      499
 91
      501
 93
      428
310
42529A5D1D195C93D999914409028333333333333E33F0000000000000F9010790141107004050150A41D405064090741402480A0350
1001
ACAD
1000
AcDbSavedByObjectVersion
1070
     0
  0
ACAD_PROXY_OBJECT
  5
38
102
{ACAD_REACTORS
330
2A
102
}
330
2A
100
AcDbProxyObject
 90
      499
 91
      501
 93
      444
310
42D31A5B995C185D1D195C9B90E409028333333333333E33F0000000000000F9010790141107004050750841D405064090741402483A0350
1001
ACAD
1000
AcDbSavedByObjectVersion
1070
     0
  0
ACAD_PROXY_OBJECT
  5
3C
102
{ACAD_REACTORS
330
2A
102
}
330
2A
100
AcDbProxyObject
 90
      499
 91
      501
 93
      444
310
42D3DD995C9A185B99D3D999915409028333333333333E33F0000000000000F9010790141107004050150941D405064090741402480A0350
1001
ACAD
1000
AcDbSavedByObjectVersion
1070
     0
  0
ACAD_PROXY_OBJECT
  5
33
102
{ACAD_REACTORS
330
2A
102
}
330
2A
100
AcDbProxyObject
 90
      499
 91
      501
 93
      428
310
425499585B1A5CDD1A58D08409038333333333333E33F0000000000000F9010740A907004050150800405405064090740C02480A1B40
1001
ACAD
1000
AcDbSavedByObjectVersion
1070
     0
  0
ACAD_PROXY_OBJECT
  5
42
102
{ACAD_REACTORS
330
2A
102
}
330
2A
100
AcDbProxyObject
 90
      499
 91
      501
 93
      420
310
4194DA1859195911B40902404333333333333E33F0000000000000F9010740A41107004050150800405405064090840C02480A0B40
1001
ACAD
1000
AcDbSavedByObjectVersion
1070
     0
  0
ACAD_PROXY_OBJECT
  5
41
102
{ACAD_REACTORS
330
2A
102
}
330
2A
100
AcDbProxyObject
 90
      499
 91
      501
 93
      516
310
4454DA18591959081DDA5D1A08195919D95CD1A40902404333333333333E33F0000000000000F901074090142907004050250800405405064090740C02480A0B40
1001
ACAD
1000
AcDbSavedByObjectVersion
1070
     0
  0
ACAD_PROXY_OBJECT
  5
3E
102
{ACAD_REACTORS
330
2A
102
}
330
2A
100
AcDbProxyObject
 90
      499
 91
      501
 93
      532
310
4394DA1859195CC81BD98811DC985E5174090240C333333333333E33F0000000000000F901079024090741D01000000000000111010841D405064090740C02480A0340
1001
ACAD
1000
AcDbSavedByObjectVersion
1070
     0
  0
ACAD_PROXY_OBJECT
  5
3F
102
{ACAD_REACTORS
330
2A
102
}
330
2A
100
AcDbProxyObject
 90
      499
 91
      501
 93
      476
310
41D4DAD95D18DA1E51840502408333333333333E33F0000000000000F901079024090741D01000000000000111010B41D405064090741802480A0340
1001
ACAD
1000
AcDbSavedByObjectVersion
1070
     0
  0
ACAD_PROXY_OBJECT
  5
37
102
{ACAD_REACTORS
330
2A
102
}
330
2A
100
AcDbProxyObject
 90
      499
 91
      501
 93
      412
310
41D51A1A58DAD95B90D409028333333333333E33F0000000000000F9010790141107004050150C41D405064090741402480A0350
1001
ACAD
1000
AcDbSavedByObjectVersion
1070
     0
  0
ACAD_PROXY_OBJECT
  5
30
102
{ACAD_REACTORS
330
2A
102
}
330
2A
100
AcDbProxyObject
 90
      499
 91
      501
 93
      420
310
4255DA5C99599C985B595059028333333333333E33F0000000000000F90107901411070040501600405405064090740C02480A0340
1001
ACAD
1000
AcDbSavedByObjectVersion
1070
     0
  0
ACAD_PROXY_OBJECT
  5
40
102
{ACAD_REACTORS
330
2A
102
}
330
2A
100
AcDbProxyObject
 90
      499
 91
      501
 93
      404
310
41560B54985E51940902404000000000000E03F0000000000000F9010740501907004050150841D405064090740C02480A1B40
1001
ACAD
1000
AcDbSavedByObjectVersion
1070
     0
  0
XRECORD
  5
3F3
102
{ACAD_REACTORS
330
3E9
102
}
330
3E9
100
AcDbXrecord
340
0
  0
XRECORD
  5
3F2
102
{ACAD_REACTORS
330
3E9
102
}
330
3E9
100
AcDbXrecord
 90
        0
  0
XRECORD
  5
409
102
{ACAD_REACTORS
330
3E9
102
}
330
3E9
100
AcDbXrecord
1000
DSTYLE
1002
{
1070
   340
340
11
1002
}
  0
XRECORD
  5
3F4
102
{ACAD_REACTORS
330
3E9
102
}
330
3E9
100
AcDbXrecord
  1
{c442f7ed-9e16-4a24-a595-95096e096c06}
  0
XRECORD
  5
3EC
102
{ACAD_REACTORS
330
3E9
102
}
330
3E9
100
AcDbXrecord
  1

  0
XRECORD
  5
3F1
102
{ACAD_REACTORS
330
3E9
102
}
330
3E9
100
AcDbXrecord
 90
        1
  0
XRECORD
  5
3EE
102
{ACAD_REACTORS
330
3E9
102
}
330
3E9
100
AcDbXrecord
340
1A
  0
XRECORD
  5
3F0
102
{ACAD_REACTORS
330
3E9
102
}
330
3E9
100
AcDbXrecord
 90
    10781
  0
XRECORD
  5
3EF
102
{ACAD_REACTORS
330
3E9
102
}
330
3E9
100
AcDbXrecord
340
19
  0
XRECORD
  5
3F6
102
{ACAD_REACTORS
330
3E9
102
}
330
3E9
100
AcDbXrecord
 40
0.0
  0
XRECORD
  5
3F9
102
{ACAD_REACTORS
330
3E9
102
}
330
3E9
100
AcDbXrecord
340
0
  0
XRECORD
  5
3FF
102
{ACAD_REACTORS
330
3E9
102
}
330
3E9
100
AcDbXrecord
 10
0.0
 20
0.0
 30
0.0
  0
XRECORD
  5
3FB
102
{ACAD_REACTORS
330
3E9
102
}
330
3E9
100
AcDbXrecord
 10
0.0
 20
0.0
 30
0.0
  0
XRECORD
  5
3FE
102
{ACAD_REACTORS
330
3E9
102
}
330
3E9
100
AcDbXrecord
 10
0.0
 20
0.0
 30
0.0
  0
XRECORD
  5
3FC
102
{ACAD_REACTORS
330
3E9
102
}
330
3E9
100
AcDbXrecord
 10
0.0
 20
0.0
 30
0.0
  0
XRECORD
  5
3FD
102
{ACAD_REACTORS
330
3E9
102
}
330
3E9
100
AcDbXrecord
 10
0.0
 20
0.0
 30
0.0
  0
XRECORD
  5
3FA
102
{ACAD_REACTORS
330
3E9
102
}
330
3E9
100
AcDbXrecord
 10
0.0
 20
0.0
 30
0.0
  0
XRECORD
  5
3F7
102
{ACAD_REACTORS
330
3E9
102
}
330
3E9
100
AcDbXrecord
340
0
  0
XRECORD
  5
3F8
102
{ACAD_REACTORS
330
3E9
102
}
330
3E9
100
AcDbXrecord
 70
     0
  0
XRECORD
  5
3ED
102
{ACAD_REACTORS
330
3E9
102
}
330
3E9
100
AcDbXrecord
  1

  0
XRECORD
  5
3EA
102
{ACAD_REACTORS
330
3E9
102
}
330
3E9
100
AcDbXrecord
 90
        1
  0
XRECORD
  5
3EB
102
{ACAD_REACTORS
330
3E9
102
}
330
3E9
100
AcDbXrecord
 90
       70
  0
XRECORD
  5
402
102
{ACAD_REACTORS
330
3E9
102
}
330
3E9
100
AcDbXrecord
340
0
  0
XRECORD
  5
408
102
{ACAD_REACTORS
330
3E9
102
}
330
3E9
100
AcDbXrecord
 10
0.0
 20
0.0
 30
0.0
  0
XRECORD
  5
404
102
{ACAD_REACTORS
330
3E9
102
}
330
3E9
100
AcDbXrecord
 10
0.0
 20
0.0
 30
0.0
  0
XRECORD
  5
407
102
{ACAD_REACTORS
330
3E9
102
}
330
3E9
100
AcDbXrecord
 10
0.0
 20
0.0
 30
0.0
  0
XRECORD
  5
405
102
{ACAD_REACTORS
330
3E9
102
}
330
3E9
100
AcDbXrecord
 10
0.0
 20
0.0
 30
0.0
  0
XRECORD
  5
406
102
{ACAD_REACTORS
330
3E9
102
}
330
3E9
100
AcDbXrecord
 10
0.0
 20
0.0
 30
0.0
  0
XRECORD
  5
403
102
{ACAD_REACTORS
330
3E9
102
}
330
3E9
100
AcDbXrecord
 10
0.0
 20
0.0
 30
0.0
  0
XRECORD
  5
400
102
{ACAD_REACTORS
330
3E9
102
}
330
3E9
100
AcDbXrecord
340
0
  0
XRECORD
  5
401
102
{ACAD_REACTORS
330
3E9
102
}
330
3E9
100
AcDbXrecord
 70
     0
  0
XRECORD
  5
3F5
102
{ACAD_REACTORS
330
3E9
102
}
330
3E9
100
AcDbXrecord
  1
{FAEB1C32-E019-11D5-929B-00C0DF256EC4}
  0
DICTIONARYVAR
  5
414
102
{ACAD_REACTORS
330
40A
102
}
330
40A
100
DictionaryVariables
280
     0
  1
1:1
  0
DICTIONARYVAR
  5
40C
102
{ACAD_REACTORS
330
40A
102
}
330
40A
100
DictionaryVariables
280
     0
  1
Standard
  0
DICTIONARYVAR
  5
40B
102
{ACAD_REACTORS
330
40A
102
}
330
40A
100
DictionaryVariables
280
     0
  1
Standard
  0
DICTIONARYVAR
  5
40F
102
{ACAD_REACTORS
330
40A
102
}
330
40A
100
DictionaryVariables
280
     0
  1
2
  0
DICTIONARYVAR
  5
410
102
{ACAD_REACTORS
330
40A
102
}
330
40A
100
DictionaryVariables
280
     0
  1
1
  0
DICTIONARYVAR
  5
415
102
{ACAD_REACTORS
330
40A
102
}
330
40A
100
DictionaryVariables
280
     0
  1
1
  0
DICTIONARY
  5
418
330
45
100
AcDbDictionary
280
     1
  3
ACAD_XREC_ROUNDTRIP
360
419
  0
DICTIONARY
  5
416
330
44
100
AcDbDictionary
280
     1
  3
ACAD_XREC_ROUNDTRIP
360
417
  0
DICTIONARY
  5
41A
330
46
100
AcDbDictionary
280
     1
  3
ACAD_XREC_ROUNDTRIP
360
41B
  0
XRECORD
  5
419
102
{ACAD_REACTORS
330
418
102
}
330
418
100
AcDbXrecord
102
MATERIAL
148
0.0
149
0.0
149
0.0
 93
        0
 94
      127
282
     0
 72
     1
 77
     1
171
     1
175
     1
179
     1
273
     0
  0
XRECORD
  5
417
102
{ACAD_REACTORS
330
416
102
}
330
416
100
AcDbXrecord
102
MATERIAL
148
0.0
149
0.0
149
0.0
 93
        0
 94
      127
282
     0
 72
     1
 77
     1
171
     1
175
     1
179
     1
273
     0
  0
XRECORD
  5
41B
102
{ACAD_REACTORS
330
41A
102
}
330
41A
100
AcDbXrecord
102
MATERIAL
148
0.0
149
0.0
149
0.0
 93
        0
 94
      127
282
     0
 72
     1
 77
     1
171
     1
175
     1
179
     1
273
     0
  0
ENDSEC
  0
EOF
