0
SECTION
2
HEADER
9
$INSUNITS
70
1
9
$ACADVER
1
AC1014
9
$HANDSEED
5
FFFF
0
ENDSEC
0
SECTION
2
TABLES
0
TABLE
2
VPORT
5
8
100
AcDbSymbolTable
0
ENDTAB
0
TABLE
2
LTYPE
5
5
100
AcDbSymbolTable
0
LTYPE
5
14
100
AcDbSymbolTableRecord
100
AcDbLinetypeTableRecord
2
BYBLOCK
70
0
0
LTYPE
5
15
100
AcDbSymbolTableRecord
100
AcDbLinetypeTableRecord
2
BYLAYER
70
0
0
ENDTAB
0
TABLE
2
LAYER
5
2
100
AcDbSymbolTable
70
2
0
LAYER
5
50
100
AcDbSymbolTableRecord
100
AcDbLayerTableRecord
2
0
70
0
6
CONTINUOUS
0
ENDTAB
0
TABLE
2
STYLE
5
3
100
AcDbSymbolTable
70
1
0
STYLE
5
11
100
AcDbSymbolTableRecord
100
AcDbTextStyleTableRecord
2
STANDARD
70
0
0
ENDTAB
0
TABLE
2
VIEW
5
6
100
AcDbSymbolTable
70
0
0
ENDTAB
0
TABLE
2
UCS
5
7
100
AcDbSymbolTable
70
0
0
ENDTAB
0
TABLE
2
APPID
5
9
100
AcDbSymbolTable
70
2
0
APPID
5
12
100
AcDbSymbolTableRecord
100
AcDbRegAppTableRecord
2
ACAD
70
0
0
ENDTAB
0
TABLE
2
DIMSTYLE
5
A
100
AcDbSymbolTable
70
1
0
ENDTAB
0
TABLE
2
BLOCK_RECORD
5
1
100
AcDbSymbolTable
70
1
0
BLOCK_RECORD
5
1F
100
AcDbSymbolTableRecord
100
AcDbBlockTableRecord
2
*MODEL_SPACE
0
BLOCK_RECORD
5
1B
100
AcDbSymbolTableRecord
100
AcDbBlockTableRecord
2
*PAPER_SPACE
0
ENDTAB
0
ENDSEC
0
SECTION
2
BLOCKS
0
BLOCK
5
20
100
AcDbEntity
100
AcDbBlockBegin
2
*MODEL_SPACE
0
ENDBLK
5
21
100
AcDbEntity
100
AcDbBlockEnd
0
BLOCK
5
1C
100
AcDbEntity
100
AcDbBlockBegin
2
*PAPER_SPACE
0
ENDBLK
5
1D
100
AcDbEntity
100
AcDbBlockEnd
0
ENDSEC
0
SECTION
2
ENTITIES
0
CIRCLE
5
100
100
AcDbEntity
8
0
100
AcDbCircle
10
13.496800475313995
20
19.735876226167587
30
0
40
0.12999999999999914
210
0
220
-0
230
1
0
CIRCLE
5
101
100
AcDbEntity
8
0
100
AcDbCircle
10
13.997048132073171
20
19.735876226167587
30
0
40
0.12999999999999914
210
0
220
-0
230
1
0
CIRCLE
5
102
100
AcDbEntity
8
0
100
AcDbCircle
10
4.6250000758831931
20
9.7500000021778082
30
0
40
0.12999999999999984
210
0
220
-0
230
1
0
CIRCLE
5
103
100
AcDbEntity
8
0
100
AcDbCircle
10
4.6250000758831931
20
12.000000002177808
30
0
40
0.12999999999999984
210
0
220
-0
230
1
0
ARC
5
104
100
AcDbEntity
8
0
100
AcDbCircle
10
5.3874540138982718
20
9.2500813987991304
30
0
40
0.49999999999999978
210
-0
220
0
230
1
100
AcDbArc
50
270.00000000000034
51
359.64296247564823
0
LINE
5
105
100
AcDbEntity
8
0
100
AcDbLine
10
5.8874443060928385
20
9.2469656787872605
30
0
11
5.9015585744263888
21
11.51193079802869
31
0
0
SPLINE
5
106
100
AcDbEntity
8
0
100
AcDbSpline
70
4
71
5
72
21
73
15
74
0
42
0.000000001
43
0.0000000001
44
0.0000000001
40
0
40
0
40
0
40
0
40
0
40
0
40
0.10000000000000001
40
0.20000000000000001
40
0.30000000000000004
40
0.40000000000000002
40
0.5
40
0.59999999999999998
40
0.69999999999999996
40
0.79999999999999993
40
0.89999999999999991
40
1
40
1
40
1
40
1
40
1
40
1
41
1
41
1
41
1
41
1
41
1
41
1
41
1
41
1
41
1
41
1
41
1
41
1
41
1
41
1
41
1
10
5.9015585744263896
20
11.51193079802869
30
0
10
5.9065100177665961
20
11.809866384556507
30
0
10
5.9665305854870967
20
12.394023815816791
30
0
10
6.2066200634757527
20
13.234848814379687
30
0
10
6.7678840048153797
20
14.25985634184808
30
0
10
7.5672600521485913
20
15.251513500060558
30
0
10
8.198212959466785
20
15.883046855191472
30
0
10
8.4985638312957565
20
16.149983582121795
30
0
10
8.7735738565476744
20
16.409030180316442
30
0
10
9.3859425002404606
20
16.922195028345978
30
0
10
10.390164451018693
20
17.564864018005018
30
0
10
11.502473050483419
20
18.011292234998276
30
0
10
12.479237764605204
20
18.196511617519548
30
0
10
13.189021528601192
20
18.23739459205326
30
0
10
13.558526478865886
20
18.237146797456216
30
0
0
ARC
5
107
100
AcDbEntity
8
0
100
AcDbCircle
10
13.496800475313995
20
19.735876226167587
30
0
40
1.5000000000000027
210
-0
220
0
230
1
100
AcDbArc
50
-87.641574403045041
51
92.671360734411138
0
SPLINE
5
108
100
AcDbEntity
8
0
100
AcDbSpline
70
4
71
5
72
21
73
15
74
0
42
0.000000001
43
0.0000000001
44
0.0000000001
40
-1
40
-1
40
-1
40
-1
40
-1
40
-1
40
-0.89999999999999991
40
-0.79999999999999993
40
-0.69999999999999996
40
-0.59999999999999998
40
-0.5
40
-0.40000000000000002
40
-0.30000000000000004
40
-0.20000000000000001
40
-0.10000000000000001
40
0
40
0
40
0
40
0
40
0
40
0
41
1
41
1
41
1
41
1
41
1
41
1
41
1
41
1
41
1
41
1
41
1
41
1
41
1
41
1
41
1
10
13.42688974992217
20
21.234246170632304
30
0
10
12.924482653082729
20
21.223249963220727
30
0
10
11.947395659769525
20
21.14345132754633
30
0
10
10.564811007955464
20
20.85023039419664
30
0
10
8.9161967149427728
20
20.173431827529534
30
0
10
7.3030431592083884
20
19.14961557133179
30
0
10
6.2519565828774937
20
18.275523773943878
30
0
10
5.7380746226931052
20
17.735939266003204
30
0
10
5.5982632344629062
20
17.523577446910974
30
0
10
5.1578703421341414
20
17.052202610861965
30
0
10
4.375489335965514
20
16.105784294193008
30
0
10
3.7470375198792891
20
15.005385424814696
30
0
10
3.4612769350016337
20
14.045114541165166
30
0
10
3.384756911112961
20
13.357143315163849
30
0
10
3.3749824838417286
20
13.001193412367451
30
0
0
LINE
5
109
100
AcDbEntity
8
0
100
AcDbLine
10
3.3749824838417286
20
13.001193412367449
30
0
11
3.3500692488386004
21
9.2534050502668794
31
0
0
ARC
5
110
100
AcDbEntity
8
0
100
AcDbCircle
10
3.8500582020574918
20
9.2500813987991322
30
0
40
0.50000000000000211
210
0
220
0
230
1
100
AcDbArc
50
179.61913479175769
51
269.99999999999983
0
LINE
5
111
100
AcDbEntity
8
0
100
AcDbLine
10
3.8500582020574905
20
8.7500813987991304
30
0
11
5.3874540138982745
21
8.7500813987991304
31
0
0
ENDSEC
0
SECTION
2
OBJECTS
0
DICTIONARY
5
C
100
AcDbDictionary
3
ACAD_GROUP
350
D
3
ACAD_MLINESTYLE
350
17
0
DICTIONARY
5
D
100
AcDbDictionary
0
DICTIONARY
5
1A
330
C
100
AcDbDictionary
0
DICTIONARY
5
17
100
AcDbDictionary
0
ENDSEC
0
EOF
