0
SECTION
2
HEADER
9
$INSUNITS
70
1
9
$ACADVER
1
AC1014
9
$HANDSEED
5
FFFF
0
ENDSEC
0
SECTION
2
TABLES
0
TABLE
2
VPORT
5
8
100
AcDbSymbolTable
0
ENDTAB
0
TABLE
2
LTYPE
5
5
100
AcDbSymbolTable
0
LTYPE
5
14
100
AcDbSymbolTableRecord
100
AcDbLinetypeTableRecord
2
BYBLOCK
70
0
0
LTYPE
5
15
100
AcDbSymbolTableRecord
100
AcDbLinetypeTableRecord
2
BYLAYER
70
0
0
ENDTAB
0
TABLE
2
LAYER
5
2
100
AcDbSymbolTable
70
2
0
LAYER
5
50
100
AcDbSymbolTableRecord
100
AcDbLayerTableRecord
2
0
70
0
6
CONTINUOUS
0
ENDTAB
0
TABLE
2
STYLE
5
3
100
AcDbSymbolTable
70
1
0
STYLE
5
11
100
AcDbSymbolTableRecord
100
AcDbTextStyleTableRecord
2
STANDARD
70
0
0
ENDTAB
0
TABLE
2
VIEW
5
6
100
AcDbSymbolTable
70
0
0
ENDTAB
0
TABLE
2
UCS
5
7
100
AcDbSymbolTable
70
0
0
ENDTAB
0
TABLE
2
APPID
5
9
100
AcDbSymbolTable
70
2
0
APPID
5
12
100
AcDbSymbolTableRecord
100
AcDbRegAppTableRecord
2
ACAD
70
0
0
ENDTAB
0
TABLE
2
DIMSTYLE
5
A
100
AcDbSymbolTable
70
1
0
ENDTAB
0
TABLE
2
BLOCK_RECORD
5
1
100
AcDbSymbolTable
70
1
0
BLOCK_RECORD
5
1F
100
AcDbSymbolTableRecord
100
AcDbBlockTableRecord
2
*MODEL_SPACE
0
BLOCK_RECORD
5
1B
100
AcDbSymbolTableRecord
100
AcDbBlockTableRecord
2
*PAPER_SPACE
0
ENDTAB
0
ENDSEC
0
SECTION
2
BLOCKS
0
BLOCK
5
20
100
AcDbEntity
100
AcDbBlockBegin
2
*MODEL_SPACE
0
ENDBLK
5
21
100
AcDbEntity
100
AcDbBlockEnd
0
BLOCK
5
1C
100
AcDbEntity
100
AcDbBlockBegin
2
*PAPER_SPACE
0
ENDBLK
5
1D
100
AcDbEntity
100
AcDbBlockEnd
0
ENDSEC
0
SECTION
2
ENTITIES
0
CIRCLE
5
100
100
AcDbEntity
8
0
100
AcDbCircle
10
0
20
-9.5000002872286817
30
0
40
0.12499999999999975
210
0
220
0
230
1
0
SPLINE
5
101
100
AcDbEntity
8
0
100
AcDbSpline
70
6
71
5
72
116
73
110
74
0
42
0.000000001
43
0.0000000001
44
0.0000000001
40
0
40
0
40
0
40
0
40
0
40
0
40
0.0095238095238095247
40
0.019047619047619049
40
0.028571428571428574
40
0.038095238095238099
40
0.047619047619047623
40
0.057142857142857148
40
0.06666666666666668
40
0.076190476190476197
40
0.085714285714285715
40
0.095238095238095233
40
0.10476190476190475
40
0.11428571428571427
40
0.12380952380952379
40
0.1333333333333333
40
0.14285714285714282
40
0.15238095238095234
40
0.16190476190476186
40
0.17142857142857137
40
0.18095238095238089
40
0.19047619047619041
40
0.19999999999999993
40
0.20952380952380945
40
0.21904761904761896
40
0.22857142857142848
40
0.238095238095238
40
0.24761904761904752
40
0.25714285714285706
40
0.26666666666666661
40
0.27619047619047615
40
0.2857142857142857
40
0.29523809523809524
40
0.30476190476190479
40
0.31428571428571433
40
0.32380952380952388
40
0.33333333333333343
40
0.34285714285714297
40
0.35238095238095252
40
0.36190476190476206
40
0.37142857142857161
40
0.38095238095238115
40
0.3904761904761907
40
0.40000000000000024
40
0.40952380952380979
40
0.41904761904761934
40
0.42857142857142888
40
0.43809523809523843
40
0.44761904761904797
40
0.45714285714285752
40
0.46666666666666706
40
0.47619047619047661
40
0.48571428571428615
40
0.4952380952380957
40
0.50476190476190519
40
0.51428571428571468
40
0.52380952380952417
40
0.53333333333333366
40
0.54285714285714315
40
0.55238095238095264
40
0.56190476190476213
40
0.57142857142857162
40
0.58095238095238111
40
0.5904761904761906
40
0.60000000000000009
40
0.60952380952380958
40
0.61904761904761907
40
0.62857142857142856
40
0.63809523809523805
40
0.64761904761904754
40
0.65714285714285703
40
0.66666666666666652
40
0.67619047619047601
40
0.6857142857142855
40
0.69523809523809499
40
0.70476190476190448
40
0.71428571428571397
40
0.72380952380952346
40
0.73333333333333295
40
0.74285714285714244
40
0.75238095238095193
40
0.76190476190476142
40
0.77142857142857091
40
0.7809523809523804
40
0.79047619047618989
40
0.79999999999999938
40
0.80952380952380887
40
0.81904761904761836
40
0.82857142857142785
40
0.83809523809523734
40
0.84761904761904683
40
0.85714285714285632
40
0.86666666666666581
40
0.8761904761904753
40
0.88571428571428479
40
0.89523809523809428
40
0.90476190476190377
40
0.91428571428571326
40
0.92380952380952275
40
0.93333333333333224
40
0.94285714285714173
40
0.95238095238095122
40
0.96190476190476071
40
0.9714285714285702
40
0.98095238095237969
40
0.99047619047618918
40
1
40
1
40
1
40
1
40
1
40
1
41
1
41
1
41
1
41
1
41
1
41
1
41
1
41
1
41
1
41
1
41
1
41
1
41
1
41
1
41
1
41
1
41
1
41
1
41
1
41
1
41
1
41
1
41
1
41
1
41
1
41
1
41
1
41
1
41
1
41
1
41
1
41
1
41
1
41
1
41
1
41
1
41
1
41
1
41
1
41
1
41
1
41
1
41
1
41
1
41
1
41
1
41
1
41
1
41
1
41
1
41
1
41
1
41
1
41
1
41
1
41
1
41
1
41
1
41
1
41
1
41
1
41
1
41
1
41
1
41
1
41
1
41
1
41
1
41
1
41
1
41
1
41
1
41
1
41
1
41
1
41
1
41
1
41
1
41
1
41
1
41
1
41
1
41
1
41
1
41
1
41
1
41
1
41
1
41
1
41
1
41
1
41
1
41
1
41
1
41
1
41
1
41
1
41
1
41
1
41
1
41
1
41
1
41
1
41
1
41
1
41
1
41
1
41
1
41
1
41
1
10
11.046941470821398
20
-8.0081671501971261
30
0
10
11.049263908608589
20
-8.0258876561837216
30
0
10
11.042718085563378
20
-8.0647486573191944
30
0
10
10.998044285714485
20
-8.1293859271188698
30
0
10
10.879777105104129
20
-8.2066885212839029
30
0
10
10.67808623728331
20
-8.2844488032027659
30
0
10
10.477126546692062
20
-8.3462751552246619
30
0
10
10.314719197239269
20
-8.4043967243150242
30
0
10
10.194077808639825
20
-8.4637158642812871
30
0
10
10.096841545426086
20
-8.5263779026444979
30
0
10
9.9959864042564082
20
-8.5923754105812069
30
0
10
9.8710044148705052
20
-8.6621811326116482
30
0
10
9.7120419090561239
20
-8.7370059623676415
30
0
10
9.5159704291172797
20
-8.8181624935303535
30
0
10
9.2848719197490936
20
-8.9066606760753153
30
0
10
9.0234792036798126
20
-9.0026885051360939
30
0
10
8.7372161197653977
20
-9.1052029947729167
30
0
10
8.4319327682646446
20
-9.2122794148071314
30
0
10
8.1135795173182341
20
-9.3214081428459341
30
0
10
7.7878983536589237
20
-9.4298124773606595
30
0
10
7.4601119886450018
20
-9.5347532617667099
30
0
10
7.1346021115461475
20
-9.6338485685095954
30
0
10
6.8146187747464246
20
-9.7253651066457039
30
0
10
6.5019108537351737
20
-9.8085750691140206
30
0
10
6.1965952487755569
20
-9.8839176686567143
30
0
10
5.8977302759290779
20
-9.9525869049391655
30
0
10
5.6037616253853626
20
-10.016222677324549
30
0
10
5.3130218846582906
20
-10.076559184953094
30
0
10
5.0241985426789872
20
-10.135096829020732
30
0
10
4.7368353953636397
20
-10.192751982768007
30
0
10
4.4517735438586685
20
-10.249544141571326
30
0
10
4.1717432514145552
20
-10.304191313038716
30
0
10
3.9004565345010729
20
-10.354611637704746
30
0
10
3.64146647452807
20
-10.39856450696383
30
0
10
3.397154876952118
20
-10.434216981105624
30
0
10
3.1675622839929645
20
-10.46079851742363
30
0
10
2.9495243850709176
20
-10.479086300710861
30
0
10
2.7350773957189207
20
-10.492292652938341
30
0
10
2.5126838536456968
20
-10.505410915355389
30
0
10
2.2710855367855181
20
-10.523169495948176
30
0
10
2.0021453385575279
20
-10.548460847067043
30
0
10
1.7046983305080883
20
-10.580392965770232
30
0
10
1.3865986057629185
20
-10.612914706574932
30
0
10
1.071004803917003
20
-10.632324917102407
30
0
10
0.78580010841134973
20
-10.614556642616526
30
0
10
0.55661730679075505
20
-10.534582694772766
30
0
10
0.40341819529949868
20
-10.391976672047676
30
0
10
0.33310771208372347
20
-10.195001185540685
30
0
10
0.33947399304538151
20
-10.043389026676618
30
0
10
0.38548792487530448
20
-9.9588972024747697
30
0
10
0.42185101139228481
20
-9.8113626446459907
30
0
10
0.41164910171250613
20
-9.4983687551151323
30
0
10
0.38291762555668907
20
-9.2332167754455181
30
0
10
0.41180850182874223
20
-9.401559262787746
30
0
10
0.36019755136816017
20
-9.1405535454710165
30
0
10
0.31996969524372404
20
-9.0135631962439753
30
0
10
0.27568251010169853
20
-8.8834344699980967
30
0
10
0.23905527522151071
20
-8.7676251575127591
30
0
10
0.21025896515468004
20
-8.5989789759739281
30
0
10
0.20452844850331051
20
-8.4029298981753495
30
0
10
0.23520267389104577
20
-8.2058766702245496
30
0
10
0.31388133928190193
20
-8.0486553875061144
30
0
10
0.44243772607396964
20
-7.9528556655016152
30
0
10
0.61122726218042578
20
-7.9148324841069071
30
0
10
0.80497090473591204
20
-7.9160660564978649
30
0
10
1.0074080405442631
20
-7.9323119543277611
30
0
10
1.2067646817574706
20
-7.9437039389924324
30
0
10
1.3998584465234658
20
-7.9427005209694794
30
0
10
1.5891623662453376
20
-7.9297785724517142
30
0
10
1.7805867049943922
20
-7.9104155325487833
30
0
10
1.9811258911592875
20
-7.8917930896711015
30
0
10
2.1962326254051785
20
-7.8791074685821076
30
0
10
2.4284932067838718
20
-7.873886578680783
30
0
10
2.6782864260625017
20
-7.8754088926108192
30
0
10
2.9439642410262126
20
-7.8813513673385769
30
0
10
3.2222108223473542
20
-7.8887755457033899
30
0
10
3.5083561174415752
20
-7.8949056583782813
30
0
10
3.7966302441623259
20
-7.8981489963066807
30
0
10
4.0807130603895816
20
-7.8984769835223885
30
0
10
4.3548091849273574
20
-7.8967481064399809
30
0
10
4.6146014815262815
20
-7.8943237172412717
30
0
10
4.8582541244282176
20
-7.8924559829812946
30
0
10
5.0873962443058103
20
-7.8920270685204112
30
0
10
5.3081147382608664
20
-7.8925379255959873
30
0
10
5.5319562163125804
20
-7.8930555901640078
30
0
10
5.7729249941165843
20
-7.8936021816261448
30
0
10
6.0441745622720511
20
-7.8943448017355573
30
0
10
6.3552967612868523
20
-7.8956381094450538
30
0
10
6.7082619121860709
20
-7.897596272873316
30
0
10
7.0964722824992865
20
-7.9001224896283881
30
0
10
7.4964633952049251
20
-7.9021368373538587
30
0
10
7.879385232365153
20
-7.9028240193235488
30
0
10
8.226679440325162
20
-7.9026966560960128
30
0
10
8.5263801770900542
20
-7.9026262994020247
30
0
10
8.775671509164912
20
-7.9036741190913578
30
0
10
8.9828848947534237
20
-7.9064766680081338
30
0
10
9.1649132927308177
20
-7.9110692542104033
30
0
10
9.3579386845679249
20
-7.9159420545705199
30
0
10
9.5933596762702944
20
-7.918913568706536
30
0
10
9.8601112021856849
20
-7.9197086805301531
30
0
10
10.132930897521931
20
-7.9186149574363327
30
0
10
10.374864791586004
20
-7.9174124187208941
30
0
10
10.558162331077085
20
-7.9172305972492767
30
0
10
10.658525457238527
20
-7.9229401755294271
30
0
10
10.733264227322096
20
-7.9249483387069599
30
0
10
10.854711173000025
20
-7.9175150580141764
30
0
10
10.972740971112847
20
-7.9245682540605094
30
0
10
11.028783458840955
20
-7.958425621400103
30
0
10
11.044619033034209
20
-7.990446644210528
30
0
10
11.046941470821398
20
-8.0081671501971261
30
0
0
SPLINE
5
102
100
AcDbEntity
8
0
100
AcDbSpline
70
6
71
5
72
116
73
110
74
0
42
0.000000001
43
0.0000000001
44
0.0000000001
40
-1
40
-1
40
-1
40
-1
40
-1
40
-1
40
-0.99047619047618918
40
-0.98095238095237969
40
-0.9714285714285702
40
-0.96190476190476071
40
-0.95238095238095122
40
-0.94285714285714173
40
-0.93333333333333224
40
-0.92380952380952275
40
-0.91428571428571326
40
-0.90476190476190377
40
-0.89523809523809428
40
-0.88571428571428479
40
-0.8761904761904753
40
-0.86666666666666581
40
-0.85714285714285632
40
-0.84761904761904683
40
-0.83809523809523734
40
-0.82857142857142785
40
-0.81904761904761836
40
-0.80952380952380887
40
-0.79999999999999938
40
-0.79047619047618989
40
-0.7809523809523804
40
-0.77142857142857091
40
-0.76190476190476142
40
-0.75238095238095193
40
-0.74285714285714244
40
-0.73333333333333295
40
-0.72380952380952346
40
-0.71428571428571397
40
-0.70476190476190448
40
-0.69523809523809499
40
-0.6857142857142855
40
-0.67619047619047601
40
-0.66666666666666652
40
-0.65714285714285703
40
-0.64761904761904754
40
-0.63809523809523805
40
-0.62857142857142856
40
-0.61904761904761907
40
-0.60952380952380958
40
-0.60000000000000009
40
-0.5904761904761906
40
-0.58095238095238111
40
-0.57142857142857162
40
-0.56190476190476213
40
-0.55238095238095264
40
-0.54285714285714315
40
-0.53333333333333366
40
-0.52380952380952417
40
-0.51428571428571468
40
-0.50476190476190519
40
-0.4952380952380957
40
-0.48571428571428615
40
-0.47619047619047661
40
-0.46666666666666706
40
-0.45714285714285752
40
-0.44761904761904797
40
-0.43809523809523843
40
-0.42857142857142888
40
-0.41904761904761934
40
-0.40952380952380979
40
-0.40000000000000024
40
-0.3904761904761907
40
-0.38095238095238115
40
-0.37142857142857161
40
-0.36190476190476206
40
-0.35238095238095252
40
-0.34285714285714297
40
-0.33333333333333343
40
-0.32380952380952388
40
-0.31428571428571433
40
-0.30476190476190479
40
-0.29523809523809524
40
-0.2857142857142857
40
-0.27619047619047615
40
-0.26666666666666661
40
-0.25714285714285706
40
-0.24761904761904752
40
-0.238095238095238
40
-0.22857142857142848
40
-0.21904761904761896
40
-0.20952380952380945
40
-0.19999999999999993
40
-0.19047619047619041
40
-0.18095238095238089
40
-0.17142857142857137
40
-0.16190476190476186
40
-0.15238095238095234
40
-0.14285714285714282
40
-0.1333333333333333
40
-0.12380952380952379
40
-0.11428571428571427
40
-0.10476190476190475
40
-0.095238095238095233
40
-0.085714285714285715
40
-0.076190476190476197
40
-0.06666666666666668
40
-0.057142857142857148
40
-0.047619047619047623
40
-0.038095238095238099
40
-0.028571428571428574
40
-0.019047619047619049
40
-0.0095238095238095247
40
0
40
0
40
0
40
0
40
0
40
0
41
1
41
1
41
1
41
1
41
1
41
1
41
1
41
1
41
1
41
1
41
1
41
1
41
1
41
1
41
1
41
1
41
1
41
1
41
1
41
1
41
1
41
1
41
1
41
1
41
1
41
1
41
1
41
1
41
1
41
1
41
1
41
1
41
1
41
1
41
1
41
1
41
1
41
1
41
1
41
1
41
1
41
1
41
1
41
1
41
1
41
1
41
1
41
1
41
1
41
1
41
1
41
1
41
1
41
1
41
1
41
1
41
1
41
1
41
1
41
1
41
1
41
1
41
1
41
1
41
1
41
1
41
1
41
1
41
1
41
1
41
1
41
1
41
1
41
1
41
1
41
1
41
1
41
1
41
1
41
1
41
1
41
1
41
1
41
1
41
1
41
1
41
1
41
1
41
1
41
1
41
1
41
1
41
1
41
1
41
1
41
1
41
1
41
1
41
1
41
1
41
1
41
1
41
1
41
1
41
1
41
1
41
1
41
1
41
1
41
1
10
-11.046941470821398
20
-8.0081671501971261
30
0
10
-11.044619033034209
20
-7.990446644210528
30
0
10
-11.028783458840955
20
-7.958425621400103
30
0
10
-10.972740971112847
20
-7.9245682540605094
30
0
10
-10.854711173000025
20
-7.9175150580141764
30
0
10
-10.733264227322096
20
-7.9249483387069599
30
0
10
-10.658525457238527
20
-7.9229401755294271
30
0
10
-10.558162331077085
20
-7.9172305972492767
30
0
10
-10.374864791586004
20
-7.9174124187208941
30
0
10
-10.132930897521931
20
-7.9186149574363327
30
0
10
-9.8601112021856849
20
-7.9197086805301531
30
0
10
-9.5933596762702944
20
-7.918913568706536
30
0
10
-9.3579386845679249
20
-7.9159420545705199
30
0
10
-9.1649132927308177
20
-7.9110692542104033
30
0
10
-8.9828848947534237
20
-7.9064766680081338
30
0
10
-8.775671509164912
20
-7.9036741190913578
30
0
10
-8.5263801770900542
20
-7.9026262994020247
30
0
10
-8.226679440325162
20
-7.9026966560960128
30
0
10
-7.879385232365153
20
-7.9028240193235488
30
0
10
-7.4964633952049251
20
-7.9021368373538587
30
0
10
-7.0964722824992865
20
-7.9001224896283881
30
0
10
-6.7082619121860709
20
-7.897596272873316
30
0
10
-6.3552967612868523
20
-7.8956381094450538
30
0
10
-6.0441745622720511
20
-7.8943448017355573
30
0
10
-5.7729249941165843
20
-7.8936021816261448
30
0
10
-5.5319562163125804
20
-7.8930555901640078
30
0
10
-5.3081147382608664
20
-7.8925379255959873
30
0
10
-5.0873962443058103
20
-7.8920270685204112
30
0
10
-4.8582541244282176
20
-7.8924559829812946
30
0
10
-4.6146014815262815
20
-7.8943237172412717
30
0
10
-4.3548091849273574
20
-7.8967481064399809
30
0
10
-4.0807130603895816
20
-7.8984769835223885
30
0
10
-3.7966302441623259
20
-7.8981489963066807
30
0
10
-3.5083561174415752
20
-7.8949056583782813
30
0
10
-3.2222108223473542
20
-7.8887755457033899
30
0
10
-2.9439642410262126
20
-7.8813513673385769
30
0
10
-2.6782864260625017
20
-7.8754088926108192
30
0
10
-2.4284932067838718
20
-7.873886578680783
30
0
10
-2.1962326254051785
20
-7.8791074685821076
30
0
10
-1.9811258911592875
20
-7.8917930896711015
30
0
10
-1.7805867049943922
20
-7.9104155325487833
30
0
10
-1.5891623662453376
20
-7.9297785724517142
30
0
10
-1.3998584465234658
20
-7.9427005209694794
30
0
10
-1.2067646817574706
20
-7.9437039389924324
30
0
10
-1.0074080405442631
20
-7.9323119543277611
30
0
10
-0.80497090473591204
20
-7.9160660564978649
30
0
10
-0.61122726218042578
20
-7.9148324841069071
30
0
10
-0.44243772607396964
20
-7.9528556655016152
30
0
10
-0.31388133928190193
20
-8.0486553875061144
30
0
10
-0.23520267389104577
20
-8.2058766702245496
30
0
10
-0.20452844850331051
20
-8.4029298981753495
30
0
10
-0.21025896515468004
20
-8.5989789759739281
30
0
10
-0.23905527522151071
20
-8.7676251575127591
30
0
10
-0.27568251010169853
20
-8.8834344699980967
30
0
10
-0.31996969524372404
20
-9.0135631962439753
30
0
10
-0.36019755136816017
20
-9.1405535454710183
30
0
10
-0.41180850182874207
20
-9.401559262787746
30
0
10
-0.38291762555668918
20
-9.2332167754455181
30
0
10
-0.41164910171250602
20
-9.4983687551151323
30
0
10
-0.42185101139228481
20
-9.8113626446459907
30
0
10
-0.38548792487530448
20
-9.9588972024747697
30
0
10
-0.33947399304538151
20
-10.043389026676618
30
0
10
-0.33310771208372347
20
-10.195001185540685
30
0
10
-0.40341819529949868
20
-10.391976672047676
30
0
10
-0.55661730679075505
20
-10.534582694772766
30
0
10
-0.78580010841134973
20
-10.614556642616526
30
0
10
-1.071004803917003
20
-10.632324917102407
30
0
10
-1.3865986057629185
20
-10.612914706574932
30
0
10
-1.7046983305080883
20
-10.580392965770232
30
0
10
-2.0021453385575279
20
-10.548460847067043
30
0
10
-2.2710855367855181
20
-10.523169495948176
30
0
10
-2.5126838536456968
20
-10.505410915355389
30
0
10
-2.7350773957189207
20
-10.492292652938341
30
0
10
-2.9495243850709176
20
-10.479086300710861
30
0
10
-3.1675622839929645
20
-10.46079851742363
30
0
10
-3.397154876952118
20
-10.434216981105624
30
0
10
-3.64146647452807
20
-10.39856450696383
30
0
10
-3.9004565345010729
20
-10.354611637704746
30
0
10
-4.1717432514145552
20
-10.304191313038716
30
0
10
-4.4517735438586685
20
-10.249544141571326
30
0
10
-4.7368353953636397
20
-10.192751982768007
30
0
10
-5.0241985426789872
20
-10.135096829020732
30
0
10
-5.3130218846582906
20
-10.076559184953094
30
0
10
-5.6037616253853626
20
-10.016222677324549
30
0
10
-5.8977302759290779
20
-9.9525869049391655
30
0
10
-6.1965952487755569
20
-9.8839176686567143
30
0
10
-6.5019108537351737
20
-9.8085750691140206
30
0
10
-6.8146187747464246
20
-9.7253651066457039
30
0
10
-7.1346021115461475
20
-9.6338485685095954
30
0
10
-7.4601119886450018
20
-9.5347532617667099
30
0
10
-7.7878983536589237
20
-9.4298124773606595
30
0
10
-8.1135795173182341
20
-9.3214081428459341
30
0
10
-8.4319327682646446
20
-9.2122794148071314
30
0
10
-8.7372161197653977
20
-9.1052029947729167
30
0
10
-9.0234792036798126
20
-9.0026885051360939
30
0
10
-9.2848719197490936
20
-8.9066606760753153
30
0
10
-9.5159704291172797
20
-8.8181624935303535
30
0
10
-9.7120419090561239
20
-8.7370059623676415
30
0
10
-9.8710044148705052
20
-8.6621811326116482
30
0
10
-9.9959864042564082
20
-8.5923754105812069
30
0
10
-10.096841545426086
20
-8.5263779026444979
30
0
10
-10.194077808639825
20
-8.4637158642812871
30
0
10
-10.314719197239269
20
-8.4043967243150242
30
0
10
-10.477126546692062
20
-8.3462751552246619
30
0
10
-10.67808623728331
20
-8.2844488032027659
30
0
10
-10.879777105104129
20
-8.2066885212839029
30
0
10
-10.998044285714485
20
-8.1293859271188698
30
0
10
-11.042718085563378
20
-8.0647486573191944
30
0
10
-11.049263908608589
20
-8.0258876561837216
30
0
10
-11.046941470821398
20
-8.0081671501971261
30
0
0
LINE
5
103
100
AcDbEntity
8
0
100
AcDbLine
10
12.181875
20
-7.6243749999999997
30
0
11
-12.181875
21
-7.6243749999999997
31
0
0
LINE
5
104
100
AcDbEntity
8
0
100
AcDbLine
10
-12.181875
20
-7.6243749999999997
30
0
11
-12.181874999999998
21
-7.751965732134094
31
0
0
ELLIPSE
5
105
100
AcDbEntity
8
0
100
AcDbEllipse
10
0
20
-0.49999999999999994
30
0
11
16.937999999999999
21
2.043999449940427e-15
31
0.0
40
0.61621797142519774
41
3.9097331968060303
42
5.5150447639633491
0
LINE
5
106
100
AcDbEntity
8
0
100
AcDbLine
10
12.181875
20
-7.7519657321340913
30
0
11
12.181875
21
-7.6243749999999997
31
0
0
ENDSEC
0
SECTION
2
OBJECTS
0
DICTIONARY
5
C
100
AcDbDictionary
3
ACAD_GROUP
350
D
3
ACAD_MLINESTYLE
350
17
0
DICTIONARY
5
D
100
AcDbDictionary
0
DICTIONARY
5
1A
330
C
100
AcDbDictionary
0
DICTIONARY
5
17
100
AcDbDictionary
0
ENDSEC
0
EOF
