<?xml version="1.0" standalone="no"?>
<!DOCTYPE svg PUBLIC "-//W3C//DTD SVG 20010904//EN"
 "http://www.w3.org/TR/2001/REC-SVG-20010904/DTD/svg10.dtd">
<svg version="1.0" xmlns="http://www.w3.org/2000/svg"
 width="468pt" height="468pt" viewBox="0 0 468 468"
 preserveAspectRatio="xMidYMid meet">
<metadata>
Created by potrace 1.7, written by Peter Selinger 2001-2005
</metadata>
<g transform="translate(0,468) scale(0.130362,-0.130362)"
fill="#000000" stroke="none">
<path d="M1626 3079 c-196 -20 -385 -80 -551 -177 -262 -151 -457 -379 -563
-660 l-19 -49 111 -79 c123 -88 256 -174 269 -174 5 0 6 8 3 18 -4 9 -34 88
-68 175 -39 102 -58 165 -54 180 12 49 93 157 195 258 170 171 368 287 551
324 88 18 220 29 220 19 0 -5 -69 -220 -154 -479 -195 -594 -201 -613 -193
-621 5 -5 252 81 416 146 29 11 56 19 58 16 3 -2 -22 -96 -55 -208 -99 -334
-165 -578 -159 -585 4 -3 59 18 122 47 64 29 119 50 122 47 5 -5 -15 -80 -77
-292 -16 -55 -40 -143 -54 -195 -13 -52 -34 -129 -45 -170 -22 -77 -26 -120
-13 -120 8 0 29 43 176 355 58 121 157 330 220 464 64 134 114 246 112 249 -3
2 -47 -7 -98 -21 -106 -30 -168 -42 -168 -33 0 3 42 128 94 278 151 440 179
528 173 534 -3 3 -63 -17 -134 -44 -196 -76 -345 -129 -369 -132 -2 0 136 472
196 670 63 211 74 250 69 254 -10 10 -254 13 -333 5z m-806 -509 c0 -5 -5 -10
-11 -10 -5 0 -7 5 -4 10 3 6 8 10 11 10 2 0 4 -4 4 -10z m811 -390 c13 -10 18
-19 12 -20 -7 0 -13 4 -13 8 0 5 -10 14 -22 20 -13 6 -18 11 -12 11 7 1 22 -8
35 -19z"/>
<path d="M2091 2968 c-11 -40 -21 -76 -21 -80 0 -4 30 -16 68 -27 287 -86 568
-335 701 -623 71 -152 100 -259 117 -428 l5 -55 72 -40 c40 -22 77 -41 83 -43
16 -4 23 99 12 188 -42 342 -167 611 -387 830 -108 107 -211 181 -339 245 -85
42 -251 105 -276 105 -8 0 -22 -32 -35 -72z"/>
<path d="M444 1953 c-11 -92 2 -309 26 -403 37 -153 81 -253 105 -244 9 4 15
0 15 -10 0 -9 -4 -16 -10 -16 -21 0 -7 -31 61 -135 81 -123 228 -277 331 -348
152 -104 398 -211 535 -233 l41 -6 4 72 c2 40 -1 75 -7 80 -5 4 -48 20 -95 35
-128 42 -198 76 -323 159 -302 199 -487 542 -487 901 l0 102 -53 35 c-60 40
-112 68 -126 68 -5 0 -13 -25 -17 -57z"/>
<path d="M2730 1665 c0 -11 50 -102 98 -179 l50 -79 -26 -56 c-89 -195 -212
-340 -396 -465 -116 -80 -211 -121 -404 -176 l-72 -21 -35 -69 c-19 -38 -35
-72 -35 -75 0 -18 207 19 334 61 315 103 615 352 759 631 27 53 97 254 97 280
0 2 -68 37 -151 78 -98 49 -163 75 -185 75 -19 0 -34 -2 -34 -5z"/>
</g>
</svg>
