<?xml version="1.0" standalone="no"?>
<!DOCTYPE svg PUBLIC "-//W3C//DTD SVG 20010904//EN"
 "http://www.w3.org/TR/2001/REC-SVG-20010904/DTD/svg10.dtd">
<svg version="1.0" xmlns="http://www.w3.org/2000/svg"
 width="468pt" height="370pt" viewBox="0 0 468 370"
 preserveAspectRatio="xMidYMid meet">
<metadata>
Created by potrace 1.7, written by Peter Selinger 2001-2005
</metadata>
<g transform="translate(0,370) scale(0.164211,-0.164211)"
fill="#000000" stroke="none">
<path d="M1205 2159 c-463 -67 -857 -364 -1028 -774 -44 -106 -47 -95 45 -162
181 -131 274 -190 285 -179 3 2 -23 76 -57 164 -33 88 -62 168 -63 179 -3 48
152 249 265 344 96 80 246 175 330 208 108 44 180 60 290 68 l97 6 -13 -39
c-6 -21 -81 -248 -165 -504 -192 -585 -184 -560 -179 -566 3 -2 112 36 244 85
131 49 240 88 241 87 1 -1 -18 -69 -42 -152 -25 -82 -63 -214 -86 -294 -22
-80 -54 -192 -70 -249 -16 -57 -27 -106 -25 -108 2 -2 57 21 122 50 88 40 120
51 122 40 3 -13 -5 -46 -68 -265 l-28 -98 52 0 52 0 124 258 c193 403 194 405
170 397 -51 -16 -253 -65 -257 -62 -2 2 4 24 13 48 45 125 264 765 264 774 0
5 -84 -24 -190 -68 -102 -41 -309 -111 -315 -105 -4 4 82 305 194 677 39 129
68 238 65 243 -7 10 -310 8 -389 -3z m-735 -498 c0 -5 -7 -11 -15 -15 -9 -3
-15 0 -15 9 0 8 7 15 15 15 8 0 15 -4 15 -9z m795 -383 c14 -6 25 -15 25 -20
0 -13 -13 -9 -40 12 -28 22 -23 25 15 8z"/>
<path d="M1755 2118 c-15 -40 -45 -141 -43 -143 2 -1 35 -12 73 -23 83 -25
245 -106 306 -153 67 -51 215 -197 263 -259 128 -165 228 -414 243 -607 l6
-83 76 -44 c42 -24 79 -42 84 -39 14 8 7 162 -13 278 -22 129 -72 290 -120
388 -56 112 -156 250 -246 340 -149 147 -294 240 -484 310 -134 49 -139 50
-145 35z m445 -338 c0 -5 -4 -10 -10 -10 -5 0 -10 5 -10 10 0 6 5 10 10 10 6
0 10 -4 10 -10z m420 -380 c0 -5 -4 -10 -10 -10 -5 0 -10 5 -10 10 0 6 5 10
10 10 6 0 10 -4 10 -10z"/>
<path d="M86 1039 c-13 -130 -3 -268 31 -414 24 -105 42 -145 61 -138 14 4 15
3 2 -5 -21 -16 -1 -64 33 -80 30 -14 36 -32 11 -32 -20 0 -15 -16 28 -87 42
-69 100 -146 168 -222 l55 -61 135 0 135 1 -30 21 c-64 47 -170 157 -228 237
-133 185 -207 401 -212 626 l-2 110 -78 53 c-44 28 -84 52 -91 52 -6 0 -14
-25 -18 -61z m384 -969 c0 -5 -2 -10 -4 -10 -3 0 -8 5 -11 10 -3 6 -1 10 4 10
6 0 11 -4 11 -10z"/>
<path d="M2370 753 c0 -5 34 -65 76 -133 l76 -124 -34 -70 c-70 -148 -185
-296 -301 -388 l-49 -38 127 0 127 0 45 48 c73 77 162 201 203 283 44 86 96
249 87 271 -8 22 -268 149 -316 155 -23 3 -41 1 -41 -4z"/>
</g>
</svg>
