<?xml version="1.0" standalone="no"?>
<!DOCTYPE svg PUBLIC "-//W3C//DTD SVG 20010904//EN"
 "http://www.w3.org/TR/2001/REC-SVG-20010904/DTD/svg10.dtd">
<svg version="1.0" xmlns="http://www.w3.org/2000/svg"
 width="468pt" height="433pt" viewBox="0 0 468 433"
 preserveAspectRatio="xMidYMid meet">
<metadata>
Created by potrace 1.7, written by Peter Selinger 2001-2005
</metadata>
<g transform="translate(0,433) scale(0.147634,-0.147634)"
fill="#000000" stroke="none">
<path d="M1333 2835 c-473 -77 -869 -360 -1101 -785 -51 -93 -116 -286 -137
-404 -20 -116 -20 -346 0 -462 16 -88 61 -252 74 -266 10 -11 111 75 111 94 0
10 -11 55 -24 100 -77 269 -40 602 100 880 88 176 230 348 381 462 209 157
533 276 753 276 32 0 60 4 62 10 2 6 18 6 43 0 22 -5 61 -10 86 -10 135 0 370
-65 529 -145 365 -184 656 -575 726 -978 23 -131 14 -356 -19 -491 -18 -70
-22 -104 -15 -115 13 -21 97 -85 104 -79 11 11 43 118 60 198 25 117 25 408 1
533 -36 182 -129 393 -245 557 -36 52 -116 145 -177 205 -205 204 -424 326
-720 402 -88 22 -125 26 -305 29 -138 2 -232 -2 -287 -11z"/>
<path d="M1580 2488 c-18 -29 -50 -80 -72 -112 -21 -33 -38 -67 -38 -78 0 -10
-4 -18 -10 -18 -11 0 -86 -114 -187 -285 -39 -66 -110 -182 -158 -258 -48 -76
-85 -140 -83 -143 3 -2 81 0 174 6 228 13 430 13 731 -2 139 -6 255 -9 259 -6
8 9 -2 26 -131 233 -62 99 -156 252 -210 340 -99 164 -235 375 -240 375 -2 0
-18 -24 -35 -52z"/>
<path d="M440 1522 c0 -4 27 -34 61 -67 33 -33 74 -76 89 -96 l29 -36 -91 -99
-91 -99 87 -3 87 -3 43 48 c24 26 64 73 88 103 l45 55 -50 60 c-28 33 -69 79
-91 103 l-40 42 -83 0 c-46 0 -83 -4 -83 -8z"/>
<path d="M2500 1463 c-34 -38 -75 -84 -91 -104 l-28 -36 46 -54 c26 -30 67
-75 92 -101 41 -44 49 -48 91 -48 25 0 62 3 82 6 l37 7 -88 95 -89 96 31 38
c18 22 58 64 90 95 31 31 57 60 57 65 0 4 -38 8 -84 8 l-84 0 -62 -67z m111
-20 c-9 -15 -10 -13 -11 13 0 17 3 34 8 38 11 12 14 -32 3 -51z m15 -280 c-10
-10 -19 5 -10 18 6 11 8 11 12 0 2 -7 1 -15 -2 -18z"/>
<path d="M1058 1403 c-176 -3 -178 -4 -178 -26 -1 -12 -2 -56 -3 -97 l-2 -75
95 1 c52 0 248 4 435 8 274 7 385 5 571 -8 128 -9 253 -16 278 -16 l46 0 0
103 0 102 -287 0 c-159 0 -398 3 -533 6 -135 3 -325 4 -422 2z m522 -51 c0
-13 -12 -22 -22 -16 -10 6 -1 24 13 24 5 0 9 -4 9 -8z"/>
<path d="M1490 1060 c0 -5 11 -49 25 -96 25 -87 43 -258 48 -464 2 -107 5
-105 41 35 15 55 51 191 81 303 30 111 55 209 55 217 0 12 -21 15 -125 15 -75
0 -125 -4 -125 -10z"/>
<path d="M262 862 l-52 -47 47 -83 c188 -332 530 -588 933 -695 111 -29 125
-30 367 -35 278 -4 328 1 517 59 258 79 493 232 676 439 74 85 176 231 199
288 14 32 13 33 -29 70 -46 39 -70 56 -74 50 -1 -1 -17 -32 -35 -68 -99 -192
-285 -382 -504 -515 -419 -254 -981 -260 -1413 -14 -223 127 -412 314 -526
521 -24 43 -45 77 -48 77 -3 0 -29 -21 -58 -47z m228 -262 c0 -5 -4 -10 -10
-10 -5 0 -10 5 -10 10 0 6 5 10 10 10 6 0 10 -4 10 -10z m1342 -542 c-7 -7
-12 -8 -12 -2 0 14 12 26 19 19 2 -3 -1 -11 -7 -17z"/>
</g>
</svg>
