<?xml version="1.0" encoding="UTF-8"?>
<!-- Generator: visioncortex VTracer 0.6.12 -->
<svg version="1.1" xmlns="http://www.w3.org/2000/svg" viewBox="0 0 225 225">
<path d="M0 0 C0.66 0 1.32 0 2 0 C1.988 0.473 1.988 0.473 1.93 2.867 C1.594 22.543 4.209 41.857 11.312 60.312 C12.871 64.37 13.717 67.606 13 72 C11.375 74.438 11.375 74.438 9 76 C5.373 76.617 3.603 76.33 0.375 74.562 C-8.545 64.939 -9.041 49.49 -9 37 C-8.508 24.067 -4.914 11.898 0 0 Z " fill="#000000" transform="translate(75,16)"/>
<path d="M0 0 C0.66 0 1.32 0 2 0 C10.116 22 15.215 45.113 6.078 67.785 C4.352 71.331 2.575 74.213 -1 76 C-5.051 76.259 -6.543 76.304 -10 74 C-11.989 66.971 -9.892 61.725 -7.637 54.972 C-1.737 36.698 0.431 19.138 0 0 Z " fill="#000000" transform="translate(148,16)"/>
<path d="M0 0 C10.805 3.653 20.067 14.955 25.25 24.812 C30 34.833 32.19 44.954 32 56 C29.043 54.699 27.285 53.473 25.336 50.902 C24.859 50.275 24.381 49.647 23.889 49 C23.389 48.319 22.89 47.639 22.375 46.938 C22.113 46.582 22.113 46.582 20.787 44.785 C-1.063 14.657 -1.063 14.657 0 0 Z " fill="#000000" transform="translate(31,37)"/>
<path d="M0 0 C-0.504 5.624 -1.597 10.333 -3.938 15.5 C-4.244 16.184 -4.55 16.869 -4.866 17.574 C-9.926 28.505 -16.58 38.43 -23.938 47.938 C-24.398 48.535 -24.859 49.133 -25.333 49.749 C-27.495 52.459 -28.643 53.881 -32 55 C-32.966 38.905 -27.105 24.222 -17 12 C-6.14 0 -6.14 0 0 0 Z " fill="#000000" transform="translate(194,38)"/>
<path d="M0 0 C7.7 1.081 13.062 6.563 17.875 12.375 C21.573 17.386 24 22.711 24 29 C19.863 27.621 19.029 24.821 17.062 21.188 C13.055 14.091 8.246 8.726 2.309 3.195 C1.547 2.471 0.785 1.746 0 1 C0 0.67 0 0.34 0 0 Z " fill="#000000" transform="translate(41,40)"/>
<path d="M0 0 C0.99 0.33 1.98 0.66 3 1 C2.655 1.316 2.655 1.316 0.91 2.914 C-6.466 9.936 -11.784 17.287 -17 26 C-17.66 26.99 -18.32 27.98 -19 29 C-19.66 29 -20.32 29 -21 29 C-19.874 18.204 -15.034 11.214 -6.688 4.438 C-4.491 2.765 -2.467 1.233 0 0 Z " fill="#000000" transform="translate(181,40)"/>
<path d="M0 0 C2.096 -0.002 4.19 -0.02 6.286 -0.039 C19.337 -0.095 19.337 -0.095 25.667 2.185 C27.121 5.095 26.071 6.73 25.167 9.81 C23.78 15.164 23.14 18.842 24.667 24.185 C27.359 27.353 28.936 28.077 33.042 28.685 C37.537 28.065 39.831 26.574 43.667 24.185 C46.104 23.435 46.104 23.435 47.667 23.185 C47.667 26.961 47.545 29.168 45.03 32.08 C43.62 33.398 42.209 34.714 40.796 36.029 C31.695 45.247 27.857 58.521 27.377 71.148 C26.822 85.267 24.145 97.901 14.401 108.674 C10.422 112.142 5.934 114.091 0.667 114.31 C-7.74 111.158 -13.256 106.154 -17.333 98.185 C-20.438 90.93 -22.323 84.267 -22.623 76.362 C-23.245 60.512 -26.161 45.629 -38.208 34.31 C-38.968 33.613 -39.727 32.916 -40.509 32.197 C-43.211 29.218 -43.417 27.128 -43.333 23.185 C-39.401 23.185 -38.304 24.735 -35.333 27.185 C-31.728 28.387 -29.123 28.512 -25.333 28.185 C-22.458 26.685 -22.458 26.685 -20.333 24.185 C-18.438 17.669 -20.038 12.38 -21.837 5.943 C-22.001 5.033 -22.165 4.123 -22.333 3.185 C-17.306 -1.842 -6.804 -0.001 0 0 Z M-26.333 37.185 C-25.025 43.002 -21.765 47.296 -17.333 51.185 C-16.343 51.185 -15.353 51.185 -14.333 51.185 C-14.737 45.526 -16.537 43.163 -20.333 39.185 C-23.333 37.185 -23.333 37.185 -26.333 37.185 Z M24.104 39.935 C23.505 40.446 22.905 40.956 22.288 41.482 C19.215 44.71 18.667 46.684 18.667 51.185 C23.024 50.459 24.631 48.416 27.339 45.107 C29.065 42.608 29.95 40.124 30.667 37.185 C27.166 37.185 26.654 37.71 24.104 39.935 Z M-7.333 97.185 C-7.663 97.845 -7.993 98.505 -8.333 99.185 C-7.21 100.645 -6.085 102.103 -4.958 103.56 C-4.332 104.372 -3.705 105.185 -3.06 106.021 C-1.333 108.185 -1.333 108.185 0.667 110.185 C3.211 109.964 4.408 109.421 6.3 107.697 C6.792 107.095 7.284 106.493 7.792 105.873 C8.289 105.279 8.787 104.684 9.3 104.072 C10.669 102.183 11.687 100.299 12.667 98.185 C12.007 97.855 11.347 97.525 10.667 97.185 C9.739 97.66 8.81 98.134 7.854 98.623 C4.566 100.235 3.227 100.706 -0.333 100.185 C-2.746 99.307 -5.004 98.281 -7.333 97.185 Z " fill="#000000" transform="translate(110.333251953125,66.814697265625)"/>
<path d="M0 0 C6.62 2.868 9.805 8.95 12.375 15.438 C14.082 20.488 14.347 24.701 14 30 C11.675 29.312 10.305 28.457 8.952 26.432 C7.866 24.396 6.859 22.337 5.875 20.25 C5.528 19.546 5.181 18.842 4.824 18.117 C1.9 12.09 -0.325 6.822 0 0 Z " fill="#000000" transform="translate(69,104)"/>
<path d="M0 0 C0.66 0 1.32 0 2 0 C2 10.451 -2.943 22.136 -10 30 C-10.66 30 -11.32 30 -12 30 C-12.715 19.092 -9.438 11.043 -2.488 2.68 C-1.68 1.767 -0.862 0.862 0 0 Z " fill="#000000" transform="translate(154,104)"/>
</svg>
