<?xml version="1.0" encoding="utf-8"?>

<!DOCTYPE svg PUBLIC "-//W3C//DTD SVG 1.1//EN" "http://www.w3.org/Graphics/SVG/1.1/DTD/svg11.dtd">
<svg version="1.1" id="Layer_1" xmlns="http://www.w3.org/2000/svg" xmlns:xlink="http://www.w3.org/1999/xlink" x="0px" y="0px"
	 viewBox="-17.8511 -33.5592 1659.8511 1966.4678" enable-background="new -17.8511 -33.5592 1659.8511 1966.4678"
	 xml:space="preserve">
<g>
	<path d="M1406.98,10.56c44.63-1.91,89.3301-2.99,134.01-1.78c16.85,0.87,33.84,1.37,50.42,4.81c4.71,1.15,9.75,2.25,13.5399,5.47
		c2.28,1.81,2.12,5.14,0.6901,7.42c-3.23,5.42-8.73,8.91-14.05,12.01c-9.36,5.02-18.97,9.58-28.85,13.48
		c-21.0599,7.55-41.78,15.98-62.79,23.64c-41.6799,15.26-83.6899,29.57-125.37,44.81c-40.48,14.74-80.85,29.98-119.89,48.23
		c-35.12,16.7-69.71,34.95-101.34,57.7c-17.08,12.02-33.35,25.16-48.87,39.11c-5.1699,3.78-8.99,9.07-14.0699,12.96
		c-4.11,3.18-7.54,7.12-11.24,10.75c-3.13,3.19-6.5701,6.11-9.3201,9.65c-4.11,5.53-9.7899,9.64-13.88,15.19
		c-12.36,13.42-23.77,27.69-34.67,42.32c-11.3,16.44-23.03,33.18-28.68,52.56c-2.25,6.85-2.94,14.94,1.41,21.14
		c5.5699,7.17,14.12,11.01,22.1299,14.78c20.2601,8.99,41.17,16.42,61.9901,24c24.65,8.86,49.4199,17.39,74.22,25.86
		c17.02,5.85,34.1901,11.36,50.89,18.1c14.97,6.06,29.54,13.56,41.99,23.97c11.4,9.61,21.13,21.04,30.02,32.98
		c13.36,17.9301,24.98,37.0601,37.4199,55.63c7.7301,11.8,16.1901,23.32,21.5801,36.45c3.25,7.87,4.59,16.87,1.89,25.1
		c-3.35,10.8-10.7001,19.8-18.7001,27.56c-14.24,14.79-31.88,25.57-48.26,37.73c-4.76,3.82-10.2899,7.39-12.73,13.24
		c-2.02,4.85,0.72,9.88,3.17,14.01c5.2999,8.15,12.15,15.12,18.46,22.48c22.6801,25.29,44.61,51.43,62.9,80.14
		c19.85,30.81,39.0699,62.64,65.71,88.23c35.0701,33.6,77.3,58.57,120.37,80.47c-16.4299-6.9-32.47-14.72-48.63-22.24
		c-21.51-10.44-43.1799-20.72-63.4199-33.51c-17.6-10.91-33.92-23.84-48.5-38.53c-25.78-26.2-46.05-57.07-66.6801-87.31
		c-19.09-28.75-39.1699-57.01-62.74-82.28c-3.83-3.81-8.04-7.28-11.26-11.64c-3.8099-5.25-9.5699-8.48-13.89-13.22
		c-4.48-4.8101-9.6-9.04-13.47-14.38c-3.91-4.79-8.3199-9.63-9.71-15.83c-0.9501-5.19,3.5399-9.06,7.37-11.68
		c8.1799-5.31,17.12-9.32,25.3199-14.62c14.39-9.2,28.05-19.83,39.37-32.68c6.35-7.36,12.11-16.6801,10.4401-26.83
		c-1.61-8.62-7.41-15.79-13.6901-21.6c-7.1-7.74-15.8099-13.77-24.63-19.36c-18.38-11.23-39.21-19.46-60.95-20.09
		c-7.6901,0.4-15.6,1.78-22.3,5.77c-8.6,5.52-13.11,15.31-15.13,25.03c-2.71,10.55-2.1499,21.51-2.0499,32.3
		c0.88,13.4,3.61,26.6,4.8099,39.97c0.16,4.79-0.87,10.3799-5.11,13.27c-3.41,2.69-8.26,1.17-11.47-1.1
		c-9.98-7.81-15.47-19.67-20.05-31.16c-7.24-18.32-12.5-37.36-16.73-56.57c-2.89-13.3199-5.02-26.86-5.28-40.5
		c0.5-8.05,1.9401-16.6,7.24-23c5.63-6.81,13.7201-10.91,21.67-14.4c12.4-5.26,25.64-8.29,38.92-10.29
		c6.76-1.15,13.64-1,20.47-1.1201c9.37,0.05,18.75,0,28.12,0.48c-17.13-6.35-34.84-10.96-52.2-16.62
		c-20.42-6.22-40.66-13.02-60.74-20.26c-26-9.4-51.5-20.16-77.6201-29.26c-24.51-9.01-49.85-16.11-75.82-19.36
		c-19.79-2.39-39.68-3.92-59.6-4.52c-8.68-1.36-17.53-0.11-26.18-1.65c-10.16-0.6-20.57-0.97-30.27-4.32
		c2.7-2.8,6.64-3.54,10.14-4.88c15.49-5.29,30.35-12.65,43.43-22.54c20.51-15.47,35.84-36.43,51.23-56.72
		c20.28-27.21,40.3-54.72,63.22-79.8c21.1-22.94,43.9-44.37,68.64-63.34c18.3-13.97,37.62-26.87,58.7001-36.28
		c14.75-6.59,30.76-10.56,46.96-10.64c19.77-0.43,39.22,4.32,58.99,4.05c15.5-0.03,30.65-4.11,45.12-9.38
		c19.12-6.97,37.54-15.67,56.13-23.91c21.23-9.52,42.66-18.66,64.61-26.41c37.83-13.36,76.5701-23.87,115.25-34.45
		c16.89-4.7,33.9-9.14,50.4401-15.03c6.83-2.7,13.73-5.7,19.46-10.4c-6.62-3.94-14.6-3.97-22.05-4.2
		c-11.2799-1.2-22.7-1.06-33.98,0.01c-8.24,0.41-16.52-0.24-24.74,0.58c-4.73,0.72-9.52,0.56-14.28,0.62
		c-5.01-0.04-9.9299,1.15-14.9299,0.98c-6.0601-0.19-12.02,1.21-18.0701,1.04c-38.7,2.74-77.39,5.76-115.98,9.99
		c-42.71,4.55-85.39,9.74-127.6799,17.39c-48.4,8.81-96.5901,20.93-141.4701,41.46c-52.84,24.12-100.15,59.04-142.4399,98.57
		c-5.71,4.6-10.53,10.16-15.78,15.25c-5.56,5.77-11.68,11.03-16.67,17.32c-23.78,25.21-45.59,52.36-64.94,81.15
		c-16.01,24.68-32.08,50.23-38.73,79.26c-2.93,11.23-4.1,23.8-12.08,32.86c-4.43,5.33-11.83,5.95-18.27,6.32
		c-16.51-0.15-32.45-5.53-48.94-5.83c-29.76-0.66-58.57,8.14-87.94,11.46c-4.19,0.32-8.63,0.74-12.57-1.06
		c2.38-4.43,6.85-7.04,10.86-9.81c13.35-8.75,27.31-16.9,38.7-28.24c11.99-11.57,21-25.85,28.3-40.74
		c9.79-20.11,16.85-41.43,22.81-62.95c5.69-21.07,10.51-42.39,13.93-63.95c2.4-15.65,4.4-31.49,3.23-47.34
		c-1.23-7.43-2.84-15.45-8.33-21c-3.21-3.54-7.65-5.65-12.11-7.15c-8.82-2.46-17.85-4.13-26.93-5.31
		c-7.46-0.58-15.27-0.62-22.21,2.54c-6.36,3-10.74,8.98-13.41,15.32c-7.25,16.79-9.63,35.08-13.34,52.85
		c-5.34,27.76-10.95,55.46-16.0699,83.26c-3.2,19.03-8.02,37.73-11.97,56.62c-7.5,34.16-16.47,68.29-31.56,99.98
		c-8.23,15.93-16.32,31.97-26.03,47.06c-16.58,26.21-34.87,51.4-55.38,74.69c-7.19,7.48-14.6,14.75-21.99,22.05
		c-7.7,7.01-16.02,13.32-23.6,20.45c-10.91,8.99-20.04,20.26-26.21,33c-9.44,18.65-14.82,39.66-13.72,60.64
		c0.9,17.71,7.36,34.82,16.86,49.68c9.67,15.27,22.63,27.99,34.29,41.69c8.56,10.03,16.53,21.03,20.26,33.85
		c6.27,20.3199,3.46,41.93-0.27,62.4399c-4.87,24.7401-11.9,49-18.75,73.25c-7.98,27.01-17.35,53.73-29.9,79
		c-8.98,18.4501-18.86,36.4501-28.3,54.67c-8.11,15.96-16.02,32.39-19.02,50.1899c-1.98,11.11-1.33,23.2301,4.28,33.25
		c4.57,8.2301,13.13,13.2001,21.69,16.41c9.46,3.52,19.83,3.38,29.63,1.5601c15.24-2.8301,29.64-8.8601,43.76-15.0701
		c22.11-9.89,43.65-20.98,65.4-31.6c6.8-3.28,13.61-6.55,20.62-9.35c4.28-1.66,8.71-3.42,13.39-3.1901
		c0.72,2.65-1.31,4.8101-2.83,6.7201c-4.1,4.5499-8.58,8.7699-13.3,12.6899c-16.47,14.04-33.95,26.84-51.54,39.4301
		c-15,10.8899-30.54,21.2899-43.89,34.22c-12.74,13.12-19.95,30.2999-25.48,47.45c-1.86,5.41-3.26,10.99-5.65,16.2101
		c-1.05,1.86-2.23,4.4099-4.75,4.33c-4.9-4.09-6.15-10.7001-8.58-16.29c-3.34-9.7-7.67-19-11.56-28.48
		c-5.57-10.17-9.84-21.03-16.12-30.8c-3.61-5.3099-6.75-11.2699-12.24-14.8999c-2.05-1.4301-4.78-0.9801-6.95-0.12
		c-2.99,2.95-4.34,7.09-5.12,11.13c-1.98,8.0299-2.98,16.2699-3.02,24.5399c-1.22,20.74,3.1,41.74,12.63,60.22
		c7.66,15.55,17.92,29.63,28.73,43.1201c12.91,15.95,26.95,30.99,41.9,45.0499c12.77,11.74,26.08,23.11,41.11,31.88
		c13.26,7.8,28.16,12.88,43.53,14.16c24.65,1.87,49.26-2.3,73.23-7.6901c60.74-13.6499,117.68-39.85,177.92-55.26
		c40.98-10.87,83.25-15.26,125.0099-21.9399c24.7401-3.99,49.51-8.62,73.22-16.89c32.25-11.1,61.8-29.1899,87.59-51.39
		c25.77-22.2,48.89-47.33,70.37-73.66c16.9301-20.6899,32.48-42.46,47.3201-64.6799c3.1699-4.34,5.65-9.38,10.11-12.6
		c-0.0601,6.1799-3.02,11.77-5.47,17.2799c-9.05,18.7401-20.9401,35.9401-33.24,52.6801c-21.55,28.84-45.1101,56.13-69.79,82.3
		c-10.38,10.9399-21.39,21.25-31.9401,32.0199c-14.62,12.77-29.27,25.6801-45.5099,36.42c-25.36,17.95-54.14,30.0601-82.42,42.53
		c-16.42,7.66-33.06,16.14-45.6,29.54c-8.67,7.8799-14.44,18.2999-19.31,28.83c-7.52,17.99-9.93,37.72-9.28,57.11
		c0.61,26.01,5.92,51.66,11.82,76.9301c11.11,46.0399,25.6899,91.12,39.61,136.36c12.56,41.1899,25.61,82.5399,31.5,125.3199
		c0.8,5.77,0.83,11.65,0.42,17.47c-1.15-0.0299-2.28-0.13-3.39-0.2999c-2.43-2.8201-4.1-6.16-5.75-9.4401
		c-9.89-19.1599-17.43-39.4099-25.54-59.35c-29.37-72.9399-55.91-147.17-89.69-218.25c-7.95-17.6-17.16-34.59-26.66-51.38
		c-13.76-23.9299-29.27-46.91-47.3101-67.83c-4.3199-4.36-8.89-8.4601-13.06-12.97c-4.61-5.2201-10.48-9.0701-16.33-12.7301
		c-7.46-4.34-16.41-6.62-25-5c-11.01,1.6001-21.66,5.01-32.22,8.42c8.67,13.88,21.47,24.48,32.2,36.7
		c12.43,13.75,24.49,28.63,30.68,46.3601c6.32,18.2999,4.85,38.3099,0.14,56.8099c-4.96,20.59-13.19,40.17-21.22,59.7
		c-5.02,12.0901-10.98,23.7301-16.27,35.7001c-3.5,7.48-7.78,14.5599-11.73,21.8199c-3.59,5.86-6.93,12.28-12.77,16.26
		c-0.73-1.7999-1.6-3.5699-1.21-5.5399c0.96-8.8,3.18-17.41,5.05-26.04c5.71-25.0801,11.35-50.3101,13.21-76.01
		c2.26-26.45-1.59-53.15-9.25-78.49c-5.91-20.64-14.29-40.46-22.94-60.0701c-3.07-6.7799-5.91-13.6599-7.91-20.83
		c-5.16,1.3199-10.33,2.67-15.4,4.3c6.88,16.9199,17.95,31.6699,25.67,48.1799c9.76,20.34,14.71,42.66,17.36,64.97
		c1.61,12.5701,1.25,25.28,1.1201,37.9401c-1.09,21.5599-7.1,42.45-13.1201,63.0699c-10.42,33.26-15.9,67.91-18.3199,102.61
		c-1.52,11.29-0.69,23.02-4.28,33.9501c-2.68-2.16-3.33-5.64-4.11-8.78c-4.83-22.64-4.62-45.89-4.2-68.92
		c2.24-42.22,13.78-83.5299,13.8-125.9299c-0.94-49.1-15.58-96.4301-28.41-143.42c-4.32,0.6-8.58,1.5801-12.82,2.5801
		c4.58,11.5299,7.92,23.49,11.82,35.26c11.19,35.95,19.68,73.72,15.7,111.5499c-1.39,22.99-6.59,45.52-9.6801,68.3101
		c-2.59,17.7899-5.02,35.6899-4.52,53.71c-0.74,22.62,3.67,45.01,9.11,66.87c3.19,13.2,6.74,26.3199,10.46,39.38
		c2.54,9.59,5.53,19.17,5.99,29.16c0.14-1.76,0.12-3.48,0.38-5.17c1.18,1.73-0.37,4.15-0.63,6.09c-2.8-0.3999-4.17-3.45-5.74-5.46
		c-11.32-18.08-20.26-37.53-28.54-57.15c-14.95-37.09-27.72-75.64-31.02-115.72c-1.48-12.27-1.08-24.66-1.17-37
		c-0.23-48.72,11.59-96.47,14.1-145.01c0.19-13.97-1.77-28.28-7.32-41.1799c-6.05-0.1801-12.01,1.2999-18.06,1.0499
		c-22.97,0.6-46.75-3.3099-66.7-15.24c-8.72-4.95-15.97-11.88-22.84-19.08c-14.11-13.13-22.7-31.04-36.93-44.0701
		c-5.12-4.5599-9.18-10.22-14.76-14.26c-5.48-4.21-10.52-8.98-16.25-12.85c-6.29-4.79-10.3-11.67-15.17-17.75
		c-10.21-15.0499-16.38-32.49-20.53-50.09c-5.42-22.41-8.03-45.48-7.68-68.52c-0.62-42.8199,10.54-85.26,29.18-123.62
		c10.49-22.02,22.7-43.15,34.68-64.37c10.63-19.34,22.62-38.79,26.04-60.97c1.99-18.46-1.85-36.82-5.02-54.92
		c-2.45-12.52-4.67-25.1-7.11-37.61c-20.62,0.83-41.26,0.04-61.89-0.01c-21.81-1.13-43.59-2.78-65.29-5.42
		c-46.67-5.48-93.16-12.54-139.34-21.21c-19.19-3.75-38.23-8.42-56.79-14.61c-19.08-6.62-38.13-14.36-54.43-26.52
		c-7.16-5.99-14.33-12.94-16.85-22.23c-2.34-7.75,0.12-16.61,6.14-22.02c7.6-6.98,17.61-10.39,27.17-13.74
		c24.41-7.94,49.47-13.79,73.64-22.49c15.58-5.33,30.3-12.9,44.01-21.98c13.64-9.07,27.89-17.45,43.55-22.51
		c41.86-14.01,86.09-19.15,127.99-33.04c15.94-5.16,31.22-12.42,45.18-21.71c3.06-2.13,6.59-4.01,8.39-7.44
		c16.55-30.82,41.3-55.96,63.81-82.37c25.43-29.18,48.89-60.24,67.93-94c28.82-50.57,45.47-106.84,60.06-162.86
		c4.36-17.32,9-34.66,11.2-52.41c-0.04-7.23,1.42-15.21-2.47-21.73c-3.66-5.69-10.69-7.13-16.96-7.6
		c-23-1.92-46.1899-2.16-68.96-6.26c-6.08-1.2-12.33-3.05-17.03-7.28c-1.81-1.54-3.16-4.32-1.4-6.41c3.27-4.5,8.88-6.27,13.82-8.28
		c16.39-5.83,33.36-9.83,49.92-15.14c21.48-6.65,42-15.92,62.95-24c19.18-7.42,38.89-13.52,59.02-17.74
		c9.79-1.97,19.73-3.72,29.76-3.56c5.4,0.21,11.61,1.35,14.86,6.17c3.76,5.89,3.4901,13.19,4.3701,19.88
		c1.24,39.84-4.05,79.49-9.8,118.84c-2.79,20.08-5.89,40.11-8.49,60.2c-1.95,14.08-3.42,28.33-2.19,42.53
		c0.83,4.11,3.59,10.15,8.7,9.03c3.9-2.58,6.05-6.94,8.17-10.95c5-10.24,8.95-20.95,13.55-31.37c13.17-30.93,29.45-60.61,49.27-87.8
		c22.67-31.17,49.01-59.54,77.19-85.79c29.48-27.11,61.35-51.8,95.95-72.06c43.38-25.55,90.8099-43.73,139.48-56.27
		c47.97-12.39,97.02-20.02,146.2001-25.64C1297.6801,16.55,1352.3199,13.01,1406.98,10.56 M335.32,688.65
		c-22.5,4.41-44.93,9.33-66.88,16c-9.28,2.97-18.6,6.05-27.16,10.77c-8.63,4.86-16.43,11.07-25.23,15.63
		c-8.27,4.41-16.88,8.17-25.64,11.49c-37.7,14.44-76.84,24.69-114.81,38.34c-3.9,1.42-7.89,2.89-10.86,5.91
		c5.89,1.87,12.11,1.65,18.21,1.97c9.73-0.07,19.47-0.07,29.2-0.54c-2.27-0.81-4.82,0.26-6.96-0.9c10.65,1.43,21.28-0.74,31.83-2.08
		c24.9-3.68,48.72-12.01,72.57-19.73c20.92-6.79,42.22-12.36,63.72-16.99c20.19-4.28,40.53-8.08,61.12-9.8
		c12.04-0.73,24.61-0.97,35.97,3.71c3.99,1.55,7.34,4.25,10.75,6.76c-4.73-23.14-6.97-47.51-0.44-70.53
		C366,683.64,350.48,685.52,335.32,688.65z"/>
	<path d="M850.19,712.21c13.72-8.18,29.95-11.26,45.79-10.63c20.93,0.79,41.57,4.88,61.9,9.66c14.39,3.54,28.78,7.2,42.77,12.1
		c5.9,2.27,12.18,4.6299,16.45,9.52c2.83,3.12,3.14,7.83,1.59,11.62c-3.02,7.75-9.51,13.28-15.32,18.94
		c-12.33,10.68-26.4,19.45-41.59,25.46c-12.44,4.91-26.07,7.59-39.4301,5.91c-17.16-1.5-33.22-8.32-48.84-15.12
		c-12.55-5.53-25.61-10.69-39.44-11.55c-14.11-1.29-27.64,3.68-41.35,6.02c-2.29,0.53-4.66,0-6.42-1.56
		c0.5-3.83,3.19-6.85,5.52-9.74c8.47-9.84,18.09-18.6,27.76-27.22C829.3,727.23,839.04,718.68,850.19,712.21z"/>
</g>
</svg>
