<?xml version="1.0" encoding="UTF-8" standalone="no"?>
<!-- Created with Inkscape (http://www.inkscape.org/) -->

<svg
   version="1.1"
   id="svg35313"
   xml:space="preserve"
   width="800"
   height="800"
   viewBox="0 0 800 800"
   sodipodi:docname="goat-color-publicdomainvectors.org.svg"
   inkscape:version="1.1.2 (b8e25be833, 2022-02-05)"
   xmlns:inkscape="http://www.inkscape.org/namespaces/inkscape"
   xmlns:sodipodi="http://sodipodi.sourceforge.net/DTD/sodipodi-0.dtd"
   xmlns="http://www.w3.org/2000/svg"
   xmlns:svg="http://www.w3.org/2000/svg"><defs
     id="defs35317"><clipPath
       clipPathUnits="userSpaceOnUse"
       id="clipPath35327"><path
         d="M 0,600 H 600 V 0 H 0 Z"
         id="path35325" /></clipPath></defs><sodipodi:namedview
     id="namedview35315"
     pagecolor="#ffffff"
     bordercolor="#666666"
     borderopacity="1.0"
     inkscape:pageshadow="2"
     inkscape:pageopacity="0.0"
     inkscape:pagecheckerboard="0"
     showgrid="false"
     inkscape:zoom="1.03875"
     inkscape:cx="400"
     inkscape:cy="400"
     inkscape:window-width="1920"
     inkscape:window-height="1018"
     inkscape:window-x="-8"
     inkscape:window-y="-8"
     inkscape:window-maximized="1"
     inkscape:current-layer="g35319" /><g
     id="g35319"
     inkscape:groupmode="layer"
     inkscape:label="goat-color-publicdomainvectors.org"
     transform="translate(0,800) scale(1.3333333,-1.3333333)"><g
       id="g35321"><g
         id="g35323"
         clip-path="url(#clipPath35327)"><path
           d="m 556.155,167.348 c 0.358,-3.59 0.112,-5.488 -0.446,-6.613 l -0.842,-12.466 c 6.632,-0.691 18.013,1.863 19.004,4.989 1.294,4.053 -0.778,17.511 -4.673,31.426 l -11.155,10.624 z"
           style="fill:#48aede;fill-opacity:1;fill-rule:nonzero;stroke:none"
           id="path35329" /><path
           d="m 569.198,184.684 c -0.506,1.806 -1.042,3.622 -1.605,5.424 -0.574,1.826 -1.153,3.744 -1.73,5.721 l -7.82,-0.521 z"
           style="fill:#50aade;fill-opacity:1;fill-rule:nonzero;stroke:none"
           id="path35331" /><path
           d="m 565.863,195.829 c -1.305,4.473 -2.602,9.261 -3.817,14.053 l -4.003,-14.574 z"
           style="fill:#7cc0e2;fill-opacity:1;fill-rule:nonzero;stroke:none"
           id="path35333" /><path
           d="m 479.342,263.171 c 1.297,-0.553 2.633,-1.131 4.011,-1.733 l 14.908,38.154 c -1.385,6.741 -1.067,16.96 -0.387,36.636 0.521,15.233 1.101,25.158 2.306,32.291 L 449.8,344.281 Z"
           style="fill:#dee2a2;fill-opacity:1;fill-rule:nonzero;stroke:none"
           id="path35335" /><path
           d="m 499.135,254.29 c 31.849,-14.793 40.437,-22.359 48.794,-50.825 l 10.114,-8.157 4.003,14.574 c -2.861,11.286 -5.265,22.579 -6.234,29.746 -2.555,18.882 -4.344,21.492 -17.722,25.914 -0.874,0.287 -1.801,0.637 -2.766,1.034 l -45.3,-8.107 c 2.885,-1.303 5.92,-2.696 9.111,-4.179"
           style="fill:#aae0e0;fill-opacity:1;fill-rule:nonzero;stroke:none"
           id="path35337" /><path
           d="m 490.024,258.469 45.3,8.107 c -8.079,3.328 -18.926,10.23 -25.5,16.362 -6.774,6.33 -10.109,9.572 -11.563,16.654 l -14.908,-38.154 c 2.126,-0.931 4.349,-1.92 6.671,-2.969"
           style="fill:#c7dfad;fill-opacity:1;fill-rule:nonzero;stroke:none"
           id="path35339" /><path
           d="m 550.219,151.604 c -0.492,-1.994 1.565,-3.014 4.648,-3.335 l 0.842,12.466 c -1.441,-2.91 -4.96,-0.661 -5.49,-9.131"
           style="fill:#56b6e2;fill-opacity:1;fill-rule:nonzero;stroke:none"
           id="path35341" /><path
           d="m 552.354,186.7 c 2.27,-9.346 3.406,-15.385 3.801,-19.352 l 1.888,27.96 z"
           style="fill:#56b6e2;fill-opacity:1;fill-rule:nonzero;stroke:none"
           id="path35343" /><path
           d="m 549.734,197 c 0.559,-2.091 1.122,-4.277 1.701,-6.576 0.325,-1.298 0.631,-2.536 0.919,-3.724 l 5.689,8.608 z"
           style="fill:#80d0ec;fill-opacity:1;fill-rule:nonzero;stroke:none"
           id="path35345" /><path
           d="m 447.15,206.975 c 0,-1.803 -0.434,-4.137 -1.221,-6.855 l 9.679,-19.771 c 1.432,2.969 2.935,5.997 4.482,9.016 l 11.999,23.448 -30.63,6.238 c 3.552,-5.609 5.691,-9.995 5.691,-12.076"
           style="fill:#80d0ec;fill-opacity:1;fill-rule:nonzero;stroke:none"
           id="path35347" /><path
           d="m 512.345,406.946 c -7.415,7.303 -8.147,7.257 -14.234,-0.945 -0.932,-1.26 -1.818,-2.642 -2.619,-4.053 l 18.159,-9.522 c 5.866,6.724 4.983,8.316 -1.306,14.52"
           style="fill:#df955f;fill-opacity:1;fill-rule:nonzero;stroke:none"
           id="path35349" /><path
           d="m 547.929,203.465 c 0.6,-2.044 1.2,-4.196 1.805,-6.465 l 8.309,-1.692 z"
           style="fill:#abe3ef;fill-opacity:1;fill-rule:nonzero;stroke:none"
           id="path35351" /><path
           d="m 441.459,219.051 30.63,-6.238 4.947,9.667 -14.52,19.024 -23.37,-18.925 c 0.825,-1.219 1.598,-2.398 2.313,-3.528"
           style="fill:#abe3ef;fill-opacity:1;fill-rule:nonzero;stroke:none"
           id="path35353" /><path
           d="m 500.18,368.519 c 1.609,9.517 4.336,14.065 9.531,19.602 1.549,1.65 2.859,3.065 3.94,4.305 l -18.159,9.522 c -2.225,-3.92 -3.784,-8.062 -3.784,-10.428 0,-9.07 -10.194,-6.91 -26.982,5.693 -7.005,5.267 -16.41,11.114 -22.906,14.352 l 7.98,-67.284 z"
           style="fill:#e8b472;fill-opacity:1;fill-rule:nonzero;stroke:none"
           id="path35355" /><path
           d="m 407.674,280.396 38.774,-12.292 c -0.665,6.87 9.61,4.997 32.894,-4.933 l -29.542,81.11 z"
           style="fill:#e6f0b6;fill-opacity:1;fill-rule:nonzero;stroke:none"
           id="path35357" /><path
           d="m 412.089,142.208 c -7.539,-9.311 11.002,-5.768 13.858,-5.289 1.199,3.285 5.414,5.385 9.411,4.671 4.524,-0.811 7.426,1.755 7.562,6.683 0.094,3.661 5.488,17.139 12.688,32.076 l -9.679,19.771 c -4.487,-15.5 -20.513,-43.57 -33.84,-57.912"
           style="fill:#8fd5ed;fill-opacity:1;fill-rule:nonzero;stroke:none"
           id="path35359" /><path
           d="m 425.947,136.919 c -0.009,-0.026 -0.02,-0.052 -0.029,-0.078 0.544,0.152 0.494,0.156 0.029,0.078"
           style="fill:#8fd5ed;fill-opacity:1;fill-rule:nonzero;stroke:none"
           id="path35361" /><path
           d="m 449.8,344.281 -7.98,67.284 c -1.33,0.664 -2.541,1.22 -3.582,1.637 -1.952,0.781 -4.279,1.446 -6.917,1.997 L 403.769,360.74 Z"
           style="fill:#f3bb73;fill-opacity:1;fill-rule:nonzero;stroke:none"
           id="path35363" /><path
           d="m 427.747,237.888 c 4.333,-5.368 8.243,-10.636 11.399,-15.309 l 23.37,18.925 -0.423,0.555 c -9.769,12.8 -15.196,21.412 -15.645,26.045 l -38.774,12.292 z"
           style="fill:#d5f3d7;fill-opacity:1;fill-rule:nonzero;stroke:none"
           id="path35365" /><path
           d="m 431.321,415.199 c -9.179,1.917 -22.165,2.452 -36.547,1.689 l 8.995,-56.148 z"
           style="fill:#f7a559;fill-opacity:1;fill-rule:nonzero;stroke:none"
           id="path35367" /><path
           d="m 449.8,344.281 -46.031,16.459 3.905,-80.344 z"
           style="fill:#f2e69e;fill-opacity:1;fill-rule:nonzero;stroke:none"
           id="path35369" /><path
           d="m 381.852,271.928 c 14.866,1.481 21.351,-5.41 40.206,-27.225 1.955,-2.265 3.86,-4.549 5.689,-6.815 l -20.073,42.508 z"
           style="fill:#e8f8c4;fill-opacity:1;fill-rule:nonzero;stroke:none"
           id="path35371" /><path
           d="m 291.898,380.827 28.231,-121.624 c 2.592,0.344 5.18,0.709 7.721,1.088 l 75.919,100.449 z"
           style="fill:#ffe157;fill-opacity:1;fill-rule:nonzero;stroke:none"
           id="path35373" /><path
           d="M 403.769,360.74 327.85,260.291 c 11.439,1.705 21.938,3.696 27.698,5.363 11.58,3.345 19.754,5.621 26.304,6.274 l 25.822,8.468 z"
           style="fill:#f9f393;fill-opacity:1;fill-rule:nonzero;stroke:none"
           id="path35375" /><path
           d="m 403.769,360.74 -8.995,56.148 c -1.53,-0.082 -3.075,-0.178 -4.634,-0.288 l -98.242,-35.773 z"
           style="fill:#fdb53f;fill-opacity:1;fill-rule:nonzero;stroke:none"
           id="path35377" /><path
           d="m 390.14,416.6 c -14.434,-1.024 -29.972,-3.296 -44.314,-6.74 -12.262,-2.951 -32.805,-5.79 -51.624,-7.329 l -2.304,-21.704 z"
           style="fill:#ff9b13;fill-opacity:1;fill-rule:nonzero;stroke:none"
           id="path35379" /><path
           d="m 227.455,278.722 76.132,-21.399 1,0.095 c 4.966,0.471 10.264,1.085 15.542,1.785 l -28.231,121.624 z"
           style="fill:#ffdd4d;fill-opacity:1;fill-rule:nonzero;stroke:none"
           id="path35381" /><path
           d="m 212.588,221.266 c 10.846,7.404 20.481,12.95 23.98,12.95 2.554,0 5.818,-13.525 7.236,-30.066 0.831,-9.623 2.02,-20.895 3.189,-30.538 l 16.612,-0.577 c 0.214,13.3 1.158,28.47 2.703,41.141 l 1.665,13.733 -40.518,50.813 z"
           style="fill:#f0e096;fill-opacity:1;fill-rule:nonzero;stroke:none"
           id="path35383" /><path
           d="m 267.973,227.909 3.195,26.359 32.419,3.055 -76.132,21.399 z"
           style="fill:#f6ee98;fill-opacity:1;fill-rule:nonzero;stroke:none"
           id="path35385" /><path
           d="m 249.34,156.565 c 0.898,-5.326 0.901,-9.764 0.408,-13.733 l 15.795,-10.425 c -0.022,4.217 -0.417,9.448 -1.159,15.934 -0.695,6.021 -0.937,14.846 -0.779,24.694 l -16.612,0.577 c 0.84,-6.93 1.669,-13.018 2.347,-17.047"
           style="fill:#d3dfa7;fill-opacity:1;fill-rule:nonzero;stroke:none"
           id="path35387" /><path
           d="m 291.898,380.827 -116.333,-29.572 51.89,-72.533 z"
           style="fill:#feba1a;fill-opacity:1;fill-rule:nonzero;stroke:none"
           id="path35389" /><path
           d="m 242.521,107.429 c 5.243,-7.225 19.77,-5.2 16.991,0.348 -1.423,1.146 -2.068,2.737 -1.744,4.527 l -15.16,0.571 c -0.121,-1.712 -0.157,-3.52 -0.087,-5.446"
           style="fill:#c2ba94;fill-opacity:1;fill-rule:nonzero;stroke:none"
           id="path35391" /><path
           d="m 188.488,102.973 c 5.116,-3.167 7.709,3.205 7.464,11.658 l -15.468,0.583 c 3.3,-6.542 6.153,-11.1 8.004,-12.241"
           style="fill:#c2ba94;fill-opacity:1;fill-rule:nonzero;stroke:none"
           id="path35393" /><path
           d="m 180.484,115.214 15.468,-0.583 c -0.194,6.684 -2.163,14.67 -6.068,20.274 -0.715,1.026 -1.429,2.116 -2.139,3.255 l -7.699,-22.072 c 0.146,-0.295 0.293,-0.587 0.438,-0.874"
           style="fill:#d3c993;fill-opacity:1;fill-rule:nonzero;stroke:none"
           id="path35395" /><path
           d="m 242.608,112.875 15.16,-0.571 c 0.309,1.708 1.5,3.596 3.746,5.454 2.784,2.312 4.073,6.66 4.029,14.649 l -15.795,10.425 c -1.333,-10.707 -6.295,-17.982 -7.14,-29.957"
           style="fill:#d3c993;fill-opacity:1;fill-rule:nonzero;stroke:none"
           id="path35397" /><path
           d="m 294.202,402.531 c -6.584,-0.539 -12.957,-0.918 -18.69,-1.088 -3.382,-0.099 -6.936,-0.273 -10.58,-0.511 l 26.966,-20.105 z"
           style="fill:#ff8500;fill-opacity:1;fill-rule:nonzero;stroke:none"
           id="path35399" /><path
           d="m 291.898,380.827 -26.966,20.105 c -20.198,-1.32 -43.174,-4.599 -54.974,-8.039 -6.972,-2.024 -12.456,-3.442 -17.971,-4.273 l -16.422,-37.365 z"
           style="fill:#fe9400;fill-opacity:1;fill-rule:nonzero;stroke:none"
           id="path35401" /><path
           d="m 120.212,509.599 c -3.808,4.335 -8.586,7.603 -13.899,9.751 l 15.496,-11.577 c -0.494,0.566 -1.024,1.171 -1.597,1.826"
           style="fill:#f04f00;fill-opacity:1;fill-rule:nonzero;stroke:none"
           id="path35403" /><path
           d="m 119.705,503.567 c 8.157,-3.246 8.729,-3.388 2.104,4.206 l -15.496,11.577 c -3.233,1.305 -6.663,2.197 -10.192,2.659 l 0.17,-13.413 c 6.604,0.584 13.648,-1.128 23.414,-5.029"
           style="fill:#f64e00;fill-opacity:1;fill-rule:nonzero;stroke:none"
           id="path35405" /><path
           d="m 159.484,279.094 c 1.142,-1.788 2.004,-3.402 2.517,-4.776 3.196,-8.574 9.52,-18.216 14.065,-21.413 11.512,-8.138 10.398,-14.41 -6.601,-34.409 l 14.025,-19.449 c 8.183,7.072 19.149,15.427 29.098,22.219 l 14.867,57.456 z"
           style="fill:#fbb94f;fill-opacity:1;fill-rule:nonzero;stroke:none"
           id="path35407" /><path
           d="m 175.565,351.255 -34.859,-50.243 c 7.866,-7.824 14.929,-15.883 18.778,-21.918 l 67.971,-0.372 z"
           style="fill:#ffab15;fill-opacity:1;fill-rule:nonzero;stroke:none"
           id="path35409" /><path
           d="m 191.987,388.62 c -12.028,-1.812 -24.204,-0.827 -52.242,2.79 l 35.82,-40.155 z"
           style="fill:#fd7700;fill-opacity:1;fill-rule:nonzero;stroke:none"
           id="path35411" /><path
           d="m 168.707,217.608 c -8.573,-10.014 -15.595,-20.523 -15.595,-23.359 0,-3.441 1.279,-9.435 3.363,-16.764 l 15.523,-0.796 c -0.683,3.205 -1.062,6.072 -1.062,8.401 0,2.18 5.131,7.541 12.554,13.957 l -14.025,19.449 c -0.25,-0.294 -0.501,-0.589 -0.758,-0.888"
           style="fill:#f59959;fill-opacity:1;fill-rule:nonzero;stroke:none"
           id="path35413" /><path
           d="m 180.046,116.088 7.699,22.072 c -6.87,11.044 -13.284,26.983 -15.747,38.529 l -15.523,0.796 c 5.248,-18.457 15.61,-45.388 23.571,-61.397"
           style="fill:#e0a468;fill-opacity:1;fill-rule:nonzero;stroke:none"
           id="path35415" /><path
           d="m 94.941,342.886 7.715,-15.99 c 0.979,0.567 1.763,0.88 2.275,0.88 5.659,0 21.953,-13.015 35.775,-26.764 l 34.859,50.243 z"
           style="fill:#ff8800;fill-opacity:1;fill-rule:nonzero;stroke:none"
           id="path35417" /><path
           d="m 175.565,351.255 -35.82,40.155 c -1.641,0.212 -3.332,0.432 -5.086,0.661 -14.77,1.93 -28.568,3.381 -38.481,4.118 l -1.237,-53.303 z"
           style="fill:#fd7400;fill-opacity:1;fill-rule:nonzero;stroke:none"
           id="path35419" /><path
           d="m 43.438,351.384 51.503,-8.498 1.237,53.303 c -8.523,0.634 -14.175,0.741 -15.101,0.169 -1.266,-0.783 -5.198,0.667 -10.09,3.497 L 43.081,357.996 c 0.18,-2.043 0.299,-4.259 0.357,-6.612"
           style="fill:#fa6200;fill-opacity:1;fill-rule:nonzero;stroke:none"
           id="path35421" /><path
           d="m 51.564,464.652 c 0.614,1.712 1.274,3.405 1.979,5.069 l -3.238,-4.365 z"
           style="fill:#f03600;fill-opacity:1;fill-rule:nonzero;stroke:none"
           id="path35423" /><path
           d="m 78.241,501.587 c 6.721,4.182 12.213,6.492 18.05,7.009 l -0.17,13.413 c -1.171,0.153 -2.351,0.26 -3.54,0.318 L 76.16,500.198 c 0.688,0.489 1.381,0.954 2.081,1.389"
           style="fill:#f03600;fill-opacity:1;fill-rule:nonzero;stroke:none"
           id="path35425" /><path
           d="m 38.052,297.768 c 0.029,-4.296 1.357,-6.3 4.32,-7.777 l 9.892,-1.272 c 2.817,0.413 5.638,1.344 7.828,2.714 6.047,3.77 8.36,3.397 12.511,-5.331 l 17.874,-2.3 c 0.261,6.437 -1.435,12.712 -5.012,16.295 -4.085,4.084 -2.892,7.842 5.221,16.484 4.338,4.625 9.032,8.611 11.97,10.315 l -7.715,15.99 z"
           style="fill:#ff7200;fill-opacity:1;fill-rule:nonzero;stroke:none"
           id="path35427" /><path
           d="m 44.001,289.283 c 2.229,-0.855 5.244,-1.008 8.263,-0.564 l -9.892,1.272 c 0.497,-0.248 1.039,-0.481 1.629,-0.708"
           style="fill:#fc741c;fill-opacity:1;fill-rule:nonzero;stroke:none"
           id="path35429" /><path
           d="m 75.305,279.955 c 5.479,-13.131 7.831,-15.234 11.128,-10.025 2.509,3.974 3.843,8.97 4.044,13.872 l -17.874,2.3 c 0.815,-1.716 1.702,-3.753 2.702,-6.147"
           style="fill:#fc741c;fill-opacity:1;fill-rule:nonzero;stroke:none"
           id="path35431" /><path
           d="m 43.438,351.384 c 0.29,-11.574 -0.883,-26.45 -3.578,-40.238 -1.185,-6.064 -1.829,-10.307 -1.808,-13.378 l 56.889,45.118 z"
           style="fill:#fa6800;fill-opacity:1;fill-rule:nonzero;stroke:none"
           id="path35433" /><path
           d="m 53.543,469.721 c 5.423,12.795 13.459,23.969 22.617,30.477 l 16.421,22.129 c -8.302,0.409 -16.968,-1.5 -24.782,-5.888 -11.918,-6.687 -22.207,-15.775 -27.181,-23.418 l 9.687,-27.665 z"
           style="fill:#e42300;fill-opacity:1;fill-rule:nonzero;stroke:none"
           id="path35435" /><path
           d="m 49.649,458.702 c 0.573,2.004 1.213,3.99 1.915,5.95 l -1.259,0.704 z"
           style="fill:#f64d00;fill-opacity:1;fill-rule:nonzero;stroke:none"
           id="path35437" /><path
           d="m 43.081,357.996 27.906,41.859 c -2.844,1.646 -6.013,3.756 -9.174,6.168 -10.682,8.146 -14.231,12.471 -15.202,21.842 l -5.793,-58.797 c 1.084,-2.404 1.841,-6.255 2.263,-11.072"
           style="fill:#f64d00;fill-opacity:1;fill-rule:nonzero;stroke:none"
           id="path35439" /><path
           d="m 40.618,493.021 c -1.981,-3.042 -3.12,-5.857 -3.182,-8.2 -0.08,-3.06 -1.964,-5.569 -4.186,-5.569 -0.575,0 -1.228,-0.843 -1.917,-2.318 l 18.972,-11.578 z"
           style="fill:#db1300;fill-opacity:1;fill-rule:nonzero;stroke:none"
           id="path35441" /><path
           d="m 31.333,476.934 c -1.634,-3.498 -3.479,-10.57 -5.024,-18.511 l 23.996,6.933 z"
           style="fill:#dd1c00;fill-opacity:1;fill-rule:nonzero;stroke:none"
           id="path35443" /><path
           d="m 25.66,405.742 c 2.127,-16.822 7.387,-30.279 13.407,-34.285 0.657,-0.438 1.24,-1.255 1.751,-2.389 l 5.793,58.797 c -0.252,2.436 -0.331,5.21 -0.314,8.483 0.039,7.345 1.24,14.965 3.352,22.354 l 0.656,6.654 -23.996,-6.933 c -2.338,-12.021 -3.987,-26.027 -3.169,-32.63 0.456,-3.679 1.592,-12.703 2.52,-20.051"
           style="fill:#ed4100;fill-opacity:1;fill-rule:nonzero;stroke:none"
           id="path35445" /></g></g></g></svg>
