<?xml version="1.0" standalone="no"?>
<!DOCTYPE svg PUBLIC "-//W3C//DTD SVG 20010904//EN"
 "http://www.w3.org/TR/2001/REC-SVG-20010904/DTD/svg10.dtd">
<svg version="1.0" xmlns="http://www.w3.org/2000/svg"
 width="468pt" height="418pt" viewBox="0 0 468 418"
 preserveAspectRatio="xMidYMid meet">
<metadata>
Created by potrace 1.7, written by Peter Selinger 2001-2005
</metadata>
<g transform="translate(0,418) scale(0.147634,-0.147634)"
fill="#000000" stroke="none">
<path d="M1380 2740 c-274 -38 -504 -125 -709 -268 -268 -186 -482 -476 -559
-757 -25 -91 -27 -115 -27 -275 0 -136 4 -193 19 -255 75 -324 247 -590 511
-791 109 -83 322 -190 475 -238 247 -79 545 -95 821 -45 447 80 852 370 1038
743 105 210 146 395 138 621 -7 180 -36 298 -112 452 -204 410 -589 698 -1063
794 -112 23 -425 34 -532 19z m519 -145 c462 -95 835 -398 987 -801 44 -117
86 -330 63 -322 -4 2 -57 58 -118 125 -329 362 -716 567 -1141 603 -206 18
-399 -11 -625 -95 -259 -96 -545 -300 -768 -549 l-80 -89 6 80 c7 89 52 244
99 338 125 250 341 461 608 595 119 60 338 121 520 144 89 11 328 -4 449 -29z
m-39 -580 c186 -36 391 -118 536 -215 117 -79 253 -190 323 -265 l61 -66 -19
-28 c-55 -77 -223 -212 -385 -310 -390 -235 -837 -290 -1246 -155 -119 40
-305 134 -435 221 -119 80 -305 243 -305 268 0 15 120 130 219 209 244 195
557 329 836 360 78 8 331 -3 415 -19z m1081 -748 c-11 -83 -55 -224 -96 -312
-75 -157 -263 -370 -417 -473 -255 -170 -510 -246 -823 -245 -266 1 -479 53
-714 173 -374 192 -624 539 -672 932 -6 49 -8 92 -5 95 3 3 58 -44 123 -105
141 -133 223 -197 363 -286 414 -263 856 -348 1245 -240 187 52 392 148 568
266 100 68 259 202 362 307 l70 72 3 -53 c2 -29 -1 -88 -7 -131z m-2701 -337
c0 -5 -4 -10 -10 -10 -5 0 -10 5 -10 10 0 6 5 10 10 10 6 0 10 -4 10 -10z
m2390 -389 c0 -5 -7 -14 -15 -21 -12 -10 -15 -10 -15 2 0 8 3 18 7 21 9 10 23
9 23 -2z m-1910 -111 c0 -11 -4 -20 -10 -20 -5 0 -10 9 -10 20 0 11 5 20 10
20 6 0 10 -9 10 -20z m120 -70 c0 -5 -4 -10 -10 -10 -5 0 -10 5 -10 10 0 6 5
10 10 10 6 0 10 -4 10 -10z"/>
<path d="M1489 1855 c-64 -21 -141 -92 -169 -157 -45 -104 -20 -235 58 -311
143 -138 370 -105 460 67 23 44 27 63 27 136 0 68 -5 93 -22 125 -25 48 -85
106 -132 130 -46 23 -164 29 -222 10z"/>
<path d="M883 1764 c-10 -28 9 -45 97 -85 125 -56 128 -34 7 57 -62 46 -94 55
-104 28z"/>
<path d="M2219 1763 c-14 -10 -50 -39 -79 -65 -65 -59 -47 -63 67 -15 72 31
78 36 78 63 0 36 -28 43 -66 17z"/>
<path d="M657 1522 c-36 -39 -6 -92 51 -92 60 0 335 39 345 49 9 9 -48 21
-226 46 -137 19 -150 19 -170 -3z"/>
<path d="M2325 1524 c-44 -8 -111 -19 -148 -25 -38 -6 -65 -15 -60 -19 9 -9
290 -50 339 -50 55 0 84 59 46 93 -22 20 -66 20 -177 1z"/>
<path d="M1010 1294 c-77 -24 -125 -56 -128 -87 -3 -22 1 -27 18 -27 29 0 56
15 118 68 73 62 71 71 -8 46z"/>
<path d="M2148 1259 c60 -56 107 -83 128 -75 23 9 16 43 -13 64 -30 20 -135
62 -156 62 -7 -1 12 -23 41 -51z"/>
</g>
</svg>
