<?xml version="1.0" standalone="no"?>
<!DOCTYPE svg PUBLIC "-//W3C//DTD SVG 20010904//EN"
 "http://www.w3.org/TR/2001/REC-SVG-20010904/DTD/svg10.dtd">
<svg version="1.0" xmlns="http://www.w3.org/2000/svg"
 width="468pt" height="468pt" viewBox="0 0 468 468"
 preserveAspectRatio="xMidYMid meet">
<metadata>
Created by potrace 1.7, written by Peter Selinger 2001-2005
</metadata>
<g transform="translate(0,468) scale(0.130362,-0.130362)"
fill="#000000" stroke="none">
<path d="M1539 3030 c-254 -55 -462 -165 -644 -341 -253 -245 -385 -557 -385
-911 0 -516 351 -1000 853 -1177 271 -95 601 -97 859 -5 195 70 363 180 506
328 232 241 352 533 352 853 0 269 -66 493 -206 705 -64 96 -249 282 -344 345
-157 105 -337 178 -508 208 -122 22 -373 19 -483 -5z m472 -126 c221 -35 446
-152 613 -319 167 -165 274 -374 316 -615 19 -107 14 -291 -10 -405 -53 -243
-155 -423 -338 -596 -395 -373 -1007 -418 -1463 -108 -248 168 -438 469 -480
758 -16 114 -6 353 20 451 103 398 440 724 850 822 158 37 314 41 492 12z"/>
<path d="M1710 1790 l0 -1040 80 0 80 0 0 1040 0 1040 -80 0 -80 0 0 -1040z"/>
<path d="M948 2313 c-43 -46 -79 -109 -104 -183 -26 -75 -26 -260 0 -345 69
-230 216 -404 433 -514 73 -37 207 -77 280 -83 l52 -5 6 71 c3 39 5 123 3 186
l-3 114 -60 13 c-282 58 -488 237 -560 486 -17 59 -17 183 0 265 9 42 -3 41
-47 -5z"/>
<path d="M2595 2323 c3 -16 9 -71 12 -124 4 -74 1 -110 -12 -155 -50 -172
-174 -317 -345 -404 -50 -25 -182 -70 -253 -85 l-27 -5 2 -183 3 -182 50 4
c130 9 325 86 442 175 162 123 265 301 293 509 24 173 -17 327 -117 438 -42
46 -58 50 -48 12z"/>
</g>
</svg>
