<?xml version="1.0" standalone="no"?>
<!DOCTYPE svg PUBLIC "-//W3C//DTD SVG 20010904//EN"
 "http://www.w3.org/TR/2001/REC-SVG-20010904/DTD/svg10.dtd">
<svg version="1.0" xmlns="http://www.w3.org/2000/svg"
 width="468pt" height="391pt" viewBox="0 0 468 391"
 preserveAspectRatio="xMidYMid meet">
<metadata>
Created by potrace 1.7, written by Peter Selinger 2001-2005
</metadata>
<g transform="translate(0,391) scale(0.171429,-0.171429)"
fill="#000000" stroke="none">
<path d="M1155 2184 c-469 -79 -863 -409 -1004 -841 -52 -159 -65 -244 -66
-413 0 -114 5 -175 18 -230 58 -246 174 -461 345 -638 l60 -62 98 0 99 1 -30
22 c-245 182 -406 442 -456 738 -58 338 37 661 274 928 381 429 1038 514 1520
197 285 -188 466 -481 507 -822 30 -244 -35 -519 -173 -732 -63 -98 -172 -218
-251 -277 l-67 -50 98 -3 98 -3 73 78 c117 124 222 290 279 442 137 366 74
828 -158 1142 -206 279 -506 466 -843 524 -108 18 -311 18 -421 -1z m-928
-910 c-3 -3 -12 -4 -19 -1 -8 3 -5 6 6 6 11 1 17 -2 13 -5z"/>
<path d="M1289 1878 c0 -57 -1 -501 -1 -988 l0 -885 76 -3 76 -3 0 991 0 990
-75 0 -75 0 -1 -102z"/>
<path d="M521 1461 c-66 -66 -107 -161 -120 -276 -25 -227 72 -470 253 -632
60 -53 163 -117 241 -150 69 -29 201 -63 247 -63 l38 0 0 180 0 180 -27 5
c-86 18 -231 70 -285 103 -35 20 -98 71 -140 114 -91 92 -150 200 -176 328
-15 75 -15 85 0 162 10 45 16 84 14 86 -3 2 -23 -15 -45 -37z"/>
<path d="M2163 1479 c33 -121 29 -230 -13 -342 -43 -116 -139 -230 -258 -308
-80 -53 -123 -71 -257 -109 l-90 -26 -3 -179 -2 -178 63 7 c99 10 174 32 282
85 227 109 368 279 426 510 28 110 23 287 -9 369 -28 72 -78 148 -115 174
l-30 22 6 -25z"/>
</g>
</svg>
