0
SECTION
2
HEADER
9
$INSUNITS
70
1
9
$ACADVER
1
AC1014
9
$HANDSEED
5
FFFF
0
ENDSEC
0
SECTION
2
TABLES
0
TABLE
2
VPORT
5
8
100
AcDbSymbolTable
0
ENDTAB
0
TABLE
2
LTYPE
5
5
100
AcDbSymbolTable
0
LTYPE
5
14
100
AcDbSymbolTableRecord
100
AcDbLinetypeTableRecord
2
BYBLOCK
70
0
0
LTYPE
5
15
100
AcDbSymbolTableRecord
100
AcDbLinetypeTableRecord
2
BYLAYER
70
0
0
LTYPE
5
16
100
AcDbSymbolTableRecord
100
AcDbLinetypeTableRecord
2
DASHED
70
0
3
Dashed __ __ __ __ __ __ __ __ __ __ __ __ __ _
72
65
73
2
40
0.75
49
0.5
74
0
49
-0.25
74
0
0
ENDTAB
0
TABLE
2
LAYER
5
2
100
AcDbSymbolTable
70
3
0
LAYER
5
50
100
AcDbSymbolTableRecord
100
AcDbLayerTableRecord
2
1
70
0
62
7
6
DASHED
0
LAYER
5
51
100
AcDbSymbolTableRecord
100
AcDbLayerTableRecord
2
0
70
0
62
7
6
CONTINUOUS
0
ENDTAB
0
TABLE
2
STYLE
5
3
100
AcDbSymbolTable
70
1
0
STYLE
5
11
100
AcDbSymbolTableRecord
100
AcDbTextStyleTableRecord
2
STANDARD
70
0
0
ENDTAB
0
TABLE
2
VIEW
5
6
100
AcDbSymbolTable
70
0
0
ENDTAB
0
TABLE
2
UCS
5
7
100
AcDbSymbolTable
70
0
0
ENDTAB
0
TABLE
2
APPID
5
9
100
AcDbSymbolTable
70
2
0
APPID
5
12
100
AcDbSymbolTableRecord
100
AcDbRegAppTableRecord
2
ACAD
70
0
0
ENDTAB
0
TABLE
2
DIMSTYLE
5
A
100
AcDbSymbolTable
70
1
0
ENDTAB
0
TABLE
2
BLOCK_RECORD
5
1
100
AcDbSymbolTable
70
1
0
BLOCK_RECORD
5
1F
100
AcDbSymbolTableRecord
100
AcDbBlockTableRecord
2
*MODEL_SPACE
0
BLOCK_RECORD
5
1B
100
AcDbSymbolTableRecord
100
AcDbBlockTableRecord
2
*PAPER_SPACE
0
ENDTAB
0
ENDSEC
0
SECTION
2
BLOCKS
0
BLOCK
5
20
100
AcDbEntity
100
AcDbBlockBegin
2
*MODEL_SPACE
0
ENDBLK
5
21
100
AcDbEntity
100
AcDbBlockEnd
0
BLOCK
5
1C
100
AcDbEntity
100
AcDbBlockBegin
2
*PAPER_SPACE
0
ENDBLK
5
1D
100
AcDbEntity
100
AcDbBlockEnd
0
ENDSEC
0
SECTION
2
ENTITIES
0
SPLINE
5
100
100
AcDbEntity
8
0
100
AcDbSpline
70
6
71
5
72
51
73
45
74
0
42
0.000000001
43
0.0000000001
44
0.0000000001
40
-1
40
-1
40
-1
40
-1
40
-1
40
-1
40
-0.97500000000000053
40
-0.95000000000000051
40
-0.92500000000000049
40
-0.90000000000000047
40
-0.87500000000000044
40
-0.85000000000000042
40
-0.8250000000000004
40
-0.80000000000000038
40
-0.77500000000000036
40
-0.75000000000000033
40
-0.72500000000000031
40
-0.70000000000000029
40
-0.67500000000000027
40
-0.65000000000000024
40
-0.62500000000000022
40
-0.6000000000000002
40
-0.57500000000000018
40
-0.55000000000000016
40
-0.52500000000000013
40
-0.50000000000000011
40
-0.47500000000000014
40
-0.45000000000000012
40
-0.4250000000000001
40
-0.40000000000000008
40
-0.37500000000000006
40
-0.35000000000000003
40
-0.32500000000000001
40
-0.29999999999999999
40
-0.27499999999999997
40
-0.24999999999999997
40
-0.22499999999999998
40
-0.19999999999999998
40
-0.17499999999999999
40
-0.14999999999999999
40
-0.125
40
-0.10000000000000001
40
-0.075000000000000011
40
-0.050000000000000003
40
-0.025000000000000001
40
0
40
0
40
0
40
0
40
0
40
0
41
1
41
1
41
1
41
1
41
1
41
1
41
1
41
1
41
1
41
1
41
1
41
1
41
1
41
1
41
1
41
1
41
1
41
1
41
1
41
1
41
1
41
1
41
1
41
1
41
1
41
1
41
1
41
1
41
1
41
1
41
1
41
1
41
1
41
1
41
1
41
1
41
1
41
1
41
1
41
1
41
1
41
1
41
1
41
1
41
1
10
-8.1000002585058137
20
9.5000002712715315
30
0
10
-8.0678579634899066
20
9.5097965590084286
30
0
10
-7.9992272308985912
20
9.5294713127329054
30
0
10
-7.8890121915213838
20
9.555090620336907
30
0
10
-7.7598762634867207
20
9.5613314953767539
30
0
10
-7.6450525762369077
20
9.5170957965275935
30
0
10
-7.5821871320290306
20
9.4267061410964192
30
0
10
-7.5573220159632974
20
9.3095579034401652
30
0
10
-7.5544779037158971
20
9.1859805468317823
30
0
10
-7.5630774169623676
20
9.0702019776871428
30
0
10
-7.5790522881329103
20
8.9699575567553111
30
0
10
-7.6023899717588002
20
8.8886411529563176
30
0
10
-7.6360940492990208
20
8.8263873116651581
30
0
10
-7.6846024600928766
20
8.7817249300603706
30
0
10
-7.7522788409430632
20
8.7525285568837674
30
0
10
-7.8413139634753657
20
8.7360256247187387
30
0
10
-7.9498820113937017
20
8.7289863143402453
30
0
10
-8.0698703032701093
20
8.727831687874275
30
0
10
-8.1903463776807488
20
8.7291339890825732
30
0
10
-8.3035153195855909
20
8.7303794711211502
30
0
10
-8.4066386577285215
20
8.7302248026449227
30
0
10
-8.5127810275367111
20
8.7299085150769393
30
0
10
-8.6411938468171883
20
8.7319832752044206
30
0
10
-8.7773141140940272
20
8.7343165475296161
30
0
10
-8.9012014526898131
20
8.7345139947106194
30
0
10
-9.0102223011913143
20
8.7315848093091919
30
0
10
-9.1127413245055866
20
8.7281091706749194
30
0
10
-9.3108259143675998
20
8.7337265820589103
30
0
10
-9.5637428179481567
20
8.763102668062011
30
0
10
-9.7278161643736425
20
8.8278270445009159
30
0
10
-9.6864038326973709
20
8.9283805981471005
30
0
10
-9.4115771165410322
20
9.0501255382551697
30
0
10
-9.1342978868583025
20
9.1464701671129198
30
0
10
-8.9431231490854319
20
9.2060614019270854
30
0
10
-8.8445533295950742
20
9.2371658976055055
30
0
10
-8.7927106392868719
20
9.2588669085818598
30
0
10
-8.7257860588362401
20
9.2908199144024373
30
0
10
-8.604216460180103
20
9.3419839248507586
30
0
10
-8.4372260415633473
20
9.4036555215072379
30
0
10
-8.3464604604969796
20
9.429074969824855
30
0
10
-8.3065640439926405
20
9.4343950362106739
30
0
10
-8.2631807573356841
20
9.4458138829637193
30
0
10
-8.1920810009941043
20
9.4706935863116133
30
0
10
-8.1321425535217191
20
9.4902039835346361
30
0
10
-8.1000002585058137
20
9.5000002712715315
30
0
0
SPLINE
5
101
100
AcDbEntity
8
0
100
AcDbSpline
70
6
71
5
72
51
73
45
74
0
42
0.000000001
43
0.0000000001
44
0.0000000001
40
0
40
0
40
0
40
0
40
0
40
0
40
0.025000000000000001
40
0.050000000000000003
40
0.075000000000000011
40
0.10000000000000001
40
0.125
40
0.14999999999999999
40
0.17499999999999999
40
0.19999999999999998
40
0.22499999999999998
40
0.24999999999999997
40
0.27499999999999997
40
0.29999999999999999
40
0.32500000000000001
40
0.35000000000000003
40
0.37500000000000006
40
0.40000000000000008
40
0.4250000000000001
40
0.45000000000000012
40
0.47500000000000014
40
0.50000000000000011
40
0.52500000000000013
40
0.55000000000000016
40
0.57500000000000018
40
0.6000000000000002
40
0.62500000000000022
40
0.65000000000000024
40
0.67500000000000027
40
0.70000000000000029
40
0.72500000000000031
40
0.75000000000000033
40
0.77500000000000036
40
0.80000000000000038
40
0.8250000000000004
40
0.85000000000000042
40
0.87500000000000044
40
0.90000000000000047
40
0.92500000000000049
40
0.95000000000000051
40
0.97500000000000053
40
1
40
1
40
1
40
1
40
1
40
1
41
1
41
1
41
1
41
1
41
1
41
1
41
1
41
1
41
1
41
1
41
1
41
1
41
1
41
1
41
1
41
1
41
1
41
1
41
1
41
1
41
1
41
1
41
1
41
1
41
1
41
1
41
1
41
1
41
1
41
1
41
1
41
1
41
1
41
1
41
1
41
1
41
1
41
1
41
1
41
1
41
1
41
1
41
1
41
1
41
1
10
8.1000002585058137
20
9.5000002712715279
30
0
10
8.1321425535217209
20
9.4902039835346308
30
0
10
8.1920810009941061
20
9.4706935863116097
30
0
10
8.2631807573356859
20
9.4458138829637157
30
0
10
8.3065640439926423
20
9.4343950362106703
30
0
10
8.3464604604969814
20
9.4290749698248515
30
0
10
8.4372260415633491
20
9.4036555215072326
30
0
10
8.6042164601801048
20
9.341983924850755
30
0
10
8.7257860588362419
20
9.2908199144024337
30
0
10
8.7927106392868737
20
9.2588669085818562
30
0
10
8.844553329595076
20
9.2371658976055002
30
0
10
8.9431231490854337
20
9.2060614019270819
30
0
10
9.1342978868583025
20
9.1464701671129163
30
0
10
9.411577116541034
20
9.0501255382551662
30
0
10
9.6864038326973709
20
8.9283805981470969
30
0
10
9.7278161643736425
20
8.8278270445009106
30
0
10
9.5637428179481567
20
8.7631026680620057
30
0
10
9.3108259143675998
20
8.7337265820589067
30
0
10
9.1127413245055866
20
8.7281091706749159
30
0
10
9.0102223011913143
20
8.7315848093091883
30
0
10
8.9012014526898131
20
8.7345139947106158
30
0
10
8.7773141140940272
20
8.7343165475296107
30
0
10
8.6411938468171883
20
8.7319832752044171
30
0
10
8.5127810275367111
20
8.729908515076934
30
0
10
8.4066386577285215
20
8.7302248026449192
30
0
10
8.3035153195855909
20
8.7303794711211467
30
0
10
8.1903463776807488
20
8.7291339890825697
30
0
10
8.0698703032701093
20
8.7278316878742697
30
0
10
7.9498820113937017
20
8.7289863143402435
30
0
10
7.8413139634753657
20
8.7360256247187351
30
0
10
7.7522788409430632
20
8.7525285568837639
30
0
10
7.6846024600928766
20
8.7817249300603688
30
0
10
7.6360940492990208
20
8.8263873116651563
30
0
10
7.6023899717588002
20
8.8886411529563158
30
0
10
7.5790522881329103
20
8.9699575567553094
30
0
10
7.5630774169623685
20
9.0702019776871392
30
0
10
7.554477903715898
20
9.1859805468317806
30
0
10
7.5573220159632992
20
9.3095579034401634
30
0
10
7.5821871320290315
20
9.4267061410964157
30
0
10
7.6450525762369086
20
9.51709579652759
30
0
10
7.7598762634867224
20
9.5613314953767521
30
0
10
7.8890121915213856
20
9.5550906203369035
30
0
10
7.9992272308985921
20
9.5294713127329036
30
0
10
8.0678579634899084
20
9.5097965590084232
30
0
10
8.1000002585058137
20
9.5000002712715279
30
0
0
CIRCLE
5
102
100
AcDbEntity
8
0
100
AcDbCircle
10
6.9999999154036434
20
8.9999999033184483
30
0
40
0.1249999999999996
210
0
220
0
230
1
0
CIRCLE
5
103
100
AcDbEntity
8
0
100
AcDbCircle
10
-6.9999999154036434
20
8.9999999033184483
30
0
40
0.1249999999999996
210
0
220
0
230
1
0
SPLINE
5
104
100
AcDbEntity
8
0
100
AcDbSpline
70
4
71
5
72
61
73
55
74
0
42
0.000000001
43
0.0000000001
44
0.0000000001
40
-1
40
-1
40
-1
40
-1
40
-1
40
-1
40
-0.98000000000000054
40
-0.96000000000000052
40
-0.9400000000000005
40
-0.92000000000000048
40
-0.90000000000000047
40
-0.88000000000000045
40
-0.86000000000000043
40
-0.84000000000000041
40
-0.8200000000000004
40
-0.80000000000000038
40
-0.78000000000000036
40
-0.76000000000000034
40
-0.74000000000000032
40
-0.72000000000000031
40
-0.70000000000000029
40
-0.68000000000000027
40
-0.66000000000000025
40
-0.64000000000000024
40
-0.62000000000000022
40
-0.6000000000000002
40
-0.58000000000000018
40
-0.56000000000000016
40
-0.54000000000000015
40
-0.52000000000000013
40
-0.50000000000000011
40
-0.48000000000000015
40
-0.46000000000000013
40
-0.44000000000000011
40
-0.4200000000000001
40
-0.40000000000000008
40
-0.38000000000000006
40
-0.36000000000000004
40
-0.34000000000000002
40
-0.32000000000000001
40
-0.29999999999999999
40
-0.27999999999999997
40
-0.25999999999999995
40
-0.23999999999999996
40
-0.21999999999999997
40
-0.19999999999999998
40
-0.17999999999999999
40
-0.16
40
-0.14000000000000001
40
-0.12000000000000001
40
-0.10000000000000001
40
-0.080000000000000002
40
-0.059999999999999998
40
-0.040000000000000001
40
-0.02
40
0
40
0
40
0
40
0
40
0
40
0
41
1
41
1
41
1
41
1
41
1
41
1
41
1
41
1
41
1
41
1
41
1
41
1
41
1
41
1
41
1
41
1
41
1
41
1
41
1
41
1
41
1
41
1
41
1
41
1
41
1
41
1
41
1
41
1
41
1
41
1
41
1
41
1
41
1
41
1
41
1
41
1
41
1
41
1
41
1
41
1
41
1
41
1
41
1
41
1
41
1
41
1
41
1
41
1
41
1
41
1
41
1
41
1
41
1
41
1
41
1
10
1.8001640941795978e-15
20
10.800000312760119
30
0
10
0.036952692482732911
20
10.800064046576214
30
0
10
0.11256335039158399
20
10.799911154181851
30
0
10
0.2310949376592466
20
10.798840808206062
30
0
10
0.39937681108008682
20
10.795729940229107
30
0
10
0.62709758545633909
20
10.788922511398061
30
0
10
0.87306214125944559
20
10.778857459987121
30
0
10
1.1389094877244814
20
10.764885781884136
30
0
10
1.427479789753425
20
10.74588171867148
30
0
10
1.7420758830328054
20
10.720469212795535
30
0
10
2.0849367135659276
20
10.687515319464731
30
0
10
2.4562315854697525
20
10.646441999563089
30
0
10
2.852219993401933
20
10.597832959855031
30
0
10
3.265173076982109
20
10.543413309059918
30
0
10
3.6792093758827846
20
10.487483547541775
30
0
10
4.0763748977432197
20
10.434704019980314
30
0
10
4.4488010205279407
20
10.385804682492521
30
0
10
4.7924216627694642
20
10.339858733418042
30
0
10
5.1069848028507501
20
10.294315605450388
30
0
10
5.3933987930752387
20
10.245980660610066
30
0
10
5.6523189453333345
20
10.191557239824309
30
0
10
5.8819864944597287
20
10.12844544350758
30
0
10
6.0770537880619999
20
10.055202797467768
30
0
10
6.2316569894577114
20
9.9701536056623006
30
0
10
6.3415143298981471
20
9.8706781462864654
30
0
10
6.4073262009248602
20
9.7512979140368632
30
0
10
6.4347559627161282
20
9.6051553819943916
30
0
10
6.4285611317487819
20
9.4308061337638946
30
0
10
6.3862583916615474
20
9.2402996506284634
30
0
10
6.2978140807475009
20
9.0584135736938531
30
0
10
6.1530754337416695
20
8.9108349631944836
30
0
10
5.9466155100192193
20
8.8161685080038534
30
0
10
5.6848520602689669
20
8.7742998329700246
30
0
10
5.3832763395440626
20
8.7711458311923938
30
0
10
5.061676020993346
20
8.7861353571293535
30
0
10
4.7397152992100056
20
8.8004731303580233
30
0
10
4.433104122472959
20
8.8012249530421549
30
0
10
4.1477361793860323
20
8.7965185723441746
30
0
10
3.8805612288004965
20
8.7943444978253247
30
0
10
3.624283682185506
20
8.7954534946805332
30
0
10
3.3693492037218928
20
8.7986352412574398
30
0
10
3.1070372857097053
20
8.8008539997387132
30
0
10
2.8320565963757844
20
8.7995756553682618
30
0
10
2.5454246572606709
20
8.7941769739762954
30
0
10
2.2522272727514214
20
8.7855198277364739
30
0
10
1.9594114522411905
20
8.775333283850971
30
0
10
1.6734632612893903
20
8.7656589400264018
30
0
10
1.3983785314280892
20
8.7583188018565075
30
0
10
1.1329072887297633
20
8.7542547810570994
30
0
10
0.87029497408254164
20
8.7533591884422162
30
0
10
0.60122679438895332
20
8.754946418069034
30
0
10
0.37301065798966282
20
8.7574378525604573
30
0
10
0.19108479601192815
20
8.759610178187053
30
0
10
0.064567182236016984
20
8.7611394881523168
30
0
10
1.4571092383252947e-15
20
8.7619244268054715
30
0
0
SPLINE
5
105
100
AcDbEntity
8
0
100
AcDbSpline
70
4
71
5
72
61
73
55
74
0
42
0.000000001
43
0.0000000001
44
0.0000000001
40
0
40
0
40
0
40
0
40
0
40
0
40
0.02
40
0.040000000000000001
40
0.059999999999999998
40
0.080000000000000002
40
0.10000000000000001
40
0.12000000000000001
40
0.14000000000000001
40
0.16
40
0.17999999999999999
40
0.19999999999999998
40
0.21999999999999997
40
0.23999999999999996
40
0.25999999999999995
40
0.27999999999999997
40
0.29999999999999999
40
0.32000000000000001
40
0.34000000000000002
40
0.36000000000000004
40
0.38000000000000006
40
0.40000000000000008
40
0.4200000000000001
40
0.44000000000000011
40
0.46000000000000013
40
0.48000000000000015
40
0.50000000000000011
40
0.52000000000000013
40
0.54000000000000015
40
0.56000000000000016
40
0.58000000000000018
40
0.6000000000000002
40
0.62000000000000022
40
0.64000000000000024
40
0.66000000000000025
40
0.68000000000000027
40
0.70000000000000029
40
0.72000000000000031
40
0.74000000000000032
40
0.76000000000000034
40
0.78000000000000036
40
0.80000000000000038
40
0.8200000000000004
40
0.84000000000000041
40
0.86000000000000043
40
0.88000000000000045
40
0.90000000000000047
40
0.92000000000000048
40
0.9400000000000005
40
0.96000000000000052
40
0.98000000000000054
40
1
40
1
40
1
40
1
40
1
40
1
41
1
41
1
41
1
41
1
41
1
41
1
41
1
41
1
41
1
41
1
41
1
41
1
41
1
41
1
41
1
41
1
41
1
41
1
41
1
41
1
41
1
41
1
41
1
41
1
41
1
41
1
41
1
41
1
41
1
41
1
41
1
41
1
41
1
41
1
41
1
41
1
41
1
41
1
41
1
41
1
41
1
41
1
41
1
41
1
41
1
41
1
41
1
41
1
41
1
41
1
41
1
41
1
41
1
41
1
41
1
10
-4.5469500136816287e-16
20
8.7619244268054715
30
0
10
-0.064567182236015985
20
8.7611394881523168
30
0
10
-0.19108479601192715
20
8.759610178187053
30
0
10
-0.37301065798966182
20
8.7574378525604573
30
0
10
-0.60122679438895221
20
8.754946418069034
30
0
10
-0.87029497408254075
20
8.7533591884422162
30
0
10
-1.1329072887297627
20
8.7542547810570994
30
0
10
-1.3983785314280883
20
8.7583188018565075
30
0
10
-1.6734632612893892
20
8.7656589400264018
30
0
10
-1.9594114522411894
20
8.7753332838509728
30
0
10
-2.2522272727514201
20
8.7855198277364757
30
0
10
-2.54542465726067
20
8.7941769739762954
30
0
10
-2.8320565963757831
20
8.7995756553682636
30
0
10
-3.1070372857097044
20
8.800853999738715
30
0
10
-3.3693492037218919
20
8.7986352412574416
30
0
10
-3.6242836821855056
20
8.7954534946805332
30
0
10
-3.880561228800496
20
8.7943444978253265
30
0
10
-4.1477361793860323
20
8.7965185723441746
30
0
10
-4.4331041224729582
20
8.8012249530421549
30
0
10
-4.7397152992100047
20
8.800473130358025
30
0
10
-5.0616760209933451
20
8.7861353571293552
30
0
10
-5.3832763395440617
20
8.7711458311923973
30
0
10
-5.6848520602689669
20
8.7742998329700281
30
0
10
-5.9466155100192184
20
8.816168508003857
30
0
10
-6.1530754337416687
20
8.9108349631944854
30
0
10
-6.2978140807474992
20
9.0584135736938567
30
0
10
-6.3862583916615465
20
9.2402996506284669
30
0
10
-6.428561131748781
20
9.4308061337638982
30
0
10
-6.4347559627161264
20
9.6051553819943951
30
0
10
-6.4073262009248593
20
9.751297914036865
30
0
10
-6.3415143298981462
20
9.8706781462864672
30
0
10
-6.2316569894577096
20
9.9701536056623041
30
0
10
-6.0770537880619981
20
10.05520279746777
30
0
10
-5.8819864944597278
20
10.128445443507582
30
0
10
-5.6523189453333336
20
10.191557239824313
30
0
10
-5.393398793075237
20
10.245980660610067
30
0
10
-5.1069848028507492
20
10.294315605450388
30
0
10
-4.7924216627694625
20
10.339858733418042
30
0
10
-4.4488010205279398
20
10.385804682492523
30
0
10
-4.0763748977432179
20
10.434704019980316
30
0
10
-3.6792093758827833
20
10.487483547541775
30
0
10
-3.2651730769821077
20
10.543413309059918
30
0
10
-2.8522199934019312
20
10.597832959855033
30
0
10
-2.4562315854697507
20
10.646441999563091
30
0
10
-2.0849367135659258
20
10.687515319464733
30
0
10
-1.7420758830328036
20
10.720469212795535
30
0
10
-1.4274797897534233
20
10.74588171867148
30
0
10
-1.1389094877244796
20
10.764885781884136
30
0
10
-0.87306214125944381
20
10.778857459987121
30
0
10
-0.6270975854563372
20
10.788922511398061
30
0
10
-0.39937681108008499
20
10.795729940229107
30
0
10
-0.23109493765924483
20
10.798840808206062
30
0
10
-0.11256335039158218
20
10.799911154181851
30
0
10
-0.036952692482731114
20
10.800064046576214
30
0
10
0
20
10.800000312760119
30
0
0
LINE
5
106
100
AcDbEntity
8
0
100
AcDbLine
10
-12.181875
20
8.1243749999999988
30
0
11
12.181875
21
8.1243749999999988
31
0
0
LINE
5
107
100
AcDbEntity
8
0
100
AcDbLine
10
12.181875
20
8.1243749999999988
30
0
11
12.181875
21
8.251965732134094
31
0
0
ELLIPSE
5
108
100
AcDbEntity
8
0
100
AcDbEllipse
10
0
20
0.99999999999999956
30
0
11
16.937999999999999
21
2.043999449940427e-15
31
0.0
40
0.61621797142519774
41
0.76814054321623726
42
2.373452110373556
0
LINE
5
109
100
AcDbEntity
8
0
100
AcDbLine
10
-12.181875
20
8.2519657321340887
30
0
11
-12.181875
21
8.1243749999999988
31
0
0
ENDSEC
0
SECTION
2
OBJECTS
0
DICTIONARY
5
C
100
AcDbDictionary
3
ACAD_GROUP
350
D
3
ACAD_MLINESTYLE
350
17
0
DICTIONARY
5
D
100
AcDbDictionary
0
DICTIONARY
5
1A
330
C
100
AcDbDictionary
0
DICTIONARY
5
17
100
AcDbDictionary
0
ENDSEC
0
EOF
