0
SECTION
2
HEADER
9
$INSUNITS
70
1
9
$ACADVER
1
AC1014
9
$HANDSEED
5
FFFF
0
ENDSEC
0
SECTION
2
TABLES
0
TABLE
2
VPORT
5
8
100
AcDbSymbolTable
0
ENDTAB
0
TABLE
2
LTYPE
5
5
100
AcDbSymbolTable
0
LTYPE
5
14
100
AcDbSymbolTableRecord
100
AcDbLinetypeTableRecord
2
BYBLOCK
70
0
0
LTYPE
5
15
100
AcDbSymbolTableRecord
100
AcDbLinetypeTableRecord
2
BYLAYER
70
0
0
LTYPE
5
16
100
AcDbSymbolTableRecord
100
AcDbLinetypeTableRecord
2
DASHED
70
0
3
Dashed __ __ __ __ __ __ __ __ __ __ __ __ __ _
72
65
73
2
40
0.75
49
0.5
74
0
49
-0.25
74
0
0
ENDTAB
0
TABLE
2
LAYER
5
2
100
AcDbSymbolTable
70
3
0
LAYER
5
50
100
AcDbSymbolTableRecord
100
AcDbLayerTableRecord
2
1
70
0
62
7
6
DASHED
0
LAYER
5
51
100
AcDbSymbolTableRecord
100
AcDbLayerTableRecord
2
0
70
0
62
7
6
CONTINUOUS
0
ENDTAB
0
TABLE
2
STYLE
5
3
100
AcDbSymbolTable
70
1
0
STYLE
5
11
100
AcDbSymbolTableRecord
100
AcDbTextStyleTableRecord
2
STANDARD
70
0
0
ENDTAB
0
TABLE
2
VIEW
5
6
100
AcDbSymbolTable
70
0
0
ENDTAB
0
TABLE
2
UCS
5
7
100
AcDbSymbolTable
70
0
0
ENDTAB
0
TABLE
2
APPID
5
9
100
AcDbSymbolTable
70
2
0
APPID
5
12
100
AcDbSymbolTableRecord
100
AcDbRegAppTableRecord
2
ACAD
70
0
0
ENDTAB
0
TABLE
2
DIMSTYLE
5
A
100
AcDbSymbolTable
70
1
0
ENDTAB
0
TABLE
2
BLOCK_RECORD
5
1
100
AcDbSymbolTable
70
1
0
BLOCK_RECORD
5
1F
100
AcDbSymbolTableRecord
100
AcDbBlockTableRecord
2
*MODEL_SPACE
0
BLOCK_RECORD
5
1B
100
AcDbSymbolTableRecord
100
AcDbBlockTableRecord
2
*PAPER_SPACE
0
ENDTAB
0
ENDSEC
0
SECTION
2
BLOCKS
0
BLOCK
5
20
100
AcDbEntity
100
AcDbBlockBegin
2
*MODEL_SPACE
0
ENDBLK
5
21
100
AcDbEntity
100
AcDbBlockEnd
0
BLOCK
5
1C
100
AcDbEntity
100
AcDbBlockBegin
2
*PAPER_SPACE
0
ENDBLK
5
1D
100
AcDbEntity
100
AcDbBlockEnd
0
ENDSEC
0
SECTION
2
ENTITIES
0
CIRCLE
5
100
100
AcDbEntity
8
0
100
AcDbCircle
10
20.999999907158408
20
5.5000001517452777
30
0
40
0.12999999999999914
210
0
220
0
230
1
0
CIRCLE
5
101
100
AcDbEntity
8
0
100
AcDbCircle
10
30.999999907158404
20
12.499999999999996
30
0
40
0.13000000000000192
210
0
220
0
230
1
0
CIRCLE
5
102
100
AcDbEntity
8
0
100
AcDbCircle
10
32.999999834898595
20
23.43699993801458
30
0
40
0.1249999999999982
210
0
220
0
230
1
0
CIRCLE
5
103
100
AcDbEntity
8
0
100
AcDbCircle
10
20.999999907158408
20
12.499999999999996
30
0
40
0.12999999999999914
210
0
220
0
230
1
0
CIRCLE
5
104
100
AcDbEntity
8
0
100
AcDbCircle
10
20.999999907158408
20
8.9999999999999964
30
0
40
0.12999999999999914
210
0
220
0
230
1
0
CIRCLE
5
105
100
AcDbEntity
8
0
100
AcDbCircle
10
19.000000148029468
20
23.437000015018487
30
0
40
0.1249999999999982
210
0
220
0
230
1
0
CIRCLE
5
106
100
AcDbEntity
8
0
100
AcDbCircle
10
30.999999907158404
20
8.9999999999999964
30
0
40
0.13000000000000192
210
0
220
0
230
1
0
CIRCLE
5
107
100
AcDbEntity
8
0
100
AcDbCircle
10
30.999999907158404
20
5.5000001517452777
30
0
40
0.13000000000000192
210
0
220
0
230
1
0
LINE
5
108
100
AcDbEntity
8
0
100
AcDbLine
10
21.499999907492178
20
6.7499999885112629
30
0
11
21.499999907492175
21
12
31
0
0
ARC
5
109
100
AcDbEntity
8
0
100
AcDbCircle
10
22.499999907492171
20
12.000000000000005
30
0
40
0.999999999999994
210
0
220
-0
230
1
100
AcDbArc
50
89.999999999999801
51
180
0
LINE
5
110
100
AcDbEntity
8
0
100
AcDbLine
10
22.499999907492175
20
13
30
0
11
29.500000000166899
21
13
31
0
0
ARC
5
111
100
AcDbEntity
8
0
100
AcDbCircle
10
29.500000000166892
20
12
30
0
40
1.0000000000000075
210
0
220
0
230
1
100
AcDbArc
50
-1.0316186206644558e-05
51
89.999999999999588
0
LINE
5
112
100
AcDbEntity
8
0
100
AcDbLine
10
30.500000000166885
20
11.999999819778081
30
0
11
30.500000000166885
21
3.9999999399260271
31
0
0
LINE
5
113
100
AcDbEntity
8
0
100
AcDbLine
10
30.500000000166885
20
3.9999999399260271
30
0
11
31.999999909889034
21
3.9999999399260271
31
0
0
LINE
5
114
100
AcDbEntity
8
0
100
AcDbLine
10
31.999999909889034
20
3.9999999399260271
30
0
11
32.000000092841596
21
6
31
0
0
LINE
5
115
100
AcDbEntity
8
0
100
AcDbLine
10
32.000000092841596
20
6
30
0
11
31.999999904954645
21
8.0000000000000018
31
0
0
SPLINE
5
116
100
AcDbEntity
8
0
100
AcDbSpline
70
4
71
5
72
21
73
15
74
0
42
0.000000001
43
0.0000000001
44
0.0000000001
40
-0.94953461839043707
40
-0.94953461839043707
40
-0.94953461839043707
40
-0.94953461839043707
40
-0.94953461839043707
40
-0.94953461839043707
40
-0.89999999999999991
40
-0.79999999999999993
40
-0.69999999999999996
40
-0.59999999999999998
40
-0.5
40
-0.40000000000000002
40
-0.30000000000000004
40
-0.20000000000000001
40
-0.10000000000000001
40
0
40
0
40
0
40
0
40
0
40
0
41
1
41
1
41
1
41
1
41
1
41
1
41
1
41
1
41
1
41
1
41
1
41
1
41
1
41
1
41
1
10
31.999999904954645
20
8.0000000000000018
30
0
10
31.999930624734443
20
8.002060243546083
30
0
10
31.999505951119314
20
8.0124758928862274
30
0
10
31.99713670148623
20
8.063568701192855
30
0
10
31.986106164686312
20
8.3140111619967811
30
0
10
31.968881519347704
20
9.0632237995115137
30
0
10
31.986242963731044
20
10.489871971640584
30
0
10
32.104738140180288
20
12.422552143580202
30
0
10
32.406054505663604
20
14.715400777344552
30
0
10
32.984861309460406
20
17.182782019224927
30
0
10
33.941518334493161
20
19.633446896795814
30
0
10
35.086070182699771
20
21.440976255823422
30
0
10
36.192428695456414
20
22.65185467465254
30
0
10
37.04497874964558
20
23.387259939558906
30
0
10
37.499999836019896
20
23.73699988940928
30
0
0
LINE
5
117
100
AcDbEntity
8
0
100
AcDbLine
10
37.499999836019896
20
23.73699988940928
30
0
11
37.499999838412002
21
24.37699988940928
31
0
0
LINE
5
118
100
AcDbEntity
8
0
100
AcDbLine
10
37.499999838412002
20
24.37699988940928
30
0
11
30.812499838412013
21
24.376999962453763
31
0
0
LINE
5
119
100
AcDbEntity
8
0
100
AcDbLine
10
30.812499838412013
20
24.376999962453763
30
0
11
30.812815708125896
21
25.002961305218886
31
0
0
LINE
5
120
100
AcDbEntity
8
0
100
AcDbLine
10
30.812815708125896
20
25.002961305218886
30
0
11
15.318000188948796
21
25.010780227267801
31
0
0
LINE
5
121
100
AcDbEntity
8
0
100
AcDbLine
10
15.318000188948796
20
25.010780227267801
30
0
11
14.500000150184929
21
25.010780227267801
31
0
0
LINE
5
122
100
AcDbEntity
8
0
100
AcDbLine
10
14.500000150184929
20
25.010780227267801
30
0
11
14.500000150184929
21
23.737000015018491
31
0
0
SPLINE
5
123
100
AcDbEntity
8
0
100
AcDbSpline
70
4
71
5
72
21
73
15
74
0
42
0.000000001
43
0.0000000001
44
0.0000000001
40
0
40
0
40
0
40
0
40
0
40
0
40
0.10000000000000001
40
0.20000000000000001
40
0.30000000000000004
40
0.40000000000000002
40
0.5
40
0.59999999999999998
40
0.69999999999999996
40
0.79999999999999993
40
0.89999999999999991
40
0.94953493352707397
40
0.94953493352707397
40
0.94953493352707397
40
0.94953493352707397
40
0.94953493352707397
40
0.94953493352707397
41
1
41
1
41
1
41
1
41
1
41
1
41
1
41
1
41
1
41
1
41
1
41
1
41
1
41
1
41
1
10
14.500000150184929
20
23.737000015018491
30
0
10
14.955021232739194
20
23.387260060198134
30
0
10
15.807571278895875
20
22.651854785979754
30
0
10
16.913929778426649
20
21.44097635506639
30
0
10
18.058481606890446
20
19.633446983537368
30
0
10
19.015138605155713
20
17.182782095517357
30
0
10
19.593945382002438
20
14.715400847314944
30
0
10
19.895261722442026
20
12.42255221025945
30
0
10
20.013756877781489
20
10.489872037025567
30
0
10
20.031118306582208
20
9.0632238647068633
30
0
10
20.013893640985323
20
8.3140107021607612
30
0
10
20.002863093634886
20
8.0635683151046607
30
0
10
20.000493854357423
20
8.0124757648417511
30
0
10
20.00006918602498
20
8.002060221279292
30
0
10
19.999999907158404
20
8.0000000000000018
30
0
0
LINE
5
124
100
AcDbEntity
8
0
100
AcDbLine
10
19.999999907158408
20
8.0000000000000036
30
0
11
20.000000090110959
21
6
31
0
0
LINE
5
125
100
AcDbEntity
8
0
100
AcDbLine
10
20.000000090110959
20
6
30
0
11
20.000000090110959
21
3.9999999399260271
31
0
0
LINE
5
126
100
AcDbEntity
8
0
100
AcDbLine
10
20.000000090110959
20
3.9999999399260271
30
0
11
21.499999998801563
21
4
31
0
0
LINE
5
127
100
AcDbEntity
8
0
100
AcDbLine
10
21.499999998801563
20
4
30
0
11
21.499999998801563
21
6
31
0
0
LINE
5
128
100
AcDbEntity
8
0
100
AcDbLine
10
21.499999998801563
20
6
30
0
11
21.499999907492178
21
6.7499999885112629
31
0
0
ENDSEC
0
SECTION
2
OBJECTS
0
DICTIONARY
5
C
100
AcDbDictionary
3
ACAD_GROUP
350
D
3
ACAD_MLINESTYLE
350
17
0
DICTIONARY
5
D
100
AcDbDictionary
0
DICTIONARY
5
1A
330
C
100
AcDbDictionary
0
DICTIONARY
5
17
100
AcDbDictionary
0
ENDSEC
0
EOF
