0
SECTION
2
HEADER
9
$INSUNITS
70
1
9
$ACADVER
1
AC1014
9
$HANDSEED
5
FFFF
0
ENDSEC
0
SECTION
2
TABLES
0
TABLE
2
VPORT
5
8
100
AcDbSymbolTable
0
ENDTAB
0
TABLE
2
LTYPE
5
5
100
AcDbSymbolTable
0
LTYPE
5
14
100
AcDbSymbolTableRecord
100
AcDbLinetypeTableRecord
2
BYBLOCK
70
0
0
LTYPE
5
15
100
AcDbSymbolTableRecord
100
AcDbLinetypeTableRecord
2
BYLAYER
70
0
0
LTYPE
5
16
100
AcDbSymbolTableRecord
100
AcDbLinetypeTableRecord
2
DASHED
70
0
3
Dashed __ __ __ __ __ __ __ __ __ __ __ __ __ _
72
65
73
2
40
0.75
49
0.5
74
0
49
-0.25
74
0
0
ENDTAB
0
TABLE
2
LAYER
5
2
100
AcDbSymbolTable
70
3
0
LAYER
5
50
100
AcDbSymbolTableRecord
100
AcDbLayerTableRecord
2
1
70
0
62
7
6
DASHED
0
LAYER
5
51
100
AcDbSymbolTableRecord
100
AcDbLayerTableRecord
2
0
70
0
62
7
6
CONTINUOUS
0
ENDTAB
0
TABLE
2
STYLE
5
3
100
AcDbSymbolTable
70
1
0
STYLE
5
11
100
AcDbSymbolTableRecord
100
AcDbTextStyleTableRecord
2
STANDARD
70
0
0
ENDTAB
0
TABLE
2
VIEW
5
6
100
AcDbSymbolTable
70
0
0
ENDTAB
0
TABLE
2
UCS
5
7
100
AcDbSymbolTable
70
0
0
ENDTAB
0
TABLE
2
APPID
5
9
100
AcDbSymbolTable
70
2
0
APPID
5
12
100
AcDbSymbolTableRecord
100
AcDbRegAppTableRecord
2
ACAD
70
0
0
ENDTAB
0
TABLE
2
DIMSTYLE
5
A
100
AcDbSymbolTable
70
1
0
ENDTAB
0
TABLE
2
BLOCK_RECORD
5
1
100
AcDbSymbolTable
70
1
0
BLOCK_RECORD
5
1F
100
AcDbSymbolTableRecord
100
AcDbBlockTableRecord
2
*MODEL_SPACE
0
BLOCK_RECORD
5
1B
100
AcDbSymbolTableRecord
100
AcDbBlockTableRecord
2
*PAPER_SPACE
0
ENDTAB
0
ENDSEC
0
SECTION
2
BLOCKS
0
BLOCK
5
20
100
AcDbEntity
100
AcDbBlockBegin
2
*MODEL_SPACE
0
ENDBLK
5
21
100
AcDbEntity
100
AcDbBlockEnd
0
BLOCK
5
1C
100
AcDbEntity
100
AcDbBlockBegin
2
*PAPER_SPACE
0
ENDBLK
5
1D
100
AcDbEntity
100
AcDbBlockEnd
0
ENDSEC
0
SECTION
2
ENTITIES
0
SPLINE
5
100
100
AcDbEntity
8
0
100
AcDbSpline
70
6
71
5
72
86
73
80
74
0
42
0.000000001
43
0.0000000001
44
0.0000000001
40
-1
40
-1
40
-1
40
-1
40
-1
40
-1
40
-0.98666666666666536
40
-0.97333333333333205
40
-0.95999999999999874
40
-0.94666666666666544
40
-0.93333333333333213
40
-0.91999999999999882
40
-0.90666666666666551
40
-0.8933333333333322
40
-0.87999999999999889
40
-0.86666666666666559
40
-0.85333333333333228
40
-0.83999999999999897
40
-0.82666666666666566
40
-0.81333333333333235
40
-0.79999999999999905
40
-0.78666666666666574
40
-0.77333333333333243
40
-0.75999999999999912
40
-0.74666666666666581
40
-0.7333333333333325
40
-0.7199999999999992
40
-0.70666666666666589
40
-0.69333333333333258
40
-0.67999999999999927
40
-0.66666666666666596
40
-0.65333333333333266
40
-0.63999999999999935
40
-0.62666666666666604
40
-0.61333333333333273
40
-0.59999999999999942
40
-0.58666666666666611
40
-0.57333333333333281
40
-0.5599999999999995
40
-0.54666666666666619
40
-0.53333333333333288
40
-0.51999999999999957
40
-0.50666666666666627
40
-0.4933333333333329
40
-0.47999999999999959
40
-0.46666666666666629
40
-0.45333333333333298
40
-0.43999999999999967
40
-0.42666666666666636
40
-0.41333333333333305
40
-0.39999999999999974
40
-0.38666666666666644
40
-0.37333333333333313
40
-0.35999999999999982
40
-0.34666666666666651
40
-0.3333333333333332
40
-0.3199999999999999
40
-0.30666666666666659
40
-0.29333333333333328
40
-0.27999999999999997
40
-0.26666666666666666
40
-0.25333333333333335
40
-0.24000000000000002
40
-0.22666666666666668
40
-0.21333333333333335
40
-0.20000000000000001
40
-0.18666666666666668
40
-0.17333333333333334
40
-0.16
40
-0.14666666666666667
40
-0.13333333333333333
40
-0.12000000000000001
40
-0.10666666666666667
40
-0.093333333333333338
40
-0.080000000000000002
40
-0.066666666666666666
40
-0.053333333333333337
40
-0.040000000000000001
40
-0.026666666666666668
40
-0.013333333333333334
40
0
40
0
40
0
40
0
40
0
40
0
41
1
41
1
41
1
41
1
41
1
41
1
41
1
41
1
41
1
41
1
41
1
41
1
41
1
41
1
41
1
41
1
41
1
41
1
41
1
41
1
41
1
41
1
41
1
41
1
41
1
41
1
41
1
41
1
41
1
41
1
41
1
41
1
41
1
41
1
41
1
41
1
41
1
41
1
41
1
41
1
41
1
41
1
41
1
41
1
41
1
41
1
41
1
41
1
41
1
41
1
41
1
41
1
41
1
41
1
41
1
41
1
41
1
41
1
41
1
41
1
41
1
41
1
41
1
41
1
41
1
41
1
41
1
41
1
41
1
41
1
41
1
41
1
41
1
41
1
41
1
41
1
41
1
41
1
41
1
41
1
10
-9.1000002904201107
20
-8.400000252122954
30
0
10
-9.095899746881555
20
-8.3836309979644952
30
0
10
-9.077757332022431
20
-8.3533274218225539
30
0
10
-9.0227950996530115
20
-8.3161402481671516
30
0
10
-8.9091029574164757
20
-8.286672390681165
30
0
10
-8.742970784840475
20
-8.2849821365087966
30
0
10
-8.5532164277703338
20
-8.2923699575782059
30
0
10
-8.3285085999572601
20
-8.2943419200221964
30
0
10
-8.0590943037909248
20
-8.2876312493233293
30
0
10
-7.7375323728766006
20
-8.2750095979691469
30
0
10
-7.3674890400749113
20
-8.2620270254926194
30
0
10
-6.9632481485264108
20
-8.2539789963627737
30
0
10
-6.5675606040246173
20
-8.2501599784986919
30
0
10
-6.2083726816983509
20
-8.2488532465443285
30
0
10
-5.8936895148593198
20
-8.2492112524698165
30
0
10
-5.6199815770486676
20
-8.2503605225665861
30
0
10
-5.3745895262249057
20
-8.2516692820989412
30
0
10
-5.1409987429888355
20
-8.2525560527446462
30
0
10
-4.9021793849882069
20
-8.252401456213196
30
0
10
-4.6464194761900517
20
-8.2506313045806454
30
0
10
-4.3711173183468377
20
-8.2475601417244473
30
0
10
-4.0791020089949361
20
-8.2438563854199813
30
0
10
-3.7771452723762495
20
-8.2404000519572413
30
0
10
-3.473511250194921
20
-8.2379670411090729
30
0
10
-3.1760791765041896
20
-8.2370183789480116
30
0
10
-2.8898166893649324
20
-8.237365640375975
30
0
10
-2.6168132985378989
20
-8.2383323153411858
30
0
10
-2.3573095639984079
20
-8.2391080564253425
30
0
10
-2.1104034004331971
20
-8.2390422606656664
30
0
10
-1.8748944739561026
20
-8.2379602705363748
30
0
10
-1.6500559092042413
20
-8.2364766298585455
30
0
10
-1.436465925024033
20
-8.2362950764181573
30
0
10
-1.2363092040774581
20
-8.2402012748976112
30
0
10
-1.0539195616861721
20
-8.2519929247954984
30
0
10
-0.89578540343864532
20
-8.276571201340392
30
0
10
-0.77188873020315052
20
-8.3196450587714512
30
0
10
-0.69089961034929326
20
-8.3887114844127346
30
0
10
-0.6533756537891956
20
-8.4930519677462986
30
0
10
-0.64413028107430959
20
-8.6467224758351318
30
0
10
-0.64523861112384118
20
-8.8504843863676435
30
0
10
-0.64288406165641321
20
-9.0882608034736005
30
0
10
-0.65110445465238098
20
-9.2860218689746219
30
0
10
-0.65741035642596712
20
-9.4409759575482823
30
0
10
-0.64907372000199171
20
-9.5873780959438708
30
0
10
-0.63814002920692103
20
-9.763166374660825
30
0
10
-0.69271307191397957
20
-9.9692927174006822
30
0
10
-0.84358078792236546
20
-10.157302948400753
30
0
10
-1.0957063537740281
20
-10.275079105072857
30
0
10
-1.4286590692590218
20
-10.284482990463049
30
0
10
-1.7850630554522662
20
-10.218657532483842
30
0
10
-2.1053510751673659
20
-10.149783578599328
30
0
10
-2.3770960588384482
20
-10.094685845880257
30
0
10
-2.6058973095974833
20
-10.05812796405786
30
0
10
-2.8130387559027574
20
-10.029571042798546
30
0
10
-3.0230746083381996
20
-9.9968394232013598
30
0
10
-3.2529822495508585
20
-9.958791528040841
30
0
10
-3.5091366909079662
20
-9.9190502102506297
30
0
10
-3.793038855847465
20
-9.8772330101997863
30
0
10
-4.1010977180594548
20
-9.8330663820522588
30
0
10
-4.4267645605544432
20
-9.7853526093379273
30
0
10
-4.7616735262553149
20
-9.7331472866853268
30
0
10
-5.0971709079563148
20
-9.6759561451968654
30
0
10
-5.4257713707082758
20
-9.6144330140032714
30
0
10
-5.7416167756500212
20
-9.5499942126874533
30
0
10
-6.0407599908550109
20
-9.4843715851875832
30
0
10
-6.3214882263403362
20
-9.419192264509638
30
0
10
-6.5846930680447917
20
-9.3555240563169821
30
0
10
-6.8340825196699644
20
-9.2934895634026162
30
0
10
-7.0768073529395386
20
-9.2317174086695672
30
0
10
-7.322749223638036
20
-9.1673084055711573
30
0
10
-7.5810268779375791
20
-9.0968372102838622
30
0
10
-7.8572410952306475
20
-9.0171125065293634
30
0
10
-8.1501167028741488
20
-8.9260745962215129
30
0
10
-8.4490945620545777
20
-8.8235416794930437
30
0
10
-8.7297948740054458
20
-8.7122504254487385
30
0
10
-8.9565242736333861
20
-8.5980009065250957
30
0
10
-9.0678508755692206
20
-8.5106445099896142
30
0
10
-9.1023605932537848
20
-8.4515429467732996
30
0
10
-9.1041008339586629
20
-8.4163695062814092
30
0
10
-9.1000002904201107
20
-8.400000252122954
30
0
0
SPLINE
5
101
100
AcDbEntity
8
0
100
AcDbSpline
70
6
71
5
72
86
73
80
74
0
42
0.000000001
43
0.0000000001
44
0.0000000001
40
0
40
0
40
0
40
0
40
0
40
0
40
0.013333333333333334
40
0.026666666666666668
40
0.040000000000000001
40
0.053333333333333337
40
0.066666666666666666
40
0.080000000000000002
40
0.093333333333333338
40
0.10666666666666667
40
0.12000000000000001
40
0.13333333333333333
40
0.14666666666666667
40
0.16
40
0.17333333333333334
40
0.18666666666666668
40
0.20000000000000001
40
0.21333333333333335
40
0.22666666666666668
40
0.24000000000000002
40
0.25333333333333335
40
0.26666666666666666
40
0.27999999999999997
40
0.29333333333333328
40
0.30666666666666659
40
0.3199999999999999
40
0.3333333333333332
40
0.34666666666666651
40
0.35999999999999982
40
0.37333333333333313
40
0.38666666666666644
40
0.39999999999999974
40
0.41333333333333305
40
0.42666666666666636
40
0.43999999999999967
40
0.45333333333333298
40
0.46666666666666629
40
0.47999999999999959
40
0.4933333333333329
40
0.50666666666666627
40
0.51999999999999957
40
0.53333333333333288
40
0.54666666666666619
40
0.5599999999999995
40
0.57333333333333281
40
0.58666666666666611
40
0.59999999999999942
40
0.61333333333333273
40
0.62666666666666604
40
0.63999999999999935
40
0.65333333333333266
40
0.66666666666666596
40
0.67999999999999927
40
0.69333333333333258
40
0.70666666666666589
40
0.7199999999999992
40
0.7333333333333325
40
0.74666666666666581
40
0.75999999999999912
40
0.77333333333333243
40
0.78666666666666574
40
0.79999999999999905
40
0.81333333333333235
40
0.82666666666666566
40
0.83999999999999897
40
0.85333333333333228
40
0.86666666666666559
40
0.87999999999999889
40
0.8933333333333322
40
0.90666666666666551
40
0.91999999999999882
40
0.93333333333333213
40
0.94666666666666544
40
0.95999999999999874
40
0.97333333333333205
40
0.98666666666666536
40
1
40
1
40
1
40
1
40
1
40
1
41
1
41
1
41
1
41
1
41
1
41
1
41
1
41
1
41
1
41
1
41
1
41
1
41
1
41
1
41
1
41
1
41
1
41
1
41
1
41
1
41
1
41
1
41
1
41
1
41
1
41
1
41
1
41
1
41
1
41
1
41
1
41
1
41
1
41
1
41
1
41
1
41
1
41
1
41
1
41
1
41
1
41
1
41
1
41
1
41
1
41
1
41
1
41
1
41
1
41
1
41
1
41
1
41
1
41
1
41
1
41
1
41
1
41
1
41
1
41
1
41
1
41
1
41
1
41
1
41
1
41
1
41
1
41
1
41
1
41
1
41
1
41
1
41
1
41
1
41
1
41
1
41
1
41
1
41
1
41
1
10
9.1000002904201072
20
-8.4000002521229575
30
0
10
9.1041008339586593
20
-8.4163695062814128
30
0
10
9.1023605932537812
20
-8.4515429467733032
30
0
10
9.0678508755692153
20
-8.5106445099896177
30
0
10
8.9565242736333825
20
-8.5980009065251011
30
0
10
8.7297948740054423
20
-8.7122504254487403
30
0
10
8.4490945620545723
20
-8.8235416794930455
30
0
10
8.1501167028741435
20
-8.9260745962215164
30
0
10
7.8572410952306431
20
-9.0171125065293669
30
0
10
7.5810268779375747
20
-9.0968372102838639
30
0
10
7.3227492236380316
20
-9.1673084055711591
30
0
10
7.0768073529395341
20
-9.231717408669569
30
0
10
6.8340825196699608
20
-9.2934895634026198
30
0
10
6.5846930680447882
20
-9.3555240563169857
30
0
10
6.3214882263403318
20
-9.4191922645096415
30
0
10
6.0407599908550056
20
-9.4843715851875849
30
0
10
5.7416167756500149
20
-9.5499942126874569
30
0
10
5.4257713707082704
20
-9.6144330140032732
30
0
10
5.0971709079563094
20
-9.6759561451968672
30
0
10
4.7616735262553096
20
-9.7331472866853268
30
0
10
4.426764560554437
20
-9.7853526093379291
30
0
10
4.1010977180594494
20
-9.8330663820522606
30
0
10
3.7930388558474593
20
-9.8772330101997881
30
0
10
3.5091366909079609
20
-9.9190502102506315
30
0
10
3.2529822495508527
20
-9.9587915280408428
30
0
10
3.0230746083381939
20
-9.9968394232013615
30
0
10
2.8130387559027517
20
-10.029571042798548
30
0
10
2.6058973095974771
20
-10.058127964057862
30
0
10
2.377096058838442
20
-10.094685845880258
30
0
10
2.1053510751673601
20
-10.14978357859933
30
0
10
1.7850630554522604
20
-10.218657532483842
30
0
10
1.428659069259016
20
-10.284482990463049
30
0
10
1.0957063537740221
20
-10.275079105072857
30
0
10
0.84358078792235947
20
-10.157302948400753
30
0
10
0.6927130719139738
20
-9.9692927174006822
30
0
10
0.63814002920691537
20
-9.763166374660825
30
0
10
0.64907372000198615
20
-9.5873780959438708
30
0
10
0.65741035642596168
20
-9.4409759575482823
30
0
10
0.65110445465237554
20
-9.2860218689746219
30
0
10
0.64288406165640788
20
-9.0882608034736005
30
0
10
0.64523861112383596
20
-8.8504843863676435
30
0
10
0.64413028107430448
20
-8.6467224758351318
30
0
10
0.65337565378919038
20
-8.4930519677462986
30
0
10
0.69089961034928815
20
-8.3887114844127346
30
0
10
0.77188873020314552
20
-8.3196450587714512
30
0
10
0.89578540343864022
20
-8.276571201340392
30
0
10
1.053919561686167
20
-8.2519929247954984
30
0
10
1.236309204077453
20
-8.2402012748976112
30
0
10
1.4364659250240279
20
-8.2362950764181573
30
0
10
1.6500559092042362
20
-8.2364766298585455
30
0
10
1.8748944739560975
20
-8.2379602705363766
30
0
10
2.1104034004331917
20
-8.2390422606656681
30
0
10
2.3573095639984025
20
-8.2391080564253443
30
0
10
2.6168132985378936
20
-8.2383323153411876
30
0
10
2.8898166893649271
20
-8.2373656403759767
30
0
10
3.1760791765041847
20
-8.2370183789480134
30
0
10
3.4735112501949161
20
-8.2379670411090746
30
0
10
3.7771452723762446
20
-8.2404000519572431
30
0
10
4.0791020089949317
20
-8.2438563854199831
30
0
10
4.3711173183468333
20
-8.2475601417244491
30
0
10
4.6464194761900472
20
-8.2506313045806454
30
0
10
4.9021793849882016
20
-8.2524014562131978
30
0
10
5.1409987429888311
20
-8.252556052744648
30
0
10
5.3745895262249013
20
-8.251669282098943
30
0
10
5.6199815770486623
20
-8.2503605225665897
30
0
10
5.8936895148593145
20
-8.24921125246982
30
0
10
6.2083726816983456
20
-8.2488532465443321
30
0
10
6.5675606040246128
20
-8.2501599784986936
30
0
10
6.9632481485264064
20
-8.2539789963627772
30
0
10
7.3674890400749069
20
-8.2620270254926229
30
0
10
7.7375323728765961
20
-8.2750095979691487
30
0
10
8.0590943037909195
20
-8.2876312493233311
30
0
10
8.3285085999572548
20
-8.2943419200221999
30
0
10
8.5532164277703284
20
-8.2923699575782095
30
0
10
8.7429707848404714
20
-8.2849821365087983
30
0
10
8.9091029574164704
20
-8.2866723906811686
30
0
10
9.022795099653008
20
-8.3161402481671569
30
0
10
9.0777573320224274
20
-8.3533274218225593
30
0
10
9.0958997468815497
20
-8.3836309979644987
30
0
10
9.1000002904201072
20
-8.4000002521229575
30
0
0
CIRCLE
5
102
100
AcDbEntity
8
0
100
AcDbCircle
10
0
20
-9.5000002872286817
30
0
40
0.12499999999999975
210
0
220
0
230
1
0
LINE
5
103
100
AcDbEntity
8
0
100
AcDbLine
10
12.181875
20
-7.6243749999999997
30
0
11
-12.181875
21
-7.6243749999999997
31
0
0
LINE
5
104
100
AcDbEntity
8
0
100
AcDbLine
10
-12.181875
20
-7.6243749999999997
30
0
11
-12.181874999999998
21
-7.751965732134094
31
0
0
ELLIPSE
5
105
100
AcDbEntity
8
0
100
AcDbEllipse
10
0
20
-0.49999999999999978
30
0
11
16.937999999999999
21
2.043999449940427e-15
31
0.0
40
0.61621797142519774
41
3.9097331968060303
42
5.5150447639633491
0
LINE
5
106
100
AcDbEntity
8
0
100
AcDbLine
10
12.181875
20
-7.7519657321340913
30
0
11
12.181875
21
-7.6243749999999997
31
0
0
ENDSEC
0
SECTION
2
OBJECTS
0
DICTIONARY
5
C
100
AcDbDictionary
3
ACAD_GROUP
350
D
3
ACAD_MLINESTYLE
350
17
0
DICTIONARY
5
D
100
AcDbDictionary
0
DICTIONARY
5
1A
330
C
100
AcDbDictionary
0
DICTIONARY
5
17
100
AcDbDictionary
0
ENDSEC
0
EOF
