0
SECTION
2
HEADER
9
$INSUNITS
70
1
9
$ACADVER
1
AC1014
9
$HANDSEED
5
FFFF
0
ENDSEC
0
SECTION
2
TABLES
0
TABLE
2
VPORT
5
8
100
AcDbSymbolTable
0
ENDTAB
0
TABLE
2
LTYPE
5
5
100
AcDbSymbolTable
0
LTYPE
5
14
100
AcDbSymbolTableRecord
100
AcDbLinetypeTableRecord
2
BYBLOCK
70
0
0
LTYPE
5
15
100
AcDbSymbolTableRecord
100
AcDbLinetypeTableRecord
2
BYLAYER
70
0
0
ENDTAB
0
TABLE
2
LAYER
5
2
100
AcDbSymbolTable
70
2
0
LAYER
5
50
100
AcDbSymbolTableRecord
100
AcDbLayerTableRecord
2
0
70
0
6
CONTINUOUS
0
ENDTAB
0
TABLE
2
STYLE
5
3
100
AcDbSymbolTable
70
1
0
STYLE
5
11
100
AcDbSymbolTableRecord
100
AcDbTextStyleTableRecord
2
STANDARD
70
0
0
ENDTAB
0
TABLE
2
VIEW
5
6
100
AcDbSymbolTable
70
0
0
ENDTAB
0
TABLE
2
UCS
5
7
100
AcDbSymbolTable
70
0
0
ENDTAB
0
TABLE
2
APPID
5
9
100
AcDbSymbolTable
70
2
0
APPID
5
12
100
AcDbSymbolTableRecord
100
AcDbRegAppTableRecord
2
ACAD
70
0
0
ENDTAB
0
TABLE
2
DIMSTYLE
5
A
100
AcDbSymbolTable
70
1
0
ENDTAB
0
TABLE
2
BLOCK_RECORD
5
1
100
AcDbSymbolTable
70
1
0
BLOCK_RECORD
5
1F
100
AcDbSymbolTableRecord
100
AcDbBlockTableRecord
2
*MODEL_SPACE
0
BLOCK_RECORD
5
1B
100
AcDbSymbolTableRecord
100
AcDbBlockTableRecord
2
*PAPER_SPACE
0
ENDTAB
0
ENDSEC
0
SECTION
2
BLOCKS
0
BLOCK
5
20
100
AcDbEntity
100
AcDbBlockBegin
2
*MODEL_SPACE
0
ENDBLK
5
21
100
AcDbEntity
100
AcDbBlockEnd
0
BLOCK
5
1C
100
AcDbEntity
100
AcDbBlockBegin
2
*PAPER_SPACE
0
ENDBLK
5
1D
100
AcDbEntity
100
AcDbBlockEnd
0
ENDSEC
0
SECTION
2
ENTITIES
0
LWPOLYLINE
5
100
100
AcDbEntity
8
0
100
AcDbPolyline
90
8
70
1
43
0.0
10
-9.3464999999999989
20
-8.1504999999999974
42
-0.41421356237309387
10
-9.696499999999995
20
-7.8005000000000031
10
-9.6964999999999986
20
-1.9194999999999989
42
-0.4142135623730942
10
-9.3464999999999989
20
-1.5694999999999997
10
-0.69349999999999945
20
-1.5695000000000001
42
-0.4142135623730952
10
-0.34349999999999925
20
-1.9195000000000004
10
-0.34349999999999786
20
-7.8004999999999987
42
-0.41421356237309759
10
-0.6934999999999979
20
-8.1504999999999992
0
LWPOLYLINE
5
101
100
AcDbEntity
8
0
100
AcDbPolyline
90
8
70
1
43
0.0
10
-3.9234999999999993
20
-0.3924999999999933
42
-0.41421356237309426
10
-4.2734999999999985
20
-0.74249999999999339
10
-12.926499999999995
20
-0.74249999999999483
42
-0.41421356237309609
10
-13.276499999999997
20
-0.3924999999999923
10
-13.276499999999997
20
5.4885000000000037
42
-0.41421356237309209
10
-12.926499999999997
20
5.8385000000000051
10
-4.2734999999999976
20
5.8385000000000051
42
-0.41421356237309681
10
-3.9234999999999993
20
5.4885000000000046
0
CIRCLE
5
102
100
AcDbEntity
8
0
100
AcDbCircle
10
14.399999825973209
20
-3.24999996072312
30
0
40
0.12500000000000097
210
0
220
0
230
1
0
LWPOLYLINE
5
103
100
AcDbEntity
8
0
100
AcDbPolyline
90
8
70
1
43
0.0
10
4.2734999999999905
20
-0.74250000000000127
42
-0.41421356237309465
10
3.9234999999999909
20
-0.39250000000000207
10
3.9234999999999962
20
5.4884999999999984
42
-0.41421356237309798
10
4.2734999999999959
20
5.838499999999998
10
12.926499999999995
20
5.8384999999999989
42
-0.4142135623730962
10
13.276499999999997
20
5.4884999999999957
10
13.276499999999997
20
-0.39250000000000201
42
-0.41421356237308948
10
12.926499999999995
20
-0.74250000000000183
0
LWPOLYLINE
5
104
100
AcDbEntity
8
0
100
AcDbPolyline
90
8
70
1
43
0.0
10
9.3464999999999971
20
-1.569500000000001
42
-0.4142135623730942
10
9.6964999999999986
20
-1.9195000000000011
10
9.6964999999999986
20
-7.8005000000000022
42
-0.41421356237309037
10
9.3464999999999989
20
-8.150500000000001
10
0.69349999999999667
20
-8.150500000000001
42
-0.41421356237309537
10
0.34349999999999692
20
-7.8005000000000004
10
0.34349999999999709
20
-1.9195000000000018
42
-0.41421356237309498
10
0.6934999999999979
20
-1.5695000000000012
0
LWPOLYLINE
5
105
100
AcDbEntity
8
0
100
AcDbPolyline
90
8
70
1
43
0.0
10
-2.4999999999999996
20
0.18400000000000261
42
-0.41421356237309626
10
-2.75
20
0.43400000000000311
10
-2.7499999999999991
20
8.6839999999999833
42
-0.41421356237309914
10
-2.4999999999999991
20
8.9339999999999868
10
2.5000000000000004
20
8.9339999999999851
42
-0.41421356237309626
10
2.7500000000000004
20
8.6839999999999868
10
2.7500000000000013
20
0.43400000000000871
42
-0.41421356237309659
10
2.5000000000000013
20
0.18400000000000824
0
CIRCLE
5
106
100
AcDbEntity
8
0
100
AcDbCircle
10
0
20
-9.0000002872286817
30
0
40
0.12499999999999975
210
0
220
0
230
1
0
CIRCLE
5
107
100
AcDbEntity
8
0
100
AcDbCircle
10
-14.399999825973209
20
-3.24999996072312
30
0
40
0.12500000000000097
210
0
220
0
230
1
0
CIRCLE
5
108
100
AcDbEntity
8
0
100
AcDbCircle
10
6.9999999154036434
20
7.9999999033184492
30
0
40
0.1249999999999996
210
0
220
0
230
1
0
CIRCLE
5
109
100
AcDbEntity
8
0
100
AcDbCircle
10
-6.9999999154036434
20
7.9999999033184492
30
0
40
0.1249999999999996
210
0
220
0
230
1
0
ELLIPSE
5
110
100
AcDbEntity
8
0
100
AcDbEllipse
10
0
20
0
30
0
11
16.937499999999996
21
-6.2305461622724465e-15
31
0.0
40
0.61623616236162349
41
0
42
6.2831853071795862
0
ENDSEC
0
SECTION
2
OBJECTS
0
DICTIONARY
5
C
100
AcDbDictionary
3
ACAD_GROUP
350
D
3
ACAD_MLINESTYLE
350
17
0
DICTIONARY
5
D
100
AcDbDictionary
0
DICTIONARY
5
1A
330
C
100
AcDbDictionary
0
DICTIONARY
5
17
100
AcDbDictionary
0
ENDSEC
0
EOF
