0
SECTION
2
HEADER
9
$INSUNITS
70
1
9
$ACADVER
1
AC1014
9
$HANDSEED
5
FFFF
0
ENDSEC
0
SECTION
2
TABLES
0
TABLE
2
VPORT
5
8
100
AcDbSymbolTable
0
ENDTAB
0
TABLE
2
LTYPE
5
5
100
AcDbSymbolTable
0
LTYPE
5
14
100
AcDbSymbolTableRecord
100
AcDbLinetypeTableRecord
2
BYBLOCK
70
0
0
LTYPE
5
15
100
AcDbSymbolTableRecord
100
AcDbLinetypeTableRecord
2
BYLAYER
70
0
0
LTYPE
5
16
100
AcDbSymbolTableRecord
100
AcDbLinetypeTableRecord
2
DASHED
70
0
3
Dashed __ __ __ __ __ __ __ __ __ __ __ __ __ _
72
65
73
2
40
0.75
49
0.5
74
0
49
-0.25
74
0
0
ENDTAB
0
TABLE
2
LAYER
5
2
100
AcDbSymbolTable
70
3
0
LAYER
5
50
100
AcDbSymbolTableRecord
100
AcDbLayerTableRecord
2
1
70
0
62
7
6
DASHED
0
LAYER
5
51
100
AcDbSymbolTableRecord
100
AcDbLayerTableRecord
2
0
70
0
62
7
6
CONTINUOUS
0
ENDTAB
0
TABLE
2
STYLE
5
3
100
AcDbSymbolTable
70
1
0
STYLE
5
11
100
AcDbSymbolTableRecord
100
AcDbTextStyleTableRecord
2
STANDARD
70
0
0
ENDTAB
0
TABLE
2
VIEW
5
6
100
AcDbSymbolTable
70
0
0
ENDTAB
0
TABLE
2
UCS
5
7
100
AcDbSymbolTable
70
0
0
ENDTAB
0
TABLE
2
APPID
5
9
100
AcDbSymbolTable
70
2
0
APPID
5
12
100
AcDbSymbolTableRecord
100
AcDbRegAppTableRecord
2
ACAD
70
0
0
ENDTAB
0
TABLE
2
DIMSTYLE
5
A
100
AcDbSymbolTable
70
1
0
ENDTAB
0
TABLE
2
BLOCK_RECORD
5
1
100
AcDbSymbolTable
70
1
0
BLOCK_RECORD
5
1F
100
AcDbSymbolTableRecord
100
AcDbBlockTableRecord
2
*MODEL_SPACE
0
BLOCK_RECORD
5
1B
100
AcDbSymbolTableRecord
100
AcDbBlockTableRecord
2
*PAPER_SPACE
0
ENDTAB
0
ENDSEC
0
SECTION
2
BLOCKS
0
BLOCK
5
20
100
AcDbEntity
100
AcDbBlockBegin
2
*MODEL_SPACE
0
ENDBLK
5
21
100
AcDbEntity
100
AcDbBlockEnd
0
BLOCK
5
1C
100
AcDbEntity
100
AcDbBlockBegin
2
*PAPER_SPACE
0
ENDBLK
5
1D
100
AcDbEntity
100
AcDbBlockEnd
0
ENDSEC
0
SECTION
2
ENTITIES
0
CIRCLE
5
100
100
AcDbEntity
8
0
100
AcDbCircle
10
-14.399999825973209
20
-3.24999996072312
30
0
40
0.19500000000000009
210
0
220
0
230
1
0
LWPOLYLINE
5
101
100
AcDbEntity
8
0
100
AcDbPolyline
90
9
70
1
43
0.0
10
4.6818750000000016
20
7.1243750000000459
10
10.681875
20
7.1243750000000015
10
10.681874999999991
20
-6.2493749999999748
42
-0.41421356237309997
10
10.55687499999997
20
-6.3743749999999997
10
-10.556875000000018
20
-6.3743749999999997
42
-0.41421356237309342
10
-10.681875000000014
20
-6.249375000000005
10
-10.68187500000001
20
6.2493750000000228
42
-0.41421356237309503
10
-10.556875000000026
20
6.3743750000000095
10
4.6818750000000016
20
6.3743750000000103
0
SPLINE
5
102
100
AcDbEntity
8
0
100
AcDbSpline
70
4
71
5
72
31
73
25
74
0
42
0.000000001
43
0.0000000001
44
0.0000000001
40
0.45545049491420175
40
0.45545049491420175
40
0.45545049491420175
40
0.45545049491420175
40
0.45545049491420175
40
0.45545049491420175
40
0.45714285714285724
40
0.48571428571428582
40
0.51428571428571435
40
0.54285714285714293
40
0.57142857142857151
40
0.60000000000000009
40
0.62857142857142867
40
0.65714285714285725
40
0.68571428571428583
40
0.71428571428571441
40
0.74285714285714299
40
0.77142857142857157
40
0.80000000000000016
40
0.82857142857142874
40
0.85714285714285732
40
0.8857142857142859
40
0.91428571428571448
40
0.94285714285714306
40
0.97142857142857164
40
1
40
1
40
1
40
1
40
1
40
1
41
1
41
1
41
1
41
1
41
1
41
1
41
1
41
1
41
1
41
1
41
1
41
1
41
1
41
1
41
1
41
1
41
1
41
1
41
1
41
1
41
1
41
1
41
1
41
1
41
1
10
-8.6987664936056657
20
6.9860639485716511
30
0
10
-8.6987650198420567
20
6.9860620934118876
30
0
10
-8.6987201223040547
20
6.986001000328816
30
0
10
-8.6982705909714397
20
6.9849022434673333
30
0
10
-8.7111394969536384
20
6.9799903176690572
30
0
10
-8.8085387850425327
20
6.9678552434132177
30
0
10
-9.0683631243596796
20
6.9522490717021688
30
0
10
-9.4347466978760508
20
6.9484990504791195
30
0
10
-9.8329114752997349
20
6.9700075480567278
30
0
10
-10.178839242429401
20
7.0281205962738635
30
0
10
-10.396903342833088
20
7.1293395777662205
30
0
10
-10.447735552045714
20
7.2717318309432386
30
0
10
-10.338617864488064
20
7.4440235172653866
30
0
10
-10.105166738136052
20
7.6300132700842962
30
0
10
-9.7992698175028341
20
7.8118324306395337
30
0
10
-9.4744072518146005
20
7.9735946529340911
30
0
10
-9.1727058089733635
20
8.1050129028140105
30
0
10
-8.9099524450675265
20
8.2047428426718021
30
0
10
-8.6627067748707347
20
8.2850005269430937
30
0
10
-8.4382156833910944
20
8.353933555408128
30
0
10
-8.2502328110943228
20
8.416956085374462
30
0
10
-8.1366093597091371
20
8.4583423978564092
30
0
10
-8.0736961054833731
20
8.4803680094644136
30
0
10
-8.0361092964806691
20
8.4858584031521858
30
0
10
-8.0179213135517298
20
8.4859406136866475
30
0
0
SPLINE
5
103
100
AcDbEntity
8
0
100
AcDbSpline
70
4
71
5
72
27
73
21
74
0
42
0.000000001
43
0.0000000001
44
0.0000000001
40
0
40
0
40
0
40
0
40
0
40
0
40
0.028571428571428571
40
0.057142857142857141
40
0.085714285714285715
40
0.11428571428571428
40
0.14285714285714285
40
0.17142857142857143
40
0.20000000000000001
40
0.22857142857142859
40
0.25714285714285717
40
0.28571428571428575
40
0.31428571428571433
40
0.34285714285714292
40
0.3714285714285715
40
0.40000000000000008
40
0.42857142857142866
40
0.45446413607416675
40
0.45446413607416675
40
0.45446413607416675
40
0.45446413607416675
40
0.45446413607416675
40
0.45446413607416675
41
1
41
1
41
1
41
1
41
1
41
1
41
1
41
1
41
1
41
1
41
1
41
1
41
1
41
1
41
1
41
1
41
1
41
1
41
1
41
1
41
1
10
-8.0179213135517298
20
8.4859406136866475
30
0
10
-7.9997333306227905
20
8.4860228242211111
30
0
10
-7.9645682079097728
20
8.4808612726712234
30
0
10
-7.9125525419874299
20
8.4549531307095762
30
0
10
-7.8381312977259228
20
8.3821353497244893
30
0
10
-7.7789542300621619
20
8.2778799622651142
30
0
10
-7.7734009828547768
20
8.1952417160829398
30
0
10
-7.7847898533256892
20
8.1200711117150774
30
0
10
-7.7594413119744603
20
8.0165903781616787
30
0
10
-7.6809347882066632
20
7.8642866833686274
30
0
10
-7.5868814110419649
20
7.6724527436891679
30
0
10
-7.5357708766057989
20
7.4652617448941534
30
0
10
-7.5839262092705919
20
7.273456659164804
30
0
10
-7.7623819688248936
20
7.1243244228426983
30
0
10
-8.0440616809171495
20
7.0302197139296112
30
0
10
-8.3504515255986753
20
6.9859682820736397
30
0
10
-8.586946059171332
20
6.976961950468537
30
0
10
-8.6824504796335749
20
6.9819649710209193
30
0
10
-8.6977760326282443
20
6.9852257686515529
30
0
10
-8.69873776555227
20
6.9860372662999515
30
0
10
-8.6987663667503554
20
6.986064082211386
30
0
0
CIRCLE
5
104
100
AcDbEntity
8
0
100
AcDbCircle
10
0
20
-9.0000002872286817
30
0
40
0.19499999999999998
210
0
220
0
230
1
0
SPLINE
5
105
100
AcDbEntity
8
0
100
AcDbSpline
70
4
71
5
72
70
73
64
74
0
42
0.000000001
43
0.0000000001
44
0.0000000001
40
0
40
0
40
0
40
0
40
0
40
0
40
0.016666666666666666
40
0.033333333333333333
40
0.050000000000000003
40
0.066666666666666666
40
0.083333333333333329
40
0.099999999999999992
40
0.11666666666666665
40
0.13333333333333333
40
0.14999999999999999
40
0.16666666666666666
40
0.18333333333333332
40
0.19999999999999998
40
0.21666666666666665
40
0.23333333333333331
40
0.24999999999999997
40
0.26666666666666666
40
0.28333333333333333
40
0.29999999999999999
40
0.31666666666666665
40
0.33333333333333331
40
0.34999999999999998
40
0.36666666666666664
40
0.3833333333333333
40
0.39999999999999997
40
0.41666666666666663
40
0.43333333333333329
40
0.44999999999999996
40
0.46666666666666662
40
0.48333333333333328
40
0.49999999999999994
40
0.51666666666666661
40
0.53333333333333333
40
0.55000000000000004
40
0.56666666666666676
40
0.58333333333333348
40
0.6000000000000002
40
0.61666666666666692
40
0.63333333333333364
40
0.65000000000000036
40
0.66666666666666707
40
0.68333333333333379
40
0.70000000000000051
40
0.71666666666666723
40
0.73333333333333395
40
0.75000000000000067
40
0.76666666666666738
40
0.7833333333333341
40
0.80000000000000082
40
0.81666666666666754
40
0.83333333333333426
40
0.85000000000000098
40
0.8666666666666677
40
0.88333333333333441
40
0.90000000000000113
40
0.91666666666666785
40
0.93333333333333457
40
0.95000000000000129
40
0.96666666666666801
40
0.96750587700064961
40
0.96750587700064961
40
0.96750587700064961
40
0.96750587700064961
40
0.96750587700064961
40
0.96750587700064961
41
1
41
1
41
1
41
1
41
1
41
1
41
1
41
1
41
1
41
1
41
1
41
1
41
1
41
1
41
1
41
1
41
1
41
1
41
1
41
1
41
1
41
1
41
1
41
1
41
1
41
1
41
1
41
1
41
1
41
1
41
1
41
1
41
1
41
1
41
1
41
1
41
1
41
1
41
1
41
1
41
1
41
1
41
1
41
1
41
1
41
1
41
1
41
1
41
1
41
1
41
1
41
1
41
1
41
1
41
1
41
1
41
1
41
1
41
1
41
1
41
1
41
1
41
1
41
1
10
0
20
7.0000002234000851
30
0
10
-0.047382072321510378
20
6.9996407268404495
30
0
10
-0.14207781090369032
20
6.9987937892937451
30
0
10
-0.28391180688009471
20
6.9971398453532645
30
0
10
-0.47243819733791897
20
6.9945469972633321
30
0
10
-0.70744002067092859
20
6.9925114359960041
30
0
10
-0.94550021264135953
20
6.9933693990528942
30
0
10
-1.1943444702129264
20
6.9977155133473135
30
0
10
-1.4708127123908223
20
7.0038238467474203
30
0
10
-1.7967182016353938
20
7.0069559037027451
30
0
10
-2.1386958823401132
20
7.0066514045853072
30
0
10
-2.4500336863037768
20
7.0039672426732587
30
0
10
-2.691712600670833
20
7.0010016323628461
30
0
10
-2.8542175292449148
20
6.9995909760098733
30
0
10
-2.996264233378072
20
7.0001770344977343
30
0
10
-3.239002577239507
20
7.0009688460231487
30
0
10
-3.5571623753358113
20
7.0013155554425364
30
0
10
-3.8833189962283026
20
7.0010109391088076
30
0
10
-4.1510240038353912
20
7.0001565345707712
30
0
10
-4.3174858939596987
20
6.999841626610853
30
0
10
-4.5021477264961485
20
7.0000236194483056
30
0
10
-4.7486529716702854
20
7.0057498872059893
30
0
10
-4.976948688545562
20
7.0205144716617216
30
0
10
-5.1130974633926174
20
7.0444402421287338
30
0
10
-5.2098036614765704
20
7.0540765330614184
30
0
10
-5.4213356537722683
20
7.0305609197526069
30
0
10
-5.7167034146341997
20
7.0170130427112287
30
0
10
-6.0320153473175822
20
7.0529353145295692
30
0
10
-6.2770353100034901
20
7.1630022693056352
30
0
10
-6.4088103371334659
20
7.2913307648480323
30
0
10
-6.4633420920739857
20
7.3310302744860723
30
0
10
-6.458045626510267
20
7.3869577156428559
30
0
10
-6.4213745508934901
20
7.5256966685638034
30
0
10
-6.3834981372473498
20
7.7437566905074107
30
0
10
-6.3707186215435376
20
7.9995811117620805
30
0
10
-6.3969101881970865
20
8.2393081664462873
30
0
10
-6.4555081078513208
20
8.4259845806007903
30
0
10
-6.5135205628644606
20
8.5627644143779325
30
0
10
-6.5289362332741447
20
8.6722881219930414
30
0
10
-6.4645746552493328
20
8.7815489005940535
30
0
10
-6.3060137052582208
20
8.9016639264054032
30
0
10
-6.060433418381665
20
9.0289113803730601
30
0
10
-5.7493295821558048
20
9.1519859250833289
30
0
10
-5.4038448229647207
20
9.2573401919950644
30
0
10
-5.0577716291786192
20
9.335002887168443
30
0
10
-4.7444554114937558
20
9.3849063481785677
30
0
10
-4.4855615879349582
20
9.4217378966201721
30
0
10
-4.2626333368080402
20
9.4542789757893484
30
0
10
-4.0419592330042429
20
9.4895446402259758
30
0
10
-3.785372113822155
20
9.5308893493279765
30
0
10
-3.467185682760578
20
9.5785241516393231
30
0
10
-3.0874084286979837
20
9.6290108745926801
30
0
10
-2.6907748281779047
20
9.6749836620627132
30
0
10
-2.302505338667594
20
9.713296261655449
30
0
10
-1.9402257223770067
20
9.7428992786947557
30
0
10
-1.6121131586277455
20
9.7646680219759912
30
0
10
-1.3203083122871375
20
9.7804871987652113
30
0
10
-1.0620931126541731
20
9.7926337846201008
30
0
10
-0.83197268098701482
20
9.8030813789234355
30
0
10
-0.66307259782899641
20
9.8108903212020007
30
0
10
-0.54318809902589382
20
9.8161348046745722
30
0
10
-0.46519976078561726
20
9.8191999804506356
30
0
10
-0.42584903447596167
20
9.8206257592349075
30
0
10
-0.42396398139778235
20
9.8206937747548153
30
0
0
LINE
5
106
100
AcDbEntity
8
0
100
AcDbLine
10
-0.42396398139778235
20
9.8206937747548153
30
0
11
-0.53458717149189583
21
9.8099592251599912
31
0
0
LINE
5
107
100
AcDbEntity
8
0
100
AcDbLine
10
-0.53458717149189583
20
9.8099592251599912
30
0
11
0.13969153783329755
21
9.8099592251599912
31
0
0
SPLINE
5
108
100
AcDbEntity
8
0
100
AcDbSpline
70
4
71
5
72
66
73
60
74
0
42
0.000000001
43
0.0000000001
44
0.0000000001
40
-1
40
-1
40
-1
40
-1
40
-1
40
-1
40
-0.98181818181818203
40
-0.96363636363636385
40
-0.94545454545454566
40
-0.92727272727272747
40
-0.90909090909090928
40
-0.89090909090909109
40
-0.87272727272727291
40
-0.85454545454545472
40
-0.83636363636363653
40
-0.81818181818181834
40
-0.80000000000000016
40
-0.78181818181818197
40
-0.76363636363636378
40
-0.74545454545454559
40
-0.7272727272727274
40
-0.70909090909090922
40
-0.69090909090909103
40
-0.67272727272727284
40
-0.65454545454545465
40
-0.63636363636363646
40
-0.61818181818181828
40
-0.60000000000000009
40
-0.5818181818181819
40
-0.56363636363636371
40
-0.54545454545454553
40
-0.52727272727272734
40
-0.50909090909090915
40
-0.49090909090909102
40
-0.47272727272727283
40
-0.45454545454545464
40
-0.43636363636363645
40
-0.41818181818181827
40
-0.40000000000000008
40
-0.38181818181818189
40
-0.3636363636363637
40
-0.34545454545454551
40
-0.32727272727272733
40
-0.30909090909090914
40
-0.29090909090909095
40
-0.27272727272727276
40
-0.25454545454545457
40
-0.23636363636363641
40
-0.21818181818181823
40
-0.20000000000000004
40
-0.18181818181818185
40
-0.16363636363636366
40
-0.14545454545454548
40
-0.12727272727272729
40
-0.1090909090909091
40
-0.090909090909090912
40
-0.072727272727272724
40
-0.054545454545454543
40
-0.036363636363636362
40
-0.018181818181818181
40
-0.013896471085501327
40
-0.013896471085501327
40
-0.013896471085501327
40
-0.013896471085501327
40
-0.013896471085501327
40
-0.013896471085501327
41
1
41
1
41
1
41
1
41
1
41
1
41
1
41
1
41
1
41
1
41
1
41
1
41
1
41
1
41
1
41
1
41
1
41
1
41
1
41
1
41
1
41
1
41
1
41
1
41
1
41
1
41
1
41
1
41
1
41
1
41
1
41
1
41
1
41
1
41
1
41
1
41
1
41
1
41
1
41
1
41
1
41
1
41
1
41
1
41
1
41
1
41
1
41
1
41
1
41
1
41
1
41
1
41
1
41
1
41
1
41
1
41
1
41
1
41
1
41
1
10
0.13969153783329918
20
9.809959225159993
30
0
10
0.17490633173964257
20
9.8096197461892913
30
0
10
0.2465273579645085
20
9.809085540805679
30
0
10
0.35753283790838397
20
9.8087183578902195
30
0
10
0.51263796056830735
20
9.8087510849640438
30
0
10
0.71867353303975534
20
9.8077269189496707
30
0
10
0.93843085998717346
20
9.8033209544514275
30
0
10
1.1753390844430747
20
9.7934630570101682
30
0
10
1.4357503878866689
20
9.777106523834977
30
0
10
1.7269561098980761
20
9.7541140962474078
30
0
10
2.0534306426193774
20
9.7248246749376008
30
0
10
2.4150982120807196
20
9.6898011327865703
30
0
10
2.8015483942815922
20
9.649340039574076
30
0
10
3.1953603736891902
20
9.6034608028380415
30
0
10
3.5540493059789857
20
9.5507971059111139
30
0
10
3.8483029285669819
20
9.4903745889644462
30
0
10
4.0954813632764679
20
9.423870701411845
30
0
10
4.3273152945700151
20
9.3540876019417585
30
0
10
4.579620429370868
20
9.2853708689897392
30
0
10
4.8769195640221303
20
9.2219219920322075
30
0
10
5.2094203948355426
20
9.1700335020992405
30
0
10
5.5388189632232336
20
9.1307561488719173
30
0
10
5.8379399713389732
20
9.0934586105641024
30
0
10
6.0816494568362982
20
9.0438251584947533
30
0
10
6.2550638936439764
20
8.966996272887501
30
0
10
6.3537816793418402
20
8.8523372127124436
30
0
10
6.3893443587799368
20
8.6985187875484122
30
0
10
6.3857056598082629
20
8.5147169005560865
30
0
10
6.3664558841805219
20
8.3166213676228598
30
0
10
6.345214219769467
20
8.1237135091468531
30
0
10
6.3125794970654914
20
7.9562951777100341
30
0
10
6.2476211527815666
20
7.8307960023721916
30
0
10
6.1307057329943841
20
7.7556067673231555
30
0
10
5.959122419967362
20
7.7249249151333554
30
0
10
5.7476078898361678
20
7.721160411331728
30
0
10
5.5158722886395388
20
7.7248442694871287
30
0
10
5.2816166489675833
20
7.7208457243772672
30
0
10
5.0474509882262666
20
7.7095567723701937
30
0
10
4.8038445182956266
20
7.7038460061557164
30
0
10
4.5456209000220102
20
7.7131595442229406
30
0
10
4.292177989909101
20
7.7251879139166046
30
0
10
4.0905616330855379
20
7.700968110790873
30
0
10
4.0699607557753685
20
7.5294224818414817
30
0
10
4.1068507320292511
20
7.280155640907541
30
0
10
4.0256142507337414
20
7.0709740649187083
30
0
10
3.7159213494520449
20
6.9913736445984815
30
0
10
3.3350305888610685
20
6.9729794934746332
30
0
10
2.948436185892807
20
6.9815120289563568
30
0
10
2.586721761677746
20
6.9930187839572255
30
0
10
2.2473795442998701
20
6.9975756318124018
30
0
10
1.9143661025867116
20
6.9931453580984693
30
0
10
1.5750784432770126
20
6.9836660412723202
30
0
10
1.2268876347786011
20
6.975209602956828
30
0
10
0.91655958953227668
20
6.9733005437415576
30
0
10
0.6615076590714154
20
6.9783514917022993
30
0
10
0.47767996988881645
20
6.9861393394789912
30
0
10
0.3420828022133191
20
6.992009325159751
30
0
10
0.24516281391736663
20
6.9952838493633891
30
0
10
0.18997138208967593
20
6.9967696958270533
30
0
10
0.179381294636589
20
6.9970407871327938
30
0
0
LINE
5
109
100
AcDbEntity
8
0
100
AcDbLine
10
0.179381294636589
20
6.9970407871327938
30
0
11
0
21
7.0000002234000851
31
0
0
CIRCLE
5
110
100
AcDbEntity
8
0
100
AcDbCircle
10
14.399999825973209
20
-3.24999996072312
30
0
40
0.19500000000000009
210
0
220
0
230
1
0
SPLINE
5
111
100
AcDbEntity
8
0
100
AcDbSpline
70
6
71
5
72
131
73
125
74
0
42
0.000000001
43
0.0000000001
44
0.0000000001
40
-1
40
-1
40
-1
40
-1
40
-1
40
-1
40
-0.99166666666666559
40
-0.98333333333333228
40
-0.97499999999999898
40
-0.96666666666666567
40
-0.95833333333333237
40
-0.94999999999999907
40
-0.94166666666666576
40
-0.93333333333333246
40
-0.92499999999999916
40
-0.91666666666666585
40
-0.90833333333333255
40
-0.89999999999999925
40
-0.89166666666666594
40
-0.88333333333333264
40
-0.87499999999999933
40
-0.86666666666666603
40
-0.85833333333333273
40
-0.84999999999999942
40
-0.84166666666666612
40
-0.83333333333333282
40
-0.82499999999999951
40
-0.81666666666666621
40
-0.8083333333333329
40
-0.7999999999999996
40
-0.7916666666666663
40
-0.78333333333333299
40
-0.77499999999999969
40
-0.76666666666666639
40
-0.75833333333333308
40
-0.74999999999999978
40
-0.74166666666666647
40
-0.73333333333333317
40
-0.72499999999999987
40
-0.71666666666666656
40
-0.70833333333333326
40
-0.69999999999999996
40
-0.69166666666666665
40
-0.68333333333333335
40
-0.67500000000000004
40
-0.66666666666666674
40
-0.65833333333333344
40
-0.65000000000000013
40
-0.64166666666666683
40
-0.63333333333333353
40
-0.62500000000000022
40
-0.61666666666666692
40
-0.60833333333333361
40
-0.60000000000000031
40
-0.59166666666666701
40
-0.5833333333333337
40
-0.5750000000000004
40
-0.5666666666666671
40
-0.55833333333333379
40
-0.55000000000000049
40
-0.54166666666666718
40
-0.53333333333333388
40
-0.52500000000000058
40
-0.51666666666666727
40
-0.50833333333333397
40
-0.50000000000000067
40
-0.49166666666666736
40
-0.483333333333334
40
-0.47500000000000064
40
-0.46666666666666728
40
-0.45833333333333393
40
-0.45000000000000057
40
-0.44166666666666721
40
-0.43333333333333385
40
-0.42500000000000049
40
-0.41666666666666713
40
-0.40833333333333377
40
-0.40000000000000041
40
-0.39166666666666705
40
-0.38333333333333369
40
-0.37500000000000033
40
-0.36666666666666697
40
-0.35833333333333361
40
-0.35000000000000026
40
-0.3416666666666669
40
-0.33333333333333354
40
-0.32500000000000018
40
-0.31666666666666682
40
-0.30833333333333346
40
-0.3000000000000001
40
-0.29166666666666674
40
-0.28333333333333338
40
-0.27500000000000002
40
-0.26666666666666666
40
-0.2583333333333333
40
-0.24999999999999997
40
-0.24166666666666664
40
-0.23333333333333331
40
-0.22499999999999998
40
-0.21666666666666665
40
-0.20833333333333331
40
-0.19999999999999998
40
-0.19166666666666665
40
-0.18333333333333332
40
-0.17499999999999999
40
-0.16666666666666666
40
-0.15833333333333333
40
-0.14999999999999999
40
-0.14166666666666666
40
-0.13333333333333333
40
-0.12499999999999999
40
-0.11666666666666665
40
-0.10833333333333332
40
-0.099999999999999992
40
-0.09166666666666666
40
-0.083333333333333329
40
-0.074999999999999997
40
-0.066666666666666666
40
-0.058333333333333327
40
-0.049999999999999996
40
-0.041666666666666664
40
-0.033333333333333333
40
-0.025000000000000001
40
-0.016666666666666666
40
-0.0083333333333333332
40
0
40
0
40
0
40
0
40
0
40
0
41
1
41
1
41
1
41
1
41
1
41
1
41
1
41
1
41
1
41
1
41
1
41
1
41
1
41
1
41
1
41
1
41
1
41
1
41
1
41
1
41
1
41
1
41
1
41
1
41
1
41
1
41
1
41
1
41
1
41
1
41
1
41
1
41
1
41
1
41
1
41
1
41
1
41
1
41
1
41
1
41
1
41
1
41
1
41
1
41
1
41
1
41
1
41
1
41
1
41
1
41
1
41
1
41
1
41
1
41
1
41
1
41
1
41
1
41
1
41
1
41
1
41
1
41
1
41
1
41
1
41
1
41
1
41
1
41
1
41
1
41
1
41
1
41
1
41
1
41
1
41
1
41
1
41
1
41
1
41
1
41
1
41
1
41
1
41
1
41
1
41
1
41
1
41
1
41
1
41
1
41
1
41
1
41
1
41
1
41
1
41
1
41
1
41
1
41
1
41
1
41
1
41
1
41
1
41
1
41
1
41
1
41
1
41
1
41
1
41
1
41
1
41
1
41
1
41
1
41
1
41
1
41
1
41
1
41
1
41
1
41
1
41
1
41
1
41
1
41
1
10
-12.839475771236689
20
6.0703915634320369
30
0
10
-12.786236452006749
20
6.112497946174825
30
0
10
-12.677925516725903
20
6.1969025807180573
30
0
10
-12.509551406120321
20
6.3239847949965844
30
0
10
-12.273603725572375
20
6.4883173515215349
30
0
10
-11.979935701806932
20
6.6270053156199227
30
0
10
-11.716188796858534
20
6.6531186350706983
30
0
10
-11.511060565938672
20
6.5449740411725683
30
0
10
-11.394591750929932
20
6.3752663876444133
30
0
10
-11.369163427837396
20
6.2604734726865114
30
0
10
-11.378703819031777
20
6.1484536110978745
30
0
10
-11.374794145756093
20
5.9845958816886347
30
0
10
-11.348688946704549
20
5.7558625176775289
30
0
10
-11.31540988273335
20
5.4841874846591381
30
0
10
-11.295734291946877
20
5.2048049318945662
30
0
10
-11.300654223458638
20
4.9532376285693367
30
0
10
-11.310413419154321
20
4.7445459428569157
30
0
10
-11.31578512478961
20
4.5457276070576862
30
0
10
-11.312273611272628
20
4.3162975455400909
30
0
10
-11.300768653069879
20
4.0225149267849467
30
0
10
-11.28840016357416
20
3.6865044256453823
30
0
10
-11.282540259634732
20
3.3571281018430068
30
0
10
-11.28353257085843
20
3.036867930944529
30
0
10
-11.289402160964681
20
2.718321656355621
30
0
10
-11.2961702596523
20
2.3816784075799817
30
0
10
-11.300372023106396
20
2.0096855033771504
30
0
10
-11.299806956970695
20
1.5926046069527349
30
0
10
-11.297073920609327
20
1.1436056935718091
30
0
10
-11.29430160833796
20
0.68729850746469456
30
0
10
-11.292178609980052
20
0.24990954083260788
30
0
10
-11.29086640135888
20
-0.14523924229975532
30
0
10
-11.290047449560621
20
-0.48254651802870357
30
0
10
-11.289463033686037
20
-0.76331577825610042
30
0
10
-11.288966769803171
20
-1.0026126211637796
30
0
10
-11.289437516663241
20
-1.2563207479832794
30
0
10
-11.291442154146726
20
-1.5633204309372375
30
0
10
-11.294399984361592
20
-1.9139125779547363
30
0
10
-11.29742628913313
20
-2.2821077760022832
30
0
10
-11.299582049120129
20
-2.6361761421241394
30
0
10
-11.300265834428552
20
-2.9522852091104483
30
0
10
-11.299801332761968
20
-3.2411493953553618
30
0
10
-11.299314672416147
20
-3.533714670933076
30
0
10
-11.299297638693943
20
-3.8129970318553514
30
0
10
-11.299746896909488
20
-4.0618512965125451
30
0
10
-11.300405034817924
20
-4.2654026966024849
30
0
10
-11.299618130952862
20
-4.4507776088108013
30
0
10
-11.297057257818656
20
-4.6662089628484349
30
0
10
-11.296722837033554
20
-4.8944252803229533
30
0
10
-11.300234727181737
20
-5.1169670713988422
30
0
10
-11.302010624878198
20
-5.3336323087594915
30
0
10
-11.285519521390802
20
-5.5983293387237563
30
0
10
-11.259700880981731
20
-5.9022208835193233
30
0
10
-11.242582707357867
20
-6.2152919596908323
30
0
10
-11.256501185930446
20
-6.4930035292685222
30
0
10
-11.319506755137727
20
-6.6953101315276875
30
0
10
-11.436480320049482
20
-6.8039982921297231
30
0
10
-11.597166134223619
20
-6.8279921945903457
30
0
10
-11.784969915194015
20
-6.7880239744282003
30
0
10
-11.984085231124098
20
-6.7046342217444899
30
0
10
-12.183762076441566
20
-6.5914337235489944
30
0
10
-12.37751866895054
20
-6.4579786304775588
30
0
10
-12.56366799908934
20
-6.3099798543759666
30
0
10
-12.745490703672596
20
-6.1506196305378689
30
0
10
-12.931018101691361
20
-5.9813496048373791
30
0
10
-13.129005468771359
20
-5.8026170530473529
30
0
10
-13.345443390419737
20
-5.6145284813062322
30
0
10
-13.579756018677248
20
-5.4175577274320244
30
0
10
-13.821366581580378
20
-5.213196310287131
30
0
10
-14.045461358863788
20
-5.0047338940754607
30
0
10
-14.220817954080985
20
-4.7960363529420098
30
0
10
-14.318640965922173
20
-4.5901461174896454
30
0
10
-14.320887578286198
20
-4.3879900144450676
30
0
10
-14.22915093967185
20
-4.1869406685006822
30
0
10
-14.072361368364296
20
-3.9797179028878689
30
0
10
-13.895154089583594
20
-3.7586351978055959
30
0
10
-13.747017644731024
20
-3.5197214157811003
30
0
10
-13.671474356993055
20
-3.2666207071665059
30
0
10
-13.694496387072221
20
-3.0152173755242386
30
0
10
-13.815431364951918
20
-2.7961309365043068
30
0
10
-14.016225942173623
20
-2.642358212233511
30
0
10
-14.26887591747151
20
-2.5781277397709408
30
0
10
-14.543350325956544
20
-2.6078988789045434
30
0
10
-14.815842581487694
20
-2.7036742902506119
30
0
10
-15.069105952759891
20
-2.8172209387942329
30
0
10
-15.291950545565074
20
-2.8950518560996343
30
0
10
-15.479015125359888
20
-2.8919766919346235
30
0
10
-15.63050006070864
20
-2.7862603707193379
30
0
10
-15.751707987196848
20
-2.5912174858012316
30
0
10
-15.850707926995808
20
-2.340105196943139
30
0
10
-15.936079045142888
20
-2.0728473964700704
30
0
10
-16.014830884607438
20
-1.8232799914643074
30
0
10
-16.089731768978023
20
-1.6031393844977551
30
0
10
-16.159720179105967
20
-1.4040733356448574
30
0
10
-16.221745616884167
20
-1.2080959764072956
30
0
10
-16.272066603721093
20
-0.99483024572517675
30
0
10
-16.307969360843366
20
-0.75124405903179681
30
0
10
-16.32866594384685
20
-0.47651859505755328
30
0
10
-16.334575678396899
20
-0.17731376962102907
30
0
10
-16.326933522806268
20
0.13501556070079312
30
0
10
-16.307257706189709
20
0.44806096628347797
30
0
10
-16.276903987790138
20
0.75143637872427316
30
0
10
-16.236513668455302
20
1.0406172869121064
30
0
10
-16.186104542973379
20
1.3159645776747508
30
0
10
-16.125282318455294
20
1.5808481217234653
30
0
10
-16.053415003649565
20
1.8400262177806426
30
0
10
-15.969812673319513
20
2.0980418363594655
30
0
10
-15.873929193767026
20
2.3573129685411387
30
0
10
-15.765470062316233
20
2.6173926182593177
30
0
10
-15.644336495352007
20
2.8762399268356211
30
0
10
-15.510607565335317
20
3.1310203814770259
30
0
10
-15.364506787831202
20
3.3791105087007556
30
0
10
-15.206376193489927
20
3.6189792952424229
30
0
10
-15.0366452061759
20
3.8512194040703016
30
0
10
-14.855838743458897
20
4.0778878280485378
30
0
10
-14.664589126405415
20
4.3017137774226315
30
0
10
-14.463644646012394
20
4.525351428076017
30
0
10
-14.253884199788629
20
4.7506205218526523
30
0
10
-14.036319901481232
20
4.9777320899520685
30
0
10
-13.812100108188314
20
5.2046672771602989
30
0
10
-13.581761774465148
20
5.4290227297129343
30
0
10
-13.345237063860752
20
5.6478621084875043
30
0
10
-13.149244871313707
20
5.8189088914975535
30
0
10
-12.997361432104737
20
5.9442642842609636
30
0
10
-12.892715090466623
20
6.0282851806892532
30
0
10
-12.839475771236689
20
6.0703915634320369
30
0
0
SPLINE
5
112
100
AcDbEntity
8
0
100
AcDbSpline
70
6
71
5
72
131
73
125
74
0
42
0.000000001
43
0.0000000001
44
0.0000000001
40
0
40
0
40
0
40
0
40
0
40
0
40
0.0083333333333333332
40
0.016666666666666666
40
0.025000000000000001
40
0.033333333333333333
40
0.041666666666666664
40
0.049999999999999996
40
0.058333333333333327
40
0.066666666666666666
40
0.074999999999999997
40
0.083333333333333329
40
0.09166666666666666
40
0.099999999999999992
40
0.10833333333333332
40
0.11666666666666665
40
0.12499999999999999
40
0.13333333333333333
40
0.14166666666666666
40
0.14999999999999999
40
0.15833333333333333
40
0.16666666666666666
40
0.17499999999999999
40
0.18333333333333332
40
0.19166666666666665
40
0.19999999999999998
40
0.20833333333333331
40
0.21666666666666665
40
0.22499999999999998
40
0.23333333333333331
40
0.24166666666666664
40
0.24999999999999997
40
0.2583333333333333
40
0.26666666666666666
40
0.27500000000000002
40
0.28333333333333338
40
0.29166666666666674
40
0.3000000000000001
40
0.30833333333333346
40
0.31666666666666682
40
0.32500000000000018
40
0.33333333333333354
40
0.3416666666666669
40
0.35000000000000026
40
0.35833333333333361
40
0.36666666666666697
40
0.37500000000000033
40
0.38333333333333369
40
0.39166666666666705
40
0.40000000000000041
40
0.40833333333333377
40
0.41666666666666713
40
0.42500000000000049
40
0.43333333333333385
40
0.44166666666666721
40
0.45000000000000057
40
0.45833333333333393
40
0.46666666666666728
40
0.47500000000000064
40
0.483333333333334
40
0.49166666666666736
40
0.50000000000000067
40
0.50833333333333397
40
0.51666666666666727
40
0.52500000000000058
40
0.53333333333333388
40
0.54166666666666718
40
0.55000000000000049
40
0.55833333333333379
40
0.5666666666666671
40
0.5750000000000004
40
0.5833333333333337
40
0.59166666666666701
40
0.60000000000000031
40
0.60833333333333361
40
0.61666666666666692
40
0.62500000000000022
40
0.63333333333333353
40
0.64166666666666683
40
0.65000000000000013
40
0.65833333333333344
40
0.66666666666666674
40
0.67500000000000004
40
0.68333333333333335
40
0.69166666666666665
40
0.69999999999999996
40
0.70833333333333326
40
0.71666666666666656
40
0.72499999999999987
40
0.73333333333333317
40
0.74166666666666647
40
0.74999999999999978
40
0.75833333333333308
40
0.76666666666666639
40
0.77499999999999969
40
0.78333333333333299
40
0.7916666666666663
40
0.7999999999999996
40
0.8083333333333329
40
0.81666666666666621
40
0.82499999999999951
40
0.83333333333333282
40
0.84166666666666612
40
0.84999999999999942
40
0.85833333333333273
40
0.86666666666666603
40
0.87499999999999933
40
0.88333333333333264
40
0.89166666666666594
40
0.89999999999999925
40
0.90833333333333255
40
0.91666666666666585
40
0.92499999999999916
40
0.93333333333333246
40
0.94166666666666576
40
0.94999999999999907
40
0.95833333333333237
40
0.96666666666666567
40
0.97499999999999898
40
0.98333333333333228
40
0.99166666666666559
40
1
40
1
40
1
40
1
40
1
40
1
41
1
41
1
41
1
41
1
41
1
41
1
41
1
41
1
41
1
41
1
41
1
41
1
41
1
41
1
41
1
41
1
41
1
41
1
41
1
41
1
41
1
41
1
41
1
41
1
41
1
41
1
41
1
41
1
41
1
41
1
41
1
41
1
41
1
41
1
41
1
41
1
41
1
41
1
41
1
41
1
41
1
41
1
41
1
41
1
41
1
41
1
41
1
41
1
41
1
41
1
41
1
41
1
41
1
41
1
41
1
41
1
41
1
41
1
41
1
41
1
41
1
41
1
41
1
41
1
41
1
41
1
41
1
41
1
41
1
41
1
41
1
41
1
41
1
41
1
41
1
41
1
41
1
41
1
41
1
41
1
41
1
41
1
41
1
41
1
41
1
41
1
41
1
41
1
41
1
41
1
41
1
41
1
41
1
41
1
41
1
41
1
41
1
41
1
41
1
41
1
41
1
41
1
41
1
41
1
41
1
41
1
41
1
41
1
41
1
41
1
41
1
41
1
41
1
41
1
41
1
41
1
41
1
41
1
41
1
41
1
41
1
41
1
41
1
41
1
41
1
10
12.839475771236689
20
6.0703915634320369
30
0
10
12.892715090466623
20
6.0282851806892532
30
0
10
12.997361432104732
20
5.9442642842609628
30
0
10
13.149244871313664
20
5.8189088914975482
30
0
10
13.345237063860596
20
5.647862108487482
30
0
10
13.58176177446483
20
5.4290227297128855
30
0
10
13.812100108187941
20
5.2046672771602349
30
0
10
14.036319901480979
20
4.9777320899520126
30
0
10
14.253884199788603
20
4.7506205218526416
30
0
10
14.463644646012529
20
4.5253514280760534
30
0
10
14.664589126405595
20
4.3017137774227017
30
0
10
14.85583874345895
20
4.0778878280486062
30
0
10
15.036645206175821
20
3.8512194040703345
30
0
10
15.206376193489815
20
3.6189792952424185
30
0
10
15.364506787831166
20
3.3791105087007471
30
0
10
15.51060756533554
20
3.131020381477049
30
0
10
15.644336495352558
20
2.8762399268357064
30
0
10
15.765470062316979
20
2.617392618259442
30
0
10
15.873929193767694
20
2.3573129685412546
30
0
10
15.969812673319783
20
2.0980418363595068
30
0
10
16.053415003649189
20
1.8400262177805813
30
0
10
16.125282318454278
20
1.5808481217233175
30
0
10
16.186104542972068
20
1.3159645776745574
30
0
10
16.236513668454219
20
1.0406172869119255
30
0
10
16.276903987789623
20
0.75143637872416735
30
0
10
16.307257706189851
20
0.44806096628349834
30
0
10
16.326933522806893
20
0.13501556070094695
30
0
10
16.334575678397709
20
-0.17731376962080062
30
0
10
16.328665943847593
20
-0.4765185950573399
30
0
10
16.307969360843806
20
-0.75124405903166891
30
0
10
16.272066603721182
20
-0.99483024572515788
30
0
10
16.221745616883947
20
-1.2080959764073529
30
0
10
16.15972017910563
20
-1.404073335644938
30
0
10
16.089731768977707
20
-1.6031393844978166
30
0
10
16.014830884607296
20
-1.8232799914643287
30
0
10
15.936079045142961
20
-2.0728473964700571
30
0
10
15.850707926996035
20
-2.3401051969431084
30
0
10
15.751707987197102
20
-2.5912174858012036
30
0
10
15.630500060708831
20
-2.7862603707193312
30
0
10
15.479015125359917
20
-2.8919766919346293
30
0
10
15.291950545564912
20
-2.8950518560996343
30
0
10
15.069105952759623
20
-2.817220938794228
30
0
10
14.815842581487454
20
-2.7036742902506101
30
0
10
14.543350325956418
20
-2.6078988789045501
30
0
10
14.268875917471535
20
-2.5781277397709426
30
0
10
14.016225942173746
20
-2.6423582122334968
30
0
10
13.815431364952103
20
-2.7961309365042801
30
0
10
13.69449638707235
20
-3.0152173755242155
30
0
10
13.671474356993075
20
-3.2666207071665005
30
0
10
13.747017644730919
20
-3.5197214157811159
30
0
10
13.895154089583361
20
-3.7586351978056141
30
0
10
14.072361368364053
20
-3.9797179028878724
30
0
10
14.229150939671682
20
-4.1869406685006707
30
0
10
14.320887578286181
20
-4.3879900144450614
30
0
10
14.318640965922333
20
-4.5901461174896667
30
0
10
14.220817954081259
20
-4.7960363529420595
30
0
10
14.045461358864054
20
-5.0047338940755095
30
0
10
13.82136658158052
20
-5.2131963102871532
30
0
10
13.57975601867723
20
-5.4175577274320172
30
0
10
13.345443390419579
20
-5.6145284813062171
30
0
10
13.12900546877111
20
-5.8026170530473316
30
0
10
12.931018101691109
20
-5.9813496048373596
30
0
10
12.745490703672445
20
-6.1506196305378618
30
0
10
12.563667999089331
20
-6.3099798543759711
30
0
10
12.377518668950637
20
-6.4579786304775588
30
0
10
12.183762076441667
20
-6.5914337235489873
30
0
10
11.984085231124155
20
-6.7046342217444783
30
0
10
11.784969915194006
20
-6.7880239744282003
30
0
10
11.597166134223613
20
-6.827992194590351
30
0
10
11.436480320049496
20
-6.8039982921297257
30
0
10
11.31950675513774
20
-6.6953101315276919
30
0
10
11.256501185930428
20
-6.4930035292685133
30
0
10
11.242582707357833
20
-6.2152919596908234
30
0
10
11.259700880981701
20
-5.9022208835193153
30
0
10
11.285519521390793
20
-5.5983293387237545
30
0
10
11.3020106248782
20
-5.3336323087594888
30
0
10
11.300234727181735
20
-5.1169670713988404
30
0
10
11.296722837033551
20
-4.8944252803229507
30
0
10
11.297057257818636
20
-4.6662089628484305
30
0
10
11.29961813095286
20
-4.4507776088107978
30
0
10
11.300405034817922
20
-4.2654026966024778
30
0
10
11.299746896909491
20
-4.0618512965125424
30
0
10
11.29929763869394
20
-3.8129970318553523
30
0
10
11.299314672416145
20
-3.5337146709330778
30
0
10
11.299801332761968
20
-3.2411493953553596
30
0
10
11.300265834428556
20
-2.9522852091104421
30
0
10
11.299582049120129
20
-2.6361761421241376
30
0
10
11.297426289133126
20
-2.2821077760022841
30
0
10
11.294399984361576
20
-1.9139125779547368
30
0
10
11.291442154146706
20
-1.5633204309372337
30
0
10
11.289437516663236
20
-1.2563207479832756
30
0
10
11.288966769803173
20
-1.0026126211637783
30
0
10
11.289463033686028
20
-0.76331577825609775
30
0
10
11.290047449560632
20
-0.48254651802869258
30
0
10
11.290866401358914
20
-0.14523924229973476
30
0
10
11.292178609980095
20
0.24990954083263131
30
0
10
11.294301608337999
20
0.68729850746471222
30
0
10
11.297073920609334
20
1.1436056935718175
30
0
10
11.299806956970688
20
1.5926046069527384
30
0
10
11.300372023106391
20
2.0096855033771552
30
0
10
11.296170259652317
20
2.3816784075799871
30
0
10
11.289402160964707
20
2.7183216563556232
30
0
10
11.283532570858464
20
3.0368679309445326
30
0
10
11.282540259634757
20
3.3571281018430081
30
0
10
11.288400163574162
20
3.6865044256453881
30
0
10
11.300768653069872
20
4.0225149267849476
30
0
10
11.312273611272634
20
4.3162975455400954
30
0
10
11.315785124789617
20
4.5457276070576889
30
0
10
11.310413419154326
20
4.7445459428569166
30
0
10
11.300654223458636
20
4.9532376285693367
30
0
10
11.295734291946877
20
5.2048049318945679
30
0
10
11.31540988273335
20
5.4841874846591407
30
0
10
11.348688946704542
20
5.7558625176775307
30
0
10
11.374794145756082
20
5.9845958816886355
30
0
10
11.378703819031777
20
6.1484536110978727
30
0
10
11.369163427837403
20
6.2604734726865141
30
0
10
11.394591750929933
20
6.3752663876444133
30
0
10
11.511060565938672
20
6.5449740411725683
30
0
10
11.716188796858535
20
6.6531186350706983
30
0
10
11.979935701806923
20
6.6270053156199173
30
0
10
12.273603725572348
20
6.4883173515215251
30
0
10
12.509551406120297
20
6.32398479499658
30
0
10
12.677925516725896
20
6.1969025807180573
30
0
10
12.786236452006749
20
6.112497946174825
30
0
10
12.839475771236689
20
6.0703915634320369
30
0
0
CIRCLE
5
113
100
AcDbEntity
8
0
100
AcDbCircle
10
-6.9999999154036434
20
7.9999999033184492
30
0
40
0.19500000000000009
210
0
220
0
230
1
0
SPLINE
5
114
100
AcDbEntity
8
0
100
AcDbSpline
70
6
71
5
72
81
73
75
74
0
42
0.000000001
43
0.0000000001
44
0.0000000001
40
-1
40
-1
40
-1
40
-1
40
-1
40
-1
40
-0.9857142857142841
40
-0.97142857142856986
40
-0.95714285714285563
40
-0.94285714285714139
40
-0.92857142857142716
40
-0.91428571428571292
40
-0.89999999999999869
40
-0.88571428571428445
40
-0.87142857142857022
40
-0.85714285714285599
40
-0.84285714285714175
40
-0.82857142857142752
40
-0.81428571428571328
40
-0.79999999999999905
40
-0.78571428571428481
40
-0.77142857142857058
40
-0.75714285714285634
40
-0.74285714285714211
40
-0.72857142857142787
40
-0.71428571428571364
40
-0.6999999999999994
40
-0.68571428571428517
40
-0.67142857142857093
40
-0.6571428571428567
40
-0.64285714285714246
40
-0.62857142857142823
40
-0.61428571428571399
40
-0.59999999999999976
40
-0.58571428571428552
40
-0.57142857142857129
40
-0.55714285714285705
40
-0.54285714285714282
40
-0.52857142857142858
40
-0.51428571428571435
40
-0.50000000000000011
40
-0.48571428571428582
40
-0.47142857142857153
40
-0.45714285714285724
40
-0.44285714285714295
40
-0.42857142857142866
40
-0.41428571428571437
40
-0.40000000000000008
40
-0.38571428571428579
40
-0.3714285714285715
40
-0.35714285714285721
40
-0.34285714285714292
40
-0.32857142857142863
40
-0.31428571428571433
40
-0.30000000000000004
40
-0.28571428571428575
40
-0.27142857142857146
40
-0.25714285714285717
40
-0.24285714285714291
40
-0.22857142857142862
40
-0.21428571428571433
40
-0.20000000000000004
40
-0.18571428571428575
40
-0.17142857142857146
40
-0.15714285714285717
40
-0.14285714285714288
40
-0.12857142857142859
40
-0.1142857142857143
40
-0.10000000000000001
40
-0.085714285714285715
40
-0.071428571428571425
40
-0.057142857142857141
40
-0.042857142857142858
40
-0.028571428571428571
40
-0.014285714285714285
40
0
40
0
40
0
40
0
40
0
40
0
41
1
41
1
41
1
41
1
41
1
41
1
41
1
41
1
41
1
41
1
41
1
41
1
41
1
41
1
41
1
41
1
41
1
41
1
41
1
41
1
41
1
41
1
41
1
41
1
41
1
41
1
41
1
41
1
41
1
41
1
41
1
41
1
41
1
41
1
41
1
41
1
41
1
41
1
41
1
41
1
41
1
41
1
41
1
41
1
41
1
41
1
41
1
41
1
41
1
41
1
41
1
41
1
41
1
41
1
41
1
41
1
41
1
41
1
41
1
41
1
41
1
41
1
41
1
41
1
41
1
41
1
41
1
41
1
41
1
41
1
41
1
41
1
41
1
41
1
41
1
10
-10.14311595898225
20
-6.9698755491485738
30
0
10
-10.120700242104501
20
-6.9636216923696965
30
0
10
-10.074750591378152
20
-6.9529436944670469
30
0
10
-9.9990978897795166
20
-6.9405753715387446
30
0
10
-9.8706998317704961
20
-6.9348197906416216
30
0
10
-9.6116903275693097
20
-6.9357108569354828
30
0
10
-9.2103692342965715
20
-6.9417633974293542
30
0
10
-8.6531111659735309
20
-6.9477696813958021
30
0
10
-7.9651006175662094
20
-6.9512467616038096
30
0
10
-7.2586293260964441
20
-6.9521477499031681
30
0
10
-6.6798553826104206
20
-6.9529027470364619
30
0
10
-6.2440374062779851
20
-6.9538420180969815
30
0
10
-5.9248849293778694
20
-6.9550274900541007
30
0
10
-5.6570986825751328
20
-6.9559366700117318
30
0
10
-5.38600213070713
20
-6.9561199763087842
30
0
10
-5.0714686503129141
20
-6.9552609683443674
30
0
10
-4.7724950383723614
20
-6.9539219117449074
30
0
10
-4.5138577181825399
20
-6.9527108780996345
30
0
10
-4.2371176479071568
20
-6.9517132133888344
30
0
10
-3.8912536476074111
20
-6.9508482871999071
30
0
10
-3.4575472085875179
20
-6.9498729151370426
30
0
10
-3.027437615354863
20
-6.9485157351227524
30
0
10
-2.8071883256764383
20
-6.946593253325358
30
0
10
-2.6799871358621394
20
-6.9450084366962184
30
0
10
-2.475042751391221
20
-6.9438861106458099
30
0
10
-2.0367034295246507
20
-6.9437558448322898
30
0
10
-1.4322081394502488
20
-6.9405043541277811
30
0
10
-0.9669514142451382
20
-6.9347138742701171
30
0
10
-0.69040439834503864
20
-6.9578800091494157
30
0
10
-0.5898226011677159
20
-7.045014016236987
30
0
10
-0.58370248253932033
20
-7.2239207353594805
30
0
10
-0.59954571852285277
20
-7.4957634386701102
30
0
10
-0.60945026115542789
20
-7.8241464576797801
30
0
10
-0.61669472941756631
20
-8.1565624485232817
30
0
10
-0.63473147913465011
20
-8.4556390183603849
30
0
10
-0.68111870311691391
20
-8.7029560745389105
30
0
10
-0.73709794380918858
20
-8.9712008936054595
30
0
10
-0.82149224282514532
20
-9.2657282917650807
30
0
10
-0.98077692205344391
20
-9.5269461582225166
30
0
10
-1.2494311468051897
20
-9.6941665866988203
30
0
10
-1.6219797480354274
20
-9.7440450074345257
30
0
10
-2.0196995040287447
20
-9.7412269642740998
30
0
10
-2.4023711643683514
20
-9.7129054374544079
30
0
10
-2.7442706669110861
20
-9.6775358675612928
30
0
10
-3.0416920738704305
20
-9.6401387996437826
30
0
10
-3.3039110341099645
20
-9.6006239239992084
30
0
10
-3.5608632405238461
20
-9.5569152940590634
30
0
10
-3.8368184717252616
20
-9.5092827248545682
30
0
10
-4.13443220397843
20
-9.4584445862104563
30
0
10
-4.4488475699578141
20
-9.4052818833883034
30
0
10
-4.7705079105336887
20
-9.3499314532039097
30
0
10
-5.0929552976911099
20
-9.2911293233097165
30
0
10
-5.4178875096354746
20
-9.2255033142223564
30
0
10
-5.7518164572012163
20
-9.1493236188546962
30
0
10
-6.1030092750675431
20
-9.0595356595391276
30
0
10
-6.4782275983448594
20
-8.9561487177369496
30
0
10
-6.8798182579819578
20
-8.8415906087198728
30
0
10
-7.3020087325751293
20
-8.7272496682374694
30
0
10
-7.7294693825431482
20
-8.6191398237997916
30
0
10
-8.1439599167892922
20
-8.5127363949424559
30
0
10
-8.5285756988483055
20
-8.4005473664462489
30
0
10
-8.8744608160728315
20
-8.2741873769052479
30
0
10
-9.1829930102844735
20
-8.129892469860982
30
0
10
-9.4778098997496283
20
-7.970028443894142
30
0
10
-9.7989433220254334
20
-7.811856190355007
30
0
10
-10.034571860148182
20
-7.6995944679101394
30
0
10
-10.07982379813315
20
-7.6599830864061387
30
0
10
-10.103974303637656
20
-7.6471483000523461
30
0
10
-10.414870457878719
20
-7.5382141774446279
30
0
10
-10.564857363537635
20
-7.3225111427015239
30
0
10
-10.375240412601363
20
-7.090571476879667
30
0
10
-10.274833641505582
20
-7.0193025989645097
30
0
10
-10.209244892644632
20
-6.9904668351403005
30
0
10
-10.165531675859993
20
-6.9761294059274483
30
0
10
-10.14311595898225
20
-6.9698755491485738
30
0
0
CIRCLE
5
115
100
AcDbEntity
8
0
100
AcDbCircle
10
6.9999999154036434
20
7.9999999033184492
30
0
40
0.19500000000000009
210
0
220
0
230
1
0
SPLINE
5
116
100
AcDbEntity
8
0
100
AcDbSpline
70
6
71
5
72
81
73
75
74
0
42
0.000000001
43
0.0000000001
44
0.0000000001
40
0
40
0
40
0
40
0
40
0
40
0
40
0.014285714285714285
40
0.028571428571428571
40
0.042857142857142858
40
0.057142857142857141
40
0.071428571428571425
40
0.085714285714285715
40
0.10000000000000001
40
0.1142857142857143
40
0.12857142857142859
40
0.14285714285714288
40
0.15714285714285717
40
0.17142857142857146
40
0.18571428571428575
40
0.20000000000000004
40
0.21428571428571433
40
0.22857142857142862
40
0.24285714285714291
40
0.25714285714285717
40
0.27142857142857146
40
0.28571428571428575
40
0.30000000000000004
40
0.31428571428571433
40
0.32857142857142863
40
0.34285714285714292
40
0.35714285714285721
40
0.3714285714285715
40
0.38571428571428579
40
0.40000000000000008
40
0.41428571428571437
40
0.42857142857142866
40
0.44285714285714295
40
0.45714285714285724
40
0.47142857142857153
40
0.48571428571428582
40
0.50000000000000011
40
0.51428571428571435
40
0.52857142857142858
40
0.54285714285714282
40
0.55714285714285705
40
0.57142857142857129
40
0.58571428571428552
40
0.59999999999999976
40
0.61428571428571399
40
0.62857142857142823
40
0.64285714285714246
40
0.6571428571428567
40
0.67142857142857093
40
0.68571428571428517
40
0.6999999999999994
40
0.71428571428571364
40
0.72857142857142787
40
0.74285714285714211
40
0.75714285714285634
40
0.77142857142857058
40
0.78571428571428481
40
0.79999999999999905
40
0.81428571428571328
40
0.82857142857142752
40
0.84285714285714175
40
0.85714285714285599
40
0.87142857142857022
40
0.88571428571428445
40
0.89999999999999869
40
0.91428571428571292
40
0.92857142857142716
40
0.94285714285714139
40
0.95714285714285563
40
0.97142857142856986
40
0.9857142857142841
40
1
40
1
40
1
40
1
40
1
40
1
41
1
41
1
41
1
41
1
41
1
41
1
41
1
41
1
41
1
41
1
41
1
41
1
41
1
41
1
41
1
41
1
41
1
41
1
41
1
41
1
41
1
41
1
41
1
41
1
41
1
41
1
41
1
41
1
41
1
41
1
41
1
41
1
41
1
41
1
41
1
41
1
41
1
41
1
41
1
41
1
41
1
41
1
41
1
41
1
41
1
41
1
41
1
41
1
41
1
41
1
41
1
41
1
41
1
41
1
41
1
41
1
41
1
41
1
41
1
41
1
41
1
41
1
41
1
41
1
41
1
41
1
41
1
41
1
41
1
41
1
41
1
41
1
41
1
41
1
41
1
10
10.14311595898225
20
-6.9698755491485738
30
0
10
10.165531675859993
20
-6.9761294059274483
30
0
10
10.209244892644632
20
-6.9904668351403005
30
0
10
10.274833641505582
20
-7.0193025989645097
30
0
10
10.375240412601363
20
-7.090571476879667
30
0
10
10.564857363537635
20
-7.3225111427015239
30
0
10
10.414870457878719
20
-7.5382141774446279
30
0
10
10.103974303637656
20
-7.6471483000523461
30
0
10
10.07982379813315
20
-7.6599830864061387
30
0
10
10.034571860148182
20
-7.6995944679101394
30
0
10
9.7989433220254334
20
-7.811856190355007
30
0
10
9.4778098997496283
20
-7.970028443894142
30
0
10
9.1829930102844735
20
-8.129892469860982
30
0
10
8.8744608160728315
20
-8.2741873769052479
30
0
10
8.5285756988483055
20
-8.4005473664462489
30
0
10
8.1439599167892922
20
-8.5127363949424559
30
0
10
7.7294693825431482
20
-8.6191398237997916
30
0
10
7.3020087325751293
20
-8.7272496682374694
30
0
10
6.8798182579819578
20
-8.8415906087198728
30
0
10
6.4782275983448594
20
-8.9561487177369496
30
0
10
6.1030092750675431
20
-9.0595356595391276
30
0
10
5.7518164572012163
20
-9.1493236188546962
30
0
10
5.4178875096354746
20
-9.2255033142223564
30
0
10
5.0929552976911099
20
-9.2911293233097165
30
0
10
4.7705079105336887
20
-9.3499314532039097
30
0
10
4.4488475699578141
20
-9.4052818833883034
30
0
10
4.13443220397843
20
-9.4584445862104563
30
0
10
3.8368184717252616
20
-9.5092827248545682
30
0
10
3.5608632405238461
20
-9.5569152940590634
30
0
10
3.3039110341099645
20
-9.6006239239992084
30
0
10
3.0416920738704305
20
-9.6401387996437826
30
0
10
2.7442706669110861
20
-9.6775358675612928
30
0
10
2.4023711643683514
20
-9.7129054374544079
30
0
10
2.0196995040287447
20
-9.7412269642740998
30
0
10
1.6219797480354274
20
-9.7440450074345257
30
0
10
1.2494311468051897
20
-9.6941665866988203
30
0
10
0.98077692205344391
20
-9.5269461582225166
30
0
10
0.82149224282514532
20
-9.2657282917650807
30
0
10
0.73709794380918858
20
-8.9712008936054595
30
0
10
0.68111870311691391
20
-8.7029560745389105
30
0
10
0.63473147913465011
20
-8.4556390183603849
30
0
10
0.61669472941756631
20
-8.1565624485232817
30
0
10
0.60945026115542789
20
-7.8241464576797801
30
0
10
0.59954571852285277
20
-7.4957634386701102
30
0
10
0.58370248253932033
20
-7.2239207353594805
30
0
10
0.5898226011677159
20
-7.045014016236987
30
0
10
0.69040439834503864
20
-6.9578800091494157
30
0
10
0.9669514142451382
20
-6.9347138742701171
30
0
10
1.4322081394502488
20
-6.9405043541277811
30
0
10
2.0367034295246507
20
-6.9437558448322898
30
0
10
2.475042751391221
20
-6.9438861106458099
30
0
10
2.6799871358621394
20
-6.9450084366962184
30
0
10
2.8071883256764383
20
-6.946593253325358
30
0
10
3.027437615354863
20
-6.9485157351227524
30
0
10
3.4575472085875179
20
-6.9498729151370426
30
0
10
3.8912536476074111
20
-6.9508482871999071
30
0
10
4.2371176479071568
20
-6.9517132133888344
30
0
10
4.5138577181825399
20
-6.9527108780996345
30
0
10
4.7724950383723614
20
-6.9539219117449074
30
0
10
5.0714686503129141
20
-6.9552609683443674
30
0
10
5.38600213070713
20
-6.9561199763087842
30
0
10
5.6570986825751328
20
-6.9559366700117318
30
0
10
5.9248849293778694
20
-6.9550274900541007
30
0
10
6.2440374062779851
20
-6.9538420180969815
30
0
10
6.6798553826104206
20
-6.9529027470364619
30
0
10
7.2586293260964441
20
-6.9521477499031681
30
0
10
7.9651006175662094
20
-6.9512467616038096
30
0
10
8.6531111659735309
20
-6.9477696813958021
30
0
10
9.2103692342965715
20
-6.9417633974293542
30
0
10
9.6116903275693097
20
-6.9357108569354828
30
0
10
9.8706998317704961
20
-6.9348197906416216
30
0
10
9.9990978897795166
20
-6.9405753715387446
30
0
10
10.074750591378152
20
-6.9529436944670469
30
0
10
10.120700242104501
20
-6.9636216923696965
30
0
10
10.14311595898225
20
-6.9698755491485738
30
0
0
SPLINE
5
117
100
AcDbEntity
8
0
100
AcDbSpline
70
6
71
5
72
46
73
40
74
0
42
0.000000001
43
0.0000000001
44
0.0000000001
40
-1
40
-1
40
-1
40
-1
40
-1
40
-1
40
-0.97142857142857164
40
-0.94285714285714306
40
-0.91428571428571448
40
-0.8857142857142859
40
-0.85714285714285732
40
-0.82857142857142874
40
-0.80000000000000016
40
-0.77142857142857157
40
-0.74285714285714299
40
-0.71428571428571441
40
-0.68571428571428583
40
-0.65714285714285725
40
-0.62857142857142867
40
-0.60000000000000009
40
-0.57142857142857151
40
-0.54285714285714293
40
-0.51428571428571435
40
-0.48571428571428582
40
-0.45714285714285724
40
-0.42857142857142866
40
-0.40000000000000008
40
-0.3714285714285715
40
-0.34285714285714292
40
-0.31428571428571433
40
-0.28571428571428575
40
-0.25714285714285717
40
-0.22857142857142859
40
-0.20000000000000001
40
-0.17142857142857143
40
-0.14285714285714285
40
-0.11428571428571428
40
-0.085714285714285715
40
-0.057142857142857141
40
-0.028571428571428571
40
0
40
0
40
0
40
0
40
0
40
0
41
1
41
1
41
1
41
1
41
1
41
1
41
1
41
1
41
1
41
1
41
1
41
1
41
1
41
1
41
1
41
1
41
1
41
1
41
1
41
1
41
1
41
1
41
1
41
1
41
1
41
1
41
1
41
1
41
1
41
1
41
1
41
1
41
1
41
1
41
1
41
1
41
1
41
1
41
1
41
1
10
7.9213199762526703
20
8.4850035973111488
30
0
10
7.9361495405183407
20
8.4850035973111488
30
0
10
7.9666084504202272
20
8.4815949199794165
30
0
10
8.0156039720721761
20
8.467486162227571
30
0
10
8.0925597447268469
20
8.4382667455055156
30
0
10
8.2134279488654887
20
8.3916031264613657
30
0
10
8.3618988189567105
20
8.3406833886946661
30
0
10
8.5363416895606736
20
8.2872956709455625
30
0
10
8.7313147690195194
20
8.2319505619955695
30
0
10
8.9370864867975524
20
8.1742520222058523
30
0
10
9.1394853831275231
20
8.1144018356588479
30
0
10
9.3218383952650523
20
8.0531304665836743
30
0
10
9.4673113520225254
20
7.991690424223302
30
0
10
9.5610423374195328
20
7.931809624802626
30
0
10
9.5924953604076251
20
7.8756795685521599
30
0
10
9.5574621537920272
20
7.8258973461541199
30
0
10
9.4609829917440784
20
7.7855186736506425
30
0
10
9.3156061917873298
20
7.7574504635308292
30
0
10
9.1376615931898275
20
7.7433723829718728
30
0
10
8.9445289914154991
20
7.743167578854619
30
0
10
8.7507978388340728
20
7.753326360026553
30
0
10
8.5665470153217935
20
7.7676465618796389
30
0
10
8.3904934082588429
20
7.7721368016063277
30
0
10
8.2249118511069881
20
7.765516773120706
30
0
10
8.0747992457130575
20
7.7552396575829121
30
0
10
7.9457739528639886
20
7.7529071144884751
30
0
10
7.8425448886245359
20
7.7699405311480101
30
0
10
7.76736470833435
20
7.8136584125779782
30
0
10
7.7178903853411969
20
7.8818935829442838
30
0
10
7.6873560252346183
20
7.9626909307075477
30
0
10
7.6689255367970848
20
8.0429253425481324
30
0
10
7.6586653259760897
20
8.1140677794469855
30
0
10
7.660028126549121
20
8.1809252125001688
30
0
10
7.6793099179493511
20
8.2530450610681498
30
0
10
7.7210054674617004
20
8.3359165552658325
30
0
10
7.7808382479528548
20
8.4177619081538158
30
0
10
7.8358335755091879
20
8.4650255817457047
30
0
10
7.877631064826244
20
8.4815949199794538
30
0
10
7.9064904119870008
20
8.4850035973111488
30
0
10
7.9213199762526703
20
8.4850035973111488
30
0
0
ELLIPSE
5
118
100
AcDbEntity
8
0
100
AcDbEllipse
10
0
20
0
30
0
11
16.937999999999999
21
-1.5106783603140086e-14
31
0.0
40
0.61621797142519774
41
0
42
6.2831853071795862
0
ENDSEC
0
SECTION
2
OBJECTS
0
DICTIONARY
5
C
100
AcDbDictionary
3
ACAD_GROUP
350
D
3
ACAD_MLINESTYLE
350
17
0
DICTIONARY
5
D
100
AcDbDictionary
0
DICTIONARY
5
1A
330
C
100
AcDbDictionary
0
DICTIONARY
5
17
100
AcDbDictionary
0
ENDSEC
0
EOF
