0
SECTION
2
HEADER
9
$INSUNITS
70
1
9
$ACADVER
1
AC1014
9
$HANDSEED
5
FFFF
0
ENDSEC
0
SECTION
2
TABLES
0
TABLE
2
VPORT
5
8
100
AcDbSymbolTable
0
ENDTAB
0
TABLE
2
LTYPE
5
5
100
AcDbSymbolTable
0
LTYPE
5
14
100
AcDbSymbolTableRecord
100
AcDbLinetypeTableRecord
2
BYBLOCK
70
0
0
LTYPE
5
15
100
AcDbSymbolTableRecord
100
AcDbLinetypeTableRecord
2
BYLAYER
70
0
0
ENDTAB
0
TABLE
2
LAYER
5
2
100
AcDbSymbolTable
70
2
0
LAYER
5
50
100
AcDbSymbolTableRecord
100
AcDbLayerTableRecord
2
0
70
0
6
CONTINUOUS
0
ENDTAB
0
TABLE
2
STYLE
5
3
100
AcDbSymbolTable
70
1
0
STYLE
5
11
100
AcDbSymbolTableRecord
100
AcDbTextStyleTableRecord
2
STANDARD
70
0
0
ENDTAB
0
TABLE
2
VIEW
5
6
100
AcDbSymbolTable
70
0
0
ENDTAB
0
TABLE
2
UCS
5
7
100
AcDbSymbolTable
70
0
0
ENDTAB
0
TABLE
2
APPID
5
9
100
AcDbSymbolTable
70
2
0
APPID
5
12
100
AcDbSymbolTableRecord
100
AcDbRegAppTableRecord
2
ACAD
70
0
0
ENDTAB
0
TABLE
2
DIMSTYLE
5
A
100
AcDbSymbolTable
70
1
0
ENDTAB
0
TABLE
2
BLOCK_RECORD
5
1
100
AcDbSymbolTable
70
1
0
BLOCK_RECORD
5
1F
100
AcDbSymbolTableRecord
100
AcDbBlockTableRecord
2
*MODEL_SPACE
0
BLOCK_RECORD
5
1B
100
AcDbSymbolTableRecord
100
AcDbBlockTableRecord
2
*PAPER_SPACE
0
ENDTAB
0
ENDSEC
0
SECTION
2
BLOCKS
0
BLOCK
5
20
100
AcDbEntity
100
AcDbBlockBegin
2
*MODEL_SPACE
0
ENDBLK
5
21
100
AcDbEntity
100
AcDbBlockEnd
0
BLOCK
5
1C
100
AcDbEntity
100
AcDbBlockBegin
2
*PAPER_SPACE
0
ENDBLK
5
1D
100
AcDbEntity
100
AcDbBlockEnd
0
ENDSEC
0
SECTION
2
ENTITIES
0
LWPOLYLINE
5
100
100
AcDbEntity
8
0
100
AcDbPolyline
90
8
70
1
43
0.0
10
-3.4366387226176864
20
-0.81637975213801395
42
-0.41463688866948789
10
-3.6869999999999896
20
-0.56638001318084519
10
-3.6869999999999967
20
9.7304999999999939
42
-0.41421356237309837
10
-3.4369999999999958
20
9.9804999999999939
10
3.4369999999999989
20
9.9804999999999939
42
-0.41421356237309587
10
3.6869999999999985
20
9.7304999999999957
10
3.6869999999999994
20
-0.55644631990452875
42
-0.41379036275596193
10
3.4373612773823035
20
-0.80644605886169862
0
CIRCLE
5
101
100
AcDbEntity
8
0
100
AcDbCircle
10
-14.399999825973209
20
-3.24999996072312
30
0
40
0.12500000000000097
210
0
220
0
230
1
0
CIRCLE
5
102
100
AcDbEntity
8
0
100
AcDbCircle
10
6.9999999154036434
20
7.9999999033184492
30
0
40
0.1249999999999996
210
0
220
0
230
1
0
CIRCLE
5
103
100
AcDbEntity
8
0
100
AcDbCircle
10
-6.9999999154036434
20
7.9999999033184492
30
0
40
0.1249999999999996
210
0
220
0
230
1
0
LWPOLYLINE
5
104
100
AcDbEntity
8
0
100
AcDbPolyline
90
12
70
1
43
0.0
10
-13.201499999999999
20
5.4635000000000007
42
-0.414213562373134
10
-12.901499999999997
20
5.7635000000000032
10
-4.8334999999999999
20
5.7635000000000058
10
-4.833499999999999
20
6.4385000000000066
10
-4.3584999999999994
20
6.4385000000000066
10
-4.3585000000000003
20
5.7635000000000058
10
-4.2956133565223542
20
5.7634861118275893
42
-0.4113980578809443
10
-3.9984999999999928
20
5.4635000000000007
10
-3.9984999999999928
20
-0.36749999999999527
42
-0.41421356237309465
10
-4.2984999999999927
20
-0.66749999999999532
10
-12.901499999999993
20
-0.66749999999999643
42
-0.4142135623730912
10
-13.201499999999994
20
-0.36749999999999461
0
LWPOLYLINE
5
105
100
AcDbEntity
8
0
100
AcDbPolyline
90
12
70
1
43
0.0
10
-9.6215000000000028
20
-1.944500000000005
42
-0.41421356237313023
10
-9.3215000000000039
20
-1.6445000000000021
10
-1.2535000000000047
20
-1.6444999999999992
10
-1.2535000000000047
20
-0.96949999999999892
10
-0.77850000000000541
20
-0.96949999999999892
10
-0.77850000000000541
20
-1.6444999999999992
10
-0.71561335652235902
20
-1.6445138881724157
42
-0.41139805788094369
10
-0.41849999999999676
20
-1.9445000000000043
10
-0.4184999999999971
20
-7.7755000000000001
42
-0.41421356237309476
10
-0.71849999999999703
20
-8.0754999999999999
10
-9.3214999999999986
20
-8.0755000000000035
42
-0.41421356237309093
10
-9.6214999999999975
20
-7.7755000000000001
0
LWPOLYLINE
5
106
100
AcDbEntity
8
0
100
AcDbPolyline
90
12
70
1
43
0.0
10
13.201499999999999
20
-0.36750000000000344
42
-0.41421356237309481
10
12.901499999999999
20
-0.66750000000000365
10
4.298499999999998
20
-0.66750000000000664
42
-0.41421356237308893
10
3.9984999999999977
20
-0.36750000000000299
10
3.9984999999999919
20
5.4634999999999918
42
-0.41421356237313189
10
4.2984999999999927
20
5.7634999999999952
10
12.366499999999991
20
5.763499999999997
10
12.366499999999991
20
6.4384999999999977
10
12.841499999999991
20
6.4384999999999977
10
12.841499999999991
20
5.763499999999997
10
12.904386643477634
20
5.7634861118275804
42
-0.41139805788094369
10
13.201499999999999
20
5.4634999999999927
0
LWPOLYLINE
5
107
100
AcDbEntity
8
0
100
AcDbPolyline
90
12
70
1
43
0.0
10
0.41849999999999421
20
-1.944500000000005
42
-0.41421356237313106
10
0.71849999999999425
20
-1.6445000000000021
10
8.7864999999999931
20
-1.6444999999999992
10
8.7864999999999931
20
-0.96949999999999892
10
9.2614999999999927
20
-0.96949999999999892
10
9.2614999999999927
20
-1.6444999999999992
10
9.3243866434776397
20
-1.6445138881724164
42
-0.41139805788094402
10
9.6215000000000011
20
-1.9445000000000043
10
9.6215000000000011
20
-7.7755000000000001
42
-0.41421356237309503
10
9.3215000000000003
20
-8.0754999999999999
10
0.71849999999999981
20
-8.0755000000000052
42
-0.41421356237309009
10
0.41849999999999965
20
-7.7755000000000001
0
CIRCLE
5
108
100
AcDbEntity
8
0
100
AcDbCircle
10
14.399999825973209
20
-3.24999996072312
30
0
40
0.12500000000000097
210
0
220
0
230
1
0
CIRCLE
5
109
100
AcDbEntity
8
0
100
AcDbCircle
10
0
20
-9.0000002872286817
30
0
40
0.12499999999999975
210
0
220
0
230
1
0
SPLINE
5
110
100
AcDbEntity
8
0
100
AcDbSpline
70
6
71
5
72
71
73
65
74
0
42
0.000000001
43
0.0000000001
44
0.0000000001
40
0
40
0
40
0
40
0
40
0
40
0
40
0.016666666666666666
40
0.033333333333333333
40
0.050000000000000003
40
0.066666666666666666
40
0.083333333333333329
40
0.099999999999999992
40
0.11666666666666665
40
0.13333333333333333
40
0.14999999999999999
40
0.16666666666666666
40
0.18333333333333332
40
0.19999999999999998
40
0.21666666666666665
40
0.23333333333333331
40
0.24999999999999997
40
0.26666666666666666
40
0.28333333333333333
40
0.29999999999999999
40
0.31666666666666665
40
0.33333333333333331
40
0.34999999999999998
40
0.36666666666666664
40
0.3833333333333333
40
0.39999999999999997
40
0.41666666666666663
40
0.43333333333333329
40
0.44999999999999996
40
0.46666666666666662
40
0.48333333333333328
40
0.49999999999999994
40
0.51666666666666661
40
0.53333333333333333
40
0.55000000000000004
40
0.56666666666666676
40
0.58333333333333348
40
0.6000000000000002
40
0.61666666666666692
40
0.63333333333333364
40
0.65000000000000036
40
0.66666666666666707
40
0.68333333333333379
40
0.70000000000000051
40
0.71666666666666723
40
0.73333333333333395
40
0.75000000000000067
40
0.76666666666666738
40
0.7833333333333341
40
0.80000000000000082
40
0.81666666666666754
40
0.83333333333333426
40
0.85000000000000098
40
0.8666666666666677
40
0.88333333333333441
40
0.90000000000000113
40
0.91666666666666785
40
0.93333333333333457
40
0.95000000000000129
40
0.96666666666666801
40
0.98333333333333472
40
1
40
1
40
1
40
1
40
1
40
1
41
1
41
1
41
1
41
1
41
1
41
1
41
1
41
1
41
1
41
1
41
1
41
1
41
1
41
1
41
1
41
1
41
1
41
1
41
1
41
1
41
1
41
1
41
1
41
1
41
1
41
1
41
1
41
1
41
1
41
1
41
1
41
1
41
1
41
1
41
1
41
1
41
1
41
1
41
1
41
1
41
1
41
1
41
1
41
1
41
1
41
1
41
1
41
1
41
1
41
1
41
1
41
1
41
1
41
1
41
1
41
1
41
1
41
1
41
1
41
1
41
1
41
1
41
1
41
1
41
1
10
8.1463149431021424
20
-8.5361155005287817
30
0
10
8.152877211665146
20
-8.546318920070318
30
0
10
8.1532840003486768
20
-8.5695639481835961
30
0
10
8.1141214573090945
20
-8.6131375478344605
30
0
10
7.9798875175920783
20
-8.6882934440796795
30
0
10
7.6852722456355522
20
-8.8055518762227134
30
0
10
7.2857437245287544
20
-8.9381590158959145
30
0
10
6.8112913059372238
20
-9.0766619926528165
30
0
10
6.295987735792143
20
-9.2115079442625518
30
0
10
5.7740996906879571
20
-9.334367241953041
30
0
10
5.2759671154776555
20
-9.4396106103450492
30
0
10
4.824549873651466
20
-9.5253484431637165
30
0
10
4.4351145148596212
20
-9.5924566365325372
30
0
10
4.1144249136913338
20
-9.6438804423176645
30
0
10
3.8602184084612254
20
-9.6838407664975197
30
0
10
3.6602942361672262
20
-9.7170712466122087
30
0
10
3.4923275302188284
20
-9.7480762145640973
30
0
10
3.3219218660740868
20
-9.7802989221992469
30
0
10
3.1069291756883173
20
-9.8156531811464163
30
0
10
2.8108113802873191
20
-9.8546779590513047
30
0
10
2.4118376912718364
20
-9.8962963687237941
30
0
10
1.9180036105627378
20
-9.9382357342649446
30
0
10
1.370354669173848
20
-9.9760062771774258
30
0
10
0.8726772080827121
20
-10.005181420450278
30
0
10
0.56086439408863831
20
-10.01592632988311
30
0
10
0.42085657334734189
20
-9.9809133986769112
30
0
10
0.39481253815898165
20
-9.8772003912508879
30
0
10
0.40124595076102265
20
-9.6959760872705907
30
0
10
0.40083716409305703
20
-9.4629315013614725
30
0
10
0.39371798736405267
20
-9.2273487555249467
30
0
10
0.39452008338734906
20
-9.034547552775086
30
0
10
0.40801057677348096
20
-8.9034303715100069
30
0
10
0.41524367382893124
20
-8.8003693796582034
30
0
10
0.37640762737598915
20
-8.6631649000422133
30
0
10
0.45294193175759551
20
-8.556719494714141
30
0
10
0.60712132115734119
20
-8.5031032259579309
30
0
10
0.75060947631029629
20
-8.4749251666246135
30
0
10
0.96853530043349956
20
-8.4672804499536269
30
0
10
1.254130312739324
20
-8.4710749746765934
30
0
10
1.5950183478487951
20
-8.4811230971342759
30
0
10
1.9560934957345022
20
-8.49266231260866
30
0
10
2.3044017875157095
20
-8.5027162202687752
30
0
10
2.6172796169236232
20
-8.5093891788246427
30
0
10
2.8938018531597356
20
-8.5120206399204843
30
0
10
3.1455037883247781
20
-8.5108074354502232
30
0
10
3.3913151525777887
20
-8.5066169912119527
30
0
10
3.6506905828033762
20
-8.5007193590273467
30
0
10
3.9377818077085016
20
-8.494558256987343
30
0
10
4.2544457943389631
20
-8.489497629040665
30
0
10
4.5931725723757229
20
-8.4866772651188409
30
0
10
4.9411171544534849
20
-8.4868710074904143
30
0
10
5.283628772723266
20
-8.4903549962363094
30
0
10
5.6082143172496668
20
-8.4967451683285411
30
0
10
5.9077850243390264
20
-8.5049063930217876
30
0
10
6.1855588541580504
20
-8.5126793624781758
30
0
10
6.4529344654933531
20
-8.5173912092789728
30
0
10
6.723239867388541
20
-8.5168195566251743
30
0
10
7.0066057309578778
20
-8.5100479562270834
30
0
10
7.3046673862874183
20
-8.4983048929883314
30
0
10
7.6046224046516535
20
-8.4859639847369976
30
0
10
7.8756334918553978
20
-8.4810335466384377
30
0
10
8.0386131960158806
20
-8.4903135325427712
30
0
10
8.1139103889706661
20
-8.5083434309343939
30
0
10
8.1397526745391442
20
-8.5259120809872488
30
0
10
8.1463149431021424
20
-8.5361155005287817
30
0
0
SPLINE
5
111
100
AcDbEntity
8
0
100
AcDbSpline
70
6
71
5
72
71
73
65
74
0
42
0.000000001
43
0.0000000001
44
0.0000000001
40
-1
40
-1
40
-1
40
-1
40
-1
40
-1
40
-0.98333333333333472
40
-0.96666666666666801
40
-0.95000000000000129
40
-0.93333333333333457
40
-0.91666666666666785
40
-0.90000000000000113
40
-0.88333333333333441
40
-0.8666666666666677
40
-0.85000000000000098
40
-0.83333333333333426
40
-0.81666666666666754
40
-0.80000000000000082
40
-0.7833333333333341
40
-0.76666666666666738
40
-0.75000000000000067
40
-0.73333333333333395
40
-0.71666666666666723
40
-0.70000000000000051
40
-0.68333333333333379
40
-0.66666666666666707
40
-0.65000000000000036
40
-0.63333333333333364
40
-0.61666666666666692
40
-0.6000000000000002
40
-0.58333333333333348
40
-0.56666666666666676
40
-0.55000000000000004
40
-0.53333333333333333
40
-0.51666666666666661
40
-0.49999999999999994
40
-0.48333333333333328
40
-0.46666666666666662
40
-0.44999999999999996
40
-0.43333333333333329
40
-0.41666666666666663
40
-0.39999999999999997
40
-0.3833333333333333
40
-0.36666666666666664
40
-0.34999999999999998
40
-0.33333333333333331
40
-0.31666666666666665
40
-0.29999999999999999
40
-0.28333333333333333
40
-0.26666666666666666
40
-0.24999999999999997
40
-0.23333333333333331
40
-0.21666666666666665
40
-0.19999999999999998
40
-0.18333333333333332
40
-0.16666666666666666
40
-0.14999999999999999
40
-0.13333333333333333
40
-0.11666666666666665
40
-0.099999999999999992
40
-0.083333333333333329
40
-0.066666666666666666
40
-0.050000000000000003
40
-0.033333333333333333
40
-0.016666666666666666
40
0
40
0
40
0
40
0
40
0
40
0
41
1
41
1
41
1
41
1
41
1
41
1
41
1
41
1
41
1
41
1
41
1
41
1
41
1
41
1
41
1
41
1
41
1
41
1
41
1
41
1
41
1
41
1
41
1
41
1
41
1
41
1
41
1
41
1
41
1
41
1
41
1
41
1
41
1
41
1
41
1
41
1
41
1
41
1
41
1
41
1
41
1
41
1
41
1
41
1
41
1
41
1
41
1
41
1
41
1
41
1
41
1
41
1
41
1
41
1
41
1
41
1
41
1
41
1
41
1
41
1
41
1
41
1
41
1
41
1
41
1
10
-8.1463149431021247
20
-8.536115500528787
30
0
10
-8.1397526745391247
20
-8.5259120809872542
30
0
10
-8.1139103889706483
20
-8.5083434309343993
30
0
10
-8.0386131960158629
20
-8.4903135325427765
30
0
10
-7.8756334918553792
20
-8.481033546638443
30
0
10
-7.6046224046516349
20
-8.4859639847370012
30
0
10
-7.3046673862874005
20
-8.4983048929883349
30
0
10
-7.00660573095786
20
-8.510047956227087
30
0
10
-6.7232398673885232
20
-8.5168195566251779
30
0
10
-6.4529344654933345
20
-8.5173912092789781
30
0
10
-6.1855588541580326
20
-8.5126793624781811
30
0
10
-5.9077850243390095
20
-8.504906393021793
30
0
10
-5.6082143172496499
20
-8.4967451683285447
30
0
10
-5.2836287727232483
20
-8.490354996236313
30
0
10
-4.941117154453468
20
-8.4868710074904179
30
0
10
-4.593172572375706
20
-8.4866772651188445
30
0
10
-4.2544457943389453
20
-8.4894976290406685
30
0
10
-3.9377818077084843
20
-8.4945582569873466
30
0
10
-3.6506905828033585
20
-8.5007193590273502
30
0
10
-3.3913151525777714
20
-8.5066169912119545
30
0
10
-3.1455037883247603
20
-8.510807435450225
30
0
10
-2.8938018531597178
20
-8.5120206399204861
30
0
10
-2.6172796169236059
20
-8.5093891788246445
30
0
10
-2.3044017875156921
20
-8.5027162202687752
30
0
10
-1.9560934957344847
20
-8.4926623126086618
30
0
10
-1.5950183478487776
20
-8.4811230971342777
30
0
10
-1.2541303127393064
20
-8.4710749746765934
30
0
10
-0.96853530043348202
20
-8.4672804499536269
30
0
10
-0.75060947631027886
20
-8.4749251666246135
30
0
10
-0.60712132115732365
20
-8.5031032259579309
30
0
10
-0.45294193175757802
20
-8.556719494714141
30
0
10
-0.37640762737597155
20
-8.6631649000422133
30
0
10
-0.41524367382891358
20
-8.8003693796582034
30
0
10
-0.4080105767734632
20
-8.9034303715100069
30
0
10
-0.39452008338733124
20
-9.034547552775086
30
0
10
-0.39371798736403474
20
-9.2273487555249467
30
0
10
-0.40083716409303893
20
-9.4629315013614725
30
0
10
-0.40124595076100439
20
-9.6959760872705907
30
0
10
-0.39481253815896333
20
-9.8772003912508879
30
0
10
-0.42085657334732346
20
-9.9809133986769112
30
0
10
-0.56086439408861988
20
-10.01592632988311
30
0
10
-0.87267720808269378
20
-10.005181420450278
30
0
10
-1.3703546691738295
20
-9.9760062771774258
30
0
10
-1.9180036105627192
20
-9.9382357342649463
30
0
10
-2.4118376912718178
20
-9.8962963687237941
30
0
10
-2.8108113802873005
20
-9.8546779590513065
30
0
10
-3.1069291756882991
20
-9.815653181146418
30
0
10
-3.321921866074069
20
-9.7802989221992487
30
0
10
-3.4923275302188101
20
-9.7480762145640991
30
0
10
-3.6602942361672079
20
-9.7170712466122104
30
0
10
-3.8602184084612072
20
-9.6838407664975215
30
0
10
-4.114424913691316
20
-9.6438804423176681
30
0
10
-4.4351145148596025
20
-9.592456636532539
30
0
10
-4.8245498736514483
20
-9.5253484431637201
30
0
10
-5.2759671154776377
20
-9.4396106103450528
30
0
10
-5.7740996906879394
20
-9.3343672419530463
30
0
10
-6.2959877357921261
20
-9.2115079442625571
30
0
10
-6.811291305937206
20
-9.07666199265282
30
0
10
-7.2857437245287358
20
-8.9381590158959199
30
0
10
-7.6852722456355336
20
-8.8055518762227187
30
0
10
-7.9798875175920605
20
-8.6882934440796848
30
0
10
-8.1141214573090767
20
-8.6131375478344658
30
0
10
-8.1532840003486591
20
-8.5695639481836015
30
0
10
-8.1528772116651265
20
-8.5463189200703233
30
0
10
-8.1463149431021247
20
-8.536115500528787
30
0
0
SPLINE
5
112
100
AcDbEntity
8
0
100
AcDbSpline
70
6
71
5
72
111
73
105
74
0
42
0.000000001
43
0.0000000001
44
0.0000000001
40
-1
40
-1
40
-1
40
-1
40
-1
40
-1
40
-0.99000000000000066
40
-0.98000000000000065
40
-0.97000000000000064
40
-0.96000000000000063
40
-0.95000000000000062
40
-0.94000000000000061
40
-0.9300000000000006
40
-0.9200000000000006
40
-0.91000000000000059
40
-0.90000000000000058
40
-0.89000000000000057
40
-0.88000000000000056
40
-0.87000000000000055
40
-0.86000000000000054
40
-0.85000000000000053
40
-0.84000000000000052
40
-0.83000000000000052
40
-0.82000000000000051
40
-0.8100000000000005
40
-0.80000000000000049
40
-0.79000000000000048
40
-0.78000000000000047
40
-0.77000000000000046
40
-0.76000000000000045
40
-0.75000000000000044
40
-0.74000000000000044
40
-0.73000000000000043
40
-0.72000000000000042
40
-0.71000000000000041
40
-0.7000000000000004
40
-0.69000000000000039
40
-0.68000000000000038
40
-0.67000000000000037
40
-0.66000000000000036
40
-0.65000000000000036
40
-0.64000000000000035
40
-0.63000000000000034
40
-0.62000000000000033
40
-0.61000000000000032
40
-0.60000000000000031
40
-0.5900000000000003
40
-0.58000000000000029
40
-0.57000000000000028
40
-0.56000000000000028
40
-0.55000000000000027
40
-0.54000000000000026
40
-0.53000000000000025
40
-0.52000000000000024
40
-0.51000000000000023
40
-0.50000000000000022
40
-0.49000000000000027
40
-0.48000000000000026
40
-0.47000000000000025
40
-0.46000000000000024
40
-0.45000000000000023
40
-0.44000000000000022
40
-0.43000000000000022
40
-0.42000000000000021
40
-0.4100000000000002
40
-0.40000000000000019
40
-0.39000000000000018
40
-0.38000000000000017
40
-0.37000000000000016
40
-0.36000000000000015
40
-0.35000000000000014
40
-0.34000000000000014
40
-0.33000000000000013
40
-0.32000000000000012
40
-0.31000000000000011
40
-0.3000000000000001
40
-0.29000000000000009
40
-0.28000000000000008
40
-0.27000000000000007
40
-0.26000000000000006
40
-0.25000000000000006
40
-0.24000000000000007
40
-0.23000000000000007
40
-0.22000000000000006
40
-0.21000000000000005
40
-0.20000000000000004
40
-0.19000000000000003
40
-0.18000000000000002
40
-0.17000000000000001
40
-0.16
40
-0.14999999999999999
40
-0.13999999999999999
40
-0.12999999999999998
40
-0.11999999999999998
40
-0.10999999999999999
40
-0.099999999999999992
40
-0.089999999999999997
40
-0.080000000000000002
40
-0.070000000000000007
40
-0.060000000000000005
40
-0.050000000000000003
40
-0.040000000000000001
40
-0.029999999999999999
40
-0.02
40
-0.01
40
0
40
0
40
0
40
0
40
0
40
0
41
1
41
1
41
1
41
1
41
1
41
1
41
1
41
1
41
1
41
1
41
1
41
1
41
1
41
1
41
1
41
1
41
1
41
1
41
1
41
1
41
1
41
1
41
1
41
1
41
1
41
1
41
1
41
1
41
1
41
1
41
1
41
1
41
1
41
1
41
1
41
1
41
1
41
1
41
1
41
1
41
1
41
1
41
1
41
1
41
1
41
1
41
1
41
1
41
1
41
1
41
1
41
1
41
1
41
1
41
1
41
1
41
1
41
1
41
1
41
1
41
1
41
1
41
1
41
1
41
1
41
1
41
1
41
1
41
1
41
1
41
1
41
1
41
1
41
1
41
1
41
1
41
1
41
1
41
1
41
1
41
1
41
1
41
1
41
1
41
1
41
1
41
1
41
1
41
1
41
1
41
1
41
1
41
1
41
1
41
1
41
1
41
1
41
1
41
1
41
1
41
1
41
1
41
1
41
1
41
1
10
12.178281251151457
20
6.5359838275009681
30
0
10
12.186180819252485
20
6.504718491927802
30
0
10
12.194765107306027
20
6.4437313579814983
30
0
10
12.185968085255888
20
6.3583737574552766
30
0
10
12.133338264819711
20
6.2634594541576307
30
0
10
12.013199326972524
20
6.1895228455001376
30
0
10
11.855184097222768
20
6.1634160547261683
30
0
10
11.673249149672179
20
6.171124269165011
30
0
10
11.478626729862075
20
6.1908565766712247
30
0
10
11.279645964594682
20
6.2029167361437416
30
0
10
11.081723453149923
20
6.199153138185844
30
0
10
10.886921168336363
20
6.1939338563855246
30
0
10
10.691415848822841
20
6.1915767567945306
30
0
10
10.488798659949108
20
6.1936480408602765
30
0
10
10.272158228198215
20
6.1984855218317252
30
0
10
10.036436864144877
20
6.2036438929602715
30
0
10
9.7812009480479816
20
6.2073461034661159
30
0
10
9.5101859825579265
20
6.208916357944382
30
0
10
9.2294579756260582
20
6.2083418789464249
30
0
10
8.9460538715180675
20
6.2061449700437494
30
0
10
8.6663682518271568
20
6.2031201824786457
30
0
10
8.3947758592018982
20
6.2001402166815351
30
0
10
8.1318437908566903
20
6.1979071561059635
30
0
10
7.8737390746929661
20
6.1968030432380869
30
0
10
7.6152017888795189
20
6.1968878648954391
30
0
10
7.3513617874269714
20
6.1979519032325188
30
0
10
7.0810318300569897
20
6.1993760109705143
30
0
10
6.8070411262296862
20
6.2004634430969006
30
0
10
6.5433397997664215
20
6.1996498739229349
30
0
10
6.3043404823632931
20
6.196679391061954
30
0
10
6.0916403778211379
20
6.1938347047447087
30
0
10
5.901882746230477
20
6.1936756660940082
30
0
10
5.7269849852948767
20
6.1979759127499099
30
0
10
5.5575357445699867
20
6.2063051522426811
30
0
10
5.3849618100652199
20
6.2143577555765503
30
0
10
5.2031590339952736
20
6.2164122721204622
30
0
10
5.0098325994170025
20
6.208893977156289
30
0
10
4.8076413744406929
20
6.1930287382591755
30
0
10
4.6061880412971714
20
6.1791217621891992
30
0
10
4.4207511615017028
20
6.1854242092876577
30
0
10
4.2667706045400928
20
6.2301463725535839
30
0
10
4.1558675343450044
20
6.325925515510872
30
0
10
4.0902534886911743
20
6.4717338522951477
30
0
10
4.0611243322730628
20
6.651111446475193
30
0
10
4.0547989252553016
20
6.8428187854995759
30
0
10
4.0568867801654154
20
7.0281807853141256
30
0
10
4.057962988945536
20
7.201237768093864
30
0
10
4.0563427687557665
20
7.3730586402914096
30
0
10
4.0538417067766384
20
7.5616580153388719
30
0
10
4.0526227236086267
20
7.7840735819393352
30
0
10
4.0519864024325267
20
8.048499835024872
30
0
10
4.0438269567757681
20
8.3439180666619315
30
0
10
4.0332790409909416
20
8.6518676721577652
30
0
10
4.0317931362539303
20
8.9494603162568591
30
0
10
4.0550199185008324
20
9.2130682080958124
30
0
10
4.1187630765225611
20
9.4219559804406643
30
0
10
4.2359775513502358
20
9.5616013452155784
30
0
10
4.4127743587046897
20
9.6279638124922649
30
0
10
4.6467208416565366
20
9.6285556552093023
30
0
10
4.9288015305173198
20
9.5779467361895723
30
0
10
5.2445599108051297
20
9.4945309383571619
30
0
10
5.5755643858440394
20
9.3967953549010339
30
0
10
5.9007329863000635
20
9.2997879444149287
30
0
10
6.1977158790317333
20
9.2115337879094099
30
0
10
6.4442482871732487
20
9.1293685666172077
30
0
10
6.6217202346055659
20
9.0438646801655036
30
0
10
6.7189923334226211
20
8.9430031298714692
30
0
10
6.7357223278417528
20
8.8160614056914852
30
0
10
6.6868466077338633
20
8.6580667155762274
30
0
10
6.6036810582352965
20
8.472630208565386
30
0
10
6.5239577662869168
20
8.2693008199919351
30
0
10
6.4832385861908737
20
8.0618006838554503
30
0
10
6.5067006216378047
20
7.8659519972858023
30
0
10
6.5984739329463267
20
7.6976522686151529
30
0
10
6.744246541497839
20
7.5712502567971267
30
0
10
6.9204924458882378
20
7.4980858129970667
30
0
10
7.1010903638895559
20
7.4851089119723904
30
0
10
7.2662009645149244
20
7.5331415701264852
30
0
10
7.4052065606942623
20
7.6366330381542715
30
0
10
7.5155827139515461
20
7.7844977409396989
30
0
10
7.6026870818620322
20
7.9608001983634491
30
0
10
7.6797363084150385
20
8.1451140466921874
30
0
10
7.7651572894941872
20
8.3147831613178624
30
0
10
7.8777656453776981
20
8.4486728705018663
30
0
10
8.0328667095489852
20
8.5302579013019404
30
0
10
8.2373744091905987
20
8.5514804626339007
30
0
10
8.4872222171467246
20
8.5147373670350088
30
0
10
8.7712311767496374
20
8.4295351987424763
30
0
10
9.0738834355637099
20
8.3100556959540892
30
0
10
9.3784565763139369
20
8.1724134762421343
30
0
10
9.6701550673455348
20
8.0319390274393143
30
0
10
9.9388868626198192
20
7.9007033593437113
30
0
10
10.18309664782902
20
7.7842994216402364
30
0
10
10.408723440561065
20
7.6820628448776942
30
0
10
10.625358224030956
20
7.5892452166244855
30
0
10
10.843350768147062
20
7.4985628129272053
30
0
10
11.070340054757834
20
7.4020460361157339
30
0
10
11.308458508383893
20
7.292656825899444
30
0
10
11.550177908256265
20
7.1662606614471649
30
0
10
11.779273287831032
20
7.02236354476707
30
0
10
11.975828730761847
20
6.8638913523376512
30
0
10
12.091231087399088
20
6.7305728067392865
30
0
10
12.147367698699865
20
6.6313233714205051
30
0
10
12.170381683050431
20
6.5672491630741359
30
0
10
12.178281251151457
20
6.5359838275009681
30
0
0
SPLINE
5
113
100
AcDbEntity
8
0
100
AcDbSpline
70
6
71
5
72
96
73
90
74
0
42
0.000000001
43
0.0000000001
44
0.0000000001
40
0
40
0
40
0
40
0
40
0
40
0
40
0.011764705882352941
40
0.023529411764705882
40
0.035294117647058823
40
0.047058823529411764
40
0.058823529411764705
40
0.070588235294117646
40
0.082352941176470587
40
0.094117647058823528
40
0.10588235294117647
40
0.11764705882352941
40
0.12941176470588234
40
0.14117647058823529
40
0.15294117647058825
40
0.1647058823529412
40
0.17647058823529416
40
0.18823529411764711
40
0.20000000000000007
40
0.21176470588235302
40
0.22352941176470598
40
0.23529411764705893
40
0.24705882352941189
40
0.25882352941176484
40
0.2705882352941178
40
0.28235294117647075
40
0.29411764705882371
40
0.30588235294117666
40
0.31764705882352962
40
0.32941176470588257
40
0.34117647058823553
40
0.35294117647058848
40
0.36470588235294144
40
0.37647058823529439
40
0.38823529411764734
40
0.4000000000000003
40
0.41176470588235325
40
0.42352941176470621
40
0.43529411764705916
40
0.44705882352941212
40
0.45882352941176507
40
0.47058823529411803
40
0.48235294117647098
40
0.49411764705882394
40
0.50588235294117689
40
0.51764705882352979
40
0.52941176470588269
40
0.54117647058823559
40
0.55294117647058849
40
0.56470588235294139
40
0.57647058823529429
40
0.58823529411764719
40
0.60000000000000009
40
0.61176470588235299
40
0.62352941176470589
40
0.63529411764705879
40
0.64705882352941169
40
0.65882352941176459
40
0.67058823529411749
40
0.68235294117647038
40
0.69411764705882328
40
0.70588235294117618
40
0.71764705882352908
40
0.72941176470588198
40
0.74117647058823488
40
0.75294117647058778
40
0.76470588235294068
40
0.77647058823529358
40
0.78823529411764648
40
0.79999999999999938
40
0.81176470588235228
40
0.82352941176470518
40
0.83529411764705808
40
0.84705882352941098
40
0.85882352941176388
40
0.87058823529411677
40
0.88235294117646967
40
0.89411764705882257
40
0.90588235294117547
40
0.91764705882352837
40
0.92941176470588127
40
0.94117647058823417
40
0.95294117647058707
40
0.96470588235293997
40
0.97647058823529287
40
0.98823529411764577
40
1
40
1
40
1
40
1
40
1
40
1
41
1
41
1
41
1
41
1
41
1
41
1
41
1
41
1
41
1
41
1
41
1
41
1
41
1
41
1
41
1
41
1
41
1
41
1
41
1
41
1
41
1
41
1
41
1
41
1
41
1
41
1
41
1
41
1
41
1
41
1
41
1
41
1
41
1
41
1
41
1
41
1
41
1
41
1
41
1
41
1
41
1
41
1
41
1
41
1
41
1
41
1
41
1
41
1
41
1
41
1
41
1
41
1
41
1
41
1
41
1
41
1
41
1
41
1
41
1
41
1
41
1
41
1
41
1
41
1
41
1
41
1
41
1
41
1
41
1
41
1
41
1
41
1
41
1
41
1
41
1
41
1
41
1
41
1
41
1
41
1
41
1
41
1
41
1
41
1
41
1
41
1
41
1
41
1
41
1
41
1
10
-12.30450809088966
20
6.4562548880146355
30
0
10
-12.30655862885606
20
6.4752685325379744
30
0
10
-12.297650606253526
20
6.5165425761623297
30
0
10
-12.246029979977655
20
6.5889301692190347
30
0
10
-12.108350815099017
20
6.7079370639865195
30
0
10
-11.853425810239859
20
6.8830866148319885
30
0
10
-11.554110504533863
20
7.0683729179575989
30
0
10
-11.247315734627584
20
7.2458261183551027
30
0
10
-10.961897116343909
20
7.4013646668671687
30
0
10
-10.709636305442299
20
7.5307486973424496
30
0
10
-10.484241801669132
20
7.6405565389863401
30
0
10
-10.269512416058765
20
7.7425407284344416
30
0
10
-10.045078982242083
20
7.8497773899282013
30
0
10
-9.7932141391259382
20
7.9720188814466812
30
0
10
-9.5049783681663644
20
8.1115423927482375
30
0
10
-9.1872200875726566
20
8.2583542248068422
30
0
10
-8.8577976218305281
20
8.3943110752942651
30
0
10
-8.5399805842786858
20
8.4978667192050121
30
0
10
-8.2572578692088836
20
8.548503298776625
30
0
10
-8.0277379133384663
20
8.5314904430479093
30
0
10
-7.859277343455755
20
8.4420514828238229
30
0
10
-7.7428377298999624
20
8.2909816046563254
30
0
10
-7.6571230226295883
20
8.101026947456516
30
0
10
-7.5764491771168361
20
7.9006233682410398
30
0
10
-7.4771712152971537
20
7.7188049659743827
30
0
10
-7.345571445840883
20
7.5789518904158513
30
0
10
-7.1794507531584841
20
7.4974597812155057
30
0
10
-6.9878052155152046
20
7.4838474500278478
30
0
10
-6.7913169768277539
20
7.5403475794336332
30
0
10
-6.6220099181942462
20
7.6618048828233256
30
0
10
-6.5114178814266959
20
7.8368287025828227
30
0
10
-6.4802883648107779
20
8.0490157878065673
30
0
10
-6.5258131721757904
20
8.2779004439295143
30
0
10
-6.6156600880394292
20
8.5007481643633067
30
0
10
-6.7037163976556986
20
8.6971327705888566
30
0
10
-6.7421502777708477
20
8.85302333023788
30
0
10
-6.6949633059991251
20
8.9651151285968691
30
0
10
-6.5507876312242059
20
9.0449495351830684
30
0
10
-6.3170652136147742
20
9.111785032316341
30
0
10
-6.0141462764583444
20
9.1852090729828095
30
0
10
-5.6696538838355606
20
9.2784954876568566
30
0
10
-5.3122065386118846
20
9.3900283777163995
30
0
10
-4.968572473519834
20
9.505082707799513
30
0
10
-4.6620809934674767
20
9.6015706008735435
30
0
10
-4.4106923787947832
20
9.6544122659640657
30
0
10
-4.2250476987748842
20
9.640641634922428
30
0
10
-4.1068884978326921
20
9.5438123853523695
30
0
10
-4.046367467737122
20
9.3596950162385539
30
0
10
-4.0252683920512613
20
9.0957492580128072
30
0
10
-4.022609529622363
20
8.7681650767615515
30
0
10
-4.019427178214972
20
8.3996928069938921
30
0
10
-4.0039968011458758
20
8.0171639012351132
30
0
10
-3.9766481545758228
20
7.6491205375610294
30
0
10
-3.9553699719946658
20
7.3234767727207046
30
0
10
-3.9665182697531636
20
7.063555830410456
30
0
10
-4.0348798870158262
20
6.8841081644137585
30
0
10
-4.1737021379535051
20
6.7871689780883138
30
0
10
-4.3753424641023893
20
6.7583406682723126
30
0
10
-4.6000054755176381
20
6.7619017491334716
30
0
10
-4.7972455551513473
20
6.7554205957749378
30
0
10
-4.9282433277903186
20
6.7047712216427229
30
0
10
-4.9902849746428908
20
6.6005870206779029
30
0
10
-5.0336097526316701
20
6.4698276531141046
30
0
10
-5.1235202248676472
20
6.3518613770483476
30
0
10
-5.3006442144668053
20
6.2736817499639903
30
0
10
-5.5620812131678248
20
6.2375553782935862
30
0
10
-5.882333599422366
20
6.232668645504166
30
0
10
-6.2257521715191579
20
6.2415152563036367
30
0
10
-6.56089886867563
20
6.2477816459318989
30
0
10
-6.8774784025627609
20
6.2449854979646986
30
0
10
-7.1949183863988884
20
6.2418550006976865
30
0
10
-7.5134719914436783
20
6.2402877612434695
30
0
10
-7.8301205449011917
20
6.2414156575915998
30
0
10
-8.1371393211500731
20
6.2442124696887653
30
0
10
-8.427860749686868
20
6.2471455309836479
30
0
10
-8.6989848464467734
20
6.2484783623393909
30
0
10
-8.9552833280152608
20
6.2472639426487948
30
0
10
-9.210116782544171
20
6.2436559052558476
30
0
10
-9.4801647901433146
20
6.2385945673363015
30
0
10
-9.7815172745640488
20
6.2336188553729297
30
0
10
-10.125069502866474
20
6.2306258455444592
30
0
10
-10.512559949431937
20
6.231661329958488
30
0
10
-10.93148516232362
20
6.2386761735949845
30
0
10
-11.353119296969393
20
6.2533907095708745
30
0
10
-11.740483454523757
20
6.2780232745731332
30
0
10
-12.054528335146797
20
6.3153931087035993
30
0
10
-12.219886117913001
20
6.3592939071647061
30
0
10
-12.285347378455775
20
6.402460709022634
30
0
10
-12.302457552923261
20
6.4372412434912958
30
0
10
-12.30450809088966
20
6.4562548880146355
30
0
0
SPLINE
5
114
100
AcDbEntity
8
0
100
AcDbSpline
70
6
71
5
72
396
73
390
74
0
42
0.000000001
43
0.0000000001
44
0.0000000001
40
-1
40
-1
40
-1
40
-1
40
-1
40
-1
40
-0.99740259740259762
40
-0.99480519480519503
40
-0.99220779220779243
40
-0.98961038961038983
40
-0.98701298701298723
40
-0.98441558441558463
40
-0.98181818181818203
40
-0.97922077922077944
40
-0.97662337662337684
40
-0.97402597402597424
40
-0.97142857142857164
40
-0.96883116883116904
40
-0.96623376623376644
40
-0.96363636363636385
40
-0.96103896103896125
40
-0.95844155844155865
40
-0.95584415584415605
40
-0.95324675324675345
40
-0.95064935064935085
40
-0.94805194805194826
40
-0.94545454545454566
40
-0.94285714285714306
40
-0.94025974025974046
40
-0.93766233766233786
40
-0.93506493506493527
40
-0.93246753246753267
40
-0.92987012987013007
40
-0.92727272727272747
40
-0.92467532467532487
40
-0.92207792207792227
40
-0.91948051948051968
40
-0.91688311688311708
40
-0.91428571428571448
40
-0.91168831168831188
40
-0.90909090909090928
40
-0.90649350649350668
40
-0.90389610389610409
40
-0.90129870129870149
40
-0.89870129870129889
40
-0.89610389610389629
40
-0.89350649350649369
40
-0.89090909090909109
40
-0.8883116883116885
40
-0.8857142857142859
40
-0.8831168831168833
40
-0.8805194805194807
40
-0.8779220779220781
40
-0.87532467532467551
40
-0.87272727272727291
40
-0.87012987012987031
40
-0.86753246753246771
40
-0.86493506493506511
40
-0.86233766233766251
40
-0.85974025974025992
40
-0.85714285714285732
40
-0.85454545454545472
40
-0.85194805194805212
40
-0.84935064935064952
40
-0.84675324675324692
40
-0.84415584415584433
40
-0.84155844155844173
40
-0.83896103896103913
40
-0.83636363636363653
40
-0.83376623376623393
40
-0.83116883116883133
40
-0.82857142857142874
40
-0.82597402597402614
40
-0.82337662337662354
40
-0.82077922077922094
40
-0.81818181818181834
40
-0.81558441558441575
40
-0.81298701298701315
40
-0.81038961038961055
40
-0.80779220779220795
40
-0.80519480519480535
40
-0.80259740259740275
40
-0.80000000000000016
40
-0.79740259740259756
40
-0.79480519480519496
40
-0.79220779220779236
40
-0.78961038961038976
40
-0.78701298701298716
40
-0.78441558441558457
40
-0.78181818181818197
40
-0.77922077922077937
40
-0.77662337662337677
40
-0.77402597402597417
40
-0.77142857142857157
40
-0.76883116883116898
40
-0.76623376623376638
40
-0.76363636363636378
40
-0.76103896103896118
40
-0.75844155844155858
40
-0.75584415584415598
40
-0.75324675324675339
40
-0.75064935064935079
40
-0.74805194805194819
40
-0.74545454545454559
40
-0.74285714285714299
40
-0.7402597402597404
40
-0.7376623376623378
40
-0.7350649350649352
40
-0.7324675324675326
40
-0.72987012987013
40
-0.7272727272727274
40
-0.72467532467532481
40
-0.72207792207792221
40
-0.71948051948051961
40
-0.71688311688311701
40
-0.71428571428571441
40
-0.71168831168831181
40
-0.70909090909090922
40
-0.70649350649350662
40
-0.70389610389610402
40
-0.70129870129870142
40
-0.69870129870129882
40
-0.69610389610389622
40
-0.69350649350649363
40
-0.69090909090909103
40
-0.68831168831168843
40
-0.68571428571428583
40
-0.68311688311688323
40
-0.68051948051948064
40
-0.67792207792207804
40
-0.67532467532467544
40
-0.67272727272727284
40
-0.67012987012987024
40
-0.66753246753246764
40
-0.66493506493506505
40
-0.66233766233766245
40
-0.65974025974025985
40
-0.65714285714285725
40
-0.65454545454545465
40
-0.65194805194805205
40
-0.64935064935064946
40
-0.64675324675324686
40
-0.64415584415584426
40
-0.64155844155844166
40
-0.63896103896103906
40
-0.63636363636363646
40
-0.63376623376623387
40
-0.63116883116883127
40
-0.62857142857142867
40
-0.62597402597402607
40
-0.62337662337662347
40
-0.62077922077922087
40
-0.61818181818181828
40
-0.61558441558441568
40
-0.61298701298701308
40
-0.61038961038961048
40
-0.60779220779220788
40
-0.60519480519480529
40
-0.60259740259740269
40
-0.60000000000000009
40
-0.59740259740259749
40
-0.59480519480519489
40
-0.59220779220779229
40
-0.5896103896103897
40
-0.5870129870129871
40
-0.5844155844155845
40
-0.5818181818181819
40
-0.5792207792207793
40
-0.5766233766233767
40
-0.57402597402597411
40
-0.57142857142857151
40
-0.56883116883116891
40
-0.56623376623376631
40
-0.56363636363636371
40
-0.56103896103896111
40
-0.55844155844155852
40
-0.55584415584415592
40
-0.55324675324675332
40
-0.55064935064935072
40
-0.54805194805194812
40
-0.54545454545454553
40
-0.54285714285714293
40
-0.54025974025974033
40
-0.53766233766233773
40
-0.53506493506493513
40
-0.53246753246753253
40
-0.52987012987012994
40
-0.52727272727272734
40
-0.52467532467532474
40
-0.52207792207792214
40
-0.51948051948051954
40
-0.51688311688311694
40
-0.51428571428571435
40
-0.51168831168831175
40
-0.50909090909090915
40
-0.50649350649350655
40
-0.50389610389610395
40
-0.50129870129870135
40
-0.49870129870129881
40
-0.49610389610389621
40
-0.49350649350649362
40
-0.49090909090909102
40
-0.48831168831168842
40
-0.48571428571428582
40
-0.48311688311688322
40
-0.48051948051948062
40
-0.47792207792207803
40
-0.47532467532467543
40
-0.47272727272727283
40
-0.47012987012987023
40
-0.46753246753246763
40
-0.46493506493506503
40
-0.46233766233766244
40
-0.45974025974025984
40
-0.45714285714285724
40
-0.45454545454545464
40
-0.45194805194805204
40
-0.44935064935064944
40
-0.44675324675324685
40
-0.44415584415584425
40
-0.44155844155844165
40
-0.43896103896103905
40
-0.43636363636363645
40
-0.43376623376623386
40
-0.43116883116883126
40
-0.42857142857142866
40
-0.42597402597402606
40
-0.42337662337662346
40
-0.42077922077922086
40
-0.41818181818181827
40
-0.41558441558441567
40
-0.41298701298701307
40
-0.41038961038961047
40
-0.40779220779220787
40
-0.40519480519480527
40
-0.40259740259740268
40
-0.40000000000000008
40
-0.39740259740259748
40
-0.39480519480519488
40
-0.39220779220779228
40
-0.38961038961038968
40
-0.38701298701298709
40
-0.38441558441558449
40
-0.38181818181818189
40
-0.37922077922077929
40
-0.37662337662337669
40
-0.3740259740259741
40
-0.3714285714285715
40
-0.3688311688311689
40
-0.3662337662337663
40
-0.3636363636363637
40
-0.3610389610389611
40
-0.35844155844155851
40
-0.35584415584415591
40
-0.35324675324675331
40
-0.35064935064935071
40
-0.34805194805194811
40
-0.34545454545454551
40
-0.34285714285714292
40
-0.34025974025974032
40
-0.33766233766233772
40
-0.33506493506493512
40
-0.33246753246753252
40
-0.32987012987012992
40
-0.32727272727272733
40
-0.32467532467532473
40
-0.32207792207792213
40
-0.31948051948051953
40
-0.31688311688311693
40
-0.31428571428571433
40
-0.31168831168831174
40
-0.30909090909090914
40
-0.30649350649350654
40
-0.30389610389610394
40
-0.30129870129870134
40
-0.29870129870129875
40
-0.29610389610389615
40
-0.29350649350649355
40
-0.29090909090909095
40
-0.28831168831168835
40
-0.28571428571428575
40
-0.28311688311688316
40
-0.28051948051948056
40
-0.27792207792207796
40
-0.27532467532467536
40
-0.27272727272727276
40
-0.27012987012987016
40
-0.26753246753246757
40
-0.26493506493506497
40
-0.26233766233766237
40
-0.25974025974025977
40
-0.25714285714285717
40
-0.25454545454545457
40
-0.25194805194805198
40
-0.24935064935064941
40
-0.24675324675324681
40
-0.24415584415584421
40
-0.24155844155844161
40
-0.23896103896103901
40
-0.23636363636363641
40
-0.23376623376623382
40
-0.23116883116883122
40
-0.22857142857142862
40
-0.22597402597402602
40
-0.22337662337662342
40
-0.22077922077922082
40
-0.21818181818181823
40
-0.21558441558441563
40
-0.21298701298701303
40
-0.21038961038961043
40
-0.20779220779220783
40
-0.20519480519480524
40
-0.20259740259740264
40
-0.20000000000000004
40
-0.19740259740259744
40
-0.19480519480519484
40
-0.19220779220779224
40
-0.18961038961038965
40
-0.18701298701298705
40
-0.18441558441558445
40
-0.18181818181818185
40
-0.17922077922077925
40
-0.17662337662337665
40
-0.17402597402597406
40
-0.17142857142857146
40
-0.16883116883116886
40
-0.16623376623376626
40
-0.16363636363636366
40
-0.16103896103896106
40
-0.15844155844155847
40
-0.15584415584415587
40
-0.15324675324675327
40
-0.15064935064935067
40
-0.14805194805194807
40
-0.14545454545454548
40
-0.14285714285714288
40
-0.14025974025974028
40
-0.13766233766233768
40
-0.13506493506493508
40
-0.13246753246753248
40
-0.12987012987012989
40
-0.12727272727272729
40
-0.1246753246753247
40
-0.1220779220779221
40
-0.11948051948051951
40
-0.11688311688311691
40
-0.11428571428571431
40
-0.11168831168831171
40
-0.10909090909090911
40
-0.10649350649350652
40
-0.10389610389610392
40
-0.10129870129870132
40
-0.09870129870129872
40
-0.096103896103896122
40
-0.093506493506493524
40
-0.090909090909090925
40
-0.088311688311688327
40
-0.085714285714285729
40
-0.083116883116883131
40
-0.080519480519480532
40
-0.077922077922077934
40
-0.075324675324675336
40
-0.072727272727272738
40
-0.070129870129870139
40
-0.067532467532467541
40
-0.064935064935064943
40
-0.062337662337662351
40
-0.059740259740259753
40
-0.057142857142857155
40
-0.054545454545454557
40
-0.051948051948051958
40
-0.04935064935064936
40
-0.046753246753246762
40
-0.044155844155844164
40
-0.041558441558441565
40
-0.038961038961038967
40
-0.036363636363636369
40
-0.033766233766233771
40
-0.031168831168831176
40
-0.028571428571428577
40
-0.025974025974025979
40
-0.023376623376623381
40
-0.020779220779220783
40
-0.018181818181818184
40
-0.015584415584415586
40
-0.012987012987012988
40
-0.01038961038961039
40
-0.0077922077922077922
40
-0.0051948051948051948
40
-0.0025974025974025974
40
0
40
0
40
0
40
0
40
0
40
0
41
1
41
1
41
1
41
1
41
1
41
1
41
1
41
1
41
1
41
1
41
1
41
1
41
1
41
1
41
1
41
1
41
1
41
1
41
1
41
1
41
1
41
1
41
1
41
1
41
1
41
1
41
1
41
1
41
1
41
1
41
1
41
1
41
1
41
1
41
1
41
1
41
1
41
1
41
1
41
1
41
1
41
1
41
1
41
1
41
1
41
1
41
1
41
1
41
1
41
1
41
1
41
1
41
1
41
1
41
1
41
1
41
1
41
1
41
1
41
1
41
1
41
1
41
1
41
1
41
1
41
1
41
1
41
1
41
1
41
1
41
1
41
1
41
1
41
1
41
1
41
1
41
1
41
1
41
1
41
1
41
1
41
1
41
1
41
1
41
1
41
1
41
1
41
1
41
1
41
1
41
1
41
1
41
1
41
1
41
1
41
1
41
1
41
1
41
1
41
1
41
1
41
1
41
1
41
1
41
1
41
1
41
1
41
1
41
1
41
1
41
1
41
1
41
1
41
1
41
1
41
1
41
1
41
1
41
1
41
1
41
1
41
1
41
1
41
1
41
1
41
1
41
1
41
1
41
1
41
1
41
1
41
1
41
1
41
1
41
1
41
1
41
1
41
1
41
1
41
1
41
1
41
1
41
1
41
1
41
1
41
1
41
1
41
1
41
1
41
1
41
1
41
1
41
1
41
1
41
1
41
1
41
1
41
1
41
1
41
1
41
1
41
1
41
1
41
1
41
1
41
1
41
1
41
1
41
1
41
1
41
1
41
1
41
1
41
1
41
1
41
1
41
1
41
1
41
1
41
1
41
1
41
1
41
1
41
1
41
1
41
1
41
1
41
1
41
1
41
1
41
1
41
1
41
1
41
1
41
1
41
1
41
1
41
1
41
1
41
1
41
1
41
1
41
1
41
1
41
1
41
1
41
1
41
1
41
1
41
1
41
1
41
1
41
1
41
1
41
1
41
1
41
1
41
1
41
1
41
1
41
1
41
1
41
1
41
1
41
1
41
1
41
1
41
1
41
1
41
1
41
1
41
1
41
1
41
1
41
1
41
1
41
1
41
1
41
1
41
1
41
1
41
1
41
1
41
1
41
1
41
1
41
1
41
1
41
1
41
1
41
1
41
1
41
1
41
1
41
1
41
1
41
1
41
1
41
1
41
1
41
1
41
1
41
1
41
1
41
1
41
1
41
1
41
1
41
1
41
1
41
1
41
1
41
1
41
1
41
1
41
1
41
1
41
1
41
1
41
1
41
1
41
1
41
1
41
1
41
1
41
1
41
1
41
1
41
1
41
1
41
1
41
1
41
1
41
1
41
1
41
1
41
1
41
1
41
1
41
1
41
1
41
1
41
1
41
1
41
1
41
1
41
1
41
1
41
1
41
1
41
1
41
1
41
1
41
1
41
1
41
1
41
1
41
1
41
1
41
1
41
1
41
1
41
1
41
1
41
1
41
1
41
1
41
1
41
1
41
1
41
1
41
1
41
1
41
1
41
1
41
1
41
1
41
1
41
1
41
1
41
1
41
1
41
1
41
1
41
1
41
1
41
1
41
1
41
1
41
1
41
1
41
1
41
1
41
1
41
1
41
1
41
1
41
1
41
1
41
1
41
1
41
1
41
1
41
1
41
1
41
1
41
1
41
1
41
1
41
1
41
1
41
1
41
1
41
1
41
1
41
1
41
1
41
1
41
1
41
1
41
1
41
1
41
1
41
1
41
1
41
1
41
1
41
1
41
1
41
1
10
-13.826499999999985
20
4.6619093413746846
30
0
10
-13.825016443994715
20
4.6519664268188663
30
0
10
-13.823604543749397
20
4.6320316223384408
30
0
10
-13.82463651499476
20
4.6024125024762261
30
0
10
-13.826120836080728
20
4.5649026778623796
30
0
10
-13.826675274586044
20
4.5230247143359383
30
0
10
-13.826549160637139
20
4.4844495357901817
30
0
10
-13.826498963313146
20
4.4431058325039547
30
0
10
-13.826496299550461
20
4.3923392270819663
30
0
10
-13.826509125626746
20
4.3291064050638202
30
0
10
-13.826502415560881
20
4.2569333305382955
30
0
10
-13.826491560536985
20
4.182441375428823
30
0
10
-13.82649169046061
20
4.1125332060031825
30
0
10
-13.82651509530997
20
4.0516093856952677
30
0
10
-13.826543021132366
20
3.9980432858969848
30
0
10
-13.826544165595564
20
3.9463930831344616
30
0
10
-13.826496859587802
20
3.8908647159024645
30
0
10
-13.826414006019075
20
3.8287005858065526
30
0
10
-13.826355891791072
20
3.7625596044111567
30
0
10
-13.826381989441366
20
3.6973843778485707
30
0
10
-13.826515597390923
20
3.638197628376707
30
0
10
-13.826694786555787
20
3.5872780197825991
30
0
10
-13.826754592176329
20
3.542357216874735
30
0
10
-13.826544331497125
20
3.4989451157935272
30
0
10
-13.826032685778282
20
3.4521796174547137
30
0
10
-13.825402859632767
20
3.398720269125497
30
0
10
-13.824913632243055
20
3.3370716094701049
30
0
10
-13.824792094590983
20
3.2679006919345248
30
0
10
-13.825084325539148
20
3.194671559090561
30
0
10
-13.825638042223515
20
3.1229284830357953
30
0
10
-13.826226264406161
20
3.0579860177579592
30
0
10
-13.826628212983326
20
3.0031981329212627
30
0
10
-13.82673984101187
20
2.9576483403509544
30
0
10
-13.826635217536023
20
2.9151088137762411
30
0
10
-13.826460884183588
20
2.8676570839498847
30
0
10
-13.826346510945164
20
2.8088809426272823
30
0
10
-13.826328387615298
20
2.7365608288965775
30
0
10
-13.82638727120073
20
2.6513051217005228
30
0
10
-13.826469992182171
20
2.5557504820956551
30
0
10
-13.826517773941516
20
2.4535326106093387
30
0
10
-13.826490903229208
20
2.3483741827080533
30
0
10
-13.826397096329462
20
2.2430705001582001
30
0
10
-13.826277611547946
20
2.1394967893117962
30
0
10
-13.826190290230384
20
2.0386808589870009
30
0
10
-13.826194079903573
20
1.9408551187696446
30
0
10
-13.826332062342795
20
1.845511637335207
30
0
10
-13.826617148774242
20
1.7514689194804878
30
0
10
-13.827011643677295
20
1.6569014838574858
30
0
10
-13.827428346240382
20
1.5595071597566876
30
0
10
-13.827756261440387
20
1.4568325095854446
30
0
10
-13.827880108694846
20
1.3465594773588427
30
0
10
-13.827701924254766
20
1.2268025708706962
30
0
10
-13.827162756100137
20
1.0964136226389607
30
0
10
-13.826262018473926
20
0.95525519935404835
30
0
10
-13.825083424475302
20
0.80455557101232222
30
0
10
-13.823799837819047
20
0.64700557519573965
30
0
10
-13.822629506709413
20
0.48626050752159605
30
0
10
-13.821801877080285
20
0.32656039413591381
30
0
10
-13.821519921782956
20
0.1723046916045454
30
0
10
-13.821923205010805
20
0.027642979576275088
30
0
10
-13.823052371476063
20
-0.10393315725891838
30
0
10
-13.824808968154619
20
-0.22001754292985323
30
0
10
-13.826926703743316
20
-0.31966485860998528
30
0
10
-13.828915203790224
20
-0.40389321091069924
30
0
10
-13.830083479301978
20
-0.47581456021710278
30
0
10
-13.829897326249844
20
-0.53913248952880333
30
0
10
-13.828302574888173
20
-0.59686486777940817
30
0
10
-13.826033154853286
20
-0.64999441550868708
30
0
10
-13.825037772182448
20
-0.6959940723405299
30
0
10
-13.826892163172376
20
-0.7321187752125965
30
0
10
-13.82715200865554
20
-0.76993815752978212
30
0
10
-13.816796289895283
20
-0.8296082565315821
30
0
10
-13.793519767173629
20
-0.90948237698520307
30
0
10
-13.756937230012969
20
-1.0016405076560673
30
0
10
-13.708947732084381
20
-1.0927180198853974
30
0
10
-13.651988041546359
20
-1.1706498243675916
30
0
10
-13.588094781177562
20
-1.2294142194325037
30
0
10
-13.518753532461652
20
-1.2684083197485032
30
0
10
-13.445083243026277
20
-1.2904794768620669
30
0
10
-13.367880264597433
20
-1.3004313984239173
30
0
10
-13.287741554123421
20
-1.3034160608576579
30
0
10
-13.205105621568523
20
-1.3031478975890234
30
0
10
-13.120600545707802
20
-1.3018534417589935
30
0
10
-13.03534558311285
20
-1.3006999613892285
30
0
10
-12.951482389792817
20
-1.3000668569189855
30
0
10
-12.872132539664424
20
-1.2998679144881495
30
0
10
-12.802745723641697
20
-1.2998886813007298
30
0
10
-12.748114606850161
20
-1.299974936332932
30
0
10
-12.708442199896744
20
-1.300013948656727
30
0
10
-12.670032260208133
20
-1.2999906115435595
30
0
10
-12.610734498198394
20
-1.2999683408307643
30
0
10
-12.53146862228628
20
-1.299960919729247
30
0
10
-12.439758565383087
20
-1.2999753091294568
30
0
10
-12.348104459922453
20
-1.3000027045542644
30
0
10
-12.265933237166832
20
-1.3000310466349172
30
0
10
-12.195118023926799
20
-1.3000480668219412
30
0
10
-12.132589901244678
20
-1.3000448013039434
30
0
10
-12.072808716841013
20
-1.3000180606561398
30
0
10
-12.010073204646737
20
-1.2999726723235558
30
0
10
-11.941373081236227
20
-1.2999255666289342
30
0
10
-11.866655416398073
20
-1.2999004090932023
30
0
10
-11.787699364597724
20
-1.2999172392883407
30
0
10
-11.707415462554861
20
-1.299983367106238
30
0
10
-11.628986295602379
20
-1.3000844151129463
30
0
10
-11.555030245278191
20
-1.3001734460903658
30
0
10
-11.487302137515391
20
-1.3001932308480575
30
0
10
-11.42640727163046
20
-1.300105117276966
30
0
10
-11.371621252478448
20
-1.2999095484073269
30
0
10
-11.320398177171532
20
-1.2996844232875413
30
0
10
-11.269065029218151
20
-1.2995591870236343
30
0
10
-11.214624136137289
20
-1.2996285704950252
30
0
10
-11.156328594844243
20
-1.2998801217520752
30
0
10
-11.097133148535352
20
-1.3001249206470165
30
0
10
-11.041109559692289
20
-1.3001692488056082
30
0
10
-10.991546508457212
20
-1.2999233764713527
30
0
10
-10.947976511697883
20
-1.2996289885927059
30
0
10
-10.906571831369108
20
-1.2997083794105604
30
0
10
-10.863597209004528
20
-1.3003492223641095
30
0
10
-10.819132192459552
20
-1.300915845283946
30
0
10
-10.776092487677355
20
-1.3004613971287966
30
0
10
-10.736405746199193
20
-1.2988064178699361
30
0
10
-10.697406914045173
20
-1.2976931264188818
30
0
10
-10.654193212254262
20
-1.2995664254883479
30
0
10
-10.60367144036881
20
-1.3056595073062987
30
0
10
-10.547240019774167
20
-1.3148047834377918
30
0
10
-10.488811582360857
20
-1.3257931433459973
30
0
10
-10.433420805833832
20
-1.338896241115876
30
0
10
-10.385431195870439
20
-1.3586518480286269
30
0
10
-10.34778878361228
20
-1.3918009831746481
30
0
10
-10.32187363261783
20
-1.4430868898441098
30
0
10
-10.307032962768067
20
-1.5107598630913452
30
0
10
-10.300693199915722
20
-1.5852511196842451
30
0
10
-10.299485662099892
20
-1.6550955847546076
30
0
10
-10.300116307589715
20
-1.7109508345194233
30
0
10
-10.300433014027146
20
-1.7510617192551909
30
0
10
-10.300138211484022
20
-1.7842052294670057
30
0
10
-10.299776517717708
20
-1.8216153824173571
30
0
10
-10.299716348360338
20
-1.8680174681620589
30
0
10
-10.29989261342765
20
-1.9211403047871751
30
0
10
-10.300111497164725
20
-1.9768410301113377
30
0
10
-10.300216583109187
20
-2.0333664720925388
30
0
10
-10.300189608925521
20
-2.0928726355419616
30
0
10
-10.300070589839462
20
-2.1588000442701492
30
0
10
-10.299934123562782
20
-2.2345601432457509
30
0
10
-10.299835813835344
20
-2.321330824042497
30
0
10
-10.299796745396595
20
-2.4175721098087557
30
0
10
-10.299816019272159
20
-2.5201626284689627
30
0
10
-10.299876523190743
20
-2.6251142529203744
30
0
10
-10.299953581156556
20
-2.7284808677560974
30
0
10
-10.300021992150331
20
-2.827130557395936
30
0
10
-10.300064675510228
20
-2.9197053760723071
30
0
10
-10.300077720788089
20
-3.0070906624740572
30
0
10
-10.300065673878942
20
-3.091491993056882
30
0
10
-10.300038609174594
20
-3.1757759403176666
30
0
10
-10.300008365984979
20
-3.2626727899443155
30
0
10
-10.299985445531707
20
-3.3541163827746576
30
0
10
-10.299974862333348
20
-3.4503289329254305
30
0
10
-10.299975937010347
20
-3.5499148876713282
30
0
10
-10.299984647365289
20
-3.6506183462347184
30
0
10
-10.299995182270623
20
-3.7498702165042497
30
0
10
-10.30000190261341
20
-3.84544929398893
30
0
10
-10.300000946734039
20
-3.9360316507914024
30
0
10
-10.29999243016259
20
-4.0219413600223071
30
0
10
-10.299980836503872
20
-4.105275615595593
30
0
10
-10.299972536435622
20
-4.1890358059515442
30
0
10
-10.299974025042308
20
-4.2765029871202067
30
0
10
-10.299989762028506
20
-4.3704870737486488
30
0
10
-10.300020431480574
20
-4.4726945553447583
30
0
10
-10.300060380825526
20
-4.582879696029674
30
0
10
-10.30009925436106
20
-4.6990852371770275
30
0
10
-10.300125106246043
20
-4.8182728427796171
30
0
10
-10.300127095435567
20
-4.9368312448259015
30
0
10
-10.300098209784148
20
-5.0511242146201534
30
0
10
-10.300038313223407
20
-5.1580471988586716
30
0
10
-10.299956270042994
20
-5.2555200008151939
30
0
10
-10.299874416677909
20
-5.3431571494903496
30
0
10
-10.29982380576813
20
-5.4222207779091933
30
0
10
-10.299832787472546
20
-5.4950155083329673
30
0
10
-10.299916599190681
20
-5.5644317742980904
30
0
10
-10.30006853596608
20
-5.6334551225740164
30
0
10
-10.300245569353278
20
-5.7046240718141661
30
0
10
-10.300375099121537
20
-5.7797673529286797
30
0
10
-10.300383140063126
20
-5.8600594271686548
30
0
10
-10.300218439706601
20
-5.9459844406012579
30
0
10
-10.299874651148686
20
-6.0373501416406867
30
0
10
-10.299422075440177
20
-6.1332498999754952
30
0
10
-10.299003759681879
20
-6.2321566888276436
30
0
10
-10.298778501541195
20
-6.3321956731522882
30
0
10
-10.298878428056671
20
-6.4313716716973435
30
0
10
-10.299357120715163
20
-6.5278197794258048
30
0
10
-10.300149969673942
20
-6.620034685417842
30
0
10
-10.301009669334517
20
-6.707136477976956
30
0
10
-10.301511954251676
20
-6.7890371671259944
30
0
10
-10.301333777809472
20
-6.8662104965176773
30
0
10
-10.300498538902184
20
-6.9395219716441048
30
0
10
-10.299618852924612
20
-7.0100322796434229
30
0
10
-10.30017627464804
20
-7.0788193011717766
30
0
10
-10.304680821344595
20
-7.1467720952759777
30
0
10
-10.316038866594077
20
-7.2142768039765226
30
0
10
-10.336980926033275
20
-7.2808842551495188
30
0
10
-10.369515888694815
20
-7.3450443603038078
30
0
10
-10.414249078753265
20
-7.4036611406188362
30
0
10
-10.470540826078206
20
-7.452676261016606
30
0
10
-10.536962999132189
20
-7.4880247717785133
30
0
10
-10.611647331812749
20
-7.5064343129059115
30
0
10
-10.692700897542693
20
-7.506366770264183
30
0
10
-10.778527336059817
20
-7.4886692616689565
30
0
10
-10.867758345013993
20
-7.455836036450413
30
0
10
-10.959232711408569
20
-7.4114480367001825
30
0
10
-11.051956498317626
20
-7.359535996110397
30
0
10
-11.145072541771825
20
-7.3039939534971037
30
0
10
-11.237822888519066
20
-7.2479285513447174
30
0
10
-11.329523398089822
20
-7.1931628495853346
30
0
10
-11.419595008033628
20
-7.1405416563237116
30
0
10
-11.507588658031748
20
-7.0901403053237573
30
0
10
-11.593211734770902
20
-7.0415073854327286
30
0
10
-11.676355991824799
20
-6.9939006188837691
30
0
10
-11.757119902034562
20
-6.9465078418553219
30
0
10
-11.83584583682747
20
-6.8987192137156974
30
0
10
-11.913092863623467
20
-6.8501677136830459
30
0
10
-11.989569095990259
20
-6.8006218656723201
30
0
10
-12.066076284890659
20
-6.7499250859728228
30
0
10
-12.143449293732674
20
-6.6979114376497488
30
0
10
-12.222497912627569
20
-6.6443415558561405
30
0
10
-12.303947292241507
20
-6.5888043345011136
30
0
10
-12.388381273473543
20
-6.5307701988705258
30
0
10
-12.476187467975095
20
-6.4697117039706846
30
0
10
-12.56750048378929
20
-6.4052043163985104
30
0
10
-12.662148804095285
20
-6.3370321039847388
30
0
10
-12.759593403846905
20
-6.2652990197506524
30
0
10
-12.858885564719884
20
-6.1905197647286503
30
0
10
-12.958576487597492
20
-6.1137654217441995
30
0
10
-13.05686733510769
20
-6.0365323920499092
30
0
10
-13.15186160234823
20
-5.960492850072435
30
0
10
-13.241787764800593
20
-5.8872804103487333
30
0
10
-13.32522752091948
20
-5.8182672630370673
30
0
10
-13.401357292250262
20
-5.7543308282570367
30
0
10
-13.470147567960643
20
-5.6956578508445803
30
0
10
-13.53266897012365
20
-5.6414523621262793
30
0
10
-13.591053480639879
20
-5.5899551221367059
30
0
10
-13.647814268812782
20
-5.5390435171441155
30
0
10
-13.705289166567264
20
-5.4867185629425252
30
0
10
-13.765068773467814
20
-5.4316083088989533
30
0
10
-13.827350347937406
20
-5.3735323893639348
30
0
10
-13.890568941087587
20
-5.3138333475040653
30
0
10
-13.952281548137828
20
-5.2546521226608442
30
0
10
-14.00986686257871
20
-5.1983579441606311
30
0
10
-14.06130654785173
20
-5.1469120880089037
30
0
10
-14.105909646922591
20
-5.1012734523231078
30
0
10
-14.14512034606074
20
-5.0607494525458367
30
0
10
-14.18154104753398
20
-5.0235326380700833
30
0
10
-14.217951896061814
20
-4.9872569214982345
30
0
10
-14.256210380330579
20
-4.9495916197431988
30
0
10
-14.296582719241419
20
-4.908679721837319
30
0
10
-14.338148050038088
20
-4.8632029406111252
30
0
10
-14.379006662787184
20
-4.8124919625532154
30
0
10
-14.41653550965265
20
-4.7566820176898945
30
0
10
-14.447759359687044
20
-4.6965747196110099
30
0
10
-14.469877372334091
20
-4.6332395416798908
30
0
10
-14.480704960577864
20
-4.5677233265734749
30
0
10
-14.479236165916014
20
-4.5006428421043969
30
0
10
-14.465872104711082
20
-4.432065322551253
30
0
10
-14.441977262941307
20
-4.3619361704422692
30
0
10
-14.409571482172531
20
-4.2904158312227274
30
0
10
-14.370977100192878
20
-4.2182047755246259
30
0
10
-14.328461516746888
20
-4.1469959701906207
30
0
10
-14.284043828487137
20
-4.0790671129918445
30
0
10
-14.239366336645228
20
-4.0166184016639823
30
0
10
-14.195531595717446
20
-3.9611686823175338
30
0
10
-14.152981698420842
20
-3.9129877577070897
30
0
10
-14.111287267652468
20
-3.8703562158036586
30
0
10
-14.069505640086117
20
-3.8300427851269472
30
0
10
-14.026702046748303
20
-3.7881224102174986
30
0
10
-13.982393506137912
20
-3.7406584764494184
30
0
10
-13.937081643732208
20
-3.6844937227889987
30
0
10
-13.892150428919768
20
-3.6174395655610323
30
0
10
-13.849670342561488
20
-3.5383764053073965
30
0
10
-13.812238739110002
20
-3.4474010360297695
30
0
10
-13.782796935731064
20
-3.3459171994344388
30
0
10
-13.764477332272158
20
-3.2368425633237146
30
0
10
-13.76035361490664
20
-3.1243795141454642
30
0
10
-13.773114052341356
20
-3.0134271925915548
30
0
10
-13.80475594606775
20
-2.909094908694887
30
0
10
-13.856272533040935
20
-2.8161749773425626
30
0
10
-13.927340408270384
20
-2.7386305627386909
30
0
10
-14.016012986307718
20
-2.6790826382483521
30
0
10
-14.118393738815762
20
-2.638281800797897
30
0
10
-14.229354378466843
20
-2.6154712592268781
30
0
10
-14.343282816153803
20
-2.6087723450991547
30
0
10
-14.454807809717733
20
-2.6155576923882284
30
0
10
-14.559561289670652
20
-2.6328385233277407
30
0
10
-14.654859911459253
20
-2.6576251102541031
30
0
10
-14.740577265818878
20
-2.6873487833448975
30
0
10
-14.819434712188878
20
-2.7200973052787449
30
0
10
-14.895661638705477
20
-2.7543292699036068
30
0
10
-14.973981318695204
20
-2.7886906686012729
30
0
10
-15.058411782790968
20
-2.8217769410389977
30
0
10
-15.151275047654817
20
-2.8519507789977241
30
0
10
-15.251793533182065
20
-2.8770548240880314
30
0
10
-15.356289811181474
20
-2.8945278115257311
30
0
10
-15.459562625973588
20
-2.9018172306704768
30
0
10
-15.555892320163535
20
-2.8966966817354391
30
0
10
-15.640257839645159
20
-2.8776415991357038
30
0
10
-15.709326387532672
20
-2.8441357122063016
30
0
10
-15.762878554674108
20
-2.7971167243193342
30
0
10
-15.803712001092215
20
-2.7389293330549713
30
0
10
-15.836057123582155
20
-2.6727920442719126
30
0
10
-15.864376260179029
20
-2.6023940696499892
30
0
10
-15.892048731528194
20
-2.531442588206358
30
0
10
-15.919989908037532
20
-2.463223255924047
30
0
10
-15.947446625842588
20
-2.4001736752120189
30
0
10
-15.973034846001958
20
-2.3434081052530242
30
0
10
-15.995587960936106
20
-2.2923641195346689
30
0
10
-16.01532796066995
20
-2.2441459058670734
30
0
10
-16.033910674804247
20
-2.1940252756972281
30
0
10
-16.053430911361833
20
-2.1370509473177188
30
0
10
-16.075749600546114
20
-2.0692842743795659
30
0
10
-16.101603090637997
20
-1.9893531736097296
30
0
10
-16.130772833273237
20
-1.8980106247410624
30
0
10
-16.162376745089912
20
-1.7974392043080345
30
0
10
-16.195115357055439
20
-1.6906539689044906
30
0
10
-16.227545554757871
20
-1.5808408812512835
30
0
10
-16.258322293438198
20
-1.4707769104590549
30
0
10
-16.286504222302995
20
-1.3620808223759331
30
0
10
-16.311622400803831
20
-1.2550971090672001
30
0
10
-16.333551399424511
20
-1.1493083052489494
30
0
10
-16.352435781414368
20
-1.0436002109706755
30
0
10
-16.368594942454234
20
-0.93658234191694323
30
0
10
-16.382434762992609
20
-0.82689646576037856
30
0
10
-16.394362099248593
20
-0.71350279475452705
30
0
10
-16.40468384447265
20
-0.5960435099118444
30
0
10
-16.413567267209288
20
-0.47491261384788452
30
0
10
-16.421069095389935
20
-0.35099837221330965
30
0
10
-16.427146392941324
20
-0.22551303009601173
30
0
10
-16.431674904381765
20
-0.099785272010926379
30
0
10
-16.434464084522286
20
0.02492745749353268
30
0
10
-16.435273814494789
20
0.14764423760789636
30
0
10
-16.433829772814086
20
0.26783717162485382
30
0
10
-16.429840937748192
20
0.38567378320925244
30
0
10
-16.423008688033214
20
0.50197361690109499
30
0
10
-16.413031100401817
20
0.61799849712983479
30
0
10
-16.399608732900415
20
0.73529398672888779
30
0
10
-16.382449741646369
20
0.85550887620243299
30
0
10
-16.36127540336566
20
0.98022592695574384
30
0
10
-16.335825185877177
20
1.1107835289929773
30
0
10
-16.305862667982151
20
1.2481112387072353
30
0
10
-16.271179380619216
20
1.3925331747739853
30
0
10
-16.231613749807902
20
1.5438017887611617
30
0
10
-16.187073314420005
20
1.7011812701750186
30
0
10
-16.137555800326439
20
1.863513872799353
30
0
10
-16.083170723574067
20
2.029293370573563
30
0
10
-16.02416066739886
20
2.1967354773486742
30
0
10
-15.960922946969779
20
2.3638494590377297
30
0
10
-15.894030553765152
20
2.5285094548066773
30
0
10
-15.824254720126968
20
2.6885253743909034
30
0
10
-15.752583762758375
20
2.841715235916729
30
0
10
-15.680250782490141
20
2.9859738645783969
30
0
10
-15.608736056764819
20
3.1193522019597433
30
0
10
-15.539615381283925
20
3.2402043054033851
30
0
10
-15.474426917026861
20
3.3473244026931219
30
0
10
-15.414529126819387
20
3.4400922939940379
30
0
10
-15.360966521230674
20
3.5186050103747317
30
0
10
-15.314322704891991
20
3.5838381005125948
30
0
10
-15.274600656274627
20
3.6377388783166889
30
0
10
-15.241037722040327
20
3.683485078681338
30
0
10
-15.212148930261735
20
3.7251603623912652
30
0
10
-15.186052403844217
20
3.7666872868559937
30
0
10
-15.160719729307422
20
3.8109872331796177
30
0
10
-15.134264670318641
20
3.8589555996301899
30
0
10
-15.105023360615595
20
3.9102920591079848
30
0
10
-15.071618454572842
20
3.9643662222672984
30
0
10
-15.0330463939908
20
4.0212037895721533
30
0
10
-14.988700083960259
20
4.0820115426150698
30
0
10
-14.938210753392685
20
4.148360926260878
30
0
10
-14.881326732763048
20
4.2216277859415605
30
0
10
-14.817769207895966
20
4.3023100189015091
30
0
10
-14.747117342737045
20
4.3894452033049145
30
0
10
-14.668629245854607
20
4.4798587048984739
30
0
10
-14.581602009543268
20
4.5687496286478888
30
0
10
-14.485814169390377
20
4.6504870972739454
30
0
10
-14.3819492340811
20
4.7193412308538196
30
0
10
-14.272005077133212
20
4.7702233360744248
30
0
10
-14.159760688229344
20
4.799464334989076
30
0
10
-14.051098053897038
20
4.8054783007598401
30
0
10
-13.954696711738974
20
4.7897178288485724
30
0
10
-13.881055517506782
20
4.7565940862148413
30
0
10
-13.845470814422693
20
4.7208674512164963
30
0
10
-13.832505879781587
20
4.6916891096735487
30
0
10
-13.827983556005254
20
4.6718522559305038
30
0
10
-13.826499999999985
20
4.6619093413746846
30
0
0
SPLINE
5
115
100
AcDbEntity
8
0
100
AcDbSpline
70
6
71
5
72
396
73
390
74
0
42
0.000000001
43
0.0000000001
44
0.0000000001
40
0
40
0
40
0
40
0
40
0
40
0
40
0.0025974025974025974
40
0.0051948051948051948
40
0.0077922077922077922
40
0.01038961038961039
40
0.012987012987012988
40
0.015584415584415586
40
0.018181818181818184
40
0.020779220779220783
40
0.023376623376623381
40
0.025974025974025979
40
0.028571428571428577
40
0.031168831168831176
40
0.033766233766233771
40
0.036363636363636369
40
0.038961038961038967
40
0.041558441558441565
40
0.044155844155844164
40
0.046753246753246762
40
0.04935064935064936
40
0.051948051948051958
40
0.054545454545454557
40
0.057142857142857155
40
0.059740259740259753
40
0.062337662337662351
40
0.064935064935064943
40
0.067532467532467541
40
0.070129870129870139
40
0.072727272727272738
40
0.075324675324675336
40
0.077922077922077934
40
0.080519480519480532
40
0.083116883116883131
40
0.085714285714285729
40
0.088311688311688327
40
0.090909090909090925
40
0.093506493506493524
40
0.096103896103896122
40
0.09870129870129872
40
0.10129870129870132
40
0.10389610389610392
40
0.10649350649350652
40
0.10909090909090911
40
0.11168831168831171
40
0.11428571428571431
40
0.11688311688311691
40
0.11948051948051951
40
0.1220779220779221
40
0.1246753246753247
40
0.12727272727272729
40
0.12987012987012989
40
0.13246753246753248
40
0.13506493506493508
40
0.13766233766233768
40
0.14025974025974028
40
0.14285714285714288
40
0.14545454545454548
40
0.14805194805194807
40
0.15064935064935067
40
0.15324675324675327
40
0.15584415584415587
40
0.15844155844155847
40
0.16103896103896106
40
0.16363636363636366
40
0.16623376623376626
40
0.16883116883116886
40
0.17142857142857146
40
0.17402597402597406
40
0.17662337662337665
40
0.17922077922077925
40
0.18181818181818185
40
0.18441558441558445
40
0.18701298701298705
40
0.18961038961038965
40
0.19220779220779224
40
0.19480519480519484
40
0.19740259740259744
40
0.20000000000000004
40
0.20259740259740264
40
0.20519480519480524
40
0.20779220779220783
40
0.21038961038961043
40
0.21298701298701303
40
0.21558441558441563
40
0.21818181818181823
40
0.22077922077922082
40
0.22337662337662342
40
0.22597402597402602
40
0.22857142857142862
40
0.23116883116883122
40
0.23376623376623382
40
0.23636363636363641
40
0.23896103896103901
40
0.24155844155844161
40
0.24415584415584421
40
0.24675324675324681
40
0.24935064935064941
40
0.25194805194805198
40
0.25454545454545457
40
0.25714285714285717
40
0.25974025974025977
40
0.26233766233766237
40
0.26493506493506497
40
0.26753246753246757
40
0.27012987012987016
40
0.27272727272727276
40
0.27532467532467536
40
0.27792207792207796
40
0.28051948051948056
40
0.28311688311688316
40
0.28571428571428575
40
0.28831168831168835
40
0.29090909090909095
40
0.29350649350649355
40
0.29610389610389615
40
0.29870129870129875
40
0.30129870129870134
40
0.30389610389610394
40
0.30649350649350654
40
0.30909090909090914
40
0.31168831168831174
40
0.31428571428571433
40
0.31688311688311693
40
0.31948051948051953
40
0.32207792207792213
40
0.32467532467532473
40
0.32727272727272733
40
0.32987012987012992
40
0.33246753246753252
40
0.33506493506493512
40
0.33766233766233772
40
0.34025974025974032
40
0.34285714285714292
40
0.34545454545454551
40
0.34805194805194811
40
0.35064935064935071
40
0.35324675324675331
40
0.35584415584415591
40
0.35844155844155851
40
0.3610389610389611
40
0.3636363636363637
40
0.3662337662337663
40
0.3688311688311689
40
0.3714285714285715
40
0.3740259740259741
40
0.37662337662337669
40
0.37922077922077929
40
0.38181818181818189
40
0.38441558441558449
40
0.38701298701298709
40
0.38961038961038968
40
0.39220779220779228
40
0.39480519480519488
40
0.39740259740259748
40
0.40000000000000008
40
0.40259740259740268
40
0.40519480519480527
40
0.40779220779220787
40
0.41038961038961047
40
0.41298701298701307
40
0.41558441558441567
40
0.41818181818181827
40
0.42077922077922086
40
0.42337662337662346
40
0.42597402597402606
40
0.42857142857142866
40
0.43116883116883126
40
0.43376623376623386
40
0.43636363636363645
40
0.43896103896103905
40
0.44155844155844165
40
0.44415584415584425
40
0.44675324675324685
40
0.44935064935064944
40
0.45194805194805204
40
0.45454545454545464
40
0.45714285714285724
40
0.45974025974025984
40
0.46233766233766244
40
0.46493506493506503
40
0.46753246753246763
40
0.47012987012987023
40
0.47272727272727283
40
0.47532467532467543
40
0.47792207792207803
40
0.48051948051948062
40
0.48311688311688322
40
0.48571428571428582
40
0.48831168831168842
40
0.49090909090909102
40
0.49350649350649362
40
0.49610389610389621
40
0.49870129870129881
40
0.50129870129870135
40
0.50389610389610395
40
0.50649350649350655
40
0.50909090909090915
40
0.51168831168831175
40
0.51428571428571435
40
0.51688311688311694
40
0.51948051948051954
40
0.52207792207792214
40
0.52467532467532474
40
0.52727272727272734
40
0.52987012987012994
40
0.53246753246753253
40
0.53506493506493513
40
0.53766233766233773
40
0.54025974025974033
40
0.54285714285714293
40
0.54545454545454553
40
0.54805194805194812
40
0.55064935064935072
40
0.55324675324675332
40
0.55584415584415592
40
0.55844155844155852
40
0.56103896103896111
40
0.56363636363636371
40
0.56623376623376631
40
0.56883116883116891
40
0.57142857142857151
40
0.57402597402597411
40
0.5766233766233767
40
0.5792207792207793
40
0.5818181818181819
40
0.5844155844155845
40
0.5870129870129871
40
0.5896103896103897
40
0.59220779220779229
40
0.59480519480519489
40
0.59740259740259749
40
0.60000000000000009
40
0.60259740259740269
40
0.60519480519480529
40
0.60779220779220788
40
0.61038961038961048
40
0.61298701298701308
40
0.61558441558441568
40
0.61818181818181828
40
0.62077922077922087
40
0.62337662337662347
40
0.62597402597402607
40
0.62857142857142867
40
0.63116883116883127
40
0.63376623376623387
40
0.63636363636363646
40
0.63896103896103906
40
0.64155844155844166
40
0.64415584415584426
40
0.64675324675324686
40
0.64935064935064946
40
0.65194805194805205
40
0.65454545454545465
40
0.65714285714285725
40
0.65974025974025985
40
0.66233766233766245
40
0.66493506493506505
40
0.66753246753246764
40
0.67012987012987024
40
0.67272727272727284
40
0.67532467532467544
40
0.67792207792207804
40
0.68051948051948064
40
0.68311688311688323
40
0.68571428571428583
40
0.68831168831168843
40
0.69090909090909103
40
0.69350649350649363
40
0.69610389610389622
40
0.69870129870129882
40
0.70129870129870142
40
0.70389610389610402
40
0.70649350649350662
40
0.70909090909090922
40
0.71168831168831181
40
0.71428571428571441
40
0.71688311688311701
40
0.71948051948051961
40
0.72207792207792221
40
0.72467532467532481
40
0.7272727272727274
40
0.72987012987013
40
0.7324675324675326
40
0.7350649350649352
40
0.7376623376623378
40
0.7402597402597404
40
0.74285714285714299
40
0.74545454545454559
40
0.74805194805194819
40
0.75064935064935079
40
0.75324675324675339
40
0.75584415584415598
40
0.75844155844155858
40
0.76103896103896118
40
0.76363636363636378
40
0.76623376623376638
40
0.76883116883116898
40
0.77142857142857157
40
0.77402597402597417
40
0.77662337662337677
40
0.77922077922077937
40
0.78181818181818197
40
0.78441558441558457
40
0.78701298701298716
40
0.78961038961038976
40
0.79220779220779236
40
0.79480519480519496
40
0.79740259740259756
40
0.80000000000000016
40
0.80259740259740275
40
0.80519480519480535
40
0.80779220779220795
40
0.81038961038961055
40
0.81298701298701315
40
0.81558441558441575
40
0.81818181818181834
40
0.82077922077922094
40
0.82337662337662354
40
0.82597402597402614
40
0.82857142857142874
40
0.83116883116883133
40
0.83376623376623393
40
0.83636363636363653
40
0.83896103896103913
40
0.84155844155844173
40
0.84415584415584433
40
0.84675324675324692
40
0.84935064935064952
40
0.85194805194805212
40
0.85454545454545472
40
0.85714285714285732
40
0.85974025974025992
40
0.86233766233766251
40
0.86493506493506511
40
0.86753246753246771
40
0.87012987012987031
40
0.87272727272727291
40
0.87532467532467551
40
0.8779220779220781
40
0.8805194805194807
40
0.8831168831168833
40
0.8857142857142859
40
0.8883116883116885
40
0.89090909090909109
40
0.89350649350649369
40
0.89610389610389629
40
0.89870129870129889
40
0.90129870129870149
40
0.90389610389610409
40
0.90649350649350668
40
0.90909090909090928
40
0.91168831168831188
40
0.91428571428571448
40
0.91688311688311708
40
0.91948051948051968
40
0.92207792207792227
40
0.92467532467532487
40
0.92727272727272747
40
0.92987012987013007
40
0.93246753246753267
40
0.93506493506493527
40
0.93766233766233786
40
0.94025974025974046
40
0.94285714285714306
40
0.94545454545454566
40
0.94805194805194826
40
0.95064935064935085
40
0.95324675324675345
40
0.95584415584415605
40
0.95844155844155865
40
0.96103896103896125
40
0.96363636363636385
40
0.96623376623376644
40
0.96883116883116904
40
0.97142857142857164
40
0.97402597402597424
40
0.97662337662337684
40
0.97922077922077944
40
0.98181818181818203
40
0.98441558441558463
40
0.98701298701298723
40
0.98961038961038983
40
0.99220779220779243
40
0.99480519480519503
40
0.99740259740259762
40
1
40
1
40
1
40
1
40
1
40
1
41
1
41
1
41
1
41
1
41
1
41
1
41
1
41
1
41
1
41
1
41
1
41
1
41
1
41
1
41
1
41
1
41
1
41
1
41
1
41
1
41
1
41
1
41
1
41
1
41
1
41
1
41
1
41
1
41
1
41
1
41
1
41
1
41
1
41
1
41
1
41
1
41
1
41
1
41
1
41
1
41
1
41
1
41
1
41
1
41
1
41
1
41
1
41
1
41
1
41
1
41
1
41
1
41
1
41
1
41
1
41
1
41
1
41
1
41
1
41
1
41
1
41
1
41
1
41
1
41
1
41
1
41
1
41
1
41
1
41
1
41
1
41
1
41
1
41
1
41
1
41
1
41
1
41
1
41
1
41
1
41
1
41
1
41
1
41
1
41
1
41
1
41
1
41
1
41
1
41
1
41
1
41
1
41
1
41
1
41
1
41
1
41
1
41
1
41
1
41
1
41
1
41
1
41
1
41
1
41
1
41
1
41
1
41
1
41
1
41
1
41
1
41
1
41
1
41
1
41
1
41
1
41
1
41
1
41
1
41
1
41
1
41
1
41
1
41
1
41
1
41
1
41
1
41
1
41
1
41
1
41
1
41
1
41
1
41
1
41
1
41
1
41
1
41
1
41
1
41
1
41
1
41
1
41
1
41
1
41
1
41
1
41
1
41
1
41
1
41
1
41
1
41
1
41
1
41
1
41
1
41
1
41
1
41
1
41
1
41
1
41
1
41
1
41
1
41
1
41
1
41
1
41
1
41
1
41
1
41
1
41
1
41
1
41
1
41
1
41
1
41
1
41
1
41
1
41
1
41
1
41
1
41
1
41
1
41
1
41
1
41
1
41
1
41
1
41
1
41
1
41
1
41
1
41
1
41
1
41
1
41
1
41
1
41
1
41
1
41
1
41
1
41
1
41
1
41
1
41
1
41
1
41
1
41
1
41
1
41
1
41
1
41
1
41
1
41
1
41
1
41
1
41
1
41
1
41
1
41
1
41
1
41
1
41
1
41
1
41
1
41
1
41
1
41
1
41
1
41
1
41
1
41
1
41
1
41
1
41
1
41
1
41
1
41
1
41
1
41
1
41
1
41
1
41
1
41
1
41
1
41
1
41
1
41
1
41
1
41
1
41
1
41
1
41
1
41
1
41
1
41
1
41
1
41
1
41
1
41
1
41
1
41
1
41
1
41
1
41
1
41
1
41
1
41
1
41
1
41
1
41
1
41
1
41
1
41
1
41
1
41
1
41
1
41
1
41
1
41
1
41
1
41
1
41
1
41
1
41
1
41
1
41
1
41
1
41
1
41
1
41
1
41
1
41
1
41
1
41
1
41
1
41
1
41
1
41
1
41
1
41
1
41
1
41
1
41
1
41
1
41
1
41
1
41
1
41
1
41
1
41
1
41
1
41
1
41
1
41
1
41
1
41
1
41
1
41
1
41
1
41
1
41
1
41
1
41
1
41
1
41
1
41
1
41
1
41
1
41
1
41
1
41
1
41
1
41
1
41
1
41
1
41
1
41
1
41
1
41
1
41
1
41
1
41
1
41
1
41
1
41
1
41
1
41
1
41
1
41
1
41
1
41
1
41
1
41
1
41
1
41
1
41
1
41
1
41
1
41
1
41
1
41
1
41
1
41
1
41
1
41
1
41
1
41
1
41
1
41
1
41
1
41
1
41
1
41
1
41
1
41
1
41
1
41
1
41
1
41
1
41
1
41
1
41
1
41
1
41
1
41
1
41
1
41
1
41
1
41
1
10
13.826499999999996
20
4.6619093413746846
30
0
10
13.827983556005265
20
4.6718522559305038
30
0
10
13.832505879781602
20
4.6916891096735496
30
0
10
13.845470814422738
20
4.7208674512165043
30
0
10
13.881055517506871
20
4.7565940862148643
30
0
10
13.954696711739095
20
4.7897178288485929
30
0
10
14.051098053897116
20
4.8054783007598392
30
0
10
14.159760688229287
20
4.7994643349890671
30
0
10
14.272005077132935
20
4.7702233360744577
30
0
10
14.381949234080583
20
4.719341230853952
30
0
10
14.485814169389624
20
4.6504870972741621
30
0
10
14.581602009542454
20
4.568749628648141
30
0
10
14.66862924585393
20
4.4798587048986755
30
0
10
14.747117342736729
20
4.3894452033050211
30
0
10
14.817769207896028
20
4.3023100189014851
30
0
10
14.881326732763521
20
4.2216277859414326
30
0
10
14.938210753393422
20
4.1483609262607031
30
0
10
14.988700083961026
20
4.0820115426149153
30
0
10
15.033046393991283
20
4.0212037895720742
30
0
10
15.071618454572915
20
3.9643662222673006
30
0
10
15.105023360615382
20
3.9102920591080088
30
0
10
15.134264670318347
20
3.8589555996302027
30
0
10
15.160719729307212
20
3.8109872331796066
30
0
10
15.186052403844233
20
3.7666872868559875
30
0
10
15.212148930262051
20
3.7251603623912959
30
0
10
15.241037722040804
20
3.6834850786813944
30
0
10
15.274600656274917
20
3.637738878316735
30
0
10
15.314322704891747
20
3.583838100512557
30
0
10
15.360966521229656
20
3.5186050103745421
30
0
10
15.414529126817563
20
3.4400922939936556
30
0
10
15.474426917024466
20
3.3473244026925681
30
0
10
15.539615381281356
20
3.2402043054027465
30
0
10
15.608736056762638
20
3.1193522019591509
30
0
10
15.680250782488823
20
2.9859738645780154
30
0
10
15.752583762758226
20
2.8417152359166651
30
0
10
15.824254720127946
20
2.6885253743912072
30
0
10
15.894030553767019
20
2.5285094548073661
30
0
10
15.96092294697214
20
2.3638494590387888
30
0
10
16.024160667401318
20
2.1967354773500722
30
0
10
16.083170723576238
20
2.029293370575231
30
0
10
16.137555800328176
20
1.8635138728011671
30
0
10
16.187073314421347
20
1.7011812701768045
30
0
10
16.231613749809075
20
1.5438017887627014
30
0
10
16.271179380620229
20
1.3925331747750986
30
0
10
16.305862667982815
20
1.2481112387077715
30
0
10
16.335825185877098
20
1.1107835289928536
30
0
10
16.361275403364608
20
0.9802259269549789
30
0
10
16.382449741644422
20
0.85550887620111593
30
0
10
16.399608732897903
20
0.73529398672720137
30
0
10
16.413031100399209
20
0.61799849712802812
30
0
10
16.423008688030897
20
0.50197361689946673
30
0
10
16.429840937746576
20
0.38567378320809403
30
0
10
16.433829772813404
20
0.26783717162437581
30
0
10
16.435273814495211
20
0.14764423760818435
30
0
10
16.434464084523782
20
0.024927457494539767
30
0
10
16.43167490438416
20
-0.099785272009351153
30
0
10
16.427146392944199
20
-0.2255130300941213
30
0
10
16.421069095392895
20
-0.35099837221141317
30
0
10
16.413567267211942
20
-0.4749126138463225
30
0
10
16.404683844474562
20
-0.59604350991086041
30
0
10
16.394362099249317
20
-0.71350279475423484
30
0
10
16.382434762991881
20
-0.82689646576072651
30
0
10
16.368594942451949
20
-0.93658234191775303
30
0
10
16.352435781410843
20
-1.0436002109717049
30
0
10
16.333551399420443
20
-1.1493083052499489
30
0
10
16.311622400800232
20
-1.2550971090679839
30
0
10
16.286504222300696
20
-1.3620808223763965
30
0
10
16.258322293437487
20
-1.4707769104591863
30
0
10
16.227545554758599
20
-1.5808408812511479
30
0
10
16.195115357056988
20
-1.6906539689042002
30
0
10
16.162376745091592
20
-1.797439204307721
30
0
10
16.130772833274559
20
-1.8980106247408182
30
0
10
16.101603090638747
20
-1.989353173609606
30
0
10
16.075749600546338
20
-2.0692842743795348
30
0
10
16.053430911361762
20
-2.1370509473177273
30
0
10
16.033910674804122
20
-2.1940252756972631
30
0
10
16.015327960669872
20
-2.2441459058671018
30
0
10
15.995587960936087
20
-2.292364119534672
30
0
10
15.973034846002012
20
-2.3434081052530153
30
0
10
15.94744662584268
20
-2.4001736752120313
30
0
10
15.919989908037625
20
-2.4632232559240852
30
0
10
15.892048731528272
20
-2.5314425882064016
30
0
10
15.86437626017902
20
-2.6023940696499905
30
0
10
15.836057123582121
20
-2.6727920442718447
30
0
10
15.803712001092181
20
-2.7389293330548523
30
0
10
15.762878554674081
20
-2.7971167243192148
30
0
10
15.709326387532652
20
-2.8441357122062407
30
0
10
15.640257839645198
20
-2.8776415991357531
30
0
10
15.555892320163602
20
-2.8966966817356186
30
0
10
15.459562625973655
20
-2.9018172306707712
30
0
10
15.356289811181641
20
-2.8945278115260775
30
0
10
15.251793533182266
20
-2.8770548240883307
30
0
10
15.151275047654915
20
-2.8519507789978493
30
0
10
15.058411782790913
20
-2.8217769410389084
30
0
10
14.973981318695088
20
-2.7886906686009931
30
0
10
14.895661638705352
20
-2.7543292699032329
30
0
10
14.819434712188823
20
-2.7200973052783768
30
0
10
14.740577265818878
20
-2.687348783344635
30
0
10
14.654859911459333
20
-2.6576251102540303
30
0
10
14.559561289670601
20
-2.6328385233279126
30
0
10
14.454807809717359
20
-2.6155576923886374
30
0
10
14.343282816153055
20
-2.6087723450997351
30
0
10
14.229354378465892
20
-2.6154712592275104
30
0
10
14.118393738814849
20
-2.6382818007984326
30
0
10
14.016012986307143
20
-2.6790826382486479
30
0
10
13.927340408270393
20
-2.7386305627386798
30
0
10
13.856272533041601
20
-2.8161749773422482
30
0
10
13.804755946068973
20
-2.9090949086943643
30
0
10
13.773114052342905
20
-3.0134271925909517
30
0
10
13.760353614908158
20
-3.1243795141449184
30
0
10
13.764477332273254
20
-3.2368425633233362
30
0
10
13.782796935731444
20
-3.3459171994343082
30
0
10
13.812238739109667
20
-3.4474010360298837
30
0
10
13.849670342560666
20
-3.5383764053076616
30
0
10
13.892150428918789
20
-3.6174395655613147
30
0
10
13.9370816437314
20
-3.6844937227892021
30
0
10
13.982393506137553
20
-3.740658476449497
30
0
10
14.026702046748412
20
-3.7881224102174729
30
0
10
14.069505640086467
20
-3.8300427851268664
30
0
10
14.111287267652806
20
-3.8703562158035787
30
0
10
14.152981698421002
20
-3.9129877577070484
30
0
10
14.1955315957174
20
-3.9611686823175472
30
0
10
14.239366336645041
20
-4.0166184016640365
30
0
10
14.284043828486935
20
-4.0790671129919183
30
0
10
14.328461516746748
20
-4.1469959701906829
30
0
10
14.370977100192825
20
-4.2182047755246472
30
0
10
14.409571482172582
20
-4.2904158312227185
30
0
10
14.441977262941377
20
-4.3619361704422266
30
0
10
14.465872104711151
20
-4.4320653225512014
30
0
10
14.479236165916047
20
-4.5006428421043561
30
0
10
14.480704960577883
20
-4.5677233265734642
30
0
10
14.469877372334087
20
-4.633239541679905
30
0
10
14.447759359687069
20
-4.6965747196110383
30
0
10
14.416535509652689
20
-4.7566820176899087
30
0
10
14.379006662787212
20
-4.8124919625532092
30
0
10
14.338148050038088
20
-4.8632029406111226
30
0
10
14.29658271924141
20
-4.9086797218373412
30
0
10
14.256210380330527
20
-4.9495916197432273
30
0
10
14.217951896061772
20
-4.9872569214982398
30
0
10
14.181541047534076
20
-5.0235326380700673
30
0
10
14.145120346060992
20
-5.0607494525458172
30
0
10
14.105909646922823
20
-5.10127345232309
30
0
10
14.06130654785178
20
-5.1469120880089001
30
0
10
14.009866862578393
20
-5.1983579441606533
30
0
10
13.952281548137174
20
-5.2546521226608967
30
0
10
13.890568941086812
20
-5.3138333475041239
30
0
10
13.82735034793682
20
-5.3735323893639713
30
0
10
13.765068773467705
20
-5.4316083088989489
30
0
10
13.705289166567727
20
-5.4867185629425084
30
0
10
13.647814268813692
20
-5.5390435171440995
30
0
10
13.591053480640925
20
-5.5899551221367023
30
0
10
13.532668970124487
20
-5.641452362126274
30
0
10
13.470147567960939
20
-5.6956578508445697
30
0
10
13.40135729224982
20
-5.7543308282570393
30
0
10
13.325227520918212
20
-5.8182672630371206
30
0
10
13.241787764798554
20
-5.8872804103488683
30
0
10
13.151861602345761
20
-5.9604928500726553
30
0
10
13.056867335105368
20
-6.0365323920501783
30
0
10
12.9585764875959
20
-6.1137654217444375
30
0
10
12.858885564719309
20
-6.1905197647287711
30
0
10
12.75959340384725
20
-6.2652990197505973
30
0
10
12.662148804096191
20
-6.3370321039844963
30
0
10
12.567500483790386
20
-6.4052043163981232
30
0
10
12.476187467976088
20
-6.469711703970245
30
0
10
12.388381273474298
20
-6.5307701988701465
30
0
10
12.30394729224199
20
-6.5888043345008747
30
0
10
12.222497912627794
20
-6.6443415558560739
30
0
10
12.143449293732591
20
-6.6979114376497932
30
0
10
12.066076284890261
20
-6.749925085972925
30
0
10
11.9895690959896
20
-6.8006218656724293
30
0
10
11.913092863622705
20
-6.8501677136831214
30
0
10
11.835845836826866
20
-6.8987192137157267
30
0
10
11.757119902034324
20
-6.9465078418553148
30
0
10
11.676355991824979
20
-6.9939006188837674
30
0
10
11.593211734771385
20
-7.0415073854327455
30
0
10
11.507588658032383
20
-7.0901403053237919
30
0
10
11.419595008034269
20
-7.1405416563237463
30
0
10
11.32952339809037
20
-7.1931628495853657
30
0
10
11.237822888519435
20
-7.2479285513447325
30
0
10
11.145072541771908
20
-7.3039939534971037
30
0
10
11.051956498317354
20
-7.3595359961103775
30
0
10
10.959232711407992
20
-7.4114480367001745
30
0
10
10.867758345013318
20
-7.4558360364504486
30
0
10
10.778527336059222
20
-7.4886692616690365
30
0
10
10.692700897542366
20
-7.5063667702642709
30
0
10
10.611647331812726
20
-7.5064343129059363
30
0
10
10.536962999132426
20
-7.4880247717784352
30
0
10
10.470540826078546
20
-7.4526762610164381
30
0
10
10.414249078753542
20
-7.4036611406186728
30
0
10
10.369515888694931
20
-7.3450443603037234
30
0
10
10.336980926033227
20
-7.2808842551495498
30
0
10
10.31603886659396
20
-7.2142768039766541
30
0
10
10.30468082134449
20
-7.1467720952761322
30
0
10
10.300176274647985
20
-7.0788193011718796
30
0
10
10.299618852924633
20
-7.0100322796434389
30
0
10
10.300498538902207
20
-6.9395219716440213
30
0
10
10.301333777809484
20
-6.8662104965175361
30
0
10
10.301511954251604
20
-6.7890371671258247
30
0
10
10.301009669334414
20
-6.7071364779768228
30
0
10
10.300149969673894
20
-6.6200346854178092
30
0
10
10.299357120715293
20
-6.5278197794259158
30
0
10
10.298878428056991
20
-6.4313716716975842
30
0
10
10.298778501541657
20
-6.3321956731525981
30
0
10
10.29900375968238
20
-6.2321566888279429
30
0
10
10.299422075440566
20
-6.1332498999757066
30
0
10
10.299874651148833
20
-6.0373501416407578
30
0
10
10.300218439706427
20
-5.9459844406011646
30
0
10
10.300383140062669
20
-5.8600594271684407
30
0
10
10.300375099120931
20
-5.7797673529284213
30
0
10
10.300245569352724
20
-5.7046240718139494
30
0
10
10.300068535965806
20
-5.6334551225739276
30
0
10
10.299916599190945
20
-5.5644317742981801
30
0
10
10.299832787473449
20
-5.4950155083332426
30
0
10
10.299823805769458
20
-5.4222207779095966
30
0
10
10.299874416679209
20
-5.3431571494907573
30
0
10
10.299956270043666
20
-5.2555200008154168
30
0
10
10.300038313222959
20
-5.1580471988585304
30
0
10
10.300098209782387
20
-5.0511242146195441
30
0
10
10.300127095432735
20
-4.9368312448249103
30
0
10
10.300125106242783
20
-4.8182728427784731
30
0
10
10.300099254358109
20
-4.699085237175999
30
0
10
10.30006038082351
20
-4.5828796960289786
30
0
10
10.300020431479805
20
-4.4726945553444972
30
0
10
10.299989762028883
20
-4.3704870737487775
30
0
10
10.299974025043447
20
-4.2765029871205984
30
0
10
10.299972536437037
20
-4.1890358059520318
30
0
10
10.299980836505105
20
-4.1052756155960122
30
0
10
10.299992430163339
20
-4.0219413600225522
30
0
10
10.300000946734205
20
-3.9360316507914521
30
0
10
10.30000190261312
20
-3.8454492939888372
30
0
10
10.299995182270075
20
-3.7498702165041089
30
0
10
10.299984647364738
20
-3.6506183462346096
30
0
10
10.299975937009961
20
-3.5499148876712954
30
0
10
10.299974862333178
20
-3.4503289329254647
30
0
10
10.299985445531705
20
-3.3541163827747043
30
0
10
10.300008365985013
20
-3.2626727899442995
30
0
10
10.300038609174566
20
-3.1757759403175387
30
0
10
10.300065673878811
20
-3.0914919930566516
30
0
10
10.300077720787906
20
-3.0070906624737939
30
0
10
10.300064675510102
20
-2.9197053760721117
30
0
10
10.30002199215032
20
-2.8271305573958885
30
0
10
10.299953581156638
20
-2.728480867756228
30
0
10
10.299876523190855
20
-2.6251142529206462
30
0
10
10.299816019272285
20
-2.5201626284692913
30
0
10
10.299796745396721
20
-2.4175721098090368
30
0
10
10.29983581383544
20
-2.3213308240426627
30
0
10
10.299934123562824
20
-2.2345601432457887
30
0
10
10.300070589839434
20
-2.1588000442700994
30
0
10
10.30018960892545
20
-2.0928726355418936
30
0
10
10.300216583109133
20
-2.0333664720924953
30
0
10
10.300111497164709
20
-1.9768410301113295
30
0
10
10.29989261342768
20
-1.9211403047871898
30
0
10
10.299716348360391
20
-1.8680174681620723
30
0
10
10.299776517717733
20
-1.8216153824173587
30
0
10
10.300138211484018
20
-1.7842052294670028
30
0
10
10.300433014027121
20
-1.7510617192551909
30
0
10
10.300116307589713
20
-1.710950834519424
30
0
10
10.299485662099933
20
-1.6550955847546063
30
0
10
10.300693199915786
20
-1.5852511196842416
30
0
10
10.307032962768114
20
-1.5107598630913437
30
0
10
10.321873632617841
20
-1.4430868898441107
30
0
10
10.347788783612275
20
-1.3918009831746467
30
0
10
10.38543119587044
20
-1.35865184802862
30
0
10
10.433420805833839
20
-1.3388962411158689
30
0
10
10.488811582360864
20
-1.3257931433460015
30
0
10
10.547240019774181
20
-1.3148047834378094
30
0
10
10.603671440368823
20
-1.3056595073063135
30
0
10
10.654193212254269
20
-1.2995664254883481
30
0
10
10.697406914045178
20
-1.2976931264188734
30
0
10
10.73640574619921
20
-1.298806417869931
30
0
10
10.776092487677364
20
-1.3004613971287988
30
0
10
10.819132192459538
20
-1.3009158452839493
30
0
10
10.863597209004531
20
-1.3003492223641095
30
0
10
10.906571831369121
20
-1.2997083794105599
30
0
10
10.947976511697908
20
-1.2996289885927079
30
0
10
10.991546508457235
20
-1.2999233764713554
30
0
10
11.041109559692288
20
-1.3001692488056069
30
0
10
11.097133148535319
20
-1.3001249206470085
30
0
10
11.156328594844224
20
-1.2998801217520675
30
0
10
11.214624136137292
20
-1.2996285704950234
30
0
10
11.269065029218188
20
-1.2995591870236425
30
0
10
11.320398177171562
20
-1.2996844232875537
30
0
10
11.371621252478475
20
-1.2999095484073351
30
0
10
11.426407271630458
20
-1.3001051172769591
30
0
10
11.487302137515364
20
-1.3001932308480366
30
0
10
11.555030245278171
20
-1.3001734460903378
30
0
10
11.628986295602381
20
-1.3000844151129267
30
0
10
11.707415462554879
20
-1.2999833671062397
30
0
10
11.787699364597723
20
-1.2999172392883656
30
0
10
11.866655416398054
20
-1.2999004090932356
30
0
10
11.941373081236188
20
-1.299925566628956
30
0
10
12.010073204646718
20
-1.2999726723235603
30
0
10
12.072808716841035
20
-1.3000180606561351
30
0
10
12.132589901244746
20
-1.3000448013039416
30
0
10
12.195118023926886
20
-1.3000480668219481
30
0
10
12.265933237166891
20
-1.3000310466349261
30
0
10
12.348104459922462
20
-1.3000027045542659
30
0
10
12.439758565383068
20
-1.2999753091294481
30
0
10
12.531468622286237
20
-1.2999609197292332
30
0
10
12.610734498198356
20
-1.2999683408307556
30
0
10
12.670032260208137
20
-1.2999906115435584
30
0
10
12.708442199896758
20
-1.3000139486567281
30
0
10
12.74811460685015
20
-1.2999749363329276
30
0
10
12.802745723641658
20
-1.2998886813007231
30
0
10
12.872132539664399
20
-1.2998679144881433
30
0
10
12.951482389792853
20
-1.3000668569189906
30
0
10
13.035345583112976
20
-1.300699961389248
30
0
10
13.120600545707987
20
-1.3018534417590226
30
0
10
13.205105621568675
20
-1.303147897589048
30
0
10
13.287741554123494
20
-1.3034160608576686
30
0
10
13.367880264597414
20
-1.300431398423914
30
0
10
13.445083243026186
20
-1.2904794768620527
30
0
10
13.518753532461508
20
-1.268408319748487
30
0
10
13.58809478117742
20
-1.2294142194324951
30
0
10
13.651988041546291
20
-1.1706498243675916
30
0
10
13.708947732084404
20
-1.0927180198854025
30
0
10
13.75693723001306
20
-1.0016405076560713
30
0
10
13.793519767173718
20
-0.90948237698520351
30
0
10
13.816796289895326
20
-0.82960825653158121
30
0
10
13.827152008655549
20
-0.76993815752978423
30
0
10
13.826892163172396
20
-0.73211877521260038
30
0
10
13.825037772182466
20
-0.69599407234053001
30
0
10
13.826033154853313
20
-0.64999441550868486
30
0
10
13.828302574888188
20
-0.5968648677794105
30
0
10
13.829897326249792
20
-0.53913248952881709
30
0
10
13.830083479301862
20
-0.47581456021712498
30
0
10
13.828915203790077
20
-0.40389321091072128
30
0
10
13.826926703743274
20
-0.31966485860999649
30
0
10
13.824808968154779
20
-0.22001754292984183
30
0
10
13.823052371476479
20
-0.10393315725887184
30
0
10
13.821923205011469
20
0.027642979576368836
30
0
10
13.821519921783777
20
0.17230469160469272
30
0
10
13.821801877081137
20
0.32656039413611254
30
0
10
13.822629506710141
20
0.48626050752182726
30
0
10
13.82379983781953
20
0.64700557519596258
30
0
10
13.825083424475483
20
0.80455557101248132
30
0
10
13.826262018473916
20
0.95525519935409164
30
0
10
13.827162756100122
20
1.0964136226388566
30
0
10
13.827701924254912
20
1.2268025708704453
30
0
10
13.827880108695203
20
1.3465594773584861
30
0
10
13.827756261440893
20
1.4568325095850563
30
0
10
13.827428346240911
20
1.5595071597563472
30
0
10
13.82701164367769
20
1.6569014838572655
30
0
10
13.826617148774389
20
1.7514689194804216
30
0
10
13.826332062342654
20
1.8455116373352825
30
0
10
13.826194079903191
20
1.9408551187698144
30
0
10
13.826190290229853
20
2.0386808589872021
30
0
10
13.826277611547406
20
2.1394967893119778
30
0
10
13.826397096329044
20
2.2430705001583244
30
0
10
13.826490903229001
20
2.3483741827081075
30
0
10
13.826517773941553
20
2.453532610609324
30
0
10
13.826469992182414
20
2.5557504820956023
30
0
10
13.826387271201076
20
2.6513051217004651
30
0
10
13.826328387615623
20
2.7365608288965384
30
0
10
13.826346510945358
20
2.808880942627265
30
0
10
13.826460884183609
20
2.8676570839498847
30
0
10
13.826635217535907
20
2.915108813776242
30
0
10
13.826739841011754
20
2.9576483403509521
30
0
10
13.826628212983298
20
3.0031981329212578
30
0
10
13.826226264406277
20
3.0579860177579601
30
0
10
13.825638042223725
20
3.1229284830358046
30
0
10
13.825084325539331
20
3.1946715590905681
30
0
10
13.82479209459105
20
3.2679006919345222
30
0
10
13.824913632243005
20
3.3370716094700992
30
0
10
13.825402859632696
20
3.3987202691254916
30
0
10
13.826032685778269
20
3.4521796174547088
30
0
10
13.826544331497148
20
3.4989451157935227
30
0
10
13.82675459217633
20
3.542357216874735
30
0
10
13.826694786555782
20
3.5872780197826124
30
0
10
13.826515597390928
20
3.6381976283767106
30
0
10
13.8263819894414
20
3.6973843778485556
30
0
10
13.826355891791106
20
3.7625596044111256
30
0
10
13.8264140060191
20
3.8287005858065211
30
0
10
13.826496859587822
20
3.8908647159024539
30
0
10
13.826544165595564
20
3.9463930831344847
30
0
10
13.826543021132341
20
3.9980432858970163
30
0
10
13.826515095309942
20
4.0516093856952855
30
0
10
13.826491690460623
20
4.1125332060031745
30
0
10
13.826491560537068
20
4.1824413754287901
30
0
10
13.826502415560997
20
4.2569333305382671
30
0
10
13.826509125626837
20
4.3291064050638077
30
0
10
13.826496299550497
20
4.3923392270819663
30
0
10
13.82649896331308
20
4.4431058325039539
30
0
10
13.826549160637089
20
4.484449535790179
30
0
10
13.82667527458606
20
4.5230247143359357
30
0
10
13.826120836080774
20
4.5649026778623849
30
0
10
13.824636514994799
20
4.6024125024762315
30
0
10
13.823604543749411
20
4.6320316223384426
30
0
10
13.825016443994725
20
4.6519664268188663
30
0
10
13.826499999999996
20
4.6619093413746846
30
0
0
ELLIPSE
5
116
100
AcDbEntity
8
0
100
AcDbEllipse
10
0
20
0
30
0
11
16.937499999999996
21
-6.2194303392157469e-15
31
0.0
40
0.61623616236162349
41
0
42
6.2831853071795862
0
ENDSEC
0
SECTION
2
OBJECTS
0
DICTIONARY
5
C
100
AcDbDictionary
3
ACAD_GROUP
350
D
3
ACAD_MLINESTYLE
350
17
0
DICTIONARY
5
D
100
AcDbDictionary
0
DICTIONARY
5
1A
330
C
100
AcDbDictionary
0
DICTIONARY
5
17
100
AcDbDictionary
0
ENDSEC
0
EOF
