0
SECTION
2
HEADER
9
$INSUNITS
70
1
9
$ACADVER
1
AC1014
9
$HANDSEED
5
FFFF
0
ENDSEC
0
SECTION
2
TABLES
0
TABLE
2
VPORT
5
8
100
AcDbSymbolTable
0
ENDTAB
0
TABLE
2
LTYPE
5
5
100
AcDbSymbolTable
0
LTYPE
5
14
100
AcDbSymbolTableRecord
100
AcDbLinetypeTableRecord
2
BYBLOCK
70
0
0
LTYPE
5
15
100
AcDbSymbolTableRecord
100
AcDbLinetypeTableRecord
2
BYLAYER
70
0
0
LTYPE
5
16
100
AcDbSymbolTableRecord
100
AcDbLinetypeTableRecord
2
DASHED
70
0
3
Dashed __ __ __ __ __ __ __ __ __ __ __ __ __ _
72
65
73
2
40
0.75
49
0.5
74
0
49
-0.25
74
0
0
ENDTAB
0
TABLE
2
LAYER
5
2
100
AcDbSymbolTable
70
3
0
LAYER
5
50
100
AcDbSymbolTableRecord
100
AcDbLayerTableRecord
2
1
70
0
62
7
6
DASHED
0
LAYER
5
51
100
AcDbSymbolTableRecord
100
AcDbLayerTableRecord
2
0
70
0
62
7
6
CONTINUOUS
0
ENDTAB
0
TABLE
2
STYLE
5
3
100
AcDbSymbolTable
70
1
0
STYLE
5
11
100
AcDbSymbolTableRecord
100
AcDbTextStyleTableRecord
2
STANDARD
70
0
0
ENDTAB
0
TABLE
2
VIEW
5
6
100
AcDbSymbolTable
70
0
0
ENDTAB
0
TABLE
2
UCS
5
7
100
AcDbSymbolTable
70
0
0
ENDTAB
0
TABLE
2
APPID
5
9
100
AcDbSymbolTable
70
2
0
APPID
5
12
100
AcDbSymbolTableRecord
100
AcDbRegAppTableRecord
2
ACAD
70
0
0
ENDTAB
0
TABLE
2
DIMSTYLE
5
A
100
AcDbSymbolTable
70
1
0
ENDTAB
0
TABLE
2
BLOCK_RECORD
5
1
100
AcDbSymbolTable
70
1
0
BLOCK_RECORD
5
1F
100
AcDbSymbolTableRecord
100
AcDbBlockTableRecord
2
*MODEL_SPACE
0
BLOCK_RECORD
5
1B
100
AcDbSymbolTableRecord
100
AcDbBlockTableRecord
2
*PAPER_SPACE
0
ENDTAB
0
ENDSEC
0
SECTION
2
BLOCKS
0
BLOCK
5
20
100
AcDbEntity
100
AcDbBlockBegin
2
*MODEL_SPACE
0
ENDBLK
5
21
100
AcDbEntity
100
AcDbBlockEnd
0
BLOCK
5
1C
100
AcDbEntity
100
AcDbBlockBegin
2
*PAPER_SPACE
0
ENDBLK
5
1D
100
AcDbEntity
100
AcDbBlockEnd
0
ENDSEC
0
SECTION
2
ENTITIES
0
CIRCLE
5
100
100
AcDbEntity
8
0
100
AcDbCircle
10
-14.399999825973209
20
-3.24999996072312
30
0
40
0.12500000000000097
210
0
220
0
230
1
0
SPLINE
5
101
100
AcDbEntity
8
0
100
AcDbSpline
70
6
71
5
72
106
73
100
74
0
42
0.000000001
43
0.0000000001
44
0.0000000001
40
-1
40
-1
40
-1
40
-1
40
-1
40
-1
40
-0.98947368421052739
40
-0.97894736842105368
40
-0.96842105263157996
40
-0.95789473684210624
40
-0.94736842105263253
40
-0.93684210526315881
40
-0.92631578947368509
40
-0.91578947368421137
40
-0.90526315789473766
40
-0.89473684210526394
40
-0.88421052631579022
40
-0.87368421052631651
40
-0.86315789473684279
40
-0.85263157894736907
40
-0.84210526315789536
40
-0.83157894736842164
40
-0.82105263157894792
40
-0.81052631578947421
40
-0.80000000000000049
40
-0.78947368421052677
40
-0.77894736842105305
40
-0.76842105263157934
40
-0.75789473684210562
40
-0.7473684210526319
40
-0.73684210526315819
40
-0.72631578947368447
40
-0.71578947368421075
40
-0.70526315789473704
40
-0.69473684210526332
40
-0.6842105263157896
40
-0.67368421052631589
40
-0.66315789473684217
40
-0.65263157894736845
40
-0.64210526315789473
40
-0.63157894736842102
40
-0.6210526315789473
40
-0.61052631578947358
40
-0.59999999999999987
40
-0.58947368421052615
40
-0.57894736842105243
40
-0.56842105263157872
40
-0.557894736842105
40
-0.54736842105263128
40
-0.53684210526315757
40
-0.52631578947368385
40
-0.51578947368421013
40
-0.50526315789473641
40
-0.4947368421052627
40
-0.48421052631578904
40
-0.47368421052631537
40
-0.46315789473684171
40
-0.45263157894736805
40
-0.44210526315789439
40
-0.43157894736842073
40
-0.42105263157894707
40
-0.41052631578947341
40
-0.39999999999999974
40
-0.38947368421052608
40
-0.37894736842105242
40
-0.36842105263157876
40
-0.3578947368421051
40
-0.34736842105263144
40
-0.33684210526315778
40
-0.32631578947368411
40
-0.31578947368421045
40
-0.30526315789473679
40
-0.29473684210526313
40
-0.28421052631578947
40
-0.27368421052631581
40
-0.26315789473684215
40
-0.25263157894736848
40
-0.24210526315789482
40
-0.23157894736842113
40
-0.22105263157894744
40
-0.21052631578947376
40
-0.20000000000000007
40
-0.18947368421052638
40
-0.17894736842105269
40
-0.168421052631579
40
-0.15789473684210531
40
-0.14736842105263162
40
-0.13684210526315793
40
-0.12631578947368424
40
-0.11578947368421055
40
-0.10526315789473686
40
-0.094736842105263175
40
-0.084210526315789486
40
-0.073684210526315796
40
-0.063157894736842107
40
-0.052631578947368418
40
-0.042105263157894736
40
-0.031578947368421054
40
-0.021052631578947368
40
-0.010526315789473684
40
0
40
0
40
0
40
0
40
0
40
0
41
1
41
1
41
1
41
1
41
1
41
1
41
1
41
1
41
1
41
1
41
1
41
1
41
1
41
1
41
1
41
1
41
1
41
1
41
1
41
1
41
1
41
1
41
1
41
1
41
1
41
1
41
1
41
1
41
1
41
1
41
1
41
1
41
1
41
1
41
1
41
1
41
1
41
1
41
1
41
1
41
1
41
1
41
1
41
1
41
1
41
1
41
1
41
1
41
1
41
1
41
1
41
1
41
1
41
1
41
1
41
1
41
1
41
1
41
1
41
1
41
1
41
1
41
1
41
1
41
1
41
1
41
1
41
1
41
1
41
1
41
1
41
1
41
1
41
1
41
1
41
1
41
1
41
1
41
1
41
1
41
1
41
1
41
1
41
1
41
1
41
1
41
1
41
1
41
1
41
1
41
1
41
1
41
1
41
1
41
1
41
1
41
1
41
1
41
1
41
1
10
-13.30000042446016
20
5.400000172337208
30
0
10
-13.266803228533698
20
5.4031555690412683
30
0
10
-13.203981239049689
20
5.4047682646022208
30
0
10
-13.12146056036474
20
5.3947981837995203
30
0
10
-13.036080618006824
20
5.3604652796104215
30
0
10
-12.953918559964348
20
5.2510267353491109
30
0
10
-12.887303800142362
20
5.0636926712856631
30
0
10
-12.836710856840021
20
4.8096252031916977
30
0
10
-12.805559453933423
20
4.5113028609573185
30
0
10
-12.796122121193351
20
4.1935145557421301
30
0
10
-12.80284953571428
20
3.8730717762085942
30
0
10
-12.810304984418353
20
3.549924161297294
30
0
10
-12.813702238069808
20
3.2209579459990469
30
0
10
-12.811650093458415
20
2.8796576451896829
30
0
10
-12.806518126184537
20
2.5194633230333721
30
0
10
-12.801454280342279
20
2.1354868627789632
30
0
10
-12.799413244982249
20
1.7272714969932053
30
0
10
-12.79996255649616
20
1.3003023047786164
30
0
10
-12.800666503013868
20
0.87023347904834614
30
0
10
-12.801033196074705
20
0.45917667491235148
30
0
10
-12.800814507906678
20
0.087364061576097815
30
0
10
-12.800346642855351
20
-0.23143697214839251
30
0
10
-12.79997128386184
20
-0.50080881080783934
30
0
10
-12.799989850846927
20
-0.73892417382607289
30
0
10
-12.800054284183595
20
-1.0081955395970772
30
0
10
-12.799900704893684
20
-1.3432738524163876
30
0
10
-12.799599090602458
20
-1.735745209944171
30
0
10
-12.799311633296169
20
-2.1578904090820008
30
0
10
-12.799257471969495
20
-2.5700931116009302
30
0
10
-12.79957672551209
20
-2.9359029938729444
30
0
10
-12.800266640531788
20
-3.2322651958805664
30
0
10
-12.801016766996485
20
-3.465601738248929
30
0
10
-12.801323445471741
20
-3.6718387985629577
30
0
10
-12.800856971370466
20
-3.8947955875172138
30
0
10
-12.799935846051742
20
-4.1697005578718134
30
0
10
-12.799601299251201
20
-4.5049021146520358
30
0
10
-12.802610293752737
20
-4.8626513404244056
30
0
10
-12.818059211627448
20
-5.203073110422185
30
0
10
-12.856981408935324
20
-5.4843829504618293
30
0
10
-12.930025636802444
20
-5.6725939032948638
30
0
10
-13.04450366930743
20
-5.7466469540317826
30
0
10
-13.201213626792036
20
-5.7075845229798352
30
0
10
-13.393129514751672
20
-5.5783035665137897
30
0
10
-13.606606707322561
20
-5.3915338290585808
30
0
10
-13.822233640315977
20
-5.1814055870536624
30
0
10
-14.01516576522145
20
-4.9720063694761532
30
0
10
-14.157958128664315
20
-4.772603108135864
30
0
10
-14.22791651323303
20
-4.5828247705249092
30
0
10
-14.213204585044782
20
-4.3955858803124235
30
0
10
-14.119884647063069
20
-4.2009091561722736
30
0
10
-13.977380325903209
20
-3.9893571518564546
30
0
10
-13.827615099349144
20
-3.7548976754342962
30
0
10
-13.714905668018952
20
-3.4980008494022976
30
0
10
-13.67620830599806
20
-3.2281491995411229
30
0
10
-13.729720480645362
20
-2.9677967020611509
30
0
10
-13.868893821009145
20
-2.7519270963938429
30
0
10
-14.072729880315675
20
-2.6143397364439158
30
0
10
-14.313083850412831
20
-2.5765720072058889
30
0
10
-14.563330801046346
20
-2.6351697196573194
30
0
10
-14.805925035600074
20
-2.7513036375866471
30
0
10
-15.030407413921095
20
-2.8683299768454598
30
0
10
-15.231814555290278
20
-2.9288311865527765
30
0
10
-15.409017416482945
20
-2.8899851309292774
30
0
10
-15.562916849002031
20
-2.744207295290026
30
0
10
-15.695505666942552
20
-2.5167454292363889
30
0
10
-15.809532598899219
20
-2.2478543504954116
30
0
10
-15.907987771221629
20
-1.9797627676605778
30
0
10
-15.993657152078443
20
-1.741290416524319
30
0
10
-16.068662258161208
20
-1.5345092097465511
30
0
10
-16.134412945976599
20
-1.3447412937649659
30
0
10
-16.19152546043227
20
-1.1499565450769564
30
0
10
-16.239775260327676
20
-0.9297881726033479
30
0
10
-16.277978828551266
20
-0.67621573622505471
30
0
10
-16.304320775830099
20
-0.39214647714473144
30
0
10
-16.316779059997945
20
-0.087056216610677098
30
0
10
-16.313534655343204
20
0.22648766512316482
30
0
10
-16.293347430466646
20
0.53638405462967176
30
0
10
-16.256045482768638
20
0.83521830241296646
30
0
10
-16.202604164096186
20
1.1216361282742953
30
0
10
-16.134682653875036
20
1.3978513078362653
30
0
10
-16.05429901812721
20
1.6681433674518578
30
0
10
-15.9634450826514
20
1.9369250500595714
30
0
10
-15.863737412606463
20
2.2070652001911752
30
0
10
-15.756024902438892
20
2.4779116333349882
30
0
10
-15.640479674372404
20
2.7464852606858945
30
0
10
-15.516730081613879
20
3.0088845326594251
30
0
10
-15.38397259603145
20
3.2617010694021111
30
0
10
-15.241105140125464
20
3.5032342692590261
30
0
10
-15.086819451293433
20
3.7352720386396698
30
0
10
-14.919827597618356
20
3.9628974309151794
30
0
10
-14.739295111894114
20
4.1915279295517598
30
0
10
-14.545195514132351
20
4.4246431898645904
30
0
10
-14.338758055955045
20
4.6612122063665495
30
0
10
-14.122736666745496
20
4.8932994554367379
30
0
10
-13.902085883843755
20
5.1033448068563603
30
0
10
-13.683439562630504
20
5.2689378555729096
30
0
10
-13.517836714613679
20
5.353523084556052
30
0
10
-13.403164414608478
20
5.3858358843778626
30
0
10
-13.333197620386624
20
5.3968447756331477
30
0
10
-13.30000042446016
20
5.400000172337208
30
0
0
LINE
5
102
100
AcDbEntity
8
0
100
AcDbLine
10
-12.181874999999998
20
-7.251965732134094
30
0
11
-12.181875000000002
21
7.2519657321340913
31
0
0
ELLIPSE
5
103
100
AcDbEntity
8
0
100
AcDbEllipse
10
0
20
0
30
0
11
16.937999999999999
21
2.043999449940427e-15
31
0.0
40
0.61621797142519774
41
2.373452110373556
42
3.9097331968060303
0
ENDSEC
0
SECTION
2
OBJECTS
0
DICTIONARY
5
C
100
AcDbDictionary
3
ACAD_GROUP
350
D
3
ACAD_MLINESTYLE
350
17
0
DICTIONARY
5
D
100
AcDbDictionary
0
DICTIONARY
5
1A
330
C
100
AcDbDictionary
0
DICTIONARY
5
17
100
AcDbDictionary
0
ENDSEC
0
EOF
