0
SECTION
2
HEADER
9
$INSUNITS
70
1
9
$ACADVER
1
AC1014
9
$HANDSEED
5
FFFF
0
ENDSEC
0
SECTION
2
TABLES
0
TABLE
2
VPORT
5
8
100
AcDbSymbolTable
0
ENDTAB
0
TABLE
2
LTYPE
5
5
100
AcDbSymbolTable
0
LTYPE
5
14
100
AcDbSymbolTableRecord
100
AcDbLinetypeTableRecord
2
BYBLOCK
70
0
0
LTYPE
5
15
100
AcDbSymbolTableRecord
100
AcDbLinetypeTableRecord
2
BYLAYER
70
0
0
LTYPE
5
16
100
AcDbSymbolTableRecord
100
AcDbLinetypeTableRecord
2
DASHED
70
0
3
Dashed __ __ __ __ __ __ __ __ __ __ __ __ __ _
72
65
73
2
40
0.75
49
0.5
74
0
49
-0.25
74
0
0
ENDTAB
0
TABLE
2
LAYER
5
2
100
AcDbSymbolTable
70
3
0
LAYER
5
50
100
AcDbSymbolTableRecord
100
AcDbLayerTableRecord
2
1
70
0
62
7
6
DASHED
0
LAYER
5
51
100
AcDbSymbolTableRecord
100
AcDbLayerTableRecord
2
0
70
0
62
7
6
CONTINUOUS
0
ENDTAB
0
TABLE
2
STYLE
5
3
100
AcDbSymbolTable
70
1
0
STYLE
5
11
100
AcDbSymbolTableRecord
100
AcDbTextStyleTableRecord
2
STANDARD
70
0
0
ENDTAB
0
TABLE
2
VIEW
5
6
100
AcDbSymbolTable
70
0
0
ENDTAB
0
TABLE
2
UCS
5
7
100
AcDbSymbolTable
70
0
0
ENDTAB
0
TABLE
2
APPID
5
9
100
AcDbSymbolTable
70
2
0
APPID
5
12
100
AcDbSymbolTableRecord
100
AcDbRegAppTableRecord
2
ACAD
70
0
0
ENDTAB
0
TABLE
2
DIMSTYLE
5
A
100
AcDbSymbolTable
70
1
0
ENDTAB
0
TABLE
2
BLOCK_RECORD
5
1
100
AcDbSymbolTable
70
1
0
BLOCK_RECORD
5
1F
100
AcDbSymbolTableRecord
100
AcDbBlockTableRecord
2
*MODEL_SPACE
0
BLOCK_RECORD
5
1B
100
AcDbSymbolTableRecord
100
AcDbBlockTableRecord
2
*PAPER_SPACE
0
ENDTAB
0
ENDSEC
0
SECTION
2
BLOCKS
0
BLOCK
5
20
100
AcDbEntity
100
AcDbBlockBegin
2
*MODEL_SPACE
0
ENDBLK
5
21
100
AcDbEntity
100
AcDbBlockEnd
0
BLOCK
5
1C
100
AcDbEntity
100
AcDbBlockBegin
2
*PAPER_SPACE
0
ENDBLK
5
1D
100
AcDbEntity
100
AcDbBlockEnd
0
ENDSEC
0
SECTION
2
ENTITIES
0
SPLINE
5
100
100
AcDbEntity
8
0
100
AcDbSpline
70
6
71
5
72
116
73
110
74
0
42
0.000000001
43
0.0000000001
44
0.0000000001
40
0
40
0
40
0
40
0
40
0
40
0
40
0.0095238095238095247
40
0.019047619047619049
40
0.028571428571428574
40
0.038095238095238099
40
0.047619047619047623
40
0.057142857142857148
40
0.06666666666666668
40
0.076190476190476197
40
0.085714285714285715
40
0.095238095238095233
40
0.10476190476190475
40
0.11428571428571427
40
0.12380952380952379
40
0.1333333333333333
40
0.14285714285714282
40
0.15238095238095234
40
0.16190476190476186
40
0.17142857142857137
40
0.18095238095238089
40
0.19047619047619041
40
0.19999999999999993
40
0.20952380952380945
40
0.21904761904761896
40
0.22857142857142848
40
0.238095238095238
40
0.24761904761904752
40
0.25714285714285706
40
0.26666666666666661
40
0.27619047619047615
40
0.2857142857142857
40
0.29523809523809524
40
0.30476190476190479
40
0.31428571428571433
40
0.32380952380952388
40
0.33333333333333343
40
0.34285714285714297
40
0.35238095238095252
40
0.36190476190476206
40
0.37142857142857161
40
0.38095238095238115
40
0.3904761904761907
40
0.40000000000000024
40
0.40952380952380979
40
0.41904761904761934
40
0.42857142857142888
40
0.43809523809523843
40
0.44761904761904797
40
0.45714285714285752
40
0.46666666666666706
40
0.47619047619047661
40
0.48571428571428615
40
0.4952380952380957
40
0.50476190476190519
40
0.51428571428571468
40
0.52380952380952417
40
0.53333333333333366
40
0.54285714285714315
40
0.55238095238095264
40
0.56190476190476213
40
0.57142857142857162
40
0.58095238095238111
40
0.5904761904761906
40
0.60000000000000009
40
0.60952380952380958
40
0.61904761904761907
40
0.62857142857142856
40
0.63809523809523805
40
0.64761904761904754
40
0.65714285714285703
40
0.66666666666666652
40
0.67619047619047601
40
0.6857142857142855
40
0.69523809523809499
40
0.70476190476190448
40
0.71428571428571397
40
0.72380952380952346
40
0.73333333333333295
40
0.74285714285714244
40
0.75238095238095193
40
0.76190476190476142
40
0.77142857142857091
40
0.7809523809523804
40
0.79047619047618989
40
0.79999999999999938
40
0.80952380952380887
40
0.81904761904761836
40
0.82857142857142785
40
0.83809523809523734
40
0.84761904761904683
40
0.85714285714285632
40
0.86666666666666581
40
0.8761904761904753
40
0.88571428571428479
40
0.89523809523809428
40
0.90476190476190377
40
0.91428571428571326
40
0.92380952380952275
40
0.93333333333333224
40
0.94285714285714173
40
0.95238095238095122
40
0.96190476190476071
40
0.9714285714285702
40
0.98095238095237969
40
0.99047619047618918
40
1
40
1
40
1
40
1
40
1
40
1
41
1
41
1
41
1
41
1
41
1
41
1
41
1
41
1
41
1
41
1
41
1
41
1
41
1
41
1
41
1
41
1
41
1
41
1
41
1
41
1
41
1
41
1
41
1
41
1
41
1
41
1
41
1
41
1
41
1
41
1
41
1
41
1
41
1
41
1
41
1
41
1
41
1
41
1
41
1
41
1
41
1
41
1
41
1
41
1
41
1
41
1
41
1
41
1
41
1
41
1
41
1
41
1
41
1
41
1
41
1
41
1
41
1
41
1
41
1
41
1
41
1
41
1
41
1
41
1
41
1
41
1
41
1
41
1
41
1
41
1
41
1
41
1
41
1
41
1
41
1
41
1
41
1
41
1
41
1
41
1
41
1
41
1
41
1
41
1
41
1
41
1
41
1
41
1
41
1
41
1
41
1
41
1
41
1
41
1
41
1
41
1
41
1
41
1
41
1
41
1
41
1
41
1
41
1
41
1
41
1
41
1
41
1
41
1
41
1
41
1
10
-12.814444406281197
20
-5.9346776690990009
30
0
10
-12.881064461153466
20
-5.9041778151483264
30
0
10
-13.018774460469819
20
-5.8298711179792546
30
0
10
-13.231627730979911
20
-5.6863391100955765
30
0
10
-13.497250433165114
20
-5.4791914643493254
30
0
10
-13.775963043344388
20
-5.2288736183616491
30
0
10
-13.996907326751682
20
-5.0098882237972466
30
0
10
-14.175800191683249
20
-4.815479129728347
30
0
10
-14.334484394172261
20
-4.6307751671342006
30
0
10
-14.493712784437895
20
-4.4374401170804862
30
0
10
-14.662738642312576
20
-4.2257472938614233
30
0
10
-14.842312617808489
20
-3.9921861395194997
30
0
10
-15.02740907096482
20
-3.738117639149229
30
0
10
-15.21017476959199
20
-3.4679290518117387
30
0
10
-15.382567572673711
20
-3.187486322266897
30
0
10
-15.539664131561812
20
-2.9022588293630149
30
0
10
-15.679865224260626
20
-2.6166412614981698
30
0
10
-15.803625085652236
20
-2.3338194873927307
30
0
10
-15.912642278164617
20
-2.055459692702676
30
0
10
-16.008871511181447
20
-1.7814835903922115
30
0
10
-16.093584944496683
20
-1.5097733686347037
30
0
10
-16.166491097316776
20
-1.2359993480975813
30
0
10
-16.2263590222137
20
-0.95534815464727363
30
0
10
-16.271543787693115
20
-0.66409357338250996
30
0
10
-16.300569193530642
20
-0.36133684483238648
30
0
10
-16.312640475057687
20
-0.050424731668659038
30
0
10
-16.308306581844487
20
0.25883722364249956
30
0
10
-16.289106052491515
20
0.55346010920748079
30
0
10
-16.256996125522743
20
0.82162033672122881
30
0
10
-16.213838336889687
20
1.0569290607376749
30
0
10
-16.160901431040944
20
1.2620846671159367
30
0
10
-16.098250599181558
20
1.4544943305022253
30
0
10
-16.024932784974936
20
1.6586786463139978
30
0
10
-15.939412057102809
20
1.8939543377315373
30
0
10
-15.839886649930442
20
2.1653591717218612
30
0
10
-15.724737299532203
20
2.4492090610122688
30
0
10
-15.59250739822491
20
2.7002072284845857
30
0
10
-15.441549546563754
20
2.871663213467524
30
0
10
-15.2698894098264
20
2.9306766638354782
30
0
10
-15.074736370346653
20
2.8777775358448383
30
0
10
-14.852927060826879
20
2.7575586727518351
30
0
10
-14.604983344745786
20
2.6345694519709819
30
0
10
-14.338905810522226
20
2.5734973734652375
30
0
10
-14.07355462962494
20
2.6189459520239247
30
0
10
-13.843580843400687
20
2.7720881648291522
30
0
10
-13.688883643902949
20
3.002629293653849
30
0
10
-13.640574718383634
20
3.2675377975663507
30
0
10
-13.709930520686248
20
3.5258633150339791
30
0
10
-13.871775288209715
20
3.7589001885122046
30
0
10
-14.071320507966647
20
3.969916923563817
30
0
10
-14.243668567156856
20
4.1730516550962617
30
0
10
-14.329567719436637
20
4.3854607257078655
30
0
10
-14.292361437986413
20
4.6183003177612694
30
0
10
-14.135402174389114
20
4.867732342744751
30
0
10
-13.889829364693883
20
5.120251598860726
30
0
10
-13.601347014745665
20
5.358518680576128
30
0
10
-13.316743920239327
20
5.5673680757561526
30
0
10
-13.071982235902944
20
5.7389029380068459
30
0
10
-12.87604315491058
20
5.8800404832192958
30
0
10
-12.709841358362418
20
6.0113846501481918
30
0
10
-12.544172782216018
20
6.1552570568579119
30
0
10
-12.352661848249166
20
6.3264268519238334
30
0
10
-12.127100981902116
20
6.5218489323182718
30
0
10
-11.89064260165229
20
6.7108158371540929
30
0
10
-11.677740858427581
20
6.8549523241163941
30
0
10
-11.518992482937845
20
6.9180592691885039
30
0
10
-11.417580108133729
20
6.8970569814163385
30
0
10
-11.34384725107623
20
6.8044754598901056
30
0
10
-11.295475898842373
20
6.5790283728999812
30
0
10
-11.269947620868681
20
6.2023690915858092
30
0
10
-11.262277744509397
20
5.7504909799296984
30
0
10
-11.26445672301581
20
5.3435390848789623
30
0
10
-11.269045429560872
20
5.0814180302292185
30
0
10
-11.270496909977478
20
5.0019555252237913
30
0
10
-11.268531101112846
20
4.9917265892543661
30
0
10
-11.268152733454102
20
4.804325713396187
30
0
10
-11.26983433824973
20
4.3917413529232459
30
0
10
-11.273074953485343
20
3.7740394984729133
30
0
10
-11.276061099963467
20
3.0438465291287518
30
0
10
-11.277030344552919
20
2.3127481807334278
30
0
10
-11.274665016024079
20
1.6890257575459655
30
0
10
-11.269461034523699
20
1.2269867650141975
30
0
10
-11.263375646075117
20
0.92334913165500165
30
0
10
-11.263414772925989
20
0.60781027727147585
30
0
10
-11.271888241310482
20
0.18906378484807682
30
0
10
-11.286047468683627
20
-0.31753235939555707
30
0
10
-11.301137853142617
20
-0.85371025101745168
30
0
10
-11.311678667214368
20
-1.3384522317885876
30
0
10
-11.314213082079668
20
-1.7172752024432203
30
0
10
-11.307780287985292
20
-1.97484164784411
30
0
10
-11.299233119949491
20
-2.220039127571761
30
0
10
-11.29654486806824
20
-2.5946723222944068
30
0
10
-11.296077040275124
20
-3.0740458577101872
30
0
10
-11.293471519508639
20
-3.5913102319961734
30
0
10
-11.283582119094655
20
-4.043217142045088
30
0
10
-11.271567548981876
20
-4.3651691609218428
30
0
10
-11.263960401903308
20
-4.5309988038709275
30
0
10
-11.305165194711845
20
-4.6950972796863173
30
0
10
-11.375026737271645
20
-4.918196007742897
30
0
10
-11.425165560550436
20
-5.1355501454694465
30
0
10
-11.464735613136655
20
-5.2906930005965407
30
0
10
-11.648969200769024
20
-5.4228660404218614
30
0
10
-11.896330765548253
20
-5.5434959451478925
30
0
10
-12.085859584200067
20
-5.6564926826765687
30
0
10
-12.167318120487332
20
-5.7874526534287352
30
0
10
-12.283539288643103
20
-5.9583717821091762
30
0
10
-12.446429866872478
20
-6.0366393461575365
30
0
10
-12.619054131237013
20
-6.0128702416837054
30
0
10
-12.747824351408919
20
-5.9651775230496806
30
0
10
-12.814444406281197
20
-5.9346776690990009
30
0
0
CIRCLE
5
101
100
AcDbEntity
8
0
100
AcDbCircle
10
-14.399999825973209
20
3.249999960723116
30
0
40
0.12500000000000097
210
0
220
0
230
1
0
SPLINE
5
102
100
AcDbEntity
8
0
100
AcDbSpline
70
6
71
5
72
81
73
75
74
0
42
0.000000001
43
0.0000000001
44
0.0000000001
40
-1
40
-1
40
-1
40
-1
40
-1
40
-1
40
-0.9857142857142841
40
-0.97142857142856986
40
-0.95714285714285563
40
-0.94285714285714139
40
-0.92857142857142716
40
-0.91428571428571292
40
-0.89999999999999869
40
-0.88571428571428445
40
-0.87142857142857022
40
-0.85714285714285599
40
-0.84285714285714175
40
-0.82857142857142752
40
-0.81428571428571328
40
-0.79999999999999905
40
-0.78571428571428481
40
-0.77142857142857058
40
-0.75714285714285634
40
-0.74285714285714211
40
-0.72857142857142787
40
-0.71428571428571364
40
-0.6999999999999994
40
-0.68571428571428517
40
-0.67142857142857093
40
-0.6571428571428567
40
-0.64285714285714246
40
-0.62857142857142823
40
-0.61428571428571399
40
-0.59999999999999976
40
-0.58571428571428552
40
-0.57142857142857129
40
-0.55714285714285705
40
-0.54285714285714282
40
-0.52857142857142858
40
-0.51428571428571435
40
-0.50000000000000011
40
-0.48571428571428582
40
-0.47142857142857153
40
-0.45714285714285724
40
-0.44285714285714295
40
-0.42857142857142866
40
-0.41428571428571437
40
-0.40000000000000008
40
-0.38571428571428579
40
-0.3714285714285715
40
-0.35714285714285721
40
-0.34285714285714292
40
-0.32857142857142863
40
-0.31428571428571433
40
-0.30000000000000004
40
-0.28571428571428575
40
-0.27142857142857146
40
-0.25714285714285717
40
-0.24285714285714291
40
-0.22857142857142862
40
-0.21428571428571433
40
-0.20000000000000004
40
-0.18571428571428575
40
-0.17142857142857146
40
-0.15714285714285717
40
-0.14285714285714288
40
-0.12857142857142859
40
-0.1142857142857143
40
-0.10000000000000001
40
-0.085714285714285715
40
-0.071428571428571425
40
-0.057142857142857141
40
-0.042857142857142858
40
-0.028571428571428571
40
-0.014285714285714285
40
0
40
0
40
0
40
0
40
0
40
0
41
1
41
1
41
1
41
1
41
1
41
1
41
1
41
1
41
1
41
1
41
1
41
1
41
1
41
1
41
1
41
1
41
1
41
1
41
1
41
1
41
1
41
1
41
1
41
1
41
1
41
1
41
1
41
1
41
1
41
1
41
1
41
1
41
1
41
1
41
1
41
1
41
1
41
1
41
1
41
1
41
1
41
1
41
1
41
1
41
1
41
1
41
1
41
1
41
1
41
1
41
1
41
1
41
1
41
1
41
1
41
1
41
1
41
1
41
1
41
1
41
1
41
1
41
1
41
1
41
1
41
1
41
1
41
1
41
1
41
1
41
1
41
1
41
1
41
1
41
1
10
10.06263608993909
20
7.1057502576260605
30
0
10
10.045266800089271
20
7.1009043251196875
30
0
10
10.01461389468261
20
7.0945205916475071
30
0
10
9.9777122057447123
20
7.091011440688443
30
0
10
9.8806585125561277
20
7.0864385564751435
30
0
10
9.6388832506360806
20
7.0705720981964131
30
0
10
9.2263807882553159
20
7.0455287462466742
30
0
10
8.6519715525366454
20
7.0190612488440429
30
0
10
7.9567934161085674
20
7.0000637151317351
30
0
10
7.2506654432742135
20
6.9921861020297316
30
0
10
6.6685501849524185
20
6.9906481926442865
30
0
10
6.2299946172607017
20
6.9929729625941635
30
0
10
5.912102664841667
20
6.9963930923431707
30
0
10
5.6549485571800622
20
6.9991206515836764
30
0
10
5.4017061550285046
20
7.0002927405838866
30
0
10
5.1079855401430088
20
6.9998683438004701
30
0
10
4.8019933397463177
20
7.000006550940709
30
0
10
4.5200685968429175
20
7.00182074658556
30
0
10
4.2352754429928954
20
7.0034816054718014
30
0
10
3.915362345996046
20
7.0031107279088465
30
0
10
3.5385836134190809
20
7.0005562611401713
30
0
10
3.1152236452013176
20
6.9981707365533277
30
0
10
2.7387560559207933
20
7.0060301511021272
30
0
10
2.4302237020616015
20
7.0175661970554373
30
0
10
2.1688242345278566
20
7.0206970981495429
30
0
10
1.9184912983069555
20
7.0101432217836281
30
0
10
1.6474425995902173
20
6.9912626942611205
30
0
10
1.3679601126690855
20
7.0061845038197736
30
0
10
1.1101965927412398
20
7.0875255951172731
30
0
10
0.89823532667266426
20
7.2431868748883987
30
0
10
0.75074757112619683
20
7.4668050292080039
30
0
10
0.67183762333464292
20
7.7372543461018868
30
0
10
0.6452787615453196
20
8.023460993430815
30
0
10
0.64438764298380868
20
8.2948777101262046
30
0
10
0.64428190391485207
20
8.5412644250749121
30
0
10
0.6324732810426994
20
8.7737396101199181
30
0
10
0.62182258784476818
20
9.0725677230984534
30
0
10
0.66043450690810501
20
9.401686311810046
30
0
10
0.79812699858510816
20
9.6781371663916786
30
0
10
1.0671261985238163
20
9.8206290679219688
30
0
10
1.4425124286647906
20
9.8294306944790932
30
0
10
1.8463695419818495
20
9.7935474942411016
30
0
10
2.2395816397590451
20
9.7411533127873611
30
0
10
2.5937074180385888
20
9.6921306360102886
30
0
10
2.9021671956410655
20
9.6476741107567374
30
0
10
3.1715950292579369
20
9.6046994415728459
30
0
10
3.4299909621395801
20
9.5625963497542177
30
0
10
3.7064541398380788
20
9.5256144542807846
30
0
10
4.0039728216533375
20
9.4910265968014684
30
0
10
4.3171901221039182
20
9.4550416115999507
30
0
10
4.6351683127325529
20
9.4126729655573396
30
0
10
4.9498547322435424
20
9.3600131399517696
30
0
10
5.2635816435342111
20
9.2958086202681809
30
0
10
5.5860610846576169
20
9.2209190344894427
30
0
10
5.9284469941575546
20
9.137090506572628
30
0
10
6.2976285294636094
20
9.0457033968511222
30
0
10
6.6922423443142263
20
8.9471524062135455
30
0
10
7.0937432211403326
20
8.8385194551130937
30
0
10
7.4689467952180904
20
8.7152275822304652
30
0
10
7.8162594972942356
20
8.5842121803031208
30
0
10
8.143720143194555
20
8.4542998418965016
30
0
10
8.466250725355847
20
8.3339688945694608
30
0
10
8.7937365848074105
20
8.2236630626558913
30
0
10
9.1261911506102695
20
8.1161191435017646
30
0
10
9.4375051312599592
20
7.9779305774348073
30
0
10
9.7149342329988855
20
7.8408275972296382
30
0
10
9.9486954853635137
20
7.7404856275442402
30
0
10
10.130223913628036
20
7.7001926940494752
30
0
10
10.235506665074359
20
7.6360977263299779
30
0
10
10.246480758249671
20
7.4439290674899166
30
0
10
10.281033537999393
20
7.2476562961440063
30
0
10
10.192502391356149
20
7.1568785215098805
30
0
10
10.118829633781516
20
7.1235961866857425
30
0
10
10.080005379788906
20
7.1105961901324326
30
0
10
10.06263608993909
20
7.1057502576260605
30
0
0
SPLINE
5
103
100
AcDbEntity
8
0
100
AcDbSpline
70
6
71
5
72
81
73
75
74
0
42
0.000000001
43
0.0000000001
44
0.0000000001
40
0
40
0
40
0
40
0
40
0
40
0
40
0.014285714285714285
40
0.028571428571428571
40
0.042857142857142858
40
0.057142857142857141
40
0.071428571428571425
40
0.085714285714285715
40
0.10000000000000001
40
0.1142857142857143
40
0.12857142857142859
40
0.14285714285714288
40
0.15714285714285717
40
0.17142857142857146
40
0.18571428571428575
40
0.20000000000000004
40
0.21428571428571433
40
0.22857142857142862
40
0.24285714285714291
40
0.25714285714285717
40
0.27142857142857146
40
0.28571428571428575
40
0.30000000000000004
40
0.31428571428571433
40
0.32857142857142863
40
0.34285714285714292
40
0.35714285714285721
40
0.3714285714285715
40
0.38571428571428579
40
0.40000000000000008
40
0.41428571428571437
40
0.42857142857142866
40
0.44285714285714295
40
0.45714285714285724
40
0.47142857142857153
40
0.48571428571428582
40
0.50000000000000011
40
0.51428571428571435
40
0.52857142857142858
40
0.54285714285714282
40
0.55714285714285705
40
0.57142857142857129
40
0.58571428571428552
40
0.59999999999999976
40
0.61428571428571399
40
0.62857142857142823
40
0.64285714285714246
40
0.6571428571428567
40
0.67142857142857093
40
0.68571428571428517
40
0.6999999999999994
40
0.71428571428571364
40
0.72857142857142787
40
0.74285714285714211
40
0.75714285714285634
40
0.77142857142857058
40
0.78571428571428481
40
0.79999999999999905
40
0.81428571428571328
40
0.82857142857142752
40
0.84285714285714175
40
0.85714285714285599
40
0.87142857142857022
40
0.88571428571428445
40
0.89999999999999869
40
0.91428571428571292
40
0.92857142857142716
40
0.94285714285714139
40
0.95714285714285563
40
0.97142857142856986
40
0.9857142857142841
40
1
40
1
40
1
40
1
40
1
40
1
41
1
41
1
41
1
41
1
41
1
41
1
41
1
41
1
41
1
41
1
41
1
41
1
41
1
41
1
41
1
41
1
41
1
41
1
41
1
41
1
41
1
41
1
41
1
41
1
41
1
41
1
41
1
41
1
41
1
41
1
41
1
41
1
41
1
41
1
41
1
41
1
41
1
41
1
41
1
41
1
41
1
41
1
41
1
41
1
41
1
41
1
41
1
41
1
41
1
41
1
41
1
41
1
41
1
41
1
41
1
41
1
41
1
41
1
41
1
41
1
41
1
41
1
41
1
41
1
41
1
41
1
41
1
41
1
41
1
41
1
41
1
41
1
41
1
41
1
41
1
10
-10.062636089939092
20
7.1057502576260649
30
0
10
-10.080005379788908
20
7.110596190132437
30
0
10
-10.118829633781516
20
7.1235961866857469
30
0
10
-10.192502391356149
20
7.156878521509884
30
0
10
-10.281033537999395
20
7.2476562961440107
30
0
10
-10.246480758249673
20
7.4439290674899201
30
0
10
-10.235506665074361
20
7.6360977263299823
30
0
10
-10.130223913628038
20
7.7001926940494796
30
0
10
-9.9486954853635154
20
7.7404856275442446
30
0
10
-9.7149342329988873
20
7.8408275972296426
30
0
10
-9.4375051312599609
20
7.9779305774348099
30
0
10
-9.1261911506102713
20
8.1161191435017681
30
0
10
-8.7937365848074123
20
8.2236630626558949
30
0
10
-8.4662507253558488
20
8.3339688945694625
30
0
10
-8.1437201431945567
20
8.4542998418965034
30
0
10
-7.8162594972942374
20
8.5842121803031244
30
0
10
-7.4689467952180921
20
8.7152275822304688
30
0
10
-7.0937432211403344
20
8.8385194551130972
30
0
10
-6.692242344314228
20
8.9471524062135472
30
0
10
-6.2976285294636112
20
9.045703396851124
30
0
10
-5.9284469941575564
20
9.1370905065726298
30
0
10
-5.5860610846576177
20
9.2209190344894445
30
0
10
-5.2635816435342129
20
9.2958086202681827
30
0
10
-4.9498547322435433
20
9.3600131399517714
30
0
10
-4.6351683127325547
20
9.4126729655573413
30
0
10
-4.3171901221039199
20
9.4550416115999525
30
0
10
-4.0039728216533392
20
9.4910265968014702
30
0
10
-3.7064541398380801
20
9.5256144542807846
30
0
10
-3.4299909621395819
20
9.5625963497542195
30
0
10
-3.1715950292579382
20
9.6046994415728477
30
0
10
-2.9021671956410664
20
9.6476741107567374
30
0
10
-2.5937074180385902
20
9.6921306360102886
30
0
10
-2.239581639759046
20
9.7411533127873629
30
0
10
-1.8463695419818504
20
9.7935474942411016
30
0
10
-1.4425124286647917
20
9.8294306944790932
30
0
10
-1.0671261985238174
20
9.8206290679219688
30
0
10
-0.79812699858510938
20
9.6781371663916786
30
0
10
-0.66043450690810623
20
9.401686311810046
30
0
10
-0.62182258784476951
20
9.0725677230984534
30
0
10
-0.63247328104270095
20
8.7737396101199181
30
0
10
-0.64428190391485363
20
8.5412644250749121
30
0
10
-0.64438764298381035
20
8.2948777101262046
30
0
10
-0.64527876154532138
20
8.023460993430815
30
0
10
-0.67183762333464481
20
7.7372543461018868
30
0
10
-0.75074757112619883
20
7.4668050292080039
30
0
10
-0.89823532667266637
20
7.2431868748883987
30
0
10
-1.110196592741242
20
7.0875255951172731
30
0
10
-1.3679601126690875
20
7.0061845038197736
30
0
10
-1.6474425995902193
20
6.9912626942611205
30
0
10
-1.9184912983069577
20
7.010143221783629
30
0
10
-2.1688242345278588
20
7.0206970981495447
30
0
10
-2.4302237020616033
20
7.0175661970554382
30
0
10
-2.7387560559207955
20
7.006030151102129
30
0
10
-3.1152236452013193
20
6.9981707365533294
30
0
10
-3.5385836134190831
20
7.000556261140173
30
0
10
-3.9153623459960478
20
7.0031107279088474
30
0
10
-4.2352754429928972
20
7.0034816054718023
30
0
10
-4.5200685968429202
20
7.0018207465855617
30
0
10
-4.8019933397463195
20
7.0000065509407099
30
0
10
-5.1079855401430105
20
6.9998683438004718
30
0
10
-5.4017061550285064
20
7.0002927405838884
30
0
10
-5.6549485571800648
20
6.9991206515836781
30
0
10
-5.9121026648416697
20
6.9963930923431734
30
0
10
-6.2299946172607044
20
6.9929729625941661
30
0
10
-6.6685501849524194
20
6.9906481926442892
30
0
10
-7.2506654432742152
20
6.9921861020297342
30
0
10
-7.9567934161085692
20
7.0000637151317378
30
0
10
-8.6519715525366472
20
7.0190612488440465
30
0
10
-9.2263807882553159
20
7.0455287462466769
30
0
10
-9.6388832506360824
20
7.0705720981964166
30
0
10
-9.8806585125561295
20
7.0864385564751471
30
0
10
-9.9777122057447141
20
7.0910114406884466
30
0
10
-10.014613894682611
20
7.0945205916475107
30
0
10
-10.045266800089273
20
7.1009043251196919
30
0
10
-10.062636089939092
20
7.1057502576260649
30
0
0
SPLINE
5
104
100
AcDbEntity
8
0
100
AcDbSpline
70
6
71
5
72
116
73
110
74
0
42
0.000000001
43
0.0000000001
44
0.0000000001
40
-1
40
-1
40
-1
40
-1
40
-1
40
-1
40
-0.99047619047618918
40
-0.98095238095237969
40
-0.9714285714285702
40
-0.96190476190476071
40
-0.95238095238095122
40
-0.94285714285714173
40
-0.93333333333333224
40
-0.92380952380952275
40
-0.91428571428571326
40
-0.90476190476190377
40
-0.89523809523809428
40
-0.88571428571428479
40
-0.8761904761904753
40
-0.86666666666666581
40
-0.85714285714285632
40
-0.84761904761904683
40
-0.83809523809523734
40
-0.82857142857142785
40
-0.81904761904761836
40
-0.80952380952380887
40
-0.79999999999999938
40
-0.79047619047618989
40
-0.7809523809523804
40
-0.77142857142857091
40
-0.76190476190476142
40
-0.75238095238095193
40
-0.74285714285714244
40
-0.73333333333333295
40
-0.72380952380952346
40
-0.71428571428571397
40
-0.70476190476190448
40
-0.69523809523809499
40
-0.6857142857142855
40
-0.67619047619047601
40
-0.66666666666666652
40
-0.65714285714285703
40
-0.64761904761904754
40
-0.63809523809523805
40
-0.62857142857142856
40
-0.61904761904761907
40
-0.60952380952380958
40
-0.60000000000000009
40
-0.5904761904761906
40
-0.58095238095238111
40
-0.57142857142857162
40
-0.56190476190476213
40
-0.55238095238095264
40
-0.54285714285714315
40
-0.53333333333333366
40
-0.52380952380952417
40
-0.51428571428571468
40
-0.50476190476190519
40
-0.4952380952380957
40
-0.48571428571428615
40
-0.47619047619047661
40
-0.46666666666666706
40
-0.45714285714285752
40
-0.44761904761904797
40
-0.43809523809523843
40
-0.42857142857142888
40
-0.41904761904761934
40
-0.40952380952380979
40
-0.40000000000000024
40
-0.3904761904761907
40
-0.38095238095238115
40
-0.37142857142857161
40
-0.36190476190476206
40
-0.35238095238095252
40
-0.34285714285714297
40
-0.33333333333333343
40
-0.32380952380952388
40
-0.31428571428571433
40
-0.30476190476190479
40
-0.29523809523809524
40
-0.2857142857142857
40
-0.27619047619047615
40
-0.26666666666666661
40
-0.25714285714285706
40
-0.24761904761904752
40
-0.238095238095238
40
-0.22857142857142848
40
-0.21904761904761896
40
-0.20952380952380945
40
-0.19999999999999993
40
-0.19047619047619041
40
-0.18095238095238089
40
-0.17142857142857137
40
-0.16190476190476186
40
-0.15238095238095234
40
-0.14285714285714282
40
-0.1333333333333333
40
-0.12380952380952379
40
-0.11428571428571427
40
-0.10476190476190475
40
-0.095238095238095233
40
-0.085714285714285715
40
-0.076190476190476197
40
-0.06666666666666668
40
-0.057142857142857148
40
-0.047619047619047623
40
-0.038095238095238099
40
-0.028571428571428574
40
-0.019047619047619049
40
-0.0095238095238095247
40
0
40
0
40
0
40
0
40
0
40
0
41
1
41
1
41
1
41
1
41
1
41
1
41
1
41
1
41
1
41
1
41
1
41
1
41
1
41
1
41
1
41
1
41
1
41
1
41
1
41
1
41
1
41
1
41
1
41
1
41
1
41
1
41
1
41
1
41
1
41
1
41
1
41
1
41
1
41
1
41
1
41
1
41
1
41
1
41
1
41
1
41
1
41
1
41
1
41
1
41
1
41
1
41
1
41
1
41
1
41
1
41
1
41
1
41
1
41
1
41
1
41
1
41
1
41
1
41
1
41
1
41
1
41
1
41
1
41
1
41
1
41
1
41
1
41
1
41
1
41
1
41
1
41
1
41
1
41
1
41
1
41
1
41
1
41
1
41
1
41
1
41
1
41
1
41
1
41
1
41
1
41
1
41
1
41
1
41
1
41
1
41
1
41
1
41
1
41
1
41
1
41
1
41
1
41
1
41
1
41
1
41
1
41
1
41
1
41
1
41
1
41
1
41
1
41
1
41
1
41
1
10
12.814444406281188
20
-5.9346776690990062
30
0
10
12.74782435140891
20
-5.9651775230496851
30
0
10
12.619054131237004
20
-6.0128702416837099
30
0
10
12.446429866872471
20
-6.0366393461575418
30
0
10
12.283539288643096
20
-5.9583717821091806
30
0
10
12.167318120487325
20
-5.7874526534287396
30
0
10
12.085859584200062
20
-5.6564926826765722
30
0
10
11.896330765548248
20
-5.5434959451478969
30
0
10
11.648969200769018
20
-5.4228660404218649
30
0
10
11.46473561313665
20
-5.2906930005965451
30
0
10
11.425165560550431
20
-5.1355501454694501
30
0
10
11.375026737271639
20
-4.9181960077429014
30
0
10
11.30516519471184
20
-4.6950972796863217
30
0
10
11.263960401903303
20
-4.5309988038709319
30
0
10
11.271567548981871
20
-4.3651691609218473
30
0
10
11.283582119094648
20
-4.0432171420450924
30
0
10
11.293471519508634
20
-3.5913102319961774
30
0
10
11.296077040275117
20
-3.0740458577101917
30
0
10
11.296544868068233
20
-2.5946723222944112
30
0
10
11.299233119949486
20
-2.220039127571765
30
0
10
11.307780287985286
20
-1.9748416478441142
30
0
10
11.314213082079664
20
-1.7172752024432245
30
0
10
11.311678667214363
20
-1.3384522317885919
30
0
10
11.301137853142613
20
-0.8537102510174559
30
0
10
11.286047468683623
20
-0.31753235939556124
30
0
10
11.271888241310476
20
0.18906378484807268
30
0
10
11.263414772925985
20
0.60781027727147174
30
0
10
11.263375646075113
20
0.92334913165499755
30
0
10
11.269461034523696
20
1.2269867650141932
30
0
10
11.274665016024075
20
1.6890257575459615
30
0
10
11.277030344552918
20
2.3127481807334238
30
0
10
11.276061099963464
20
3.0438465291287478
30
0
10
11.27307495348534
20
3.7740394984729093
30
0
10
11.269834338249728
20
4.3917413529232423
30
0
10
11.268152733454098
20
4.8043257133961825
30
0
10
11.268531101112844
20
4.9917265892543625
30
0
10
11.270496909977474
20
5.0019555252237877
30
0
10
11.269045429560869
20
5.081418030229214
30
0
10
11.264456723015806
20
5.3435390848789588
30
0
10
11.262277744509397
20
5.7504909799296939
30
0
10
11.269947620868679
20
6.2023690915858056
30
0
10
11.295475898842371
20
6.5790283728999768
30
0
10
11.343847251076228
20
6.8044754598901021
30
0
10
11.417580108133729
20
6.8970569814163349
30
0
10
11.518992482937843
20
6.9180592691884994
30
0
10
11.677740858427581
20
6.8549523241163897
30
0
10
11.89064260165229
20
6.7108158371540894
30
0
10
12.127100981902114
20
6.5218489323182673
30
0
10
12.352661848249165
20
6.3264268519238289
30
0
10
12.544172782216016
20
6.1552570568579066
30
0
10
12.709841358362416
20
6.0113846501481865
30
0
10
12.876043154910578
20
5.8800404832192914
30
0
10
13.071982235902942
20
5.7389029380068406
30
0
10
13.316743920239324
20
5.5673680757561472
30
0
10
13.601347014745661
20
5.3585186805761236
30
0
10
13.889829364693879
20
5.1202515988607207
30
0
10
14.13540217438911
20
4.8677323427447456
30
0
10
14.292361437986411
20
4.6183003177612632
30
0
10
14.329567719436636
20
4.3854607257078602
30
0
10
14.243668567156854
20
4.1730516550962564
30
0
10
14.071320507966643
20
3.9699169235638121
30
0
10
13.87177528820971
20
3.7589001885121998
30
0
10
13.709930520686243
20
3.5258633150339742
30
0
10
13.640574718383629
20
3.2675377975663458
30
0
10
13.688883643902944
20
3.0026292936538441
30
0
10
13.84358084340068
20
2.7720881648291473
30
0
10
14.073554629624935
20
2.6189459520239193
30
0
10
14.33890581052222
20
2.5734973734652322
30
0
10
14.604983344745781
20
2.6345694519709766
30
0
10
14.852927060826872
20
2.7575586727518298
30
0
10
15.074736370346645
20
2.8777775358448325
30
0
10
15.269889409826394
20
2.9306766638354724
30
0
10
15.441549546563749
20
2.8716632134675182
30
0
10
15.592507398224903
20
2.7002072284845799
30
0
10
15.724737299532197
20
2.449209061012263
30
0
10
15.839886649930436
20
2.165359171721855
30
0
10
15.939412057102803
20
1.8939543377315313
30
0
10
16.024932784974929
20
1.6586786463139918
30
0
10
16.098250599181554
20
1.4544943305022193
30
0
10
16.160901431040941
20
1.2620846671159307
30
0
10
16.21383833688968
20
1.0569290607376689
30
0
10
16.256996125522736
20
0.82162033672122292
30
0
10
16.289106052491508
20
0.5534601092074749
30
0
10
16.308306581844484
20
0.25883722364249356
30
0
10
16.31264047505768
20
-0.050424731668665027
30
0
10
16.300569193530638
20
-0.36133684483239248
30
0
10
16.271543787693108
20
-0.66409357338251596
30
0
10
16.226359022213696
20
-0.95534815464727951
30
0
10
16.166491097316769
20
-1.2359993480975873
30
0
10
16.09358494449668
20
-1.5097733686347097
30
0
10
16.008871511181439
20
-1.7814835903922173
30
0
10
15.912642278164611
20
-2.0554596927026823
30
0
10
15.80362508565223
20
-2.3338194873927365
30
0
10
15.67986522426062
20
-2.6166412614981756
30
0
10
15.539664131561807
20
-2.9022588293630207
30
0
10
15.382567572673706
20
-3.1874863222669028
30
0
10
15.210174769591985
20
-3.467929051811744
30
0
10
15.027409070964813
20
-3.7381176391492343
30
0
10
14.842312617808481
20
-3.9921861395195051
30
0
10
14.662738642312569
20
-4.2257472938614287
30
0
10
14.493712784437886
20
-4.4374401170804916
30
0
10
14.334484394172252
20
-4.6307751671342068
30
0
10
14.175800191683241
20
-4.8154791297283523
30
0
10
13.996907326751673
20
-5.009888223797252
30
0
10
13.77596304334438
20
-5.2288736183616535
30
0
10
13.497250433165107
20
-5.4791914643493298
30
0
10
13.231627730979904
20
-5.6863391100955809
30
0
10
13.018774460469812
20
-5.8298711179792599
30
0
10
12.881064461153457
20
-5.9041778151483308
30
0
10
12.814444406281188
20
-5.9346776690990062
30
0
0
CIRCLE
5
105
100
AcDbEntity
8
0
100
AcDbCircle
10
14.399999825973209
20
3.2499999607231245
30
0
40
0.12500000000000097
210
0
220
0
230
1
0
CIRCLE
5
106
100
AcDbEntity
8
0
100
AcDbCircle
10
-2.7974124768025765e-15
20
9.0000002872286817
30
0
40
0.12499999999999975
210
0
220
0
230
1
0
LINE
5
107
100
AcDbEntity
8
0
100
AcDbLine
10
11.499874999999999
20
-6.1633749999999976
30
0
11
11.499875000000005
21
-7.6631534728600039
31
0
0
ELLIPSE
5
108
100
AcDbEntity
8
0
100
AcDbEllipse
10
0
20
0
30
0
11
16.937999999999999
21
1.8377356004300536e-15
31
0.0
40
0.61621797142519774
41
5.4587060268676195
42
10.249257241081345
0
LINE
5
109
100
AcDbEntity
8
0
100
AcDbLine
10
-11.499875000000024
20
-7.6631534728599924
30
0
11
-11.499874999999999
21
-6.1633749999999976
31
0
0
LINE
5
110
100
AcDbEntity
8
0
100
AcDbLine
10
-11.499874999999999
20
-6.1633749999999976
30
0
11
-10.681875
21
-6.1633749999999976
31
0
0
LINE
5
111
100
AcDbEntity
8
0
100
AcDbLine
10
-10.681875
20
-6.1633749999999976
30
0
11
-10.681875
21
6.2493750000000015
31
0
0
ARC
5
112
100
AcDbEntity
8
0
100
AcDbCircle
10
-10.556875000000003
20
6.2493750000000015
30
0
40
0.1249999999999975
210
0
220
-0
230
1
100
AcDbArc
50
89.99999999999919
51
180
0
LINE
5
113
100
AcDbEntity
8
0
100
AcDbLine
10
-10.556875000000002
20
6.3743749999999997
30
0
11
10.556875
21
6.3743750000000006
31
0
0
ARC
5
114
100
AcDbEntity
8
0
100
AcDbCircle
10
10.556875
20
6.2493750000000015
30
0
40
0.1249999999999996
210
0
220
0
230
1
100
AcDbArc
50
0
51
90
0
LINE
5
115
100
AcDbEntity
8
0
100
AcDbLine
10
10.681875
20
6.2493750000000015
30
0
11
10.681875
21
-6.1633749999999976
31
0
0
LINE
5
116
100
AcDbEntity
8
0
100
AcDbLine
10
10.681875
20
-6.1633749999999976
30
0
11
11.499874999999999
21
-6.1633749999999976
31
0
0
ENDSEC
0
SECTION
2
OBJECTS
0
DICTIONARY
5
C
100
AcDbDictionary
3
ACAD_GROUP
350
D
3
ACAD_MLINESTYLE
350
17
0
DICTIONARY
5
D
100
AcDbDictionary
0
DICTIONARY
5
1A
330
C
100
AcDbDictionary
0
DICTIONARY
5
17
100
AcDbDictionary
0
ENDSEC
0
EOF
